<?xml version="1.0" encoding="utf-8"?>
<!-- Generator: Adobe Illustrator 18.1.1, SVG Export Plug-In . SVG Version: 6.00 Build 0)  -->
<svg version="1.1" id="Layer_1" xmlns="http://www.w3.org/2000/svg" xmlns:xlink="http://www.w3.org/1999/xlink" x="0px" y="0px"
	 viewBox="0 0 224 253.5" enable-background="new 0 0 224 253.5" xml:space="preserve">
<path fill="#9D9D9D" d="M188.1,35.9c1.6,0.6,3.2,1.2,4.8,1.9c1.5-1.1,3.3-1.1,4.1,0.5c1.1,2.2,1.7,4.8-0.8,6.8
	c-0.5,0.2-1,0.3-1.6,0.2c-3.1-2.4-6.4-0.4-9.2,0.2c-5.2,1.1-10.1,3-15.5,3.4c-3.9,0.3-6.7,3.3-10.2,4.5c-0.8,0.3-1.6,0.4-2.4,0.2
	c-6.4,0.6-12.5,1.5-18.6,3.9c-5.4,2.2-11.2,3.8-17,5c-4.8,1-9.5,2.6-14.5,2.6c-2.8,0-4.7-1-4.5-4.1c0.8-2.4,2.9-2.8,5-3.1
	c11.9-1.6,23.1-6,34.6-8.9c8.5-2.1,17.1-3.5,25.5-5.8c1-0.3,1.9-0.7,3.3-0.9c-8.1,2.7-16.2,3.6-23.9,5.6c-8.8,2.4-17.5,4.7-26.2,7.3
	c-6.9,2.1-14.1,3.1-21.3,3.6C84.4,60,69.9,63.6,56.3,70.7c-1.3,0.3-2.4,0.9-3.8,1c-1.3,0-2.6-0.3-3-1.8c-0.4-1.7,0.9-2.6,2-3.3
	c2.1-1.4,4.5-2.1,6.7-3.2C67,59.2,75.7,54.9,85.2,53c3.9-0.7,8,0.1,11.8-1.4c0.5,0,1-0.1,1.5-0.2c6-1.6,11.8-3.9,18-4.4
	c12.7-1,24.7-6,37.4-6.8c2.7-0.2,5.3-1.1,7.9-1.9c4.5-1.6,9.2-2.5,13.7-4.2c3.1-1.2,6.6,1.3,10,1.7C186.4,36,187.2,36.5,188.1,35.9z
	"/>
<path fill="#9D9D9D" d="M173.1,27.6c-0.6-0.4-1.5-0.4-2.3-0.6c-5.7-1.4-11.6-2.2-17.5-2.7c-4.4-0.3-8.9-0.7-13.3-1.1
	c-7.6-0.7-15-2.7-22.6-3.3c-1.6-0.1-3.2-0.3-4.7-0.8c-6-2-12.2-2.4-18.3-3.3c-5.8-0.8-11.6-2-17.2-3.7c-1.9,0.7-3.6,1.6-5.4,1.7
	c4.5,1.8,9.1,3.4,14,4.4c3.5,1.5,7.1,2.7,10.8,3.5c9.3,2,18.5,4.1,28.1,4.5c9.5,0.5,18.9,2.1,28.5,2.9c6.3,0.5,12.7,1.6,18.9,3.2
	c1,0.3,2,0.6,2.9,0.9c0.5,0.1,1,0.2,1.4,0.4c2.6,0.5,5.2,3.2,7.9,0.3C181,31,176.7,30,173.1,27.6z"/>
<path fill="#707070" d="M175.6,32c2.9,0.6,5.8,1.3,8.7,1.9c0,0,0,0,0,0c0.5,0.6,1.4,0.3,1.9,1c0.6,0.3,1.3,0.7,1.9,1
	c0.2,0.3,0.4,0.5,0.5,0.8c0.1,0.4,0.3,1,0.2,1.3c-0.2,0.3-0.8,0.4-1.2,0.5c-0.3,0-0.6-0.1-0.9-0.2c-1.5-0.9-3.1-1.5-4.9-1.3
	c-0.2,0-0.3,0-0.5,0c-3.9-0.6-5.9-0.5-9.9,0.6c-2.7,0.7-5.5,1.4-8.3,2.1c-2,1.1-4.4,0.1-6.4,1.3c-0.7,0.4-2,0.4-2.5-0.7
	c-0.6-1.2-0.2-2.2,0.8-3c0.9-0.7,2-1.2,3-1.3c4.7-0.2,8.9-2.2,13.4-3.1C172.8,32.5,174.3,32.5,175.6,32z"/>
<path fill="#858585" d="M172.8,33.9c-0.4,0.8-0.9,1.4-1.8,1.3c-2.3-0.2-4.4,0.5-6.4,1.4c-2.4,1.1-5,1.1-7.4,1.9
	c-0.3,0.1-0.6,0.2-0.9,0.4c-0.2,0.2-0.5,0.5-0.4,0.7c0,0.2,0.4,0.5,0.6,0.5c2.2-0.1,4.4-0.3,6.6-0.5c-5.3,1.9-10.7,2.9-16.3,3.8
	c-1.6,0.3-3.1,0.5-4.6,1.1c-1.2,0.5-2.5,0.6-3.7,0.9c-2.6,0.6-5.3,1.1-7.9,1.9c-2,0.6-4,1-6.1,1c-2.6,0-5.1,0.3-7.5,1.1
	c-1.4,0.4-2.8,0.7-4.2,0.8c-2.6,0.3-5.1,0.7-7.4,1.7c-2.4,1-4.9,1.3-7.5,1.2c-2.2-2-4.7-0.2-7.1-0.5c-1.6-0.2-3.2,0.1-4.8-0.3
	c-2.2-2.4-6.8-1.2-8-5.2c0.1-1.5,1.2-2,2.4-2.4c0.5-0.2,0.9-0.3,1.4-0.5c0.5-0.1,1-0.2,1.4-0.2c16.7,0.9,32.2-4.4,47.8-9.5
	c5.4-1.8,11-2.7,16.8-1.6c1.3,0.3,2.7,0.6,3.7-0.2c4.5-3.2,9.5-1.1,14.3-1.5c1.2,0.3,2.4,0.1,3.6,0.2c1.3,0.1,2.2,0.8,3,1.7
	C172.6,33.5,172.7,33.7,172.8,33.9z"/>
<path fill="#767676" d="M55.6,69.4c6.7-3.5,13.5-6.6,21-8c2.7-0.5,5.2-1.6,7.8-2.2c3.1-0.7,6.3-1.3,9.5-1.3c1.1,0,2.2-0.1,3.3-0.3
	c5.7-1,11.3-2,17-2.9c5.8-0.9,11.5-2.7,17.2-4.3c3.6-0.9,7.1-2.1,10.6-3.1c0.5-0.1,0.9-0.3,1.4-0.4c8.9-1.2,17.5-3.8,26.2-5.6
	c2.8-0.6,5.7-1,8.5-1.3c0.3,0,0.9,0.4,1.1,0.7c0.3,0.5-0.1,0.9-0.5,1.2c-0.1,0.1-0.3,0.2-0.4,0.2c-6.6,1.1-12.7,4.4-19.6,4.6
	c-1.9,0-3.8,0.6-5.6,1.4c-2.1,0.9-4.3,1.4-6.4,1.8c-5.9,1.3-11.7,3.1-17.6,4.5c-4.4,1.1-8.2,3.5-12.7,4.1c-4.3,0.6-8.5,1.6-12.7,2.4
	c-1.3,1.7-3,2.4-5,2.1c-9.7-1.4-18.9,1.3-28.1,3.5c7.5-1.9,15-3.8,22.8-3.9c1.6,0,2.9,0.2,3.2,2c0.2,1.6-0.8,2.3-2.2,2.7
	c-4.2,1.2-8.5,1.1-12.7,1.8c-9.2,1.6-18.4,3.3-25.6,10c-3.6,2.9-8.3,3.2-12.3,5c-1.1,0.5-2.3,0-2.8-1.2c-0.9-1.7-0.2-3.2,1.2-4.2
	c3.4-2.4,6.7-5,10.5-6.9C53.8,71.1,54.9,70.6,55.6,69.4z"/>
<path fill="#575757" d="M55.6,69.4c0.4,0.2,1,0.2,1.3,0.5c0.4,0.5-0.1,0.9-0.5,1.1c-5,2.6-9,6.6-13.4,10c-0.4,0.3-0.6,0.8-0.2,1.2
	c0.2,0.2,0.6,0.3,0.8,0.2c3.7-1.6,7.7-2.3,11.2-4.3c0.2-0.6,0.5-1,1-1.3c0.5-0.2,1.1-0.2,1.6-0.3c0.4-0.1,0.7-0.3,1.1-0.4
	c0.5-0.2,1-0.5,1.5-0.8c0.4-0.2,0.7-0.3,1.1-0.5c0.7-0.5,1.6-0.8,2.4-1.1c4.8-2.1,9.8-3.3,15-3.7c1.3,2,4.9,1,5.4,4.1
	c-2,3-5.2,2.2-8,2.6c-1.3,0.8-2.1-2.4-3.5-0.4c-3.4,2-7.5,2.3-10.9,4.2c-1.7,1.1-3.4,2.3-5.7,2.1c-1,0.1-2,0.4-3,0.7
	c-0.4,0.1-0.8,0.3-1.1,0.5c-0.6,0.3-1.1,0.5-1.7,0.8c-0.3,0.2-0.7,0.5-1,0.7c-3.7,3.7-8.2,5.6-13.6,5.3c-3.9-2.2-5.8-6.4-9.1-9.2
	c-2.6-2.2-1.3-5.2,2.8-7.6c2.2,0.2,4.1-0.1,5.9-1.6c1.6-1.3,3.7-2,5.8-1.5c4.1,1.1,8-0.3,12-0.4C53.7,70.1,54.7,69.7,55.6,69.4z"/>
<path fill="#8E8E8E" d="M78.7,71.3c-5.6,0.7-11,2.1-16.3,3.9c-0.5,0.5-1.4,0.3-2,0.9c-0.5,0.6-1.4,0.4-1.9,0.9l0,0
	c-0.5,0.6-1.4,0.4-1.9,0.9c-0.6,0-1.3,0.1-1.9,0.1c-0.5-1-0.4-2,0.7-2.4c10.8-4.9,22-8.7,34-9.2c1.1,0,2.2-0.2,3.3-0.4
	c0.8-0.2,1.6-0.4,2-1.2c0.3-0.5-0.8-1-2.3-1.2c-3.1-0.2-6.1,0.3-9,0.9c-5.1,1.1-10.3,1.8-15.2,4c-1.4,0.6-3,0.9-4.6,1.3
	c-0.2,0.1-0.7-0.2-0.7-0.4c-0.1-0.2,0.1-0.7,0.3-0.8c1-0.6,1.9-1.1,2.9-1.6c4.5-2,9.3-3.4,14.2-4.2c7.7-1.3,15.5-2.3,23.3-2.1
	c0.7,2.5,2.6,3.1,4.8,2.7c2.6-0.4,5.3-1,7.9-1.6c1.9-0.4,3.7-0.8,5.6-1.1c-0.5,4.6-5.1,4.8-7.7,5.5c-4.3,1.2-8.5,3.3-13.1,3.2
	c-0.5,0.1-1,0.2-1.5,0.3c-3,1.5-6.4,0.6-9.5,1.4C86.3,71.8,82.5,72.2,78.7,71.3z"/>
<path fill="#747474" d="M52.8,70.4c-3.7,1.7-7.4,3.5-11.1,5.2c-0.6,0.3-1.2,0.2-1.6-0.5c-1.1-2.2-1.1-2.2-2.8-1.5
	c-1.9,0.8-3.7,1.7-5.6,2.5c-0.9,0.4-1.5,0.1-1.9-0.8c-0.1-0.2-0.1-0.4-0.2-0.6c-0.2-0.4-0.3-0.8-0.4-1.2c0-0.2,0-0.4,0-0.7
	c0.2-1,0.7-1.7,1.5-2.2c4.4-2.3,7.4-6.7,12.3-8.3c6.9,2.1,12.8-1.1,18.8-3.5c4.3-1.7,8.3-4.2,12.5-6.1c3.8-1.7,7.7-3.2,12-1.6
	c3,0,5.9,0.1,8.8-0.6c0.7-0.2,1.5-0.1,2.3-0.1c1.2,0.1,1.4,0.8,0.7,2.3c-0.1,0.1-0.2,0.2-0.3,0.4c0,0,0,0,0,0
	c-3.9,2.6-8.4,0.6-12.5,1.9c-1.7,0.3-3.4,0.7-5.2,1c-3.2,0.5-6.1,1.6-9,3.2c-4.5,2.4-9.3,4.3-13.9,6.3c-1.9,0.8-3.8,1.7-5.4,3
	c-0.5,0.4-1.1,0.9-0.5,1.5C51.7,70.3,52.3,70.3,52.8,70.4z"/>
<path fill="#777777" d="M99.9,67.6c0.9-0.3,1.7-0.8,2.7-0.9c5.5-0.9,10.9-2.1,16.1-4c1.2-0.4,2.3-0.9,3.3-1.8
	c5.2-1.4,10.6-2.2,15.4-4.5c5.6-2.6,11.6-2.8,17.3-4.8c0.9-0.3,1.9-0.2,2.8-0.3c0.1,0.2,0.3,0.4,0.4,0.6c0,0.5-0.1,0.9-0.4,1.3
	c-1.6,1.6-3.7,2.3-5.6,3.4c-0.4,0.1-0.8,0.3-1.2,0.5c-0.6,0.3-1.1,0.4-1.7,0.6c-0.4,0.2-0.7,0.3-1.1,0.5c-0.7,0.3-1.5,0.3-2.3,0.5
	c-0.4,0.1-0.7,0.3-1.1,0.4c-0.8,0.3-1.6,0.3-2.4,0.5c-0.4,0.2-0.8,0.4-1.2,0.5c-0.9,0.2-1.9,0.3-2.8,0.7c-10.1,3.1-20.4,5.6-30.7,8
	C105,69.3,102,70.7,99.9,67.6z"/>
<path fill="#606060" d="M194.7,44.4c-0.6,0.3-1.2,0.7-1.8,1c-0.8,1-2.1,0.1-2.9,0.9l0,0c-0.7,1-2.1,0.1-2.8,1l0,0
	c-0.8,0.9-2.1,0.1-2.9,0.9l0,0c-3.4,2.6-7.1,4-11.4,4.3c-4.3-0.6-8.6,0.9-12.9-0.3c-0.4-0.3-0.7-0.7-0.8-1.3
	c4.8-2.1,9.8-3.6,14.9-4.8c5.5-1.3,11.1-2.5,16.7-3.4C192.4,42.6,194,42.4,194.7,44.4z"/>
<path fill="#858585" d="M85.4,55c1-0.6,2-0.9,3.1-0.9c3.2,0.1,6.2-0.5,9.3-1c-1.5,1.4-3.3,1.8-5.3,1.9C90.2,55,87.8,55,85.4,55z"/>
<path fill="#606060" d="M157.4,52.2c0-0.3,0-0.6,0-1c0.6-0.1,1.2-0.1,1.8-0.2c0,0,0.2,0.2,0.2,0.2C159.3,52.8,158.4,52.7,157.4,52.2
	z"/>
<path fill="#4C4C4C" d="M169.9,33.1c-1.3-0.1-2.5-0.1-3.8-0.2c-7.6-1.7-15.5,0.1-23.1-1.1c-12.7-2-23.3,4-34.2,8.2
	c-8.5,3.2-17,4.9-25.9,4.9c-0.4-0.3-0.7-0.6-0.7-1.1c3.9-4.4,9.7-4.1,14.6-5.9c7.3-2.6,15-4,22-7.5c-8.9,4.2-18.7,6.2-28,9.2
	c-3.4,1.1-6.6,2.2-9.7,3.9c-2.7,1.4-5.4,2.9-8.6,2.4c-0.7-0.1-1.3-0.4-1.8-1c-0.3-0.4-0.4-0.8-0.4-1.3c0-0.7,0.3-1.3,0.8-1.8
	c0.5-0.4,1.1-0.6,1.6-0.8c0.3-0.1,0.7-0.3,1-0.4c0.3-0.2,0.6-0.3,1-0.5c0.5-0.2,0.9-0.5,1.4-0.7c0.3-0.1,0.6-0.2,0.9-0.4
	c0.3-0.2,0.6-0.3,0.9-0.5c0.3-0.1,0.6-0.2,1-0.3c0.5-0.2,0.9-0.5,1.4-0.7c0.4-0.1,0.7-0.2,1.1-0.3c0.4-0.1,0.8-0.2,1.1-0.3
	c0.4-0.1,0.8-0.2,1.2-0.4c5.6-2,11.6-2.4,16-4.1c-5.9,2.1-13.5,2.8-20.6,5.6C78.7,38,78.2,38,77.8,38c-3.8-2.9-1.3-4,1-4.9
	c-2.6,0-5.4,2.8-8.7,0.7c-1.1-0.7-2.4-1-2.4-2.6c0-1.5,1.2-2.2,2.3-2.7c3.2-1.5,6.9-2.3,10.2-1.8c3.5,0.5,6.8,0.5,9.4-0.4
	c-0.6,0-1.7,0.4-3,0.7c-3.7,0.9-4.6,0.1-3.9-3.6c0.2-1.2,0.1-2.1-0.7-3.1c-0.8-1-1.6-2.3-0.5-3.5c1.1-1.2,2.6-0.8,3.9-0.2
	c7.2,1.6,14.3,3.3,21.5,4.9c5.8,1.2,11.6,2.2,17.5,2.8c5.4,0.6,10.7,1.5,16.1,2.2c1.9,0.3,3.8,0.5,5.7,0.5c9.3,0.2,18.4,2.1,27.4,4
	c0.5,0.5,1.4,0.3,1.9,0.9c0,0,0,0,0,0c-0.5,1.3-1.6,1.8-2.8,1.9c0,0,0,0,0,0C172,33,170.7,33.8,169.9,33.1z"/>
<path fill="#5A5A5A" d="M61.6,37.2c0.3-0.1,0.6-0.2,0.9-0.2C62.2,37,61.9,37.1,61.6,37.2z"/>
<path fill="#5A5A5A" d="M96.7,24.6c-0.8,0-1.6,0-2.4,0.1c-3,0.4-6,0.9-9,1.3c-0.4,0.1-1,0-1-0.6c0-0.2,0.3-0.6,0.6-0.7
	c1-0.4,2.1-0.7,3.1-1.2c1.1-0.5,1.2-1.7,0.2-2.1c-1.9-0.9-3.4-2.4-5-3.6c-0.4-0.3-0.1-0.9,0.4-1c0.6-0.2,1.3-0.2,1.9-0.3
	c-1-0.4-2-0.9-3.1-1.2c-2.9-0.7-5.6-1.9-8.4-2.9c-4.4,0-8.1,1.6-12.4,1.9c-1.1,0.5-2.1,1.3-2,2.7c0.5,5.5-2.7,8-7.2,9.6
	c-1.5,0.5-2.4,1.6-2.3,3.2c0.1,1.8,1.4,2.3,3,2.4c0.4,0,0.9,0,1.3-0.1c2-1.1,4.5-0.5,6.2-1.3c-1.1,0.8-3,0.2-4.4,1.1
	c-0.3,0.3-0.6,0.7-0.8,1.1c-0.1,0.5-0.1,0.9-0.1,1.4c1.2,3.9,3.7,3.2,6.3,2.5c0.3-0.1,0.6-0.2,0.9-0.2c-0.3,0.1-0.6,0.1-0.9,0.2
	c-1.8,0.5-3.4,1.3-4.9,2.7c-1.2,1.1-3,1.5-2.3,3.6c0.7,1.9,2.6,1.6,4.1,1.5c6.3-0.4,12-2.6,17.6-5.4c1.1-0.6,3.1-0.6,2.5-2.8
	c-0.8-0.4-1.4-1-0.5-1.8c0.6-0.5,1.4-0.7,2.2-0.9c1.4-0.3,2.9-0.4,4-1.3c0.2-0.2,0.5-0.5,0.5-0.8c0-0.6-0.5-0.8-0.9-0.8
	c-3.3,0.3-6.6,0.6-10,1c-1.1,0.1-2.2,0.4-3.3,0c-0.4-0.2-0.9-0.5-1-0.9c-0.2-0.5,0.3-0.9,0.8-1c2.2-0.4,4.4-0.9,6.6-1.2
	c6-1,11.9-1.9,17.9-2.8c0.6-0.1,1.3-0.2,1.8-0.5c0.2-0.1,0.5-0.4,0.5-0.7C97.2,25,96.9,24.6,96.7,24.6z"/>
<path fill="#2B2B2B" d="M164.1,240.3c-1.3,0.3-2.4,1-3.3,1.9c-1.5,1.4-3.2,2-5.2,2c-2.4-0.1-4.8,0.4-7.1,1c-0.9,0.2-1.9,0.5-2.7,0.9
	c-4.6,2.3-9.4,3.9-14.4,5.1c-1.3,0.3-2.5,0.4-3.8,0.2c-1.9-0.2-3.8-0.4-5.7-0.5c-3.7-0.2-7.3-1-10.3-3.4c-1.6-1.3-3.2-1.9-5.3-1
	c-1.9,0.8-3.9,0.6-5.6-0.4c-2.9-1.6-5.9-2.2-9.1-2.7c-2.7-0.5-5.2-1.5-7.2-3.5c-1.4-1.4-3.2-2.2-4.9-3c-4.8-2.3-8.7-5.6-12.1-9.9
	c-3.6-4.5-7.4-8.8-10.9-13.3c-2.4-3-4.6-6.1-5.7-9.9c2.4-2.1,4.7-1.3,6.8,0.4c1.9,1.5,3.2,3.6,4.5,5.5c2.4,3.5,4.3,7.6,9.5,7.7
	c0.8,0,1.5,0.8,1.9,1.2c5.3,7.3,14.3,10.5,19.5,17.8c-0.4-0.8-1.1-1.2-1.6-1.8c-1.1-1.2-1.4-2.5-0.4-3.8c1-1.3,2.4-1.4,3.9-0.7
	c2.6,1.3,4.7,3.2,6.7,5.3c1.9,2.1,3.5,3.1,6.2,0.4c3.7-3.5,10-3.2,12.9-0.6c-8.5-6.2-15-15.7-24.4-22c-0.3-0.3-0.6-0.6-0.9-0.9
	c-0.2-0.3-0.4-0.7-0.5-1.1c-0.1-0.2-0.2-0.3-0.3-0.5c-0.2-0.3-0.4-0.6-0.6-0.9c-0.2-0.3-0.4-0.6-0.6-0.9c-0.2-0.3-0.4-0.6-0.6-0.9
	c-0.2-0.3-0.4-0.6-0.7-0.9c-0.3-0.3-0.5-0.5-0.8-0.7c-0.2-0.1-0.3-0.2-0.5-0.3c-0.3-0.3-0.5-0.6-0.7-0.9c-0.4-1-0.8-1.9-1.4-2.8
	c-0.3-0.6-0.6-1.2-0.7-1.8c2.6-3.5,6.3-4.1,9.2-1c3.4,3.7,7.4,5.7,12.5,5.4c0.4-0.2,0.8-0.5,1.2-0.7c0.4-0.2,0.9-0.3,1.4-0.3
	c0.5,0,1,0.2,1.4,0.4c1.7,0.7,2.3,1.9,1.6,3.6c-0.2,0.4-0.5,0.8-0.9,1.1c-0.6,0.3-1.2,0.7-1.8,1c-4.4,2.3-4.4,2.3-0.8,5.6
	c3.4,3.2,7.1,6.1,10.5,9.2c3.8,4.3,8.1,7.7,14.1,9.1c3.9,0.9,7.2,0,10.7-0.8c0.5,0,0.9,0.1,1.4,0.2c2.4,0.7,4.6,1.1,7.2,1
	c3.5-0.2,7.1,1,9,4.8C164.7,239.6,164.4,240,164.1,240.3z"/>
<path fill="#3E3E3E" d="M96.9,210.6c4.3,3.3,8.4,6.9,12.2,10.7c5.3,5.3,10.2,11,16.3,15.5c0.5,0.4,0.9,0.9,1.2,1.5
	c0.2,0.4,0.1,1-0.1,1.3c-0.2,0.3-0.8,0.5-1.3,0.4c-0.6-0.1-1.3-0.3-1.8-0.6c-1.2-0.8-2.4-1.5-3.5-2.4c-1.6-1.3-3.2-2.1-5.1-0.4
	c-0.4,0.4-1.1,0.5-1.7,0.7c-1.2,0.3-2.6-0.9-3.6,0.3c-0.8,0.9,0.3,2.1,0,3.2c-0.4,1.5-1.9,2.3-3.3,1.5c-2-1-3.7-2.5-5.2-4.1
	c-2-2.1-4.1-4-6.5-5.6c-0.4-0.3-0.8-0.6-1.2-0.7c-0.2-0.1-0.7,0-0.8,0.2c-0.2,0.2-0.2,0.7-0.1,0.8c1.2,1.4,2.6,2.8,3.8,4.3
	c1,1.4,3.5,2,2.6,4.5c-2.2,0.6-3-1.4-4.4-2.4c-1.8-1.3-3.4-2.9-5.1-4.3c-2.4-1.8-4.9-3.6-7.4-5.2c-1.9-1.2-3.5-2.7-4.8-4.6
	c-1.4-2-3.1-3.7-4.9-5.3c-0.9-0.8-1.3-0.5-1.6,1c-0.1,0.8-0.4,1.4-1.1,0.8c-2.7-2.3-5.2-4.7-7.2-7.6c-1.1-1.6-2.2-3.1-3.2-4.8
	c-1.6-2.6-3.7-4.3-6.8-4.9c-0.5-0.1-0.9-0.3-1.3-0.5c0,0,0,0,0,0c-0.6-0.5-0.4-1.4-1-1.9l0,0c-0.3-0.3-0.6-0.7-0.9-1
	c0-0.3,0-0.6,0-0.9c-0.3-0.3-0.6-0.7-0.9-1l0,0c-0.6-0.5-0.4-1.4-1-1.9l0,0c-0.3-0.3-0.6-0.7-0.9-1c0-0.3,0-0.6,0-0.9
	c-0.3-0.3-0.6-0.7-0.9-1c-1-3.6-3.2-6.8-3.9-10.5c3-3.1,4.6-3.1,6.7,0.8c2.4,4.4,4.3,9.3,8.7,11.8c8.3,4.8,11.6,14,17.7,19.2
	c-1-1.4-2.9-3.4-4.8-5.4c-1.4-1.5-2.1-3-0.6-4.6c1.5-1.6,3.2-0.9,4.7,0.3c3.2,2.6,5.5,6.2,9.6,8c-0.9-5.3,4.3-4.7,6.7-6.7
	c1.9-1.5,3.4,0.6,4.6,2.1C95.1,209.9,95.9,210.5,96.9,210.6z"/>
<path fill="#4E4E4E" d="M96.9,210.6c-0.8,0.4-1.5,0.5-2.2-0.1c-0.6-0.5-1.2-1-1.9-1.5c-1.1-0.8-1.6-0.7-2.1,0.5
	c-1.3,3-1.3,3-4.9,2.3c-0.3-0.1-0.7,0-0.8,0.2c-0.1,0.2-0.2,0.7-0.1,0.9c0.6,1,1.2,1.8,1.8,2.8c0.6,0.9,1.2,1.9,1.1,3.1
	c0,0.4-0.2,1-0.6,1.2c-0.3,0.2-1,0-1.3-0.2c-0.5-0.4-0.9-0.9-1.2-1.5c-0.9-1.7-2.2-2.7-4.1-3c-1.5-0.2-2.6-1.1-3.5-2.3
	c-1.8-2.3-3.8-4.3-6-6.2c-0.4-0.3-0.9-0.5-1.2,0.1c-0.1,0.2-0.1,0.7,0.1,0.9c2.2,3.1,4.5,6.2,6.8,9.3c1,1.4,2,2.8,3,4.3
	c-1.2,0.9-1.7-0.1-2.1-0.5c-5.4-5.6-11.5-10.6-16-17.1c-0.6-0.9-1.3-1.9-2.4-2.3c-5.6-2.4-8.9-7-11.7-12.1c-0.6-1.1-1.2-2.2-1.7-3.4
	c-1-2.4-2.6-3-5-2.2c0,0,0,0,0,0c-0.9-0.8,0-2.1-1-2.9c-3.8-8.3-6.4-17-8.7-25.9c-0.7-3.4-1.7-6.7-1.4-10.2c0.1-1.2,0.4-2.3,1.7-2.6
	c1.3-0.3,2,0.6,2.6,1.7c1.3,2.7,1.7,5.6,2.4,7.6c-0.9-2.8-1.5-6.6-3.6-9.9c-1.3-1.9-1.2-4.3,1.4-5.1c2.6-0.8,3.1,1.2,3.9,3.5
	c3.4,9.9,6.2,20.1,10.7,29.5c0.9,1.8,1.6,3.9,4.1,4.2c2,0.5,2.6,2.3,3.3,3.8c1.9,4.2,4.3,8.2,6.6,12.2c1,1.8,1.8,3.7,4.6,3.3
	c1.6-0.2,2.2,1.6,2.8,2.4c-1.5-2.9-4.5-5.3-6-8.7c-0.9-2.1-2-4.1,0-6.2c0.4-0.4,0.8-0.6,1.3-0.7c0.5-0.1,1-0.1,1.6,0
	c0.5,0.1,1,0.3,1.4,0.6c0.6,0.5,1,1.1,1.4,1.7c4.8,8.2,10.4,15.6,19.2,19.8c0.2,0,0.4,0,0.7,0c0.6,1,1.3,1.9,1.9,2.9
	c0.3,0.3,0.6,0.7,1,1l0,0c0.3,0.3,0.6,0.6,0.9,1l0,0c0.6,0.5,0.4,1.4,1,1.9l0,0c0.3,0.3,0.6,0.6,1,1l0,0
	C96.3,209.9,96.6,210.3,96.9,210.6L96.9,210.6z"/>
<path fill="#3F3F3F" d="M52.8,175c-0.1,0.5-0.2,0.9-0.4,1.4c-0.2,0.5-0.7,0.6-1.2,0.3c-0.9-0.5-1.2-1.5-1.6-2.3
	c-3.9-9.1-8-18-10.7-27.6c-0.8-2.7-1.9-5.4-2.8-8.1c-0.1-0.2-0.5-0.5-0.7-0.5c-0.2,0-0.5,0.3-0.6,0.6c-0.4,1.6,0.3,3.1,0.7,4.6
	c1.5,4.9,2.9,9.8,4.3,14.7c0.1,0.4,0.1,1-0.5,1c-0.2,0-0.6-0.3-0.7-0.5c-0.8-2.1-1.6-4.2-2.3-6.3c-0.9-2.5-1.8-5.1-2.7-7.6
	c-0.1-0.4-0.6-0.8-1-0.8c-0.8-0.1-1,0.6-1.3,1.2c-0.6,1.5-0.5,3.1-0.3,4.7c0.3,1.7,0.4,3.5,0.6,5.2c-1-1.5-1.3-3.3-1.6-5
	c-1.7-9.2-3.4-18.5-5.1-27.7c-0.3-0.3-0.6-0.7-0.9-1c0-0.3,0-0.6,0-0.9c0-2.5,1.7-1.8,2.9-1.3c3.7,1.4,7.2,3.2,7.3,7.4
	c-1.4-4.2-1.4-4.2,1.9-6c0.2-0.6-0.5-0.9-0.8-1.2c-1.7-2-3.7-4-1.6-6.7c2-2.5,4.4-0.8,6.5-0.1c2.5,0.9,5.1,1.8,7.8,1.7
	c1.1,0,2.2,0.4,3.2,0.8c0.4,0.1,0.8,0.3,1.2,0.6c4.4,5.6,9.4,10.6,15,15c0.3,0.2,0.6,0.5,0.9,0.8c0.3,0.2,0.6,0.5,0.8,0.8
	c0.3,0.2,0.5,0.5,0.8,0.8c0.1,0.1,0.3,0.3,0.4,0.4c0.3,0.3,0.5,0.5,0.8,0.8c0.1,0.1,0.3,0.3,0.4,0.4c0.3,0.3,0.6,0.6,0.8,0.9
	c0.1,0.2,0.3,0.3,0.4,0.5c0.3,0.3,0.5,0.7,0.7,1.1c0.1,0.2,0.1,0.4,0.1,0.7c0.2,3.6-1.4,4.7-4.6,3.1c-2.4-1.1-4.9-2.1-6.6-4.4
	c-0.6-1-1.3-1.8-2.4-2.3c-2.1-0.8-1.5-3.4-3.1-4.5c-0.1-0.7-1-0.4-0.3-0.5c0.2,0,0.2,0.1,0.3,0.3c0.5,1,0.5,2-0.4,2.6
	c-1.9,1.2-3.2,0.2-3.9-1c-0.8,6.2,1.9,12.1,4.8,17.9c0.7,1.3,0.8,2.8-0.4,4c-1.2,1.2-2.3,0.6-3.4-0.2c-0.4-0.3-0.7-0.6-1-0.9
	c-0.3-0.3-0.5-0.7-0.8-1.1c-0.1-0.2-0.2-0.4-0.3-0.6c-1.1-1.7-2.2-3.4-3.3-5.1c1.3,2.1,2.8,4.1,4,6.3c0.3,0.3,0.5,0.7,0.8,1
	c0.3,0.3,0.5,0.6,0.8,1c0.2,0.4,0.4,0.7,0.5,1.1c0.3,0.6,0.6,1.1,0.8,1.7c0.2,0.4,0.3,0.8,0.5,1.2c0.2,0.6,0.4,1.2,0.6,1.9
	c0,0.5,0,0.9-0.2,1.3c-2.4,3.6-4.6,1.9-6.2-0.7c-2.6-4.3-4.2-9.1-5.4-11.8c2.2,4.9,5,11.8,7.7,18.7c0.3,0.6,0.5,1.2,0.8,1.7
	c0.2,0.4,0.3,0.8,0.5,1.1c0.2,0.6,0.4,1.2,0.5,1.8c0.1,0.4,0.2,0.8,0.2,1.2c0,0.6-0.2,1.2-0.6,1.7C53.4,174.5,53.1,174.8,52.8,175z"
	/>
<path fill="#3F3F3F" d="M3.8,117.4c-0.9,0.1-1.6-0.2-1.7-1.2c0-0.9,0.1-1.9,0.3-2.8c1.8-8.1,5.4-15.3,9.9-22.1
	c3.8-5.7,7.9-11.2,11.3-17.2c1.7-3,3.3-6.2,6.2-8.4c4.7,0.7,6.5-3.8,10-5.4c1.5-0.7,2.9-1.9,4.7-1.9c1.4,0.1,2.6,0.5,3.1,2
	c-0.1,3-2.2,3.3-4.5,3.2c-1.3,0.3-2.3,0.9-3.2,1.8c-2.5,2.6-5.5,4.6-8.3,6.9c-0.6,0.4-0.4,1.4-1,1.9l0,0c-0.3,0.3-0.6,0.7-0.9,1
	c0,0,0,0,0,0c-0.6,0.5-1.2,1-1.7,1.6c-0.5,0.6-1,1.4-0.9,2.1c0.1,1.1,1.2,0.5,1.9,0.8c0.4,0.1,1,0.5,1,0.8c0.3,2.2,1.7,2.4,3.5,1.9
	c0.6-0.1,1.2-0.2,1.9-0.2c0.2,0,0.4,0.4,0.6,0.6c0.1,0.1,0,0.3-0.1,0.4c-0.2,0.2-0.4,0.4-0.7,0.6c-0.8,0.7-2.5,0.5-2.3,2
	c0.1,1,1.6,0.9,2.2,1.5c0.6,0.6,0.6,1.4,0.4,2.2c-0.1,0.2-0.1,0.5-0.2,0.7c-2.7,3.4-6.8,3.6-10.6,4.6c-1.1-0.5-1.5-1.5-1.8-2.6
	c-0.3-1.1,0.1-2.9-1.7-3c-1.4-0.1-2,1.4-2.8,2.4c-2.7,3.7-4.8,7.9-8.9,10.4l0,0c-0.3,0.3-0.6,0.6-0.9,1l0,0
	c-0.7,1.2-0.9,2.7-1.9,3.8c0,0.3,0,0.6,0,0.9c-0.9,0.8-0.1,2.1-1,2.9l0,0c-0.9,0.8-0.1,2.1-1,2.9c-0.9,0.8,0,2.1-1,2.9
	C3.8,116.8,3.8,117.1,3.8,117.4z"/>
<path fill="#2E2E2E" d="M48,115.5c-1.4,0.8-2.8,0.2-4.1-0.3c-2.3-0.7-4.5-1.4-6.8-2.1c-0.6-0.2-1.3,0-1.7,0.6
	c-0.4,0.6-0.3,1.3,0.1,1.8c1.8,2.4,2.7,5.4,5.1,7.5c0.4,0.3,0.6,0.7,0.9,1.1c0.3,0.6,0.6,1.2,0.1,1.8c-0.5,0.6-1.2,0.4-1.7-0.1
	c-0.7-0.6-1.3-1.4-2-2.1c-0.4-0.5-0.8-1-1.3-1.4c-0.2-0.2-0.6-0.2-0.9-0.1c-0.2,0.1-0.5,0.5-0.5,0.7c0.2,1.6,0.4,3.1,0.6,4.7
	c0.2,1.4,0.5,2.8,0.6,4.2c0,0.4-0.3,1-0.6,1.1c-0.5,0.2-0.8-0.3-1-0.8c-0.9-2.4-1.7-4.8-2.5-7.2c-0.2-0.4-0.4-0.9-0.7-1.3
	c-0.5-0.6-0.9-0.6-1.6-0.1c-1.6,1.3-1.7,1.3-2.6-0.2c-0.6-0.9-1.1-1.9-1.7-2.9c-0.4-0.6-1-0.6-1.7-0.4c-0.6-0.3-1.3-0.7-1.9-1
	c-0.7-0.8-1.7-1.6-0.8-2.9c2-0.9,1-2.4,0.9-3.8c-1.1-2.6,0.8-3.4,2.5-2.8c4.8,1.8,9.1-1,13.7-0.9c1.4-0.5,2.7,0,3.9,0.6
	c0.4,0.1,0.8,0.2,1.2,0.3c0.6,0.1,1.3,0.1,1.8,0.4c0.3,0.2,0.6,0.5,0.8,0.8c0.2,0.3,0.5,0.6,0.7,0.9c0.1,0.1,0.2,0.3,0.4,0.4
	c0.2,0.3,0.4,0.6,0.6,0.9c0.1,0.2,0.2,0.3,0.3,0.5c0.1,0.4,0.1,0.7,0.1,1.1C48.1,115.2,48,115.3,48,115.5z"/>
<path fill="#2B2B2B" d="M38.4,110.7c-1.4,1-2.9,0.9-4.5,0.6c-1.2-0.2-2,0.3-2.9,1.1c-2.3,2.3-2.9,2.3-5.6,0.6
	c-0.7-0.4-1.2-1-1.9-1.3c-0.7-0.3-1.1,0.3-1.4,0.9c-1.6-1.8-2.3-3.7-1.1-6c0.8-1.5,0.5-3,0.1-4.6c0,0,0,0,0,0
	c3.7-1.2,6.1,0.7,8.1,3.5c0.3,0.3,0.6,0.5,1,0.7c1.2,0.3,2.4,0.1,3.6,0.3c0.4,0.1,0.8,0.2,1.2,0.3c0.6,0.1,1.2,0.3,1.8,0.6
	c0.6,0.3,1.1,0.7,1.5,1.3c0.2,0.4,0.3,0.8,0.3,1.3C38.4,110.3,38.4,110.5,38.4,110.7z"/>
<path fill="#6C6C6C" d="M82.5,44.5c1.8,0,3.5-0.4,5.2-0.9c1.4-0.4,2.7-0.9,4.1-1.1c7.7-1.4,14.9-4.4,22.1-7.4
	c3.5-1.4,7.2-2.5,10.8-3.8c1.8-0.6,3.6-1.2,5.4-2c2.1-0.9,4.3-1.2,6.5-0.6c2.5,0.7,5,0.6,7.5,0.6c3.4,0,7-0.1,10.4,1.1
	c1.3,0.4,2.8,0.5,4.2,0.7c2.6,0.2,5.1,0.6,7.4,1.8c-2.5,0.5-5.1,0.6-7.6-0.1c-1.3-0.4-2.5,0-3.5,0.9c-1,0.8-2.1,1.5-3.2,2.1
	c-1.8,0.9-3.6,1.2-5.4-0.2c-0.5-0.4-1.3-0.8-1.7-0.6c-2.7,1.5-5.6,0.3-8.5,1c-5.1,1.2-9.9,3.5-15,4.6c-0.3,0.1-0.6,0.3-0.9,0.3
	c-8.9,2-17.7,4.5-26.8,5.4c-1.9,0.2-3.8,0.1-5.7-0.2c-1.7-0.3-3.5-0.4-5.2-0.6C82.3,45.1,82.3,44.8,82.5,44.5z"/>
<path fill="#949494" d="M43.2,63.7c1.3-0.9,2.6-1.9,4-2.8c0.2-1.4,1.1-2.2,2.3-2.9c7.9-4.1,15.9-8.1,24.4-10.8
	c1.5-0.5,3.3-1.6,4.9,0.1c0.5,0.1,1,0.1,1.4,0.2c2.4,1.1,4.7,1.8,7.2,0.4c0.2-0.1,0.9,0.2,1.2,0.5c0.3,0.4,0.2,0.9-0.2,1.3
	c-0.6,0.5-1.3,1-1.9,1.5c-7,1.8-13.5,4.6-19.8,8c-3.6,2-7.5,3.5-11.3,4.8c-2.5,0.9-5.1,1.5-7.9,1c-1.2-0.2-2.5,0-3.8-0.1
	C43.1,64.8,43.1,64.1,43.2,63.7z"/>
<path fill="#575757" d="M78.6,47.3c-9.5,2.9-18.5,6.9-27.3,11.3c-1.4,0.7-2.8,1.5-4.2,2.2c-0.9-0.7-2-1-3.1-1.1
	c-0.3-1.5,0.7-2.2,1.9-2.9c8.8-4.7,17.9-8.4,27.3-11.4c2.4,0.1,4.1-1.8,6.4-2c0.7-0.1,1.3-0.3,1.9-0.5c0.4,0,0.8,0.2,1.1,0.5
	c0,0.3,0,0.6,0,0.9c0,0.3,0,0.7,0,1c0,0,0,0,0,0c-0.3,0.3-0.7,0.6-1,0.9C80.5,46.4,79.5,46.6,78.6,47.3z"/>
<path fill="#6C6C6C" d="M81.6,46.4c0.3-0.3,0.7-0.6,1-0.9C82.2,45.8,81.9,46.1,81.6,46.4z"/>
<path fill="#A5A5A5" d="M172.8,51.2c1.8,0,3.4-0.7,5-1.3c2.1-0.7,4.2-1.6,6.4-1.7c-0.2,0.7-0.3,1.3,0,2c0.6,1.9-0.8,2-2,2.4
	c-4.3,1.6-8.7,2.5-12.6,3.8c2.5,0,4.9-2.6,8.1-1.5c1.3,1.1,2.3,2.3,2.4,4.1c-0.3,1.8-1.7,1.9-3.2,2.2c-5.8,1.3-11.7,1.7-18.6,3.4
	c4.4-0.9,7.7-2.4,11.1-0.9c1.7,1.8,3.6,1.1,5.3,0.3c4.4-2.1,8,0.4,11.7,1.8c1.7,0.6,1.9,2.2,1.5,4c-0.6,2.8-2.3,5-4.9,5.1
	c-7.2,0.2-14.3,1.1-21.5,1.1c-1.2,0-2.1-0.5-2.6-1.6c-0.2-2.2,1.4-3,2.9-3c3.8-0.1,7.3-1.4,10.9-1.9c-19,3.3-38.1,4.8-57.3,6.5
	c-11.2,1-22.6,0.9-33.8,3.4c-6.2,1.4-12.7,1.7-19,3c-1.8,0.4-4.8,0.2-2.3-3.2c3.7-1.8,7.8-2.5,11.7-3.8c0.8-1,1.7-0.9,2.7-0.2
	c3-0.1,5.9-0.6,8.7-1.8c0.9-1.8,2.9-1.6,4.3-1.7c11.8-1.1,23.4-3.3,34.9-6.4c13.1-3.6,26.3-7,38.9-12.3c0.9-0.3,1.9-0.2,2.8-0.5
	c0.4-0.1,0.9-0.2,1.3-0.2c1,0,2.1-0.1,3-0.7c0.4-0.1,0.8-0.2,1.2-0.2c0.8,0,1.6,0,2.4,0C172.4,51.2,172.6,51.2,172.8,51.2z"/>
<path fill="#8B8B8B" d="M60.5,79.1c-0.1,0.7,0,1.5,0.8,1.4c1.4-0.1,2.8-0.5,4.2-0.8c4-1.2,8.1-1.7,12.3-1.7c3.5,0,7-0.4,10.5-1.1
	c4.3-0.8,8.6-0.8,12.9-0.7c3.2,0,6.4,0,9.4-1.3c0.6-0.3,1.2-0.4,1.9-0.4c6.1,0,12-1.3,18.2-1.2c6.4,0.2,12.7-0.9,19-2
	c5.5-1,11-1.7,16.6-2.6c3-0.5,6-1.1,9-1.6c2.1-0.4,4.1-0.6,6.2-0.1c0.4,0.1,0.9,0.5,1,0.9c0.1,0.4-0.1,1-0.4,1.2
	c-1.6,1.5-3.4,2.4-5.6,2.3c-2.7,0-5.4,0.5-8,1.3c-1.4,0.4-2.8,0.5-4.3,0.6c-1.6,0.1-3.2,0.1-4.7,0.9c-0.5,1.3-1.8,2-3,1.9
	c-6.7-0.2-13.3,1.7-20,1.5c-4.5-0.1-8.8,1.5-13.3,1c-12.9,0.1-25.6,2.6-38.4,4.5c-2.7,0.4-6-0.4-7.9,2.7c-4,1.2-8-1.7-11.7-0.3
	c-4.7,1.8-9.3,1.1-14,1c-2,0-4.5-0.6-2.1-3.6c0.3,0,0.6-0.1,0.9-0.1c0.3-0.3,0.6-0.6,1-0.9c0.3,0,0.6,0,0.9-0.1
	c0.8-0.9,2.1,0,2.9-0.9C56.6,80.3,58.5,79.7,60.5,79.1z"/>
<path fill="#737373" d="M49,82.9c-0.1,0.7,0,1.6,0.8,1.4c2.9-0.6,5.6-0.3,8.4,0.7c1.2,0.4,2.5,0.2,3.7-0.2c3.5-1.2,7.1-1.1,10.7-0.4
	c1.4,0.3,2.8,0.2,4.2,0.3c2-2.3,4.6-0.7,6.9-1.2c1.6,0,3.2,0,4.7,0.5c1.9,0.7,3.6,1.8,3.3,4.1c-0.3,2.2-2.2,2.5-4,2.7
	c-4.6,0.7-9-0.7-13.4-1.9c-3.7-1-7.5-0.7-10-1.1c7.4-0.3,15.4,2.2,23.3,5.1c0.6,0.2,0.8,0.9,1,1.6c-1.6,3.6-5.1,3.6-7.7,2.8
	c-9.8-2.9-19.6-2.7-29.5-0.7c-0.3,0.1-0.6-0.1-0.9-0.3c-2.3-2.2-0.1-3.1,1.4-3.5c2.1-0.6,4.2-1.2,6.3-1.7c-6.1,1.6-12,3.8-18.3,4.8
	c-5.1-1-6.3-2.7-4.4-6.2c0,0,0,0,0,0c2.5,0,4.4-1.8,6.8-2.1c0.3,0,0.6-0.4,0.7-0.6C43.8,83.7,46.8,84,49,82.9z"/>
<path fill="#4A4A4A" d="M166,53.1c-0.3,0.1-0.5,0.1-0.8,0.1c-0.6,0.4-1.5,0.2-2.1,0.9c-17.1,6.6-34.7,11.6-52.6,15.6
	c-8.9,2-17.9,3.2-27,3.6c-1.1,0-2.2,0-3.3-0.1c-1.1-0.1-1.7-0.7-1.6-1.9c1.4-0.7,3-0.8,4.6-0.9c2.4,0,4.7-0.4,7-1
	c3.2-0.8,6.6-0.4,9.6-1.9c0,0,0,0,0,0c8.2,0.2,15.9-2.4,23.7-4.6c1.7-0.5,3.3-1,5-1.4c3.6-0.8,7.1-1.8,10.6-2.7
	c0.5-0.6,1.4-0.4,1.9-1l0,0c1.1-1.1,2.7,0.1,3.8-1l0,0c0.8-0.9,2.1-0.1,2.9-1l0,0c0.5-0.6,1.4-0.4,1.9-0.9c0.3,0,0.6,0,1,0
	c2.3-0.8,4.5-1.9,6.7-2.9c0,0,0,0,0,0c0.7-0.3,1.3-0.6,2-0.9c3.1-0.1,6.3,0.1,9.4-0.7c1.4-0.4,2.8-0.2,4.1,0.6c0,0,0,0,0,0
	c-0.8,0.8-2,0.1-2.9,0.8c-0.3,0.1-0.6,0.1-0.9,0.1C168.2,53,166.8,52.2,166,53.1z"/>
<path fill="#4A4A4A" d="M74.8,75.1c-0.9,0.1-1.8,0.1-2.7,0.2c-0.7-0.1-1.5-0.2-2.9-0.4c1.8-1,3.1-1.4,4.4-1.4
	C74.7,73.5,75,74.2,74.8,75.1z"/>
<path fill="#737373" d="M54.7,81c-0.9,0.6-1.8,0.9-2.9,0.9C52.7,81.3,53.6,81,54.7,81z"/>
<path fill="#767676" d="M56.6,78c0.6-0.3,1.3-0.6,1.9-0.9C57.9,77.4,57.2,77.7,56.6,78z"/>
<path fill="#767676" d="M58.5,77.1c0.6-0.3,1.3-0.6,1.9-0.9C59.8,76.5,59.2,76.8,58.5,77.1z"/>
<path fill="#767676" d="M60.4,76.2c0.7-0.3,1.3-0.6,2-0.9C61.7,75.5,61.1,75.8,60.4,76.2z"/>
<path fill="#737373" d="M50.9,82c-0.3,0.3-0.7,0.6-1,0.9C50.2,82.6,50.5,82.3,50.9,82z"/>
<path fill="#777777" d="M99.8,67.6c-2.9,2-6.3,1.9-9.6,1.9C93.3,68.2,96.5,67.8,99.8,67.6z"/>
<path fill="#A6A6A6" d="M83.4,85.8c-2.2-0.4-4.4-0.7-6.6-1.1c-1-0.8-2.5-0.6-3.3-1.8c0.9-1.7,2.5-0.9,3.8-1c1.9-0.1,3.8-0.4,5.7-0.9
	c4-1.2,8.1-2,12.2-2c2.1,0,4.1-0.5,6.2-0.8c6.8-1.2,13.7-1.1,20.5-1c0,2.7-2.1,0.8-3,1.4c4.8,0,9.7-1.5,14.6,0
	c0.5,3.1-1.9,2.1-3.7,2.5c15.2-1.7,30.1-1.2,44.9,0.3c4.4,0.4,6.2-2.3,8.1-5.3c2-1,3.7,0.1,5.3,1c1.5,1.1,2.8,2.6,4.8,2.9
	c2.6,1.6,2.3,3.3-0.3,4.3c-2.8,1.2-5.8,1.9-8.8,0.8c3.3,1.8,7-1.6,10.5,0.8c0.5,0.2,0.9,0.4,1.4,0.6c0.4,0.3,0.8,0.7,1.1,1.1
	c0.2,0.4,0.3,0.9,0.4,1.4c0.1,2-1.3,2.8-2.9,3.3c-1.2,0.4-1.8,0.9-1.7,2.4c0.3,2.7-1.5,3.9-3.9,3.5c-8.7-1.2-17.6-0.7-26.2-2.4
	c-2.1-0.4-4.1-0.8-5.2-2.9c-0.9-1.7-2.5-1.7-4.1-1.8c-16.5-1.3-33-1.7-49.5-2.1c-4.1-0.1-8-0.3-11.7-2.2
	C89.2,85.4,86.1,87,83.4,85.8z"/>
<path fill="#BFBFBF" d="M188.1,77.1c-1.9,0-3.8,0-5.8,0c-1.7,2.6-4.4,2-6.9,2.3c-11.1,1.4-22.2,0.6-33.3,0.5c-2.9,0-6.1,1.7-8.7-0.9
	c-6.6,0-13.2,0-19.8,0c1.3-1.3,2.8-0.9,4.2-1c1.4-0.1,2.8-0.2,4.1-1c8.7-0.3,17.4-0.9,26-2.1c3.8-0.5,7.6-0.7,11.4-0.8
	c4.8,0.1,9.5,0.2,14.3-0.7c2-0.4,4.1-0.2,6.2-0.2c1.4,0,2.9,0,4.2-0.6c1.7-0.7,2.4-2,2.5-3.7c0.1-1.3-0.8-2.5-2.5-3.1
	c-2.8-0.9-5.5-1.5-8.4-0.4c-3.3,1.2-6.7,1.2-10.8,1.8c1.3-2,3.1-1.6,4.1-2.6c0.1-1.8,1.2-2.2,2.8-2.4c2.7-0.3,5.3-1.4,8-1.7
	c0.4,0,1,0.1,1.2-0.5c-0.6-0.2-1.1-0.6-1.4-1.2c-0.6,0-1.2,0-1.9,0c-0.6,0-1.3,0-1.6-0.7c-0.2-0.7,0.4-1.1,0.8-1.5
	c0.2-0.2,0.4-0.4,0.7-0.7c1.1-3.7,4.8-2.9,7.3-4.1c2.1,0.2,3.8-2.9,6.1-0.7c-1.2,2-2.8,3.4-5.1,4c-0.4,0.1-1,0.6-0.9,0.9
	c0,0.8,0.8,0.8,1.4,0.8c1.6,0,3.2-0.1,4.8-0.2c0.6,0,1.4-0.2,1.7,0.4c0.4,1-0.5,1.4-1.1,1.8c-1.4,1.1-3,1.8-4.6,2.4
	c-1.3,0.5-2.8,0.6-4.1,1.9c1.6,0.6,3,1.1,4.4,1.7c1.9,0.9,2.6,2.2,2.2,4.3c-0.3,1.6-0.5,3.2-1.6,4.4C186.8,74.9,187.4,76,188.1,77.1
	z"/>
<path fill="#7D7D7D" d="M185.2,53.1c-2.7,0.6-5.2,1.7-7.7,2.9c-1.9,0-3.8,0.6-5.6,1.1c-2.8,0.6-5.6,1.1-8.4,1.5
	c-0.2,0-0.6-0.2-0.7-0.4c-0.1-0.2,0.1-0.7,0.3-0.8c1.3-1,2.9-1.3,4.4-1.6c5.7-1.4,11.3-3.3,16.8-5.4c0.6,0,1.3-0.1,1.9-0.1
	c1-0.2,1.4,0.4,1.4,1.2C187.5,52.7,185.9,52.4,185.2,53.1z"/>
<path fill="#C2C2C2" d="M193.9,87.6c-1.9-0.3-3.8-0.6-5.7-0.9c-3.7-0.7-7.5-1.1-11.3-1.3c1.7-0.8,3.6-0.7,5.3-0.6
	c3.5,0.2,6.6-0.8,9.7-2c1.4-0.5,1.4-1.6,0.9-2.7c0.3,0,0.7-0.1,1-0.1c0.3,0,0.6,0.1,0.9,0.1C199,83.4,198.9,83.8,193.9,87.6z"/>
<path fill="#606060" d="M157.4,52.2c-1.9,1.8-4,3.1-6.7,2.9C152.6,53.4,154.8,52.3,157.4,52.2z"/>
<path fill="#606060" d="M144.9,57c-1.2,0.8-2.5,0.9-3.8,1C142.2,57.1,143.6,56.9,144.9,57z"/>
<path fill="#606060" d="M147.8,56c-0.8,0.6-1.8,0.9-2.9,1C145.8,56.3,146.8,56.1,147.8,56z"/>
<path fill="#606060" d="M141.1,57.9c-0.6,0.3-1.3,0.6-1.9,1C139.8,58.6,140.4,58.2,141.1,57.9z"/>
<path fill="#606060" d="M149.7,55c-0.6,0.3-1.3,0.6-1.9,0.9C148.4,55.7,149.1,55.4,149.7,55z"/>
<path fill="#616161" d="M11.5,86.7c-1,0.4-1.6,1.5-2.9,1.6c0.3-2.7,1.6-5.8,3.7-8.9c3.1-4.4,4.9-9.3,6.2-14.4
	c0.3-1.4,0.2-2.6-1.3-3.2c0,0-0.1-0.1-0.1-0.1c-0.8-0.8,0.4-2.2-0.2-2.5c-5-2.9-1.7-4.9,0.7-6.6c5.7-4.1,11.3-8.3,17.7-11.2
	c1-0.5,2-1,3.1-1.3c1.9-0.6,3.6,0,4.3,1.9c0.7,1.9-0.7,3.2-2.1,3.6c-3,1-5.3,3.1-7.9,4c5-2.5,10-5.7,14.5-7.7
	c-0.8,0.1-2-0.6-2.3-2.4c-0.4-1.8,0.8-3.1,2.2-3.7c1.8-0.8,3.3-2,5.3-2.4c0.4-0.1,0.8-0.3,1.2-0.4c0.4-0.1,0.8-0.2,1.3-0.2
	c0.7,0.2,1.1,0.6,1.6,1.1c0.7,1.4,1.8,1.6,3.2,1.4c2.7-0.5,5.4-0.4,8.1-0.3c0.5,0,0.9,0.2,1.4,0.4c0.2,0.1,0.5,0.5,0.5,0.7
	c0,0.3-0.2,0.7-0.5,0.8c-0.7,0.3-1.4,0.6-2.2,0.9c-3.5,1-6.9,2.4-10.2,4.1c-0.4,0.2-0.9,0.6-0.6,1.1c0.2,0.3,0.8,0.5,1.2,0.6
	c1.4,0.2,2.8-0.1,4.2-0.6c1.5-0.5,3-1.1,4.6-1.3c4.5-0.6,8.6-2.4,12.4-4.7l0,0c1.5-0.4,3.1-1.6,3.8,1l0,0c-0.3,0.3-0.7,0.6-1,0.9
	c-0.3,0-0.6,0-1,0c-0.5,0.6-1.4,0.4-1.9,1l0,0c-0.3,0.3-0.7,0.6-1,0.9c-0.3,0-0.6,0-1,0c-0.5,0.6-1.4,0.4-1.9,1l0,0
	c-0.3,0.3-0.6,0.6-1,0.9c-0.6,0-1.3,0-1.9,0c-0.3,0.3-0.6,0.6-1,1l0,0c-0.5,1.6-1.6,2.4-3.3,2.3c-6-1.7-11.5,0.7-16.8,2.7
	c-6,2.3-11.9,5.1-17.5,8.4c-4.4,2.6-7.8,5.2-8.4,10.6c-3.1,5.8-6.8,11.2-10.8,16.4C13.4,85,12.4,85.8,11.5,86.7z"/>
<path fill="#959595" d="M82.5,43.6c-0.3,0-0.7,0-1,0c-0.3,0.3-0.7,0.6-1.1,0.8c-2.4,0.1-4.3,1.6-6.6,2c-0.6-0.6-1.6-0.1-2.1-0.8
	c-0.2-0.4-0.1-0.7,0.3-1c1.4-0.1,2.8-0.4,4.2-1c8.2-3.5,16.9-5.9,25.5-8.4c6.6-1.9,13.1-4.1,19.4-6.8c1.3-0.6,2.7-2,4.3-0.4
	c-0.6,1.6-2.2,1.7-3.4,2.2c-9.7,4.2-19.8,7.1-30,9.9C88.7,41,85.6,42.2,82.5,43.6z"/>
<path fill="#5A5A5A" d="M82.5,37.8c-1.2-0.8-2.5-1-3.8-1c2.3-1.3,4.9-1.5,7.3-2.2c6.9-1.8,13.9-3.4,20.9-5c0.2,0,0.3-0.1,0.5,0
	c0.3,0.1,0.7,0.2,0.8,0.4c0.1,0.2-0.1,0.7-0.3,0.8c-1.5,0.6-2.9,1.3-4.5,1.7C97.7,34,92,35.4,86.2,36.8C85,37.1,83.8,37.4,82.5,37.8
	z"/>
<path fill="#5A5A5A" d="M72.1,44.6c-0.1,0.2-0.2,0.5-0.2,0.7c-4.2,3.4-9.3,4.7-14.4,5.9c-1.1-0.3-1.9-0.9-2.3-2
	c-0.1-1.7,0.9-3,2.3-3c3.4,0,6.3-1.8,9.7-1.8c1.4,0,2.7-0.4,3.9-0.9C71.4,43.9,71.7,44.2,72.1,44.6z"/>
<path fill="#5A5A5A" d="M74.8,41.6c0.6-0.3,1.3-0.6,1.9-1C76.1,41,75.5,41.3,74.8,41.6z"/>
<path fill="#5A5A5A" d="M78.7,39.7c0.6-0.3,1.3-0.6,1.9-1C80,39,79.3,39.4,78.7,39.7z"/>
<path fill="#5A5A5A" d="M81.6,38.7c0.3-0.3,0.6-0.6,1-0.9C82.2,38.1,81.9,38.4,81.6,38.7z"/>
<path fill="#5A5A5A" d="M77.7,40.6c0.3-0.3,0.6-0.6,1-0.9C78.4,40,78,40.3,77.7,40.6z"/>
<path fill="#6F6F6F" d="M113.2,205.7c-0.3,0-0.6,0-0.9,0.1c-0.3,0.3-0.7,0.6-1,0.9l0,0c-1.8,1.1-3.4,0.6-4.5-1
	c-1.1-1.6-0.7-3.5,0.6-4.7c1.6-1.6,1.9-3.1,0.6-4.9c-0.3-0.3-0.6-0.7-0.8-1.1c-2.4-3.2-5.1-6.2-6-10.3c0-1.3,0.6-2.2,1.9-2.3
	c5.7-0.6,11.4-0.5,15.4,4.2c3,3.4,6.2,6.3,10,8.7c8.4,5.4,15.8,12.3,24.6,17.2c0.3,0.3,0.6,0.6,0.9,0.9c0.6,1.1,2.1,1.5,2.4,3
	c-0.2,1.6-0.5,3.1,0.3,4.6c0.8,1.5,0.7,3.1-1,4.1c-0.4,0.2-0.9,0.3-1.3,0.4c-1.2,0.1-2.2-0.1-3.2-0.7c-0.3-0.2-0.7-0.5-1-0.8
	c-0.5-0.3-1-0.6-1.4-1.1c-0.5-0.5-1-1-1.6-1.5c-0.3-0.2-0.5-0.5-0.8-0.7c-0.3-0.2-0.5-0.4-0.8-0.6c-0.3-0.2-0.6-0.4-0.9-0.5
	c-0.3-0.2-0.6-0.3-0.9-0.6c-0.3-0.2-0.6-0.5-0.9-0.7c-0.3-0.3-0.7-0.5-1-0.8c-4.7-3.8-10.1-6.7-14.4-11c-0.3-0.9-0.6-1.8-0.1-2.7
	c2.7-2.5,4.4,0.6,6.5,1.3c-2.6-0.8-4.4-4.4-7.8-2c-2.7,1.9-5.9-2-8.5,0.9C116.4,205.6,114.5,204.9,113.2,205.7z"/>
<path fill="#494949" d="M110.3,194.2c1.2,0.8,1.7,1.9,1.2,3.3c-0.4,1-0.9,2-1.3,3c-0.4,0.9-1,1.6-1.3,2.5c-1,2.6-0.8,2.9,2.4,3.6
	c-0.7,0.3-1.5,0.8-2.2,0.8c-4.4-0.3-8.8-0.9-11.9-4.7c-0.7-0.9-1.5-1.7-2.3-2.4c-0.3-0.3-1.1-0.4-1.2-0.3c-1.2,1.3-2.3,0.5-3.4,0
	c-0.5-0.2-0.8,0.4-1,0.8c-0.2,0.1-0.4,0.2-0.6,0.3c-6.4-3.4-10.5-9-14.2-14.9c-3.5-5.5-6.4-11.4-10.4-16.6c-0.3-0.4-0.6-0.8-0.8-1.2
	c-0.2-0.5-0.3-1-0.3-1.5c-0.1-5.1,0.3-5.4,5.1-4.3c4.9,5.4,7.7,12.3,12.2,18.1c2.3,3,5.1,5.6,7.4,8.7c1.6,2.2,3.5,2.5,5.5,0.2
	c1.8-2.1,3.7-3.9,6.1-5.2c0.9-0.4,1.8-0.5,2.6,0.2c2.2-0.1,3.7,0.7,4.4,2.9c0.2,0.5,0.3,0.9-0.2,1.3c-0.4,0.3-1.5,0-1.2,1
	c0.1,0.5,0.9,0.8,1.5,1C108.1,191.4,109.9,192,110.3,194.2c-0.5,0.5-0.9,1.1-1.6,1.4C109.4,195.3,109.8,194.7,110.3,194.2z"/>
<path fill="#494949" d="M113.2,205.7c1-0.9,2-1.9,2.9-2.8c1.2-1.1,2.6-0.8,3.3,0.4c5.5,9.1,15.1,13.2,23.2,19.1
	c1.4,1,2.6,2.2,3.8,3.2c1.4,1.6,1.6,3.7,2.8,5.4c1.1,1.5,1.2,3.3-1.5,3.5l0,0c-4.6-1.1-9.2-2-13.9-1.6c-3.7,0.3-6.4-1.4-8.9-3.8
	c-2.7-6.1-8.7-8.9-13-13.5c-1.5-1.6-2.7-3-1-4.9c1.5-1.7,3.4-2.4,5.4-0.5c0.3,0.3,0.6,0.7,1,1.1c1.1,1.3,0.7,3.3,1.9,4.6
	c1.8,2,3.5,3.5,6.3,1.8c1.7-0.3,2.5,1.1,3.6,1.6c-5.2-3.6-11.2-6.4-15.1-11.9C114.5,206.7,114.2,206,113.2,205.7z"/>
<path fill="#545454" d="M116.1,212.5c-0.3-0.3-0.6-0.7-1-1c-0.9-0.6-1.8-0.7-2.6,0c-0.6,0.6-0.4,1.4,0.6,2.4c4.1,4,8.2,8,12.3,12
	c0.4,0.4,1,0.9,1.2,1.4c0.3,0.8-0.3,1.1-0.9,1.4c-2.4,0.3-3-2.2-4.8-2.9c-1.4-1.2-2.8-2.5-4.3-3.7c-3.4-2.8-6.8-5.6-10.2-8.5
	c-1.1-0.9-1.9-2.1-2.8-3.2c-0.4-0.5,0.1-1.4,0.7-1.4c0.8,0,1.6,0.1,2.3,0.2c1.9,0.3,3.8,0.1,5.5-0.7c0.3-0.3,0.7-0.6,1-1
	c0.3,0,0.6-0.1,0.9-0.1c2.4,0.6,4.1,2.4,6,3.7c4.7,3.4,9.3,7,14,10.6c0.4,0.3,0.6,0.7,0.8,1.1c0.1,0.1-0.3,0.6-0.5,0.6
	c-1,0.3-1.8-0.3-2.6-0.9c-1.9-1.4-3.7-3-6.1-3.6C121,219.2,118.5,215.9,116.1,212.5z"/>
<path fill="#404040" d="M147.8,234.6c0.6-1,0.8-2.1,0-3.1c-0.7-0.9-1.4-1.7-2.2-2.5c-0.6-0.6-0.9-1.3-0.7-2.1
	c3.8-2.2,4.5,2.8,6.8,2.9c-2.2-1.6-4.6-3.7-6.9-5.9c-0.2-0.3-0.6-0.6-0.9-0.8c-0.3-0.3-0.7-0.5-1.1-0.6c-0.4-0.2-0.7-0.5-1.1-0.7
	c-0.4-0.3-0.7-0.6-0.9-1c-0.2-0.4-0.3-0.9-0.2-1.4c0.1-0.5,0.2-0.9,0.3-1.4c0.8-1.1,1.7-1.6,3-0.7l0,0c0.3,0.3,0.7,0.6,1,0.9
	c0.3,0,0.6,0.1,0.9,0.1c0.3,0.3,0.6,0.5,0.9,0.9l0.1,0.1c0.3,0.3,0.7,0.6,1,0.9c0.6,0.3,1.3,0.7,1.9,1c0.3,0.3,0.6,0.6,1,0.9
	c0.3,0,0.6,0,0.9,0.1c0.9,0.7,2,1.2,2.9,1.9c1.7,1.2,3.6-0.3,5.4,0.6c1.7,0.8,3.6,1.2,3.6,3.6c-0.1,0.2-0.2,0.4-0.3,0.7
	c-0.6,0-1.3,0-1.9,0c-1,0.1-2,0.3-2.2,1.4c-0.3,1,0.3,1.8,1,2.5c1.5,1.4,3.1,2.6,4.6,4c0.8,0.8,0.7,1.3-0.6,2.6
	c-1.8-1.7-4.2-2.1-6.4-3.1c-1.1-0.5-2.2-0.5-3.2,0.1C151.7,237.8,149.6,236.9,147.8,234.6z"/>
<path fill="#404040" d="M120.9,225.9c2,0.4,3.2,1.9,4.8,2.9c0.9,0.7,1.7,1.4,2.7,2c1.1,0.7,2.4,0.9,3.7,0.6c0.3-0.1,0.6-0.1,0.9-0.2
	c5.6-2,10.6-1.1,14.8,3.4c-1,0.5-2.1,0.9-3,1.5c-1.9,1.3-3.9,1.6-5.9,1C132,234.9,125.3,232.2,120.9,225.9z"/>
<path fill="#3E3E3E" d="M95,208.6c-0.3-0.6-0.7-1.3-1-1.9C94.4,207.4,94.7,208,95,208.6z"/>
<path fill="#3E3E3E" d="M93.1,205.7c-0.3-0.3-0.6-0.6-1-1C92.5,205.1,92.8,205.4,93.1,205.7z"/>
<path fill="#494949" d="M89.3,200.9c0.3,0.3,0.6,0.6,0.9,1c0,0-0.1,0.1-0.1,0.1C89.3,202.1,89,201.8,89.3,200.9L89.3,200.9z"/>
<path fill="#3E3E3E" d="M94,206.7c-0.3-0.3-0.6-0.6-0.9-1C93.4,206.1,93.7,206.4,94,206.7z"/>
<path fill="#494949" d="M111.3,206.7c0.3-0.3,0.7-0.6,1-0.9C112,206.1,111.6,206.4,111.3,206.7z"/>
<path fill="#3E3E3E" d="M96,209.6c-0.3-0.3-0.6-0.6-1-1C95.3,208.9,95.7,209.3,96,209.6z"/>
<path fill="#3E3E3E" d="M96.9,210.6c-0.3-0.3-0.6-0.6-1-1C96.3,209.9,96.6,210.2,96.9,210.6z"/>
<path fill="#494949" d="M113.2,207.7c-0.3,0.3-0.7,0.6-1,1C112.6,208.3,112.9,208,113.2,207.7z"/>
<path fill="#3C3C3C" d="M156.5,212.4c-0.3,0.3-0.7,0.6-1,0.9c-1.9,1-3-0.6-4.2-1.3c-8.3-4.8-15.5-11.1-23.4-16.4
	c-4.6-3.1-7.9-7.1-10.8-11.6c0.1-1.5,0.9-2.3,2.3-2.7c6.8,3.3,13.3,7.3,19.5,11.6c3.7,3.9,7.9,6.8,13.2,8.1c0.4,0.1,0.8,0.2,1.2,0.4
	c0.8,0.3,1.6,0.7,2.4,1c6,3.7,12.2,7.2,19,9.4c0.6,0.2,1.2,0.5,1.8,0.8c0.4,0.2,0.8,0.4,1.1,0.6c2,2.2,5.9,1.9,7,5.3
	c-0.1,0.2-0.2,0.4-0.3,0.6c-0.4,0.2-1,0.6-0.7,1c0.5,1,1.2,1.8,1.8,2.8c0.1,0.2,0.1,0.7-0.1,0.9c-0.2,0.2-0.6,0.4-0.8,0.3
	c-0.8-0.2-1.5-0.5-2.2-0.8c-1.2-0.4-2.4-1.2-3.6-1.1c-4.4,0.1-7.9-2-11.5-4.1c-0.4-2.2-2-3.1-3.8-4.1c-9.4-5.2-19.1-10-26-16
	c4.3,3.4,10.1,7.4,16.5,10.7C155.1,209.5,157.2,210,156.5,212.4z"/>
<path fill="#A1A1A1" d="M118.1,184.6c0.9,0.9,2.1,1.6,2.7,2.7c2.3,3.6,5.7,6.1,8.9,8.6c7.7,6,15.7,11.6,24,16.7
	c0.5,0.3,1.1,0.6,1.7,0.8c3.2,2.3,6.4,4.5,9.5,6.8c1.2,1.1,3.8,1.8,1,3.9c-0.4,0.1-0.9,0.1-1.4,0.1c-0.4-0.2-0.8-0.4-1.2-0.6
	c-0.2-0.1-0.4-0.2-0.6-0.3c-2.8-1.9-7.1-2.1-7.4-6.8c-0.8-0.9-1.8-1.5-2.9-1.9l0,0c-0.2-0.2-0.4-0.5-0.7-0.6
	c-8.8-5.2-16.6-11.6-24.8-17.7c-0.8-0.6-1.4-1.1-2.6-0.7c-2.3,0.7-2.3,0.7-3-1.1c-0.1-0.3-0.3-0.6-0.3-0.9
	c-2.2-8-11.6-10.8-18.1-9.4c-0.4,0.1-0.8,0.4-1.3,0.6c-0.6,0.3-1.3,0.7-1.9,1c-1.8,0-1.6-1.2-1.5-2.5
	C103.5,177.8,114,178.6,118.1,184.6z"/>
<path fill="#3C3C3C" d="M195.9,233.6c-0.7,0.3-1.4,0.6-2.1,1c0-0.3-0.2-0.7-0.1-0.9c0.5-0.8,0.7-3.1,0.3-3.8c-0.2-0.5,0-1,0.5-1
	c0.8,0,1.5,0.4,2.3,0.5c0.2,0,0.6-0.2,0.7-0.4c0.1-0.2,0-0.6-0.2-0.8c-0.3-0.3-0.7-0.6-1.1-0.9c-0.7-0.4-1.4-0.8-2.2-1
	c-3.4-1-5.9-3.1-7.9-6c0.5-2-0.8-4.5,1.6-6c0.4-0.2,0.8-0.3,1.3-0.3c0.7-0.1,1.3,0.1,1.8,0.4c0.4,0.2,0.7,0.4,1.1,0.5
	c0.4,0.2,0.7,0.4,1.1,0.6c0.3,0.2,0.7,0.4,1,0.5c0.5,0.2,1.1,0.5,1.6,0.7c1.2,0.2,2.1,1.1,3.3,1.2c0.8,0.2,1.6,0.5,2.4,0.7
	c0.6,0.2,1.3,0.3,1.9,0.6c4.1,2,3.8,4.8,1.5,7.9c-0.2,0.4-0.5,0.8-0.8,1.2c-0.3,0.4-0.6,0.7-0.8,1.1c-0.1,0.2-0.2,0.4-0.4,0.6
	c-0.1,0.5-0.2,0.9-0.3,1.4C200.8,233.4,198.9,235.1,195.9,233.6z"/>
<path fill="#404040" d="M170.8,223c3,0.9,5.4,2.7,7.3,5.1c1.2,1.4,0.7,3.2-1.1,3.8c-3.6,1.2-7.1,1.8-10.4-0.8
	c-1.1-0.9-2.4-1.6-3.6-2.4c0,0,0-0.1,0-0.1c0.8-1.7-0.7-2.4-1.3-3.5c-1.3-2.3-0.9-2.9,2.3-3.1l0,0c0.3,0.3,0.6,0.7,1,0.9l0-0.1
	C167,223.6,168.9,223.9,170.8,223z"/>
<path fill="#606060" d="M156.5,212.4c-1.7-1.2-3.4-2.4-5.2-3.5c-7.1-4.4-13.8-9.2-20.4-14.3c-0.4-0.3-0.6-0.7-0.2-1.2
	c0.2-0.2,0.6-0.2,0.9-0.1c2.4,0.9,4.5,2.5,6.5,4.1c5,4,10.4,7.4,16.2,10.1c3.6,1.7,7.1,3.6,10.6,5.5c1.2,0.7,2.3,1.8,3.3,2.7
	c1.2,1.1,1,1.6-1.1,2.3c0,0,0,0,0,0c-0.5-0.6-1.4-0.3-1.9-0.9l0,0c-0.5-0.6-1.4-0.4-1.9-1C161,214.8,159,213.3,156.5,212.4z"/>
<path fill="#5A5A5A" d="M189.1,215.3c-0.6,0.3-1,0.7-0.7,1.5c0.8,2.7,0.8,2.7-2.2,3.4c-0.3,0-0.6-0.1-0.8-0.1
	c-0.4-0.3-0.5-0.7-0.4-1.1c-0.4-2.6-2.9-2.5-4.4-3.6c-1.3-0.9-3.6-1.2-3.2-3.4c0.3-2,2.2-2.4,4-2.4
	C183.9,211.4,188.5,210.6,189.1,215.3z"/>
<path fill="#5B5B5B" d="M170.8,223c0.3,2.1-0.1,2.6-1.5,2c-1.5-0.6-3-1-4.2-2.1c0.8-0.3,1.1-0.8,0.6-1.6c-0.2-0.4-0.5-0.7-0.7-1.1
	C167.2,220.6,168.9,222.2,170.8,223z"/>
<path fill="#3C3C3C" d="M163.2,216.3c0.6,0.3,1.3,0.7,1.9,1C164.4,216.9,163.8,216.6,163.2,216.3z"/>
<path fill="#3C3C3C" d="M165.1,217.3c0.6,0.3,1.3,0.6,1.9,0.9C166.4,217.9,165.7,217.6,165.1,217.3z"/>
<path fill="#3C3C3C" d="M185.3,219.2c0,0.3,0,0.6,0,1c-0.4-0.3-0.7-0.6-1.1-0.8c0,0,0.1-0.2,0.1-0.2
	C184.7,218.9,185,218.9,185.3,219.2z"/>
<path fill="#595959" d="M50.9,170.2c0-0.3,0-0.6,0-0.9c-0.3-0.3-0.6-0.7-0.9-1c-2.9-8.8-5.9-17.5-8.8-26.3c-0.2-0.6-0.2-1.2-0.3-1.9
	c0-0.1,0.2-0.3,0.3-0.4c0.3,0,0.7-0.1,0.8,0.1c0.5,0.8,0.9,1.6,1.4,2.5c2.9,5.5,5.8,11,8.7,16.5c0.3,0.5,0.7,1.1,1.2,1.4
	c0.7,0.5,1.2,0.1,1.5-0.6c2.2-0.7,2.8,1.1,3.4,2.3c2.6,4.9,5.3,9.7,8.3,14.4c0.9,1.4,1.3,2.9-0.2,4.3c-0.9,1.4-0.7,2.8,0.2,4.1
	c2.8,4.1,3.8,9.2,7.4,12.8c0.4,0.4,0.6,1.1,0.8,1.7c0.1,0.5,0,1-0.5,1.2c-0.3,0.1-0.7,0-0.9-0.1c-1.3-0.9-2.3-2.2-3-3.6
	c-0.3-0.7-0.8-1.4-1.3-2c-0.1-0.2-0.6-0.3-0.9-0.2c-0.2,0.1-0.5,0.5-0.5,0.7c0.1,0.8,0.5,1.5,0.6,2.3c0.1,0.4,0.2,1.1-0.1,1.3
	c-0.6,0.5-1.2,0.1-1.7-0.3c-1.1-0.9-2-2-2.8-3.3c-1.9-3.3-3.7-6.7-5.7-10c-2.1-3.3-3.1-7-5.1-10.3c0-0.3,0-0.6,0-0.9
	c-0.3-0.3-0.6-0.7-0.9-1c0-0.3,0-0.6,0-0.9C51.2,171.7,51.5,170.7,50.9,170.2z"/>
<path fill="#656565" d="M66.2,180.8c-0.8-1.4-1.5-2.8-2.4-4.1c-2.1-3-3.8-6.2-4.9-9.7c-0.9-2.7-2.4-5.1-4.2-7.4c0-0.3,0-0.6,0-0.9
	c-0.6-0.5-0.4-1.4-0.9-1.9l0,0c-0.6-0.5-0.4-1.4-1-1.9c0-0.3,0-0.6,0-0.9c-0.3-0.3-0.6-0.7-0.9-1l0,0c-0.5-1.2-1.2-2.6,1-2.9l0,0
	c0.3,0.4,0.6,0.6,1,1l0,0c6.8,3.3,6.9,11.4,11.5,16.3l0,0c0.3,0.3,0.6,0.7,1,1c3.4,5.4,6.8,10.8,10,16.3c3.1,5.2,7,9.8,10.8,14.6
	c0.6,0.7,1.4,1.2,2.2,1.9c0.3,0.3,0.6,0.7,0.9,1c-0.3,0.9-1,1.4-1.8,0.9c-1.3-0.8-2.4-1.9-3.6-2.8c-1.1,1,0.4,2.3-0.4,2.7
	c-1.5,0.7-2.1-0.9-2.9-1.7c-0.9-0.9-1.6-2-2.3-3c-3.6-4.8-7.2-9.6-10.8-14.4c-0.6-0.5-0.4-1.4-1-1.9l0,0
	C66.8,181.4,66.6,181.1,66.2,180.8z"/>
<path fill="#595959" d="M67.2,181.8c0.3,0.6,0.6,1.3,1,1.9C67.8,183,67.5,182.4,67.2,181.8z"/>
<path fill="#595959" d="M66.2,180.8c0.3,0.3,0.6,0.6,1,1C66.8,181.4,66.5,181.1,66.2,180.8z"/>
<path fill="#6D6D6D" d="M99,183.8c0.3,0.6,0.5,1.3,0.8,1.9c-2.3,2.6-5,4.9-6.2,8.4c-0.2,0.6-0.8,1-1.2,1.4c-0.9,0.9-2.1,0.9-2.9-0.1
	c-6.8-7.8-13.7-15.6-18.7-24.7c-1.2-2.1-2.4-4.1-3.6-6.2c-3.5-3.3-5.4-7-5.2-12.1c0.1-3.5-3.2-6-5-9c-0.7-1.2-1.7-2.3-2.2-3.7
	c-0.6-1.5-0.3-2.9,1.2-3.7c1.3-0.7,2.5-0.3,3.4,0.8c0.8,1,1.5,2.1,1.9,2.5c-3.4-4.7-3.4-4.8,0.3-6.6c0.6,0.6,1.3,1.3,1.9,1.9
	c7.6,5.3,14,11.8,19.4,19.2c-2.5-2.5-4.7-5.2-6.5-8.2c-0.8-1.4-2-2.8-0.8-4.6c2.2-1.8,3.7-0.4,5.4,1c4.8,3.8,7.1,9.6,11.6,13.7
	c1,0.9,1.9,2.1,3.1,2.8c0.3,0.2,0.7,0.5,1,0.7c0.3,0.2,0.6,0.5,0.9,0.7c0.1,0.1,0.3,0.2,0.4,0.4c0.3,0.2,0.5,0.5,0.8,0.8
	c0.1,0.1,0.3,0.2,0.4,0.4c0.3,0.3,0.5,0.5,0.8,0.8c0.1,0.1,0.2,0.3,0.4,0.4c0.3,0.3,0.5,0.5,0.8,0.8c0.1,0.1,0.2,0.3,0.4,0.4
	c0.3,0.3,0.5,0.6,0.8,0.8c0.1,0.2,0.2,0.3,0.4,0.5c0.7,1,1.8,1.7,2.3,2.9c0,0.2,0.1,0.4,0.1,0.7c0,0.5-0.1,0.9-0.3,1.3
	c-1.3,3.8-3.6,3.9-7.2,2.6c-4.7-1.7-8.8-3.8-12.4-7.4c-3.5-3.4-5.9-7.6-8.6-10.3c2.8,5.6,9.1,9.6,12.7,16.2c2,3.7,5.8,6.6,8.5,10.1
	C98.3,182.1,99,182.7,99,183.8z"/>
<path fill="#595959" d="M61.4,132.7c-1.2,1.9-0.7,3.6,0.4,5.3c0.9,1.5,1.9,2.9,2.8,4.4c0.2,0.4,0.3,0.9,0.4,1.4
	c0,0.3-0.1,0.7-0.3,0.8c-0.2,0.1-0.7,0.1-0.8,0c-1.4-1.7-2.7-3.5-4.1-5.2c-0.7-0.8-1.3-1.8-2.6-2c-0.2,0-0.6,0.4-0.6,0.5
	c0.2,0.6,0.4,1.2,0.7,1.7c2.1,3.1,4.3,6.3,6.5,9.4c0.8,1.1,1.6,2.2,1.2,3.5c-1.1,3.7,0.4,6.9,1.7,10.1c0.2,0.6,0.4,1.2,0.5,1.8
	c-0.4-0.2-0.8-0.5-1.2-0.7c-0.7-0.3-1.3,0-1.2,0.8c0.1,0.9,0.4,1.8,0.6,2.7c-1-0.4-2-0.8-3-1.3c-1.2-0.6-2.1-1.5-2.4-2.8
	c-1.1-3.8-3.2-7.2-5.3-10.5c-0.3-0.5-0.5-1.2-0.7-1.8c0.4,0.2,0.8,0.5,1.3,0.7c0.5,0.2,1.1,0,0.9-0.6c-0.8-2.1-1.7-4.1-2.8-6.1
	c-1.5-2.7-2.3-5.6-2.8-8.6c-0.1-0.8-0.4-1.6-0.2-2.4c0.7-2.7-0.1-5-1.5-7.2c-0.2-0.3-0.2-1,0-1.3c0.3-0.4,0.9-0.2,1.2,0.1
	c1.2,1.1,2.3,2.2,3.5,3.3c0.7,0.6,1.4,1.2,2.7,2.2c-0.6-3.4-3.4-5-3.6-8.4C56.5,125.8,58.6,129.6,61.4,132.7z"/>
<path fill="#939393" d="M95.9,160.7c-2.1-0.6-3.4-2.2-4.7-3.8c-3.5-4.3-7-8.7-11.1-12.5c-1.3-1.2-2.5-2.5-4.3-3
	c-2.7,0-2.7-3.1-4.8-3.8l0,0c-0.4-0.3-0.7-0.6-1-1l0,0c-0.4-0.3-0.7-0.6-1-1l0,0c-0.4-0.3-0.7-0.6-1-1l0,0c-0.3-0.3-0.7-0.6-1-1l0,0
	c-0.3-0.3-0.6-0.7-1-1c-0.4-0.5-0.7-1.1-1.2-1.5c-5.3-4.2-9-9.7-13.4-14.7c-0.3-0.4-0.6-0.7-1-0.9c-0.2-0.4-0.2-0.9,0-1.3
	c2.1-2.3,3.8-0.9,5.2,0.7c7.2,8.4,16.8,14,24.7,21.6c1.4,1.4,3.1,2.2,5,2.6c2.9,2.1,5.1,4.9,8,6.9c0.3,0.5,0.7,1,1.1,1.5
	c0.4,0.4,0.8,0.9,1.2,1.3c0.4,0.4,0.9,0.8,1.3,1.3c0.4,0.4,0.9,0.9,1.3,1.3c0.3,0.6,0.5,1.2,0.5,1.9c-0.1,0.7-0.4,1.3-0.9,1.7
	c-2.2,0.9-3-1.2-4.3-2c1.2,1.6,3.4,2.6,4,4.9C97.7,159.4,97.1,160.2,95.9,160.7z"/>
<path fill="#575757" d="M43.2,111.7c-0.3,0-0.6,0-0.9,0c-2.2-1.8-3.7-4.1-2.7-7c1.1-3.1,4.2-2.4,6.2-2.7c-3.8,0.2-8,0.9-12.2,1.5
	c-1.7,0.2-3.9,0.4-4.2-2c-0.3-2.1,1.2-3.2,3.1-3.6c5.2-1.1,9.9-4.3,15.5-3c0.4,1,0.2,2.3,2.2,1.8c4-1,8.2-1,12.3-1.6
	c1,0.1,2,0.2,2.8,0.7c0.7,0.4,1.3,0.9,1.7,1.6c0.2,0.5,0.3,1,0.3,1.5c0,0.5-0.2,1-0.4,1.4c-3.5,3.4-7.8,4.8-12.6,5.3
	c-1.3,0.1-3,0.5-0.7,2c1,0.5,2.1,0.7,2.9,1.4c0.8,0.7,1.4,1.7,1.9,2.7c0.7,1.4,0.8,2.8-0.6,3.8c-1.3,1-2.3,0-3.3-0.8
	c-1.5-1.2-3-2.6-3.8,0.6l0,0c0.3,0.2,0.4,0.4,0.3,0.7c-0.1,0.2-0.2,0.3-0.3,0.3c-0.9-0.3-1.9-0.7-2.8-1c0,0,0,0,0,0
	c-0.3-0.3-0.7-0.6-1-1l0,0c-0.3-0.3-0.6-0.6-1-1l0,0c-0.3-0.3-0.6-0.6-1-1h0C44.6,112,43.7,112.3,43.2,111.7z"/>
<path fill="#585858" d="M71,137.5c2.2,0.5,3.5,2.1,4.8,3.8c2.5,5.9,5.9,11.2,10.9,15.4c0.3,0.3,0.4,0.8,0.6,1.2c0,0.1,0,0.4-0.1,0.4
	c-0.3,0.1-0.6,0.3-0.8,0.2c-0.4-0.2-0.9-0.5-1.1-0.8c-2-2.9-4.6-5.3-7-7.8c-2.1-2.2-4.3-4.2-6-6.7c-1.3-1.8-2.9-3.3-4.8-4.6
	c-1.6-1.1-3-2.3-4-4c2.3,0.7,3.9,2.5,5.9,3.7c0.8,0.5,1.2,1.4,2.4,1.2C72,138.8,71.2,138.2,71,137.5z"/>
<path fill="#595959" d="M52.8,150c-0.6,0.9-0.9,1.9-1,2.9c-1.2-1.9-2.3-3.8-3.5-5.7c-1.6-2.6-2.6-5.4-2.9-8.5c0-0.3,0.2-0.7,0.4-0.8
	c0.2-0.1,0.6,0,0.8,0.2c0.2,0.2,0.4,0.5,0.5,0.8C48.4,143,50.8,146.4,52.8,150z"/>
<path fill="#595959" d="M52.8,154.9c0.3,0.6,0.6,1.3,1,1.9C53.4,156.2,53.1,155.5,52.8,154.9z"/>
<path fill="#595959" d="M53.7,156.8c0.3,0.6,0.6,1.3,0.9,1.9C54.3,158.1,54,157.4,53.7,156.8z"/>
<path fill="#585858" d="M66.2,132.8c0.3,0.3,0.6,0.6,1,1C66.8,133.4,66.5,133.1,66.2,132.8z"/>
<path fill="#595959" d="M53.7,151c-0.3-0.3-0.6-0.6-1-1C53.1,150.4,53.4,150.7,53.7,151z"/>
<path fill="#6A6A6A" d="M50.8,116.5c0-0.3,0-0.7,0-1c0.3,0.4,0.6,0.7,0.9,1.1C51.4,116.6,51.1,116.6,50.8,116.5z"/>
<path fill="#585858" d="M69.1,135.6c0.3,0.3,0.7,0.6,1,1C69.8,136.3,69.4,136,69.1,135.6z"/>
<path fill="#595959" d="M51.8,153c0.3,0.3,0.6,0.7,0.9,1C52.4,153.6,52.1,153.3,51.8,153z"/>
<path fill="#585858" d="M68.1,134.7c0.3,0.3,0.7,0.6,1,1C68.8,135.3,68.5,135,68.1,134.7z"/>
<path fill="#585858" d="M67.2,133.7c0.3,0.3,0.7,0.6,1,1C67.8,134.4,67.5,134.1,67.2,133.7z"/>
<path fill="#585858" d="M70.1,136.6c0.3,0.3,0.6,0.7,1,1C70.7,137.2,70.4,136.9,70.1,136.6z"/>
<path fill="#848484" d="M67.1,44.4c-2,1.5-4.4,2.4-6.9,2.8c-1.7,0.3-3.4,0.7-4.7,1.9c-0.1,0.3-0.2,0.7-0.4,0.8
	c-7.7,4.1-15.6,7.9-23.5,11.8c-2.2,1.9-4.4,3.9-6.7,5.8c-0.2-0.6-0.5-1.2-0.5-1.8c-0.1-1.3-0.7-1.6-1.9-1.2
	c-0.3,0.1-0.6,0.2-0.9,0.2c-0.8,0-1.4-0.9-1.1-1.7c0.2-0.8,0.6-1.5,1.4-1.9c5.6-3,10.8-6.6,16.5-9.4c4.6-2.2,9.5-3.6,14.2-5.5
	c4.3-1.8,9-1.8,13.4-3.3C67,42.6,67.3,43.5,67.1,44.4z"/>
<path fill="#3F3F3F" d="M31.7,61.8c7-6,15.2-9.8,23.9-12.6c0.7,0.3,1.3,0.6,2,1c-0.2,2.3-2.4,2.3-3.8,2.9c-4.6,2-9.1,4.2-13.2,7.3
	c-0.4,0.2-0.8,0.5-1.1,0.8c-0.4,0.3-0.7,0.5-1.2,0.7c-1.5,0.5-2.6,2.9-4.6,1C33,62.5,32.3,62.1,31.7,61.8z"/>
<path fill="#8D8D8D" d="M33.6,62.8c1.5-0.7,3-1.4,4.5-2.1c0.8,0.1,1.7,0.1,2.1,1.1c-2.8,2.4-5.9,4.3-9.2,6.1
	c-0.5,0.3-1.2,0.9-1.6,0.1c-0.2-0.4,0.2-1.2,0.3-1.8c0-0.2,0.1-0.3,0.1-0.5C31.2,64.8,32.6,64.1,33.6,62.8z"/>
<path fill="#B3B3B3" d="M40.3,61.8c-0.7-0.4-1.4-0.7-2.1-1.1c0,0,0.1,0,0.1,0c0.4-0.2,0.7-0.6,1-0.9c4.4-3.7,9.3-6.4,14.7-8.3
	c1.2-0.4,2.3-1,3.5-1.5c3.6-0.5,6.9-2.2,10.3-3.3c1.3-0.4,2.7-1,4-1.5c0.7,0.4,1.4,0.7,2,1.1c-5.3,2.1-10.6,4.3-15.9,6.4
	c-4.9,1.9-9.7,4-14,7C42.8,60.4,41.5,61.1,40.3,61.8z"/>
<path fill="#575757" d="M35.5,89.6c-0.1,0.6-0.1,1.4,0.7,1.5c0.7,0.1,1.5-0.2,2.3-0.1c0.8,0,1.1,0.5,0.7,1.3
	c-0.4,0.8-1.3,1.6,0.1,2.2c-3.7,4.6-12.2,4.6-14.5,0c0,0,0,0,0,0C28.1,92.1,31.6,90.4,35.5,89.6z"/>
<path fill="#3F3F3F" d="M24.8,94.4c0.8,0.5,1.7,0.7,2.7,0.5c1.6-0.4,3.1-0.1,4.6,0.5c2.6,1,4.9,0.6,7.2-1c5.3-1.1,10.6-2.2,15.9-3.3
	c2-0.4,4-0.7,7-0.2c-4.9,1.4-9.1,1.8-12.4,4.5c-0.6,0.5-1.2,0.6-1.9,0.1c-5.9,0.2-11.1,2.6-16.3,5.1c-0.2,0.1-0.5,0.5-0.4,0.7
	c0.1,0.6,0.6,0.7,1,0.7c2.7-0.4,5.4-0.8,8-1.3c3.8-0.7,7.6-0.5,11.4-0.4c0.5,0,0.9,0.2,1.3,0.4c0.2,0.1,0.4,0.5,0.4,0.8
	c0,0.3-0.2,0.6-0.4,0.8c-0.8,0.7-1.8,0.6-2.7,0.8c-2.7,0.4-5.3,0.8-8,1.4c-0.9,0.2-1.5,1.1-0.9,1.8c1.7,1.7,0.4,3.7,0.7,5.4
	c-1.3-0.3-2.6-0.6-3.9-0.9c0,0,0,0,0,0c-0.3-0.3-0.6-0.6-0.9-0.9c-0.6,0-1.3,0-1.9,0c-0.3-0.3-0.7-0.6-1-0.9c-0.3,0-0.6,0-0.9,0
	c-1.1-1-2.7,0.1-3.9-0.9c-0.3,0-0.6,0-0.9,0c-3-2.5-1.6-3.5,1.1-3.8c-7-0.4-7.6-1-6.9-7.7C23.6,95.7,24.2,95,24.8,94.4z"/>
<path fill="#3F3F3F" d="M43.2,111.7c0.6,0.3,1.3,0.6,1.9,1C44.4,112.3,43.8,112,43.2,111.7z"/>
<path fill="#3F3F3F" d="M47,114.5c0.3,0.3,0.6,0.6,1,1C47.6,115.2,47.3,114.9,47,114.5z"/>
<path fill="#3F3F3F" d="M46,113.6c0.3,0.3,0.6,0.6,1,1C46.7,114.2,46.4,113.9,46,113.6z"/>
<path fill="#3F3F3F" d="M45.1,112.6c0.3,0.3,0.6,0.6,1,1C45.7,113.3,45.4,113,45.1,112.6z"/>
<path fill="#2E2E2E" d="M23,96.3c2.3,7.8,1.7,6.6,8.5,6.7c1.9,0,3.8-0.4,5.7-0.6c0.3,0,0.7,0.2,0.8,0.4c0.2,0.5-0.2,0.9-0.6,1.1
	c-2.2,1-4.6,1-7,1.2c-1.4,0.1-1.6,0.5-1.5,2.7c-0.4-0.2-1.1-0.2-1.3-0.5c-1.4-2.7-4-3.8-6.4-5.2C21.6,100.1,21.9,98.1,23,96.3z"/>
<path fill="#2E2E2E" d="M29.7,107.8c1.4,0,2.7,0.1,3.9,0.9C32.2,108.8,30.9,108.7,29.7,107.8z"/>
<path fill="#2E2E2E" d="M37.4,109.8c0.3,0.3,0.6,0.6,0.9,0.9C38.1,110.4,37.7,110.1,37.4,109.8z"/>
<path fill="#2E2E2E" d="M34.5,108.8c0.3,0.3,0.7,0.6,1,0.9C35.2,109.4,34.9,109.1,34.5,108.8z"/>
<path fill="#6C6C6C" d="M80.5,44.4c0.4-0.3,0.7-0.5,1.1-0.8C81.2,43.9,80.8,44.1,80.5,44.4z"/>
<path fill="#7E7E7E" d="M179.5,58.9c2.2,0,4.4-0.1,6.6-0.6c0.6-0.1,1.4-0.2,1.5,0.6c0.1,0.7-0.6,1.1-1.2,1.2c-2,0.6-4,1.1-6,1.7
	c-3.8,1-7.7,1.9-11.5,2.9c-3.9-0.2-7.6,0.8-11.4,1.2c-0.8,0.1-1.6,0.4-2.3,0.5c-1.8,0.3-3.2-0.1-2.8-0.7c0.6-1,1.6-0.8,2.5-1
	c0.3-0.1,0.7,0,0.9-0.1c7.1-2.7,14.6-3.4,22-4.8C178.4,59.5,178.9,59.1,179.5,58.9z"/>
<path fill="#606060" d="M163.2,54.1c0.7-0.3,1.4-0.6,2.1-0.9C164.5,53.5,163.9,53.8,163.2,54.1z"/>
<path fill="#999999" d="M83.4,85.8c3,0,6.1,0,9.1,0c2.4,0,4.8,0.1,7,1.2c1.5,0.8,3.1,0.7,4.7,0.7c5.3,0,10.6,0.1,15.8,0
	c6.9-0.2,13.8,0.2,20.5,1.2c5.1,0.8,10.2,0.7,15.3,0.8c1.6,0,3.2,0,4.8,0.2c0.9,0.1,1.8,0.5,2.7,0.9c0.2,0.1,0.4,0.5,0.3,0.8
	c0,0.2-0.3,0.6-0.6,0.6c-1.6,0.1-3.2,0.2-4.8,0.3c-0.3,0.1-0.5,0.1-0.8,0.2c-5.2,0-10.1,2.2-15.3,1.7c-0.5-0.1-1.1-0.1-1.6-0.3
	c-4.8-0.8-9.6-0.5-14.4-0.7c-6.3-0.9-12.8,0.3-17.9-1.9c0.2,0,1.5-0.2,2.6,0.8c1.9,2.2,4.6,1.8,7,2.4c1.7,0.4,3.7,0.2,3.4,2.9
	c-0.7,1-1.4,1.9-2.2,2.8c-3.3,2.9-7.6,2.6-11.3,2c-6.2-1-12.5-1.6-18.7-2.7c-1.4-0.2-2.9-0.7-3-2.5c-0.1-1.7,1.7-1.8,2.4-1.6
	c5.4,1.3,11-0.1,15.1,1.1c-4.1-1.8-10.4,1.3-15.4-2.3c-2.6,0-5-0.7-7.5-1.4c-4.1-1.2-8.1-2.9-12.3-3.6c-2.5-0.4-5-0.7-7.6-0.1
	c-1,0.2-2.2,0-3.2-0.2c6-2.6,12.2-3,18.5-1.8c3.6,0.7,7.2,1.6,10.9,1.3c0.8-0.1,1.6-0.2,2.3-0.4c0.2,0,0.3-0.5,0.4-0.8
	c0-0.1-0.2-0.3-0.3-0.3c-0.6-0.2-1.2-0.4-1.8-0.4C86.1,86.7,84.7,86.6,83.4,85.8z"/>
<path fill="#898989" d="M88.2,94.4c4.4,0.5,8.8,1.2,13.3,1c0.8,0,1.6,0.1,2.3,0.4c2.4,1.1,4.9,1.5,7.4,1.5c0.3,0,0.7,0.1,0.9,0.2
	c0.2,0.1,0.5,0.4,0.5,0.7c0,0.2-0.3,0.6-0.5,0.7c-2.4,0.5-4.8,0.4-7.1-0.4c-2.8-0.9-5.6-1.3-8.5-1.2c-2.2,0.1-4.4-0.2-6.6-0.7
	c-0.5-0.1-1-0.1-1.4,0c-0.2,0-0.6,0.4-0.6,0.6c0,0.2,0.3,0.7,0.5,0.7c2.2,0.5,4.4,1.1,6.6,1.2c3.8,0.2,7.6,1,11.4,1.5
	c1.3,0.2,2.5,0.4,3.8,0.5c2.1,0.2,4.1-0.2,5.8-1.7c0.5-0.5,1.4-0.7,2.1-1.1c6.3-1,11.8,2.4,17.8,3.1c1.9,0.2,3,1.9,2.7,3.9
	c-0.4,2-2.2,1.9-3.8,2c-2.1,0.1-4.3,0-6.2-0.5c-6.6-1.6-13.2-0.6-19.8-0.8c-11.3-2.3-22.7-4.1-34.3-4.4c-1.8,0.2-3.6-0.2-5.3-1
	c-1.2-0.5-2-1.4-3-2.3c-0.6,0-1.2-0.1-1.8-0.1c-0.5-0.6-1.4-0.3-2-0.9c-6.1-0.6-12.1,0.7-18.1,1.1c-0.6,0-1.2,0.4-1.8-0.5
	c1.8-0.8,3.7-1.7,5.5-2.5c0.6,0,1.2,0,1.9,0c3.1-0.1,6-0.7,8.9-1.7c4.9-1.6,9.7-1.5,14.6-0.5c2,0.4,4,1.1,6,1.6
	C82.3,95.5,85.3,95.9,88.2,94.4z"/>
<path fill="#BBBBBB" d="M73.9,100.2c1.1-0.8,2.3-0.8,3.6-0.6c9.7,1.5,19.3,2.9,29,4.3c0.6,0.1,1.3,0.1,1.9,0.2
	c8.2,1.3,16.6,2.3,24.6,1.9c13.9-0.6,27.1,3,39.3,4.2c-4.7-1-10.9-1.3-16.9-2.7c-1.7-0.4-3.4-0.9-3.1-2.8c0.3-2.4,2.5-2,4.2-1.8
	c7.4,0.7,14.8,1.7,22.2,2.6c-1.5-0.3-2.8-1.3-4.2-1.6c-7-2.2-14.3-1.7-21.4-3c-12.6-2.2-25.3-3.9-37.9-5.6c-1.7-0.2-3.5-0.5-4.9-1.8
	c-2.3-1.4-4.9-0.8-7.4-1c-1.1-0.1-2.2,0.2-3.2-0.6c-0.1-0.1-0.1-0.3-0.1-0.4c0-0.1,0.1-0.3,0.2-0.4c0.4-0.2,0.9-0.4,1.3-0.4
	c4,0,7.9-0.2,11.8,0.5c4.2,0.8,8.5,0.3,12.8,0.4c5.1-0.8,10.2-0.8,15.4,0c0.3,0,0.6,0,1,0c5.4,1.3,10.9-0.4,16.3,0.9c0,0,0,0,0,0
	c3.3,1.4,6.8,1.6,10.2,1.8c6.9,0.5,13.9,0.4,20.8,1.7c0.5,0.1,1.1-0.1,1.1-0.6c0-0.4-0.3-0.9-0.7-1.1c-1.4-0.8-2.8-1.5-4.2-2.2
	c-0.2-0.1-0.5-0.5-0.5-0.7c0-0.6,0.4-0.8,0.9-0.8c2.1,0,4.1,0,6.2,0c1.5,0,2.8-0.4,3.6-1.9c1.9,0.9,2.1,1.1,1.3,2.2
	c-1.1,1.6-0.7,3-0.2,4.5c0.4,1,1.3,2.1,0.5,3.1c-1.2,1.5-0.8,2.5,0.7,3.5c0.6,0.4,1.2,1.1,1.6,1.7c0.3,0.5,0.6,1.6,0.3,1.8
	c-3.1,2.6,0.7,4.6,0.5,7c-0.1,0.9,1.2,1.8,2.2,2.4c0.8,0.5,1.6,1,2.4,1.5c0.2,0.1,0.3,0.6,0.3,0.8c-0.1,0.5-0.5,0.8-1,0.9
	c-1.2,0.2-2.2-0.2-3.2-0.7c-1-0.6-1.6-2-3.4-2c0.7,1.7,1.8,3.1,1.5,4.9c-0.3,1.5,0.7,2.3,2.1,2.8c1.1,0.3,2.1,0.7,3.1,1.1
	c1.9,0.8,3.7,1.9,4.8,3.8c-2,2.6-4.7,2-7.2,1.2c-1.3-0.4-2.6-1.7-4-1.3c-5.5,1.8-10.2-0.6-14.9-2.7c1.1,0.5,1.7,1.2,1,2.4
	c-0.7,0.9-1.6,1.2-2.7,1.2c-1.6-0.3-3.1-0.7-4.7-1.1c-3.4-0.8-7.2,0.5-10.3-2c-1.1-2.7-3.6-3.3-6-3.9c-3.8-0.9-7.6-1.8-11.4-2.9
	c-1.6-0.5-3.3-0.7-2.3-3c3.7-1.7,7,0.9,10.5,1.2c2.1,0.2,4.3,1,6.5,1c-13-2.4-25.9-5-39-6.8c-0.5,0-1-0.1-1.5-0.1
	c-2.2-0.5-4.5-0.8-6.8-0.9c-6.9-1.3-14-2-20.8-3.8c-1.9-0.2-3.8,0.3-5.6-0.4c-0.4-0.1-0.8-0.3-1.3-0.4c-1.2-0.3-2.4-0.8-3.6-0.9
	c-0.4-0.1-0.8-0.1-1.2-0.2c-1-0.1-1.9-0.5-2.9-0.7c-0.6-0.2-1.2-0.2-1.8-0.3c-1-0.2-2-0.6-3-0.8c-0.4-0.1-0.8-0.2-1.2-0.4
	c-0.5-0.4-1-0.8-1.2-1.4C74,100.6,73.9,100.4,73.9,100.2z"/>
<path fill="#949494" d="M133.4,79c2.4-0.2,4.7-0.4,7.1-0.5c1.9-0.1,3.8-0.3,5.7-0.4c4.8-0.1,9.5-0.1,14.3-0.1c2.4,0,4.7-0.2,7.1-0.5
	c4.9-0.8,9.8-0.3,14.7-0.4c1,0.4,2,0.9,3.1,1.3c0.1,1.5-1.4,1.5-2,2.2c-0.7,0.8-1.5,1.7-2.4,2.3c-0.6,0.4-1.5,0.7-2.2,0.7
	c-1.9,0.1-3.9,0.2-5.7-0.2c-3-0.5-6-0.7-9.1-0.7c-3.4,0-6.7,0-10-0.7c-1.5-0.3-3.2-0.2-4.8-0.2c-7.3,0-14.7,0-22,0
	c-1.4,0-2.9-0.2-4.3-0.3c-0.2,0-0.5-0.5-0.4-0.7c0-0.2,0.3-0.6,0.6-0.6c0.6-0.2,1.3-0.2,1.9-0.3c1.3,0,2.6,0,3.8,0
	C130.4,80,132,79.9,133.4,79z"/>
<path fill="#C1C1C1" d="M220.7,170.3c0,0.3,0,0.6,0.1,0.9c0.3,0.3,0.6,0.6,0.9,1l0,0c-1,3.4,2,8.5-4.1,9.8c-0.4,0.1-0.9,0.2-1.3,0.1
	c-0.5-0.1-0.9-0.2-1.3-0.4c-0.4-0.2-0.8-0.5-1.1-0.7c-1.2-1-1.3-2.6-2-3.8c-0.3-0.3-0.6-0.5-0.9-0.8c-0.7-0.5-1.4-0.9-2.1-1.4
	c-10.8-7.9-23-13.3-35-18.9c-5.6-2.9-10.9-6.4-17.5-7c-0.1,0-0.3,0-0.4-0.1c-7.5-5-15.7-8.9-23.3-13.7c-1-0.6-1.7-1.6-1.5-2.8
	c0.3-1.9,1.8-1.9,3.3-2c12,2.9,23.4,7.5,34.8,12.4c2.5,1.1,5,1.8,7.5,2.9c7.2,2.4,13.8,5.9,20,10.2c0.6,0.3,1.2,0.4,1.8,0.7
	c0.4,0.2,0.7,0.4,1.1,0.6c0.3,0.2,0.7,0.5,1,0.7c0.4,0.2,0.8,0.4,1.1,0.6c0.5,0.4,1.1,0.8,1.4,1.4c0.1,0.4,0.2,0.9,0.1,1.3
	c-0.3,0.9-1,1.5-1.9,1.7c-0.4,0.1-0.9,0.1-1.3,0c-0.6-0.2-1.1-0.6-1.7-0.9c-0.4-0.2-0.7-0.4-1.1-0.6c-0.7-0.5-1.5-0.7-2.3-1
	c-6.9-2.7-13.1-6.6-18.6-9.1c9.9,5.3,21.3,10.1,32.1,16.3c3.2,1.1,6.3,1.9,9.5,0C219.7,167.5,220.3,168.8,220.7,170.3z"/>
<path fill="#C6C6C6" d="M184.3,127.1c-2.4-1.5-5.2-1.6-7.8-2.3c-0.2-0.1-0.4-0.5-0.4-0.7c0-0.2,0.5-0.5,0.7-0.5c3,0.3,6,0.7,8.9,1.5
	c2.3,0.7,4.7,1.1,7,1.6c1.7,0.3,1.9,0,1.6-2c-0.1-0.8,0.3-1.3,1-0.9c2.8,1.4,6.1,1.9,8.6,4c1.6,1.4,3.5,1.4,5.3,0.2
	c0.5,1.3-0.3,1.7-1.4,1.9c-1.2,0.3-1.3,0.8-1,2c0.9,3.3,3.2,5.7,4.6,8.6c1.4,3,3.2,5.8,5.7,8c0.5,0.5,0.5,1.2,0,1.7
	c-1.2,1.2-2.5,1.9-4.2,0.8c-1.4-2.1-3.7-3.2-5.9-3.2c-4.6-0.1-8.8-1.5-13.1-3.1c-8.5-3.7-17.6-5.9-26-9.6c-1-0.2-1.9-0.6-2.8-0.9
	c-0.5-0.1-1-0.3-1.4-0.5c-4.3-1.2-8.4-2.8-12.5-4.7c-2-0.9-3.8-2.3-2.9-4.7c0.9-2.4,3.2-1.7,5-1.3c3.4,0.9,6.7,2,10.2,2.7
	c2.8,0.2,5.1,1.2,7.2,3.2c2.5,2.5,6.1,3,9.4,3.3c8.2,0.8,15.1,5.3,21.7,7c1.7,0.7,1.1-0.2,1,0.4c0,0.2-0.2,0.2-0.4,0.1
	c-2.8-1.3-4.9-3.6-7.2-5.6c-0.3-0.3-0.6-0.5-0.9-0.8c-0.3-0.2-0.6-0.4-0.9-0.6c-0.3-0.2-0.7-0.3-1-0.5c-0.5-0.2-1-0.4-1.5-0.6
	c-0.5-0.2-1-0.3-1.5-0.5c-0.5-0.2-1-0.4-1.5-0.6c-0.4-0.1-0.7-0.2-1.1-0.3c-0.5-0.2-1-0.5-1.5-0.8c-0.3-0.2-0.6-0.4-0.8-0.8
	c-0.2-0.4-0.3-0.7-0.3-1.1C184.2,127.4,184.2,127.2,184.3,127.1z"/>
<path fill="#ABABAB" d="M194.8,143.4c0.9,0.2,1.9,0.2,2.7,0.6c1.5,0.7,2.9,0.9,4.5,0.8c3.9-0.1,7.3,1.7,10.5,3.7
	c0.9,0.6,1,1.5,0.5,2.5c-0.3,0-0.6,0-0.9,0c-3.2-0.9-4.7,2.4-7.4,3c-0.8,0-1.6,0.1-2.2,0.8c-0.7,0.4-1.4,0.7-2.1,1.1
	c-4.7,0.8-6.9-1-8.2-6.5c0.9-1,2.1-1.6-0.3-2.6c-2.8-1.1-6.6-0.7-8.1-4.4c1.7-2.1,3.7-1,5.5-0.3
	C191.2,142.8,192.8,143.9,194.8,143.4z"/>
<path fill="#545454" d="M145.9,222.1c1.6,2.2,3.5,4.1,5.7,5.7c2,1.4,3.7,3.1,5.2,4.9c0.3,0.4,0.5,0.9,0.1,1.2
	c-0.3,0.2-0.9,0.3-1.3,0.1c-2.2-0.9-4.2-2.3-6-3.9c-1.4-1.3-3-2.4-4.7-3.2c-0.9-1.5-2.4-2.5-3.9-3.4c-7.1-4.2-13.6-9.3-20.1-14.4
	c-1.4-1.1-2.6-2.3-3-4.1c-0.2-1-0.9-1.6-1.8-2.1c-0.3-0.4-0.7-0.7-0.9-1.1c-0.6-1.2-0.1-2.2,0.9-2c2.7,0.6,5.7-0.1,8.1,1.9
	c0.3,0.3,0.9,0.2,1.4,0.2c0,0,0.5-0.1,0.5-0.1c0.3,0,0.6,0,0.9,0.2c0.1,0.1,0.2,0.2,0.4,0.3c0.2,0.3,0.3,0.6,0.3,0.9
	c0,0-0.1,0.5-0.1,0.5c0.3,0.6,0.6,1.3,0.9,1.9c1,4.5,5.1,6,8.3,8.3c2.1,1.5,4.1,2.8,5.1,5.2l0,0c0.3,0.3,0.6,0.6,1,1l0,0
	c0.5,0.6,1.4,0.4,1.9,1l0,0C145.3,221.4,145.5,221.8,145.9,222.1z"/>
<path fill="#494949" d="M142,219.2c-4.6-2.6-9.1-5.2-13.2-8.5c-0.6-0.5-1.3-0.9-1.9-1.5c-0.7-0.6-1.6-1.3-1.2-2.4
	c0.4-1.1,1.5-1,2.4-1.1c0.2,0,0.3,0,0.5,0c0.7,0.3,1.5,0.5,2.1,1c4.4,3.5,8.8,7,13.2,10.6C143,217.6,142.4,218.3,142,219.2z"/>
<path fill="#5B5B5B" d="M164.1,222.1c-0.8,0.4-1.4,0.9-1.1,1.8c0.3,0.9,0.9,1.7,1.2,2.6c0.4,1.1,0,1.8-1.1,2.3
	c-0.8-1.1-1.9-1.6-3.2-2c-2-0.5-3.9-1.4-5.5-2.8c0.6-0.3,1.1-0.8,0.7-1.5c-1.1-1.3-2.3-2.5-3.7-4c1.4-0.7,3.1-0.9,4-2.2
	C158.3,218.3,161.6,219.7,164.1,222.1z"/>
<path fill="#939393" d="M125.7,201.9c-0.3-0.6-0.7-1.1-0.9-1.7c-0.2-0.4-0.3-0.9,0.1-1.3c0.2-0.2,0.6-0.2,0.9-0.1
	c0.4,0.1,0.9,0.4,1.3,0.6c3,1.7,6.1,3.5,9.1,5.2c0.7,0.4,1.3,0.9,1.9,1.4c1.8,1.5,2.7,3.1,1.9,3.4c-1.4,0.5-2.3-0.8-3.4-1.3
	c-3-1.5-5.7-3.5-9-4.4c0,0,0,0,0,0c-0.3-0.3-0.7-0.6-1-0.9l0,0C126.4,202.6,126.1,202.2,125.7,201.9L125.7,201.9z"/>
<path fill="#5B5B5B" d="M154.5,224c-1.2-0.2-2.2-0.9-2.9-1.9C152.9,222.3,153.8,223,154.5,224z"/>
<path fill="#5B5B5B" d="M152.6,214.4c-0.1,0.1-0.2,0.2-0.3,0.3C152.3,214.6,152.4,214.5,152.6,214.4
	C152.6,214.4,152.6,214.4,152.6,214.4z"/>
<path fill="#494949" d="M147.8,220.1c-0.3-0.3-0.7-0.6-1-0.9C147.2,219.5,147.5,219.8,147.8,220.1z"/>
<path fill="#5B5B5B" d="M150.7,222c-0.3-0.3-0.7-0.6-1-0.9C150,221.4,150.4,221.7,150.7,222z"/>
<path fill="#494949" d="M146.8,219.2c-0.3-0.3-0.6-0.6-0.9-0.9C146.2,218.6,146.5,218.9,146.8,219.2z"/>
<path fill="#494949" d="M145,218.2c-0.3-0.3-0.7-0.6-1-0.9C144.3,217.6,144.6,217.9,145,218.2z"/>
<path fill="#6F6F6F" d="M110.3,194.2c-0.1,1.1,0,2.2-0.8,3.1c-0.7,0.7-1.6,1-2.5,1.2c-1.4,0.2-2.7-0.7-2.7-1.9c0-1.6,1-3,2.4-2.9
	C107.9,193.7,109.2,194,110.3,194.2C110.4,194.3,110.3,194.2,110.3,194.2z"/>
<path fill="#595959" d="M66.2,168.3c-0.3-0.3-0.6-0.6-1-1C65.6,167.7,65.9,168,66.2,168.3z"/>
<path fill="#404040" d="M116.1,212.5c3.2,2.2,6.4,4.5,9.6,6.7c-0.5,1.1-1.4,1.9-2.7,1.3c-3.2-1.4-5.5-3.7-7.2-6.7
	C115.7,213.5,116,212.9,116.1,212.5z"/>
<path fill="#494949" d="M144.9,221.1c-0.6-0.3-1.3-0.6-1.9-1C143.6,220.5,144.3,220.8,144.9,221.1z"/>
<path fill="#494949" d="M143,220.1c-0.3-0.3-0.6-0.6-1-1C142.4,219.5,142.7,219.8,143,220.1z"/>
<path fill="#494949" d="M145.9,222.1c-0.3-0.3-0.6-0.6-1-1C145.2,221.4,145.6,221.8,145.9,222.1z"/>
<path fill="#5D5D5D" d="M99,183.8c-1.3,0.4-2.6,0.4-3.5-0.8c-0.8-1.2-1.8-2.3-2.4-3.5c-1.1-2.1-2.5-3.7-4.8-4.4
	c-1.8-0.5-2.7-1.6-2.6-3.5c0.2-2.8-1.3-4.9-3.2-6.7c-2.8-2.6-5.4-5.5-7.6-8.6c-0.8-1.2-1.7-2.3-2.3-3.6c-0.7-1.4-1.8-2.6-1.6-4.4
	c2.2-0.6,2.9,1.5,4.1,2.6c3,2.8,5.9,5.8,8,9.4c2.1,3.5,5.9,5.3,9,7.8c0.2,0.2,0.6,0.4,0.9,0.3c2.5-0.7,4.2,0.8,6,2.2
	c1.7,1.3,1.8,1.2,3.7-0.8c0.2-0.2,0.6-0.3,0.8-0.5c0.9-0.1,1.7,0,2.5,0.2c0.4,0.2,0.8,0.4,1.1,0.7c0.3,0.3,0.6,0.6,0.9,1
	c2.7,3,6.8,3.9,9.6,6.8c1.2,1.2,3.5,2.2,2.4,4.7c-1,0.3-1.6,0.9-2,1.9c-1.5-0.5-3-1.1-4.5-1.6C108.6,181.4,103.8,181.9,99,183.8z"/>
<path fill="#757575" d="M185.3,219.2c-0.3,0-0.6-0.1-0.9-0.1c-2.6-1.5-5.2-3-7.8-4.5c-2.1-3.1-5.6-3.7-8.6-5.1
	c-3.9-1.9-7.8-3.8-11.5-6.1c-2.2-1.6-3.9-3.7-5.3-6.1c-1.3-2.2-1.1-3.9,1.3-5.1c0.5-0.1,1-0.2,1.5-0.1c0.5,0.1,0.9,0.3,1.3,0.6
	c5.8,3.4,11.1,7.5,16.9,10.9c1.8,1.8,4.2,2.7,6.3,4c1.5,0.9,3.1,1.8,2,4c-0.5,0.1-1.1,0.1-1.3,0.4c-0.6,0.7,0,1.2,0.5,1.5
	c1.7,0.9,3.4,1.8,5.1,2.7c0.6,0.3,1.1,0.6,1.6,1.1c0.3,0.3,0.6,0.9,0.6,1.2C186.7,219.1,185.9,219.1,185.3,219.2z"/>
<path fill="#AAAAAA" d="M120,182.7c-2-2.7-4.7-4.6-7.4-6.3c-2.1-1.3-4.2-2.7-6.1-4.3c-0.3-0.2-0.6-0.5-0.8-0.8l0-0.1
	c-0.9-0.8-1.2-1.9-2-2.7l0,0c-0.6-1.3-1.7-2.2-2.8-2.9l0,0c-0.3-0.3-0.6-0.6-1-1l0,0c-0.3-0.3-0.6-0.6-1-0.9l0,0
	c-0.3-0.3-0.6-0.7-1-1l0,0c-0.3-0.3-0.6-0.7-1-1l0,0c-0.3-0.3-0.6-0.7-1-1c0,0,0,0,0,0c-0.2-1,0-1.7,1-2c0.2-0.1,0.4-0.1,0.6-0.2
	c0.4-0.1,0.8-0.1,1.2,0c0.2,0.1,0.4,0.2,0.5,0.2c0.3,0.2,0.7,0.4,1,0.5c0.2,0.1,0.3,0.2,0.5,0.2c0.8,0.5,1.4,1.2,2.1,1.8
	c0.3,0.2,0.5,0.5,0.8,0.7c0.3,0.2,0.6,0.4,0.9,0.6c0.1,0.1,0.3,0.2,0.4,0.4c0.3,0.2,0.6,0.5,0.9,0.7c0.3,0.2,0.7,0.4,1,0.5
	c0.3,0.2,0.6,0.4,0.9,0.7c0.3,0.3,0.6,0.5,0.9,0.8c0.3,0.2,0.6,0.5,0.9,0.8c0.1,0.2,0.2,0.4,0.3,0.5c0.4,3.6,2.5,5,5.9,4.8
	c0.4,0.2,0.7,0.4,1,0.7c0.3,0.3,0.6,0.6,0.9,0.8c0.1,0.1,0.3,0.3,0.4,0.4c0.3,0.3,0.6,0.6,0.9,0.8c0.1,0.1,0.3,0.3,0.4,0.4
	c0.3,0.3,0.6,0.5,0.9,0.8c0.2,0.1,0.3,0.3,0.5,0.4c0.5,0.4,0.9,0.9,1.4,1.3c0.3,0.3,0.6,0.7,0.9,1c5.5,5.6,12.7,8.2,19.4,11.7
	c4.1,2.1,4.5,3.8,1.3,6.9c-2.5,0.2-3.8-2.1-5.8-3c-3.8-2.3-7.6-4.7-11.5-6.9C124.3,185.9,122.1,184.4,120,182.7z"/>
<path fill="#AAAAAA" d="M157.4,202.9c4.6,2.2,9.1,4.4,13.7,6.6c1.7,0.8,3.4,1.8,4.9,3c0.7,0.6,0.8,1.3,0.5,2.1
	c-0.3-0.1-0.6-0.2-0.8-0.3c-0.4-0.3-0.7-0.5-1.1-0.7c-7-2.5-13.5-6.2-20-9.8c-0.5-0.6-1.4-0.4-1.9-1l0,0c-1.5-1.3-4.5-1.2-4.4-4.2
	c1.4-2.3,2.9-2,4.5-0.2C154.1,200.1,155.6,201.7,157.4,202.9z"/>
<path fill="#6B6B6B" d="M148.7,199.1c1.4,1.2,3,2.1,4,3.7c-5.9-1-10.7-4-14.4-8.6c2.2,0,3.7,1.6,5.7,2
	C146.2,196,148,196.7,148.7,199.1z"/>
<path fill="#6B6B6B" d="M152.6,202.8c0.6,0.3,1.3,0.7,1.9,1C153.9,203.5,153.3,203.2,152.6,202.8z"/>
<path fill="#757575" d="M174.6,213.6c0.4,0.2,0.8,0.4,1.1,0.7C175.3,214.1,174.9,213.9,174.6,213.6z"/>
<path fill="#5B5B5B" d="M165.1,223c-0.3-0.3-0.7-0.6-1-0.9C164.5,222.4,164.8,222.7,165.1,223z"/>
<path fill="#959595" d="M180.4,211.5c-1.1-1.2-2.6-1.8-4-2.5c-2.1-1.1-3.9-2.7-5.6-4.3c0.8-1.3-0.8-2-0.7-3.1c0-0.5,0.2-0.9,0.5-1.3
	c0.5-0.5,1.2-0.7,1.9-0.7c2.7,0.4,4.8,2.2,7.1,3.5c0.6,0.3,1.2,0.4,1.8,0.7c0.4,0.2,0.7,0.4,1.1,0.5c0.6,0.3,1.1,0.6,1.7,0.9
	c0.4,0.3,0.7,0.5,1,0.8c4.6,4.6,9.8,8.1,16.3,9.5c1,0.3,1.7,0.9,2.4,1.6c0.3,0.4,0.4,0.9,0.5,1.4c-0.2,1-0.4,2-1.8,1.6
	c-0.6-0.1-1.3-0.1-1.9-0.2c-0.6-0.5-1.4-0.3-2-0.8c-1.2-0.4-2.5-0.7-3.7-1.1c-0.5-0.5-1.5-0.3-2-1l0,0c-0.6-0.5-1.4-0.3-1.9-0.9l0,0
	c-0.5-0.6-1.4-0.4-1.9-1c0,0,0,0,0,0c-1-1.1-2.4-1.5-3.8-2C183.7,212.8,182.1,212.2,180.4,211.5z"/>
<path fill="#5A5A5A" d="M189.1,215.3c0.6,0.3,1.3,0.6,1.9,1C190.4,216,189.7,215.7,189.1,215.3z"/>
<path fill="#7B7B7B" d="M198.6,219.3c0.7,0.3,1.3,0.5,2,0.8C199.9,219.8,199.2,219.5,198.6,219.3z"/>
<path fill="#5A5A5A" d="M191,216.3c0.6,0.3,1.3,0.6,1.9,0.9C192.3,216.9,191.7,216.6,191,216.3z"/>
<path fill="#5A5A5A" d="M192.9,217.2c0.7,0.3,1.3,0.6,2,1C194.2,217.9,193.6,217.5,192.9,217.2z"/>
<path fill="#939393" d="M100.8,165.4c1.6,0.3,2.5,1.3,2.8,2.9C102.4,167.6,101.5,166.6,100.8,165.4z"/>
<path fill="#939393" d="M103.6,168.3c1.1,0.6,1.7,1.6,2,2.8c-0.7-0.6-1.4-1.2-2.1-1.8C103.5,169,103.6,168.7,103.6,168.3z"/>
<path fill="#939393" d="M98.8,163.5c0.3,0.3,0.7,0.6,1,0.9C99.5,164.2,99.2,163.8,98.8,163.5z"/>
<path fill="#939393" d="M99.8,164.5c0.3,0.3,0.6,0.6,1,1C100.4,165.1,100.1,164.8,99.8,164.5z"/>
<path fill="#939393" d="M96.9,161.6c0.3,0.3,0.6,0.6,1,1C97.5,162.3,97.2,161.9,96.9,161.6z"/>
<path fill="#939393" d="M97.9,162.6c0.3,0.3,0.6,0.6,1,1C98.5,163.2,98.2,162.9,97.9,162.6z"/>
<path fill="#939393" d="M95.9,160.7c0.3,0.3,0.6,0.6,1,1C96.6,161.3,96.3,161,95.9,160.7z"/>
<path fill="#9D9D9D" d="M134.4,131.8c-0.4,0.2-0.9,0.3-1.3,0.5c-0.1,0,0.1,0.7,0.2,0.8c3.9,1.7,7.1,4.8,11.3,6
	c2.1,0.6,3.9,2.1,5.6,3.5c2.9,2.3,6,4,9.5,5.1c5.3,1.7,10.2,4.3,15,7c0,0.7-0.4,1.3-1,1.6c-2-0.2-4-0.4-5.6-1.5c1,1.3,3.6,0.3,4,2.7
	c-0.3,1.5-1.2,2.5-2.5,3.1c-0.8,0.2-1.6,0.1-2.3-0.3c-13.8-8.4-29.5-12.6-43.9-19.7c-1.1-0.6-2.4-0.7-3.5-1.5c-0.5-0.4-1-0.7-1.5-1
	c0.5,0.5,0.7,1,0.8,1.7c0,1-0.4,1.8-1.2,2.4c-5.5,0.4-8.7-3.9-12.8-6.2c-4.8-2.7-9-6.6-11.9-8.3c15.3,11.5,34.1,21.6,51.4,34.1
	c4.4,3.2,10.2,4.7,15,7.6c8.4,5,16.7,10.1,24.9,15.4c2.2,1.4,5.5,2.9,4.8,6.7c-1.6,1.6-3.3,1.4-4.6-0.1c-3.9-4.4-9.7-6.1-13.3-9.6
	c2.3,1.5,4.9,3.8,7.9,5.3c1.6,0.8,3.1,1.9,2.3,3.9c-1,2.3-2.9,1.1-4.5,0.4c-4.9-2.2-9-5.8-13.5-8.7c-0.5-0.3-1-0.7-1.5-1
	c-0.3-0.2-0.7-0.4-1-0.6c-0.5-0.3-1.1-0.6-1.6-0.8c-0.4-0.2-0.7-0.4-1.1-0.6c-5.1-4-11.6-5-17.1-8.2c-9.4-5.5-15.6-14.9-24.9-20.5
	c-4.1-2.5-7.8-5.4-10.8-9c-0.1-0.1-0.2-0.2-0.3-0.3c0.1,0-0.3-0.1-0.3-0.1c0.3,0.1,0.5,0.2,0.7,0.4c0.9,1.5,3.3,2,2.7,4.3
	c1.5,2.1,3.5,3.7,5.6,5.2c1.2,0.9,2.2,1.8,1.4,3.4c-1.8,1.7-3.5,0.6-4.7-0.5c-4.4-3.8-9.4-6.9-13.2-10.7c1.3,2.8,6.1,2.9,6.7,7
	c-0.2,0.7-0.7,1.1-1.4,1.4c-0.9,0.2-1.8,0.2-2.6,0c-2.6-0.6-4.3-2.6-6.4-4c-0.2,0-0.4-0.1-0.6-0.1c-1.8-0.4-3-1.7-4.3-2.9
	c-1.4-1.3-2.8-2.6-4.2-3.9c-0.3-0.1-0.6-0.3-0.8-0.5c-0.2-0.3-0.4-0.5-0.7-0.7c-0.2-0.2-0.5-0.5-0.7-0.7c-0.3-0.3-0.5-0.5-0.8-0.8
	c-0.2-0.1-0.3-0.2-0.5-0.4c-0.3-0.3-0.6-0.5-0.9-0.8c-4.3-5.5-10.5-9-15.4-14c-0.7-0.7-1.7-1.2-2.5-2c-0.9-0.9-1-2-0.3-3
	c0.8-1.1,1.9-1.1,2.9-0.4c8,5.5,16.7,9.9,21.7,13.5c-8.2-5.9-21-11.3-30.9-21.1c-0.8-0.6-1.8-0.9-2.8-1c-2.5-1.7-1.1-2.8,0.7-3.4
	c2.4-0.9,5-0.4,7.1,0.7c2.3,1.2,4.7,1.7,7.1,2.4c0.4,0.2,0.9,0.4,1.3,0.6c0.4,0.2,0.8,0.5,1.1,0.7c0.2,0.1,0.4,0.2,0.6,0.4
	c0.7,0.4,1.5,0.8,2.2,1.3c2.4,1.3,5.2,1.5,7.7,2.7c0.9,0.3,1.7,0.7,2.5,1c0.5,0.2,0.9,0.4,1.4,0.6c10.7,2.8,21.6,5.1,32.4,7.5
	c5.1,1.1,9.9,3.4,14.8,4.9C133.1,129.4,134.8,129.8,134.4,131.8z"/>
<path fill="#6A6A6A" d="M55.7,110.6c4,1.4,7.5,3.4,10.4,6.6c1,1.2,2.5,2,3.9,2.7c7,3.8,13.8,8.1,20.1,12.9c1.3,1,2.7,1.7,4,2.6
	c0.3,0.2,0.6,0.8,0.6,1.2c-0.1,0.5-0.8,0.5-1.2,0.4c-1.2-0.5-2.4-1-3.5-1.6c-6-3.6-12-7.3-18-11c-2.6-1.6-5-3.4-7.5-5.1
	c-0.4-0.3-1-0.3-1.2,0.3c-0.1,0.2,0,0.7,0.2,0.9c3.4,3.2,6.6,6.5,10.2,9.5c2.8,2.4,5.5,4.9,7.9,7.7c0.3,0.4,0.6,0.6,0.9,1l0,0
	c0.3,0.3,0.7,0.6,1,1l0,0c0.4,0.3,0.7,0.7,0.9,1.1c0,0.3,0,0.6,0.1,0.9c-1.1,0.3-1.8-0.3-2.5-1c-6.8-7-14.5-12.9-22.3-18.7
	c-2-1.5-3.4-3.4-4.8-5.3c-1.1-1.4-2.4-2.1-4.1-1c-1.2-0.8-2.4-1.6-2.9-3c-0.1-0.3,0-0.7,0.1-0.9c0.2-0.2,0.5-0.4,0.8-0.4
	c1.8,0,3.4,0.8,4.8,1.9c0.7,0.6,1.5,1.1,2.3,1.6c0.2,0.1,0.6,0,0.8-0.2c0.2-0.2,0.4-0.6,0.3-0.8C56.7,112.6,56.2,111.6,55.7,110.6z"
	/>
<path fill="#656565" d="M105.6,165.5c-0.3-0.1-0.6-0.1-0.9-0.1c-0.4-0.3-0.7-0.6-1-0.9h0c-0.3-0.3-0.6-0.6-1-0.9l0,0
	c-1.3-1-2.5-1.9-3.8-3l0,0c-0.4-0.3-0.7-0.6-1-1l0,0c-0.4-0.3-0.7-0.6-1-0.9c0,0,0,0,0,0c-2.2-2.3-4.3-4.6-6.5-6.9
	c-0.8-0.9-1.6-1.9-2.3-2.9c-0.1-0.1,0.2-0.5,0.3-0.8c0.1-0.1,0.3-0.1,0.4-0.1c0.5,0.3,1.1,0.6,1.6,1c2.5,2,4.9,3.9,7.4,5.9
	c4.1,0.6,6.3,5,10.6,5.1c0.4,0.1,0.8,0.3,1.2,0.6c0.3,0.3,0.7,0.6,1,0.9c0.2,0.1,0.3,0.3,0.5,0.5c0.3,0.3,0.6,0.6,0.9,0.9
	c0.1,0.2,0.3,0.3,0.4,0.5c0.3,0.3,0.6,0.6,0.8,1c1.9,1.6,3.7,3.3,5.7,4.7c0.3,0.2,0.6,0.4,1,0.7c0.3,0.2,0.6,0.5,0.9,0.7
	c0.3,0.2,0.5,0.5,0.8,0.8c0.1,0.1,0.3,0.3,0.4,0.4c0.3,0.3,0.5,0.5,0.8,0.8c0.1,0.1,0.3,0.3,0.4,0.4c0.3,0.2,0.6,0.5,0.9,0.7
	c0.2,0.1,0.3,0.2,0.5,0.4c0.4,0.2,0.7,0.5,1,0.8c0.2,0.2,0.3,0.3,0.5,0.5c1.5,1.6,2.3,3.8,3.8,5.4c0.8,0.9,1.7,2.2,0.5,3.3
	c-1.1,1-2.4,0.4-3.5-0.3c-2.1-1.3-4-3.1-6-4.6l0,0c-0.5-0.8-1.1-1.4-1.9-1.9l0,0c-0.3-0.3-0.6-0.6-1-0.9l0,0
	c-0.3-0.3-0.6-0.6-0.9-0.9l0,0c-0.3-0.3-0.6-0.6-0.9-0.9l0,0c-3-2.1-6.1-4.1-8.6-6.8l0,0c-0.3-0.3-0.6-0.6-1-0.9l0,0
	C106.2,166.1,105.9,165.8,105.6,165.5z"/>
<path fill="#9D9D9D" d="M108.4,162.6c-4-1.8-7.5-4.5-10.5-7.8c0-0.6,0-1.3,0-1.9c0.2-0.2,0.4-0.3,0.6-0.5c4.9,0.9,7.6,4.7,10.5,8.1
	C109.4,161,109,162,108.4,162.6z"/>
<path fill="#9D9D9D" d="M95.9,151.1c-0.3-0.3-0.6-0.6-1-1c0.2-0.1,0.3-0.2,0.5-0.3c0.4,0.1,0.6,0.4,0.7,0.7
	C96.1,150.7,96,150.9,95.9,151.1z"/>
<path fill="#9D9D9D" d="M94,149.1c-0.3-0.3-0.6-0.6-1-1c0,0,0,0,0,0c0.7-0.6,0.9-0.1,1.2,0.5C94.2,148.8,94.1,149,94,149.1z"/>
<path fill="#9D9D9D" d="M95,150.1c-0.3-0.3-0.6-0.6-1-1c0,0,0,0,0,0C94.9,148.9,95.3,149.2,95,150.1L95,150.1z"/>
<path fill="#9D9D9D" d="M97.9,153c-0.3-0.3-0.6-0.6-1-1c0.2,0,0.4-0.1,0.6-0.1C97.9,152.1,98,152.5,97.9,153L97.9,153z"/>
<path fill="#9D9D9D" d="M96.9,152c-0.3-0.3-0.6-0.6-1-1c0,0,0,0,0,0C96.9,150.8,97.2,151.1,96.9,152L96.9,152z"/>
<path fill="#6C6C6C" d="M69,111.7c-1.8-0.1-3.3-0.9-4.9-1.5c-3.1-1.1-6.2-2.2-9.6-2.3c-1,0-1.9,0.4-1.6,1.7
	c-2.2-0.4-4.4-0.9-6.3-2.2c-0.9-0.6-0.8-1.8,0.2-2.4c1.5-0.8,3-1,4.6-1c2.9,0,5.6-1.1,8.4-1.8c1-0.3,1.1-0.9,0.9-1.8
	c-0.2-0.8,0.6-1.1,1.2-1c1.4,0.2,2.8,0.5,4.2,0.8c2-1.4,3.5,0.3,5.2,0.9c4,1.2,8.1,2,12,3.4c2.9,3.4,7.1,4.3,11.1,4.8
	c11.3,1.4,22.5,3.2,33.7,4.7c11.2,2.2,22.3,5.2,33.3,8.2c0.9,0.7,2.1,1.3,1.7,2.6c-0.5,1.6-2.1,1.6-3.2,1.3
	c-7-2.5-14.5-1.2-21.6-2.9c-18.7-4.4-37.8-6.4-56.5-10.8c-4-0.9-7.9-2.7-12.1-2.8C69.3,110.1,69.7,111.2,69,111.7z"/>
<path fill="#4E4E4E" d="M82.5,105.9c-0.3-0.2-0.5-0.4-0.8-0.5c-5.3-1.3-10.4-3.5-15.5-5.3c0-0.3,0-0.6,0-1c0.9-0.7,1.9-0.6,2.9-0.1
	c1.6,0.4,3.2,0.7,4.8,1.1c0,0,0,0,0,0c0.5,0.6,1.4,0.4,2,0.8c0.3,0.1,0.6,0.1,0.9,0.2c0.8,0.8,2.1,0.1,2.9,0.8
	c0.6,0.1,1.2,0.1,1.8,0.2c0.9,0.7,2.1,0,3,0.8c0.3,0.1,0.6,0.1,0.9,0.1c1.2,0.9,2.8-0.2,3.9,0.9l0,0c1.8,1.2,4-0.2,5.8,0.9
	c7.4,1.3,14.7,2.6,22.1,3.9c2.1,1.4,4.6-0.2,6.8,0.9c0.3,0,0.6,0,0.9,0.1c-0.1,2.3-1.9,2.2-3.4,2.3c-2.6,0.1-5.1,0.1-7.7,0
	c-8.5-1.4-17-2.2-25.4-4.1c-1.5-0.3-2.9-1.1-4.5-1.2C83.2,106.6,82.8,106.3,82.5,105.9z"/>
<path fill="#6C6C6C" d="M69.1,99.1c-1,0-1.9,0.1-2.9,0.1c0-0.3,0-0.6-0.1-0.9C67.2,98.3,68.2,98.5,69.1,99.1z"/>
<path fill="#6C6C6C" d="M62.4,97.3c0.7,0.3,1.3,0.6,2,0.9C63.7,97.9,63,97.6,62.4,97.3z"/>
<path fill="#8D8D8D" d="M39.3,59.8c-0.3,0.3-0.7,0.6-1,0.9C38.6,60.4,39,60.1,39.3,59.8z"/>
<path fill="#9E9E9E" d="M175.6,102.1c0.3,0,0.6,0,1,0.1c3.1,0.8,6.1,2,9.3,2c0.8,0,1.5,0.6,1.5,1.6c0,0.9-0.7,1.4-1.5,1.7
	c-1.2,0.4-2.5,0.4-3.8,0.2c-3-0.5-6-0.9-9-1.4c-4.3-0.6-8.5-1.6-12.8-1.3c-2,0.1-3.9-0.7-6-0.3c1.8,1.7,3.9,1.9,6.1,2.3
	c6,0.9,12,2,18,3c1.1,0.2,2.2,0.4,3.1,1.2c0.2,0.2,0.4,0.6,0.3,0.8c-0.1,0.2-0.4,0.4-0.7,0.5c-0.1,0.1-0.3,0-0.5,0
	c-8.4-1-16.8-1.8-25.2-3.2c-3.9-0.6-7.9-0.6-11.9-1.1c-5.6-0.6-11.1-1.2-16.6-1.9c-2-0.3-4.1-0.2-6.2-0.2c-4.2-0.1-8.3-0.6-12.2-1.9
	c3.7,0,7.4-0.2,11,0c4.3,0.3,8.6,0.9,12.8,1.4c0.9,0.1,1.9,0.3,2.8,0.4c0.6,0.1,1.3-0.1,1.6-0.7c0.3-0.5-0.4-1.5-1.4-1.6
	c-5.7-0.9-10.8-4-16.5-4.8c-0.3,0-0.6-0.3-0.9-0.4c0.9-0.6,1.9-0.9,2.9-1c5.1-2.3,10.3-0.3,15.2,0.6c10.7,1.9,21.4,3.6,32.3,4.2
	C170.8,102.2,173.2,104,175.6,102.1z"/>
<path fill="#898989" d="M175.6,102.1c0.5,0.7,0.9,1.6-0.4,1.7c-1.6,0.1-3.2,0.1-4.7-0.2c-2.2-0.4-4.4-0.6-6.7-0.6
	c-4.2,0.1-8.3-0.1-12.4-1c-2.8-0.6-5.6-1.1-8.5-1c-1.9,0-3.8-0.7-5.6-1.3c-2.6-0.9-5.2-1.4-7.9-1.5c-2.9-0.1-5.7-0.6-8.5-0.9
	c-3.6-1.3-7.4-1.6-11.2-1.9c-1.8-0.2-3-0.8-2.5-1.3c0.7-0.8,1.8-0.5,2.7-0.6c0.2,0,0.3,0,0.5,0c8.4,1,16.8,1.9,25.1,2.9
	c3.6,0.4,7.3,0.9,10.9,1.6c5.6,1,11.3,1.9,17,2.4C167.5,100.7,171.5,101.5,175.6,102.1z"/>
<path fill="#A6A6A6" d="M158.4,92.5c-3.8,0-7.5,0-11.3,0c-1.7,0-3.5,0-5-0.9c3.8,0,7.5,0,11.3,0C155.1,91.5,156.8,91.5,158.4,92.5z"
	/>
<path fill="#A6A6A6" d="M141.1,91.5c-5.1,0-10.2,0-15.4,0c0.9-0.3,1.8-0.8,2.7-0.8c3.3-0.1,6.7-0.1,10,0
	C139.3,90.7,140.2,91.2,141.1,91.5z"/>
<path fill="#A3A3A3" d="M66.3,106.8c-0.1-0.7-0.1-1.3,0.8-1.4c0.3,0,0.7,0,0.9,0.2c5.3,3.6,11.5,4.7,17.6,5.8
	c9.3,1.6,18.6,3.4,27.9,4.6c14.2,1.8,28,5.1,41.8,8.3c1.9,0.4,3.8,1,5.7,0.7c1.4-0.3,0.7-1.1,0.2-1.8c2.2-1.4,4.3-1.8,5.8,0.9
	c3.3,1.8,6.9,2,10.5,1.9c1.2,0.6,2.2,2.1,3.9,1c0.9,0,1.9,0,2.8,0c0,0,0,0,0,0c0.3,0.3,0.7,0.6,1,0.9c0.3,0,0.6,0,0.9,0
	c0.3,0.3,0.7,0.6,1,0.9c0.3,0,0.6,0,0.9,0c0.5,0.6,1.4,0.4,1.9,0.9c0.6,0,1.3,0.1,1.9,0.1c0.3,0.3,0.7,0.6,1,0.9c0.3,0,0.6,0,0.9,0
	c0.3,0.3,0.7,0.6,1,0.9l0,0c0.9,0.6,1.5,1.3,0.6,2.3c-1.1,1.2-2.4,1.2-3.9,0.8c-9.4-2.4-19-4.1-28.4-7c-4-1.1-8-2.3-12-3.3
	c-0.5-0.1-1,0-1.1,0.5c0,0.2,0.1,0.7,0.3,0.8c3.5,1.8,6.5,4.7,10.7,5.2c1.4,0.2,2.8,0.8,4,1.6c-3.1,3.2-6.9,0.2-10.3,1.4
	c-5.8,0.2-11.1-2.8-16.9-2.8c-17.1-7.1-35.3-10.2-53-15.1c-0.5-0.1-0.9-0.2-1.4-0.3c-1.1-0.2-2.1-0.8-3.2-1
	c-0.4-0.1-0.8-0.2-1.2-0.4c-1-0.6-2.1-0.5-3.1-1C72.3,111.9,68.3,110.7,66.3,106.8z"/>
<path fill="#7B7B7B" d="M113.2,110.8c2.3,0,4.7-0.1,7-0.1c1.6,0,3.1,0,4.5-0.9c9.5,1.4,19,2.6,28.2,5.2c2.3,0.7,4.7,1.1,7.1,1.3
	c2.7,0.2,5.4,0.7,7.8,1.9c0.9,0.4,2.8-0.2,2.3,1.5c-0.3,1-2,0.6-3.1,0.4c-5-1-10-2-15-2.9c-1.7-0.3-3.5-0.4-5.2-0.6
	c-5.4,1.3-10.5-0.8-15.6-1.9c-4.8-0.7-9.5-1.6-14.4-1.9C115.4,112.5,113.6,113.1,113.2,110.8z"/>
<path fill="#C6C6C6" d="M131.5,113.5c5.1,1.1,10.4,1.3,15.4,2.9c6.1,2.3,12.5,3.8,19,4.8c0.8,0.1,1.6,0.1,2.4,0.2
	c0.9,0.1,2.3,0.4,2.3,1.3c0.1,1.7-1.6,1.1-2.5,1.3c-0.3,0.1-0.6,0-1,0c-1.9-0.8-3.8-1.1-5.8-0.9c-2.3-0.5-4.7-1-7-1.7
	c-5.9-1.9-12-3.2-18.1-4.3c-2.8-0.5-5.5-1.8-8.4-1.8c-1.4-0.9-1.8-1.8,0.2-2.2C129.1,113,130.4,112.8,131.5,113.5z"/>
<path fill="#7B7B7B" d="M123.9,109.7c-2.3,0.1-4.7,0.5-6.8-0.9C119.4,108.7,121.7,108.6,123.9,109.7z"/>
<path fill="#898989" d="M95,104.9c-2,0.1-4,0.3-5.8-0.9C91.2,104,93.2,103.8,95,104.9z"/>
<path fill="#B1B1B1" d="M181.4,127.1c-1.6,1.1-2.8,0.4-3.9-1C178.8,126.4,180.1,126.7,181.4,127.1z"/>
<path fill="#898989" d="M89.2,104c-1.4,0.1-2.7-0.1-3.9-0.9C86.7,103,88.1,103.2,89.2,104z"/>
<path fill="#898989" d="M84.5,103c-1.1,0.1-2.1-0.2-3-0.8C82.6,102.1,83.6,102.3,84.5,103z"/>
<path fill="#898989" d="M79.7,102c-1.1,0.1-2.1-0.2-2.9-0.8C77.8,101.1,78.8,101.4,79.7,102z"/>
<path fill="#898989" d="M75.9,101c-0.7-0.3-1.3-0.5-2-0.8C74.5,100.4,75.2,100.7,75.9,101z"/>
<path fill="#5D5D5D" d="M83.5,114.5c3.8,0.2,7.6,1.2,11.3,2.1c7.1,1.8,14.2,3.6,21.4,5.4c3.3,0.8,6.4,2,9.4,3.4
	c4.1,1.8,8,3.9,12.5,4.5c0.2,0,0.4,0,0.5,0c0.5,0,1.1,0,1.6,0.1c0.3,0.1,0.7,0.2,1,0.4c0.5,0.3,1,0.4,1.5,0.6c0.3,0.1,0.7,0.3,1,0.5
	c0.7,0.4,1.4,0.4,2.1,0.4c0.4,0,0.8,0.1,1.1,0.2c0.7,0.4,1.4,0.7,2.2,0.8c0.4,0,0.8,0.1,1.2,0.3c0.6,0.3,1.3,0.6,1.9,0.7
	c8.7,2.8,17.5,5.4,25.7,9.5c1.4,3.8,1.4,3.8-1.5,4c-4.2-1.6-8.4-3.1-12.4-4.9c-9.6-4.3-19.7-7.5-29.7-10.5c-6.8-3.2-14-5.3-21.4-6.6
	c-3.6-0.6-7.2-1.2-10.7-2.4c-2.4-0.8-5-1-7.5-1.5c-4.2-0.8-8.5-1.7-12.3-3.8C82.7,116.4,82.8,115.4,83.5,114.5z"/>
<path fill="#898989" d="M169.9,159.6c0.1-1.6,0.1-1.6,1.9-1.9c0.2-0.1,0.4-0.1,0.6-0.2c0.7-0.2,1.3-0.2,2,0c8,3.3,14.9,8.8,23,11.8
	c0.4,0.1,0.8,0.2,1.1,0.4c0.5,0.1,1.1,0.2,1.5,0.5c0.3,0.1,0.6,0.3,0.9,0.4c0.4,0.2,0.8,0.4,1.2,0.7c0.2,0.2,0.4,0.4,0.6,0.6
	c0.2,0.2,0.5,0.4,0.7,0.5c0,0,0.5,0.1,0.5,0.1c0,0,0.5,0.1,0.5,0.1c0.4,0.1,0.7,0.1,1,0.3c1.1,0.5,2.2,1,3.2,1.6
	c1,0.9,2.2,0.9,3.4,0.4c1.7,0.2,3.4,0.5,4.6,1.9c0.5,0.6,0.4,1.2-0.4,1.4c-0.4,0.1-1,0.1-1.3,0.3c-0.5,0.3-0.3,0.8-0.1,1.2
	c0.3,0.3,0.7,0.6,0.9,1l0,0c0.4,0.2,0.7,0.5,1,0.9l0,0c-1.4,2-4.7,2.3-4.9,5.5c-4.5,0.1-7.1-3.3-10.5-5.3
	c-1.5-6.3-7.4-8.1-12.1-10.4c-5.7-2.7-11.2-5.7-17-8.3c-0.6-0.3-1.1-0.7-1.6-1.2c-0.4-0.5-0.7-1.1-0.9-1.8
	C170,160.1,169.9,159.9,169.9,159.6z"/>
<path fill="#7D7D7D" d="M176.5,147.3c2-0.9,0.4-2,0.1-3c0.4-0.5,0.9-1.2,1.4-1.2c5.6,0.5,10.9,1.5,14.9,6c1,1,2.1,2,2.8,3.2
	c1.1,1.9,2.8,2.9,4.8,3.7c2.2,1.3,4.5,2.6,6.7,3.8c0.4,0.3,0.7,0.6,1,0.9l-0.1,0c-1.9,4.1-3.8,2.1-5.8,0c-0.3-0.1-0.5-0.1-0.8-0.1
	c-0.4-0.3-0.7-0.5-1.1-0.8c-0.3,0-0.6-0.1-0.9-0.1c-0.3-0.3-0.7-0.6-1-0.8c-0.3-0.1-0.6-0.1-0.9-0.2c-0.4-0.2-0.7-0.5-1.1-0.8
	c-6.1-3.1-12.2-6.1-18.3-9.2C177.8,148.3,177.2,147.7,176.5,147.3z"/>
<path fill="#8B8B8B" d="M207.3,169.3c-8.7-6-18.4-10.3-27.7-15.2c-3.7-1.9-7.3-4-10.9-6.1c-0.2-0.1-0.5-0.6-0.4-0.8
	c0.2-0.6,0.7-0.4,1.2-0.3c0.2,0,0.3,0.1,0.4,0.2c5.8,3,11.6,6,17.5,8.9c2.7,1.4,5.5,2.5,8.3,3.8c0.5,0.6,1.4,0.3,2,0.9
	c0.3,0,0.6,0.1,0.9,0.1c0.3,0.3,0.7,0.6,1,0.9c0.3,0,0.6,0.1,0.9,0.1c3.3,0.7,6.5,1.4,8.9,4.1c0.8,0.9,1.7,1.5,1,2.7
	C209.7,169.5,208.7,170.2,207.3,169.3z"/>
<path fill="#828282" d="M212.1,175c0.2,1.4-0.6,2-1.8,1.8c-0.7-0.1-1.4-0.5-2-0.8c-3-4-7.7-4.9-12.1-6.2
	c-6.1-4.1-12.7-7.5-19.2-10.9c-1.3-0.7-3.1-1-3.2-3.1c0.3-0.4,0.7-0.7,1-1.1c10.5,4.5,20.7,9.6,30.5,15.5c1.8,1,3.6,2,4.9,3.7
	C210.7,174.6,211.6,174.5,212.1,175L212.1,175z"/>
<path fill="#B1B1B1" d="M163.2,128c4,0.4,7.9,0.8,11.9,1.2c5.2,0.5,10.3,1.9,15.5,2.9c1.1,0.2,2,0.9,3.1,1.2
	c1.1,0.3,1.3-0.5,1.2-1.4c1.5,0.1,2.8,0.5,3.7,1.8c2,3,4.9,5,8.1,6.5c0.3,0.1,0.6,0.3,0.8,0.5c1.4,0.9,2.1,2.1,1.5,2.5
	c-1,0.7-1.8,0.1-2.7-0.3c-3-1.5-6.4-2-9.6-2.9c-2-0.5-4.1-0.9-5.8-2c-2.9-2-6.1-2.7-9.5-3.1c-3.7-0.5-7.1-1.7-10.4-3.5
	c-1.2-0.7-2.6-1.2-3.9-1.7C165.7,129.2,164.4,128.9,163.2,128z"/>
<path fill="#818181" d="M154.5,132.8c1.6-1,3.3-1,5-0.6c1.9,0.4,3.7,0.7,5.6,0.6c0.3,0,0.6,0.1,0.9,0.1c0.5,0.5,1.4,0.3,2,0.9
	c8.9,3.4,18.1,5.9,26.8,9.6c0.2,0.4,0.4,0.8,0.5,1.2c-0.3,0.1-0.5,0.4-0.8,0.3c-1.2-0.3-2.4-0.6-3.5-1.1c-2.2-1-4.4-1.4-6.8-1.4
	c-0.8,1-1.8,0.9-2.9,0.6c-0.6-0.1-1.2-0.1-1.8-0.2c-0.4-0.1-0.8-0.2-1.2-0.3c-0.8-0.2-1.5-0.5-2.2-0.7c-0.4-0.1-0.7-0.2-1.1-0.3
	c-0.6,0-1.1-0.2-1.6-0.4c-0.3-0.2-0.7-0.3-1-0.4c-0.6-0.1-1.1-0.2-1.6-0.4c-0.3-0.2-0.7-0.3-1-0.5c-0.5-0.2-1.1-0.3-1.6-0.6
	c-0.3-0.2-0.7-0.3-1-0.4c-0.8-0.1-1.5-0.4-2.2-0.7c-0.4-0.2-0.7-0.4-1.1-0.5c-0.7-0.3-1.5-0.3-2.3-0.5c-0.4-0.2-0.7-0.3-1.1-0.5
	c-0.7-0.3-1.5-0.6-2.2-1c-0.4-0.1-0.8-0.2-1.2-0.3c-1-0.4-1.8-0.9-2.5-1.7C154.6,133.2,154.6,133,154.5,132.8z"/>
<path fill="#B1B1B1" d="M190.1,129.9c-0.6-0.3-1.3-0.6-1.9-0.9C188.8,129.3,189.4,129.6,190.1,129.9z"/>
<path fill="#A3A3A3" d="M168,133.7c-0.7-0.3-1.3-0.6-2-0.9C166.7,133.1,167.3,133.4,168,133.7z"/>
<path fill="#B1B1B1" d="M185.3,128c-0.3-0.3-0.6-0.6-1-0.9C184.6,127.4,184.9,127.7,185.3,128z"/>
<path fill="#B1B1B1" d="M192.9,130.9c-0.3-0.3-0.7-0.6-1-0.9C192.3,130.3,192.6,130.6,192.9,130.9z"/>
<path fill="#B1B1B1" d="M187.2,128.9c-0.3-0.3-0.7-0.6-1-0.9C186.5,128.3,186.9,128.6,187.2,128.9z"/>
<path fill="#CACACA" d="M168,136.6c0.3,0,0.6,0.1,0.9,0.1c0.5,0.5,1.4,0.3,1.9,0.9l0,0c0.8,0.9,2.1,0,2.9,1l0,0
	c0.5,0.5,1.4,0.4,2,0.9c0.3,0,0.6,0.1,0.9,0.1c0.8,0.8,2.1,0,2.9,0.9l0,0c0.5,0.6,1.4,0.4,1.9,0.9c1,0.3,1.9,0.7,2.9,1
	c3.2,1.3,6.5,2.5,9.7,3.8c1.3,0.5,2.7,0.9,3.8,1.9c0.3,0.3,0.5,0.8,0.5,1.2c-0.1,0.5-0.6,0.7-1.1,0.6c-1.4-0.2-2.8-0.5-4.2-0.8
	c-3-1.1-5.9-2.3-8.9-3.4c-2.4-0.9-4.9-1.5-7.4-1.5c-8.6-3.2-17.3-6.5-25.9-9.7c-0.4-0.2-0.8-0.4-1.2-0.6c-0.3,0-0.5-0.1-0.8-0.1
	c-0.6-0.6-1.4-0.4-2.1-0.8c-0.3,0-0.5-0.1-0.8-0.2c-0.8-0.9-2.1,0-2.9-1l0,0c-0.6-0.5-1.4-0.4-2-0.8c-0.3-0.1-0.6-0.1-0.9-0.2
	c-0.6-0.4-1.4-0.3-2-0.8c0,0-0.1,0-0.1,0c1.5-1,3-0.4,4.5,0c3.9,1.1,7.8,2.3,11.9,2.9c0,0,0,0,0,0c1.1,1,2.8-0.1,3.8,1l0,0
	c0.8,0.9,2.1,0.1,2.9,0.9l0,0c1.1,1.1,2.7-0.1,3.8,1l0,0C165.9,136.6,167.2,135.8,168,136.6z"/>
<path fill="#6F6F6F" d="M126.7,202.9c0.3,0.3,0.7,0.6,1,0.9C127.3,203.5,127,203.2,126.7,202.9z"/>
<path fill="#6F6F6F" d="M125.7,201.9c0.3,0.3,0.6,0.6,1,0.9C126.3,202.6,126,202.3,125.7,201.9z"/>
<path fill="#939393" d="M105.7,171.2c0.3,0.3,0.6,0.6,0.8,0.8C106.2,171.7,105.9,171.5,105.7,171.2z"/>
<path fill="#B8B8B8" d="M96.9,152c-0.3-0.3-0.6-0.6-1-1c-0.3-0.3-0.6-0.6-1-1c-0.3-0.3-0.6-0.6-1-1c-0.3-0.3-0.6-0.6-0.9-1
	c1-0.5,1.8-0.3,2.6,0.3c1.5,1.3,3.3,1.8,5,2.6c0.2,0.1,0.4,0.1,0.6,0.2c0.4,0.2,0.7,0.4,1.1,0.6c0.2,0.1,0.4,0.1,0.6,0.2
	c0.4,0.1,0.8,0.2,1.2,0.3c8.4,5.3,15.4,12.3,23.2,18.4c4.4,3.4,9.4,6.2,13.1,10.3c-0.6-0.4-1.3-1.1-1.3-2.2c0.1-1,0.6-1.8,1.4-2.4
	c3.4-0.9,5.3,1.9,7.8,3.3c2.3,2.7,5.5,4.5,8.2,6.7c0.4,0.3,0.7,0.7,1,1.1c0.3,0.4,0.4,0.9,0.5,1.4c-0.6,3.6,2.3,4.6,4.4,6.2
	c1.9,1.5,4,2.8,6.3,3.7c0.4,0.2,0.8,0.5,1.1,0.8c0.6,0.7,0.4,1.8,1,2.5c0.3,0.2,0.5,0.4,0.8,0.6c0.5,0.4,1.1,0.9,0.9,1.6
	c-0.2,0.7-1,0.6-1.6,0.7c-5.4-3.5-10.9-7-16.3-10.6c-0.4-0.3-0.7-0.6-1-0.9l0,0c-9.1-0.2-15.4-6.5-22.5-10.9
	c-2.9-1.8-5.5-4.2-8.1-6.5l-0.1,0c-0.4-0.3-0.7-0.5-0.9-0.9l0,0c-0.4-0.3-0.7-0.6-0.9-0.9l0,0c-0.3-0.3-0.7-0.6-0.9-0.9l0,0
	c-0.4-0.3-0.7-0.6-0.9-0.9l0,0c-0.4-0.3-0.7-0.6-1-0.9c-2.2-1.9-4.5-3.8-6.7-5.7c-0.3-0.3-0.6-0.7-1-0.9l0,0c-0.3-0.4-0.6-0.7-1-1
	l0,0c-0.3-0.3-0.6-0.7-1-0.9c0,0,0,0,0,0c-1.6-3.6-5.2-5.4-7.6-8.2c-0.7-0.8-1.8-1.3-2.9-1.5C97.6,152.6,97.3,152.3,96.9,152z"/>
<path fill="#939393" d="M122.9,175.9c2.2,0.7,4,2.1,5.7,3.5c1.5,1.3,3.1,2.2,5,2.6c1.9,0.4,3.5,1.4,5.1,2.5
	c3.7,2.4,7.4,5.1,11.6,6.7c1.2,0.4,2.1,1.4,3.2,2.1c-1.2,0.5-1.8,1.4-1.2,2.6c0.8,1.4,1.7,2.7,2.6,4c0.7,1,1.6,2,2.4,3
	c-2.1-0.4-3.4-2.1-4.9-3.4c-1.2-1-2.4-1.4-3.8-0.4c-1.8-0.5-3.3-1.6-4.7-2.9c0.8-1.4,0.6-2.6-0.9-3.1c-5-1.7-9.3-4.6-13.6-7.7
	c-0.5-0.4-1.1-0.6-1.7-0.8c-2.9-1.1-5.2-3.1-6.8-5.7c2,0.6,3.6,1.9,5.3,3c0.6,0.4,1.3,0.9,2,1.3c0.2,0.1,0.7,0,0.8-0.1
	c0.2-0.1,0.2-0.6,0.1-0.8c-0.7-1.3-1.8-2.2-3-3C124.9,178.3,123.7,177.4,122.9,175.9z"/>
<path fill="#939393" d="M153.5,193.3c0.3,0.3,0.7,0.6,1,0.9C154.2,193.9,153.9,193.6,153.5,193.3z"/>
<path fill="#939393" d="M107.5,167.3c3.6,1.3,6.4,3.6,8.6,6.8C112,173.4,109,171.3,107.5,167.3z"/>
<path fill="#939393" d="M98.9,160.6c1.7,0.5,2.9,1.5,3.8,3C100.9,163.2,99.7,162.1,98.9,160.6z"/>
<path fill="#939393" d="M119,177c1,0.3,1.6,0.9,1.9,1.9C120.3,178.2,119.6,177.6,119,177z"/>
<path fill="#939393" d="M116.1,174.1c0.3,0.3,0.6,0.6,0.9,0.9C116.7,174.7,116.4,174.4,116.1,174.1z"/>
<path fill="#939393" d="M102.7,163.5c0.3,0.3,0.6,0.6,1,0.9C103.3,164.2,103,163.8,102.7,163.5z"/>
<path fill="#939393" d="M103.6,164.5c0.3,0.3,0.7,0.6,1,0.9C104.3,165.1,104,164.8,103.6,164.5z"/>
<path fill="#939393" d="M106.5,166.4c0.3,0.3,0.7,0.6,1,0.9C107.2,167,106.8,166.7,106.5,166.4z"/>
<path fill="#939393" d="M97.9,159.6c0.3,0.3,0.6,0.6,1,1C98.6,160.3,98.2,159.9,97.9,159.6z"/>
<path fill="#939393" d="M105.6,165.5c0.3,0.3,0.6,0.6,0.9,0.9C106.2,166.1,105.9,165.8,105.6,165.5z"/>
<path fill="#939393" d="M96.9,158.7c0.3,0.3,0.7,0.6,1,0.9C97.6,159.3,97.3,159,96.9,158.7z"/>
<path fill="#939393" d="M118,176c0.3,0.3,0.6,0.6,1,0.9C118.7,176.7,118.3,176.3,118,176z"/>
<path fill="#939393" d="M117.1,175.1c0.3,0.3,0.6,0.6,0.9,0.9C117.7,175.7,117.4,175.4,117.1,175.1z"/>
<path fill="#313131" d="M179.6,204.8c-2.3-1.3-4.5-2.5-6.8-3.8c-1.4-1-3.1-1.6-4.6-2.4c-0.4-0.2-0.7-0.5-1.1-0.8
	c-0.3-0.3-0.6-0.7-0.7-1.1c-0.1-0.5-0.1-0.9,0.1-1.4c0.3-0.7,0.8-1.1,1.4-1.4c0.4-0.2,0.8-0.4,1.3-0.5c0.4-0.1,0.9-0.1,1.3,0
	c0.4,0.1,0.8,0.3,1.1,0.5c0.3,0.2,0.7,0.3,1,0.5c0.3,0.2,0.6,0.4,0.9,0.6c0.3,0.2,0.6,0.4,0.9,0.6c0.3,0.2,0.6,0.4,1,0.6
	c0.5,0.3,1,0.6,1.6,0.9c4.6,3.1,9.8,5,14.6,7.6c0.6,0.3,1.2,0.6,1.8,0.8c0.4,0.1,0.8,0.3,1.2,0.4c1.2,0.4,2,1.3,3,2.1
	c0.5,0.4,1,0.7,1.5,1c0.4,0.2,0.8,0.4,1.1,0.6c0.4,0.3,0.7,0.6,0.9,1c0.1,0.2,0.2,0.4,0.3,0.6c0.3,0.4,0.5,0.8,0.6,1.3
	c0,0.5,0,1,0,1.4c-1.1,3.8-3.6,1.9-5.2,0.9c-4.4-2.8-9-5.3-13.4-7.9l0,0c-0.5-0.6-1.4-0.4-1.9-0.9l0,0
	C180.9,205.2,180,205.4,179.6,204.8z"/>
<path fill="#4F4F4F" d="M183.3,206.7c1.2,0.3,2.5,0.4,3.6,1c3.9,2,8.1,3.5,11.6,6.3c0.9,0.7,1.3,0.5,2-1.5c3.2-1.6,3.4,1.6,4.8,2.9
	c0.5,0.4,1,0.7,1.4,1.1c0.5,0.4,0.7,1,0.4,1.6c-0.3,0.6-0.9,0.8-1.5,0.7c-0.7-0.1-1.5-0.4-2.2-0.6c0,0,0,0,0,0c-0.7-1-2.1,0-2.8-1
	C193.9,215.4,188.3,211.4,183.3,206.7z"/>
<path fill="#575757" d="M167.9,197.2c2,0.8,3.8,1.9,4.8,3.8c-0.6-0.1-1.3-0.1-1.9-0.2c-0.8-0.1-1.4-0.4-1.9-0.9l0,0
	C167.9,199.3,166.9,198.6,167.9,197.2z"/>
<path fill="#989898" d="M168.9,199.9c0.6,0.3,1.3,0.6,1.9,0.9c0,0.4,0,0.7,0,1.1C170.2,201.2,169.6,200.6,168.9,199.9z"/>
<path fill="#4F4F4F" d="M179.6,204.8c0.6,0.3,1.2,0.7,1.8,1C180.8,205.4,180.2,205.1,179.6,204.8z"/>
<path fill="#4F4F4F" d="M181.4,205.8c0.6,0.3,1.3,0.6,1.9,0.9C182.7,206.4,182,206.1,181.4,205.8z"/>
<path fill="#5D5D5D" d="M205.4,215.4c-2-0.3-3.2-1.9-4.8-2.9c0,0,0,0,0,0c-0.3-0.3-0.4-0.7-0.4-1.2c0-1,1.6-2.2-0.4-2.9
	c-0.3-0.2-0.7-0.4-1-0.6c-1-0.7-2-1.2-3.1-1.7c-0.4-0.1-0.8-0.3-1.1-0.4c-1-0.3-2-0.6-2.9-1.1c-7.1-4-13.7-8.8-20.6-13
	c-1.5-0.9-3-1.8-4.1-3.2c-0.3-0.3-0.7-0.6-1-0.8c-0.3-0.3-0.7-0.6-1-0.8c-1.6-1.5-3.6-2.3-5.4-3.5c-0.4-0.1-0.8-0.4-1.2-0.6
	c-0.4-0.3-0.6-0.7-0.8-1.1c-0.2-0.4-0.2-0.9-0.2-1.4c0.1-0.4,0.3-0.9,0.6-1.2c0.8-0.5,1.6-0.9,2.4-0.1l0,0c0.5,0.5,1.4,0.4,1.9,0.9
	l0,0c0.5,0.6,1.4,0.4,1.9,1c4.9,3.8,9.8,7.6,15.5,10c0.9-1,0-1.2-0.4-1.5c-2.9-2.2-5.9-4.3-8.7-6.6c-1.6-1.3-2.9-2.8-4.3-4.2
	c0.6-1.2,1.2-0.6,1.6-0.4c1.9,1.1,3.9,2.2,5.7,3.4c1.9,1.2,3.7,2.4,5.8,3.3c2.2,0.9,4.1,2.3,5.9,4c1.2,1.1,2.3,2.2,3.9,2.6
	c1.7-0.7,2.9,0.1,4.5,1c3.3,1.8,6.1,4.5,9.7,5.8c3,1.2,5,3.9,7.8,5.4c1,0.5,3,2.7,0.1,4.1l0,0c-1.6,0-1.6,0-1.1,1.9l0.1,0.1
	c0.4,0.2,0.6,0.5,0.8,0.9c0,0,0.1,0.2,0.1,0.2c-0.1,2-0.7,3.4-3,3.3C206.9,214,205.9,214.1,205.4,215.4z"/>
<path fill="#BEBEBE" d="M201.6,200c-4.2-2.9-8.3-5.8-12.5-8.6c-2.3-3.6-5.6-6.2-9.3-8c-4-2-7.7-4.5-11.4-7
	c-5.2-3.5-10.8-6.1-16.1-9.3c-1-0.6-2-1-3.2-0.5c-1.4,0.5-2.5,0-3.6-0.8c-4.5-3.3-9-6.6-13.5-9.9c-2.5-1.9-5-4-7.9-5.4
	c-1.3-0.6-2.5-1.4-3.6-2.4c-4-3.5-8.5-6.2-13-9c-1.5-0.9-2.9-2-4.3-3c-5.2-3.8-10.3-7.5-16-10.5c-0.5-0.3-1-0.8-1.4-1.2
	c-0.1-0.1,0-0.3,0-0.4c0.1-0.1,0.2-0.3,0.4-0.3c1-0.3,1.9,0.1,2.7,0.6c2.9,1.7,5.9,3.3,8.5,5.3c6.2,4.6,12.7,8.5,19.5,12
	c6.6,1.1,12.1,5,17.7,8.1c2.9,1.6,6.4,2.4,9,4.8c3.3,3.8,7.8,6.1,12,8.5c7.8,4.2,14.7,9.6,21.7,14.8c3.5,2.6,7.8,2.1,11,4.8
	c5.4,5,11.5,9.1,17.7,13.2c0.6,0.4,1.2,0.8,1.8,1.2c0.4,0.3,0.7,0.7,1,1.1c1,1.3,2,2.7,0.5,4.1c-1.3,1.2-2.6,0.3-3.8-0.5
	C204.2,200.9,202.8,200.6,201.6,200z"/>
<path fill="#AAAAAA" d="M142.9,155.9c-2.5-0.6-4.7-1.6-6.8-3.2c-2.1-1.7-4.4-3.1-7.1-3.7c-0.7-0.2-1.5-0.6-2.1-1
	c-2.6-1.5-5.2-3-7.7-4.6c-0.8-0.5-1.4-1.2-2.1-1.9c0.3-0.6,0.6-1.3,1-1.9c4.3-1.2,7.6,1.6,11,3.2c9.4,4.5,18.9,8.6,28.8,12
	c1.8,0.6,4,1.2,4.9,3.3c0.2,2-1.4,2.5-2.7,3.1c-1.4,0.7,0.3,0.5,0.2,0.9c0.9,1.1,1.3,2.3,0.2,3.4c-1.3,1.3-2.2,0-3.3-0.5
	c-3.8-1.9-6.9-5-10.4-7.3C145.5,156.8,144.4,155.9,142.9,155.9z"/>
<path fill="#CDCDCD" d="M160.3,181.6c1.9,1.4,3.8,2.8,5.7,4.2c0.4,0.2,0.7,0.4,1,0.8l0,0c2.3,1.7,1,2.7-0.8,3.1
	c-1.4,0.3-2.8-0.4-4.3-0.3c-0.4-0.1-0.9-0.2-1.2-0.5c-0.5-0.3-1.1-0.6-1.7-0.9c-0.3-0.2-0.7-0.5-1-0.7c-0.7-0.4-1.3-1.1-2-1.6
	c-4.4-2.4-7.6-6.3-11.9-8.8c-9.6-7.2-19.1-14.6-27.7-23.1c-1.6-1.6-3.6-2.5-5.1-4.2c-0.4-0.4-1-0.8-1.4-1.2
	c-0.3-0.2-0.6-0.4-0.9-0.7c-0.3-0.3-0.5-0.6-0.6-1c0-0.2,0-0.4,0-0.6c-1.6-1.9-3.2-3.9-4.8-5.8l0,0c1.6,0.3,2.8,1.4,4,2.5
	c1.7,1.4,3.4,2.8,5.3,4c3,1.8,5.8,3.9,8.5,6.1c1.2,1,2.5,2,3.8,2.9c1.9,1.2,3.5,2.6,4.8,4.5c1.5,2.1,3.4,3.8,5.5,5.2
	c2.2,1.5,4.4,3.1,6.6,4.6c5.3,3.3,11.4,5.3,15.9,9.8l0.2,0c0.4,0.2,0.7,0.6,1.1,0.9l0,0C159.6,181.1,159.9,181.4,160.3,181.6z"/>
<path fill="#C7C7C7" d="M162.2,158.7c-2.3-1.5-4.7-2.5-7.4-3.2c-3.4-0.9-6.6-2.2-9.6-4c-1.8-1.1-3.6-2-5.8-2c-1.2,0-2.1-0.6-3.1-1.1
	c-4.1-2.3-8.1-5-12.6-6.7c-1.9-0.7-3.8-1.5-5.8-2.2c-1.5-1.2-3-2.3-4.5-3.5c0.7-1.1,1.5-0.5,2-0.3c7.7,3.2,15.3,6.4,22.9,9.8
	c3.1,1.4,6.1,2.7,9.3,3.8c4.1,1.4,8.1,3.1,12.1,4.7c1,0.4,1.9,1.2,2.8,1.7c2.3,1.4,4.5,3.1,7.2,3.8c0,0,0,0,0,0
	c0.5,0.6,1.4,0.4,1.9,1c0.3,0.3,0.6,0.6,1,0.9c1.6,1.7,6,2.7,1.7,6c-0.8,0.2-1.5,0.1-2.2-0.2c-0.6-0.4-1.2-0.8-1.8-1.3
	c-1.7-1.2-3.4-2.4-5.2-3.3C163.5,162,161.9,161.1,162.2,158.7z"/>
<path fill="#818181" d="M111.3,148.2c4.3,3.3,8.6,6.6,12.8,9.8c0.6,0.5,1.3,0.9,1.8,1.6c2.5,3.8,6.4,6.1,9.9,8.8
	c3.1,2.4,6.1,5,9.2,7.5c0.2,2.1,3.9,2.1,2.8,4.9c-2.6-0.7-4.2-3-6.6-4c-3.4,0-5.2-2.8-7.7-4.4c-4.4-2.9-8.5-6.1-12.6-9.3
	c-1.2-1.2-2.4-2.2-3.6-3.4c-0.3-0.3-0.5-0.6-0.8-0.9c-0.4-0.4-0.8-0.9-1.2-1.3c-0.2-0.3-0.4-0.6-0.5-1c0-0.4,0-0.7,0.1-1.1
	c0-0.2,0.1-0.4,0.1-0.5c-2.6-2.3-5.2-4.7-7.9-6.9c-1.6-1.3-3.1-2.6-4.4-4.3c0.7-1.1,1.2-0.3,1.6,0c1.2,1,2.3,2.2,4,2.5c0,0,0,0,0,0
	c0.3,0.3,0.7,0.6,1,0.9l0,0C109.9,147.8,110.8,147.5,111.3,148.2z"/>
<path fill="#C9C9C9" d="M121.8,161.7c3.7,3.5,8,6.2,12,9.2c2.5,1.9,5.3,3.5,7.4,5.9c-0.4,0.7-0.7,1.4-1.1,2.1
	c-2.8,0.4-4.6-1.6-6.4-3c-9.8-7.5-19.1-15.6-29.1-22.8c-0.6-0.5-1.3-0.9-1.1-1.9c-0.6-1.2-1.4-2.1-2.4-2.9c-3.1-2.5-6.1-5.1-9.2-7.6
	c-0.2-0.2-0.3-0.5-0.5-0.8c0.3-0.9,1-0.5,1.5-0.3c1.9,0.8,3.6,2,5.1,3.5c2.5,2.5,5.3,4.5,8.4,6.3c1.2,0.7,2.3,1.7,3.4,2.6
	c1.6,1.4,3.3,2.5,5.4,3c0,0,0,0,0,0c0.3,0.3,0.7,0.6,1,1l0,0c0.8,0.5,1.5,1.1,1.9,1.9l0,0C119,159.4,120.4,160.5,121.8,161.7z"/>
<path fill="#666666" d="M103.5,151.1c9.8,6.3,18.4,14.2,27.7,21.2c2.9,2.2,5.9,4.4,8.8,6.5c1.3,2.3,4,3.5,5.7,5.5
	c-0.8,0.6-1.2,0.3-1.5,0c-5.8-3.9-11.8-7.6-17.1-12.3c-1.5-1.4-3.2-2.6-4.9-3.9c-6.5-5.1-13-10.3-19.5-15.4
	c-0.4-0.2-0.8-0.6-1.1-0.9l0,0c-0.2-0.1-0.3-0.3-0.5-0.4c0.1-0.2,0.3-0.3,0.4-0.5C102.3,151.1,102.9,151.1,103.5,151.1z"/>
<path fill="#C1C1C1" d="M173.8,155.8c4.4,2.2,8.8,4.5,13.2,6.7c3.6,1.8,6.9,3.9,9.7,6.8c0.2,0,0.3,0,0.5,0c0.3,0.1,0.6,0.3,0.8,0.5
	c0.1,0.2,0.1,0.3,0.2,0.5c0,0.3-0.2,0.6-0.5,0.8c-4.1-1-7.4-3.6-11-5.5c-4.4-2.3-8.6-4.7-13-7c-0.5-0.6-1.4-0.3-1.9-0.9c0,0,0,0,0,0
	c-2.2-1.1-4.5-2.2-6.7-3.4c-1.1-0.6-2.2-1.2-3.3-1.9c-0.5-0.3-0.9-1-0.4-1.6c0.2-0.3,0.8-0.2,1.3-0.2c0.1,0,0.3,0.1,0.4,0.2
	C166.3,153.3,170,154.6,173.8,155.8z"/>
<path fill="#414141" d="M83.5,114.5c1.3,1.3,2.9,1.7,4.6,2.1c0.5,0.1,1,0.4,0.7,1c-0.2,0.3-0.8,0.5-1.2,0.5
	c-1.7-0.1-3.4-0.4-5.1-0.6c0,0,0,0,0,0c-0.6-0.6-1.4-0.4-2.1-0.8c-2.8-1-5.6-2-8.4-3.1c-0.5-0.6-1.4-0.3-1.9-1l0,0
	c-0.4-0.3-0.7-0.5-1-0.8c0,0,0,0,0,0c-1.2-1-2.5-2-3.7-3c-0.3-0.3-0.7-0.8-0.7-1.1c0.2-0.7,1-0.6,1.6-0.8c3.5,2,6.8,4.3,10.5,5.8
	c0.8,0.9,2.1,0.1,2.9,1l0,0C80.7,114.6,82.4,113.5,83.5,114.5L83.5,114.5z"/>
<path fill="#7B7B7B" d="M158.1,180c-1.3-0.6-2.7-0.9-3.9-1.7c-4.1-2.7-8.4-5-12.1-8.1c0.8-0.4,1.6-0.4,2.2,0.2
	c1.9,1.6,4.1,2.3,6.3,3.4c3.3,1.6,6.4,3.5,9.6,5.2C159.5,179.3,158.8,179.6,158.1,180z"/>
<path fill="#7B7B7B" d="M162.2,179.8c-0.6-0.3-1.3-0.6-1.9-0.9C160.9,179.2,161.6,179.5,162.2,179.8z"/>
<path fill="#7B7B7B" d="M164.1,180.8c-0.6-0.3-1.3-0.7-1.9-1C162.8,180.2,163.5,180.5,164.1,180.8z"/>
<path fill="#6C6C6C" d="M70.1,112.6c0.6,0.3,1.2,0.7,1.9,1C71.4,113.2,70.7,112.9,70.1,112.6z"/>
<path fill="#5D5D5D" d="M80.4,116.6c0.7,0.3,1.4,0.5,2.1,0.8C81.8,117.2,81.1,116.9,80.4,116.6z"/>
<path fill="#939393" d="M82.5,138.6c-0.3-0.3-0.6-0.6-0.9-1C81.9,137.9,82.2,138.2,82.5,138.6z"/>
<path fill="#CDCDCD" d="M103.7,140.5c-0.3-0.3-0.6-0.6-1-1l0,0C103,139.9,103.3,140.2,103.7,140.5
	C103.6,140.5,103.7,140.5,103.7,140.5z"/>
<path fill="#CDCDCD" d="M102.7,139.5C102.7,139.5,102.7,139.5,102.7,139.5C102.7,139.5,102.7,139.5,102.7,139.5z"/>
<path fill="#939393" d="M83.5,139.5c-0.3-0.3-0.6-0.7-1-1C82.8,138.9,83.2,139.2,83.5,139.5z"/>
<path fill="#939393" d="M84.4,140.6c-0.3-0.4-0.6-0.7-0.9-1.1C83.8,139.9,84.1,140.2,84.4,140.6z"/>
<path fill="#666666" d="M100.8,151c0.3,0,0.6,0,1,0c0,0,0,0,0,0C101.4,151.4,101.1,151.4,100.8,151L100.8,151z"/>
<path fill="#6C6C6C" d="M69,111.7c0.3,0.3,0.7,0.6,1,0.8C69.7,112.3,69.4,112,69,111.7z"/>
<path fill="#939393" d="M118.1,171.2c0.3,0.3,0.6,0.6,1,0.9C118.7,171.8,118.4,171.5,118.1,171.2z"/>
<path fill="#939393" d="M120,173.1c0.3,0.3,0.6,0.6,0.9,0.9C120.6,173.7,120.3,173.4,120,173.1z"/>
<path fill="#939393" d="M121,174c0.3,0.3,0.6,0.6,0.9,0.9C121.6,174.7,121.3,174.4,121,174z"/>
<path fill="#939393" d="M119.1,172.1c0.3,0.3,0.6,0.6,0.9,0.9C119.7,172.7,119.4,172.4,119.1,172.1z"/>
<path fill="#9D9D9D" d="M109.4,163.5c0.3,0.3,0.6,0.7,1,1C110,164.2,109.7,163.9,109.4,163.5z"/>
<path fill="#9D9D9D" d="M110.3,164.5c0.3,0.3,0.7,0.6,1,0.9C111,165.1,110.7,164.8,110.3,164.5z"/>
<path fill="#9D9D9D" d="M108.4,162.6c0.3,0.3,0.7,0.6,1,0.9C109.1,163.2,108.7,162.9,108.4,162.6z"/>
<path fill="#939393" d="M121.9,175c0.3,0.3,0.6,0.6,0.9,0.9C122.6,175.6,122.3,175.3,121.9,175z"/>
<path fill="#9B9B9B" d="M131.5,113.5c-0.9,0.1-1.8,0.1-2.7,0.2c-0.9,0.1-1.2,0.8-1.1,1.7c-5-0.7-10.1-1.5-15.1-2.2
	c-6.1-0.9-12.3-1.7-18.4-2.6c-1.3-0.2-2.5-0.5-3.7-0.8c-3.1-0.8-6.2-1.6-9.2-2.4c-0.4-0.1-1-0.4-0.8-0.9c0.1-0.3,0.8-0.4,1.2-0.6
	c0.3-0.1,0.6-0.1,0.9-0.1c0.3,0,0.6,0.1,0.9,0.1c1.2,0.9,2.7-0.1,3.9,0.8c8.6,1.3,17.3,2.7,25.9,4c2.1,1.1,4.3,0.9,6.6,0.9
	C123.8,111.7,127.7,112.3,131.5,113.5z"/>
<path fill="#6C6C6C" d="M87.3,106.8c-1.4,0.1-2.7,0-3.9-0.8C84.8,105.9,86.1,106,87.3,106.8z"/>
<path fill="#5D5D5D" d="M83.5,114.5c-1.4,0.1-2.7-0.1-3.8-1C81,113.6,82.3,113.7,83.5,114.5z"/>
<path fill="#5D5D5D" d="M79.6,113.6c-1.1,0-2-0.3-2.9-1C77.8,112.6,78.8,112.9,79.6,113.6z"/>
<path fill="#A3A3A3" d="M143,131.8c1.1,0,2,0.3,2.9,1C144.8,132.8,143.9,132.5,143,131.8z"/>
<path fill="#A3A3A3" d="M141,131c0.7,0.3,1.3,0.6,2,0.8C142.3,131.5,141.7,131.2,141,131z"/>
<path fill="#A3A3A3" d="M138.2,130c0.7,0.3,1.3,0.5,2,0.8C139.5,130.5,138.8,130.2,138.2,130z"/>
<path fill="#A3A3A3" d="M146.7,132.9c0.7,0.3,1.4,0.5,2.1,0.8C148.1,133.5,147.4,133.2,146.7,132.9z"/>
<path fill="#A3A3A3" d="M149.6,133.9c0.4,0.2,0.8,0.4,1.2,0.6C150.3,134.3,149.9,134.1,149.6,133.9z"/>
<path fill="#ACACAC" d="M206.3,187.6c-0.9,2.6-1.4,2.9-3.4,1.6c-1-0.6-2-1.4-3.2-1.7c-4.8,1.2-7.5-2.5-10.8-4.7
	c-0.4-0.3-0.8-0.5-1.1-0.8c-0.4-0.2-0.8-0.5-1.2-0.7c-2.4-5.4-6.3-9.3-11.6-11.9c-1-0.5-2-1.5-1.2-3c1-0.4,1.5-1.1,0.9-2.1
	c-0.6-0.9-1.2-1.8-1.8-2.6c9.3,3.8,18.2,8.4,26.6,14c1.2,0.8,2.1,1.9,3.1,3c0.6,0.6,0.5,1.5,0.1,2.2c-2.6,1.3-3.5-1.6-5.3-2.3
	c-1.5-0.6-2.4-2.1-3.6-2.6c3.7,2.5,7.3,5.7,11.3,8.5C206,185.1,206.6,186.2,206.3,187.6z"/>
<path fill="#777777" d="M206.3,187.6c-4-3.6-8.3-6.9-12.8-10c-2.2-1.5-4.2-3.5-6.2-5.3c-0.2-0.2-0.3-0.6-0.2-0.9
	c0.2-0.5,0.8-0.5,1.2-0.3c3.1,1.9,6.6,3.3,9.3,5.9c1.5,1.4,3.3,2.5,4.9,3.8c3.2,1.9,6.4,3.9,9.6,5.8c0.4,0.6,0.7,1.2,1.1,1.8
	c-0.3,0.3-0.7,0.6-1,0.9C210.5,187.9,208.5,187.5,206.3,187.6z"/>
<path fill="#9D9D9D" d="M171.8,160.6c-0.6-0.3-1.3-0.6-1.9-1C170.5,160,171.2,160.3,171.8,160.6z"/>
<path fill="#9D9D9D" d="M171.8,157.7c0.6,0.3,1.3,0.6,1.9,0.9C173.1,158.4,172.5,158.1,171.8,157.7z"/>
<path fill="#A3A3A3" d="M165.1,135.7c-1.4,0-2.7-0.1-3.8-1C162.6,134.7,164,134.8,165.1,135.7z"/>
<path fill="#A3A3A3" d="M158.4,133.8c-1.4,0-2.7-0.1-3.8-1C155.9,132.8,157.2,132.9,158.4,133.8z"/>
<path fill="#A3A3A3" d="M179.5,140.4c-1.1,0-2-0.3-2.9-0.9C177.6,139.6,178.6,139.8,179.5,140.4z"/>
<path fill="#A3A3A3" d="M168,136.6c-1.1,0-2-0.3-2.9-0.9C166.1,135.7,167.1,136,168,136.6z"/>
<path fill="#A3A3A3" d="M173.7,138.6c-1.1,0-2-0.3-2.9-1C171.9,137.7,172.9,137.9,173.7,138.6z"/>
<path fill="#A3A3A3" d="M161.3,134.7c-1.1,0-2-0.2-2.9-0.9C159.4,133.8,160.4,134,161.3,134.7z"/>
<path fill="#A3A3A3" d="M175.7,139.4c-0.7-0.3-1.3-0.6-2-0.9C174.4,138.9,175,139.2,175.7,139.4z"/>
<path fill="#A3A3A3" d="M170.8,137.6c-0.6-0.3-1.3-0.6-1.9-0.9C169.5,137,170.2,137.3,170.8,137.6z"/>
<path fill="#A3A3A3" d="M181.4,141.3c-0.6-0.3-1.3-0.6-1.9-0.9C180.1,140.7,180.8,141,181.4,141.3z"/>
<path fill="#575757" d="M147.8,180.8c-0.7-1.4-2-2.4-3.1-3.5c-0.6-0.6-0.3-1.1,0.3-1.4c4.2,2.9,8.3,5.8,12.5,8.6
	c0.4,0.8,1.3,0.5,1.8,1l0,0c0.5,0.6,1.4,0.4,1.9,1l0,0c2.2,1.2,4,2.9,6,4.4c1.3,1,3,2.1,1.7,4.2c-0.6,0.3-1.2,0.6-1.9,0.9
	c-5.4,0.1-8.1-3.7-10.6-7.6l0,0c-0.3-0.3-0.6-0.6-0.9-0.9C152.7,185.6,149.8,183.7,147.8,180.8z"/>
<path fill="#989898" d="M156.4,188.5c3.9,2.1,7,5.3,10.6,7.6c0,0,0,0,0,0c0.3,0.4,0.6,0.7,0.9,1c0,0,0,0,0,0c0.3,0.9,0.7,1.9,1,2.8
	c-4.4-1.1-7.9-3.7-11.1-6.8C156.4,191.9,155.9,190.4,156.4,188.5z"/>
<path fill="#989898" d="M155.5,187.6c0.3,0.3,0.6,0.6,0.9,0.9C156.1,188.2,155.8,187.9,155.5,187.6z"/>
<path fill="#9D9D9D" d="M101.7,152c0.4,0.3,0.7,0.6,1.1,0.9C102.5,152.6,102.1,152.3,101.7,152z"/>
<path fill="#9D9D9D" d="M100.8,151c0.3,0,0.7,0,1,0c0,0.3,0,0.6,0,1C101.4,151.7,101.1,151.4,100.8,151z"/>
<path fill="#A1A1A1" d="M168.9,195.2c-3.1-2.4-5.3-5.6-7.7-8.6c1.5,0.5,3,1.1,4.5,1.5c1.1,0.3,1.4-0.5,1.2-1.4c1.1,0.2,2,0.8,3,1.4
	c4.9,3.2,9.8,6.4,14.6,9.6c2.7,1.9,6,2.8,8.5,5.2c0.7,1,2.1,0.1,2.8,1l0,0c1.5,0.7,2.6,1.9,3.8,2.9l0,0c1,2.5-0.6,2.9-2.3,2.3
	c-1.5-0.5-3-0.7-4.4-1.4l0,0c-0.5-0.6-1.4-0.3-1.9-0.9c-5.4-2.6-10.8-5.2-16.2-7.8c-0.4-0.2-0.8-0.5-1.1-0.8
	c-0.2-0.1-0.5-0.2-0.7-0.3c-0.5-0.1-0.9-0.4-1.2-0.8l0,0c-0.3-0.3-0.6-0.6-1-0.7c-0.3-0.1-0.5-0.2-0.8-0.3
	C169.6,195.9,169.3,195.5,168.9,195.2L168.9,195.2z"/>
<path fill="#7B7B7B" d="M192.9,207.7c1.4,0.2,2.8,0.3,4.1,0.6c1.3,0.2,2.1-0.3,2.5-1.5c2.1,0.7,4.3,0.7,6.2-0.2
	c1.3,1.1,0.9,2.5,1.5,3.6c0.6,1.2-0.1,1.9-1.3,1.5c-1.8-0.7-3.6-1.2-5.4-0.2c-0.3,0.4-0.6,0.4-1,0l0,0c-0.3-0.3-0.6-0.6-1-0.9l0,0
	c-0.4-0.7-1.4-0.4-1.9-1C195.5,209,194,208.7,192.9,207.7z"/>
<path fill="#7B7B7B" d="M191,206.7c0.6,0.3,1.3,0.6,1.9,0.9C192.3,207.3,191.6,207,191,206.7z"/>
<path fill="#4F4F4F" d="M196.8,209.6c0.6,0.3,1.2,0.7,1.9,1C198,210.3,197.4,209.9,196.8,209.6z"/>
<path fill="#575757" d="M173.7,198.2c0.4,0.3,0.7,0.5,1.1,0.8C174.5,198.7,174.1,198.4,173.7,198.2z"/>
<path fill="#4F4F4F" d="M198.7,210.6c0.3,0.3,0.7,0.6,1,0.9C199.3,211.2,199,210.9,198.7,210.6z"/>
<path fill="#575757" d="M171.8,197.1c0.4,0.3,0.8,0.5,1.2,0.8C172.6,197.6,172.2,197.4,171.8,197.1z"/>
<path fill="#575757" d="M170.8,196.4c0.3,0.2,0.7,0.5,1,0.7C171.5,196.9,171.2,196.6,170.8,196.4z"/>
<path fill="#575757" d="M167.9,197.1c-0.3-0.3-0.6-0.7-0.9-1C167.3,196.5,167.6,196.8,167.9,197.1z"/>
<path fill="#575757" d="M168.9,195.2c0.4,0.3,0.7,0.6,1.1,0.8C169.6,195.8,169.3,195.5,168.9,195.2z"/>
<path fill="#7B7B7B" d="M199.6,206.7c-1.7-0.4-2.9-1.5-3.8-2.9C197.8,203.9,198.9,205.1,199.6,206.7z"/>
<path fill="#7B7B7B" d="M195.8,203.9c-1-0.1-2-0.3-2.8-1C194,202.9,195,203.2,195.8,203.9z"/>
<path fill="#A1A1A1" d="M166.9,186.6c-0.3-0.3-0.6-0.5-1-0.8C166.3,186.1,166.6,186.3,166.9,186.6z"/>
<path fill="#7B7B7B" d="M159.3,180.8c-0.4-0.3-0.7-0.6-1.1-0.9C158.6,180.2,159,180.5,159.3,180.8z"/>
<path fill="#7B7B7B" d="M160.3,181.6c-0.3-0.3-0.6-0.5-0.9-0.8C159.6,181,160,181.3,160.3,181.6z"/>
<path fill="#828282" d="M142.9,155.9c1-0.7,2-0.9,3.1-0.1c1.7,1.2,3.2,2.5,4.9,3.7c2.3,1.7,4.6,3.3,6.9,4.9c0.5,0.4,1.2,0.7,1.7,0
	c0.4-0.6,0-1.2-0.2-1.8c0.2-2.7,2-2.2,3.3-1.3c2.8,1.9,6.1,3,8.6,5.5c1.3,3.1,3.8,5,6.6,6.6c3.8,2.1,6.1,6,9.4,8.8
	c0.8,0.6,0.7,1.7,0,2.6c-2.8-1.1-5.3-2.8-8.2-3.8c-1.8-0.6-3.4-1.8-4.8-3.1c-5.8-4.8-12.1-8.7-18.5-12.8
	C151.3,162.2,146.8,159.4,142.9,155.9z"/>
<path fill="#656565" d="M187.2,184.6c-3.6-4.3-7.3-8.4-12.2-11.1c-1.9-1.1-3.7-2.4-5.5-3.8c-0.7-0.5-0.2-1.1,0.4-1.4
	c2.1-1.5,3.6,0.2,5.2,1c5.2,2.7,9,7.4,14,10.6l0,0c0.3,0.3,0.7,0.6,1,0.9c3.2,2.2,6.4,4.5,9.6,6.7c1.1,2.7,2.8,4.8,5,6.6
	c1.2,1,2.3,2,3.5,3.1c-0.3,0.3-0.6,0.6-0.9,0.9c-0.3,0-0.6-0.1-0.9-0.2c-0.4-0.3-0.7-0.6-1.2-0.7c-4.6-2.9-9.2-5.8-13.7-8.8
	C189.8,187.4,188.3,186.3,187.2,184.6z"/>
<path fill="#989898" d="M189.1,179.9c-1.7-0.1-3-1-4.3-1.9c-4.9-3.3-9.6-6.9-14.9-9.7c-2.9-2-5.8-4-8.8-5.9
	c-0.4-0.3-1.2,0.1-1.8,0.1c-1.9-0.5-3.3-1.6-4.4-3.3c-0.1-0.2-0.1-0.6,0-0.8c0.1-0.2,0.5-0.2,0.8-0.2c0.1,0,0.3,0,0.4,0.1
	c1.9,1.9,4,1.2,6,0.3c3.2,1.9,6.4,3.8,9.6,5.7c0.3,0.4,0.7,0.6,1,0.9c0.3,0.3,0.6,0.6,1,0.9c1.5,1.6,3.5,2.6,5.4,3.8
	c2.7,1.6,5.3,3.3,6.7,6.4C186.4,177.8,188,178.8,189.1,179.9z"/>
<path fill="#A1A1A1" d="M161.2,186.6c-0.6-0.3-1.2-0.7-1.9-1C160,185.9,160.6,186.3,161.2,186.6z"/>
<path fill="#A1A1A1" d="M159.3,185.5c-0.7-0.1-1.3-0.4-1.8-1C158.1,184.9,158.7,185.2,159.3,185.5z"/>
<path fill="#9D9D9D" d="M111.3,148.2c-0.6-0.3-1.2-0.7-1.9-1C110,147.5,110.7,147.8,111.3,148.2z"/>
<path fill="#9D9D9D" d="M109.4,147.2c-0.3-0.3-0.7-0.6-1-0.9C108.8,146.6,109.1,146.9,109.4,147.2z"/>
<path fill="#ACACAC" d="M172.8,165.4c-0.3-0.3-0.7-0.6-1-0.9C172.1,164.8,172.5,165.1,172.8,165.4z"/>
<path fill="#9D9D9D" d="M121.8,161.7c-2-0.6-3.3-1.9-3.8-3.9C119.6,158.7,120.9,160,121.8,161.7z"/>
<path fill="#9D9D9D" d="M118,157.8c-0.6-0.6-1.3-1.3-1.9-1.9C117.1,156.2,117.7,156.8,118,157.8z"/>
<path fill="#9D9D9D" d="M116.1,155.8c-0.3-0.3-0.6-0.6-1-1C115.5,155.2,115.8,155.5,116.1,155.8z"/>
<path fill="#989898" d="M190,180.7c-0.3-0.3-0.7-0.6-1-0.9C189.4,180.2,189.7,180.5,190,180.7z"/>
</svg>
