<?xml version="1.0" encoding="utf-8"?>
<!-- Generator: Adobe Illustrator 18.1.1, SVG Export Plug-In . SVG Version: 6.00 Build 0)  -->
<svg version="1.1" id="Layer_1" xmlns="http://www.w3.org/2000/svg" xmlns:xlink="http://www.w3.org/1999/xlink" x="0px" y="0px"
	 viewBox="0 0 128 253.6" enable-background="new 0 0 128 253.6" xml:space="preserve">
<path fill="#474747" d="M58.1,207c0.1-0.9,0.4-1.6,1-2.2C59.1,205.7,58.8,206.4,58.1,207z"/>
<path fill="#474747" d="M59.1,204.9c0.1-0.8,0.4-1.5,1-2C60.1,203.7,59.8,204.4,59.1,204.9z"/>
<path fill="#474747" d="M60,203c0.2-0.4,0.5-0.7,0.7-1.1C60.7,202.4,60.5,202.8,60,203z"/>
<path fill="#2B2B2B" d="M103.3,11.1c-2.4,2.9-5.6,5.2-7.8,8.4c0.5,2.9-1.8,4.8-2.9,7c-2.6,5,1.2,12.3,6.8,12.7
	c2,0.1,3.7,0.5,3.6,2.7c-0.2,4.5,2.8,6.4,6,8.2c3.6,0.1,4.4-2.8,5.3-5.3c3.5-9.6,5.9-19.5,9-29.3c-3-3.7-6.6-6.8-9.3-10.7
	c-0.1-0.1-0.2-0.2-0.3-0.4c-2.4,0.4-4.7,1.1-6.8,2.2C106.8,8.9,104.4,9.7,103.3,11.1z"/>
<path fill="#2B2B2B" d="M124.2,16.6c-0.3-0.3-0.6-0.6-0.9-1C123.6,16,123.9,16.3,124.2,16.6z"/>
<path fill="#2F2F2F" d="M74.3,159.6c0.1-1,0.4-2,1-2.8C75.2,157.8,75,158.8,74.3,159.6z"/>
<path fill="#6B6B6B" d="M71.4,176.9c0.3-0.6,0.6-1.3,0.9-1.9C72,175.6,71.7,176.2,71.4,176.9z"/>
<path fill="#2F2F2F" d="M75.3,156.8c0.3-0.3,0.6-0.6,0.9-1C75.9,156.1,75.6,156.4,75.3,156.8z"/>
<path fill="#2F2F2F" d="M73.4,160.6c0.3-0.3,0.6-0.7,0.9-1C74,160,73.7,160.3,73.4,160.6z"/>
<path fill="#474747" d="M58.9,200.9c0.3-0.7,0.6-1.3,1-2C59.5,199.6,59.2,200.2,58.9,200.9z"/>
<path fill="#474747" d="M58.1,201.9c0.3-0.3,0.6-0.7,0.9-1C58.6,201.2,58.3,201.5,58.1,201.9z"/>
<path fill="#474747" d="M57.1,203.8c0.3-0.4,0.5-0.8,0.8-1.2C57.6,203,57.4,203.4,57.1,203.8z"/>
<path fill="#3D3D3D" d="M76.2,134.7c-3.2,5.1-6.5,10.3-9.7,15.4c-1.5,2.3-2.8,4.7-4.7,6.7c-2.8-1.5-1.5-3.9-1.1-5.9
	c1-5.1,3.9-9.3,6.5-13.6c2.5-4.3,2.4-9.2,3.2-13.8c-0.5-0.8-0.8-1.7-0.5-2.7c2.9-13.6,8-26.2,16.5-37.3c2.2-2.8,3.8-5.8,3.7-9.6
	c0-3.2,2.2-5.8,3.5-9c-3.9,7.8-4.8,16.6-10.1,23.4c-1.1,1.4-1.8,3.7-4.2,2.6c-2.2-1-1.5-3.3-1.2-5.1c1.2-6.6,5.7-11.6,8.2-17.6
	c0.9-2.1,2.2-4.1,1.9-6.3c-0.2-1.6,2.3-3.9-0.7-4.8c-2.7-0.8-5.5-0.9-7.2,2.3c-0.6,1.1-1.1,2.3-1.6,3.5
	c-7.1,17.2-11.9,35.1-17.3,52.9c-0.8,3.4-2.6,6.5-3.9,9.7c-0.7,1.7-1.4,4.1-4.2,3.7c-0.1-1.8,0.3-3.5,0.9-5.2
	c1.4-3.6,2.1-7.4,2.8-11.1c0.3-1.4,0.5-2.8,1.2-4.1c0.6-1.2,0.8-2.4,0.8-3.7c-0.1-2.6,0.8-5,1.7-7.4c1.1-2.8,2-5.7,2.9-8.6
	c1.3-4.1,2.8-8.2,3.9-12.3c1.8-6.6,4.6-12.9,6.5-19.5c1.3-4.7,3.7-8.8,6-13c0.7-1.3,1.7-2.4,2.1-3.8c1.8-6.3,6.2-11,10.1-16.1
	c1.2-1.5,2.2-3.1,3.4-4.7c1,0.5,1.4,1.3,1.1,2.3c-0.8,2.1-1.6,4.2-2.4,6.3c-0.5,1.3-0.6,2.7,0.7,3.4c1.7,0.9,1.8,2.4,1.8,4
	c0,1.1,0.9,1.7,2,1.4c1.2-0.3,2.4-0.8,3.7-1.1c1.2-0.3,2.1,0.2,2.7,1.4c0.8,1.5,0.9,3.1,0.5,4.7c-0.3,1.6,0,2.8,1.5,3.6
	c1.5,0.8,1.7,2.2,1.7,3.7c-0.8,3.1-2.5,5.8-3.8,8.6c0,6.9-5.6,11.7-6.7,18.2c0,0.3,0,0.6,0,0.9c-0.3,0.3-0.6,0.7-0.9,1l0,0
	c-0.1,3.9-2.1,7.1-4,10.4c-4.1,7.3-7.4,14.8-8.7,23.4c-0.6,4-1.9,8.1-2.7,12.3l0,0c-0.3,0.3-0.6,0.6-1,1l0,0
	C79.5,128.3,77.7,131.4,76.2,134.7z"/>
<path fill="#878787" d="M8,246c2.2-5,4.6-9.9,6.5-15c3.6-9.6,7.8-18.9,11.9-28.3c2.4-5.4,4.6-10.9,6.8-16.4c1.7-4,3.2-8,5-11.9
	c2.9-6.3,4.8-12.9,6.5-19.5l-0.1,0c0.8-0.8-0.1-2.3,1.1-2.9c0.9-2.5,1.9-5,2.8-7.6c0.6-1.6,1.2-3.3,1.8-4.9c2.9-1.5,3.7,0.6,4,2.7
	c0.4,2.5,0.9,4.9,2.7,6.9c1.1,1.3,1.1,2.9,0.4,4.5c-0.8,1.7-0.5,3.4-0.3,5.1c-3.7,7.3-6.1,15.2-10.6,22.1
	c-7.9,14.8-15.5,29.7-22.7,44.9c-3.5,7.3-7.3,14.6-10.1,22.2c-0.5,0.4-0.9,0.9-1.4,1.3c-2.3,1.7-3.3,1.4-5.3-1.2l0,0
	C7.8,247.5,7.5,246.5,8,246z"/>
<path fill="#737373" d="M55.1,158.7c0.2-1.9,0.4-3.8,0.7-5.6c0.2-1.3-0.2-2-1.6-2.5c-2.4-0.8-2.4-0.9-2.2-3.3
	c0.1-1.6,0.2-3.1,0.2-4.7c0-1.4-0.6-2.4-1.8-3.1c0-1.4,0.5-2.6,1-3.8c0.9-0.8,0.1-2.1,0.9-2.9l0,0c1.1-1.1-0.1-2.7,1-3.8l0,0
	c2.7-2.6,3.5-6.3,5.1-9.5c0.6-1.3,1.1-2.6,1.6-3.9c1.7-5.3,3.2-10.6,4.5-15.9c0.4-1.4,0-4.7,3.1-3.7c2.8,0.9,2.5,3.5,1.6,5.6
	c-2.7,6.4-4.4,13.1-7.1,19.5c-0.3,0.8-0.6,1.6-0.6,1.9c1.2-2.7,1.6-6.4,3.9-9.3c3.5-1,3.9,0.9,3.1,3.6c-0.9,3.4-2.1,6.7-2.2,10.2
	c0,0.4-0.1,0.9-0.1,1.4c-0.1,0.4-0.2,0.8-0.4,1.2c-0.2,0.4-0.4,0.7-0.5,1.1c-0.2,0.5-0.5,1-0.7,1.5c-0.1,0.3-0.2,0.7-0.3,1
	c-0.1,0.5-0.2,1-0.2,1.5c0.2,0.3,0.3,0.7,0.5,1c0.3,0.6,0.7,1.3,0.5,1.8c-1.6,6.8-3.8,13.4-6.3,19.8
	C58.1,159.1,56.7,159.7,55.1,158.7z"/>
<path fill="#3D3D3D" d="M53.2,128.9c0,1.4-0.2,2.7-1,3.8C52.2,131.4,52.4,130.1,53.2,128.9z"/>
<path fill="#3D3D3D" d="M52.2,132.7c0,1.1-0.3,2-0.9,2.9C51.3,134.6,51.6,133.6,52.2,132.7z"/>
<path fill="#1D1D1D" d="M45.7,152c-0.1,1.1-0.4,2.1-1.1,2.9C44.6,153.8,44.9,152.8,45.7,152z"/>
<path fill="#2B2B2B" d="M81,3.1c0.6-0.3,1.3-0.6,1.9-1C82.3,2.5,81.6,2.8,81,3.1z"/>
<path fill="#2B2B2B" d="M82.9,2.2c0.3-0.3,0.7-0.6,1-0.9C83.6,1.6,83.3,1.9,82.9,2.2z"/>
<path fill="#2B2B2B" d="M85.8,0.3c0.3-0.3,0.7-0.6,1-0.9C86.5-0.3,86.1,0,85.8,0.3z"/>
<path fill="#2B2B2B" d="M83.9,1.2c0.3-0.3,0.6-0.6,1-0.9C84.6,0.6,84.2,0.9,83.9,1.2z"/>
<path fill="#737373" d="M29.2,143.3c0.3-0.3,0.6-0.7,0.9-1C29.8,142.7,29.5,143,29.2,143.3z"/>
<path fill="#737373" d="M30.2,142.4c0.3-0.3,0.6-0.6,0.9-1C30.7,141.7,30.4,142,30.2,142.4z"/>
<path fill="#636363" d="M55.1,158.7c2.2-1.5,2.9-4.1,4.4-6c0.5-0.6,0.6-1.5,0.2-2.2c-0.8-1.8-0.2-3.4,0.6-5c0.9-1.9,1.7-3.7,2.5-5.6
	c0.5-1.2,0.2-1.5-1.4-1.3c-0.4,0.1-1,0.3-1.3,0.1c-0.7-0.5-0.3-1.1,0.1-1.7c0.5-0.8,1.1-1.5,1.7-2.3c1.8-1,2.4-2.8,3.3-4.5
	c0.2-0.3,0.4-0.7,0.7-1.1c0.2-0.4,0.4-0.7,0.6-1.1c0.1-0.2,0.2-0.3,0.4-0.5c0.2-0.3,0.5-0.7,0.7-1c1.4-1.7,2.6-3.7,4.9-4.4
	c0.5-0.6,1.1-1.1,1.7-1.6c0.1-0.1,0.7,0.3,0.7,0.4c-0.1,0.6-0.3,1.2-0.6,1.8c-0.9,1.9-1.9,3.7-2.8,5.5c-0.5,1-0.3,1.7,1,2.2
	c1.4,0.5,1.5,0.9,0.8,2c-2.1,3.4-4.3,6.7-6.3,10.1c-1,1.6-1.8,3.4-2.8,5c-1.7,2.8-2.4,5.9-2.2,9.2c-3.8,5.3-7,11-10.3,16.6
	c-1.5,2.6-3.1,5.2-5.1,7.4c0-2.2,1.3-3.9,2.5-5.6c1.1-1.6,1.8-3.3,1.6-5.3c-0.1-0.9-0.1-2,0.3-2.8C52.4,164.4,53.1,161.2,55.1,158.7
	z"/>
<path fill="#272727" d="M82,124.1c-0.1-1.5-0.6-2.8-1.8-3.7c-2-1.6-1.5-2.9-0.3-4.5c0.4-0.5,0.8-1,1.2-1.5c1.2-1.4,1.7-3,1.3-4.9
	c-0.4-1.8,0.1-3.4,0.8-5.1c1.5-3.1,3-6.3,4.3-9.6c2.4-6.2,6-11.6,9.8-16.8c2.8,3.8,2.7,3.8,0.3,7.7c-1.9,3.1-3.7,6.3-5.7,9.4
	c-1,1.7-1.3,3.2,0,4.8c1,1.2,0.6,2.4-0.4,3.4c-0.4,0.5-0.9,0.9-1.3,1.4c-1.9,1.7-3.1,3.3-2.2,6.2c0.6,2-0.2,4.1-1.3,5.9
	C85.2,119.4,83.6,121.7,82,124.1z"/>
<path fill="#272727" d="M98.3,76.1c-0.1-0.1-0.1-0.3-0.2-0.4c-2.6-2.3-2.6-2.3-1.1-4.9c2.7-4.3,5.3-8.6,8-13
	c0.1,0.8,0.1,1.6,0.4,2.4c0.7,2.3,0.4,4.6-0.6,6.6C103.2,70.2,101.5,73.7,98.3,76.1z"/>
<path fill="#272727" d="M76.2,134.7c0.7-3.7,2.4-6.8,4.8-9.6C80.4,128.8,78.6,131.9,76.2,134.7z"/>
<path fill="#3B3B3B" d="M45.5,188.4c-0.3,0.6-0.6,1.3-1,1.9C44.9,189.7,45.2,189.1,45.5,188.4z"/>
<path fill="#3B3B3B" d="M47.5,184.6c-0.3,0.6-0.6,1.3-1,1.9C46.8,185.9,47.1,185.3,47.5,184.6z"/>
<path fill="#3B3B3B" d="M46.5,186.5c-0.3,0.6-0.6,1.3-1,1.9C45.8,187.8,46.2,187.2,46.5,186.5z"/>
<path fill="#3B3B3B" d="M54.2,195.2c0.3-0.6,0.7-1.3,1-1.9C54.8,193.9,54.5,194.5,54.2,195.2z"/>
<path fill="#3B3B3B" d="M44.6,190.4c-0.3,0.6-0.6,1.3-1,1.9C43.9,191.6,44.2,191,44.6,190.4z"/>
<path fill="#6B6B6B" d="M67.5,174.9c-0.1,0.8-0.4,1.4-1,2C66.7,176.1,67,175.5,67.5,174.9z"/>
<path fill="#3B3B3B" d="M51.3,200.9c0.3-0.6,0.6-1.3,1-1.9C51.9,199.6,51.6,200.3,51.3,200.9z"/>
<path fill="#3B3B3B" d="M52.2,199c0.3-0.6,0.6-1.3,1-1.9C52.9,197.7,52.6,198.4,52.2,199z"/>
<path fill="#3B3B3B" d="M48.4,183.6c-0.3,0.3-0.6,0.7-0.9,1C47.8,184.3,48.1,183.9,48.4,183.6z"/>
<path fill="#3B3B3B" d="M49.4,203.8c0.3-0.3,0.6-0.7,0.9-1C50,203.2,49.7,203.5,49.4,203.8z"/>
<path fill="#3B3B3B" d="M53.2,197.1c0.3-0.3,0.6-0.7,0.9-1C53.8,196.4,53.5,196.8,53.2,197.1z"/>
<path fill="#3B3B3B" d="M50.3,201.9c0.3-0.3,0.6-0.7,0.9-1C51,201.3,50.7,201.6,50.3,201.9z"/>
<path fill="#272727" d="M97.4,78c0.3-0.3,0.6-0.7,0.9-1C98,77.4,97.7,77.7,97.4,78z"/>
<path fill="#272727" d="M81,125.1c0.3-0.3,0.6-0.6,1-1C81.7,124.4,81.4,124.8,81,125.1z"/>
<path fill="#343434" d="M61.8,161.6c-0.3,0.3-0.6,0.7-0.9,1C61.2,162.2,61.5,161.9,61.8,161.6z"/>
<path fill="#343434" d="M62.8,160.6c-0.3,0.3-0.6,0.7-0.9,1C62.1,161.2,62.5,160.9,62.8,160.6z"/>
<path fill="#404040" d="M8,246c-0.3,0.6-0.6,1.2-0.9,1.8C7.4,247.3,7.7,246.6,8,246z"/>
<path fill="#404040" d="M7.1,231.6c0.3-0.6,0.6-1.3,0.9-1.9C7.7,230.3,7.4,231,7.1,231.6z"/>
<path fill="#2E2E2E" d="M15.8,193.2c-0.3,0.6-0.6,1.3-1,1.9C15.1,194.5,15.4,193.9,15.8,193.2z"/>
<path fill="#2E2E2E" d="M14.8,195.2c-0.3,0.6-0.6,1.3-1,1.9C14.2,196.4,14.5,195.8,14.8,195.2z"/>
<path fill="#585858" d="M65.7,114.5c-1.3,4.6-3.1,9-5.3,13.3c-0.6,1.1-1.1,2.3-2.3,3c-0.2,0.1-0.7,0.2-0.9,0.1
	c-0.2-0.1-0.5-0.5-0.4-0.7c0.2-0.9,0.3-1.9,0.8-2.7c2.9-4.7,4-10,5.9-15.1c1.4-3.7,2.4-7.6,3.5-11.4c0.2-0.6,0.3-1.2,0.4-1.9
	c0-0.6,0-1.3-0.8-1.5c-0.5-0.1-0.9,0.4-1,0.8c-0.3,0.7-0.5,1.5-0.7,2.3c-1,3.5-2,7-2.9,10.6c-0.4,1.6-0.9,3.1-2,4.2
	c0-1.6,0.3-3.2,0.8-4.7c2.4-7.9,4.3-16,7.3-23.7c0.2-0.6,0.4-1.2,0.4-1.8c0.1-3.1,1.5-5.8,2.4-8.7c1.6-5.2,4.5-9.8,6.4-14.9
	c1-1.1,1.6-3.2,3.6-2.3c2.2,1,1.2,2.7,0.8,4.4c-0.4,1.4-1,2.6-1.2,3.8c0.7-2.4,1.7-5.1,2.8-7.6c0.5-1.1,0.9-2.5,2.3-2.8
	c1.2-0.3,2-2,3.4-1c1.2,0.9,0.7,2.2,0.5,3.5c-1.1,5.8-3.8,11.1-6.1,16.4c-2.8,6.4-5.1,12.8-5.5,19.8c-0.2,3.6-1.9,6.7-3.9,9.6
	C69.6,107.1,69.3,112.3,65.7,114.5z"/>
<path fill="#4A4A4A" d="M72.4,104c1.9-2.1,2.9-4.6,2.9-7.4c0-2,0.5-3.8,1.5-5.5c0.3-0.4,0.6-0.8,0.6-1.3c0.8-5.9,4.7-10.8,5.7-16.6
	c0.1-0.6,0.3-1.3,0.7-1.8c2.4-3.7,2.8-8.1,4.5-12c0.2-0.4,0.1-0.9,0.1-1.4c0-0.2-0.3-0.6-0.6-0.6c-0.3-0.1-0.6,0.1-0.8,0.3
	c-0.2,0.2-0.5,0.5-0.6,0.7c-1.5,2.8-2.9,5.7-4.3,8.5c-1,2-2,4-3.1,5.9c-0.3,0.5-0.8,0.9-1.3,1.3c-0.2,0.1-0.7,0.1-0.9,0
	c-0.2-0.1-0.5-0.5-0.5-0.7c-0.1-1.4,0.7-2.4,1.4-3.5c1.5-2.3,2.3-4.9,2.8-7.6c0.1-0.6,0.2-1.4-0.6-1.6c-0.4-0.1-0.9,0.1-1.3,0.3
	c-0.4,0.2-0.8,0.5-1.2,0.7c0.5-1.2,0.8-2.5,1.5-3.5c1.9-2.6,3.8-5.1,4.8-8.2c0.3-0.8,1.1-1.2,2-0.8c0.8,0.4,0.9,1.2,0.9,2
	c0,1.3-2.1,2.7-0.2,3.7c1.3,0.6,1.8-1.5,2.7-2.3c0.4-0.3,0.7-0.7,1-1c0.5-0.4,1.2-0.6,1.8-0.2c0.6,0.4,0.8,1.1,0.7,1.7
	c-0.1,0.8-0.3,1.6-0.7,2.3c-0.9,1.9-1.4,3.9-1.8,6c-0.5,3.4-1.8,6.4-3.3,9.5c-2.4,5.2-4.7,10.4-7,15.7c-0.2,0.4-0.2,0.9-0.2,1.4
	c0,0.5,0.1,1,0.6,1.1c0.2,0.1,0.7-0.1,0.8-0.3c0.6-0.9,1.2-1.9,1.7-2.9c2.4-5.1,4.6-10.2,7-15.2c1.8-3.7,3.7-7.4,5.6-11.1
	c0.2-0.3,0.8-0.7,1.1-0.6c0.8,0.1,0.8,0.8,0.7,1.5c-0.1,0.6-0.3,1.2-0.5,1.8c-0.4,0.9-0.8,1.7-1.3,2.6c-0.8,1.6-1.6,3.1-2.3,4.7
	c-0.7,1.6-1.2,3.3-0.3,5.1c0.8,1.6,0.2,3.1-0.5,4.5c-1.7,3.3-4.1,6.1-6.3,9c-5.4,7.1-8.8,15.2-11.9,23.4c-0.2,0.6-0.4,1.2-0.4,1.9
	c0,2.4-0.5,4.7-1.8,6.8c-0.5,0.8-0.1,1.5,0.7,2c-1.3,1.9-2.6,3.8-3.8,5.8c-0.3,0.3-0.6,0.6-1,1l0,0c-0.3,0.3-0.7,0.6-1,1l0,0
	c-0.7,0.4-1.1,0-1.4-0.5c0-0.4,0-0.8,0-1.2c0.2-0.6,0.4-1.1,0.4-1.7c0-0.4,0.1-0.8,0.2-1.1c0.1-0.4,0.2-0.7,0.3-1.1
	c0.1-0.4,0.3-0.7,0.5-1c0.4-0.7,0.4-1.5,0.4-2.3c0-0.6,0.2-1.2,0.4-1.7c0.1-0.4,0.3-0.8,0.4-1.2c0.1-0.4,0.3-0.8,0.5-1.1
	c1.5-2.2,0.2-4.7,0.6-6.9c0.1-0.4,0.2-0.8,0.4-1.3c0.5-1,1-2,1.1-3.1C70.8,104.7,71.4,104,72.4,104z"/>
<path fill="#636363" d="M72.4,104c-0.3,0.6-0.7,1.3-1,1.9c-0.9,0.8,0,2.1-0.9,2.9c0,0.3,0,0.6,0,1c-1.1,2.8,0.4,5.9-1,8.6l0,0
	c-0.3,0.3-0.6,0.7-1,1c0,0.6,0,1.3,0,1.9c0.6,1.3-0.5,2-0.9,2.9c0,0.3,0,0.6,0,0.9c-0.3,0.3-0.6,0.7-0.9,1c-0.6,0.5-0.4,1.4-1,1.9
	c0,0.3,0,0.6-0.1,0.9c-0.3,0.3-0.6,0.3-0.9,0c-0.2-4,0.9-7.7,2-11.4c0.2-0.7,0.4-1.5,0.4-2.3c-0.1-0.8-0.8-0.8-1.4-0.7
	c1.4-3.3,2.8-6.7,4.2-10c0.2-0.4,0.4-0.9,0.7-1.2C71.5,102.6,72,103.2,72.4,104z"/>
<path fill="#585858" d="M64.7,128.9c0.3,0,0.6,0,0.9,0c0.3,0.3,0.7,0.7,1,1c-1.1,1.7-2.2,3.5-3.4,5.2c-0.5,0.7-1.1,0.2-1.4-0.4
	c0-0.3,0-0.6,0-0.9c0.3-0.3,0.6-0.7,0.9-1c0-0.3,0-0.6,0-1c0.3-0.3,0.6-0.7,0.9-1c0-0.3,0-0.6,0-1C64.1,129.6,64.4,129.2,64.7,128.9
	L64.7,128.9z"/>
<path fill="#636363" d="M62.8,132.8c-0.3,0.3-0.6,0.6-0.9,1C62.2,133.4,62.5,133.1,62.8,132.8z"/>
<path fill="#636363" d="M64.7,128.9c-0.3,0.3-0.6,0.6-0.9,1C64.1,129.6,64.4,129.2,64.7,128.9z"/>
<path fill="#636363" d="M63.8,130.8c-0.3,0.3-0.6,0.6-0.9,1C63.1,131.5,63.4,131.2,63.8,130.8z"/>
<path fill="#585858" d="M67.6,128.9c0.3-0.3,0.6-0.6,1-1C68.2,128.3,67.9,128.6,67.6,128.9z"/>
<path fill="#585858" d="M66.6,129.9c0.3-0.3,0.6-0.6,1-1C67.3,129.2,67,129.6,66.6,129.9z"/>
<path fill="#585858" d="M69.5,118.4c-0.5-3-0.8-5.9,1-8.6C71,112.7,71.7,115.7,69.5,118.4z"/>
<path fill="#585858" d="M67.6,124.1c0.3-1,0.6-1.9,0.9-2.9C69.4,122.6,68.6,123.4,67.6,124.1z"/>
<path fill="#585858" d="M70.5,108.8c0.1-1,0.3-2,0.9-2.9C71.4,106.9,71.1,107.9,70.5,108.8z"/>
<path fill="#585858" d="M65.7,128c0.3-0.6,0.6-1.3,1-1.9C66.3,126.7,66,127.3,65.7,128z"/>
<path fill="#585858" d="M66.6,126c0.3-0.3,0.6-0.6,0.9-1C67.3,125.4,67,125.7,66.6,126z"/>
<path fill="#585858" d="M68.6,119.3c0.3-0.3,0.6-0.6,1-1C69.2,118.7,68.9,119,68.6,119.3z"/>
</svg>
