<?xml version="1.0" encoding="utf-8"?>
<!-- Generator: Adobe Illustrator 18.1.1, SVG Export Plug-In . SVG Version: 6.00 Build 0)  -->
<svg version="1.1" id="Layer_1" xmlns="http://www.w3.org/2000/svg" xmlns:xlink="http://www.w3.org/1999/xlink" x="0px" y="0px"
	 viewBox="0 0 114.6 404.6" enable-background="new 0 0 114.6 404.6" xml:space="preserve">
<path fill="#575757" d="M6.7,48.1c-0.1-0.9-0.1-1.8-0.2-2.7c-0.1-0.9-0.7-1.2-1.6-1.1c0-2.4-0.1-4.8-0.1-7.2c0-1.1,0.2-2.2,0.6-3.3
	c0.6-1.8,1.3-2.4,3.5-2.2c1.4,0.1,2.2-0.3,2.4-1.6c0.3-1.6,0.5-3.1,2.1-4.1c0.9-0.5,0.9-1.6,0.9-2.6c0.1-2.2,0-4.5,0.1-6.7
	c0.1-2.1,1-2.9,3.3-3.5C20,12.7,21,13,22.2,15c0.6,0.9,1,2,1.6,2.9c0.3,0.5,0.7,1.2,1.5,0.9c0.6-0.3,0.6-1.1,0.5-1.7
	c-0.3-2.9-1.1-5.6-2-8.3c-0.5-1.6-1-3.3-1.2-5c1.8,1.3,1.9,3.5,3.2,5.1l0,0c1.2,1.9,3.7,3,3.7,5.7c-0.8,5.5,0.9,10.7,1.6,16
	c0.3,2.1,1.1,4.2-1.1,5.7c-2.2,1.5-3.9,0.1-5.6-1.1c-1.3-0.9-2.7-2.1-4.3-1c-1.6,1-1.3,2.8-1.2,4.4c0.1,0.6,0.2,1.3,0.2,1.9
	c0,2.1,0.4,4.7-2.2,5.2c-3.3,0.6-3-2.5-3.6-4.5c1.4,5.1,1.6,10.3,1.2,15.6c-0.2,2-0.7,3.8-2.8,4.6c-2.9,1.1-4.4,0.1-4.7-3.1
	C6.9,54.7,7.7,51.4,6.7,48.1z"/>
<path fill="#A9A9A9" d="M87.3,401.4c0.6-0.5,1.2-0.8,2-0.9c-0.3,0.3-0.6,0.7-0.9,1C88,401.4,87.6,401.4,87.3,401.4z"/>
<path fill="#444444" d="M6.7,48.1c1,1.7,0.9,3.7,0.9,5.6c0.1,1.7-0.3,3.5,0.4,5.1c0.7,0.5,1.3,0.3,1.9,0.2c2.1-0.5,2.4-0.7,2.5-2.8
	c0.1-4.9,0-9.9,0-14.8c0-1.8-0.2-3.7,0.3-6c1.1,1.6,1.2,3,1.6,4.3c0.4,1.2,0.8,2.4,1.3,3.6c0.1,0.2,0.5,0.4,0.7,0.4
	c0.2,0,0.5-0.3,0.6-0.6c0.3-1.3,0-2.5-0.3-3.8c-0.5-2.5-0.5-5.1-0.3-7.6c0.1-1.4,0.8-2,2.1-2c2.1-0.1,4.1,0.1,5.7,1.9
	c1.1,1.2,2.4,2.1,3.7,2.9c0.6,0.4,1.3-0.1,1.5-0.7c0.5-1.6,0.3-3.2,0-4.7c-0.7-3.1-0.8-6.3-2-9.4c-0.6-1.7-0.7-3.4,0.3-5.1
	c0.5,0,1,0.1,1.5,0.3c1,0.5,1.3,1.5,1.5,2.4c2.3,6.5,3.4,13.3,4.1,20.2c-1.1,2.5-0.6,5,0,7.4c1.5,5.6,2.1,11.4,2.7,17.1
	c-2.2,6.3,0.1,12.4,0.5,18.7c0.1,2.2,0.3,4.3-2.4,4.8c-2.5,0.5-3.8-1.1-4.3-3.4c-0.4-1.8-0.9-3.4-3.3-3.3c-2.6,0.1-4.8,0.6-5.8,3.3
	C21.4,85,21,88,21.2,91c0.1,1.3,0.3,2.5,0.3,3.8c0,1.3,0.1,2.7-1.3,3.4c-1.5,0.7-2.5-0.2-3.2-1.1c-0.1,3.7-0.3,7.6,0.5,11.5
	c0.3,1.7-0.5,3.3-2.5,3.4c-2.2,0.2-3.1-1.2-3.1-3.2c0-2.4,0.1-4.9-0.2-7.3c-0.2,1.5,0.8,3.4-1.3,4.3C9.2,101.9,9,98,8.6,94
	c-0.8-7.3-0.4-14.7-1.2-22C6.6,64,6.9,56.1,6.7,48.1z"/>
<path fill="#6B6B6B" d="M43.9,250.8c-0.3-0.5-0.7-1.1-0.9-1.6c-3-7.2-6.1-14.3-9-21.5c-2-4.9-3.7-9.8-5.5-14.7
	c-1-2.7-1.9-5.4-1.8-8.3c1.2-2.1,2.1-4.6,5.3-3.4c0.6,0.4,0.8,1,1,1.7c0.3,0.9,0.7,1.7,0.8,2.6c0.1,0.4,0.1,0.9,0.1,1.3
	c0.1,0.9,0.2,1.9,0.8,3.6c0.2-2.9,0.1-4.9,0.1-7c0-2.5,0.9-3.9,3.6-3.6c3.5,1.5,2.4,5,3.2,7.5c-0.8-4.7-1.4-9.6-1.9-14.5
	c-0.3-2.4,0-4.2,2.9-4.2c2.7,0.9,2.9,3.5,3.6,5.7c1.5,4.7,1.6,9.7,3.1,14.4c0.1,0.5,0.3,0.9,0.6,1.3c0.3,0.4,0.5,0.7,0.8,1.1
	c3.7,2.5,5,6.1,5.3,10.4c0.1,0.4,0.2,0.9,0.3,1.3c0.2,1.1,0.6,2.2,0.8,3.4c1.3,3.1,1.9,6.4,2.5,9.7c0.1,2.2-0.8,4.1-3.1,3.9
	c-4.1-0.3-2.5-4.6-4.2-6.7c-0.5,4.7,0.7,9.2,1.3,13.8c0.2,1.4,0.5,2.9,0.1,4.3c-0.8,3.3-3.7,4.2-6,1.8c-0.8-0.8-1.3-1.7-2.5-2
	C44.8,250.9,44.4,250.8,43.9,250.8z"/>
<path fill="#565656" d="M10.5,105.8c0.3-3.7-0.1-7.3-0.7-11c-0.1-0.5,0.2-1,0.8-0.9c0.2,0,0.6,0.3,0.7,0.5c1.4,3.6,2,7.4,2.2,11.2
	c0.1,1.4-0.2,2.9,0.7,4.2c0.2,0.2,0.5,0.4,0.8,0.4c0.3,0,0.7-0.2,0.8-0.5c0.2-0.4,0.3-0.9,0.2-1.4c-1.1-5.9-0.2-11.8-0.7-17.7
	c0-0.5,0.2-1.1,0.8-1c0.4,0,0.9,0.5,1,0.8c0.6,1.8,1.1,3.7,1.6,5.5c0.1,0.2,0.5,0.5,0.7,0.4c0.2,0,0.6-0.4,0.6-0.6
	c0-1.1,0-2.2-0.2-3.3c-0.5-2.2-0.5-4.4-0.5-6.7c0-2.3,0.2-4.4,1.6-6.4c0.5-0.7,0.8-1.7,1.1-2.6c0.4-1.1-0.4-2.9,1.1-3.3
	c1.2-0.3,1.3,1.6,2.1,2.3c0.9,0.8,2.1,0.9,3,0c0.7-0.7,1.2-1.5,1.8-2.2c0.6-0.6,1.3-0.3,1.5,0.3c0.7,1.8,1.3,3.6,1.8,5.4
	c0.3,0.9,0.3,1.9,0.5,2.8c0.1,0.6,0.5,1.3,1.2,1.3c1,0,1.3-0.9,1.3-1.7c0-1.9,0-3.8-0.2-5.7c-0.4-3-0.9-6-1.4-9
	c-0.2-1.1-0.2-2.2-0.1-3.3c0.1-0.9,0.8-1.3,1.7-1.2c2.2,1.9,2.1,4.8,2.8,7.3c1.3,5,2.3,10,2.5,15.2c-0.3,1.9-0.8,3.8-0.7,5.8
	c0.1,1.9,0.9,3.6,0.7,5.5c0,0.5,0,0.9,0,1.4c-0.4,5.8-2.7,6.4-9.1,2.5c-0.5,0.9,0.2,1.8,0.1,2.8c-0.2,1.8-0.7,3.2-2.6,3.4
	c-1.9,0.2-3-0.8-3.2-2.7c-0.2-1.3-0.8-2.4-1.4-3.5c-0.3-0.5-0.8-1-1.5-1.2c-0.7,3.3-0.5,6.6,0,9.9c0.3,1.8,1.3,4.2-1.4,4.8
	c-3,0.6-3.3-2-3.7-4.2c-0.1-0.5,0.2-0.9-0.3-1.5c1.9,6.9,1.6,13.8,2.1,20.7c0.1,1.7,0.5,4-1.9,4.2c-2.7,0.2-2.6-2.1-2.9-4
	c-0.4-2.4-0.2-5.1-2.4-6.9c-2.1-4.2-2.1-8.9-2.8-13.4C10.4,107.7,10.5,106.7,10.5,105.8z"/>
<path fill="#DDDDDD" d="M74.9,343.7c-2-6.3-3.9-12.6-5.9-19c-0.5-1.4-1-2.9,0.9-3.6c1.7-0.6,2.6,0.7,3.3,2c1.9,3.4,2.9,7,3.7,10.8
	c1.1,5.3,3.6,10.2,4.8,15.5c-1.5-6.8-5.1-13-5.3-20.2c0-2-0.8-3.9,1.3-5c2.1-1.2,3.2,0.6,4.2,2c0.6,0.8,1.5,1.1,2.3,1.6
	c3,3.2,4.9,7.1,5.2,11.5c0.7,9.3,4.2,17.9,5.8,27c1,5.6,3.2,10.7,5.1,15.9c0.6,1.7,2.3,2.1,3.6,2.9c0.1,0.1,0.3,0.2,0.3,0.3
	c3.3,8.2,3.3,8.2-4.9,10.8c-1.3,0.4-2.7,0.9-4,1.4c-0.5,0.1-1,0.1-1.6,0c-0.5-0.1-1-0.3-1.4-0.6c-0.4-0.3-0.7-0.8-0.9-1.2
	c-0.9-1.6-0.7-3.4-0.8-5.1c0-4.2-1.7-8.1-2.3-12.2c-0.4-2.3-2.6-2.8-4-4.1c-3-6.7-4.7-13.9-7.4-20.7c-0.6-0.9-0.8-2-1.2-3
	c-0.1-0.4-0.2-0.8-0.3-1.2c-0.1-0.8,0.2-1.6,0.1-2.4c-0.1-0.4-0.1-0.8-0.2-1.2C75.3,345.2,75.4,344.4,74.9,343.7z"/>
<path fill="#8F8F8F" d="M54.7,222.8c0-0.3,0-0.6,0-1c-0.6-1.2-1-2.6,0.6-3.1c1.6-0.5,2.8,0.5,3.3,2.1c0.8,2.7,1.9,5.5,2,8.3
	c0.2,2.7,1.7,3.6,4,4c2.3,4.5,2.1,9.5,2.6,14.3c0.8,8.4,4.8,15.8,6,24c0.8,5.5,2.6,10.8,2.2,16.5c-0.1,1.6,0.2,3.7-1.7,4
	c-2.2,0.4-2.6-1.8-3.3-3.4c-0.6-1.5-0.7-3.1-1-4.6c-0.2-0.8-0.6-1.6-0.7-2.5c0,0.6,0.3,1.2,0.5,1.8c0.1,0.4,0.3,0.8,0.4,1.3
	c-0.4,3.9,0.9,8.5-5,9.5c-0.4,0.1-0.3,0.3-0.3,0.6c-0.2,5.1-3.4,2.5-5.8,2.3c-1-1.5-1.5-3.2-1.8-4.9c-0.6-7.2-3.3-14-4.7-21
	c0-1-0.4-1.8-0.8-2.7c-0.1-0.4-0.2-0.9-0.3-1.3c-0.3-1.1-0.6-2.2-1-3.3c-0.1-0.4-0.1-0.9-0.1-1.3c0.6-2,2-2.4,3.7-1.8
	c2.4,0.8,3.1,3.1,2.9,5c-0.3,3.3,0.5,6,2.7,8.5c-4-3.7-2.8-7.7-1.3-11.8c1.1-3.1-0.2-6.3-0.3-9.4c-0.3-5.5,0.2-11,0.4-16.4
	c0.1-2.7-0.3-5.3-1.4-7.8c-0.4-0.8-0.4-1.8-0.6-2.7C54.7,224.9,55.6,223.6,54.7,222.8z"/>
<path fill="#6C6C6C" d="M13.4,122.1c0.1-0.6,0.1-1.3,0.3-1.9c0.1-0.4,0.5-0.5,0.7-0.3c0.4,0.5,0.8,1,1,1.6c1,2.4,1.5,4.9,1.8,7.4
	c0.1,0.8,0.1,2,0.9,1.9c1.3-0.1,0.8-1.5,0.9-2.3c0.1-0.5,0-1,0-1.4c-0.5-4.4-0.9-8.9-1.5-13.3c-0.4-3.4-0.4-6.7-0.3-10.1
	c0-0.4,0.3-1.1,0.6-1.1c0.8-0.2,1,0.6,1.2,1.2c0.6,2,1.1,4,1.6,6c0.2,0.8,0.4,1.6,1.1,2.1c1-0.1,0.7-0.8,0.6-1.4
	c-0.5-5.1-1-10.2-1.4-15.3c-0.1-0.9,0.1-1.9,0.3-2.8c0-0.2,0.4-0.4,0.7-0.5c0.1,0,0.3,0,0.4,0.2c0.3,0.4,0.7,0.7,0.8,1.1
	c0.8,2,1.8,3.7,3.3,5.3c1,1.1,1.6,2.4,2,3.8c0.2,0.8-0.1,2.3,1.3,2c1-0.2,0.7-1.6,0.7-2.6c0.1-2.7,0-5.4-0.5-8.1
	c-0.1-0.5,0.2-1,0.8-1c0.3,0,0.7,0.2,0.8,0.5c0.7,1.6,1.3,3.3,1.9,4.9c0.3,0.9,0.9,1.3,1.8,0.8c0.7-0.4,1.4-1.1,2.1-0.5
	c0.5,0.4,0.7,1,1,1.6c0.3,0.4,0.6,0.8,1.1,0.5c0.2-0.1,0.4-0.5,0.4-0.8c0.1-0.8,0.1-1.6,0.2-2.4c0.9-0.4,1.8-0.1,1.9,0.7
	c1.1,4.9,3.1,9.7,2.2,14.7c-0.6,3.2-0.4,6.2,0.2,9.3c0.2,1.1,0.4,2.1,0.7,3.1c0.1,0.4,0.2,0.9,0.3,1.3c0.2,0.7,0.3,1.3,0.1,2
	c-0.2,0.4-0.5,0.8-0.8,1.1c-3.6,0.6-5.6-1.8-6.8-4.5c-1.3-3-2.6-6-3-8.9c0.6,2.1,0.8,4.6,0.4,7c-0.3,1.8-1.3,2.9-3.1,3.1
	c-2,0.2-3.4-0.8-3.9-2.8c-1.2-5-3-9.8-3.6-14.9c0.6,5.9,3.3,11.4,3.6,17.4c0.1,0.9,0.4,1.9,0.4,2.8c-0.1,2.2,0.3,4.9-2.6,5.5
	c-3.2,0.7-3.3-2.4-3.8-4.3c-0.4-1.3-1.1-2.5-1-3.6c0.4,2,1.3,4.2,1.8,6.5c0.2,1.3,0.8,2.7,0.5,4c-0.7,2.5-0.9,5.8-4.3,5.9
	c-3.4,0.1-2.6-3.3-3.1-5.3c-0.2-0.6,0.2,0-0.1-0.4c-0.4-0.5-0.3,0.4-0.6,0.4c-0.4,0.3-0.8,0.3-1.2,0c-0.1-1.9-0.1-3.8-0.2-5.6
	C13.1,128.6,14.7,125.2,13.4,122.1L13.4,122.1z"/>
<path fill="#818181" d="M15.3,137.4c0-2.2,0.1-4.4,0.2-7.3c1.3,1.5,1.3,2.7,1.6,3.9c0.5,2,0.9,4,1.5,6c0.1,0.4,0.6,0.8,1,0.8
	c0.7,0.1,1.1-0.5,1.3-1.1c0.1-0.8,0.2-1.6,0.3-2.4c0-1.6,0-3.2,0-4.8c3.1,0,2.9,2.5,3.1,4.4c2,17.2,3.1,34.6,5.8,51.8
	c0.5,3.3,2.3,6.4,2.3,9.9c0,1.1,0.3,2.2-0.7,3.1c-1.1,0.5-1.8,1.4-1.7,2.6c0,0.9,0.3,1.9,0.3,2.8c0,0.4-0.2,1-0.5,1.2
	c-0.7,0.4-1.2-0.2-1.5-0.8c-0.5-1-1-2-1.5-2.9c-0.9-1.6-1.1-3.3-1.4-5c-1.9-9.7-3.7-19.4-5.7-29.1c-0.8-4.1-2.2-8-2.6-12.1
	c-0.6-5.1-1.2-10.1-1.8-15.2C14.6,141.3,14.6,139.3,15.3,137.4z"/>
<path fill="#C8C8C8" d="M82.5,329.4c-0.1,0.3,0,0.7-0.2,0.9c-0.5,0.6-0.8,0.1-1-0.3c-0.5-1.2-0.9-2.4-1.5-3.5
	c-0.2-0.3-0.7-0.7-1.1-0.7c-0.5,0-0.7,0.7-0.5,1.1c1.1,2.2,1.1,4.5,1,7c-0.1,2.8,0.4,5.7,1.4,8.4c1.3,3.4,2.2,7,3.3,10.5
	c0.2,0.6,0.2,1.3,0.3,1.9c0,0.5-0.1,1-0.7,1c-0.2,0-0.6-0.2-0.7-0.4c-0.3-0.4-0.4-0.9-0.6-1.3c-2.4-6.6-4.7-13.2-7.4-19.7
	c-1.5-3.5-2.2-7.3-4-10.7c-0.2-0.4-0.6-0.8-1.1-0.5c-0.2,0.1-0.4,0.5-0.5,0.8c-0.1,0.3-0.2,0.6-0.2,0.9c-2.6-4.4-3.6-9.4-5.5-14
	c-0.8-2-1.4-4.1-2.1-6.2c-0.8-0.9,0.1-2.2-1-3l0,0c-0.8-1.6-0.1-2.8,1.5-2.4c2.7,0.7,5.5,1.2,6.9,4.4c1.7,3.9,3.9,7.6,4.9,11.1
	c-0.8-1.8-1.4-4.2-2.5-6.5c0-1.7,0.6-3.5-0.5-5c-0.1-0.4-0.1-0.9-0.1-1.3c0.2-1-0.1-1.8-0.3-2.8c-0.4-1.8,0.2-3.2,1.9-3.8
	c2-0.6,2.7,0.8,3.3,2.4c0.5,1.5,0.3,3.6,2.6,4c2,2.8,5.6,5.2,2.4,9.3c-0.2,0.3-0.5,0.5-0.3,0.8c4.5,8.8,4.5,8.8,4.3,12.6
	c0.1,1.2,0.1,2.4-0.3,3.6C83.8,328.6,83.2,329,82.5,329.4z"/>
<path fill="#A2A2A2" d="M72.9,301.6c0,0.3,0,0.6,0,0.9c1.2,1.8-0.2,4,0.9,5.8c0.2,2.7,0.9,5.3,1.7,7.9c0.2,0.8,0.6,1.5,0.8,2.2
	c0.2,0.6,0.4,1.4-0.2,1.7c-0.7,0.4-1.1-0.3-1.4-0.8c-1.4-2.5-2.8-5-4.1-7.6c-1.2-2.4-2.3-4.9-3.4-7.3c-0.4-0.8-0.9-1.3-1.8-0.7
	c-0.8,0.6-1.5,0.4-2-0.4c-0.5-0.8-0.9-1.7-1.6-2.4c-0.6-0.6-1.1,0-1.5,0.5c-0.3-0.6-0.6-1.2-0.9-1.9c-0.8-0.8,0.1-2.2-1-3
	c0,0,0,0.1,0,0.1c0.8-2,0.8-2,2.8-1.2c0.8,0.3,1.4,0,1.3-0.7c-0.2-1.1-0.4-2.2-0.6-3.3c-0.1-1.1-0.2-2.2-0.2-3.3
	c0-0.5,0.3-1,0.9-0.9c0.3,0,0.6,0.2,0.8,0.4c0.3,0.3,0.6,0.7,0.8,1.2c0.5,1,0.9,2,1.4,3.3c1.9-2.4,2.7-5,2.6-7.9
	c2.7,2,4.1,6.8,2.7,10.1C69.5,297.5,69.9,299.9,72.9,301.6z"/>
<path fill="#6B6B6B" d="M51.8,267c0,0.3,0,0.6,0,0.9c0.6,0.5,0.3,1.4,0.9,1.9c0.6,4.4,2,8.7,3.5,12.8c1.1,3.1,1.5,6.2,0.3,9.3
	c-1.8-3.4-3.1-7-3.6-10.8c-0.7-6.2-2.7-12-4.9-17.8c-1.6-4.2-3.2-8.3-4.1-12.6c0,0,0.3-0.2,0.3-0.2c4.7,1.4,7.6,6.3,6.3,10.8
	c-0.2,0.6-0.1,1.2,0.3,1.8c0,0.3,0,0.6,0,0.9C51.7,264.9,50.9,266.2,51.8,267z"/>
<path fill="#565656" d="M13.4,122c0.9,1.4,1,2.9,1,4.5c0,1.7,0,3.4,0,5.2C12.9,128.6,13.5,125.3,13.4,122z"/>
<path fill="#565656" d="M15.3,137.4c0,1.9,0,3.8,0,5.7c-1-1.9-0.9-3.9-0.8-5.9C14.7,137.4,15,137.4,15.3,137.4z"/>
<path fill="#8F8F8F" d="M58.4,296.8c0.7,0.9,1,1.9,1,3C58.7,298.9,58.4,297.9,58.4,296.8z"/>
<path fill="#A2A2A2" d="M60.3,301.6c0.8,0.8,1.1,1.8,1,3C60.5,303.7,60.2,302.7,60.3,301.6z"/>
<path fill="#666666" d="M75.8,346.6c-0.3,0-0.7,0-1,0c0-1,0-2,0.1-2.9C75.7,344.5,75.9,345.5,75.8,346.6z"/>
<path fill="#303030" d="M40.3,68.3c0.2,1.9,0.1,3.8,0.5,5.7c2.1,9.8,5.2,19.3,8.1,28.9l0,0c2.1,1.6,1.5,4.1,2.4,6.2
	c0.3,1.7,1.1,3.3,1.3,5.1c0.1,1.3,0.5,2.5,0.7,3.8c0.6,3,1.2,6,0.9,9c-0.1,1.3-0.2,2.7-1.8,2.9c-1.3,0.2-2.1-1.1-2.2-2.1
	c-0.7-4.5-3.6-8.1-5.2-12.2c-0.4-8.7-2.8-17.1-4.6-25.6c-0.1-1.2-0.1-2.4-0.1-3.6c0-0.2,0-0.5,0-0.7c-0.3-5.6-1.5-11-2.7-16.5
	c-0.5-2.2-1.2-4.3-1.1-6.6c-0.1-4.8-1-9.5-1.9-14.2c-0.5-2.7-1-5.3-1.5-8c-0.2-1.3,0.3-2.2,1.4-2.7c0.3,0.3,0.5,0.7,0.5,1.1
	c0.2,1.2-0.4,2.5,0.5,3.7c1.8,5.3,2,10.9,3,16.4c0.4,2.2,0.7,4.4,1,6.6c0.5,0.6,0.3,1.4,0.7,2.1C40.2,67.7,40.2,68,40.3,68.3z"/>
<path fill="#444444" d="M34.6,38.5c0.3,0,0.6,0.1,0.9,0.1c0,1.3,0,2.5,0.1,3.8C34.6,41.2,34.5,39.8,34.6,38.5z"/>
<path fill="#7C7C7C" d="M40.2,67.4c-0.2-0.7-0.5-1.4-0.7-2.1C39.7,66.1,39.9,66.8,40.2,67.4z"/>
<path fill="#A9A9A9" d="M93,399.4c0.3-0.9,0.6-1.8,0.9-2.7c2.9-0.7,5.8-1.4,8.7-2.1c2.3-0.6,2.7-1.4,1.9-3.8
	c-0.5-1.6-1.2-3.2-1.8-4.8c-0.4-0.1-0.8-0.3-1.1-0.6c-0.5-1-1.1-1.8-1.3-2.9c0-0.4-0.1-0.8-0.1-1.3c0-0.9-0.2-1.7-0.7-2.4
	c-0.2-0.4-0.4-0.8-0.7-1.1c-1-2-2.2-4-2.3-6.4c-0.7-6.4-2.9-12.4-4.2-18.6c-0.1-1.9,1-3.1,2.3-4.2c0.5-0.2,1.1-0.3,1.6-0.1
	c1.7,0.6,2.5,2,2.8,3.7c4,11.4,5.4,23.6,9.4,35c0.6,1,0.9,2.1,0.7,3.3c0,0.2,0,0.4,0,0.7c0,0.9,0.1,1.9,0.1,2.8
	c-4.6,1.7-9.1,3.5-13.7,5.2C94.9,399.2,94,399.3,93,399.4z"/>
<path fill="#808080" d="M81.6,385c0.3,0.7,0.6,1.3,0.9,2C82.2,386.3,81.9,385.7,81.6,385z"/>
<path fill="#575757" d="M27.9,15.4c0.3,0.7,0.6,1.3,0.9,2C28.4,16.7,28.2,16.1,27.9,15.4z"/>
<path fill="#8E8E8E" d="M31.6,201.7c-2.1-9.6-4.1-19.3-6.3-28.9c-1-4.5-1.6-9.1-1.4-13.7c0.2-5-0.2-9.9-1.4-14.7
	c-0.6-2.2-0.5-4.4-0.5-6.7c0-1.8,0-3.5-1-5.1c-0.3-3.7-1.3-7.3-0.9-11c0.1-0.6,0.3-1.2,0.5-1.8c0.1-0.1,0.6-0.2,0.8-0.1
	c0.8,0.6,0.9,1.7,1.1,2.6c0.7,2.8,1.4,5.6,2.2,8.3c0.1,0.5,0.3,0.9,0.6,1.3c0.1,0.2,0.5,0.2,0.8,0.2c0.1,0,0.2-0.2,0.3-0.3
	c0.5-1.2,0.3-2.5,0.1-3.8c-1.1-7.4-2.2-14.8-3.3-22.3c-0.1-1-0.7-2.2,0.5-3.2c1.3,0.9,1.4,2.5,1.8,3.7c1.7,5.1,3.3,10.3,5,15.5
	c0.2,0.6,0.4,1.2,0.7,1.8c0.1,0.2,0.5,0.4,0.8,0.4c0.3,0,0.7-0.2,0.8-0.4c0.3-0.6,0.6-1.2,0.6-1.8c0.1-2.9,0.3-5.8-0.2-8.6
	c-0.2-0.9-0.4-1.9-0.4-2.8c0-0.4,0.2-1,0.5-1.2c0.5-0.3,0.9,0.1,1.2,0.5c0.5,1,1.2,1.9,1.5,3c1.3,4.1,3.8,7.8,4.7,12
	c0.3,1.3,1.2,2.3,2.2,3c0.7,0.5,1.5,0.5,2.3,0.1c1.5-0.6,2.2,0.6,2.9,1.6c0.8,1.8,0.4,3.8,0.4,5.7c0,1.4-0.3,2.6-1.8,3.1
	c-1.5,0.5-2.4-0.3-3.3-1.4c-0.9-1-1.6-2.9-3.3-2.2c-2,0.8-0.8,2.7-1,4.2c-0.3,2.4,0.1,5-2.2,7.1c-2.1,2-1.1,4.9-0.4,7.3
	c3,10,4.3,20.5,7.4,30.5c0.6,2,1,4.5-1.8,5.7c-0.8,1.1-0.8,2.4-0.5,3.7c0.7,3.9,1.4,7.8,2.2,11.7c0.1,0.5,0.4,1,0.3,1.4
	c-0.9,2.3-0.2,4.7-0.2,7.1c0,0.5-0.3,0.9-0.9,0.9c-0.3,0-0.6-0.2-0.8-0.4c-1.4-2.2-1.9-4.7-2.6-7.2c-0.5-1.8-0.8-3.7-1.2-5.6
	c-2.7-1.7-2-4.9-3.1-7.4c-0.4,6.4,0.6,12.6,0.6,19.5c-3.2-1.7-2.2-4.5-3.3-6.4c0-0.3,0-0.6,0-0.9c-0.6-0.5-0.3-1.4-0.9-1.9
	C31.6,203,31.6,202.4,31.6,201.7z"/>
<path fill="#9E9E9E" d="M42.2,189.2c0.1-2.4-0.2-4.7-0.9-7.1c-2-6.9-3.4-13.9-4.7-20.9c-0.4-2.1-0.8-4.1-1.7-5.9
	c-0.7-1.3-1.2-2.6-1.2-4.1c0-3.2-0.2-6.3-1.6-9.3c-0.3-0.6,0-1.3,0.7-1.5c0.4-0.1,0.9,0.2,1.3,0.4c0.1,0.1,0.2,0.2,0.3,0.3
	c0.6,0.7,0.9,2,2,1.8c1.4-0.3,1-1.8,1.1-2.8c0.1-1.7,0-3.5,0.1-5.2c0.1-1.1,0.3-2.2,0.6-3.3c0.2-0.9,0.7-1.9,1.7-2.1
	c1.4-0.3,1.9,0.8,2.5,1.8c0.7,1.3,1.4,2.5,2.1,3.7c0.4,0.6,0.8,1.6,1.8,1.2c0.9-0.3,0.8-1.3,0.8-2.1c0-1.4,0-2.9,0-4.3
	c0.3,0,0.6-0.1,0.8-0.1c2.8,1.9,1.5,4.9,2,7.4c2.2,11,4.1,22.2,5.4,33.4c0.1,1,0.5,1.9,0.7,2.9c0.1,0.5,0.2,1,0.2,1.5
	c0,0.8-0.3,1.4-0.8,2c-0.6,0.5-1.2,0.8-2,0.8c-3.5-2.2-4-6-4.7-9.5c-1-5.1-2.2-10.1-3.3-15.1c-0.8-3.6-3.8-6.7-1.6-10.9
	c-5.2,6.3-1.8,12.8-1.2,19.1c0.9,4.8,2.1,9.6,3.2,14.4c0.6,2.4,1.4,5.1,4.5,5.8c2.6,6.6,3.9,13.3,2.5,20.4c-0.5,2.4,0,4.8-0.2,7.1
	c-0.1,2-0.2,5.2-3.8,2.5l0,0c-0.3-0.3-0.6-0.7-0.9-1C46.5,203.2,44.3,196.2,42.2,189.2z"/>
<path fill="#828282" d="M50.8,263.2c-0.3-0.6-0.7-1.1-0.8-1.7c-0.4-2.4-1.4-4.5-2.9-6.5c-1.1-1.3-1.5-3.2-2.9-4.4
	c0.4-1.1,1.2-1.4,2.3-1c1.3,0.5,1.9,1.6,2.9,2.4c0.3,0.2,0.9,0.3,1.3,0.2c0.4-0.2,0.8-0.7,0.8-1.1c0-1.1,0.1-2.2-0.2-3.3
	c-1.3-5.8-1.2-11.7-2.2-17.6c-0.1-0.8-0.1-1.6,0-2.4c0.1-0.8,0.2-1.7,1.1-2c1.2-0.5,1.6,0.6,2.1,1.4c1.8,2.8,3.5,5.8,3.5,9.3
	c0,0.6,0.2,1.4,1,1.3c0.7-0.1,0.7-1,0.8-1.6c1.4,2.6,1.8,5.4,1.9,8.3c0.2,4.5,0,8.9,0.8,13.4c0.5,2.7,0.1,5.4-1.5,7.8
	c-1,1.4-1.3,2.9,0.6,4.1c0.5,0.3,0.9,1,0.9,1.6c0.2,3,0.4,6.1-0.2,9.1c0,0.2-0.4,0.5-0.7,0.6c-0.3,0.1-0.6-0.1-0.8-0.3
	c-0.1-0.1-0.3-0.2-0.3-0.3c-1.3-3.7-3.1-7.3-3.6-11.3c-0.2-2.1-0.6-4.1-1.4-6C52.9,262,52.1,262,50.8,263.2z"/>
<path fill="#808080" d="M48.9,211.3c0.7,0.1,1.4,0,1.6-0.8c0.1-0.6,0.1-1.3,0-1.9c-0.8-3.4-0.6-6.7,0.6-9.9c0.9-2.5,0.9-5,0.3-7.6
	c-0.8-3.2-0.7-6.7-2.3-9.7c-2-1.2-2-3.5-2.7-5.4c0.1-1.3,0.3-2.6,1.5-3.5c0.5-0.2,1-0.3,1.5-0.2c0.8,0.3,1.3,0.9,1.6,1.6
	c2.7,7.2,2.8,15.2,6.1,22.2c3.7,7.7,3.8,16.2,6.5,24.1c0.5,1.5,0,3.2,0.2,4.8c0,0.7,0,1.5,0.1,2.2c-0.1,1.7,0.7,3.3,0.4,5
	c-0.2,0.5-0.5,0.8-0.9,1.1c-0.3,1.1,0.6,2.9-1,3.2c-1.1,0.2-1.4-1.5-1.8-2.5c-1.3-3.4-2.4-6.9-3.5-10.4c-0.3-0.8-0.4-1.5-0.7-2.3
	c-0.2-0.6-0.5-1.4-1.3-0.8c-0.3,0.2-0.3,0.9-0.5,1.3c-0.4-1-0.9-2-1.2-3.1c-0.5-1.6-1.1-3-2.6-3.8C49.5,214.1,49,212.8,48.9,211.3z"
	/>
<path fill="#818181" d="M32.6,206.5c0.7,1.3,1.5,2.7,2.3,4.2c0.9-1.6,0.4-2.8,0.1-4c-1-4.4-2-8.7-2.9-13.1c-0.5-2-0.6-4.1-0.2-6.2
	c0.2-1,1.4-1.5,2.2-0.8c2.6,2.2,3.9,5,4.2,8.3c0.1,1.9,0,3.8,0.1,5.8c-1.7,0.9-1.9,2.4-1.9,4.1c0.1,3.7,0.2,7.3,0.3,11
	c0,0.5-0.1,1-0.6,1.1c-0.4,0.1-1-0.1-1.2-0.4c-0.5-0.6-0.9-1.3-1.1-2.1C33.2,211.9,32.5,209.3,32.6,206.5z"/>
<path fill="#808080" d="M54.7,222.8c0.6,0.9,0.9,1.8,0.9,2.9C55,224.9,54.7,223.9,54.7,222.8z"/>
<path fill="#818181" d="M31.6,203.6c0.3,0.6,0.6,1.3,0.9,1.9C32.3,204.9,32,204.3,31.6,203.6z"/>
<path fill="#808080" d="M48,210.3c0.3,0.3,0.6,0.7,0.9,1C48.6,211,48.3,210.6,48,210.3z"/>
<path fill="#9C9C9C" d="M46.9,129.7c-0.6-0.6-1.2-1.3-1.8-1.9l0,0c-0.6-0.5-0.4-1.4-1-1.9l0,0c-0.9-0.8-0.1-2.1-0.9-2.9
	c-0.9-3.6-1.8-7.1-2.6-10.7c-0.1-0.6-0.1-1.5,0.8-1.3c1.9,0.4,1.9-0.9,1.7-1.9c-0.7-4.1-1.2-8.2-2.7-12.1l0,0c-1.3-1.8,0.3-4-1-5.8
	c0-2-0.3-4,1-5.8l0,0c0.9,0.8,0.1,2.1,0.9,3c2,5.7,2.5,11.7,3.9,17.5c0.7,2.8,1.3,5.5,1.9,8.3c2.6,5.9,4.3,12,4.7,18.5
	c-1.2,1.4-2.4,1.2-2.6-0.6c-0.3-2.1-1.1-4-1.5-5.7c0.4,1,0.7,2.1-0.5,3.1L46.9,129.7z"/>
<path fill="#6C6C6C" d="M39.3,91.3c1.2,1.8,1,3.8,1,5.8C39.1,95.3,39.3,93.3,39.3,91.3z"/>
<path fill="#EDEDED" d="M102.6,385.1c0,0.3,0.1,0.6,0.1,0.8c-0.1,0.6-0.1,1.3-0.3,1.9c-0.1,0.2-0.4,0.6-0.6,0.6
	c-0.2,0-0.7-0.2-0.8-0.4c-0.7-1.8-1.5-3.5-2.1-5.3c-0.4-1.5-0.8-2.9-2.1-4.1c-1.7-1.7-2.3-4.1-2.9-6.4c-1.3-5.6-2.5-11.1-4.3-16.6
	c-1.4-4.3-2.1-9-2.4-13.6c-0.4-4.8-1.6-9-4.9-12.6c0-0.6,0-1.3,0-1.9c-0.9-0.8,0-2.1-0.9-2.9c-0.2-1.1-0.5-2.1-0.7-3.2
	c-0.1-0.7,0.1-1.4,0.8-1.5c1.5-0.2,1.8-1.1,1.5-2.3c-0.3-1.2-0.6-2.5-0.9-3.7c-0.1-0.2-0.5-0.5-0.7-0.5c-0.2,0-0.5,0.3-0.7,0.5
	c-0.4,0.6,0.1,1.6-1,2c-0.5-2.2-1.3-4.3-0.2-6.5c0.5-0.9,0.3-1.8-0.1-2.7c-0.6-1.4-1.2-2.9-1.8-4.4c-1.9-0.6-1.9-2.3-2.3-3.8
	c0-1.5,0.1-3,2-3.1c1.5-0.1,1.9,1.3,2.7,2.3c4.1,4.7,5,10.7,6.8,16.3c0.7,1.2,0.7,2.5,0.8,3.8c0.6,5.1,2.2,9.9,3.6,14.9
	c1.8,6.5,3,13,3.5,19.7c1.1,4.3,2.2,8.6,3.2,12.9c0.4,2,0.5,4.1,0.8,6.1c0.7,2.3,0.8,4.7,1.8,6.8l0,0c0.9,0.8,0.1,2.1,0.9,2.9l0,0
	C102.8,382.3,101.6,384,102.6,385.1z"/>
<path fill="#BABABA" d="M91,390.9c-2.2-5.7-4.6-11.3-5.6-17.3c2.9,1.2,4.4,3.4,4.8,6.5c0.5,3.6,2.1,7,1.8,10.8
	C91.8,391.5,91.4,391.5,91,390.9z"/>
<path fill="#A9A9A9" d="M91,390.9c0.4,0,0.7,0,1.1,0c0.3,1.6,0.7,3.2,1,4.8C91.8,394.3,91.3,392.7,91,390.9z"/>
<path fill="#666666" d="M76.8,349.5c-0.8-0.8-1.1-1.8-1-2.9C76.6,347.4,76.9,348.4,76.8,349.5z"/>
<path fill="#666666" d="M77.8,352.4c-0.8-0.8-1.1-1.8-1-2.9C77.5,350.3,77.8,351.3,77.8,352.4z"/>
<path fill="#A9A9A9" d="M94,396.7c-0.5-0.2-0.8-0.5-0.9-1C93.4,396,93.7,396.3,94,396.7z"/>
<path fill="#B8B8B8" d="M76.7,298.7c0.3,1.3,0.7,2.5,1,3.8c-0.4,1.4,0.8,3.2-1,4.2c-1.4-0.9-0.9-2.6-1.4-3.8
	c-0.7-1.8-1.2-3.6-1.8-5.4c-0.1-0.2-0.6-0.4-0.7-0.4c-0.2,0.1-0.4,0.5-0.4,0.8c0.1,1.3,0.3,2.5,0.5,3.8c-0.4,0.7-0.7,1.4-1.1,2.1
	c-0.2,0.4-0.6,0.8-1.1,0.7c-0.4-0.1-0.9-0.4-1.1-0.8c-1.3-3.3-1.8-6.7-2.3-10.1c-0.1-0.8,0.3-1.6,1.2-1.7c1.3-0.2,1.4-1.1,1.3-2.1
	c-0.3-1.9-0.7-3.7-1.7-5.4c0-0.3,0-0.6,0-1c-0.6-1-1-2.3,0.3-2.8c1.3-0.5,1,1.3,1.6,1.8c0.7,2.1,1.3,4.3,2,6.4
	c0.2,0.6,0.4,1.4,1.1,1.4c0.8,0,0.7-0.9,0.7-1.5c0-3-0.2-6-1.1-9c-1.2-3.8-1.9-7.7-2.8-11.6c-0.3-1.1-0.5-2.2-0.8-3.3
	c-2.2-6.9-3.1-14-3.9-21.2c-0.4-3.5-0.6-7-1.8-10.3c0-0.3,0-0.6,0-0.9c-1.1-1.5,0.1-3.4-0.9-4.9c0-0.6-0.1-1.2-0.1-1.8
	c-0.8-3,0.9-2.4,2.7-1.9c0.7,0.5,1.4,0.8,1.9,1.6c1.6,4.5,1.8,9.4,3.1,14c1.7,4.2,0.2,8.7,1.4,13.1c1,3.7,2.4,6.8,5.4,9.2
	c0.2,0.4,0.4,0.9,0.4,1.4c-0.2,1.7,0.6,3.3,1,4.9c0.1,2,1.4,3.8,0.6,5.9c-2.2,4-3,8.2-1.8,12.7C78.1,290.6,76.1,294.6,76.7,298.7z"
	/>
<path fill="#A2A2A2" d="M70,282.4c-1.6-0.9-1.6-0.9-1.9,1c-1.3-2.3-1.8-4.7-1.8-7.3c0-0.5,0.1-1,0.2-1.4c0.1-0.2,0.4-0.5,0.7-0.5
	c0.2,0,0.6,0.3,0.7,0.5C68.4,277.3,69.9,279.6,70,282.4z"/>
<path fill="#828282" d="M51.8,267c-0.6-0.9-0.9-1.8-0.9-2.9C51.5,265,51.7,265.9,51.8,267z"/>
<path fill="#828282" d="M52.7,269.9c-0.3-0.6-0.6-1.3-0.9-1.9C52.1,268.6,52.4,269.2,52.7,269.9z"/>
<path fill="#8E8E8E" d="M43.2,123c0.6,0.9,0.9,1.8,0.9,2.9C43.5,125,43.2,124,43.2,123z"/>
<path fill="#8E8E8E" d="M44.1,125.9c0.3,0.6,0.6,1.3,1,1.9C44.8,127.1,44.4,126.5,44.1,125.9z"/>
<path fill="#B8B8B8" d="M73.8,308.3c-1.1-1.8-0.9-3.8-0.9-5.8C74.1,304.3,73.8,306.3,73.8,308.3z"/>
<path fill="#DDDDDD" d="M81.6,324.6c0.6,0.9,0.9,1.8,0.9,2.9C81.9,326.6,81.6,325.6,81.6,324.6z"/>
<path fill="#474747" d="M50.9,133.5c-0.2-4.9-0.8-9.6-2.6-14.2c-0.6-1.6-1.2-3.2-1.2-5c2.2,2.8,3.3,6,3.8,9.5
	c0.2,1.4,0.1,2.8,1.4,4.2c0.7-1.9,0.4-3.5,0.2-5.2c-0.2-1.9-0.5-3.7-0.8-5.6c0.3-0.1,0.5-0.2,0.8-0.3c3.2,6.7,3,14.1,4.5,21.2
	c0.5,2.3,0.8,4.7,1.1,7.1c1.6,10.4,3.5,20.8,5.3,31.1c0.2,1.4,0.6,2.7,0.2,4.1c-0.2,1.2-0.3,2.5,0.2,3.7c0.2,0.9,0.5,1.7,0.6,2.6
	c0.1,1.3-0.1,2.5,0.2,3.8c0.1,0.4,0.2,0.8,0.3,1.2c0.1,0.8-0.2,1.6,0.4,2.2c0.1,0.5,0.1,1.1,0.2,1.6c0.8,1.3-0.3,3,0.9,4.2l0-0.1
	c0.9,1.2-0.2,2.8,1,3.9l0-0.1c1.2,1.8-0.4,4.1,1,5.8l0-0.1c0.9,1.7,0,3.8,0.9,5.6c0.6,1.3,1.1,3-0.8,3.6c-2.1,0.7-3.2-0.9-3.5-2.8
	c-0.7-3.6-1.5-7.1-1.9-10.8c-0.1-0.5-0.1-1-0.2-1.6c-0.1-1.5-0.8-2.8-1.6-4.1c-0.4-1.9-0.1-3.9-0.7-5.8c-0.4-1.2-0.4-2.5-0.7-3.7
	c-0.7-5.7-2.2-11.3-1.7-17c0.4-4.4-3-7.5-3.5-11.5c-0.2-1.2-0.9-2.4-1.1-3.6c-0.1-0.5-0.3-1-0.4-1.5c-0.3-1.7-0.2-3.5-0.6-5.2
	c-0.3-3.8-1.7-7.4-2-11.1c0-1.8-0.2-3.7,0.3-5.5C50.8,134,50.8,133.8,50.9,133.5z"/>
<path fill="#565656" d="M41.2,88.5c-0.7-0.9-0.9-1.9-0.9-3C41,86.4,41.2,87.4,41.2,88.5z"/>
<path fill="#474747" d="M50.8,114.3c0.3,0.1,0.5,0.1,0.8,0.1c0,0,0-0.1,0-0.1c0.9,0.9,0.7,1.8,0.2,2.8c0,0-0.2,0.2-0.2,0.2
	C51.1,116.4,50.8,115.4,50.8,114.3z"/>
<path fill="#C1C1C1" d="M94.9,352.5c-0.8-2.7-2-5.4-2.3-8.3c-0.9-7-3.5-13.6-5.4-20.3c-0.6-2-1-4-0.8-6.1c1.7-1.2-0.2-3.6,1.8-4.7
	c0.3,0.7,0.8,1.4,0.9,2.2c1.1,5.1,2.1,10.2,3.1,15.3c0.5,2.2,1,4.3,1.6,6.4c1.1,3.8,1.7,7.7,2.1,11.6
	C95.1,349.8,95,351.1,94.9,352.5z"/>
<path fill="#DDDDDD" d="M100.8,378.3c-1.9-1.9-2-4.3-1.9-6.8C100.2,373.6,100.7,375.9,100.8,378.3z"/>
<path fill="#DDDDDD" d="M102.6,385.1c-0.8-1.2-1-2.5-0.9-3.8C102.5,382.4,102.6,383.7,102.6,385.1z"/>
<path fill="#D5D5D5" d="M106.5,388.9c1,0.7,1.9,1.3,2.9,2C108.1,390.8,107,390.3,106.5,388.9z"/>
<path fill="#C1C1C1" d="M96,348.6c0.8,1.2,0.9,2.5,0.9,3.8C96.1,351.3,95.9,349.9,96,348.6z"/>
<path fill="#DDDDDD" d="M101.7,381.2c-0.6-0.9-0.9-1.8-0.9-2.9C101.4,379.2,101.7,380.2,101.7,381.2z"/>
<path fill="#555555" d="M64.3,203.6c0.9,1.4,0.8,3,1,4.6c0.4,2.7,0.9,5.3,1.4,8c0.1,0.3,0.7,0.7,1.1,0.7c0.5,0.1,0.8-0.5,0.8-1
	c-0.3-2.2-0.6-4.4-0.4-6.7c1.8,6,2.9,12.1,3.7,18.2c0.4,2.8,0.7,5.7,1.3,8.5c1.2,5.5,2.6,10.9,3.4,16.4c0.2,1.1,0.4,2.2,1.1,3.1
	c0.9,5.4,1.7,10.9,2.6,16.3c0.4,2.5,0.9,4.9,1.3,7.4c0.7,2.2,0.3,4.6,1.2,6.8c0.4,1.1,0.8,3.1-0.6,3.9c-1.5,0.8-2.4-0.9-3.3-1.9
	c-0.3-0.5-0.4-1-0.5-1.5c0.2-1.9,0.4-3.8-0.3-5.7c-0.8-2.2-1.3-4.3-0.6-6.6c0.1-0.2,0.1-0.4,0.2-0.6c0-2-0.5-3.9-1.1-5.7
	c-1-1.5,0.3-3.3-0.9-4.8l0,0c-2.9-4.8-4.1-10.4-6.5-15.4c-1.2-2.5-1.5-5.1-2.1-7.7c-0.7-4.8-1.3-9.5-2-14.3
	c-1.6-2.5-1.4-5.5-2.5-8.2c-0.2-0.5-0.4-1.1-0.6-1.6C62.8,211.8,61.9,207.4,64.3,203.6z"/>
<path fill="#555555" d="M68.2,209.4c-1.3-1.8-1.1-3.8-1-5.8C68.2,205.4,68.4,207.3,68.2,209.4z"/>
<path fill="#555555" d="M66.3,199.8c-1-1.3-1.1-2.7-0.9-4.2C66.1,196.9,66.4,198.3,66.3,199.8z"/>
<path fill="#555555" d="M67.2,203.6c-0.9-1.2-1.1-2.5-1-3.9C67.1,200.9,67.3,202.2,67.2,203.6z"/>
<path fill="#555555" d="M64.4,191.9c0.3,0.1,0.5,0.2,0.8,0.3c0,0.6,0,1.2,0,1.8C64.9,193.3,64.6,192.6,64.4,191.9z"/>
<path fill="#6E6E6E" d="M80.5,286.3c0.4,0.6,0.9,1.3,1.5,2.1c0.6-1.2,0.2-2.1,0-3.1c-0.1-0.9-0.4-1.8-0.4-2.8c-0.1-1.1,0-2.2,0-3.3
	c1.2,2.8,1.5,5.9,1.9,8.9c1.3,8.4,2.7,16.7,4.6,25c-0.2,2.5,0.6,4.9,0.7,7.4c0,0.2-0.3,0.6-0.5,0.7c-0.2,0-0.6-0.2-0.7-0.4
	c-0.5-1-0.8-2-1.3-3c-0.3-0.9-0.6-1.9-0.9-2.8c-1.3-7.1-4-13.8-6.3-20.6C78.3,291.6,77.3,288.5,80.5,286.3z"/>
<path fill="#A6A6A6" d="M55.7,155.6c0.2,0.3,0.4,0.5,0.5,0.8c1.4,5.9,2.8,11.7,3.5,17.7c0.6,5.4,0.4,10.8,1.8,16.1
	c0.7,0.9,0.3,2,0.4,3c2.2,6.9,0.8,14.1,1.9,21.1c0.1,0.9-0.2,1.9,0.5,2.7l0,0c0.8,2.6,0.8,5.1,0,7.7c-1-0.3-1.6,0-1.9,1
	c-0.2-0.4-0.5-0.9-0.5-1.3c-0.1-7.9-2.3-15.4-4.7-22.8c-1.9-5.6-3.6-11.2-4.7-17c-0.7-3.6-2-7-2.5-10.7c-0.3-0.4-0.6-0.7-0.9-1l0,0
	c-2.9-4.1-3.4-9.1-5.1-13.6c-1.1,0.3-1.3,1.9-2.5,2c-1.1-3.5-3-15.2-2.9-18.3c0-0.6,0.1-1.3,0.3-1.9c0.2-0.5,0.8-0.5,1.1-0.1
	c0.3,0.4,0.4,0.9,0.7,1.2c0.2,0.2,0.5,0.5,0.7,0.4c0.5-0.1,0.8-0.6,0.7-1c-0.1-0.9-0.3-1.9-0.5-2.8c-0.2-0.8-0.5-1.5-0.5-2.3
	c0-0.4,0.3-0.9,0.7-1.1c0.4-0.3,1-0.1,1.2,0.4c0.4,0.8,0.9,1.7,1,2.6c0.6,5.6,2.5,10.8,3.7,16.3c0.9,4,1.7,8,2.6,12.1
	c0.7,3.5,1.7,6.8,3.6,9.8c2.8,4.6,2.2,10,3.8,14.9c0.3,0.9,0.5,1.8,0.7,2.2c-1.6-5.6-2.9-11.7-3.5-18.1c0-0.6,0-1.3,0-1.9
	c1.2-4.5-0.1-8.8-0.7-13.2C53.7,158.6,53.5,156.7,55.7,155.6z"/>
<path fill="#CDCDCD" d="M55.7,155.6c-0.1,2.4,0,4.8,0.5,7.1c0.6,2.7,0.5,5.4,0.4,8.1c-0.1,1.4-0.6,2.5-1.9,3.1l0,0
	c-0.6-0.5-0.4-1.4-0.9-2c-0.3-4-1-7.8-2-11.7c-0.9-3.4-1.4-6.8-1.9-10.3c-0.7-5.3-1.3-10.7-1.9-16.1c-0.2-1.4-0.2-2.9-0.9-4.1
	c-0.1-2-1.1-3.7-1.6-5.5c-0.4-1.2-1.3-2.3-0.5-3.9c1.6,1.1,2.4,2.6,3,4.2c0.7,1.9,1.3,3.9,1.8,5.9c0.3,1.1,0.5,2.2,1.2,3.1l0,0
	c1.2,1.8-0.4,4,1,5.8c1.5,3.7,2.5,7.5,2.8,11.5C55.8,152.2,54.4,154.2,55.7,155.6L55.7,155.6z"/>
<path fill="#BBBBBB" d="M41.2,161.4c0-0.8,0-1.5,0.1-2.3c0.1-1.1,0.7-1.7,1.8-1.5c2.9,5.7,4.1,11.9,4.8,18.2c0.3,1.9,0.7,3.8,1,5.7
	c0,0.6,0,1.3-0.1,1.9c-0.1,0.6,0,1.4-0.9,1.4c-0.3,0-0.8-0.5-0.9-0.9c-0.4-0.9-0.7-1.8-1-2.7C43.8,174.8,42.6,168.1,41.2,161.4z"/>
<path fill="#949494" d="M54.7,175.8c1.4,2.9,2.4,5.8,2.5,9.1c0.1,2.3,0.9,4.7,1.4,7c0.4,1.7,1.1,3.3,0.7,5.1c-1.2,0-1.3-1-1.5-1.6
	c-1.9-6-3.4-12.2-4-18.5C54,176.4,54.4,176.1,54.7,175.8z"/>
<path fill="#A6A6A6" d="M53.8,171.8c0.3,0.7,0.6,1.3,0.9,2C54.4,173.2,54.1,172.5,53.8,171.8z"/>
<path fill="#9E9E9E" d="M47.9,175.8c-0.7-1.9-1.6-3.8-2-5.8c-0.8-4.2-2.9-8-2.8-12.4c0-1.5,0-3.1,0-5.2c1.8,2.2,2.3,4.3,2.6,6.4
	c0.3,2.8,1,5.5,2.1,8.2c0.7,1.9,1.1,3.9,1.1,6C48.3,173.8,48.1,174.8,47.9,175.8z"/>
<path fill="#8F8F8F" d="M62.4,227.6c0.9,1.5,1,3.2,0.9,4.9C62.3,230.9,62.4,229.2,62.4,227.6z"/>
<path fill="#9E9E9E" d="M48.9,172.9c0.3,0.3,0.6,0.7,0.9,1C49.5,173.6,49.2,173.3,48.9,172.9z"/>
<path fill="#CFCFCF" d="M80.5,286.3c0.2,5.8,1.2,11.4,2.7,17c1.1,3.8,2.2,7.7,2.3,11.7c-1.4-1.8-1.6-4.1-2.2-6.2
	c-0.8-3.2-1.4-6.5-4-8.9c-0.4-0.4-0.5-1.1-0.8-1.7c-0.3-0.6-0.6-1.3-1.3-0.7c-0.3,0.2-0.3,0.9-0.4,1.3c-0.9-1.4-1.3-2.9-1.5-4.5
	c-0.8-6.5-0.7-13,0.7-19.4c0.2-0.9,1-1.2,1.8-1.1l0,0c0.4,3.6,1,7.1,2,10.6C80,284.9,80.1,285.6,80.5,286.3L80.5,286.3z"/>
<path fill="#9A9A9A" d="M67.2,240c0.4,1.2,0.9,2.4,1.3,3.6c0.6,1.8,1.3,3.6,2.5,5.2c3,4.3,4.5,9.1,4.8,14.3c-4-3-6.1-7-6.4-12
	c-0.1-1.7-0.8-3.4-1.3-5C67.4,244.1,67,242.1,67.2,240z"/>
<path fill="#808080" d="M64.3,224.8c0-2.6,0-5.1,0-7.7c1.5,2.8,0.9,5.7,0.9,8.7C64.9,225.4,64.6,225.1,64.3,224.8z"/>
<path fill="#9A9A9A" d="M75.8,263.1c0.9,1.5,0.9,3.1,0.9,4.8C75.8,266.5,75.7,264.8,75.8,263.1z"/>
<path fill="#808080" d="M64.3,217.1c-1.4-4.5-2.7-9-2-13.8c0.5-3.5-0.5-6.9-0.7-10.3c0.4-0.5,0.6-0.4,0.8,0.2
	c0.4,1.9,0.7,3.8,1.1,5.7c0.9,1.2-0.1,2.7,0.8,3.9c0,0.3,0,0.6,0.1,0.9C64.3,208.1,64.3,212.6,64.3,217.1z"/>
<path fill="#9C9C9C" d="M51.9,139.3c-1.3-1.8-1.1-3.8-1-5.8C52,135.3,51.8,137.3,51.9,139.3z"/>
<path fill="#A6A6A6" d="M55.7,155.6c-1.1-1.4-1.1-3.1-1-4.8C55.7,152.3,55.9,153.9,55.7,155.6z"/>
<path fill="#555555" d="M64.2,202.7c-0.8-1.2-0.9-2.5-0.8-3.9C64.2,200,64.3,201.4,64.2,202.7z"/>
<path fill="#555555" d="M63.4,187.1c0.6,1.3,0.8,2.7,0.8,4.1C63.4,189.9,63.3,188.5,63.4,187.1z"/>
<path fill="#555555" d="M62.3,193.1c-0.3-0.1-0.5-0.1-0.8-0.2c0-0.9-0.1-1.8-0.1-2.7C62.1,191.1,62.3,192.1,62.3,193.1z"/>
<path fill="#555555" d="M62.5,181.3c0.5,0.9,0.8,2,0.7,3C62.6,183.4,62.4,182.4,62.5,181.3z"/>
<path fill="#B8B8B8" d="M79.7,285.2c-1.4-1.9-1.9-4-2-6.3c0-1.8,0-3.5,0-5.3c1.2,2.1,1.1,4.6,1.9,6.8
	C80.4,282,80.3,283.6,79.7,285.2z"/>
<path fill="#6E6E6E" d="M79.7,285.2c0-1.6,0-3.2,0-4.8c1.1,1.8,1,3.8,0.9,5.8C80.3,285.9,80,285.5,79.7,285.2z"/>
</svg>
