<?xml version="1.0" encoding="utf-8"?>
<!-- Generator: Adobe Illustrator 18.1.1, SVG Export Plug-In . SVG Version: 6.00 Build 0)  -->
<svg version="1.1" id="Layer_1" xmlns="http://www.w3.org/2000/svg" xmlns:xlink="http://www.w3.org/1999/xlink" x="0px" y="0px"
	 viewBox="0 0 381.9 393.3" enable-background="new 0 0 381.9 393.3" xml:space="preserve">
<path fill="#474747" d="M20,301.5c0.6-1.8,0.8-3.7,0.9-5.6c0-3.2,0.1-6.4,0.1-9.5c0-3.2,0-6.3,0.7-9.5c0.3-1.5,0.2-3.2,0.4-4.7
	c0.2-1.7,0.5-3.5,0.7-5.2c0.7-0.9,0.6-2.7,2.5-2.1c1.8,0.6,2.9,1.9,3.3,3.7c0.6,2.9,0.4,6,1.4,8.8c-0.8,7.7,2.8,13,9.1,16.8
	c1.2,0.7,2.5,1.4,3.5,2.5c0.5,0.5,1.4,1.6,1.9,1c4.3-4.8,7.8,0,11.7,0.8c0.1,0,0.3-0.1,0.6-0.3c-1.2-3.3-3.5-6-4.2-9.5
	c-0.4-1.7-1-3.7,1.1-4.6c1.9-0.8,2.8,1.1,3.7,2.4c1.6,2.4,3,4.9,4.3,6.7c-2.2-3.3-4.4-7.3-7.4-10.8c-1.4-1.6-1.4-3.3,0.2-4.7
	c1.7-1.5,3.4-0.9,4.6,0.7c3.9,5.4,7.4,11.2,10.6,17.1c4,7.4,8.1,14.6,12.3,21.9c0.3,0.5,0.8,1,1,1.6c0.2,0.4,0.4,0.8,0.6,1.2
	c0.3,0.6,0.6,1.2,0.8,1.8c0.3,3.5-0.7,7.2,2.1,10.4c1.3,1.5,0,3.5-2,4c-3.3,0.7-2.5,2-0.9,3.8c1.7,1.8,2.4,4,0.4,5.9
	c-2.1,2-4.7-1.6-6-0.4c-1.4,1.3-1.2,4.4-4.1,4.4c-2.2,0.1-3.6-1.6-4.8-2.6c1.1,2.6,4.3,4.7,3.1,8.6c-0.7,1.2-2,1.4-3.2,1.4
	c-0.5,0-1,0-1.5-0.1c-3.3-2.2-5.2-5.7-8.2-8.2c-0.1-5.7-4.7-8.3-8.3-11.2c-8-6.4-11-15.5-14.3-24.5c-1-2.8-1.5-5.9-2.2-8.9
	c0.9,3.2,1.8,6.4,2.3,9.7c0.3,1.8,0,3.2-1.7,4c-1.8,0.9-2.8-0.3-4-1.6c-2.6-2.7-4.6-6.2-8.7-7.2c-1.4-0.9-2.3-2.2-2.4-3.9
	c0.1-0.9,0.4-1.7,0-2.6C19.4,302.6,19.3,301.9,20,301.5z"/>
<path fill="#5B5B5B" d="M81.3,320.7c0-0.3,0-0.6,0-0.9c-0.3-0.3-0.6-0.7-0.9-1c-0.7-1.3-1.5-2.5-2-3.8c-1.4-3.3-3-6.4-5.1-9.2
	c-1.9-2.6-3.2-5.5-4.6-8.4c-2.8-5.9-6.7-11.2-10.6-16.5c-0.6-0.8-1.3-1.4-2-2c-0.1-0.1-0.6,0.1-0.8,0.2c-0.1,0-0.2,0.3-0.2,0.4
	c0.1,0.6,0.3,1.2,0.5,1.8c1.7,4,4.4,7.4,6.5,11.2c1.3,2.2,2.6,4.4,3.4,6.9c0.1,0.2-0.2,0.6-0.3,0.8c-0.3-0.1-0.7-0.2-0.8-0.4
	c-2-4.8-5.7-8.5-8.3-12.9c-0.1-0.1-0.2-0.3-0.3-0.4c-0.4-0.5-0.9-1.2-1.6-0.8c-0.9,0.5-0.6,1.4-0.3,2.1c0.7,1.6,1.5,3.2,2.4,4.7
	c1.5,2.3,2.9,4.6,3.9,7.1c0.8,1.8,0.3,3.4-1.3,4.7c-0.5,0.4-1.2,0.4-1.8,0.1c-0.3-0.2-0.6-0.4-0.7-0.6c-1.6-3.3-5.1-4.2-7.9-5.9
	c-0.7-0.4-1.6,0.3-1.6,1.2c0,1.3,0.2,2.5,0.2,3.8c0,0.8-0.5,1.5-1.4,1.8c-0.7,0.2-1.2-0.2-1.7-0.7c-0.2-0.2-0.4-0.5-0.6-0.8
	c-0.2-0.3-0.4-0.5-0.5-0.8c-1.2-2.9-3.3-4.8-6-6.5c-2.4-1.4-4.2-3.8-6.3-5.8c-0.2-0.2-0.4-0.5-0.5-0.8c-0.8-3.6-2.9-6.8-2.7-10.6
	c2.2-1,3.3,0.3,4,2c0.9,2.1,2.3,2.9,4.5,2.6c3.4-0.5,6.2,0.4,8.3,3.5c0.8,1.2,2.3,2.8,4,1.4c1.8-1.5,0.5-3.2-0.6-4.6
	c-1.4-1.7-3.2-3.1-4.6-4.9c-1.4-1.8-3.2-3.8-2.3-6c2.1-4.7-0.8-7.1-3.8-9.7c-2.6-3.1-5.1-6.4-7.5-9.7c-0.4-0.5-0.7-1-1.1-1.5
	c-0.4-0.5-0.7-1-0.9-1.6c-0.2-0.6-0.4-1.1-0.5-1.8c0.1-0.4,0.2-0.8,0.5-1.1c0.8-1.1,0.1-2.5,0.8-3.6c0.1-3.7,1.6-7.2,2.6-10.7
	c2.1-7,2.7-14.1,3-21.3c0.3-5.9,0.1-11.8-0.7-17.7c4.9,1.5,3.2,5.5,3.4,8.8c-0.1,5.8-0.2,11.7,0.4,17.5c-0.5,3-2.1,5.9-1.1,9.2
	c-0.7,2.6-1.7,5.1-0.9,7.8c0.6,2.3-0.2,6.6,4.7,3.7c1-0.6,2.3,0.2,3.1,0.8c1.8,1.6,4,1.8,6.2,1.7c13.3,5,24.7,13.2,35.9,21.6
	c2.6,1.9,5.7,2.4,8.2,4.3c0.9,0.8,1.7,1.7,2,2.9c-0.7,6.2-3.7,7-10.3,3.2c4.5,6.2,7.3,13.7,9.5,21.5c0.4,1.4,0.1,3-1.4,3.7
	c-1.7,0.9-2.9-0.1-3.9-1.5c-4.9-7-10.8-13.3-14-21.5c-1.5-3.8-4.2-7.1-6.6-9.6c2.3,2.7,5,5.9,6.6,9.9c-1.6,7.4,1.6,12.9,6.8,17.7
	c1.3,1.2,2.1,2.8,3,4.4c1,1.8,2.3,2.7,4.4,2c6.3,2.9,7.4,5.8,4.2,11.3c-0.1,1.8-1.3,3.1-1.6,4.9c-0.9,5.5-2.2,6-7.5,3.4
	c-0.6-0.3-1.2-0.5-1.8-0.6C82.1,321.1,81.7,321,81.3,320.7z"/>
<path fill="#202020" d="M25.7,154.6c-2-6-3.9-12-5.9-18c-0.5-1-0.3-2.3-1.2-3.1c-0.2-0.6-0.4-1.3-0.4-2c0.3-2.3,1.6-3.6,3.8-4.3
	c2.5-0.8,4.3-2.7,5.8-4.8c1.7-2.3,1.8-4.7-0.1-7c-3.7-4.4-7.5-8.6-10.6-13.5c-1.2-1.8-3.4-1.6-4.9-2.8c-0.6-0.5-1.1-1.1-1.4-1.8
	c-0.9-2.5-0.6-5.2-1-7.7c-0.3-2.4-0.9-4.6-1.4-7c-0.5-3.1-0.1-6.3-0.6-9.5c-0.1-0.8-0.3-1.6-0.4-2.4c0-5.8,0-11.6-0.3-17.4
	c0.4-1,0.6-2.1,0.7-3.2c0.1-1.4,0.1-2.7,0.1-4.1c0-0.8,0-1.6,0-2.4c0.1-1.6,0-3.4,2-3.8c2-0.4,2.6,1.2,3.2,2.7
	c0.6,1.7,2.1,2.7,2.9,4.1c3.1,6.9,9.1,9,16,9.6c2.9,0.2,5.5,1.8,8.7,0.4c2-0.9,5.2-0.7,5.9,2.4c0.7,2.8-1.2,4.1-3.7,5.2
	c-7.7,3.1-8.1,5.8-1.8,11.6c6.4,6,14.2,8.3,22.8,8c3.2,1.2,6.5,1.1,9.9,1.2c3.9,0.1,6.8-1.2,8.3-5c1-2.5,3.2-3.8,5.6-4.9
	c4.3-1.9,5.9-1,6.5,3.9c-1.1,3-1.5,6.3-3.3,9.1c-0.7,0.9-1.5,1.7-2.5,2.3c-0.5,0.3-0.9,0.7-1.3,1.1c-0.3,0.5-0.5,1-0.7,1.5
	c-0.6,0.9-0.7,1.9-1.2,2.9c-0.3,0.4-0.6,0.7-1,0.9c-1.5,0.5-2.7,0.1-3.9-0.9c-0.4-0.2-0.7-0.5-1.1-0.7c-1.3-0.9-2.6-1.6-4.1-2.2
	c-9.1-2.7-18.6-1.8-27.9-2.7C44.3,90,42,91.5,40,93.6c-3,2-6.1,3.9-8.7,6.5c-2.8,3.8-2.6,5.6,1.2,9.3c4.2,4,9.3,6.7,14.4,9.4
	c3.1,1.7,6,3.4,8.2,6.4c3.1,4,8.4,3.6,12.7,4.8c5.3,1.4,10.6,3.8,16.4,3c1.5-0.2,2.7,0.9,3.1,2.5c0.1,0.5,0,1-0.2,1.4
	c-0.4,0.6-0.8,1.2-1.3,1.7c-4.2,4.8-8.8,5.3-14.5,2.3c-2.8-1.5-6.1-2.2-8.6-4.4c-1.3-1.2-3-1.6-4.9-1.4c-0.5,0.1-0.9,0-1.4-0.1
	c-0.9-0.3-1.7-0.6-2.5-1.2c-2.6-1.6-5.1-3.1-7.7-4.7c-7.6-4.9-9.7-4.7-16.5,1.6c-0.6,0.7-1.1,1.4-1.5,2.2c-2.1,1.6-2.5,3-1,5.6
	c2.7,4.6,3.5,10.2,7.4,14.2c0.2,0.2,0.5,0.7,0.4,0.9c-2.8,4.4,1.8,6.3,3,9.4c4.1,10.7,13.6,15.6,22.1,21.8c3,2.2,6.5,3.4,10,4.5
	c2.2,0.7,4.2,1.5,5.7,3.4c0.9,1.1,2.1,2.1,1.5,3.8c-0.6,2-2.3,1.9-3.9,1.9c-4.5-1.6-8.7-3.8-12.5-6.7c-5.2-3.9-11.5-6-16.5-10.3
	c-3.4-3-7.7-5.2-9.9-9.4c-0.3-0.4-0.5-0.7-0.8-1.1c-0.3-0.3-0.6-0.6-1-0.9c-0.3-0.3-0.7-0.6-1-0.8c-0.3-0.3-0.6-0.7-0.8-1.1
	C29.4,163.4,26.4,159.4,25.7,154.6z"/>
<path fill="#D5D5D5" d="M355.1,236.1c0.2,0.6,0.5,1.2,0.6,1.8c0.4,5.1,0.8,10.1,1.1,15.2c0.2,2.5,0.5,5.1,0.5,7.6
	c0,4.3,0.4,8.5,1.3,12.6c0.4,1.8,0.1,3.8,0.1,5.7c0,2.6,0.2,5.1,0.6,7.6c0.6,4,0.6,7.9-0.6,11.8c-1.4,2.3-1.4,5.1-2.7,7.4
	c-8.2,2.9-11.1,11-15.9,17c-3,3.7-6.8,6.7-9.8,10.4c-0.9,1.2-2.3,1.8-3.8,0.6c-0.3-0.4-0.5-0.8-0.6-1.2c0-0.4,0-0.9,0.1-1.3
	c0.2-0.4,0.4-0.7,0.7-1.1c0.2-0.3,0.5-0.7,0.7-1c0.1-0.2,0.2-0.3,0.3-0.5c0.2-0.3,0.4-0.7,0.6-1c0.2-0.4,0.4-0.7,0.7-1
	c0.2-0.3,0.5-0.7,0.8-1c0.1-0.2,0.3-0.3,0.4-0.5c4-4.9,8.6-9.3,11.9-14.9c1.8-3.2,3.8-6.2,4.5-8.3c-2.7,6.4-7.3,13.2-13,19.3
	c-0.4,0.3-0.7,0.5-1.1,0.8c-0.4,0.2-0.9,0.3-1.3,0.3c-3.5-1.3-2.1-3.7-0.7-5.2c5.2-6.2,8.9-13.5,13.6-20c2.3-3.2,1.4-7.6,3.8-9.7
	c0.8-1.3-0.2-1,0.4-0.8c0.2,0.1,0.2,0.3,0,0.5c-7.2,7.1-8.1,17.7-14.3,25.5c-3.5,4.4-7.2,8.7-9.8,13.7c-0.2,0.4-0.4,0.7-0.6,1.1
	c-0.2,0.3-0.4,0.7-0.7,1c-0.1,0.2-0.2,0.3-0.4,0.5c-0.2,0.3-0.5,0.6-0.8,0.9c-0.1,0.1-0.2,0.3-0.4,0.4c-0.2,0.3-0.5,0.6-0.7,0.9
	c-0.1,0.2-0.2,0.3-0.4,0.5c-0.4,0.5-0.7,1-1.1,1.4c-1.2,0.9-2.1,2-3.3,2.9c-0.6,0.4-1.1,0.7-1.9,0.8c-3.4-1.1-3-3.5-1.3-5.5
	c2.6-2.9,4.3-6.3,6-9.7c0.3-0.3,0.6-0.7,0.9-1c0.3-0.3,0.6-0.7,0.8-1.1c3.7-3.5,5.6-8.1,7.8-12.5c1.6-3.3,3.9-6.2,5.2-8.3
	c-5.2,5.5-6.7,14.6-13,20.9c-0.2,0.4-0.5,0.7-0.8,1c-0.3,0.3-0.6,0.7-0.8,1c-0.7,0.6-0.9,1.5-1.5,2.1c-0.4,0.3-0.8,0.5-1.2,0.6
	c-0.5,0.1-0.9,0-1.4-0.1c-0.7-0.3-1.1-0.8-1.5-1.4c-0.1-0.4-0.3-0.9-0.5-1.3c-0.2-0.7-0.1-1.4,0-2c0.1-0.4,0.4-0.8,0.6-1.1
	c0.3-0.3,0.5-0.7,0.8-1c0.1-0.2,0.2-0.3,0.3-0.5c0.5-0.7,1.1-1.2,1.8-1.8c2.2-5,7.1-8.8,7.3-14.9c0-1.7,0.7-3.1,1.6-4.4
	c7.2-10.7,13.5-21.9,20.7-29.6c-3.5,4.7-8.8,11-13.6,17.6c-1.4,1.9-2.9,3.4-5.5,3c-0.7-0.3-1.2-0.8-1.6-1.4c-1.1-2.8,1-4.5,2.4-6.3
	c3.9-5.4,8.4-10.2,11.6-16.2c1.8-3.4,5.6-5.2,8.3-7.9c1.8-1.8,3.1-3.5,3-6.1c0.6-3,3.1-5.5,2.5-8.9c0.3-1.1,0.3-2.3,0.8-3.3
	C354.3,236.5,354.7,236.2,355.1,236.1z"/>
<path fill="#DCDCDC" d="M354,179.6c0,15,0,30,0,45.1c-2.3,0.6-3.3-1.3-2.8-2.6c1.4-4.5-0.2-8.7-0.4-13c-0.1-1.3,0.4-2.5,0.8-3.4
	c-0.5,1.7-1.9,3.1-3.3,4.5c-1.6,1.6-3.1,3.1-4.2,5.1c-0.3,0.4-0.6,0.6-1,0.9c-0.3,0.2-0.7,0.4-1.1,0.5c-0.4,0-0.7,0.1-1.1,0.1
	c-0.3,0.1-0.7,0.2-1,0.4c-0.3,0.2-0.6,0.3-0.9,0.5c-0.3,0.2-0.6,0.3-0.8,0.5c-0.3,0.2-0.6,0.4-0.8,0.6c-0.3,0.2-0.5,0.4-0.8,0.7
	c-0.1,0.1-0.3,0.2-0.4,0.3c-0.3,0.2-0.6,0.5-0.8,0.7c-0.2,0.1-0.3,0.2-0.5,0.3c-0.3,0.2-0.7,0.5-1,0.7c-1.9,1.4-4.3,2-5.9,2.9
	c2-1,4.7-1.8,6.9-3.5c0.4-0.3,0.7-0.5,1.1-0.8c0.4-0.3,0.7-0.6,1.1-0.8c3.5-2.8,8.1-2.6,12-4.5c2.3-1.1,3.7,0.9,3,3.2
	c-1.3,4.2-1.6,6.4-8.4,6.1c-5.2,3.9-10.3,8-15.3,9.5c2.4-1.1,6.3-2.7,9.7-5.3c0.4-0.2,0.7-0.4,1.1-0.6c0.3-0.2,0.6-0.5,0.9-0.7
	c0.3-0.3,0.6-0.5,0.8-0.8c0.1-0.1,0.3-0.3,0.4-0.4c0.3-0.2,0.6-0.5,1-0.7c0.2-0.1,0.4-0.2,0.5-0.3c0.4-0.2,0.8-0.3,1.2-0.4
	c0.4,0.1,0.8,0.3,1.1,0.6c1.1,1.6,0.8,3.2-0.6,4.2c-2.7,1.9-4,4.9-6.2,7.2c-0.4,0.5-0.9,1-1.5,1.4c-0.6,0.4-1.2,0.7-1.8,1
	c-0.4,0.2-0.9,0.4-1.3,0.5c-4.1,1.4-7.6,3.9-11.4,5.9c-1.4,0.7-2.7,1.5-4.4,1.2c-2-0.5-3.9-1-6-0.2c-2.3,0.9-4.6-0.1-4.4-2.7
	c0.3-2.5-0.8-5.4-0.2-6.8c1.8-3.7-0.9-7.1,0.4-10.6c1.5-4.2,3.3-8.1,7.5-10.4c7.7-0.1,15-0.9,20-5.8c-2.2,0.9-4.9,3.3-8,4.9
	c-1.5,0.8-3.2,1-4.2-0.8c-0.9-1.6,0.4-2.5,1.5-3.5c4.7-4.1,10.6-6.5,14.6-10.8c-4.7,4.2-4.7,4.2-8.4,2.6c-0.3-0.4-0.5-0.8-0.6-1.3
	c0-2.1,1.6-2.9,3.1-3.8c4.9-3,9.2-6.7,12.7-11.3C347.8,183,350.2,180.2,354,179.6z"/>
<path fill="#696969" d="M38.1,261.1c2.2,1.4,3.9,3.3,5,5.6c0.6,1.3,1.6,2.3,2.5,3.5c0.7,0.9,0.4,1.4-1,1.9c-1.9,0.6-2.1,1.1-1.2,2.6
	c0.9,1.7,2.3,3.1,3.6,4.4c1.3,1.4,2.8,2.7,4,4.1c1.9,2.2,1.8,4.7,0,7c-0.5,0.6-1.1,1.2-1.7,1.7c-1.6,1.5-2.5,1.4-4-0.3
	c-1.2-1.5-2.4-3-3.7-4.4c-2.5-2.7-4.3-2.7-7.3-0.1c-1.2,1-1.9,1-2.6-0.3c-0.9-1.7-1.6-3.4-2.3-5.2c-0.4-1.2-0.9-2.4-2-3.2
	c-0.6-2.3-1-4.7-1-7.1c0-1.6-0.3-3.2-1.3-4.5c-0.9-1.1-1.6-0.6-2.5,0c-0.1-4.4,1.2-8.5,2.8-12.5c1.2-0.7-0.1-2.8,1.6-3.1
	c1.8-0.4,2.5,1.3,3.1,2.4c1.4,2.4,3.6,4.2,4.9,6.7C35.7,261.4,36.8,262.3,38.1,261.1z"/>
<path fill="#C1C1C1" d="M342.5,222.8c0.8-0.8,1.7-1.6,2.8-1.5c2,0.1,3.3-0.9,4.3-2.4c0.5-0.7,1.5-1.5,0.6-2.4
	c-0.6-0.6-1.3,0.4-2,0.7c-1.2,0.5-2.4,1.3-3.5,1.3c-3-0.1-5.4,1.2-8,2.4c-0.9-4,3.8-4.1,4.7-6.9c1.5-1.6,3-3.3,4.6-4.9
	c2.7-2.7,5.6-5.3,6-9.5c1.3,0.7,1,1.6,1,2.2c0,5.7,0,11.5,0,17.2c0,1.9-0.1,3.8,0.9,5.6c0.4,3.8,0.8,7.7,1.2,11.5l-0.5,0
	c-1.7,0.8-3.2,1.8-4.6,3.1c-2.5,0.3-4.3,2-6.3,3.3c-2.5-0.3-5,0.5-7.5,0c-0.8-0.6-1.2-1.4-1.5-2.3c-0.3-2.6,2.2-3.1,3.6-4.5
	c1.3-1.2,2.5-2.3,3.6-3.7c0.1-0.3,0.4-0.5,0.7-0.7c-0.3,0.1-0.5,0.3-0.7,0.6c-1.7,1.2-2.2,4.4-5.3,3.3c1.8-2.7,3.8-5.4,6.1-7.7
	c0.8-0.8,1.2-1.8,0.6-3C342.7,224.2,343,223.3,342.5,222.8z"/>
<path fill="#525252" d="M25.7,154.6c0.6,1.1,1.3,2.2,1.6,3.4c0.6,2,1.6,3.7,3.3,5.1c1.5,1.2,2.4,2.9,2.8,4.8
	c2.7,6.8,3.4,14.3,7.6,20.5c2.1,3.2,2.7,6.2,1.1,9.8c-1.6,3.7-1.8,7.3,1.6,10.4c0.8,0.8,1.4,2.1,1.2,3.5c-0.2,0.8-0.7,1.5-1.1,2.2
	c0,1.3,1.2,0.7,1.7,1c4.7,3.4,8.6,7.3,8.6,13.6c0.6,1.1,1.1,2.3,2.3,3c0.3,0.2,0.7,0.5,1,0.7c0.3,0.2,0.7,0.5,1,0.8
	c0.3,0.3,0.7,0.5,1,0.8c0.4,0.3,0.6,0.6,0.9,1c0.2,0.4,0.3,0.9,0.3,1.3c0,0.5,0,0.9-0.1,1.4c-0.5,1.1-1.5,1.8-2.6,2.4
	c-0.4,0.3-0.9,0.4-1.4,0.5c-0.5,0-1,0-1.4-0.2c-0.4-0.2-0.8-0.4-1.2-0.7c-0.4-0.3-0.7-0.6-1.1-0.9c-0.2-0.1-0.3-0.3-0.5-0.5
	c-0.3-0.3-0.6-0.6-1-0.9c-2.4-2.5-4.9-4.9-7.3-7.4c-0.4-0.5-0.8-0.9-1.1-1.4c-0.2-0.3-0.5-0.6-0.7-0.9c-0.3-0.4-0.7-0.9-1.1-1.3
	c-0.4-0.4-0.8-0.8-1.1-1.2c-0.3-0.3-0.5-0.6-0.7-0.9c-0.2-0.3-0.4-0.6-0.6-0.9c-0.3-0.5-0.5-1.1-0.6-1.6c-0.1-0.6-0.4-1.1-0.7-1.7
	c-0.3-0.8-0.5-1.6-0.6-2.4c-0.5-5-0.7-10.1-1.4-15.1c-0.1-3.1-0.1-6.2-2-8.8c-1.9-12.1-4.2-24.2-7.3-36.1
	C25.8,156.8,25.5,155.7,25.7,154.6z"/>
<path fill="#949494" d="M374.2,91.3c-1.4,5.1-3,10.1-5.6,14.6c-2.5,4.2-3.5,8.8-3.9,13.6c-0.4,4.1-1,8.2-2,12.2
	c-0.3-0.1-0.8-0.2-0.8-0.4c-1.1-7.7-3.6-15.5,0.5-23c2.4-4.3,2-9.7,5.4-12.3c0.2-0.5,0.6-1.3,0.5-1.1c-2.4,5-5.2,6.8-8.5,0.9
	c-1.5-2.7-4.4-3.6-6-5.9c-1.9-3.3,1.1-4.6,2.6-6.6c2.1-3.2,4.4-4.6,7.5-1c1.8,2.1,2.3,0,3-1.1c1.2-1.9,0.6-5,3.7-5.7
	c2.2,0.3,2,2.3,2.7,3.7c0.8,3.4-0.1,6.9,0.6,10.4C374.1,90.1,374.2,90.7,374.2,91.3z"/>
<path fill="#666666" d="M354.9,89.3c1.7,1.2,3.3,2.5,5.1,3.5c1.5,0.8,2.6,1.6,2.4,3.6c-0.1,0.8,1,1.2,1.8,1c1.5-0.3,2.5-1.3,3.1-2.7
	c0.7-1.7,1.5-3.5,2.3-5.4c1.2,0.6,0.7,1.7,0.5,2.4c-1.4,5.9-3.4,11.6-6.1,17c-0.4,0.8-0.9,1.7-1.4,2.5c-0.7,1.2-0.8,2.4-0.2,3.6
	c1.5,2.9,1.3,5.9,0.7,8.8c-0.5,2.7-0.7,5.4-0.4,8.1c-0.1,0.5-0.2,1-0.2,1.6c-1.4,1-2.3,0.2-3.1-0.9c-0.9-1.3-1.8-2.6-3.2-3.4
	c-0.4-0.2-0.7-0.4-1.1-0.6c-0.4-0.1-0.8-0.3-1.2-0.5c-5.6-1.9-5.6-1.9-4.2-6.5c0.3-0.6,0.8-1.1,1.2-1.5c0.5-0.5,0.9-0.9,1.4-1.4
	c0.3-0.3,0.6-0.6,0.9-0.9c3-3.4,4.4-7.7,6.1-11.8c1.6-3.9-2-5.9-3.7-8.6c-0.4-0.3-0.7-0.6-1-1c-0.3-0.4-0.6-0.8-0.7-1.2
	c-0.5-1.3-1-2.7-0.9-4.1C353.3,89.8,353.7,88.9,354.9,89.3z"/>
<path fill="#999999" d="M355.8,329.2c-0.3,0-0.6,0.1-0.8,0.1c-2.2,3.7-3.4,8-6.2,11.2c-1.2,1.4-1.9,4.9-4.7,3
	c-2.5-1.7-0.3-4.2,0.7-5.9c1.7-2.7,2.7-5.7,4-8.6c0.9-2.2,0.8-4-0.9-5.6c-1.7-6.2,1.6-10.9,4.7-15.7c0.6-0.9,1.8-1.3,2.2-2.4
	c0.5-1.3,1.1-2.6,1.5-4c0.4-1.3,0.6-2.6,1-4.4c0.7,0.8,1.1,1.3,1.4,1.7c0,0.9,0,1.9,0,2.8c-0.9,1.1,0.2,2.8-0.9,3.9
	c-1,4.4-0.9,8.9-1,13.3c-1.4,3.2,0,6.6-0.8,9.8C355.8,328.6,355.8,328.9,355.8,329.2z"/>
<path fill="#989898" d="M358.8,155.6c0,0.3,0,0.6-0.1,0.9c-1,1.5,0.1,3.4-0.8,4.9c0,0.6-0.1,1.2-0.1,1.8c-0.3,1.6-0.4,3.3-0.8,4.9
	c-0.2,3-0.5,6-1.9,8.8c-0.9-0.1-1.8,0.4-2.6-0.3c-0.3-0.4-0.5-0.8-0.7-1.2c-2.6,5-7.9,5.9-12.4,8.1c-0.7,0.4-1.3,0.8-2,1.2
	c-0.4,0.2-0.8,0.3-1.2,0.6c-0.5,0.4-1.1,0.8-1.7,1c-0.4,0.1-0.9,0.3-1.3,0.5c-0.4,0.1-0.9,0.2-1.4,0.2c-0.5-0.1-0.9-0.3-1.3-0.5
	c-2.7-2.7-0.5-4.1,1.5-5.6c4.4-3.5,9.2-6.5,13.7-9.9c3.2-2.4,5.2-4.7,5.7-8.5c1.9-2.4,3.1-5.2,3.6-8.2c0.3-1,1-1.7,2-2
	c0.5-0.1,1-0.1,1.4,0.1C359.5,153.3,359.5,154.4,358.8,155.6z"/>
<path fill="#C4C4C4" d="M358.8,155.6c-0.3-1-0.7-1.9-1-2.9c-2.9-2-2-5.2-1.9-7.7c0.2-2.5-0.2-4.7-0.6-7c-0.3-3.7-3.3-2-5.1-2.3
	c-2.3-0.4-5.2,0.9-6.5-2.3c1.9-4.7,8.7-8.6,13-7.4l0,0c0.4,0.2,0.7,0.6,0.9,1c0.9,1.3,1.8,2.6,2.6,4c0.6,1,1.2,1.9,2.2,2.5
	c-0.8,6.6-2.5,13-2.8,19.6C359.6,153.8,359.1,154.7,358.8,155.6z"/>
<path fill="#7C7C7C" d="M353,176.6c0.8-0.7,1.6-1.1,2.2,0.3c-0.4,0.9-0.8,1.8-1.1,2.7c-3,3.3-5.9,6.7-8.9,9.9
	c-3.4,3.6-7.1,6.8-11.6,8.9c-1,0.5-1.9,1.1-2.6,2c-1,2.7-3.5,3.7-5.7,5c-1.7,1-4,2.1-5.2-0.4c-1.1-2.2,0.7-4.3,2.4-5.1
	c3.7-1.7,6.8-4.4,10.5-6c2-0.9,4-1.8,5.7-3.3c0.3-0.3,0.6-0.6,0.9-0.9c0.3-0.3,0.6-0.5,0.9-0.8c0.3-0.3,0.6-0.5,0.9-0.8
	c0.1-0.1,0.3-0.3,0.4-0.4c0.3-0.3,0.6-0.5,0.8-0.8c0.1-0.1,0.3-0.3,0.4-0.4c0.3-0.3,0.6-0.6,0.9-0.8c0.1-0.1,0.3-0.3,0.4-0.4
	C347,182.3,348.3,177.7,353,176.6z"/>
<path fill="#848484" d="M38.1,261.1c0.1,0.3,0.2,0.6,0.3,0.9c0.2,1.6,2.6,2.5,1.5,4.6c-1.6-0.5-2.5-1.9-3.6-3
	c-2.9-2.8-5-6.2-7.3-9.4c-1.3-1.9-1.4-1.9-3.5,0.2c0.2-2.7,0.8-5.3,2-7.7c0.3,0.2,0.5,0.4,0.4,0.6c0,0.3-0.1,0.4-0.2,0.4
	c0,0.3,0,0.7-0.1,1c0.2,0.3,0.5,0.7,0.8,0.9c0.3,0.3,0.6,0.6,1,1c0.4,0.3,0.6,0.7,0.9,1C32.7,255,35.2,258.2,38.1,261.1z"/>
<path fill="#E3E3E3" d="M355.9,328.3c-0.6-3.3-1.3-6.7,0.8-9.8c0,1.9,0.1,3.8,0.1,5.7C356.9,325.7,356.7,327.1,355.9,328.3z"/>
<path fill="#C4C4C4" d="M357,168.1c-0.3-1.7-0.2-3.4,0.8-4.9C358.8,165,357.8,166.6,357,168.1z"/>
<path fill="#C4C4C4" d="M358,161.4c-0.1-1.7-0.1-3.4,0.8-4.9C358.9,158.2,358.8,159.8,358,161.4z"/>
<path fill="#D5D5D5" d="M357.8,305.3c0-1.4,0.2-2.7,0.9-3.9C358.9,302.8,358.7,304.1,357.8,305.3z"/>
<path fill="#696969" d="M27.8,247.6c-0.1-0.3-0.2-0.7-0.3-1c0-1.1,0.3-2.2,0.9-3.1C28.6,245,28.4,246.3,27.8,247.6z"/>
<path fill="#383838" d="M18.8,134.6c0.1-0.4,0.2-0.8,0.3-1.2c0.5,1,0.8,2,0.7,3.1C19.2,136.1,18.9,135.4,18.8,134.6z"/>
<path fill="#949494" d="M374.2,91.3c0.2-0.4,0.5-0.7,0.7-1.1C374.7,90.6,374.4,90.9,374.2,91.3z"/>
<path fill="#595959" d="M70.8,357.1c0-0.3,0-0.6-0.1-0.9c-1.8-3.7-3.5-7.5-5.3-11.2c-0.1-0.3-0.3-0.6-0.4-0.9
	c-0.2-0.4-0.4-1,0.1-1.3c0.6-0.5,1.2,0,1.7,0.4c0.7,0.7,1.3,1.4,2,2c0.9,0.7,1.9,1.3,2.8,1.8c1.6,1,2.8,1.1,3,0.4
	c0.4-1.1-0.5-1.7-0.9-2.6c-0.4-0.7-0.7-1.4-1-2.2c-0.2-0.8-0.2-1.6,0.5-2.2c0.7-0.5,1.4-0.6,2.3-0.4c1.3,0.3,2.2,1.3,3.1,2.2
	c0.9,0.8,1.7,1.9,3,2.3c0.5,0.2,1.3-0.4,1.4-1c0.1-1.2-0.5-2.2-1.3-3c-1.6-1.6-2.7-3.6-3.7-5.6c-0.4-0.7-0.7-1.5,0-2.2
	c0.7-0.6,1.5-0.5,2.3-0.2c1,0.4,2,1,3,1.4c0.5,0.2,1,0.1,1.3-0.4c0.1-0.3,0.2-0.7,0.1-0.9c-0.4-0.7-0.7-1.4-1.3-2
	c-1.6-1.7-2.3-3.8-3.1-5.9c-0.4-1.1,0-1.8,1.3-1.9c0.9-0.1,0.9-0.7,0.7-1.4c0.2-0.2,0.4-0.3,0.5-0.5c6.1,1.5,7.1,2.9,5.5,8.2
	c-0.5,1.7,0.3,2.7,1.2,3.8c1.3,1.7,3.1,3.1,3.6,5.4c0.2,1.4-0.1,2.9-1.4,3.1c-4.9,0.8-3.1,3.9-2.5,6.7c0.4,1.9,2.1,3.8-0.4,5.5
	c-0.7,0.3-1.5,0.1-2.1-0.1c0.1,0-0.3,0-0.2,0s-0.1,0.2,0,0.3c0.1,0.3,0.1,0.6,0.1,0.9c-0.8,3-1.2,6-3.4,8.6
	c-2.2,2.5-3.8,2.8-6.2,0.5c-1.6-1.5-2.7-3.4-4.3-4.9c-0.3-0.3-0.6-0.6-1-0.9l0,0C71.4,357.8,71.1,357.4,70.8,357.1z"/>
<path fill="#2F2F2F" d="M60.2,348.5c-3.3-2.2-6.2-5.1-9-7.9c-8.8-8.6-17.2-17.6-24.7-27.4c-1.3-1.6-2.5-3.3-3.8-4.9
	c0.3-0.6,0.7-1.2,1.5-0.8c1.3,0.7,2.1,1.9,3,3c1.2,1.5,2.4,3,3.7,4.4c0.8,0.8,1.4,2.6,2.9,1.9c1.2-0.7-0.2-2,0-3.1
	c0.8-4-0.5-7.6-1.8-11.2c-0.2-0.6-0.2-1.2-0.3-1.9c0-0.1,0.2-0.2,0.5-0.6c1.4,1.6,2.2,3.5,2.9,5.4c1.9,5.1,3.6,10.2,6.4,15
	c0.7,1.2,1,2.7,1.4,4.1c1.4,4.6,3.7,8.3,7.6,11.3c3.9,3.1,7.3,6.7,10.1,10.8C61.2,347.3,61.2,348,60.2,348.5z"/>
<path fill="#2F2F2F" d="M20.1,305.2c0-0.6,0-1.2,0-1.8C21.2,304.3,21.2,304.3,20.1,305.2z"/>
<path fill="#636363" d="M68.9,356.2c0,0.3-0.1,0.7-0.1,1c-0.3-0.3-0.5-0.7-0.8-1C68.2,356.2,68.6,356.2,68.9,356.2z"/>
<path fill="#595959" d="M80.4,318.7c0.3,0.3,0.6,0.7,0.9,1C81,319.4,80.7,319.1,80.4,318.7z"/>
<path fill="#595959" d="M81.3,320.7c0.3,0,0.7,0,1,0c0.2,0.2,0.3,0.3,0.3,0.5c0,0.2-0.1,0.3-0.1,0.3l-0.2,0.2
	C81.9,321.3,81.6,321,81.3,320.7z"/>
<path fill="#838383" d="M91.7,313c-0.2-0.2-0.5-0.4-0.7-0.6c-0.7-0.8-1.7-1.8-1.2-2.9c0.7-1.5,1.9-0.2,2.9-0.2
	c0.5,0,1.1,0.1,1.1-0.5c0.1-0.4-0.2-1-0.5-1.2c-1.7-1.2-3-2.8-4.3-4.3c-0.2,0-0.4,0.1-0.6,0.1c-0.4,0-0.8,0-1.2-0.2
	c-0.4-0.2-0.7-0.5-0.9-0.9c-0.2-0.6-0.7-1-0.9-1.7c-2.8-4.6-6-9-8.6-13.9c-1.1-2.1-2.1-4.3-2.5-6.7c-0.2-0.4-0.4-0.8-0.5-1.2
	c0-0.2,0-0.4,0-0.7c-1.7-4.6-5.4-7.8-8.4-11.6c-0.8-1-1.7-1.9-2.4-2.9c-0.4-0.5-0.5-1.3,0.2-1.7c0.6-0.4,1.3-0.1,1.7,0.4
	c2.2,3.4,6.1,5.1,8.1,8.8c1.8,3.4,3.8,6.6,5.7,10c3.5,6.3,7.8,12,12.7,17.4c0.3,0.4,0.8,0.6,1.2,0.2c0.2-0.2,0.3-0.6,0.3-0.9
	c0-2.1-0.8-4-1.9-5.9c-1.3-2.2-2.5-4.5-2.8-7.1c-0.1-1.1-0.9-2-1.4-3c-1.9-3.1-3.8-6.3-5.6-9.5c-0.4-0.7-0.6-1.4-1-2.2
	c1.4-0.9,1.9,0.3,2.4,0.9c1.8,2,4,3.1,6.5,3.8c2.5,0.7,2.7,0.7,4.4-1.4c0.3-0.4,0.4-0.9,0.6-1.3c0.4-0.3,0.8-0.5,1.4-0.5
	c1.3,0.1,2.3,0.9,2.9,2c0.7,1.5,0.3,3.1,0.8,4.6c0.6,1.9,2.1,3.9,0,5.7c-2.2,1.8-3.7-0.6-5.5-1.2c0.6,1,1.1,2,1.7,3
	c2,3.6,4,7.1,3.8,11.4c-2,3.9-3,7.8-0.1,11.8c0.3,0.3,0.6,0.7,0.9,1c0.4,0.6,0.7,1.3,0.7,2c0,0.5-0.1,0.9-0.3,1.4
	c-0.4,1.2-1.1,2.1-2.4,2.4c-0.4,0.1-0.9,0-1.3-0.1c-0.6-0.2-1-0.7-1.5-1.1c-0.3-0.2-0.6-0.5-0.8-0.7c-0.4-0.3-0.8-0.7-1.3-0.9
	C92.4,313.1,92.1,313,91.7,313z"/>
<path fill="#3F3F3F" d="M42,223.7c0.3,0.3,0.6,0.6,0.9,0.9c0.8,0.5,1.5,1.1,1.9,1.9c0,0.3,0,0.6,0,0.9c0.3,0.3,0.6,0.7,0.9,1
	c2.2,3,4.7,5.5,7.6,7.7c0.3,0.3,0.7,0.6,1,1l0,0c0.3,0.3,0.6,0.6,1,1l0,0c0.3,0.3,0.7,0.6,1,1c0.3,0,0.6,0,1,0
	c4.2-1.1,7.9,0.6,11.3,2.4c4,2,8,3.7,12.3,4.6c1.3,0.3,2.4,0.9,3.2,2c-0.4,4.9-4.2,3.2-6.8,3.2c-2.7,0-5.4-0.3-7.9,1
	c-0.7,0.4-1.8,0.6-2.3,0.2c-7.8-4.8-17.1-6.9-24-13.6c-4.4-4.3-7.6-8.9-7.9-15.2c-0.1-1.3-0.4-2.5-0.8-3.7c0.7-2.1,0.9-4.3,0.9-6.5
	c0-3.6,0-7.2,0.1-10.8c1.2,2.5,1.1,5.2,1.8,7.8c0.7,2.4,0.7,5,1.9,7.3c0.6,0.5,0.4,1.4,1,1.9c0,0.6,0,1.3,0,1.9c0.3,0.3,0.6,0.6,1,1
	l0,0C41.3,223,41.6,223.4,42,223.7z"/>
<path fill="#2D2D2D" d="M34.4,220c1.5,1.6,2,3.6,2.5,5.6c1.2,5,3.7,9.1,7.5,12.5c4.6,4,9.6,7.3,15.5,9.2c1.5,0.5,3,0.9,4.4,1.8
	c1.4,0.9,2.9,1.3,4.5,1.4c0.2,0,0.4-0.1,0.6-0.1c1-0.1,2,0.2,3.1,0.1c4.6-0.6,6.3,2.9,8.3,5.9c2.9,4.7,8.7,6.5,11.4,11.3
	c0.3,0.9,0.3,1.8-0.2,2.7c-0.6,0.2-1.3,0.2-1.8-0.2c-5-3.4-10.1-6.8-15.1-10.1c-5.7-3.8-11.4-7.6-17.3-11.2c-2.8-1.7-6-2.9-9.1-4.3
	c-5.9-2.8-12.5-4.8-14.3-12.5c-0.1-0.5-0.1-0.9-0.1-1.4c0-0.2,0-0.5,0-0.7C34.3,226.8,34,223.4,34.4,220z"/>
<path fill="#474747" d="M85.4,317.6c-3.6-2.3-5.4-4-6.5-6.9c-3.2-8.3-8.3-15.5-12.6-23.1c-0.9-1.7-2.2-3.2-2.5-5.1
	c-0.1-0.5,0-1,0.6-1.1c0.3-0.1,0.7,0,0.9,0.1c1.1,0.7,1.9,1.7,2.6,2.8c3.4,5.2,6.8,10.5,10.2,15.7c1.8,2.7,2.9,5.7,5.1,8.1
	c0.7,0.7,0.8,1.8,0.3,2.7c-0.8,1.5-0.3,2.7,0.7,3.9C84.9,315.4,85.6,316.2,85.4,317.6z"/>
<path fill="#4D4D4D" d="M88,301.4c0.1,0.3,0.1,0.6,0.1,0.9c0.3,0.4,0.6,0.8,0.9,1l0,0c-0.4,0.4-0.8,1-1.3,1.3
	c-0.6,0.3-1.3,0.1-1.8-0.4c-0.6-0.5-1.2-1.1-1.6-1.7c-1.5-2.4-3.3-4.6-5.7-6.3c-1.4-1-2.2-2.7-3.1-4.2c-1.4-2.5-2.8-5-4.1-7.5
	c-0.6-1.1-0.6-2.1,0.6-2.9c1.3-0.8,0.6-2.4,1.6-3.4c0,0,0,0.1,0,0.1c0.2,0.4,0.7,0.6,1,1c0.8,1.1,1.8,2.2,2.5,3.4
	c3.4,5.9,6.7,11.8,10,17.7C87.4,300.8,87.7,301.1,88,301.4z"/>
<path fill="#888888" d="M82.5,321.5c0-0.3-0.1-0.5-0.1-0.8c0.5-0.7,1-1.2,1.9-0.9c0.3,0.1,0.6,0.3,0.8,0.4c3.9,1.9,4.3,1.6,4.4-2.8
	c0-1,0.3-1.8,1-2.5c0.5-0.5,0.9-1.2,1.3-1.9c0,0,0.2-0.1,0.2-0.1c1-0.5,1.6,0.1,2.3,0.7c0.3,0.3,0.6,0.7,0.8,1
	c0.2,0.6,0.6,1.2,0.9,1.8c0.1,0.4,0.2,0.9,0.2,1.3c1,5.8-1.2,12,2.9,17.3c1.1,1.4,1.1,3.1-0.5,4.3c-1.6,1.2-2.9,0.3-4-1
	c-0.4-0.4-0.6-0.9-1.2-1.1c0.1,0.7,0,1.3-0.4,1.8c-0.4,0.3-0.8,0.2-1.2-0.1c-1.7-1.3-2.7-3.1-3.9-4.7c-1.4-1.8-2.2-3.9-1-6.2
	c0.9-1.7,0.2-3-1-4.2C84.9,322.9,83.8,322,82.5,321.5z"/>
<path fill="#737373" d="M35.3,231.4c1.9,3.8,4.9,6.7,8.2,9.3c1.8,1.4,3.5,2.7,5.3,4.1c-0.5,1-1.2,1.5-2.3,1c-1.7-0.9-3.3-2-4.9-2.9
	c-1.1-0.6-2.3,0.3-2.1,1.6c0.1,0.5,0.2,0.9,0.3,1.4c0.1,1,1.5,2.1,0,2.8c-0.9,0.4-1.7-0.7-2.3-1.4c-0.5-0.6-0.9-1.3-1.4-1.9
	c-3.9-4.7-4.3-9.7-1.6-15.1c0,0,0,0.1,0,0.1C34.6,230.8,34.9,231.1,35.3,231.4z"/>
<path fill="#7A7A7A" d="M31,244.5c5,4.7,9,9.2,11.9,14.5c0.2,0.4,0.2,1-0.3,1.2c-0.2,0.1-0.7,0-0.9-0.1c-0.5-0.3-1.1-0.7-1.5-1.2
	c-3.5-3.7-6.6-7.8-8.9-12.3C31.2,246.2,31.3,245.7,31,244.5z"/>
<path fill="#696969" d="M28.5,249.6c-0.3-0.3-0.5-0.6-0.8-0.9C28,249,28.3,249.3,28.5,249.6z"/>
<path fill="#696969" d="M30.4,251.6c-0.3-0.3-0.6-0.7-0.9-1C29.8,250.9,30.1,251.2,30.4,251.6z"/>
<path fill="#2C2C2C" d="M8.4,46.1c0-2.2,0-4.5,0-6.7c0.8-3.5,0.8-7,0-10.6c0-2.2,0-4.5,0-6.7C7.5,21,8,19.7,8,18.5
	c1.6-3.2,0.7-6.6,0.9-9.9c0.2-4.6,4-7.3,7.8-4.8c11.3,7.7,24.8,10.9,36.3,18c5.4,3.3,10.7,6.5,17,7.8c2.7,0.6,3.8,2.6,3.9,5.3
	c0.1,2.8-0.7,4.9-3.5,6.2c-5.6,2.6-5.9,3.4-4.8,10c0.8,2.5-1,3.7-2.6,4.4c-1.7,0.8-3.3,1.4-4,3.3c-0.1,0.5-0.4,0.9-0.7,1.3
	c-0.7,0.8-1.6,1.1-2.6,1.1c-0.5,0-0.9,0-1.4,0.1c-6.2,1.9-7.1,5.7-3.8,11.1c3,4.9,4.4,11,11.8,11.3c0.9,0,1.6,1.5,0.9,2.7
	c-7.5,0.4-14.1-2.2-20.3-6.2c-3-1.9-5.6-4.3-7.2-7.5c-1-1.9-2.6-3.2-3.8-4.9c-0.8-1.1-0.5-2.2,0.8-2.6c1.4-0.4,2.8-0.7,4.2-0.9
	c2.5-0.4,5-1.1,7.1-2.7c0.6-0.5,1.2-1.1,0.8-2c-0.3-0.7-0.9-0.8-1.6-0.9c-1.6-0.2-3.2,0.2-4.7,0.5c-2.4,0.4-4.8,0.7-7-0.6
	c4.2-5.1,9.6-8.6,15-11.5c-1.6-0.2-3.6-0.5-5.4-1.4c-1.7-0.8-2.9-2.1-2.4-4.2c0.5-1.8,2.1-2.4,3.8-2.1c2.8,0.4,5.5,0.1,8-1
	c-3.4,0-6.2-1.1-7.9-4.5c-1.7-3.3-11.3-6.7-14.7-5.7c-1.1,0.4-1,1.1-1,1.8c-0.2,1.8-1.3,2.8-2.9,3.4c-3.2,1.2-2.8,3.1-0.8,5
	c1.5,1.5,3.3,2.9,1.9,5.2c-1.2,2.2-3.2,2.3-5.4,1.6c-3.3-1.1-2.9,3.5-5.5,3.5c-1.5-2.1-2.1-4.6-3.2-6.9c-0.1-0.2-0.5-0.4-0.8-0.3
	c-0.2,0-0.6,0.4-0.6,0.6c-0.1,1.3-0.2,2.5-0.3,3.8C9,46.7,8.7,46.7,8.4,46.1z"/>
<path fill="#646464" d="M43.9,212.2c-1.5-1.6-3-3.3-4.5-4.9c-1.9-1.9-2.8-3.9-1-6.3c0.9-1.2,0.7-2.3,0.2-3.6
	c-0.4-1.2-0.1-2.2,1.2-2.7c1.4-0.4,1.2-1.3,0.7-2.2c-0.4-0.7-0.9-1.3-1.3-2c-4.5-7.8-5.5-11-6.5-19.7c-0.1-1,0.1-1.9,0.6-2.8
	c0,0,0,0.1,0,0.1c0.2,0.4,0.6,0.7,0.9,1l0,0c0.3,0.3,0.6,0.6,0.9,1c2.9,3.7,6.7,6.3,10.4,9c5.7,4.3,11.6,8.4,17.6,12.3
	c3.3,2.2,7,3.7,10.5,5.6c0.2,0.4,0.2,0.9,0,1.3c-1.8,2.4-4.1,1.4-6,0.4c-2.8-1.3-5.4-2.8-8.1-4.3c2.7,1.5,5.4,2.8,8.1,4.4
	c0.8,0.5,1.6,1.1,2.5,1.5c4.7,2.2-0.5,5.5,0.9,7.7c2.7,4.5,2.7,5.3-1.6,7.2c0.7,1.1,1.3,2.2,1.9,3.3c2.2,4.2,1.9,4.9-3,6.4
	c-3.6-1.4-6.8-3.6-10.3-5.2c-0.4-0.2-0.8-0.5-1.2-0.7c-0.4-0.2-0.8-0.4-1.2-0.6c-1.9-0.5-2.3-2.6-3.6-3.6c0-0.6-1-0.2-0.4-0.3
	c0.2,0,0.2,0.1,0.3,0.3c0.8,2.9-0.7,3.5-3,2.8c-1.4-0.4-2.5-1.7-3.6-2.6c-0.6-0.3-0.9-0.9-1.2-1.4C44,213,43.9,212.6,43.9,212.2z"/>
<path fill="#393939" d="M86.1,136.3c-0.4-0.8-0.9-1.4-1.8-1.2c-3.2,1-6.3,0.1-9.4-0.7c-5.2-1.4-10.5-2.6-15.7-3.9
	c-2.8-0.7-5.5-1.6-6.8-4.6c-0.8-1.7-2.2-2.7-3.8-3.5c-2.5-1.3-5-2.8-7.6-4c-6.1-3-11-7.4-15-13c-1.4-2-1.2-3.3,1-4.7
	c1.1-0.7,2.2-1.2,3.4-1.8c3.9-0.3,7,1.4,8.9,4.6c5.5,8.8,13.3,13.5,23.4,14.6c1.1,0.1,2.2,0.6,3.5,0.5c-1.5-2.3-3.4-5.3,1-5.7
	c6.1-0.6,11.1-3.6,16.4-5.8c4.8-2,6.2-1.1,8.1,3.8c0.7,1.8,1.2,3.6,2.2,5.3c-0.2,6.3-2.8,11.9-4.6,17.8
	C89,135,88.4,137.1,86.1,136.3z"/>
<path fill="#393939" d="M14.1,49c0-0.5,0-1,0.1-1.4c0.4-2.3,1.6-4.5,0.5-7c-0.2-0.4,0.2-0.9,0.7-1.1c0.3-0.1,0.7-0.1,0.9,0.1
	c0.9,0.7,1.7,1.4,2.5,2.2c0.8,0.7,1.6,1.6,2.7,1.9c0.6,0.2,1.3,0.2,1.8-0.4c0.5-0.6,0.3-1.2-0.3-1.7c-1.4-1.1-2.8-2.1-4.1-3.2
	c-0.7-0.6-1.4-1.2-2.1-2c-0.7-0.8-0.4-1.6,0.7-2.3c1.7-0.9,1.7-1,1-2.2c-0.2-0.4-0.5-0.8-0.7-1.2c-0.1-0.2,0-0.7,0.1-0.8
	c0.2-0.2,0.6-0.3,0.8-0.2c1.6,0.5,3.1,1.6,5,1.5c0.3,0,0.6-0.2,0.8-0.5c0.1-0.2,0.1-0.7,0-0.9c-0.7-0.7-1.4-1.3-2.1-1.9
	c-0.6-0.7-1.3-1.4-1.8-2.2c-0.2-0.3-0.1-1,0.1-1.3c0.3-0.6,0.9-0.9,1.6-0.8c0.3,0,0.7,0,0.9,0.2c3.5,2.7,7.9,2.3,11.9,3.1
	c0.6,0.1,1.3,0.1,1.9,0.1c3.3,0.2,6,1.6,7.1,4.8c1.2,3.4,3.8,4.4,7,4.7c1.6,0.2,3.2,0,4.7,0.6c0.6,0.2,1.3,0.5,1.2,1.3
	C57.1,38.9,56.5,39,56,39c-1.9-0.3-3.5,0.3-4.9,1.4c-2.5,1.8-5.2,2.2-8.2,1.4c-0.6-0.2-1.3-0.1-1.9-0.1c-0.1,0-0.3,0.2-0.3,0.3
	c0,0.3,0,0.7,0.2,0.8c0.8,0.8,1.9,1.1,3,1.4c2.8,0.7,5.6,1.4,8.4,2.1c0.3,0.1,0.6,0.3,0.7,0.6c0.2,0.6-0.3,0.9-0.8,1
	C46,48.9,41.3,52.5,37,56.5c-1.7,1.6-3.5,2.1-5.6,2c-1.3-0.2-2.5-0.6-3.8-0.6c-4.5-0.2-7.8-2.6-10.7-5.7C16,51.2,15.1,50.1,14.1,49z
	"/>
<path fill="#555555" d="M26.6,130.6c0.6-0.4,1.2-0.7,1.8-1.1c2.3-0.1,3.4,1.9,5.2,2.7c0.4,0.3,0.7,0.6,1,1c0.3,0.4,0.5,0.8,0.7,1.3
	c0.1,0.2,0.1,0.5,0.1,0.7c-1.4,5.5,3.6,7.3,6.4,9.9c2.1,1.9,4.3,3.6,6.4,5.6c4.7,4.5,9.9,7.7,16.8,6.6c2.7,1.6,5.4,3.4,7.8,4.9
	c-2.7-2.1-6.5-3.2-8.7-6.6c-1.4-2.8-0.4-4.9,2.6-4c5.3,1.6,11,1.2,16.1,3.3c2.3,0.5,3.3,2.7,5,4.1c0.3,0.4,0.5,0.9,0.7,1.3
	c0.4,0.9,0.9,1.8,1.2,2.8c0.9,4.6,0.3,9.3,0.7,14c0.1,3.6-3.2,4.2-5.2,5.9c-4.9,0.3-9.5-0.5-13.6-3.3c-2.1-1.5-4.5-2.4-6.9-3.2
	c-5.3-1.8-10.6-3.5-15.5-6.2c-6.4-3.5-11.7-8.1-14.2-15.3c-1-2.8-3.2-5-4.7-7.6c-2.2-3.7-1.8-8.4-4.8-11.9
	C24.7,134.2,26,132.2,26.6,130.6z"/>
<path fill="#3B3B3B" d="M26.6,130.6c-0.1,2,0.5,3.8,1.8,5.3c0.8,1,1.5,2,2.3,3.1c1.2,1.6,1.2,1.6-0.1,3.7c-0.4,0.6-0.3,1.2,0,1.8
	c2.7,6.6,7.1,12.1,11.6,17.4c2.3,2.7,5.2,4.6,8.4,6.2c5.7,2.9,11.7,5.1,17.8,6.9c1.3,0.4,2.7,1.2,3.8,2.1c2.3,1.9,5,2.8,7.8,3.3
	c1.7,0.3,3.4,0.7,5.2,1.1c3.8,0.2,5,1.9,3.1,4.6c-1,1.3-1.9,2.5-1.7,4.2c0.4,2.8-0.4,4.7-3.4,5.2c-1.2,0.2-1.2,1.4-1.4,2.3
	c-0.1,0.5-0.4,0.9-0.7,1.3c-2.5,2-4.7,0.4-7-0.6c-0.1-0.2-0.3-0.4-0.4-0.7c0-0.3,0-0.7,0-1c0.5-0.1,1-0.2,1.4-0.4
	c0.7-0.4,0.8-1,0.4-1.6c-0.3-0.4-0.7-0.7-1-1c-1.3-1-2.7-1.7-4.2-2.2c-8.4-2.3-15.2-7.2-21.7-12.7c-3.5-2.9-6.7-5.9-9.9-9.1
	c-1-1-2-2.1-1.9-3.7c0.1-1.8-1-3-2.1-4.1c-2.6-2.7-4.1-6.1-6-9.2c-0.1-0.2-0.1-0.7,0-0.9c0.3-0.5,0.8-0.4,1.2-0.1
	c1.2,0.7,1.9,2.1,3.6,2.5c-0.1-1.7-1.1-2.8-2-3.8c-1.8-2.3-3.3-4.7-4-7.5c-0.3-1.3-1.1-2.3-1.8-3.3c-2.5-3.4-2.5-4.5,0-8.1
	C25.9,131.3,26.3,130.9,26.6,130.6z"/>
<path fill="#505050" d="M92.7,116.3c-0.9-0.3-1.8-0.8-2-1.9c-0.2-0.9-0.1-1.9-0.4-2.8c-1.1-3.5-1.9-3.8-5.6-2.5
	c-3,1.1-5.6,2.8-8,4.9c-0.8,0.7-1.6,0.9-2.6,0.8c-1.6-0.2-3.2-0.5-4.7-0.5c-2-0.1-3.2,0.4-2.8,1c0.6,0.9,1.7,0.8,2.6,0.9
	c1.4,0.2,2.8,0.5,4,1.5c0.9,0.8,0.7,2.4-0.4,2.7c-2.5,0.7-5,1.2-7.5,0.8c-3.6-0.6-7.2-1.5-10.7-2.4c-1.9-0.4-3.7-1.1-5.2-2.3
	c-3.1-2.5-6.2-5-9.3-7.5c-0.7-0.6-1.4-1.4-1.7-2.3c-1-2.8-2.9-4.5-5.5-5.6c-1.1-0.5-1.9-1.2-2.4-2.2c1.4-1.5,2.7-3,4.1-4.5
	c1-1,2.1-1.9,3.5-2.2c2.8,5.5,9,6.6,13.4,10c2.5,1.9,4.5,3.9,1.1,7.3c3.1,0.4,5.8,1.8,7.9-1.8c1-1.7,3.2-1,4.9-0.9
	c1.8,0.1,4.3,0.2,4.5-1.7c0.6-5.6,4.2-5.5,8.3-5.1c-4.4-0.4-8.9,0.8-13.2-1.2c-2.3-1.1-4.6-2.1-3.8-5.1c0.8-3,3.1-2.2,5.5-2.2
	c4.8,0,9,2.7,13.8,2.7c1.3,0.6,2.6,1.3,3.8,1.9l0,0c-0.4-1-0.8-1.9-1.2-2.9c-0.5-1-0.4-2,0.2-2.9c0.4-0.4,0.8-0.4,1.3-0.1
	c7.1,5.4,8.1,13.6,9.9,21.4c0.4,1.7-0.3,3.1-1.1,4.5C93.1,116,92.9,116.2,92.7,116.3z"/>
<path fill="#6C6C6C" d="M80.4,94.1c-0.5,1.1-1.4,1.8-2.7,1.4c-1.4-0.4-2.8-0.8-4.1-1.3c-3.1-1.1-6.3-1.1-9.5-1.2
	c-0.4,0-0.9,0.4-1.1,0.7c-0.3,0.6-0.1,1.3,0.6,1.6c4.2,2,8.6,3.3,13.3,3.5c1.9,0.1,3.8,0.1,5.7,0.1c0.8,0,1.6,0.2,2.2,0.9
	c0.2,0.2,0.2,0.6,0.2,0.9c0,0.1-0.2,0.3-0.3,0.3c-0.8,0.4-1.5,0.1-2.3,0c-2.9-0.4-5.7-0.5-8.6,0.2c-0.8,0.2-1.1,1.2-0.5,1.9
	c2.1,2.8,2.1,2.7-0.6,4.5c-2.4,1.6-4.9,2.1-7.7,1.6c-0.9-0.2-1.9-0.3-2.8-0.3c-0.1,0-0.4,0.2-0.4,0.2c0,0.3,0,0.7,0.2,0.9
	c0.7,0.7,2.3,0.7,2.2,1.5c-0.2,1.5-1.8,0.8-2.8,0.8c-1.9,0.1-3.8,0.1-5.7,0c-3.6-0.3-6.7-1.8-9.4-4.2c-0.4-0.3-0.4-0.9-0.1-1.3
	c0.2-0.2,0.6-0.3,0.8-0.3c1.4,0.2,2.7,1.1,4.2,0.8c0.4-0.1,0.9-0.3,1.2-0.7c0.3-0.4,0-0.9-0.4-1.3c-2.6-2.1-5.4-3.9-8.5-5.2
	c-1.3-0.5-2.7-1-3.9-1.8c-2.9-1.8-3.1-2.8-1.4-6.3c0.9-1.1,1.9-2.1,3.2-2.9c2.4-1.4,4.9-2.2,7.8-1.5c1.4,0.3,2.8,0.6,4.3,0.6
	c6.3,0,12.4,1.1,18.5,2.3c1.6,0.3,3.2,0.5,4.7,0.7C77.9,92.1,79,93.3,80.4,94.1L80.4,94.1z"/>
<path fill="#393939" d="M63.1,86.4c-1.7-1.2-3.7-1.8-5.8-1.9c-0.8,0-1.6,0-2.4-0.2c-3-0.5-4.6-2-4.4-5.2c0.1-2.7-0.5-4.7-2.9-6
	c-0.5-0.3-1.2-0.9-1.1-1.4c0.1-2.9-1.8-3.7-4.1-4.2c-0.3-0.1-0.6-0.3-0.8-0.5c-0.3-0.4-0.3-0.9,0.1-1.2c0.8-0.6,1.8-0.5,2.7-0.6
	c1.1-0.2,2.4-0.5,2.8-1.6c1.3-3.5,4.2-4,7.4-4.1c2.9,2.6,4.2,6.3,6.2,9.4c1.2,1.9,2.5,2.9,4.4,3.1c5.7,0.7,11.5,0.4,16.9-1.6
	c2.6-1,4.3-3.6,7.9-3.5c6.3,0.2,8.1,2.1,6.1,8.2c-0.4,1.2-0.5,2.5-0.9,3.7c-0.2,0.4-0.5,0.7-0.9,1c-0.2,0-0.5,0.1-0.7,0.1
	c-0.2-0.1-0.4-0.2-0.6-0.4c-0.1-0.6,0-1.3-0.2-1.9c-0.4-1.2-1.2-1.6-2.2-1.3c-3.3,1.2-6.1,2.7-6.8,6.6c-0.1,0.5-0.3,0.9-0.4,1.4
	c-0.5,1.7-1.7,2.7-3.5,2.8C74.2,87.3,68.6,87.9,63.1,86.4z"/>
<path fill="#3C3C3C" d="M13.7,56.8c0.1,0,0.3,0,0.4,0c0.3,0.1,0.6,0.2,0.8,0.5c3.7,5.3,9,9.1,12.9,14.1c0.7,0.9,1.6,1.5,2.5,2.2
	c2.3,1.8,3.9,4.2,5.6,6.5c0.7,0.9,0.5,1.9-0.6,2.4c-1.7,0.8-1.8,2-1.1,3.6c0.8,1.6,0,2.8-1.2,3.8c-0.5,0.4-1,0.8-1.5,1.2
	c-1.7,1-3.3,2-4.3,3.7c-0.6,0.9-1.6,1-2.6,0.8c-4.7-1.1-8.1-3.8-9.5-8.5C14,82.5,13,78,13.1,73.2c0.2-4.9-0.1-9.9-0.1-14.8
	C13,57.8,12.9,57.1,13.7,56.8z"/>
<path fill="#383838" d="M19,131.5c-1.1-2.5-1.3-5.2-1.8-7.8c-0.6-3.3-1.1-6.5-1.7-9.8c-0.8-5-1.5-10-2.3-15c1-1,0.4-3.3,1.9-3.5
	c1.9-0.2,2.2,1.9,2.9,3.2c1.8,3.4,3.9,6.5,6.5,9.3c2.1,2.3,4.1,4.8,6.2,7.2c1.7,1.9,2,4,0.7,6.1c-2.4,3.8-4.9,7.5-9.7,8.6
	C20.6,130,19.8,130.8,19,131.5z"/>
<path fill="#636363" d="M83.3,156.5c-5.4-0.9-10.9-1.3-16.2-3.3c-0.6-0.2-1.3-0.4-1.7,0.2c-0.5,0.8,0.3,1.4,0.6,2.1
	c-3,0.6-6.7-1.7-6.8-4.1c-0.2-2.9,2.4-3.8,7.1-3c-9.4-5.2-17.6-12.5-28.3-15.1c-2-0.5-3.8,0.2-5.5,1c-1.7-1.3-3.1-2.9-4-4.9
	c1.3-1.4,2.6-2.8,3.9-4.1c2.6-2.8,5.8-3,9.1-1.6c2.3,0.9,4.5,2.3,6.6,3.6c2.5,1.4,4.9,2.8,7.3,4.3c0.5,0.6,1.4,0.4,1.9,0.9l0,0
	c7.3,5.4,14.5,10.8,21.8,16.2c1.8,1.3,3.8,1.5,5.7,2.1C87.8,153.7,84.4,154.7,83.3,156.5z"/>
<path fill="#4E4E4E" d="M84.2,151.7c-2.1,0.9-4.1,0.1-5.9-0.9c-2.2-1.3-4.4-2.6-6.3-4.3c-2.8-2.4-5.7-4.6-8.6-6.8
	c-2.6-2-4.8-4.2-6.1-7.2c1.8,0.6,3.8,0.9,5.3,1.9c4.7,3,10.3,3.9,15.2,6.5c1,0.5,1.8,0.4,2-1c0.1-0.9,0.8-1.3,1.6-1.6
	c1.2-0.4,2.4-0.7,3.6-1.1c0.4-0.2,0.7-0.5,1-0.9l0,0c2.9-4.4,4.6-9.2,4.3-14.4c-0.2-2.5,1.8-3.7,2.3-5.6c0,0,0.3-0.3,0.3-0.3
	c2.8-0.7,2.8,1.3,3,3.1c0.3,6.4-1.9,12-5.3,17.4c-1.6,2.6-4.2,3.9-6,6.1c-1.4,1.1-1.6,2.3-0.7,4C84.8,148.1,85.9,149.9,84.2,151.7z"
	/>
<path fill="#3C3C3C" d="M9.3,53.8c0-0.3,0-0.7,0.1-1c0.9,1.6,0.9,3.3,0.9,5c0,4.4,0,8.8,0,13.2c-0.9-1.6-0.9-3.3-0.9-5
	C9.3,62,9.3,57.9,9.3,53.8z"/>
<path fill="#393939" d="M88.8,87.1c0.6-2.9,2.4-5.1,4-7.5l0.1,0.1c0.5,0.5,1,1.1,1.3,1.8c0.3,3.2-1.1,5.3-4.1,6.3
	C89.5,87.8,89.1,87.6,88.8,87.1z"/>
<path fill="#3C3C3C" d="M11.2,82.6c-0.8-1.4-0.9-2.9-0.9-4.5c0-1.7,0-3.4,0-5.1c0.8,1.4,0.9,2.9,0.9,4.5
	C11.2,79.2,11.2,80.9,11.2,82.6z"/>
<path fill="#383838" d="M13.2,97c-1.4-2.4-0.8-5.1-0.9-7.7C13.6,91.7,13.1,94.4,13.2,97z"/>
<path fill="#505050" d="M80.4,94.1c-1.8-0.3-3-1.4-3.9-2.8C78.3,91.5,79.5,92.6,80.4,94.1z"/>
<path fill="#3B3B3B" d="M8.4,46.1c0.3,0,0.6,0,0.9,0c0,1.3,0,2.6,0,3.8C8.5,48.8,8.4,47.4,8.4,46.1z"/>
<path fill="#393939" d="M86,88.2c0.9-0.4,1.8-0.8,2.8-1.1c0,0,0.2,0.3,0.2,0.3c0.3,1.7-0.9,1.7-2,1.7C86.6,88.9,86.3,88.6,86,88.2z"
	/>
<path fill="#393939" d="M84.3,90.3c-0.3,0-0.7-0.1-1-0.1c0.6-0.3,1.2-0.7,1.9-1c0.1,0.1,0.2,0.3,0.3,0.4
	C85.2,90.2,84.9,90.6,84.3,90.3z"/>
<path fill="#4E4E4E" d="M57.4,132.5c-0.6-0.3-1.3-0.6-1.9-0.9C56.1,131.9,56.7,132.2,57.4,132.5z"/>
<path fill="#393939" d="M86.1,136.3c-0.3,0.3-0.6,0.6-1,0.9C85.4,136.9,85.8,136.6,86.1,136.3z"/>
<path fill="#393939" d="M85.1,89.2c0.3-0.3,0.6-0.6,1-0.9c0,0,0.3,0.3,0.3,0.3c0,0.6-0.4,0.9-1,0.9L85.1,89.2z"/>
<path fill="#525252" d="M35.2,169.9c-0.3-0.3-0.6-0.6-0.9-1C34.6,169.3,34.9,169.6,35.2,169.9z"/>
<path fill="#525252" d="M34.3,169c-0.3-0.3-0.6-0.7-0.9-1C33.7,168.3,34,168.6,34.3,169z"/>
<path fill="#A1A1A1" d="M327.1,332.2c0,0.3-0.1,0.6-0.1,0.9c-3.3,6.9-8.3,12.6-12.4,17.4c3.8-2.8,6.2-8.4,10.1-12.7
	c2.1-2.4,4.8-4.2,6.8-6.7c0.6-0.8,1.3-1.5,2.4-0.9c1.1,0.7,1.4,1.9,0.9,2.9c-0.7,1.6-2.1,2.7-3.1,4.1c-4,5.7-7.7,11.8-13.7,15.7
	c-1.5,1-1.8,3-3.4,4c6.5-6.1,12.7-12.4,17.5-20c1.2-1.9,3.2-3.2,5.5-0.9c0.3,0.4,0.4,0.8,0.5,1.3c0,0.5-0.1,0.9-0.3,1.3
	c-0.2,0.4-0.4,0.8-0.7,1.2c-0.2,0.4-0.5,0.7-0.7,1.1c-0.1,0.2-0.2,0.4-0.4,0.6c-0.2,0.4-0.5,0.8-0.7,1.2
	c-7.4,8.4-11.5,19.2-18.7,27.8c-0.5,0.6-1,1.3-1.6,1.7c-3.3,0.9-5.2,2.7-4.7,6.6c0.3,2.8-5.7,9.8-8.5,10.3c-1.6,0.3-2.9-0.3-3.5-1.7
	c-0.9-2-2.5-4.3-2-6.3c1-4.1-0.4-7.8-1.1-11.6c0.9-3.6,4.5-6.3,3.7-10.5c1.6-3,3.7-5.3,6.6-7.2c3.7-2.4,6.9-5.6,9.2-9.2
	c3.3-5.1,6.9-10,11-14.4c0.2-0.4,0.5-0.7,0.7-1.1c0.3-0.3,0.6-0.6,0.9-0.9c0.3-0.3,0.6-0.6,0.9-0.9c0.2-0.1,0.3-0.3,0.5-0.4
	c0.4-0.2,0.8-0.3,1.2-0.3c0.4,0.1,0.8,0.2,1.2,0.5c0.5,0.8,0.7,1.5-0.1,2.2l0,0c-0.3,0.3-0.6,0.7-0.9,1l0,0c-0.6,0.5-0.4,1.4-1,1.9
	l0,0c-0.3,0.3-0.6,0.6-0.9,1l0,0C327.7,331.5,327.4,331.9,327.1,332.2z"/>
<path fill="#BBBBBB" d="M336.7,337c-1-0.5-1.9-0.4-2.6,0.4c-0.7,0.8-1.4,1.8-2,2.6c-3,3.9-6,7.8-9,11.8c-0.6,0.8-1.4,1.3-2.4,1.5
	c-1.7,0.3-2.7,1.5-3.8,2.7c-1.8,2-3.7,3.9-5.7,5.8c-0.3,0.3-0.9,0.3-1.3,0.2c-0.5-0.2-0.3-0.8-0.1-1.2c0.2-0.3,0.4-0.5,0.6-0.8
	c3.5-3.9,7.2-7.7,10.6-11.7c4.3-5,8.1-10.3,11.8-15.7c0.2-0.2,0.1-0.6,0.2-0.9c-0.7-0.5-1.1,0.1-1.6,0.5c-3.3,2.8-5.6,6.5-8.5,9.7
	c-1.8,2-3.4,4.2-5,6.4c-2.5,3.2-6,5.2-8.9,7.9c-0.2,0.2-0.7,0.2-0.9,0c-0.5-0.3-0.4-0.9-0.1-1.2c0.7-0.7,1.4-1.3,2.1-1.9
	c3.8-3.2,7.4-6.5,9.8-11c1.8-3.4,4.5-6.2,7.1-9c1.3,0.3,2.1-0.6,2.8-1.4c4.8-6.1,9.7-12.1,14.4-18.2c1.4-1.9,2.6-4,3.7-6.1
	c1-1.7,2.1-2.8,4.2-1.9c0.9,0.4,1.9,0.1,2.7-0.3c-0.9,4-2.8,7.6-4.3,11.5c-0.8,2.2-1.5,4.5-1.3,6.9c0.1,0.2,0.1,0.4,0.2,0.7
	c0.2,0.7,0.2,1.3,0.2,2c0,0.4-0.2,0.9-0.4,1.3c-2.1,2.7-6.1,4.5-4.5,9.1c0,0.4,0,0.9,0,1.3c-0.2,0.6-0.5,1.1-0.8,1.7
	c-0.2,0.4-0.3,0.8-0.5,1.2c-0.5,1-0.4,2.1-0.3,3.2c0.1,2.1-0.8,3.6-2.8,4.4c-4.3-0.3-5,3.8-7.1,6.1c-1.7,1.9-3.2,3.8-5.4,0.6
	c-0.1-0.4-0.2-0.8-0.2-1.3c0.1-0.6,0.4-1.1,0.7-1.7c0.2-0.3,0.3-0.7,0.5-1c0.2-0.3,0.4-0.6,0.6-0.9c0.2-0.3,0.4-0.5,0.6-0.8
	c0.2-0.3,0.3-0.6,0.5-0.9c0.1-0.3,0.3-0.6,0.5-0.8c0.2-0.2,0.4-0.5,0.6-0.7c0.2-0.2,0.4-0.4,0.6-0.7c0.2-0.2,0.4-0.5,0.5-0.7
	c0.1-0.3,0.2-0.5,0.4-0.8c0.2-0.3,0.3-0.5,0.5-0.7c0.2-0.2,0.4-0.4,0.6-0.7c0.3-0.4,0.5-0.8,0.5-1.2c0-0.3,0.1-0.6,0.2-0.9
	c0.1-0.3,0.3-0.5,0.5-0.8c0.2-0.2,0.4-0.5,0.6-0.7c0.2-0.2,0.4-0.4,0.6-0.7c0.1-0.3,0.3-0.5,0.4-0.8c0.2-0.2,0.3-0.5,0.2-0.8
	C337.2,337.4,337,337.2,336.7,337z"/>
<path fill="#C3C3C3" d="M327.1,328.3c-4,4.7-7.8,9.6-11.1,14.9c-1.5,2.4-3.8,4.3-5.9,6.2c-3.3,3.2-6.8,6.2-9.9,9.6
	c-0.2,0-0.4,0-0.7,0c-0.8-0.1-1.5,0-2.3,0.4c-1.3,0.6-2.5,0.3-3.4-0.9c-0.9-1.2-0.6-2.3,0.1-3.5c2.1-3.7,1.7-8,2.6-11.9
	c1.4-6.2-1.8-12.2,0.4-18.1c0.4-0.2,0.8-0.3,1.3-0.4c0.8,0.1,1.5,0.5,2,1.1c4,3.8,5.2,3.7,8.6-1c1.4-1.9,2.3-4.8,5.7-3.1
	c0.3,0.6,0.6,1.3,1,1.9c2.4,3.2-0.3,5-2.2,6.6c-2.8,2.3-5.5,4.1-3.4,8.4c0.7,1.5-0.6,3-1.5,4.2c0.1,0-0.1,0.4,0,0.4
	c0.2,0.8,0.2,1.6,0.2,2.4c1.1-1.2,0.9-2.9,1.6-4.2c0.2-0.4,0.6-0.7,0.9-0.9c0.3-0.3,0.7-0.5,1-0.8c1.1-1,2.3-2,3.3-3.1
	c0.3-0.3,0.6-0.6,0.9-0.9c0.3-0.3,0.6-0.6,0.9-1c2-1.9,3.2-4.4,5.2-6.2c0.6-0.5,0.5-0.9-0.2-1.1c0.1-2.4,1.5-4.2,2.9-5.9
	c0.8-1,1.7-1.9,2.5-2.9c4.1-5.2,7.5-10.7,10-16.8c1.3-3.1,3-6,4.5-9c2.2-4.4,5.7-7.6,9.1-11c0.2-0.2,0.7-0.2,0.8-0.1
	c0.2,0.1,0.2,0.5,0.3,0.8c0,0.1,0,0.3-0.1,0.5c-2,4.8-4,9.7-6.2,14.5c-1,2.2-2.2,4.2-3.3,6.4c-0.9,1.9-2.1,3.6-3.4,5.2
	c-2.7,3.4-5.2,6.9-7.8,10.3c-0.6,0.8-1,1.7,0.3,2.4c0.8,2-0.2,3.1-1.9,3.8l0,0c-0.3,0.3-0.6,0.6-0.9,0.9l0,0c-0.3,0.3-0.6,0.6-0.9,1
	l0,0C327.7,327.7,327.4,328,327.1,328.3z"/>
<path fill="#E1E1E1" d="M351.9,249.5c0.9,0,1.7,0.1,1.4,1.3c-0.3,1.3-1.2,2.2-2.1,3.1c-2.7,2.7-5.3,5.5-8.1,8.2c-1,1-2,2.1-2.5,3.5
	c-0.8,2.2-2.2,3.8-3.6,5.6c-3.7,4.6-7.2,9.3-10.8,14c0,0.2,0,0.4,0,0.6c0,0.4-0.1,0.8-0.2,1.2c-0.1,0.2-0.2,0.4-0.3,0.6
	c-0.2,0.4-0.4,0.8-0.6,1.1c-1.2,2.3-3.2,3.9-4.5,6.1c-1.1,1.8-2.6,2.4-4.4,1.3c-1.7-1.1-2-2.7-1.3-4.6c0.6-1.6,1.6-3,2.6-4.3
	c0.5-0.5,0.5,0.6,0,0.2c-0.3-0.2-0.3,0.4-0.5,0.5c-1,0.9-1.5,2.1-2,3.2c-0.2,0.4-0.3,0.8-0.5,1.2c-0.3,0.6-0.6,1.2-1,1.8
	c-1.6,1.9-2.9,4.1-5.7,4.6c-3.3-0.9-2.7-3.7-2.1-5.6c1.1-3.2,0.5-6.1-0.1-9.1c1-3.1,4.1-4.4,5.7-7c1.6-1.9,3.9-2.7,6.1-3.7
	c3.3-1.6,6.1-3.5,7.9-6.7c2.3-1.7,4.2-4.1,6.9-5.3c0.4-0.2,0.7-0.5,1.1-0.7c0.3-0.3,0.7-0.5,1.1-0.8c4.2-3,9.1-4.9,12.9-8.5
	c0.4-0.1,0.7-0.3,1.1-0.4c0.3-0.1,0.6-0.3,0.9-0.5c0.3-0.2,0.6-0.4,0.8-0.6c0.1-0.1,0.3-0.2,0.4-0.3c0.3-0.1,0.6-0.1,1-0.1
	C351.6,249.4,351.7,249.4,351.9,249.5z"/>
<path fill="#AAAAAA" d="M307.9,297.6c1.9-1.3,3.3-3.1,4.8-4.8c0.3-0.3,0.7-0.6,1-0.9c3.2,1.7,1.4,4.1,0.4,5.8
	c-2.4,4-2.2,9.4-6.6,12.4c-1.1,0.7-0.5,2,0.5,2.8c0.7,0.6,1.4,1.1,1.9,1.9c1.3,3.1-1.4,4.4-2.6,6.5c4.4-7.1,9.3-13.7,15.1-19.7
	c0.3-0.3,0.7-0.5,1-0.8c0.4-0.2,0.8-0.3,1.2-0.3c0.2,0,0.4,0.1,0.6,0.1c0.7,1,0.7,2,0.1,3.1c-0.7,1.2-1.4,2.5-2.1,3.7
	c-1.7,2.6-3.4,5.2-4.4,8.2c-0.2,0.5-0.8,0.9-1.2,1.4c-0.6,0.5-0.4,1.4-1,1.9l0,0c-0.3,0.3-0.6,0.6-0.9,1l0,0c-0.6,0.5-0.4,1.4-1,1.9
	l0,0c-1.6,0.9-2.6,2.3-3.4,3.9c-1.8,3.7-5.2,5.5-8.6,7.3c-1.1,0.5-2.1,0.1-2.2-1c-0.2-2.3-1.5-4.2-2.1-6.3c-1.6-3.1-3.4-6.3-1.2-9.9
	c1.7-2.4,2.4-5.1,3.1-7.9C301.4,303.5,303.2,299.3,307.9,297.6z"/>
<path fill="#E1E1E1" d="M327.1,286.1c1.8-1.1,2.8-3,4.1-4.6c2.9-3.6,5.3-7.6,8.7-10.8c0.5-0.4,0.9-0.9,1.2-1.5
	c2.1-4.1,6-6.5,9.2-9.6c0.4-0.4,1.1-0.9,1.7-0.3c0.5,0.5,0.1,1.2-0.2,1.7c-2.5,3.1-3.9,6.9-6.8,9.8c-0.6,0.5-0.9,1.3-1.3,2
	c-0.4,0.7-0.7,1.5-1.2,2.1c-5.8,6.6-9.7,14.6-15.3,21.4c-1,1.3-1.7,2.7-2,4.3l0,0c-0.3,0.3-0.6,0.7-1,1l0,0
	c-3.3-0.2-3.5-0.7-2.1-3.7c1.1-2.3,3.6-4.3,2-7.3c-0.1-0.9,0.4-1.7,0.9-2.4c0.3-0.5,0.7-1,1.1-1.4
	C326.4,286.4,326.8,286.2,327.1,286.1z"/>
<path fill="#CCCCCC" d="M327.1,286.1c0,0.3,0,0.6-0.1,0.9c-0.4,0.3-0.6,0.7-0.9,1c-0.3,0.6-0.7,1.3-1,1.9c-1,5.6-4,10.2-7.2,14.7
	c-3,0.8-4.9,3-6.8,5.3c-1.2,1.5-1.8,3.8-4.2,4c-1,0.6-1.4,2.6-2.8,1.7c-1-0.6,0.2-2,0.5-3c0.5-1.5,1.1-3,0.9-4.6
	c-0.1-1.6,0.7-1.8,2.1-1.6c1.2,0.2,1.9-0.7,1.8-1.7c-0.5-3.5,1.3-6,3-8.7c0.8-1.3,2.2-2.4,1.3-4.3c0.1-4.3,2.7-7.3,5.7-10
	c0.6-0.5,1.4-0.9,2.1-0.1c0.6,0.7,0.5,1.5,0.1,2.2c-0.4,0.8-0.9,1.7-1.5,2.4c-0.9,1.3-1.8,2.6-2.7,3.9c-0.4,0.5-0.8,1-1,1.6
	c-0.5,0.9-0.2,1.9,0.7,2.5c0.8,0.5,1.6,0.2,2.1-0.5c1.7-2.3,3.4-4.6,5-6.9c0.3-0.3,0.6-0.7,1-1l0,0c0.3-0.3,0.7-0.6,1-1l0,0
	C326.5,285.5,326.8,285.8,327.1,286.1z"/>
<path fill="#A2A2A2" d="M305,343.7c0.9-1.1,1.8-2.2,2.7-3.4c0.4-0.5,0.7-1.1,0.4-1.8c-0.3-0.7-0.9-0.7-1.6-0.6
	c-0.2,0-0.3,0.1-0.5,0.1c-1,0.3-1.9,0.2-2.4-0.9c-0.3-0.8,0-1.6,0.6-2.1c2.1-1.9,4.2-4,6.4-5.7c2.1-1.6,3.8-3.4,4.8-5.8l0,0
	c0.3-0.3,0.6-0.6,0.9-1c0.6-0.7,1.2-1.3,1.9-2c0.8,0.1,1.5,0.1,2,0.9c-0.2,0.7-0.6,1.5-0.7,2.2c-0.6,3.4-2,6.2-4.5,8.6
	c-0.7,0.6-1.4,1.3-1.5,2.3c-0.1,0.5,0.3,0.8,0.8,1c0.2,0.1,0.3,0.3,0.5,0.4c0.4,2.3-2.9,3.2-2.2,5.6c-1.7,3.8-4.2,6.9-7.9,9
	c-1.1-1.2,0.1-1.8,0.4-2.5c0.3-0.7,0.9-1.3,1.4-1.9C307.6,344.8,307.4,344.5,305,343.7L305,343.7z"/>
<path fill="#BBBBBB" d="M330,325.4c0.6-1.3,1.3-2.5,1.9-3.8c0.3-0.3,0.7-0.6,1-1c1.7-1,2.7-2.7,3.8-4.2c3.8-5.1,7.6-10.2,9.8-16.3
	c0.7-1.8,1.8-3.4,2.7-5c0.1-0.2,0.6-0.4,0.8-0.3c0.5,0.2,0.6,0.7,0.5,1.1c-3.4,7.7-6.7,15.5-12.4,21.9c-2.6,3-4.9,6.3-7.3,9.4
	C330.6,326.7,330.3,326.1,330,325.4z"/>
<path fill="#7E7E7E" d="M320.3,321.5c-0.7-0.3-1.3-0.6-2-0.9l0.1,0c0.4-0.2,0.7-0.6,0.9-1c2.7-3,4.8-6.4,6.6-10
	c2.5-5,5.7-9.6,8.8-14.3c0.5-0.8,1.1-1.5,1.9-2.5c-0.3,2.7-0.5,3.7-1.7,5.5c-3.6,5.3-6.6,10.9-9.2,16.8c-1,2.3-3,3.7-4.5,5.6
	C321,321,320.7,321.3,320.3,321.5L320.3,321.5z"/>
<path fill="#969696" d="M349.2,238.1c0.5-0.8,0.9-1.6,1.4-2.4c0.7-1,1-2.6,2.6-2.3c1.1,0.2,0.9,1.9,1.5,2.7c0,1.3,0.1,2.6,0.1,4
	c-0.3,0.3-0.7,0.5-1,0.8c-1.5,0.4-2.3,1.6-2.9,2.9c-1.9,4-5.4,6.4-8.5,9.4c-1.1,1-2.3,1.8-3.8,0.7c-1.2-1-0.9-2.2-0.3-3.4
	c0.6-1.1,0.6-2.4,1.2-3.6c2.1-1.8,4.1-3.9,6.2-5.8c0.3-0.5,0.8-0.9,1.2-1.4c0.2-0.3,0.5-0.6,0.7-0.9c0.3-0.3,0.6-0.4,1-0.6
	C348.8,238.1,349,238.1,349.2,238.1z"/>
<path fill="#696969" d="M354,240c0.3,0,0.6,0.1,0.9,0.1c0.6,3.6-1.5,6.4-2.9,9.4l0.1,0.1c-0.3,0.4-0.6,0.8-1,1l0.1-0.1
	c-0.3,0.4-0.6,0.7-1,1l0.1-0.1c-0.3,0.5-0.7,0.8-1.2,1c-0.3,0.1-0.6,0.2-0.9,0.4c-4,3.5-8.7,5.6-13.1,8.4c-0.4,0.2-0.7,0.5-1.1,0.7
	l0,0c-2.7,0.3-2.8,0.1-2-3.1c2.9-4,8.4-3.6,11.9-7c3.1-3,6.2-5.9,8.1-9.8C352.1,241,352.7,240.1,354,240z"/>
<path fill="#A2A2A2" d="M322.3,327.3c1-1.3,1.9-2.5,2.9-3.8c0.5-0.6,1-1.2,1.6-1.7c0.2-0.2,0.7-0.2,0.9-0.1c0.2,0.1,0.4,0.6,0.4,0.8
	c-0.5,1-0.9,2-1.6,2.9c-2.9,3.6-6,7.1-9,10.6c-0.6,0-1.2-0.1-1.7-0.5c-0.1-0.2-0.2-0.4-0.3-0.5c1-1,2-1.9,2.9-2.9
	c0.6-0.4,0.4-1.4,1-1.8l0,0c0.3-0.3,0.6-0.7,1-1l0,0c0.3-0.3,0.6-0.6,0.9-1l0,0C321.7,328,322,327.7,322.3,327.3L322.3,327.3z"/>
<path fill="#C3C3C3" d="M319.4,330.3c-0.3,0.6-0.7,1.2-1,1.8C318.8,331.5,319.1,330.9,319.4,330.3z"/>
<path fill="#BBBBBB" d="M329,330.2c0.3-0.6,0.6-1.3,1-1.9C329.6,329,329.3,329.6,329,330.2z"/>
<path fill="#C3C3C3" d="M316.5,318.7c0.3-0.6,0.7-1.3,1-1.9C317.2,317.5,316.9,318.1,316.5,318.7z"/>
<path fill="#C3C3C3" d="M314.6,321.6c0.3-0.6,0.7-1.3,1-1.9C315.3,320.3,314.9,321,314.6,321.6z"/>
<path fill="#A2A2A2" d="M320.3,321.6c0.3-0.3,0.6-0.6,0.9-0.9C320.9,320.9,320.6,321.2,320.3,321.6z"/>
<path fill="#C3C3C3" d="M332.9,320.6c-0.3,0.3-0.6,0.6-1,1C332.2,321.3,332.5,321,332.9,320.6z"/>
<path fill="#A2A2A2" d="M319.3,319.6c-0.3,0.3-0.6,0.7-0.9,1C318.7,320.3,319,319.9,319.3,319.6z"/>
<path fill="#C3C3C3" d="M315.6,319.7c0.3-0.3,0.6-0.6,0.9-1C316.2,319,315.9,319.4,315.6,319.7z"/>
<path fill="#A2A2A2" d="M314.4,335.8c0.4-0.3,0.7-0.5,1.1-0.8c0,0,0.2,0.3,0.2,0.3c-0.1,0.7-0.3,1.1-1.1,0.7L314.4,335.8z"/>
<path fill="#BBBBBB" d="M330,328.3c0.3-0.3,0.6-0.6,0.9-1C330.6,327.7,330.3,328,330,328.3z"/>
<path fill="#C3C3C3" d="M322.2,327.4c-0.3,0.3-0.6,0.6-0.9,0.9C321.6,328,321.9,327.7,322.2,327.4z"/>
<path fill="#C3C3C3" d="M316.5,322.6c-0.3,0.3-0.6,0.6-0.9,1C315.9,323.2,316.2,322.9,316.5,322.6z"/>
<path fill="#BBBBBB" d="M327.1,332.2c0.3-0.3,0.6-0.6,0.9-1C327.8,331.6,327.4,331.9,327.1,332.2z"/>
<path fill="#C3C3C3" d="M321.3,328.3c-0.3,0.3-0.6,0.7-0.9,1C320.7,329,321,328.6,321.3,328.3z"/>
<path fill="#C3C3C3" d="M320.4,329.3c-0.3,0.3-0.6,0.6-1,1C319.8,329.9,320.1,329.6,320.4,329.3z"/>
<path fill="#BBBBBB" d="M328.1,331.2c0.3-0.3,0.6-0.7,0.9-1C328.7,330.6,328.4,330.9,328.1,331.2z"/>
<path fill="#D7D7D7" d="M319.4,208.3c-0.3,0-0.6,0-1,0c-0.6-0.6-0.6-1.3,0-1.9c0-0.3,0-0.6,0-0.9c0.4-0.3,0.6-0.7,0.9-1
	c0.1-1.1,0.3-2.4-1.1-2.8c-2.6-0.8-2.9-3.6-4.6-5.2c-0.5-0.4-0.3-1.2-0.1-1.8c0.9-2.7,0.5-5.2-0.6-7.8c-0.9-2.2-1.1-4.6-0.6-7
	c0.4-1.7,0.3-3.5,0.4-5.2c0-1.6,0-3.2,0.9-4.6c1,0,2-0.2,2.9-0.5c0.8-0.2,1.5-0.6,2.2-1c0.5-0.3,1.1-0.7,1.6-0.9
	c0.8-0.3,1.6-0.8,2.5-0.8c2.3,0,2.7,2.4,4.2,3.5c0.6,1.5,0.3,3.2,0.9,4.7c-0.8,2.8-3.8,2.6-5.1,4.1c7-4,12.9-10.1,20.2-14.3
	c1.4-0.8,1-2.6,1.7-3.8c6.1-4.8,5.9-12.5,8.7-18.8c1.1-2.4,1.1-6.1,5.5-4.8c-1.5,5.1-1.5,10.2-0.9,15.4l0,0c-0.6,0.5-0.4,1.4-0.9,2
	c-0.4,3.1-1.4,5.9-3,8.6c-4.3,6.5-11.2,10-17.3,14.3c-4.3,3-8.1,7.3-12.9,7.3c2-1,5.1,2,8.2,0.5l0,0c0.3-0.3,0.7-0.6,1-0.9
	c0.3,0,0.6,0,0.9,0c0.5-0.6,1.4-0.4,2-0.9l0,0c5.1-1.2,5.1-1.2,4.7,2.6c-0.3,0.4-0.6,0.7-0.9,1.1c-0.7,0.6-1.6,0.9-2.3,1.5
	c-1.4,0.7-3,0.9-4.3,1.8c-3.6,0.7-7.1,1.5-10.3,2.4c1.9-0.4,4.1-1.2,6.4-1.6c0.8-0.2,1.6-0.5,2.4-0.6c0.9,0,1.6-0.3,2.4-0.7
	c1.5-0.8,3.3-1,4.7-2.2c1.3-0.5,2-2,3.3-2.5c1.6-0.7,3.6-1,2.6,2l0,0c-0.3,0.3-0.6,0.6-1,0.9l0,0c-0.3,0.3-0.6,0.6-0.9,0.9l-0.1,0.1
	c-0.2,0.4-0.5,0.6-0.9,0.9l-0.1,0.1c-0.2,0.3-0.5,0.6-0.8,0.8c-2.1,1.7-4.3,3.3-6.7,4.5c-0.6,0.3-1.2,0.5-1.6,1
	c-2.9,2.6-6.1,4.6-9.8,5.9c-0.3,0.1-0.6,0.3-0.8,0.5c-0.2,0.4-0.5,0.8-0.5,1.2c0.1,0.5,0.7,0.7,1.1,0.5c0.9-0.3,1.8-0.6,2.7-1
	c2-1,3.9-2.1,5.9-3.2c0,0.4,0.1,0.8,0.1,1.2c0.1,0.2,0.3,0.3,0.4,0.5c0.4,0.6,0.5,1.2,0.4,1.9c-2.8,2.9-5.5,5.9-9.3,7.5
	C321.4,210.5,321.1,208.7,319.4,208.3z"/>
<path fill="#C1C1C1" d="M322.3,211.3c0.3-0.2,0.6-0.3,0.8-0.6c2.1-3.2,5-5.6,7.8-8.1c-0.2-0.2-0.3-0.4-0.2-0.6
	c0.1-0.2,0.2-0.3,0.3-0.3l0,0c2.3-0.1,4.2-1.2,6-2.7c1.6-1.3,3.3-2.5,5-3.7c0.5-0.4,1.1-0.6,1.7-0.8c0.6-0.2,1.3-0.2,1.7,0.4
	c0.2,0.3,0.1,1-0.2,1.3c-1.2,1.3-2.4,2.6-3.7,3.7c-1.6,1.5-3.4,2.9-5.1,4.4c-1.4,1.3-3.1,2.2-4.7,3.2c-2.2,1.3-4.3,2.7-6.4,4.1
	c-0.5,0.3-1.2,0.9-0.8,1.5c0.5,0.9,1.4,0.5,2.1,0.2c0.6-0.2,1.1-0.6,1.7-0.9c3.7-2.2,7.4-4.4,11-6.6c0.4-0.2,0.9-0.4,1.3-0.6
	c0.1,0,0.4,0,0.4,0.1c0.1,0.3,0.2,0.7,0.1,0.8c-2.4,2-4.9,4-7.4,6c-0.7,0.6-1.7,0.9-2.4,1.5c-2.5,2-5.1,3.2-8.4,2.6
	c-1.4-0.3-2.8,0.3-4.1,1c-1.1,0.6-2.1,0.5-3.2-0.1c1.6-2,3.9-3.2,5.7-4.8C321.6,211.8,321.7,211.2,322.3,211.3z"/>
<path fill="#A4A4A4" d="M342.5,222.8c1,0.3,1.1,0.9,0.9,1.8c0,0,0,0,0,0c-0.3,0.3-0.6,0.7-0.9,1l0,0c-0.3,0.3-0.6,0.7-1,1l0,0
	c-0.3,0.3-0.6,0.7-1,0.9l0,0c-0.3,0.3-0.6,0.7-1,0.9c-3.8,2.7-7.8,4.9-12.1,6.7c-2.3,1-4.6,1.3-7,1.5c-0.2,0-0.6-0.2-0.7-0.5
	c-0.1-0.2,0.1-0.7,0.3-0.8c1.4-0.7,2.9-1.4,4.3-2C330.9,230.7,337.2,227.6,342.5,222.8z"/>
<path fill="#C1C1C1" d="M317.5,244.8c3.9-0.5,6.9-2.9,10-4.8c2-1.3,4-2.3,6.4-2.7c0.9,1.6,1,3.3,0.6,5.1c-4.6,3-9.7,4.9-14.7,6.8
	c-1.2,0.5-2.5,0-3.3-1.2C315.5,246.5,316.3,245.6,317.5,244.8L317.5,244.8z"/>
<path fill="#9C9C9C" d="M341.5,214c0.3,1-0.2,1.7-0.8,2.4c-1.3,1.5-2.6,3-3.9,4.5l0,0c-0.4,0.3-0.7,0.6-1,0.9
	c-3.7,2.2-7.7,3.9-11.7,5.3c-0.4,0.2-0.9,0.2-1.4,0.2c-0.3,0-0.7-0.2-0.8-0.4c-0.1-0.2,0-0.7,0.2-0.8c2.1-1.1,4.2-2.3,6.3-3.3
	c1.9-0.9,3.8-1.6,5.5-2.9c0.3-0.3,0.7-0.6,1-0.9l0,0c0.3-0.3,0.6-0.6,1-0.9l0,0c0.3-0.4,0.6-0.7,1-1l0,0c0.5-0.6,1.4-0.4,1.9-1l0,0
	c0.3-0.3,0.6-0.6,1-0.9l0,0c0.3-0.4,0.6-0.7,1-0.9C340.9,214.1,341.2,214,341.5,214z"/>
<path fill="#898989" d="M333.8,241.1c-1.2-0.5-1.7-1.2-0.9-2.4c0.3-0.5,0.6-1,1-1.5l0,0c0.4-0.7,1.4-0.4,1.9-1
	c0.4-0.3,0.7-0.6,1.1-0.9c2.4-0.6,3.7-2.8,5.7-3.9l0,0c-0.3,1.9-1.6,3.1-2.8,4.4c-1.3,1.4-2.7,2.8-4,4.2c0,0.2-0.1,0.3-0.1,0.5
	c-0.3,0.4-0.7,0.7-1.2,0.7C334.2,241.1,334,241.1,333.8,241.1z"/>
<path fill="#C1C1C1" d="M338.6,216c-0.6,0.3-1.3,0.6-1.9,1C337.4,216.7,338,216.4,338.6,216z"/>
<path fill="#C1C1C1" d="M335.7,236.1c-0.6,0.3-1.2,0.7-1.9,1C334.5,236.8,335.1,236.5,335.7,236.1z"/>
<path fill="#C1C1C1" d="M342.4,225.6c0.3-0.3,0.6-0.6,0.9-1C343.1,225,342.8,225.3,342.4,225.6z"/>
<path fill="#C1C1C1" d="M335.7,221.7c0.3-0.3,0.7-0.6,1-0.9C336.4,221.1,336,221.4,335.7,221.7z"/>
<path fill="#C1C1C1" d="M340.6,214.2c-0.3,0.3-0.7,0.6-1,0.9C340,214.8,340.3,214.5,340.6,214.2z"/>
<path fill="#C1C1C1" d="M339.6,215.1c-0.3,0.3-0.6,0.6-1,0.9C339,215.7,339.3,215.4,339.6,215.1z"/>
<path fill="#C1C1C1" d="M336.7,217c-0.3,0.3-0.6,0.6-1,1C336.1,217.6,336.4,217.3,336.7,217z"/>
<path fill="#C1C1C1" d="M335.8,218c-0.3,0.3-0.7,0.6-1,0.9C335.1,218.6,335.4,218.3,335.8,218z"/>
<path fill="#C1C1C1" d="M334.8,218.9c-0.3,0.3-0.6,0.6-1,0.9C334.1,219.5,334.4,219.2,334.8,218.9z"/>
<path fill="#C1C1C1" d="M341.5,226.5c0.3-0.3,0.6-0.6,1-1C342.1,225.9,341.8,226.2,341.5,226.5z"/>
<path fill="#C1C1C1" d="M340.5,227.5c0.3-0.3,0.6-0.6,1-0.9C341.2,226.9,340.8,227.2,340.5,227.5z"/>
<path fill="#C1C1C1" d="M339.5,228.4c0.3-0.3,0.6-0.6,1-0.9C340.2,227.8,339.9,228.1,339.5,228.4z"/>
<path fill="#3B3B3B" d="M8.4,28.8c1.4,3.5,1.4,7,0,10.6C8.4,35.9,8.4,32.3,8.4,28.8z"/>
<path fill="#666666" d="M320.4,375.4c-0.7,0-1.3,0-2-0.1c-0.2-0.1-0.4-0.1-0.6-0.2c-0.3-0.3-0.5-0.6-0.7-1c-0.1-0.4-0.2-0.8-0.3-1.2
	c-0.2-0.6-0.2-1.3-0.1-1.9c0.1-0.4,0.3-0.8,0.5-1.2c0.3-0.6,0.7-1.2,1.2-1.7c1-0.9,1.7-2.2,2.7-3.1c6.7-2.2,9.7-8.5,14-13.3
	c1.3-1.5,2-3.8,4.5-3.9c1.1-1.5,1.4-3.3,1.9-5c0.8-0.8,0-2.1,0.9-2.9c0.6-0.5,0.4-1.4,0.9-1.9l0,0c0.5-4.3,2.1-8.1,4.8-11.5l0,0
	c1-0.7,0.1-2.1,1.1-2.8l0,0c1.1-0.4,1.2-1.9,2.7-2.2c-0.4,2-0.6,3.8-1,5.6c-0.5,1.8-1.1,3.6-1.8,5.4c-0.6,1.6-1.5,3.2-2.2,4.8
	c-0.8,1.6-2.1,3.1-2,5.7c3-2.6,5.1-5.4,6.6-8.5c0.9-1.8,1.6-3.9,3.5-5c0.1,1.7-0.6,3.1-1.3,4.6c-3.1,6.9-7.7,12.8-12.3,18.8
	c-1.1,1.4-2.2,2.8-3.3,4.1c-2.6,3-5.4,5.9-8.8,8c-3.5,2.2-6.3,4.9-8,8.7C320.8,374,320.9,374.9,320.4,375.4L320.4,375.4z"/>
<path fill="#888888" d="M320.4,375.4c0.3-0.7,0.6-1.3,0.8-2C321,374.1,320.7,374.8,320.4,375.4z"/>
<path fill="#A1A1A1" d="M335.6,368.6c-0.3,0.3-0.6,0.7-0.9,1C335.1,369.3,335.4,368.9,335.6,368.6z"/>
<path fill="#D8D8D8" d="M317.5,244.8c-0.2,2.4,0.3,2.9,2,2.1c3.4-1.7,7.1-2.8,10.7-3.8c1.4-0.4,2.7-0.8,3.7-2c0,0,0.1,0,0.1,0
	c0.4-0.7,1.4-0.4,1.8-1.1c0,0,0,0,0,0c0.3,0.7,0.7,1.3,1,2c0,0.2,0,0.4,0.1,0.7c-0.1,0.4-0.2,0.9-0.5,1.2c-0.9,0.8-2,1.5-2.6,2
	c2.7-2,6-3.9,9.8-4.7c1.3-1.1,2.5-2.2,3.8-3.3c0.7-0.6,1.4-0.5,1.8,0.4c0,0,0,0,0,0c-0.4,0.3-0.6,0.7-0.9,1.1c0,0.3-0.1,0.6-0.2,0.9
	c-0.3,0.3-0.5,0.7-0.9,1c-1.8,2.4-3.3,4.9-5.7,6.8c-3.1,3.7-7.7,5.3-10.9,7.9c0.8-0.1,2.5-1.2,3.5,0.8c1,2.1-1.4,2.1-2.2,3.1
	c-1.9,1.8-4.1,3.3-5.6,5.6c-1.2,1.8-3.1,2.8-5.1,0.7c0-1.9-1.6-2.6-2.6-3.8c-0.4-0.5-0.1-1.4,0.4-1.6c0.3-0.1,0.6-0.1,0.9-0.3
	c1.2-0.5,2.9,0.7,3.6-1.3c-1.2-1.1-2.7-0.6-4.1-0.7c-1.3-0.1-2.6,0-3.8-0.2c-0.8-0.1-1.5-0.5-2.2-0.8c-0.9-0.5-1-1.8-0.2-2.4
	c0.5-0.4,1.1-0.7,1.6-1c0.5-0.3,1.3-0.5,1.3-1.2c0-0.8-0.8-0.9-1.4-1c-0.6-0.2-1.3-0.2-1.9-0.4c-1-0.3-1.7-1-1.8-2.1
	c-0.1-1.1,0.5-1.8,1.4-2.2C314.3,246.2,315.9,245.5,317.5,244.8z"/>
<path fill="#A7A7A7" d="M343.5,241c-3.2,2.9-7.2,4.5-10.9,6.5c-1.1,0.6-2.5,1.3-4.2,0.5c1-1.6,2.5-2.1,3.8-2.9
	c1.2-0.7,2.4-1.6,3.5-2.3c0.4-0.3,0.7-0.6,1-0.9l0,0C338.9,241.2,341,240,343.5,241z"/>
<path fill="#898989" d="M342.5,231.4L342.5,231.4L342.5,231.4z"/>
<path fill="#424242" d="M58.3,217.9c3.2,1.6,6.4,3.2,9.6,4.8c3.6,0.9,7.3-0.3,11,1.1c5.4,2.1,6.2,3.1,4.6,8.7
	c-0.7,2.4-0.1,4.8,0,7.1c0.2,4.3-0.6,5.4-4.9,5c-7.1-0.7-13.5-3.4-19.3-7.5l0,0c-0.3-0.3-0.6-0.6-0.9-0.9c-0.3,0-0.6,0-1,0
	c-0.3-0.3-0.7-0.6-1-1l0,0c-0.3-0.3-0.7-0.6-1-1c-1.6-1-2.8-2.3-3.8-3.8c0.6-2.3,2.6-3.9,1.7-6.9c-0.6-2.2,1.6-3.4,3.8-2.3
	c1.8,0.9,3.8,1.9,4.7,3.5c-1.3-1.8-3.8-2.7-5.7-4.4c-0.9-0.8-1.5-1.7-1.1-2.8c0.4-1.1,1.3-1.3,2.3-0.5l0,0
	C57.6,217.3,58,217.6,58.3,217.9z"/>
<path fill="#515151" d="M59.3,237.1c1.4,0.1,2.8,0.4,4.1,1.2c4.2,2.6,8.6,4,13.5,3.7c1.6-0.1,3,0.9,4.9,0.4
	c-1.2-2.1-0.7-4.6-1.8-6.8c-0.6-1.2-0.3-2.5,0.4-3.6c0.5-0.7,1-1.2,1.5-1.9c0.8-1.2,0.7-2.1-0.6-2.7c-3.1-1.6-6.4-2.7-9.8-3.5
	c-1.2-0.3-2.5-0.5-3.6-1.2c0.3,0,0.6,0,0.9-0.1c2.1-0.5,2.6-1.2,1.6-2.7c-1.1-1.7-2.3-3.3-3.5-4.9c2.4-1.9,4.1-0.1,5.7,1.2
	c2.6,2,5.4,3.3,9,3.1c-1.5-1.2-3.5-1.5-4-3.6c-0.5-1.9,0.2-3.4,1.6-4.7c1.4-1.4,1-2.9,0.3-4.4c-0.6-1.5-1.6-2.8-0.4-4.4
	c0.4-0.3,0.8-0.5,1.3-0.6c2.2,0,3.9,1.4,4.5,3.1c1.6,4.2,5.3,7.5,5.1,12.4c1.8,2.1,2.6,4.6,2.9,7.3c-0.1,0.5-0.2,0.9-0.4,1.4
	c-1.3,2.3-1.2,4.9-1.5,7.4c-0.7,5.4-3.3,9.9-6.2,14.2c-0.4,0.5-0.9,1-1.5,1.3c-1.6-0.7-3.4-0.9-5.1-1c-2.8-0.1-5.3-0.8-7.3-3
	c-1-1.1-2.3-1.7-3.7-2.1c-3.3-1.1-6.6-2.3-9.9-3.4C58,238.4,58.6,237.8,59.3,237.1z"/>
<path fill="#515151" d="M57.3,217c-0.7,0.3-1.1,0.8-0.6,1.5c0.6,0.7,1.3,1.4,2,2c2.7,1.9,5.5,3.8,8.2,5.7c0.3,0.2,0.6,0.3,0.8,0.5
	c0.6,0.5,1.4,1,1,1.9c-0.3,0.6-1.1,0.5-1.7,0.4c-2.2-0.4-4.2-1.2-5.9-2.8c-1.2-1.2-2.7-2.2-4.1-3.2c-1.2-0.8-2.5-0.2-2.2,1.2
	c0.5,3-0.8,4.8-3.2,6.3c-0.3-0.2-0.5-0.3-0.8-0.6c-0.8-0.7-1.4-1.4-0.2-2.3c0.7-0.5,1.5-0.8,1.4-1.8c-0.1-0.6-0.4-1.2-0.8-1.7
	c-2.1-2.4-4.2-4.8-6.3-7.2c-2.6-0.1-3.6-1.3-2.9-3.8c0.7-0.3,1.3-0.7,2-1c0.3,0,0.6,0,0.9,0c0.3,0.4,0.7,0.6,1,1
	c1.6,0.9,2.9,2.2,5.2,2.9c-1-2.8-3.7-3.9-4.8-6.7c2.7,0.7,4.1,2.4,5.8,3.7C53.8,214.4,55.6,215.7,57.3,217z"/>
<path fill="#646464" d="M42,213.1c1,1.3,1.9,2.6,2.9,3.8c-1.1,0.7-2.3,1-3.4,0c-1.2-1-2.2-2.3-2-4c0.1-0.7,0.7-1,1.4-0.7
	C41.3,212.5,41.6,212.9,42,213.1z"/>
<path fill="#515151" d="M44.8,226.6c-0.6-0.6-1.3-1.3-1.9-1.9C43.9,225,44.5,225.6,44.8,226.6z"/>
<path fill="#515151" d="M40,219.9c-0.3-0.6-0.7-1.3-1-1.9C39.4,218.6,39.7,219.2,40,219.9z"/>
<path fill="#515151" d="M56.4,239c-0.3-0.3-0.6-0.6-1-1C55.7,238.4,56.1,238.7,56.4,239z"/>
<path fill="#515151" d="M55.4,238.1c-0.3-0.3-0.6-0.6-1-1C54.8,237.4,55.1,237.8,55.4,238.1z"/>
<path fill="#515151" d="M58.3,236.2c0.3,0.3,0.6,0.6,0.9,0.9C58.9,236.8,58.6,236.5,58.3,236.2z"/>
<path fill="#515151" d="M55.4,234.2c0.3,0.3,0.6,0.6,1,1C56.1,234.9,55.7,234.6,55.4,234.2z"/>
<path fill="#515151" d="M56.4,235.2c0.3,0.3,0.6,0.6,1,1C57,235.8,56.7,235.5,56.4,235.2z"/>
<path fill="#515151" d="M54.5,237.1c-0.3-0.3-0.7-0.6-1-1C53.8,236.5,54.1,236.8,54.5,237.1z"/>
<path fill="#515151" d="M42,223.7c-0.3-0.3-0.6-0.7-1-1C41.3,223.1,41.7,223.4,42,223.7z"/>
<path fill="#515151" d="M41,222.7c-0.3-0.3-0.6-0.6-1-1C40.4,222.1,40.7,222.4,41,222.7z"/>
<path fill="#515151" d="M45.8,228.5c-0.3-0.3-0.6-0.6-0.9-1C45.2,227.9,45.5,228.2,45.8,228.5z"/>
<path fill="#838383" d="M354.9,89.3c-0.3,0.6-0.5,1.2-0.8,1.8c-0.2,0.2-0.3,0.4-0.5,0.6c-2,1.3-3.9-0.2-5.9-0.3
	c-3.9-0.1-7.8,0.2-11.5,1.8c-4.1-0.2-8,1-12.2,0.6c-3.2-0.3-5.3-1.2-6.8-3.9c-0.3-2.9,1.2-4,4-3.8c3.1,0.1,6.3,0.2,9.4-0.2
	c0.5-0.1,0.9-0.2,1.4-0.3c0.9-0.2,1.8-0.4,2.7-0.5c2.6-1,5.2-0.1,7.8-0.4c0.6-0.3,1-0.8,1.5-1.2c0.3-0.3,0.7-0.5,1.1-0.6
	c2.7-2.6,4.3-8,2.9-11.1c-0.6-1.3-0.3-2.5-0.2-3.7c-0.2-3.2,2.8-4.3,4.2-6.5c3.3-0.5,6.7-1.1,10-1.6c1.5-0.2,2.8-0.8,3.9,0.6
	c1.1,1.4,0.1,2.7-0.6,3.8c-1.5,2.4-2.4,5.1-4.2,7.3c-1.2,1.5-1.2,3.2-1,5c0.5,3-4.1,4.4-2.4,7.8c0.2,0.9-0.3,1.5-1,1.8
	C355.5,86.9,355,87.9,354.9,89.3z"/>
<path fill="#B5B5B5" d="M357.8,84.4c-1.4,0.2-2.7,0.4-4.5,0.7c0.3-2,2.1-2.5,2.6-4c0.5-1.5,1.3-2.9,1.9-4.3c0-0.2-0.1-0.5-0.1-0.7
	c0-0.5,0.1-0.9,0.3-1.4c3.6-3.2,5.2-7.7,8.1-11.5c1-1.3,1.5-3,3.7-2.7c2.2,0.8,1.8,2.7,1.9,4.4c0,0.5,0,0.9,0,1.4
	c-0.7,2.9-0.8,5.8-1.2,8.7c-0.1,0.2-0.1,0.4-0.2,0.6c0.1,2.9-0.7,5.7-1.7,8.3c-0.5,1.2-1.2,2.2-2.4,2.9c-1.7,1.1-4.4,0.5-5.5-1.2
	c-0.5-0.8-0.2-1.5,0.3-2.2c0.3-0.5,0.8-1.2,0-1.6c-0.6-0.3-1.2,0.1-1.7,0.5C358.8,83.2,358.3,83.8,357.8,84.4z"/>
<path fill="#B5B5B5" d="M373.2,88.3c0,0.6,0,1.3,0,1.9c-0.7,0.4-1.8,1-1.6-0.3c0.6-3.4,0.7-6.8,0.6-10.3c0-0.2,0-0.5,0-0.7
	c0.1-0.9-0.3-1.8-0.5-2.7c-0.3-0.9-0.8-1.7-0.7-2.7c0.4-2,0.7-3.9,0.7-6c0.1-4.8,1.3-9.5-0.3-14.3c0.2-0.5,0.4-1,0.7-1.5
	c0.6-1.3,0.9-2.7,1.4-4c0.4-1.2,0.7-2.4,1-3.7c0.3-1.2,0.4-2.9,2-2.9c1.6,0.1,1.3,1.8,1.5,3c0.9,6.5-0.1,13-0.6,19.4
	c-0.5,5.3-1.5,10.6-2.3,15.9l0,0c-1.1,1.5,0.2,3.4-0.9,4.8c0,0.3,0,0.6-0.1,0.9C373.3,86.2,374.1,87.5,373.2,88.3z"/>
<path fill="#727272" d="M372.3,73.9c0,1,0,1.9,0,2.9c0.7,1,0.7,1.9,0,2.9c0,0,0,0,0,0c-0.6-1.3-1.3-2.5-1.9-3.8h0
	c-0.8-3.2-0.8-6.4,0-9.6l0,0c0.8-2.3,1.1-4.5-1.5-6c0.1-3.6,1.1-6.7,5.3-7.5c0.1,3.6,0.1,7.1-0.6,10.7c-0.3,1.5-0.2,3.1-0.3,4.6
	C372,70,373.4,72.1,372.3,73.9z"/>
<path fill="#B5B5B5" d="M357.7,95.2c0.9,2.6,2.1,4.9,4.1,6.9c1.6,1.6,1.7,2.6,0.4,4.2c-1.4,1.8-2.2,3.9-3.1,5.9
	c-1.1,2.7-2.5,5.2-5,6.9c-0.2,0-0.5,0-0.7,0.1c-1.8-0.2-2.9,0.9-4,2c-3.6,3.3-8,5-12.4,7c-1.8,0.8-3.6,0.9-5-0.7
	c-1.5-1.7-0.3-3.2,0.6-4.7c1.7-1.8,3.7-2.6,6.1-3.3c4.9-1.3,9.1-3.6,9.5-9.6c0.2-2.6,2.6-3.4,4.3-4.4c-4.2-0.1-3-2.7-2.1-5.1
	c2.8-1.4,2.9-4.9,5.2-6.7c0.5-0.1,0.9,0,1.2,0.4l0,0C357.2,94.4,357.5,94.7,357.7,95.2z"/>
<path fill="#959595" d="M318.4,142.2c-0.3-0.1-0.5-0.1-0.8-0.2c-1.3-0.6-2.2-1.5-1.4-3c0.6-1.1,1.7-1.9,2.7-1.6
	c8.9,2.9,14.7-5.1,21.6-5.7c-0.4,0.3-1.7,1.2-3.4,0.6c-0.4-0.2-0.7-0.6-1-1c-0.3-1.7,0.7-2.8,2-3.4c4.2-1.8,7.8-4.7,11.9-6.6
	c0.5,0.1,0.9,0.4,1.1,0.8c-0.2,0.4-0.5,0.8-0.6,1.3c-0.3,1.3,0.3,2,1.4,1.6c1.9-0.8,3.5-1.2,4.7,1c-0.5,0-1-0.1-1.4,0.2
	c-3.7,2.5-8.3,3.5-11.1,7.3c0.3,2.4-1.6,3.2-3.2,4.1c-1.7,1.1-3.4,2.3-4.9,3.6C330.3,142.8,324.6,145.9,318.4,142.2z"/>
<path fill="#838383" d="M356.8,94.2c-0.3,0-0.6,0-1,0c-2.1,0.2-2.7-0.8-2.1-2.7c0.1-0.1,0.3-0.2,0.4-0.3
	C355.2,92,356.2,92.9,356.8,94.2z"/>
<path fill="#959595" d="M353.9,119.9c-0.5,0.4-1.1,0.8-1.6,1.2c-0.1-0.1-0.3-0.3-0.4-0.4c0-0.7,0.4-1.1,1-1.2
	C353.2,119.5,353.6,119.7,353.9,119.9z"/>
<path fill="#959595" d="M352.2,121.2c-0.3,0.3-0.7,0.6-1,0.9c0,0-0.2-0.3-0.2-0.3c0-0.7,0.3-1.1,1-0.9L352.2,121.2z"/>
<path fill="#B5B5B5" d="M353.9,119.9c-0.3,0-0.6,0-0.9-0.1c-0.1-0.7,0.1-1,0.8-0.9c0,0,0.3,0.2,0.3,0.2
	C354.1,119.4,354,119.7,353.9,119.9z"/>
<path fill="#959595" d="M357.7,126.8c-0.3-0.3-0.6-0.6-0.9-1C357.1,126.2,357.4,126.5,357.7,126.8z"/>
<path fill="#838383" d="M357.7,95.2c-0.3-0.4-0.6-0.7-0.9-1.1C357.1,94.5,357.4,94.8,357.7,95.2z"/>
<path fill="#636363" d="M69.9,359c-0.1,0.4-0.2,0.8-0.3,1.2c-0.3-0.7-0.6-1.4-0.8-2.1c0.3-0.4,0.6-0.4,0.9,0
	C69.8,358.4,69.9,358.7,69.9,359z"/>
<path fill="#474747" d="M69.8,358.1c-0.3,0-0.6,0-0.9,0c-0.1-0.3-0.1-0.6,0-1C69.2,357.5,69.5,357.8,69.8,358.1z"/>
<path fill="#C0C0C0" d="M331.9,185.2c-1.3,1.3-2.9,1.9-4.7,1.9c-3.2,0.1-6.4,0-9.5,0.5c-0.4,0.1-1-0.1-1.4-0.2
	c-0.6-0.3-1.1-0.7-1-1.4c0.1-0.4,0.3-0.9,0.6-1.2c0.5-0.4,1.1-0.6,1.7-0.8c1.1-0.3,2.2-0.5,3.2-0.9c4.3-1.5,8.6-2.6,12.3-5.8
	c4-3.5,9-5.9,13.5-8.9c2.5-1.7,4.9-3.6,7.3-5.3c-0.4,2.5-1.8,4.5-3.6,6c-3.6,3.1-7.3,6.2-11.1,9.1c-1.9,1.5-4,2.6-6,3.9
	c-0.8,0.5-1.7,0.9-2,1.9C331,184.7,331.4,185,331.9,185.2z"/>
<path fill="#BCBCBC" d="M338.7,186.3c0.1-0.3,0.3-0.6,0.4-0.9c0.4-1.5,0.3-1.8-1-2c-0.8-0.1-1.6-0.1-2.3-0.1
	c2.9-1.6,5.7-3.4,8.8-4.8c3.2-1.4,5.7-3.3,8-5.9c0.2-0.2,0.5-0.2,0.9-0.3c0.4,1.5-0.5,2.8-0.4,4.2c-2.3,4-4.7,7.9-8.6,10.6
	c-0.4-0.9-1.1-1-1.9-0.4c-1.2,1-2.3,2.1-4,2.3C337.7,188.1,338.4,187.2,338.7,186.3z"/>
<path fill="#C0C0C0" d="M335.7,183.4c-0.7,0.3-1.3,0.6-2,0.9C334.4,184,335.1,183.7,335.7,183.4z"/>
<path fill="#C4C4C4" d="M356.9,154.6c0.3-0.7,0.6-1.3,0.9-2C357.5,153.3,357.2,154,356.9,154.6z"/>
<path fill="#C0C0C0" d="M332.9,184.3c-0.3,0.3-0.7,0.6-1,0.9C332.2,185,332.5,184.6,332.9,184.3z"/>
<path fill="#949494" d="M374.1,84.5c-0.1-1.7-0.1-3.3,0.9-4.8C375.1,81.3,375.1,83,374.1,84.5z"/>
<path fill="#949494" d="M373.2,88.3c0-1.1,0.3-2,0.9-2.9C374.1,86.5,373.8,87.5,373.2,88.3z"/>
<path fill="#E5E5E5" d="M335.7,138.1c2.5-2.3,5.7-3.2,8.6-4.8c4.1-0.3,8.1-0.1,12.2-1c2.7-0.6,3.4,0.3,2.9,3.1
	c-0.1,0.6-0.4,1.2-0.6,1.8c-2.4,1.7-3,4.4-3.6,7c-0.4,1.9-0.6,3.7-1.9,5.2c-0.7,0.7-0.6,1.7-0.6,2.7c0.3,3.4-0.6,6.2-4.1,7.7
	c-0.9,0.4-1.6,1.5-2.3,2.3c0.2,2.2-1.8,2.8-3.1,3.6c-4.1,2.4-8.1,4.9-12,7.6c-0.5,0.4-1,0.7-1.5,1c-0.3,0.2-0.6,0.4-1,0.5
	c-0.4,0-0.7,0-1.1-0.1c-0.2-0.1-0.4-0.1-0.5-0.2c-1.7-1.4-1.7-1.4-0.9-3.8c-2.5-5.2-2.5-5.2,4.5-10.6c-1.9,1.3-4.9,3.8-9.2,3.3
	c-1.9-0.2-3.6,0-4.2-2.1c-0.6-2,0.6-3.3,2.4-4.2c0.6-0.3,1.1-0.7,1.6-1.1c0.4-0.2,0.6-0.5,0.8-0.9c-0.1,0.4-0.4,0.7-0.8,0.9
	c-3,1.7-4.1,0.8-3.4-2.4c0.3-1.1,0.7-2.1-0.3-3c0.6-0.7,1.2-1.3,1.9-2C324,143.9,330.5,142.1,335.7,138.1z"/>
<path fill="#BCBCBC" d="M340.5,190.9c0.3-0.3,0.6-0.5,0.8-0.8C341.1,190.3,340.8,190.6,340.5,190.9z"/>
<path fill="#BCBCBC" d="M341.5,190c0.3-0.3,0.6-0.6,0.9-0.9C342.1,189.4,341.8,189.7,341.5,190z"/>
<path fill="#BCBCBC" d="M343.4,188.1c0.3-0.3,0.7-0.6,1-0.9C344.1,187.5,343.7,187.8,343.4,188.1z"/>
<path fill="#BCBCBC" d="M342.4,189c0.3-0.3,0.6-0.6,0.9-0.9C343.1,188.4,342.7,188.7,342.4,189z"/>
<path fill="#474747" d="M70.8,357.1c0.3,0.3,0.6,0.7,0.9,1C71.4,357.8,71.1,357.5,70.8,357.1z"/>
<path fill="#747474" d="M89.4,337.3c0.3,0,0.7,0,1,0c1.9-0.7,2.6,0.8,3.6,1.9c0.5,1.7,0.6,3.4-0.8,4.8c-3.2,3.2-3.2,7.3,0.2,10.7
	c1.2,1.2,2.5,2.2,1.2,3.9c-1.3,1.6-2.9,0.7-4.2-0.2c-2.2-1.5-4-3.5-5-6.1c0.1-0.2,0.2-0.4,0.3-0.6c0.6-1.1,0.4-2.1-0.2-3.1
	c-0.8-1.4-1.5-2.7-1.5-4.4c0-2-1.6-3.4-2.3-5.1c-0.3-0.6-0.3-1.2,0.1-1.8c0.4-0.6,1.1-0.6,1.7-0.4c1.2,0.5,2.3,1.1,3.4,1.6
	C88.1,339.1,88.9,338.5,89.4,337.3z"/>
<path fill="#747474" d="M86.2,352.3c0.6,0.3,1.3,0.7,1.9,1l-0.1,0.1c-0.9,0.7-1.6,0.6-2.1-0.4C86,352.7,86.1,352.5,86.2,352.3z"/>
<path fill="#747474" d="M85.1,354.3c-0.3-0.3-0.6-0.6-0.9-1l0.1-0.1C85.1,353.1,85.5,353.4,85.1,354.3L85.1,354.3z"/>
<path fill="#747474" d="M85.2,351.3c0.3,0.3,0.6,0.6,0.9,0.9c0,0,0,0.1,0,0.1C85.3,352.6,84.9,352.3,85.2,351.3L85.2,351.3z"/>
<path fill="#A0A0A0" d="M96.7,314.9c-0.3-0.6-0.7-1.2-1-1.8C96.1,313.6,96.4,314.2,96.7,314.9z"/>
<path fill="#A0A0A0" d="M97.6,311.1c0.3,0.6,0.6,1.3,0.9,1.9C98.3,312.3,98,311.7,97.6,311.1z"/>
<path fill="#5B5B5B" d="M74.6,279.4c-0.3-0.3-0.6-0.7-1-1C74,278.7,74.3,279,74.6,279.4z"/>
<path fill="#5B5B5B" d="M89,303.4c-0.3-0.3-0.6-0.7-0.9-1C88.4,302.7,88.7,303,89,303.4z"/>
<path fill="#5B5B5B" d="M88,301.4c-0.3-0.3-0.6-0.7-0.9-1C87.4,300.8,87.7,301.1,88,301.4z"/>
<path fill="#5C5C5C" d="M83.3,248.6c0-0.6,0-1.3,0-1.9c3.9-0.3,4.5,0.4,3.5,3.9c-1.8,0.9-3.4,2-4.1,4.1c-0.5,1.6-1.4,3.1-3.4,3.6
	c-1.3-0.4-2.5-1.1-2.4-2.5c0.1-2.4-1.4-3.3-3.3-3.8c-0.6-0.2-1.2-0.3-1.8-0.5c-0.8-0.9-2.1,0-2.9-1c0,0,0,0,0,0
	c0.5-0.9,1.3-1.3,2.3-1.2c3.2,0.1,6.3,0.2,9.5,0.3C81.7,249.6,82.7,249.6,83.3,248.6z"/>
<path fill="#3F3F3F" d="M68.9,250.6c1.1,0,2,0.3,2.9,1C70.7,251.5,69.7,251.2,68.9,250.6z"/>
<path fill="#5B5B5B" d="M35.3,231.4c-0.3-0.3-0.6-0.7-0.9-1C34.7,230.7,35,231,35.3,231.4z"/>
<path fill="#A0A0A0" d="M93.9,314.9c0.3,0.6,0.6,1.3,0.9,1.9C94.5,316.2,94.2,315.5,93.9,314.9z"/>
<path fill="#424242" d="M43,337.9c0.3,0.3,0.6,0.6,0.9,0.9C43.6,338.5,43.3,338.2,43,337.9z"/>
<path fill="#535353" d="M93.8,79.7c0-2.7-0.7-5.4,0.9-7.9c0.5-0.7-0.4-1.9-1.3-2.2c-2-0.6-4.1-0.6-6.1,0c-1.3,0.3-1.6,1.4-1.7,2.6
	c-0.1,0.7-0.6,1.2-1.3,1c-1.5-0.5-2.8-0.2-4.2,0.3c-1.8,0.6-3.8,0.5-5.7,0.5c-4.8,0.1-9.6-0.4-14.3,0.6c-0.6,0.1-1.3,0.1-1.9-0.1
	c-0.6-0.2-1.2-0.5-1.6-1c-0.4-0.6,0-1.2,0.6-1.6c0.3-0.2,0.5-0.4,0.7-0.6c0.9-1.2,0.7-2.5-0.6-3.2c-0.8-0.5-1.8-0.7-2.7-1
	c-1.3-0.4-1.3-1.2-0.6-2.2c0.5-0.7,0.8-1.4,0-2.1c-0.5-0.5-1.7-0.7-1.3-1.7c0.3-0.7,1.1-1.1,1.7-1.6c0.3,0,0.6,0,0.9,0
	c0.5-0.6,1.4-0.4,1.9-0.9l0,0c5.7-3.5,11.4-6.6,18.4-6.6c1.5,0,2.8-0.5,4-1.3c1.9-1.1,4.3-1.5,5.9-0.5c2.6,1.6,4,0.3,5.6-1.2
	c0.8-0.2,1.5-0.1,2.2,0.3c6.1,4.4,5.8,11,6.1,17.5c-0.7,3.2-0.9,6.5-1.7,9.7C97.3,78.5,96.6,80.3,93.8,79.7z"/>
<path fill="#404040" d="M90.9,50c0.5,3.3,0.2,3.9-2.3,4.8c-0.6,0.2-1.2,0.4-1.9,0.5c-1.2,0.2-1.8-0.3-1.6-1.6
	c0.1-1.3-0.8-1.6-1.8-1.6c-1.2,0-2.1,0.7-3.1,1.2c-1,0.5-2.1,1.2-3.1,1.2c-2.9-0.1-5.5,0.8-8.3,1.4c-2.3,0.5-4.7,0.9-6.9,1.9
	c-1.5,0.6-3.1,0.9-4.7,0.9c0.4-1.9,1.6-3.1,3.2-4c1.5-0.9,3.2-1.5,4.5-2.8c2.9-1.6,6-2.9,9.3-3.3c2.8-0.3,5.1-1.5,7.1-3.3
	c2.5,0.5,5.1,0.3,7.2,1.9c0.4,0.2,0.8,0.4,1.2,0.6C90.5,48.3,90.8,49.1,90.9,50z"/>
<path fill="#404040" d="M57.3,58.6c-0.6,0.3-1.3,0.6-1.9,0.9C56.1,59.2,56.7,58.9,57.3,58.6z"/>
<path fill="#434343" d="M79.4,202.6c2.3,2.5,3.4,5.7,4.9,8.7c0.6,1.1-0.2,2.3-1.5,2.4c-0.9,0.1-1.9,0-2.8,0c-0.2,0-0.5,0.4-0.6,0.6
	c-0.1,0.3,0,0.6,0.2,0.9c0.7,0.9,1.8,1.3,2.8,1.7c1.8,0.7,3.3,1.9,4.6,3.3c0.2,0.2,0.3,0.6,0.3,0.8c-0.1,0.6-0.6,0.6-1.1,0.5
	c-1.4-0.4-2.8,0-4.3,0.1c-4.2,0.3-7.9-0.5-10.8-3.7c-1.2-1.3-2.5-2.5-4.3-2.9c-1.7-0.4-2.8-1.5-3.5-3c-0.1-0.3-0.2-0.7-0.1-0.9
	c0.3-0.5,0.8-0.5,1.3-0.3c1.2,0.5,2.3,1.1,3.5,1.5c0.9,0.3,1.9,0.8,2.6-0.3c0.5-0.8-0.2-1.5-0.8-2.1c-1.3-1.4-2.7-2.7-4-4.1
	c-0.4-0.5-0.9-0.9-1.3-1.4c-0.3-0.4-0.5-0.9-0.1-1.2c0.2-0.2,0.6-0.3,0.9-0.2c1.4,0.4,2.7,0.8,4.1,1.2c0.2,0.1,0.7-0.2,0.8-0.4
	c0.1-0.2,0-0.6-0.2-0.8c-0.3-0.4-0.7-0.6-1.1-0.9c-1.1-0.7-2.2-1.4-3.2-2c-2.7-1.7-5.4-3.3-8.1-5c-1.4-0.8-2.7-1.8-3.4-3.3
	c-0.2-0.4-0.2-1-0.1-1.3c0.3-0.7,1-0.6,1.7-0.4c0.3,0.1,0.6,0.2,0.9,0.4c3.3,2.3,7,3.7,10.6,5.4c2,1,4.1,1.8,6.3,2l0,0
	C75.6,199.3,79.2,198.9,79.4,202.6z"/>
<path fill="#525252" d="M45.8,213.1c-0.3-0.3-0.6-0.6-1-1C45.2,212.5,45.5,212.8,45.8,213.1z"/>
<path fill="#515151" d="M58.3,217.9c-0.3-0.3-0.6-0.6-1-0.9C57.7,217.3,58,217.6,58.3,217.9z"/>
<path fill="#737373" d="M32.4,134.4c0-0.3,0-0.6,0.1-1c0.7-3.3,2-4.3,4.9-3.1c2.5,1,5,2,7.7,2.6c1.2,0.3,2.3,1,3.4,1.7
	c3,1.9,5.9,3.8,8.8,5.8c1.5,1,3,1.7,4.9,1.6c1-0.1,2,0,2.5,1c1.6,3.2,4.2,5.5,7.1,7.6c0.3,0.2,0.5,0.4,0.6,0.7
	c0.1,0.3,0.3,0.6,0.2,0.9c-0.1,0.6-0.6,0.7-1.1,0.5c-2.8-1.1-6-0.9-8.7-2.3c-0.1-0.1-0.3-0.1-0.5-0.1c-0.5,0-1,0.2-1.1,0.7
	c-0.1,0.3-0.1,0.7,0,0.9c1.1,1.8,2.6,3.2,4.7,3.7c2.7,2.8,6,4.7,9.5,6.3c3.3,1.5,4.7,2.9,3.8,3.4c-1.9,1.1-3.3-0.5-4.8-1.2
	c-3.4-1.5-6.5-3.4-9.4-5.6c-2.5-1.4-5.5-1-8.2-1.9c-9.2-2.9-13.2-11.8-20.8-16.5c-1.5-0.9-0.7-3.7-2.6-4.7l0,0
	C33,135.1,32.7,134.7,32.4,134.4L32.4,134.4z"/>
<path fill="#636363" d="M33.4,135.4c0.6,0.3,1.4,0.4,1.7,0.8c1.9,2.6,4.6,4.3,7,6.4c2.7,2.5,4.9,5.4,7.1,8.3
	c1.1,1.5,2.3,2.5,4.4,2.3c0.9-0.1,2,0,2.8,0.4c3,1.4,6.2,2.6,8.8,4.8c-0.9,0.2-2,0.2-2.8,0.7c-2.3,1.3-4.2,0.6-6.2-0.6
	c-3.2-1.9-6.2-3.9-8.6-6.7c-1.6-1.8-3.5-3.2-5.6-4.4c-3.2-1.8-5.5-4.8-8-7.5c-0.5-0.5-0.6-1.1-0.5-1.8
	C33.5,137.2,33.7,136.3,33.4,135.4z"/>
<path fill="#3F3F3F" d="M82.5,177.9c-3,0.8-5.8-0.7-8.2-2.5c-5.4-4.1-11.5-6.7-17.8-9.1c-1.7-0.6-3.2-1.4-4.5-2.6
	c-0.3-0.3-0.5-0.8-0.5-1.2c0.1-0.8,0.8-0.9,1.5-0.9c1.9,0.2,3.8,0.6,5.5,1.5c4.9,2.6,9.9,5.2,14.7,7.9c2.2,1.2,4.4,2.5,7,2.9
	c2.1,0.3,4,1.1,5.5,2.6c0.2,0.2,0.3,0.6,0.3,0.8c0,0.5-0.5,0.8-1,0.8C84.4,178.1,83.6,178,82.5,177.9z"/>
<path fill="#646464" d="M89.1,177.5c1.4,0.4,2.2,1.1,1.7,2.7c-0.9,3-1.5,6.1-0.8,9.3c0.4,2-1.1,4.2-3.3,5.2
	c-1.3,0.6-2.7,0.9-4.1,1.2c-1,0.3-1.7,0.9-2.1,1.8c-0.3-0.5-0.8-1.1-0.9-1.6c-0.2-1.2-1.6-2.5-0.4-3.5c0.9-0.7,2.1,0.4,3.1,0.7
	c0.2,0,0.3,0.1,0.5,0.1c1.2,0.3,2-0.4,1.6-1.5c-0.4-1.4-0.9-2.7-1.8-3.9c-0.6-0.8-0.1-1.5,0.7-1.9c0.7-0.3,1.5-0.5,2.2-0.8
	c2.1-0.8,2.2-1.5,0.4-3.4c-0.2-0.2-0.5-0.4-0.8-0.6c-0.2-1.2,0.4-1.7,1.5-2C87.8,179.3,88.6,178.6,89.1,177.5z"/>
<path fill="#737373" d="M86.1,145c0.7,1.4,1.4,2.8,2.1,4.3c0.2,0.4,0.2,1.2,0,1.3c-2.4,1.6-0.8,2.4,0.5,3.5c0.8,0.7,1.5,1.6,2.3,2.4
	c0.2,0.2,0.2,0.7,0,0.9c-0.1,0.2-0.6,0.4-0.8,0.3c-1-0.5-1.9-1.1-2.9-1.5c-0.7-0.3-1.3,0.2-1.3,1c0,1.4,0.2,2.8,0.3,4.2
	c-1.5-1.3-1.8-3.3-2.9-4.8c-0.2-0.2-0.5-0.4-0.7-0.7c-1.3-1.5-1.3-1.5,0.3-2.2c0.4-0.2,1-0.3,1.2-0.6c0.2-0.3,0.1-0.9,0.1-1.3
	c-0.7-1.2-1.4-2.5-2.1-3.7c-1.2-2.2-1.5-4.5,0-6.7C83.5,142.5,84.8,143.7,86.1,145z"/>
<path fill="#737373" d="M86.2,161.3c0.3,0.6,0.7,1.3,1,1.9C86.8,162.5,86.5,161.9,86.2,161.3z"/>
<path fill="#636363" d="M32.4,134.4c0.3,0.3,0.6,0.6,1,1C33,135,32.7,134.7,32.4,134.4z"/>
<path fill="#646464" d="M80.4,197.8c1.5,1.1,3,2.2,4.5,3.4c0.6,0.5,1.1,1.3,0.6,2.1c-0.7,0.9-1.4,0.2-2-0.3
	c-0.8-0.7-1.6-1.5-2.5-2.2c-0.3-0.2-1.1-0.4-1.2-0.3c-0.6,0.6,0.1,1.1,0.3,1.6c0.1,0.1,0.1,0.3,0.2,0.4c-0.3,0-0.6,0-0.9,0
	c-1.9-1.7-4.2-2.8-5.8-4.9c1.2,0.1,2.5,0.2,3.7,0.4C78.4,198.4,79.5,198.4,80.4,197.8z"/>
<path fill="#202020" d="M84.2,96L84.2,96L84.2,96z"/>
<path fill="#535353" d="M93.8,79.7c-0.3,0.6-0.7,1.2-1,1.9c0-0.6,0-1.2,0-1.9C93.2,79.7,93.5,79.7,93.8,79.7z"/>
<path fill="#D4D4D4" d="M318.4,372.5c-1.7,1.1-3,2.7-4.2,4.4c-0.8,1.1-1.6,2.3-3,3c-0.2,0.1-0.6-0.1-0.8-0.2c-0.1,0-0.1-0.3-0.1-0.4
	c0.1-1,0.8-1.7,1.4-2.4c1.4-1.8,2.1-3.9,2-6.2c2.4-3.1,5.2-6,7.3-9.3c1.3-2,2.6-4,3.8-6c1.8-3,3.8-5.8,5.8-8.7
	c1.3-1.8,2.7-3.5,3.3-5.7c0.3-0.3,0.6-0.7,0.9-1l0,0c0.3-0.3,0.6-0.6,0.9-1l0,0c0.3-0.3,0.6-0.6,0.9-1c0-0.3,0-0.6,0.1-0.9
	c0.6,0.3,1.3,0.6,1.9,0.9c-0.4,0.3-0.6,0.7-0.9,1c0,0.3,0,0.6,0,0.9c-0.3,0.3-0.6,0.7-0.9,1c-0.3,0.3-0.6,0.7-1,1c0,0.3,0,0.6,0,0.9
	c-0.6,0.5-0.4,1.4-1,1.9l0,0c-0.3,0.3-0.6,0.7-1,1c0,0.3,0,0.6,0,0.9c-0.3,0.3-0.6,0.7-0.9,1l0,0c-0.3,0.3-0.6,0.6-0.9,1
	c0,0.3,0,0.6,0,0.9c-0.3,0.3-0.6,0.7-1,1l0,0c-0.3,0.3-0.6,0.6-0.9,0.9c0,0.3,0,0.6,0,0.9c-0.3,0.3-0.6,0.7-0.9,1c0,0.3,0,0.6,0,1
	c0.3,5.6-3.5,9-6.6,12.8c-0.7,0.9-1.3,1.7-2,2.6c-0.6,0.5-0.4,1.4-1,1.9l0,0C319.1,371.8,319.1,372.4,318.4,372.5z"/>
<path fill="#BBBBBB" d="M336.7,337.9c-0.3,0.3-0.6,0.6-0.9,1C336,338.5,336.3,338.2,336.7,337.9z"/>
<path fill="#BBBBBB" d="M335.7,338.9c-0.3,0.3-0.6,0.6-0.9,1C335.1,339.5,335.4,339.2,335.7,338.9z"/>
<path fill="#BBBBBB" d="M334.8,339.8c-0.3,0.3-0.6,0.7-0.9,1C334.2,340.5,334.5,340.2,334.8,339.8z"/>
<path fill="#BBBBBB" d="M328.1,327.4c0.3-0.3,0.6-0.6,0.9-1C328.7,326.7,328.4,327,328.1,327.4z"/>
<path fill="#BBBBBB" d="M327.1,328.3c0.3-0.3,0.6-0.6,1-1C327.7,327.7,327.4,328,327.1,328.3z"/>
<path fill="#BBBBBB" d="M329,326.4c0.3-0.3,0.6-0.6,0.9-0.9C329.6,325.8,329.3,326.1,329,326.4z"/>
<path fill="#BDBDBD" d="M322.4,367c1.2-4.8,3.7-8.9,6.6-12.8c0.2,0.4,0.6,0.9,1.1,0.6c0.5-0.3,0.9-0.9,1.2-1.4
	c1.1-1.7,2.2-3.5,3.4-5.2c0.7-1,1.6-2,2.5-2.8c1.1-1,2-0.6,2.3,0.9c0.1,0.5,0.1,0.9,0.2,1.4c-0.2,2.1-1.3,3.9-2.6,5.5
	c-3,3.5-6.1,6.8-9.2,10.1C326.3,364.9,324.5,366.2,322.4,367z"/>
<path fill="#999999" d="M348.2,326.4c-1.5,3.9-2.2,8.1-4.8,11.5c-0.5-1.1-1.1-0.8-1.9-0.2c-0.2,0.2-0.6,0.3-0.8,0.2
	c-0.2-0.1-0.4-0.6-0.3-0.7C342.9,333.4,344.3,329,348.2,326.4z"/>
<path fill="#999999" d="M342.5,339.8c0,1.1-0.3,2.1-0.9,2.9C341.5,341.7,341.8,340.7,342.5,339.8z"/>
<path fill="#999999" d="M349.2,323.6c-0.1,1-0.4,2-1.1,2.8C348.2,325.3,348.5,324.4,349.2,323.6z"/>
<path fill="#999999" d="M343.4,337.9c-0.3,0.6-0.6,1.3-0.9,1.9C342.8,339.2,343.1,338.6,343.4,337.9z"/>
<path fill="#BDBDBD" d="M334.8,344.6c0.3-0.6,0.6-1.3,1-1.9C335.4,343.3,335.1,344,334.8,344.6z"/>
<path fill="#BDBDBD" d="M330.9,350.4c0.3-0.3,0.6-0.7,1-1C331.6,349.7,331.2,350.1,330.9,350.4z"/>
<path fill="#BDBDBD" d="M329,353.3c0.3-0.3,0.6-0.7,0.9-1C329.7,352.6,329.3,352.9,329,353.3z"/>
<path fill="#BDBDBD" d="M330,351.4c0.3-0.3,0.6-0.6,0.9-0.9C330.6,350.7,330.3,351,330,351.4z"/>
<path fill="#BDBDBD" d="M331.9,348.5c0.3-0.3,0.6-0.6,0.9-1C332.5,347.8,332.2,348.2,331.9,348.5z"/>
<path fill="#BDBDBD" d="M332.8,347.5c0.3-0.3,0.6-0.7,0.9-1C333.5,346.9,333.2,347.2,332.8,347.5z"/>
<path fill="#BDBDBD" d="M337.7,338.9c0.3-0.3,0.6-0.6,0.9-1C338.3,338.2,338,338.6,337.7,338.9z"/>
<path fill="#BDBDBD" d="M333.8,345.6c0.3-0.3,0.6-0.6,1-1C334.5,345,334.1,345.3,333.8,345.6z"/>
<path fill="#BDBDBD" d="M336.7,340.8c0.3-0.3,0.6-0.7,0.9-1C337.3,340.1,337,340.5,336.7,340.8z"/>
<path fill="#BDBDBD" d="M335.7,341.8c0.3-0.3,0.6-0.6,1-1C336.4,341.1,336.1,341.4,335.7,341.8z"/>
<path fill="#6E6E6E" d="M314.6,336c0.4-0.2,0.7-0.5,1.1-0.7c0.6,0.2,1.1,0.5,1.7,0.7l0,0c-0.3,0.3-0.6,0.7-0.8,1c-1,1.3-2,2.5-3,3.8
	c-0.3,0.3-0.7,0.6-0.9,1l0,0c-0.7-1-0.8-2-0.1-3.1C313.3,337.8,314,336.9,314.6,336z"/>
<path fill="#D5D5D5" d="M343.9,296.5c-0.2,0.3-0.5,0.3-0.7,0c-0.1-0.1,0-0.3,0-0.4c0.2-0.3,0.5-0.3,0.7,0
	C344,296.2,343.9,296.4,343.9,296.5z"/>
<path fill="#A2A2A2" d="M316.7,337c0.3-0.3,0.5-0.7,0.8-1C317.2,336.3,316.9,336.7,316.7,337z"/>
<path fill="#A2A2A2" d="M305,343.7L305,343.7L305,343.7z"/>
<path fill="#A2A2A2" d="M312.7,341.8c0.3-0.3,0.6-0.7,0.9-1C313.3,341.1,313,341.4,312.7,341.8z"/>
<path fill="#D3D3D3" d="M299.3,316.8c0.1-1.9-0.7-3.3-2.4-4.3c-2.5-1.6-3.2-4.2-3.2-7c0-1.5,1-2.7,2.3-2.3c2.7,0.8,3.3-0.9,4.2-2.6
	c0-0.5-0.1-1.1-0.2-1.6c0-0.4,0-0.7,0.1-1.1c0.1-0.4,0.2-0.7,0.3-1.1c0.1-0.4,0.2-0.7,0.3-1.1c0.2-0.4,0.4-0.7,0.6-1
	c0.7-1.9-0.6-4.3,1.8-5.7c0.1-2-0.2-4,1-5.7c1,0.1,2,0,2.8,0.8c0.3,0.8,0.8,1.4,1.7,1.3c0.6-0.1,1.2-0.5,1.8-0.5
	c0.4-0.1,1,0,1.3,0.3c0.2,0.3,0.3,0.9,0.1,1.3c-0.5,1-1.1,1.9-1.7,2.8c-0.7,1.1-1.4,2.1-2,3.2c-1.1,1.7-1.3,3.5-0.1,5.3
	c-1.4,2.7-2.5,5.5-4.4,7.9c-0.5,0.6-0.8,1.4-0.8,2.1C302.7,311.1,300.7,313.9,299.3,316.8z"/>
<path fill="#9A9A9A" d="M321.3,265.9c0.5-0.1,0.9,0,1.4-0.2c1.4-0.4,1.4-0.6,0.9-1.9c-0.7-2-0.7-2.1,1.1-2.7c2.4-0.7,4.8-1.3,7.2-2
	c0.4-0.4,0.7-0.3,1,0.1c-0.6,1.8-0.6,1.8,0.8,2.7c-1.7,2.6-4.5,3.8-6.6,5.8c-2,1.6-4.2,2.8-6.6,3.5c-2.1,0.6-3.8,0.4-3-2.6
	C318.7,267.8,320,266.8,321.3,265.9z"/>
<path fill="#C5C5C5" d="M317.4,268.7c0.5,1.2,1.4,1.5,2.6,1.1c2.3-0.7,4.7-1.4,7.1-2.1c-1.4,2.6-4,3.9-6.2,5.7c-1.4,1.1-2.6,2.1-3,4
	c-0.2,1.2-1,1.5-2.1,0.6c-1.3-1.2-2.2-0.5-3.3,0.2c-1.9-1.3-0.6-3.2-0.9-4.7C313.2,271.4,314.8,269.5,317.4,268.7z"/>
<path fill="#989898" d="M311.7,273.6c1.1,1.4,1,3.1,0.9,4.7c-1.9,1.9-3.8,3.8-5.7,5.7c-1.8,0.7-1.8,0.7-2.8-0.8
	c2.8-2.4,5-5.3,6.8-8.6C311.1,274.2,311.5,274,311.7,273.6L311.7,273.6z"/>
<path fill="#D5D5D5" d="M348.9,252.4c0.4-0.3,0.8-0.7,1.2-1C349.7,251.8,349.3,252.1,348.9,252.4z"/>
<path fill="#D5D5D5" d="M351,250.6c0.3-0.3,0.7-0.7,1-1C351.7,249.9,351.4,250.2,351,250.6z"/>
<path fill="#D5D5D5" d="M350,251.5c0.3-0.3,0.7-0.7,1-1C350.7,250.8,350.4,251.2,350,251.5z"/>
<path fill="#CCCCCC" d="M313.7,291.8c-0.3,0.3-0.6,0.6-1,0.9C313,292.5,313.3,292.2,313.7,291.8z"/>
<path fill="#D5D5D5" d="M326.1,285.1c-0.3,0.3-0.6,0.6-1,1C325.5,285.8,325.8,285.4,326.1,285.1z"/>
<path fill="#D5D5D5" d="M325.2,286.1c-0.3,0.3-0.6,0.6-1,1C324.5,286.7,324.9,286.4,325.2,286.1z"/>
<path fill="#9A9A9A" d="M333.8,262c0.4-0.2,0.8-0.5,1.1-0.7C334.5,261.5,334.1,261.7,333.8,262z"/>
<path fill="#D5D5D5" d="M316.4,303.3c2.3-2.6,3.9-5.7,5.5-8.8c0.9-1.7,1.6-3.5,3.2-4.6c0.7,0.2,1.2,0,1.8-0.3c0.4-0.2,1-0.5,1.3-0.3
	c0.7,0.5,0.3,1.1,0,1.7c-1.6,2.6-3.1,5.2-4.7,7.8c-0.7,1.1-0.7,2.1,0.7,2.7c-4.1,5.7-8.4,11.1-13,16.3c-1.4,1.5-2.7,3.1-4,4.7
	c-0.8,1-1.6,2-2.8,2.6c-0.2,0.1-0.6-0.1-0.8-0.2c-0.1,0-0.1-0.3-0.1-0.4c0.2-1.7,1.2-2.9,2.6-3.8c2-1.4,2.9-3.3,2.8-5.7
	c-0.3-3.2,1.9-5.2,3.7-7.4c1.6-0.9,2.4-2.5,3.3-3.9C316,303.5,316.2,303.4,316.4,303.3z"/>
<path fill="#808080" d="M313.6,308.2c-2.2,1.8-3.1,4.6-4.7,6.8c-0.9,0.2-1.7,0.1-2-1c2-4,4.9-7.3,7.7-10.6c0.5-0.7,1.2-1,1.8,0
	c0,0,0.1,0,0.1,0C316,305.2,314.8,306.7,313.6,308.2z"/>
<path fill="#D5D5D5" d="M324.2,301.5c0.3-0.3,0.6-0.6,1-1C324.9,300.8,324.5,301.1,324.2,301.5z"/>
<path fill="#D5D5D5" d="M326.1,288c0.3-0.3,0.6-0.6,0.9-1C326.8,287.4,326.5,287.7,326.1,288z"/>
<path fill="#C1C1C1" d="M332.9,259.3c-0.3,0-0.7-0.1-1-0.1c0.2-0.2,0.4-0.5,0.6-0.7c0.4-0.6,0.6-1.4-0.4-1.4c-2.5,0.1-5,0.5-7.6,0.1
	c-0.5-0.1-1-0.3-0.9-0.9c0-0.2,0.3-0.5,0.6-0.7c0.4-0.2,0.9-0.4,1.3-0.5c2.1-0.6,4.2-0.9,5.6-3c0.9-1.4,2.8-2,4.6-2.3
	c2.1-0.3,3.9-1.2,5.8-2c-0.6,1.3-1.3,2.5-1.9,3.8c-0.1,0.2-0.1,0.7,0.1,0.9c0.4,0.4,0.9,0.3,1.2,0c3.8-3.4,7.3-6.9,9.6-11.5
	c0.4-0.8,0.8-1.7,1.2-2.5c0.2-0.4,0.6-0.9,1-0.7c0.4,0.1,0.6,0.6,0.8,1c0.2,0.4,0.2,0.9,0.2,1.4c-2.4,8.1-8.1,13.1-15.4,16.7
	C336.7,257.6,334.8,258.4,332.9,259.3z"/>
<path fill="#C1C1C1" d="M348.3,239.1c0.3-0.4,0.6-0.7,0.9-1.1C348.9,238.4,348.6,238.8,348.3,239.1z"/>
<path fill="#C1C1C1" d="M347.3,241c0.3-0.3,0.6-0.6,0.9-1C347.8,240.3,347.5,240.6,347.3,241z"/>
<path fill="#C7C7C7" d="M353.8,119c-0.3,0.3-0.6,0.6-0.8,0.9c-0.3,0.4-0.7,0.7-1,1.1c-0.3,0.3-0.7,0.6-1,0.9
	c-4.3,2.8-8.7,5.5-13,8.4c-0.5,0.3-0.8,0.9-1.3,1.4c-2.3,1.7-5.1,2.3-7.5,3.7c2.4-1.5,5.2-2,7.5-3.8c1.7,0,3-0.8,4.4-1.6
	c1.2-0.8,2.5-1.4,3.8-2.1c0.4-0.2,1-0.1,1.3,0.1c0.4,0.4,0.1,0.9-0.3,1.2c-1.9,1.5-3.7,3-5.9,4c-3,1.4-6.1,2.8-9,4.4
	c-3.5,1.9-7.1,2.8-11,2.2c-0.3,0-0.6-0.1-0.9-0.1c-1.6-0.1-1.8,0.2-1.5,2.4c-1.4-0.2-2.3-0.9-2.7-2.3c-0.6-2-1.3-3.9-1.9-5.9
	c-0.2-0.6-0.5-1.3-0.3-1.8c0.4-1.6,0.4-3-0.1-4.6c-0.4-1.4,0.4-3-0.7-4.5c-0.4-0.5,0.1-1.2,0.6-1.6c0.8-0.5,1-1,0.4-1.9
	c-2-2.8-1.9-2.8,0.8-5.1c0.4-0.5,1-0.6,1.6-0.5c0,0,0,0,0,0c-0.6-0.1-1.2,0.1-1.6,0.6c-1.9-0.9-2-2.7-2.2-4.5
	c-0.1-0.9,0.4-1.6,1.1-2c1.2-0.7,1.6-1.8,2-3.1c1.1-3,1.7-6.1,3.2-9c0.8-1.4,0.4-2.8-0.7-3.9c-1.3-1.3-2.1-2.8-2.3-4.6
	c2.4-1.4,2.9,0.5,3.6,2c0.7,1.6,1.9,2.5,3.8,2.4c2.7-0.2,5.4-0.2,8.1-0.5c2.2-0.2,4.4-0.7,6.6-1.1c1.2,3.3-1.2,3.8-3.5,4.1
	c-2.2,0.4-4.5,0-6.4,1.4c-1.8,1.4-2.8,2.8,0,4.3c1.6,0.8,3.2,1.7,2.8,3.9c-0.4,2.1-2.1,2.6-3.9,2.9c-0.6,0.2-1.6,0-1.7,0.4
	c-0.3,0.8,0.7,0.7,1.1,0.9c1,0.4,1.8,1.2,2.5,1.9c0.5,0.2,1.1,0.4,1.7,0.3c0.6-0.2,1.2-0.4,1.8-0.6c0.6-0.3,1.3-0.3,2-0.2
	c0.9,0.4,1.8,0.7,2.2,1.7c0.2,0.5,0.2,0.9,0.1,1.4c-0.2,0.4-0.4,0.8-0.7,1.2c-0.3,0.3-0.7,0.6-1.1,0.7c-0.6,0.2-1.2,0.4-1.9,0.5
	c-0.4,0-0.8,0.1-1.2,0.1c1.4,0.1,3.4-0.5,3.5,1.7c0.1,2.6-2.1,3.1-4.2,3.6c1.8,0.5,3.8,0.8,3.9,3.4c-0.2,0.4-0.5,0.8-0.6,1.3
	c-0.2,0.7,0.1,1.3,0.8,1.4c0.9,0.1,2,0.1,2.8-0.2c4.6-1.8,9.2-3.5,12.8-7.1c0.3-0.3,0.7-0.6,1.1-0.9c0.5-0.4,1.2-0.7,1.8-0.4
	C352.9,118.1,353.4,118.6,353.8,119z"/>
<path fill="#A6A6A6" d="M307,73.9c1.1-3.2,3.7-3.9,6.7-3.9c0.9-0.9,2.1-0.8,3.3-0.8c2,0.3,2.7,1.7,2.5,3.4c-0.3,2.1,0.7,3.7,1.7,5.3
	c1.2,4.3,3.1,8,8.4,8.2c1.4,0,2.9,0.4,3.3,2.2c-3.7,1.5-7.4,1.3-11,0c-1.6-0.6-2.7-0.6-3.6,1c-1-0.9-2.2-1.7-3.6-2l-0.1,0
	c-0.3-0.3-0.7-0.6-1-0.9c-1.1-1.5-1.3-3.4-2.8-4.8c-1.3-1.2-1.6-3-2-4.7C308.5,75.8,308.1,74.7,307,73.9z"/>
<path fill="#C5C5C5" d="M322.3,155.5c-1.1,1.4-2.1,2.7-3.2,4.2c-0.5,0.7-0.1,1.8,0.8,1.9c2.5,0.4,5,0.6,7.4-0.8
	c1.8-1.1,3.7-1.9,5.2-3.4c1.4-1.3,2.9-2.4,4.6-3.1c0.9,0.9,0.2,1.3-0.2,1.7c-3.1,2.8-5.7,6-9.2,8.3c-0.6,0.4-1.1,1.1-1.6,1.8
	c-0.1,0.2,0,0.6,0.1,0.8c0,0.1,0.3,0.2,0.4,0.2c0.6-0.1,1.2-0.3,1.8-0.4c0.5-0.1,1.1-0.1,1.2,0.4c0.1,0.4,0,1-0.2,1.3
	c-1.1,1-2.2,1.8-3.3,2.7c-0.6,0.1-1.2,0.3-1.8,0.3c-0.9,0.1-1.5-0.2-1.3-1.3c0.2-0.8,0.2-1.5-0.7-1.9c-0.2-0.1-0.4-0.1-0.6-0.2
	c-2.1-0.5-3,1.2-4.1,2.4c0,0.2-0.1,0.4-0.1,0.6c-0.3,0.2-0.5,0.4-0.8,0.6c-2.1,1-2.3,1-3.2-1.6c0-1.7,0-3.4,0-5.1
	c0-1.6,0.1-3.1,0.9-4.5c2.8-1.3,0.4-3.8,1.1-5.6c0.6-1.3,1.3-2.6,1.9-3.9c1.4,0.5,1.7,1.6,1.6,3c-0.1,2,0,2,2.2,1.9
	C321.7,155.7,322,155.6,322.3,155.5L322.3,155.5z"/>
<path fill="#C8C8C8" d="M335.7,138.1c-0.6,0.6-1,1.3-1.7,1.6c-1.8,0.8-2.6,2-2.7,4c-0.1,2-1.3,2.8-3.3,2.2c-1.6-0.5-2.7-0.1-3.8,1
	c-1.3,1.2-3,1.7-4.8,1.8c0-0.6,0-1.2,0.1-1.9c1.3-1.7,0.7-3-1-3.9c0-0.3,0-0.6-0.1-0.9c1.7,0,3.5-0.1,5.2-0.1c2.4,0,4.7-0.6,6.8-1.8
	C332,139.3,333.9,138.8,335.7,138.1z"/>
<path fill="#979797" d="M315.6,154.7c1.2,1.7,2,3.5,1.6,5.6c-0.2,1.1-1,2.1-1.7,1.8c-0.9-0.3-0.8-1.2-1-1.9c0.1-1.5,0.1-3.1,0.2-4.6
	C315,155.2,315.3,154.9,315.6,154.7L315.6,154.7z"/>
<path fill="#E5E5E5" d="M318.5,143c0.5,0,1,0,1.4,0.1c1.5,0.4,1.8,1.1,0.9,2.4c-0.3,0.5-0.9,0.9-1.3,1.4
	C319.1,145.6,318.8,144.3,318.5,143z"/>
<path fill="#DCDCDC" d="M322.3,211.3c-0.3,0.3-0.7,0.6-1,0.9c-0.2-1.5-1.1-2.6-1.9-3.8c1-0.4,1.7,0,2.2,0.9
	C321.9,209.8,322.1,210.6,322.3,211.3z"/>
<path fill="#DCDCDC" d="M318.4,206.4c0,0.6,0,1.3,0,1.9C318,207.7,318,207,318.4,206.4z"/>
<path fill="#C7C7C7" d="M313.6,86.5c0.3,0.3,0.7,0.6,1,0.9C314.3,87,314,86.7,313.6,86.5z"/>
<path fill="#C5C5C5" d="M311.7,273.6c-0.3,0.3-0.6,0.7-0.9,1C311.1,274.3,311.4,273.9,311.7,273.6z"/>
<path fill="#C5C5C5" d="M315.6,154.6c-0.3,0.3-0.6,0.6-0.9,1C315,155.3,315.3,154.9,315.6,154.6z"/>
<path fill="#DCDCDC" d="M319.4,204.4c-0.3,0.3-0.6,0.7-0.9,1C318.8,205.1,319.1,204.8,319.4,204.4z"/>
<path fill="#B0B0B0" d="M330,172.8c5.4-3.5,11.3-6.4,16.3-10.6c0.7,0.3,1.1,0.8,0.7,1.5c-0.6,1.1-1.7,1.9-2.7,2.6
	c-2.2,1.4-4.3,2.7-6.5,4c-2.3,1.4-4.5,3-6.6,4.7c-3.3,2.7-6.9,5.2-11.1,6.6c-1.1,0.4-2.1,0.8-3.3,0.6c-0.5-0.1-0.9-0.3-1-0.9
	c0-0.3,0.1-0.6,0.3-0.8c1.1-1,2.5-1.4,3.8-1.9c2.5-1,5.1-2,7.1-3.9l0,0c0.3-0.3,0.6-0.6,1-0.9l0,0
	C328.6,173.2,329.5,173.4,330,172.8z"/>
<path fill="#B3B3B3" d="M330.4,192.3c-2.9,0.8-5.8,1.5-8.7,2.2c-1.1,0.3-2.2,0.5-3.3,0.1c-0.2-0.1-0.4-0.4-0.5-0.7
	c0-0.1,0-0.3,0.1-0.4c0.5-0.4,1-0.8,1.5-1.1c4.2-2,8.5-3.2,13.2-3.3C333.8,191.5,330.6,190.7,330.4,192.3z"/>
<path fill="#7A7A7A" d="M330.4,192.3c-0.3-1.9,1.5-2.2,2.4-3.2c1.3-0.6,2.6-1.2,3.9-1.8c0.5-0.7,1.4-0.5,1.9-1l0,0
	c1.8,1,0.2,1.8-0.1,2.7c-1.6,0.7-3.1,1.4-4.7,2.1c-0.6,0.4-1.4,0.2-2,0.8C331.4,192.1,330.9,192.2,330.4,192.3z"/>
<path fill="#BCBCBC" d="M338.7,186.3c-0.6,0.3-1.3,0.7-1.9,1C337.4,187,338,186.6,338.7,186.3z"/>
<path fill="#B3B3B3" d="M331.8,192c0.7-0.3,1.3-0.5,2-0.8C333.2,191.5,332.5,191.7,331.8,192z"/>
<path fill="#C5C5C5" d="M319.5,170c-0.6,0.3-1.3,0.7-1.9,1l-0.1-0.1c-0.2-1.3,0.6-1.4,1.5-1.3C319.1,169.7,319.3,169.8,319.5,170z"
	/>
<path fill="#C5C5C5" d="M322.3,168.1c-0.6,0.3-1.3,0.6-1.9,1c-0.1-0.2-0.1-0.4-0.2-0.6C320.7,167.5,321.4,167.2,322.3,168.1
	L322.3,168.1z"/>
<path fill="#C5C5C5" d="M320.4,169c-0.3,0.3-0.6,0.6-1,0.9l-0.1-0.1C319.2,169.1,319.5,168.7,320.4,169L320.4,169z"/>
<path fill="#DCDCDC" d="M331,201.6c0,0.3,0,0.6,0,0.9C330.9,202.2,330.9,201.9,331,201.6z"/>
<path fill="#C1C1C1" d="M335.7,239.9c-0.6,0.4-1.2,0.7-1.8,1.1C334.5,240.7,335.1,240.3,335.7,239.9z"/>
<path fill="#404040" d="M83.4,44.3c-0.7,0.3-1.3,0.6-2,0.9C81.9,44.7,82.6,44.4,83.4,44.3z"/>
<path fill="#888888" d="M318.4,372.5c0.3-0.3,0.6-0.7,0.9-1c-0.3,0.7-0.5,1.3-0.8,2C318.5,373.1,318.5,372.8,318.4,372.5z"/>
<path fill="#888888" d="M319.4,371.5c0.3-0.6,0.7-1.3,1-1.9C320,370.3,319.7,370.9,319.4,371.5z"/>
<path fill="#888888" d="M318.5,375.4c0-0.3,0-0.6,0-1C318.5,374.7,318.5,375,318.5,375.4z"/>
<path fill="#C1C1C1" d="M336.7,241.9c-0.3,0.3-0.6,0.6-1,0.9C336,242.5,336.3,242.2,336.7,241.9z"/>
<path fill="#9A9A9A" d="M91.9,225.6c-0.3,0-0.7,0-1,0c0-0.3,0-0.6,0-1C91.2,225,91.5,225.3,91.9,225.6z"/>
<path fill="#E7E7E7" d="M332.9,113.3c0.3,0,0.6,0,0.9,0c0.3-0.3,0.6-0.6,1-1l0,0c0.3-2.3-0.9-1.4-1.9-0.9c-0.6,0-1.3,0-1.9,0
	c-0.3,0.3-0.6,0.6-1,0.9c-1.3,0-2.6,0.1-3.8,0.1c-0.8-1,1.7-3.4-1.5-3.4c-1.7,0-2.8-0.6-2.8-2.4c0.1-2.2,2.4-0.8,3.3-1.8
	c0.6-0.1,1.3-0.2,1.8-0.4c0.2-0.1,0.5-0.4,0.5-0.7c0-0.2-0.2-0.6-0.4-0.8c-1.3-0.8-2.7-1-4.2-0.9c-0.9,0.1-1.9,0.2-2.8,0.3
	c-0.7,0-1.2-0.9-0.8-1.4c1.7-2.5,3.5-5,5.3-7.4c0.6-0.8,1.6-1,2.6-1.1c1.8-0.1,3.5-0.1,5.3-0.2c1.7-0.1,3.2-0.5,4.2-1.9
	c1.5-0.6,3-0.8,4.6-0.8c0.9,0,2,0.1,2.8-0.2c3.4-1.5,6.1-0.2,8.8,1.7c0.3,0.2,0.5,0.3,0.8,0.5c0.5,1.1,1.3,1.9,2.1,2.7
	c0.2,0.6,0.3,1.2,0.5,1.8c0.5,1.7,0,3.1-1.4,4.1c-0.9,0.6-1.9,1.1-2.8,1.7c-2.9,2.1-4.5,4.8-4.3,8.5c0.2,3-1.4,4.9-4.3,5.5
	c-4.3,1-8.7,1.8-12.5-1.5c0.3,0,0.6,0,0.9,0C332.2,113.9,332.6,113.6,332.9,113.3z"/>
<path fill="#C2C2C2" d="M332.9,88.3c-1.4,0-2.9-0.1-4.3,0c-3.2,0.3-5.8-1.3-8.6-2.4c-0.8-0.3-0.3-1,0.3-1.4c0.6-0.4,1.2-1.1,0.3-1.4
	c-2.2-0.7-1.9-1.9-1.1-3.5c0.1-0.2-0.1-0.6-0.1-0.9c1.5-2.7,4-1.2,6-1.2c3.5-0.1,7.3,1.4,10.1-1.6c0.4-0.2,0.3-0.2-0.1,0.1
	c-1.8,1.6-3.8,2.4-6,0.8c-1.1-0.8-1.7-2-1.2-3.4c0.8-2.5,2.9-3.1,5.2-2.8c0.6-0.1,1.3,0.1,1.9-0.3c0,0,0.2-0.3,0.2-0.4
	c0,0,0.1-0.4,0-0.4c0-0.4,0.1-0.7,0.2-1c0.1-0.4,0.4-0.7,0.7-1c4.2-0.5,6.2-3.6,8.1-6.9c2.4-1.2,4.4,0.4,6.6,0.8
	c0.4,0.3,0.8,0.7,1,1.2c0.8,1.5,0.8,1.5-0.8,2.7c-1.1,0.9-1.1,1,0.3,1.9c0.5,0.3,1.3,0.4,1.1,1.2c-0.2,0.7-0.9,0.7-1.5,0.9
	c-0.3,0.1-0.6,0.1-0.9,0.1c-0.7,0.7-2.7,0.3-2.2,1.9c1.4,5.3-0.7,9.8-2.6,14.4l0,0c-0.5,0.6-1.4,0.4-1.9,0.9
	c-2.9,0.4-5.7,0.7-8.6,1.1C334.3,88,333.4,87.7,332.9,88.3L332.9,88.3z"/>
<path fill="#494949" d="M352,62.5c-0.3,0-0.6-0.1-0.9-0.1c-4.1-1.9-4.1-2.1-0.6-5.2c1.2-0.4,2.5-0.2,3.8-0.5
	c1.6-0.3,3.2-0.4,4.7-0.5c4-0.3,6.4-3,8.5-6c1-1,2.1-1.9,2.7-3.1c0.9-1,1.7-2.7,3.3-2.1c1.8,0.6,0.8,2.4,1,3.7
	c0.1,1.1,0.3,2.2-0.3,3.2c0,0.3-0.1,0.6-0.1,0.9c-1,2.9-2.8,5.4-4.7,7.8c0.3,0.2,0.4,0.4,0.2,0.6c-0.1,0.1-0.3,0.2-0.4,0.2
	c-1.1,1.7-2.1,3.5-3.3,5.1c-2.3,3.2-4.8,6.2-7.2,9.4c-0.3,0.3-0.7,0.6-0.9,1l0,0c-1.2-0.5-2.1-1.4-1-2.5c3.6-3.3,5.2-7.8,7.7-11.9
	c0.4-0.6-0.1-1.4-0.8-1.3c-0.8,0.1-1.6,0.1-2.3,0.3C358.3,62.2,355.2,62.5,352,62.5z"/>
<path fill="#A4A4A4" d="M345.3,85.4c-0.4-0.3-0.7-0.6-1.1-0.9c-2-1.6-2-1.6-0.1-3.6c0.8-0.8,1.7-1.7,1.6-2.8
	c-0.3-2.4,1.6-4.5,0.7-6.9c-0.2-0.6,0.4-1.2,1-1.4c0.9-0.3,1.8-0.4,2.8-0.6c-0.5,0.7-1,1.5,0.3,1.8c1.4,0.3,2.8,0.2,4.3,0.3
	c0.5,0,1,0.3,1,0.8c0,0.4-0.2,1-0.5,1.2c-1.3,0.9-2.7,1.6-4.1,2.4c-0.9,0.6-1.4,1.5-0.6,2.4c1.4,1.7,0.6,2.9-0.6,4.1
	C348.6,83.6,347.4,85.1,345.3,85.4z"/>
<path fill="#A6A6A6" d="M332.9,88.3c0.7-0.3,1.3-0.6,2-0.9C334.2,87.7,333.5,88,332.9,88.3z"/>
<path fill="#A4A4A4" d="M343.4,86.3c0.6-0.3,1.3-0.6,1.9-0.9C344.7,85.7,344,86,343.4,86.3z"/>
<path fill="#949494" d="M370.3,66.2c0,3.2,0,6.4,0,9.6C368.9,72.6,368.9,69.4,370.3,66.2z"/>
<path fill="#949494" d="M369.3,61.4c0-0.3,0.1-0.6,0.1-0.8c2.5,1.6,1.8,3.6,0.9,5.7C370.2,64.6,370.3,62.9,369.3,61.4z"/>
<path fill="#838383" d="M357.8,76.8c0.3-0.3,0.6-0.7,0.9-1C358.5,76.2,358.2,76.5,357.8,76.8z"/>
<path fill="#727272" d="M374.2,51.9c-0.1-1.6-0.2-3.2-0.3-4.7c0-0.2-0.4-0.6-0.6-0.6c-0.2,0-0.6,0.2-0.7,0.4c-0.5,0.6-0.8,1.3-1.2,2
	c-2.9-2.7-5-4.9-1.9-9.5c2.3-3.5,0.4-8.2-0.1-12.5c-0.4-3.8-2.1-5.4-5.7-5.4c-0.3-0.3-0.6-0.7-0.8-1.1c-0.1-0.4-0.1-0.9,0-1.3
	c0.2-0.4,0.4-0.7,0.7-1c0.3-0.3,0.6-0.5,0.9-0.7c0.3-0.2,0.6-0.4,0.9-0.6c0.3-0.2,0.6-0.4,0.8-0.6c0.1-0.1,0.3-0.2,0.4-0.3
	c0.2-0.2,0.5-0.5,0.7-0.7c0.2-0.2,0.4-0.5,0.6-0.8c0.3-0.5,0.5-0.9,0.6-1.4c0.3-0.9,0.3-1.9,0.7-2.8c0.2-0.4,0.5-0.8,0.8-1.1
	c4.2-4.1,4.8-4,6.8,1.3c0.3,4.2-1,8.2-1.3,12.3c-0.1,1.4-0.5,2.8-0.5,4.3c0,7.3,0,14.6,0,22C374.9,50,374.5,51,374.2,51.9z"/>
<path fill="#949494" d="M372.3,73.9c0-2-0.2-4,0.9-5.8C373.1,70.1,373.4,72.1,372.3,73.9z"/>
<path fill="#949494" d="M372.2,79.7c0-1,0-1.9,0-2.9C372.9,77.8,372.9,78.7,372.2,79.7z"/>
<path fill="#D9D9D9" d="M331,114.3c0.3,0.1,0.6,0.4,0.9,0.4c2.3,0.3,10.3-0.7,12.1-1.5c0.4-0.2,0.8-0.5,1.1-0.8
	c0.4-0.5,0.6-1.2,0.1-1.7c-0.4-0.5-1-0.7-1.5-1.1c-1.6-1.1-1.7-1.9-0.2-2.7c3-1.5,5.2-4.2,8.5-5.1c-0.2,0.4-0.5,0.8-0.7,1.3
	c-0.2,0.5,0,1.1,0.6,0.9c1.6-0.6,3.2-1.3,4.8-2c0.3-0.1,0.7-0.1,0.9,0c0.5,0.4,0.3,0.9-0.1,1.2c-1.3,1.2-2.7,2.3-4,3.4
	c-1.7,1.5-3.4,3-2.9,5.6c0.2,1.2-0.4,2.1-1.2,3c-2.2,2.6-4.8,4.6-7.6,6.5c-0.5,0.3-1.2,0.7-1.8,0.6c-2.4-0.5-4.3,1-6.4,1.5
	c-2.9-0.8-5.8-1.5-8.5-3c-0.2-0.1-0.5-0.5-0.5-0.7c-0.1-0.6,0.4-0.8,0.8-0.9c1.7-0.4,3.4-0.8,5.1-1.2c0.6-0.2,1.2-0.4,1.4-1.4
	c-2.4-1-4.8,0.1-7.5,0.1C326.7,114.7,326.7,114.7,331,114.3z"/>
<path fill="#D7D7D7" d="M330,172.8c-0.7,0.3-1.3,0.6-2,0.9C328.7,173.5,329.4,173.1,330,172.8z"/>
<path fill="#D7D7D7" d="M328,173.8c-0.3,0.3-0.6,0.6-1,0.9C327.4,174.4,327.7,174.1,328,173.8z"/>
<path fill="#C5C5C5" d="M322.3,155.5L322.3,155.5L322.3,155.5z"/>
<path fill="#595959" d="M73.7,361c-0.3-0.6-0.6-1.3-0.9-1.9C73,359.7,73.4,360.3,73.7,361z"/>
<path fill="#595959" d="M74.6,361.9c-0.3-0.3-0.6-0.7-0.9-1C74,361.3,74.3,361.6,74.6,361.9z"/>
<path fill="#9A9A9A" d="M92.9,227.5c-0.3-0.6-0.7-1.3-1-1.9C92.2,226.2,92.6,226.9,92.9,227.5z"/>
<path fill="#9A9A9A" d="M93.8,228.5c-0.3-0.3-0.6-0.7-0.9-1C93.2,227.8,93.5,228.2,93.8,228.5z"/>
<path fill="#646464" d="M68.5,71c-0.5-0.3-1.1-0.4-1.3-0.7c-0.6-0.9,0.1-1.4,0.6-2c0.9-1.3,0.8-1.7-0.5-1.9c-0.5-0.1-1-0.1-1.4-0.1
	c-0.5-0.1-1-0.1-1.4-0.2c-0.6-0.2-1.1-0.6-1.3-1.3C63,64,63.3,63.4,63.8,63c1.7-1.6,3.8-2.3,6.1-2.4c1.4-0.1,2.9-0.1,4.3-0.3
	c2.1-0.3,3.9-1.3,5.6-2.6c1.4-1.1,2.6-1.1,3.8,0.3c1.7,1.8,3.5,2.7,5.9,2.1c0.8-0.2,1.6,0.1,1.9,1c0.3,0.8,0.1,1.6-0.4,2.3
	c-0.9,1.3-2.2,1.8-3.7,1.9c-2.1,0.1-4.1,0.1-6.2,0.1c-1.3,0-2.5,0-3.8,0.1c-0.4,0-1.1,0.3-1.1,0.6c-0.3,0.9,0.6,0.9,1.1,1.1
	c1.1,0.2,2.3-0.1,3.2,0.7c0.1,0.1,0.2,0.3,0.2,0.4c0,0.1-0.1,0.3-0.1,0.4c-0.1,0.1-0.2,0.2-0.4,0.3C76.2,69.6,72.3,70.3,68.5,71z"/>
<path fill="#7A7A7A" d="M89,49c1.4-0.1,2.7,0.1,3.9,0.9c-0.6,0-1.3,0-1.9,0C90.3,49.6,89.6,49.3,89,49z"/>
<path fill="#E2E2E2" d="M302.1,298.5c0.3-0.3,0.6-0.6,0.9-1C302.7,297.9,302.4,298.2,302.1,298.5z"/>
<path fill="#E2E2E2" d="M301.2,299.5c0.3-0.3,0.6-0.6,0.9-1C301.8,298.9,301.5,299.2,301.2,299.5z"/>
<path fill="#CCCCCC" d="M313.6,308.2c0.6-1.9,1.7-3.3,2.9-4.8C316.5,305.5,315.5,307.1,313.6,308.2z"/>
<path fill="#D9D9D9" d="M325.2,104.7c-0.5,0.4-1,0.7-1.4,1.2c-0.6,0.7-0.3,1.6,0.4,2c0.3,0.1,0.6,0.2,0.8,0.4
	c1.1,0.6,2.9-0.5,3.6,1.3c-0.8,0.9-1.6,1.9-2.4,2.8c-0.8,0.5-1.7,0.9-2.7,0.8c-0.3,0-0.6-0.3-0.7-0.5c-0.1-0.2,0.1-0.6,0.3-0.8
	c0.5-0.5,1.5-0.5,1.7-1.5c-0.2-0.2-0.5-0.5-0.7-0.4c-3,0.7-4.3-1.4-5.7-3.3c-0.4-0.5,0.1-1.3,0.7-1.5
	C321.1,104.4,323.1,104.7,325.2,104.7z"/>
<path fill="#A9A9A9" d="M313.6,114.3c-0.1-1.4-0.3-2.8-0.3-4.2c0-0.7,0.3-1.2,1.1-1.3c0.7-0.1,1.5,0.2,1.6,0.7
	c0.1,3.5,2.5,4.4,5.3,5c0.2,0,0.5,0.4,0.5,0.6c0,0.5-0.5,0.8-1,0.8C318.1,116.5,315.8,115.7,313.6,114.3L313.6,114.3z"/>
<path fill="#959595" d="M336.7,131.5c-2.5,2.9-5.9,4-9.3,5.3c-0.4,0.2-1,0-1.1-0.6c-0.1-0.5,0.2-0.9,0.7-1.1
	C330.2,133.8,333.3,132.3,336.7,131.5L336.7,131.5z"/>
<path fill="#D9D9D9" d="M332.9,111.4c0.7-0.3,1.4-0.6,2.1-0.8c0.6-0.1,1.3,0,1.5,0.7c0.1,0.8-0.6,0.9-1.2,1c-0.1,0-0.3,0-0.4,0.1
	C334.1,112,333.5,111.7,332.9,111.4z"/>
<path fill="#D9D9D9" d="M332.9,113.3c-0.3,0.3-0.6,0.6-1,0.9C332.2,113.9,332.5,113.6,332.9,113.3z"/>
<path fill="#D9D9D9" d="M334.8,112.3c-0.3,0.3-0.6,0.6-1,1C334.1,113,334.4,112.6,334.8,112.3z"/>
<path fill="#D9D9D9" d="M330,112.2c0.3-0.3,0.7-0.6,1-0.9C330.6,111.7,330.3,112,330,112.2z"/>
<path fill="#B0B0B0" d="M369.4,51.9c-2.4,3.4-5.3,6-9.5,6.8c-1.6,0.7-3.4-0.2-4.9,0.7c-1.3,0-2.5,0-3.8,0.1c-4,0.7-7.9-0.9-11.9-0.6
	c-0.6,0.1-1.3,0.1-1.9,0c-0.4-0.1-0.8-0.3-1.1-0.5c-0.3-0.3-0.5-0.7-0.6-1.1c0-0.2,0-0.4,0-0.6c-1.1-0.9-2.1-1.9-3.3-2.8
	c-2.2-1.7-4.6-2.8-7.3-3.1c-2-0.2-4.1-0.7-6.1-1.1c-1.6-0.3-3.1-0.7-4.3-1.9c0.8-1.1,2.1-0.8,3.2-0.8c1.3,0,2.6,0.5,3.9,0.4
	c-0.8-0.1-1.7,0-2.6-0.3c-1.2-0.2-2.6,0.2-3.4-1.1c-0.7-1.2-0.4-2.7,0.9-2.4c4.7,1.1,8.6-3.5,13.3-1.4c-0.2-0.4-0.6-0.5-0.8-0.9
	c-0.9-4.4,2.7-3.3,4.8-3.9c2.2-0.6,4,1.7,6,1c-1.1-0.1-2.9-0.2-2.2-1.9c1.3-3.5,4.7-1.2,6.7-2c-1.7-0.3-4.7,1-4.6-2.9
	c0.1-0.5,0.4-0.9,0.7-1.2c1.9-1.7,4.6-0.8,6.6-2.1c0.4-0.2,0.8-0.4,1.2-0.5c4.8-0.4,9.1-2.2,13.1-4.7c1-0.6,2.1-1.1,3.3-1.4
	c1.3-0.3,2.6-0.8,3.4,0.7c0.8,1.5,0.5,3-1,3.7c-2.6,1.2-0.4,0.8,0.3,1.1c2.2,1.3,2.2,2.9,1.1,5.2c-1.7,3.7-6.2,4.5-8,8
	c-2.9,1.6-5.8,2.9-8.1,5.6c-2.1,2.5-5.8,1.1-8.1,1.3c3.8,2.2,8.4,0,13,0.8c2.6,1.9,4.8,1.2,7.1-0.7c1.4-1.1,3.4-2.2,5.2-0.5
	C371.7,48.6,370.4,50.3,369.4,51.9z"/>
<path fill="#E8E8E8" d="M337.6,72c-1.3,0-2.5,0-3.8,0.1c-5.7,1.2-11.3,1.9-16.4-1.9c-1.3,0-2.5-0.1-3.8-0.1
	c-0.1-0.9,0.4-1.6,1.3-1.7c1.6-0.1,3.2-0.1,4.8-0.2c1.3,0,2.5-0.1,3.8-0.1c0.5,0,1-0.3,0.9-0.8c-0.1-0.3-0.6-0.7-1-0.8
	c-0.9-0.2-1.9-0.1-2.8-0.3c-1.7-0.3-3.4-0.6-5.2-0.9c-2.6-0.5-3.6-2.6-4.1-4.8c-0.5-2.1,0.4-4.1,2-5.6c0.7-0.7,1.7-1,2.7-0.7
	c6.4,2.3,13.1,1.7,19.7,2.4c0,0,0,0,0,0c0.3,0.3,0.7,0.6,1,0.9l0,0c0.6,0.7,1.7,0.3,2.4,0.8c0.6,0.4,0.9,1,0.9,1.7
	c-0.3,1.7-0.9,3.4,1.3,4.4c0.9,0.4,1.5,1.3,1.2,2.3c-0.4,1.2-1.6,0.6-2.4,0.9c-1.2,0.4-3.2-1.1-3.5,1.4h0c0.5,0.6,1.4,0.4,1.9,1l0,0
	C339.2,71.2,338.2,71.5,337.6,72z"/>
<path fill="#555555" d="M330.1,41.2c1.4,0.1,2.9,0.1,4.3,0.2c0.7,0.1,1.7-0.2,1.9,0.9c0.2,0.9-1.7,2.3-2.6,2.2
	c-0.2,0-0.3-0.1-0.5-0.1c-5.2-2-10.4,0.2-15.6,0c-0.2,0-0.5,0.4-0.6,0.6c0,0.2,0.3,0.6,0.5,0.7c0.6,0.2,1.2,0.3,1.8,0.5
	c0.6,1.1-0.2,1.4-0.9,1.8c-1.2,0-2.5-0.1-3.7-0.1c-1.3-1.6-3.1-2.7-4-4.6c2.7-1.6,5.4-1.5,8.1-0.3c0.4,0.2,1-0.1,1.1-0.6
	c0.1-0.3-0.1-0.6-0.2-0.9c-0.1-0.1-0.2-0.3-0.3-0.4c-0.8-0.8-1.7-1.5-1.4-2.8c0.3-1.4,1.3-2.2,2.6-2.4c3-0.5,5.3-2.9,8.4-3.2
	c1.7,1.5,2.3,3.1,0.2,4.7C327,39.2,328.3,40.3,330.1,41.2z"/>
<path fill="#AAAAAA" d="M300.2,85.5c0-1,0-1.9,0-2.9C300.9,83.5,300.9,84.5,300.2,85.5z"/>
<path fill="#D4D4D4" d="M317.5,70.1c3.5-0.2,6.9,0,10.3,1.2c2,0.7,4,0.6,6.1,0.7c-1.2,0.5-2.3,0.9-3.5,1.5c-0.2,0.1-0.4,0.6-0.4,0.8
	c0.2,0.4,0.5,0.9,0.9,0.9c0.6,0.1,1.3,0.1,1.8-0.1c1.8-0.9,3.6-1.3,5.5-1.2c1.3,0.1,3.2-1.4,3.7,0.5c0.3,1.3-1.9,1.2-2.9,1.7
	c-0.6,0.3-1.2,0.5-1.6,1c-3.1,3.6-7.4,3-11.5,2.9c-2.2,0-4.3-0.8-6.5-1.3c-2.2-0.6-2.6-3.1-4.4-4.2c-0.7-0.4-0.2-1.1,0.4-1.4
	c0.6-0.3,1.2-0.5,1.7-0.9C317.8,71.7,317.7,70.9,317.5,70.1z"/>
<path fill="#9A9A9A" d="M320.4,169c-0.3,0.3-0.7,0.6-1,0.9c-0.6,0.3-1.3,0.6-1.9,1c-0.6-0.1-1.4,0-1.6-0.7c-0.1-0.3,0.2-1,0.5-1.2
	c2.2-1.5,4.2-3.3,6.8-4.3c0.2-0.1,0.7,0.1,0.8,0.3c0.2,0.2,0.2,0.7,0.1,0.9c-0.5,0.8-1.2,1.5-1.8,2.2
	C321.6,168.3,321,168.6,320.4,169z"/>
<path fill="#D4D4D4" d="M336.7,69.1c-1.3-0.1-2.5-0.2-3.7-0.4c-0.3-0.1-0.7-0.6-0.8-1c-0.1-0.5,0.4-0.9,0.9-0.8
	c1.1,0.1,2.2,0.2,3.3,0.3c1.3,0.1,2.5,0,3.8,0c0-1.1-0.8-0.9-1.2-0.9c-1.6-0.2-2.6-1-3.2-2.5c-0.5-1.1-1.1-2.2-1.8-3.5
	c1.8-1.2,3.9,0.8,5.5-0.7c0.1-0.2,0.3-0.4,0.4-0.6c0.6-0.5,1.3-0.6,2-0.5c1.3,0.5,2.8,0.9,2.5,2.9c2.8,2.6,2.7,2.5,0.1,5.2
	c-1.1,1.1-2.3,1.6-3.8,1.7C339.4,68.2,337.9,68.3,336.7,69.1z"/>
<path fill="#838383" d="M344.4,61.3c-1-0.6-2-1.2-3-1.7c-0.3-0.4-0.7-0.5-1.2-0.5c-0.3,0-0.6-0.1-0.9-0.3c-0.3-0.2-0.5-0.4-0.6-0.7
	l-0.1-0.5c0-0.5-0.1-1,0.4-1.2c0.2-0.1,0.6-0.1,0.9-0.1c3.7,1,7.5,2.1,11.2,3.1c-0.2,0-0.3,0.1-0.5,0.1c-1.5,0.7-1.6,0.7-0.6,1.8
	c0.3,0.3,0.7,0.6,1,0.9C348.8,62.5,346.7,61.6,344.4,61.3z"/>
<path fill="#D4D4D4" d="M337.6,72c0.3-0.6,0.7-1.3,1-1.9c0.3,0.1,0.6,0.1,0.9,0.3c0.4,0.2,0.8,0.5,0.6,1c-0.1,0.2-0.4,0.4-0.7,0.5
	C338.8,71.9,338.2,71.9,337.6,72z"/>
<path fill="#D4D4D4" d="M338.6,70.1c-0.6-0.3-1.3-0.6-1.9-1C337.3,69.5,338,69.8,338.6,70.1z"/>
<path fill="#979797" d="M359.7,39.4c-0.6,0-1.3-0.1-1.8-0.1c-0.5-0.7,0-0.9,0.4-1.1c1.6-0.8,3.1-1.6,4.7-2.4c1.6-0.8,2.8-2,3.6-3.7
	c0.6-1.3,0.6-2.7-0.1-3.1c-1-0.5-1.8,0.2-2.6,0.6c-1.2,0.6-2.3,1.6-3.9,1.4c0.1-1.6,1.4-1.8,2.2-2.5c1.6-1.3,3.2-2.6,4.3-4.5
	c0.1-0.2,0.1-0.7,0-0.9c-0.3-0.5-0.8-0.5-1.3-0.4c-0.3,0.1-0.6,0.2-0.9,0.4c-4.7,4-10.3,5.6-16.1,6.7c-1.7-0.3-3.4-0.2-5.1-0.6
	c-1.9-0.5-2.8-1.6-0.7-3.1c0.3-0.1,0.6-0.1,0.9-0.1c5.7-0.6,11-2.6,16.1-5c1.3-0.6,2.5-2.1,4.1-0.7c0.9,0.5,1.8,0.4,2.7,0
	c0.9-0.4,1.7-0.9,2.6-1.3c1-0.4,2.1,0.3,1.9,1.4c-0.4,2.3,0.1,4.4,1,6.5c0.5,1.1,0.4,2.5,0.4,3.7c0,2-0.6,4.1,0.5,6.1
	c0.4,0.9,0.1,1.9-0.5,2.7c-0.6,0.9-1.3,1.8-2,2.7c-0.5,0.7-0.9,1.5-0.2,2.1c1.4,1.4,1.3,3.2,1.4,4.9c-0.4,1.2-0.9,2.2-2,2.9
	c0.3-3.8-0.6-4.5-3.8-2.9c-1.8,0.9-3.6,2.1-5.6,2.5c-0.8,0.1-1.6,0.2-2.3,0c-0.7-0.2-0.8-0.9-0.7-1.6c-0.1-1.9,1.2-2.6,2.6-3.5
	c1.3-0.8,3.3-1.1,3.6-3.1c-0.8-2.9-0.8-2.9,2.3-5.2c-1.7,0.9-3.1,2-5,1.3C360.2,39.5,359.9,39.4,359.7,39.4z"/>
<path fill="#838383" d="M354.9,59.4c1.6-0.8,3.2-0.8,4.9-0.7C358.3,59.6,356.6,59.6,354.9,59.4z"/>
<path fill="#666666" d="M363.6,20.2c-1.4,0.7-2.8,1.3-4.2,2.1c-3.9,2.2-8,3.6-12.4,4.2c-1.3,0.2-2.5,0.2-3.6-0.6
	c1.5-1.2,3.4-1.7,5.2-2.2c5.6-1.5,10.6-4.3,15.6-7c1.5-0.8,2.8-2.1,4.1-3.2c0.3-0.3,0.6-0.6,1-0.9l0,0c0.2-0.4,0.6-0.7,1-0.9l0,0
	c0.7,0.9,0.4,1.9-0.1,2.8c-0.5,0.8-1.1,1.4-1.9,2l0,0c-0.3,0.3-0.7,0.6-0.9,1l0,0c-0.4,0.3-0.7,0.6-1,0.9l0,0
	c-0.5,0.6-1.4,0.4-1.8,1l0,0C364.2,19.6,363.9,19.8,363.6,20.2L363.6,20.2z"/>
<path fill="#979797" d="M364.6,19.3c0.6-0.3,1.2-0.7,1.8-1C365.8,18.6,365.2,18.9,364.6,19.3z"/>
<path fill="#979797" d="M367.5,17.3c0.3-0.3,0.6-0.6,0.9-1C368.1,16.7,367.8,17,367.5,17.3z"/>
<path fill="#979797" d="M366.4,18.2c0.3-0.3,0.7-0.6,1-0.9C367.1,17.6,366.8,17.9,366.4,18.2z"/>
<path fill="#979797" d="M363.6,20.2c0.3-0.3,0.7-0.6,1-0.9C364.2,19.6,363.9,19.9,363.6,20.2z"/>
<path fill="#767676" d="M342.5,26c-0.2,0.9,0.2,1.6,1.1,1.8c1.7,0.3,3.5,0.4,4.6,2l0,0c-2.2,0.7-4.7,0.6-6.7,1.9
	c-0.3,0-0.6,0-0.9,0.1c-2.2,2.3-4.7,4.4-5.9,7.6c-1.2,0.1-2.4,0.1-3.6,0.2c-0.9,0.1-1.2,0.8-1,1.7c-1,0-2.1,0.1-2.7-0.7
	c-1-1.3-2.3-2.1-3.9-2.4c-0.2,0-0.6-0.4-0.6-0.6c0-0.6,0.5-0.8,0.9-0.8c0.8-0.1,1.6-0.1,2.4-0.2c2.7-0.3,2.8-0.5,2.8-3.7
	c3.7-1.3,7.3-2.8,10.5-5.3C340.4,26.7,341.4,26.2,342.5,26z"/>
<path fill="#4F4F4F" d="M366.5,12.5c0.3-0.3,0.6-0.6,1-0.9C367.1,11.9,366.8,12.2,366.5,12.5z"/>
<path fill="#727272" d="M370.4,11.6c-0.3,0.3-0.7,0.6-1,0.9C369.7,12.2,370,11.9,370.4,11.6z"/>
<path fill="#727272" d="M369.4,12.5c-0.3,0.3-0.7,0.6-1,0.9C368.7,13.1,369,12.8,369.4,12.5z"/>
<path fill="#C2C2C2" d="M364.5,42.2c1.1-0.4,1.9-1.7,3.4-1.3c0.8,0.2,0.1,1.8-2,3.2c-2.9,2-5.6,4.6-9,5.9c-1.4,0.2-2.8,0.3-4.2,0.5
	c-2.7,0.5-5.4,0.7-7.9-0.6c-1.4-0.7-2.7-0.5-4.2-0.1c-1,0.3-2,1-3.2,0.6c1.9-2.7,4.8-4.6,7.8-5c1.1-0.2,2.2-0.2,3.3-0.3
	c1.1-0.1,2.3-0.4,3-1.3c1.8-2.3,4.2-3.2,7-3.7c0.4-0.1,0.8-0.4,1.3-0.6c0,0,0,0,0,0c1.4-0.3,3.6-1.9,2.7,1.7
	C362,43.1,363.2,42.9,364.5,42.2z"/>
<path fill="#969696" d="M334.7,39.3c-1.4-1.8-1-3.5,0.5-5c1.5-1.5,3.2-2.6,5.4-2.6c0.7,1.5,2,1.9,3.6,1.6c2.4-0.4,4.7-0.8,7-1.2
	c0.5-0.1,1.1-0.2,1.3,0.3c0.2,0.8-0.5,1.1-1,1.3c-2.4,0.9-4.9,1.5-7.4,1.7c-1.5,0.1-3.1,0.2-4.5,1.1c0.5,1.1,1.4,0.8,2.1,0.8
	c1.7,0.1,3.5,0.1,5.2,0.2c0.2,0,0.6,0.3,0.6,0.6c0,0.2-0.2,0.7-0.4,0.7c-1.1,0.2-2.2,0.4-3.3,0.4C340.7,39.4,337.7,39.3,334.7,39.3z
	"/>
<path fill="#898989" d="M318.4,48c0.3-0.6,0.6-1.2,0.9-1.8c2.2,0,4.4-0.1,6.6,0c0.9,0,2.3-0.2,2.4,0.8c0.2,1.4-1.3,1-2.1,1.1
	C323.7,48.2,321,49.5,318.4,48z"/>
<path fill="#979797" d="M341.5,31.7c1.9-1.8,4.3-2,6.7-1.9C346.1,31,343.8,31.4,341.5,31.7z"/>
<path fill="#D4D4D4" d="M338.6,58.6c-0.6-0.3-1.2-0.7-1.9-1c0.6,0,1.3,0,1.9,0c0,0,0,0,0,0c0.2,0.2,0.3,0.3,0.5,0.5
	C338.9,58.3,338.7,58.5,338.6,58.6z"/>
<path fill="#D4D4D4" d="M336.7,57.6c-0.3-0.3-0.7-0.6-1-0.9C336.1,57,336.4,57.3,336.7,57.6z"/>
<path fill="#D4D4D4" d="M339.6,59.5c-0.3-0.3-0.7-0.6-1-0.9c0,0,0.1-0.1,0.1-0.1c0.3-0.3,0.6-0.4,1,0l0,0c0.7,0.2,0.7,0.5,0.1,0.9
	L339.6,59.5z"/>
<path fill="#B0B0B0" d="M339.7,59.4c0-0.3-0.1-0.6-0.1-0.9c0.6,0.4,1.2,0.7,1.8,1.1C340.9,59.5,340.3,59.5,339.7,59.4z"/>
<path fill="#B0B0B0" d="M339.6,58.5c-0.3,0-0.6,0-1,0c0-0.3,0-0.6-0.1-0.9C338.9,57.9,339.3,58.2,339.6,58.5z"/>
<path fill="#B0B0B0" d="M364.5,42.2c-1.4,1.3-3,2.3-5,2.5c-0.4,0.1-0.9-0.2-1.3-0.5c-0.4-0.4-0.2-0.9,0.1-1.2
	c0.7-0.6,1.5-1.2,2.2-1.8c0.5-0.4,1.1-0.9,0.4-1.5c-0.3-0.3-0.9-0.3-1.3-0.4c3.1-1.2,6.2-2.5,8.7-4.8c0.1-0.1,0.7-0.1,0.8,0.1
	c0.2,0.2,0.2,0.6,0.1,0.8c-0.7,1.5-2,2.4-3.2,3.4c-0.7,0.6-1.6,1.1-2.2,1.8C363.4,41.4,363.9,41.9,364.5,42.2z"/>
</svg>
