<?xml version="1.0" encoding="utf-8"?>
<!-- Generator: Adobe Illustrator 18.1.1, SVG Export Plug-In . SVG Version: 6.00 Build 0)  -->
<svg version="1.1" id="Layer_1" xmlns="http://www.w3.org/2000/svg" xmlns:xlink="http://www.w3.org/1999/xlink" x="0px" y="0px"
	 viewBox="0 0 104.3 259.3" enable-background="new 0 0 104.3 259.3" xml:space="preserve">
<path fill="#CECECE" d="M33,22.7c0.2,0.7,0.6,1.4,0.9,2C33.5,24.1,33.2,23.4,33,22.7z"/>
<path fill="#CECECE" d="M35.5,28.9c-0.2-0.5-0.4-1.1-0.6-1.6c0.1,0.3,0.2,0.7,0.3,1.1C35.3,28.5,35.4,28.7,35.5,28.9z"/>
<path fill="#CECECE" d="M57.8,108.2c-0.2-0.7-0.4-1.5-0.5-2.2C57.3,106.8,57.4,107.6,57.8,108.2z"/>
<path fill="#CECECE" d="M38.4,42.3c-0.7-2.9-1.3-5.8-1.8-8.7c0.1,0.9,0.1,1.8,0.3,2.7C37.4,38.3,37.9,40.3,38.4,42.3z"/>
<path fill="#CECECE" d="M57.7,130.9c-0.8-1.9-1.6-3.7-2.6-5.4c0.1,0.3,0.1,0.5,0.2,0.8C56.2,127.8,57,129.3,57.7,130.9z"/>
<path fill="#CECECE" d="M94.8,233.2c-1.1-4.7-2.2-9.3-3.5-13.9c1.1,5.3,2.4,10.5,4,15.6C95,234.3,94.9,233.8,94.8,233.2z"/>
<path fill="#CECECE" d="M95.6,236.4c-0.2-0.5-0.3-0.9-0.4-1.4c-1.6-5.2-2.9-10.4-4-15.6c-0.5-1.7-1-3.4-1.5-5.1
	c-6.4-19.7-12.1-39.6-16.5-59.9c-1.3-6-4-11.6-3.2-18.1c0.3-2.2-0.1-5.3-3-6.5c-0.7-0.1-1.3-0.2-2-0.4c-4.2-5.1-6.6-10.9-6.1-17.7
	c-0.5-1.1-0.8-2.2-1.1-3.4c-0.5-0.6-0.5-1.4-0.5-2.2c-0.3-1.1-0.5-2.1-0.9-3c0.9,0.6,0.8,1.8,0.9,3c0.2,0.7,0.4,1.5,0.5,2.2
	c0.4,0.5,1,0.8,2.1,0.9c1.9-1.2,1.4-2.9,0.9-4.6c-0.4-1.6-1.1-3.2-1-4.4c0.5,1.4,0.9,3.4,3.6,1.8c3.4-5.1,3.2-10.5,1.7-16.1
	c-1.3-4-1.7-8.2-2.7-12.3c0-1.3-0.3-2.5-0.6-3.8c-0.1-0.5-0.4-0.9-0.7-1.3c-1.9-4-5.2-7.6-4.3-12.6c0.2-1-0.3-1.8-1-2.6
	c-4.2-4.8-5.9-10.6-6.7-16.7c-3.7-5.6-7.2-11.3-11.4-16.5c-1-1.3-1.9-2.6-3.8-2.2c-0.8,0.3-1.3,0.8-1.6,1.6
	c-0.1,1.2,0.1,2.3,0.5,3.3c0.3,0.7,0.6,1.4,0.9,2c0.4,0.8,0.8,1.7,1.1,2.5c0.2,0.5,0.4,1.1,0.6,1.6c0.8,1.4,1,3,1.1,4.6
	c0.5,2.9,1.1,5.9,1.8,8.7c1.4,5.1,3.2,10,5.1,14.9c0.9,2.2,1.8,4.4,2.6,6.6c0.8,2,1.6,4,2.4,6c-0.9-2-1.7-4-2.4-6
	c-0.9-2.2-1.8-4.4-2.6-6.6c-0.2-0.4-0.3-0.8-0.5-1.2c-2-4.5-3.5-9.1-4.6-13.8c-0.5-2-1-4-1.5-6.1c-0.2-0.9-0.2-1.8-0.3-2.7
	c-0.1-0.4-0.1-0.8-0.2-1.2c-0.2-1.2-0.5-2.3-0.9-3.5c-0.1-0.2-0.2-0.4-0.3-0.5c-0.1-0.4-0.2-0.7-0.3-1.1c-0.3-0.8-0.7-1.7-1.1-2.5
	c-0.3-0.7-0.6-1.3-0.9-2c-0.4-1-0.8-2.1-1.2-3.1c-0.3-1-1.1-2.1-2.3-2.1c-1.6,0-1.9,1.3-2.1,2.6c0.2,4.2,2.5,7.8,3.5,11.8
	c0.4,1.1,0.7,2.2,0.9,3.3c0,0.4,0.1,0.9,0.1,1.3c0.5,6.6,2.8,12.7,4.9,18.8c3.5,10.2,7.7,20.2,10.7,30.6c0.8,2.7,1.7,5.2,0.3,8.1
	c-1,2.1-0.8,4.4,1.1,6.5c1.2,1.3,2.2,2.8,2.5,4.4c-1.3-1.4-0.9-5.6-5.1-3.5c-0.3,0.4-0.4,0.8-0.5,1.3c0,1,0.4,1.8,0.6,2.8
	c0.8,3.4,2.9,6.3,4.1,9.6c1.8,3.3,3.7,6.6,4.7,10.3c1,1.8,1.8,3.6,2.6,5.4c-0.7-1.6-1.6-3.1-2.4-4.7c-0.1-0.3-0.1-0.5-0.2-0.8
	c-2.2-4-4.7-7.7-7.5-11.3c-2-2.5-3.7-3-5.2,0.4c-0.1,4.6,4.2,6.8,6,10.4c0.2,0.7,0.5,1.2,0.9,1.8c0.2,0.4,0.5,0.7,0.8,1.1
	c1.8,2.5,3.3,5.2,4.6,8c0.4,0.7,0.7,1.5,0.9,2.3c0.1,0.4,0.1,0.8,0.2,1.2c0,0.7,0.1,1.3,0.3,1.9c0.2,0.4,0.4,0.9,0.7,1.2
	c3.2,5.6,4,12.1,6.1,18.1c4.5,12.4,7.6,25.2,12.2,37.6c1.9,6,3.4,12.1,6,17.9c0.2,1.2,0.7,2.3,1,3.4c0.2,0.5,0.3,0.9,0.5,1.3
	c1.3,3.1,2.7,6.1,3.2,9.4c1.3,8.8,4.8,16.7,8,24.8c2.1-0.2,4.3,0.1,6.4,0.2c0.2-0.2,0.4-0.4,0.6-0.6c0.6-0.5,0.9-1.1,1.1-1.6
	C99.5,247.6,97.4,242,95.6,236.4z"/>
<path fill="#CECECE" d="M43.5,57.2c0.9,2.2,1.7,4.4,2.6,6.6C45.3,61.6,44.4,59.4,43.5,57.2z"/>
<path fill="#8D8D8D" d="M93.1,256.8c0.3,0.3,0.7,0.6,1,0.9C93.7,257.4,93.4,257.1,93.1,256.8z"/>
<path fill="#222222" d="M45.3,139.4c0.3,0.4,0.6,0.8,0.8,1.2c0.7,0.4,1.2,0.1,1.7-0.3c0.2-0.4,0.4-0.7,0.5-1.2
	c0-0.6-0.1-1.2-0.2-1.8c-0.1-0.4-0.1-0.8-0.2-1.2c0-0.4-0.1-0.7-0.3-1.1c-0.2-0.3-0.4-0.6-0.5-1c-0.1-0.3-0.3-0.7-0.5-1
	c-0.2-0.3-0.4-0.6-0.6-0.9c-0.3-0.5-0.6-0.9-1-1.3c-0.2-0.3-0.4-0.6-0.6-0.9c-0.5-0.6-1-1.3-1.5-1.9c-2.4-3-4.1-6.6-5.4-10
	c-3.4-8.8-9.1-17.3-5.4-27.6c-2.1-5.1-5.2-9.8-6.5-15.2c-3.4-3.2-3.6-7.7-4.5-11.7c-1.7-7.7-5.2-14.7-7.8-22c-0.5-1.5-1.8-2.4-3.4-2
	c-1.8,0.5-1.8,2.1-1.7,3.5c0.1,2.1,0.8,4.1,1.7,6c3,6.4,5,13.2,6.4,20c1.9,9.6,5.9,18.8,6.3,28.8c0,0.4,0,0.9,0,1.3
	c5.5,13.6,14.1,25.7,21.1,38.7C44.3,138,44.8,138.7,45.3,139.4z"/>
<path fill="#575757" d="M13.5,74.3c0.3,0.3,0.6,0.6,0.9,1C14.1,75,13.8,74.7,13.5,74.3z"/>
<path fill="#393939" d="M24,99.3c-0.1-4.1-0.8-8.2-1.7-12.3c-0.9-4.5-2.6-8.9-3.3-13.4c-1-6.5-4.4-12.3-5.2-18.8
	c-0.1-0.5-0.4-0.9-0.6-1.3c-1-2.7-2-5.4-2.9-8.1c-0.3-1-0.4-2.2-0.6-3.3c0-0.2,0.2-0.7,0.4-0.8c0.2-0.1,0.6,0.1,0.8,0.3
	c0.2,0.2,0.3,0.6,0.4,0.9c2.1,5.7,4.4,11.3,6.2,17c1.4,4.4,3.6,8.5,3.7,13.3c0,1.6,0.7,3.1,1.7,4.4c0.8-0.3,1.1,0.2,1.5,0.7
	c3,3.9,5.3,8.2,7.8,12.4c1.2,2,2.5,4.8,5.2,1.2c-0.2-1.7,0.4-3.5-0.8-4.9c-3.3-4-5.2-8.9-8.1-13.2c-0.3-0.6-0.5-1.2-0.8-1.7
	c-0.2-0.4-0.3-0.7-0.5-1.1c-0.2-0.5-0.4-1.1-0.5-1.7c0-0.4,0-0.8-0.1-1.2c-1.3-2-0.6-4,0.1-6c0-0.5,0-0.9-0.1-1.3
	c-0.6-1.8-1.8-3.3-2.5-5c-5.4-9.9-8.2-20.8-11.1-31.6c-0.2-1-0.4-1.9-0.3-2.9c0.1-0.5,0.1-1,0-1.5c-2.3-6.9-2.9-7.1-8.8-4.4l-0.1,0
	c-0.4,0.2-0.7,0.5-0.9,0.9c-0.3,0.4-0.6,0.7-0.9,1.1C2,17.4,1.9,18,1.8,18.6C3.3,29.9,7,40.6,10,51.5c1.6,5.7,3.3,11.3,4.4,17.1
	c0.7,1.2,1.5,2.5,2.2,3.7c0.5,0.8,0.9,1.7,0.5,2.7c-1.2,2.6-0.3,5,0.7,7.4c1.2,2.6,2.1,5.3,3,8C21.7,93.4,22.1,96.6,24,99.3z"/>
<path fill="#EAEAEA" d="M96.4,238.9c-3.7-11.1-6.1-22.6-7.7-34.2c-2.4-6.1-4-12.5-5.3-18.9c-0.8-2.3-0.5-4.6-0.4-6.9
	c-1-3.3-1.7-6.6-2.1-10c0-0.5,0-0.9-0.2-1.4c-0.5-1-1.2-2-1.4-3.2c-1.3-5.3-1.6-10.8-3.2-16c-2-7.5-5.2-14.7-5.3-22.6
	c0-1.1-0.6-2.1-1.1-3.2c-2.4-5.2-3.5-10.8-4.6-16.3c0.1-0.5,0-1-0.1-1.5c-0.3-1.1-1.1-1.7-2-2.2c-0.2-0.1-0.5-0.1-0.7-0.2
	c-0.4-0.9-0.8-1.7-1.2-2.6c-0.7-1.9-1.4-3.9-2.1-5.8c-0.1-0.2-0.5-0.5-0.7-0.5c-0.2,0-0.5,0.3-0.6,0.6c-0.3,1.1,0,2.2,0.2,3.3
	c0.5,4,1.5,7.8,1.4,11.9c-0.7,0.6-0.9,1.3-0.8,2.2c1.3,7.1,3.1,14,7.6,19.8c2.5,2.2,2.6,5,1.7,7.9c-0.5,1.6-0.7,3.1,0,4.6
	c3.5,8.5,4.9,17.5,6.8,26.4c0.7,3.1,1.3,6.2,2.2,9.3c1.2,3.6,2.6,7.2,3.4,11c1.4,6.6,3.8,12.9,5.9,19.2c3.2,9.5,6.1,19.2,7.9,29.1
	c0.3,1.4,0.5,2.8,1.3,4.1c0.1,0.2,0.6,0.4,0.8,0.4c0.2-0.1,0.5-0.4,0.6-0.7c0.1-0.3,0.2-0.6,0.2-0.9c0-0.3-0.1-0.5-0.2-0.8
	C96.5,240,96.5,239.4,96.4,238.9z"/>
<path fill="#A3A3A3" d="M51.7,102.1c-0.6-1.3-1.4-2.5-2-3.8c-0.6-1.2-0.8-2.5,0.6-3.3c0.8-0.5,1-1.2,0.8-2c-0.3-1.4-0.7-2.8-1.1-4.2
	c-3.5-11.4-7.3-22.7-11.7-33.9c-0.3-0.9-0.7-1.8-0.8-2.8c-0.4-4-2.1-7.7-2.2-11.7c0-1.6-0.6-3.1-1.7-4.4c-1.9-2.9-2.3-6.5-3.8-9.5
	c-2.5-5-2-11.2-6.2-15.5c-3.7-1.3-3.5,0.8-3.2,3.4c0.6,4.3,2.9,7.8,4.6,11.2c0.7,1.2,1.2,2.5,1.4,3.3c-0.3-1.1-0.8-2.2-1.4-3.3
	c-0.2-0.3-0.4-0.6-0.6-0.9c-1.7-2.4-3-1.9-3.7,0.8c0,0.5,0,0.9,0,1.4c0.1,0.7,0.2,1.4,0.3,2c0.1,0.7,0.1,1.4,0.1,2.1
	c2.3,4.4,3,9.1,2.4,14c0,0.5,0.1,1,0.3,1.4c1.5,3.6,2.4,7.4,4.6,10.8c1.9,0.9,3.3,3.4,6,1.9c0.5,0.2,1-2,1.1-0.4
	c0.4,7.8,4.9,14.2,7.4,21.2c1.2,3.4,2.1,6.6,0.8,10.1c0,2.4,0,4.8,0,7.2c0.3,2.2,0.1,4.8,3.4,5.1c0.7-0.1,1.3,0.1,1.6,0.7
	c0.6,1.1,1,2.3,1.5,3.5c0.6,1.3,1.2,2.6,1.9,3.9c0.1,0.2,0.6,0.3,0.8,0.2c0.2-0.1,0.6-0.4,0.6-0.6C53.6,107.1,52.9,104.5,51.7,102.1
	z"/>
<path fill="#A3A3A3" d="M25,25.5c0.6,1.1,1,2.2,1.4,3.3C26.2,28,25.8,26.8,25,25.5z"/>
<path fill="#BABABA" d="M75.4,192.8c-2.3-6.5-4.7-12.9-6.1-19.6c-0.4-1.9-1-3.7-1.6-5.5c-2.5-7.4-4.9-14.8-6.9-22.4
	c-0.4-1.7-1-3.4-2.3-4.7c-2.8-3.8-4.3-8.4-7.6-11.9c-1.2-1.2-2.2-3-4.3-2.2c-1.9,0.7-1.6,2.5-1.5,4.1c0.1,0.4,0.3,0.9,0.6,1.2
	c0.2,0.4,0.5,0.8,0.7,1.1c0.2,0.4,0.5,0.7,0.7,1.1c0.2,0.4,0.5,0.7,0.9,0.9c0.3,0.3,0.6,0.6,0.9,0.8c1.6,1.5,2.5,3.3,3.4,5.3
	c0.8,1.5,1.5,3.1,1.9,4.8c1,3.8,3.4,7.3,2,11.5c6,12.7,12.6,25.2,17.4,38.5c0.5,1.3,1.1,2.7,3,2.5C76.7,196.4,76.1,194.6,75.4,192.8
	z"/>
<path fill="#656565" d="M47.8,130.8C47.8,130.8,47.8,130.9,47.8,130.8L47.8,130.8z"/>
<path fill="#656565" d="M55.7,145.4c-0.7-1.6-1.3-3.2-2-4.7c-1.4-2.2-2.2-4.7-3.8-6.8l0,0c-0.6-0.5-0.4-1.4-1-1.9l0,0
	c-0.3-0.4-0.6-0.7-0.9-1l0,0c-0.1-0.1-0.1-0.2-0.2-0.2c0,0.1,0,0,0,0c0,0,0-0.1-0.1-0.2c-0.6-1.4-3-2.4-2-3.8
	c1.4-1.9,2.5,0.7,3.7,1.1c1.8,0.6,2.3,0,1.3-1.7l0,0c-0.2-0.4-0.6-0.7-0.8-1.1c-2-3.5-4-7-6-10.5c-1-4.9-0.3-10.2-4.1-14.2
	c-0.4-0.2-0.9-0.4-1.3-0.5c-2.1,0.8-6.4-1-5.8,2.8c0.8,4.6,0.9,9.5,2.7,13.7c1.9,4.4,4.2,8.8,6.2,13.2c0.4,0.8,0.9,1.5,1.5,2.2l0,0
	c0.5,0.5,0.4,1.4,1,1.9l0,0c0.3,0.3,0.6,0.6,0.9,1c0.1,0.3,0.1,0.6,0.1,0.9c0.3,0.4,0.6,0.7,0.9,1.1l0,0.1c0.4,0.3,0.7,0.6,1.1,0.8
	c2.1,2.8,3.3,6.1,5.5,8.8c0.7,0.9,1.6,1.7,2.8,0.9C56.3,146.9,56.3,146.1,55.7,145.4z"/>
<path fill="#7B7B7B" d="M47.9,105.1c-0.5-0.6-0.3-1.4-0.8-2c0-0.3-0.1-0.6-0.1-0.9c-1.2-1.7-1.7-3.7-1.9-5.7
	c0.2-3.7-1.3-6.9-2.5-10.2c-3.1-1.7-4.9-4.5-6.2-7.7c-2.2-4.1-6.5-6.5-8.8-10.5c-0.5-0.9-1.6-1.1-2.5-0.5c-0.8,0.5-0.8,1.3-0.1,2
	l0,0c0.5,0.5,0.3,1.4,1,1.9l0,0c0.5,0.5,0.3,1.4,0.9,1.9c3.3,6,7.1,11.8,9.5,18.3c0.3,0.3,0.6,0.7,0.9,1c1.8,2,3.2,4.3,4.4,6.7
	c2.3,4.7,3.8,9.8,6.5,14.3c0.8,1.3,1.8,3.7,3.8,0.9C50.6,111.5,49.3,108.3,47.9,105.1z"/>
<path fill="#A3A3A3" d="M36.4,28.3c0.3,0.6,0.7,1.1,0.8,1.7c0.5,6.1,2.9,11.8,3.9,17.7c0.4,2.4,1.1,4.7,2.3,6.8
	c3.5,6.3,5,13.5,8.7,19.7c0.3,0.5,0.4,1.2,0.4,1.8c0,0.3-0.2,0.7-0.4,0.8c-0.2,0.1-0.7,0.1-0.9-0.1c-1.9-2-3.1-4.4-4.1-6.9
	c-1.6-4.5-3.4-9-5.1-13.4c-2.7-6.7-4.8-13.5-6.3-20.5c-0.2-0.9-0.1-1.9-0.2-2.9C36.7,31.6,34.5,29.6,36.4,28.3z"/>
<path fill="#848484" d="M56.6,126.2c-0.7-1.4-1-3.1-2-4.3c-5.2-6.5-8.9-13.8-11.8-21.5c-0.4-1.1-1-2.4-2.7-2.2
	c-1.2,0.8-1.5,1.8-0.8,3.1c0.3,1.7,1.9,3.1,1.6,4.9c-0.6,3.5,1,6.1,3.2,8.5c0.2-0.4,0.5-0.9,1-0.8c0.4,0.1,0.8,0.5,1.1,0.9
	c4.5,6.8,9.5,13.2,13.2,20.5c0.2,0.5,0.5,1.2,1.7,0.8C59.5,132.8,58.1,129.5,56.6,126.2z"/>
<path fill="#ACACAC" d="M40.3,98.3c1.2,1.2,1.6,2.7,2.2,4.2c3.8,8.4,7.6,16.8,14.1,23.7c-0.4-3.5-2.4-8.4-4.7-11.5
	c-0.7,0.1-1.3-0.1-1.7-0.7c-0.9-1.7-1.9-3.3-2.7-5.1c-1.2-2.6-2.2-5.3-3.4-7.9c-1.4-2.9-2.9-5.7-4.4-8.5c-0.5-0.9-1.2-1.5-2.4-0.9
	c-0.3,0.3-0.5,0.7-0.5,1.2c-0.2,0.9-0.5,1.7-0.1,2.6C37.8,96.7,38.2,98.5,40.3,98.3z"/>
<path fill="#A0A0A0" d="M59.4,109c1.2,5.9,3.4,11.4,5.4,17c0.6,1.6,1.3,3.2,1.4,5c-0.6,0-1.2,0-1.9,0c-3.6-5.9-6.4-12.1-6.8-19.1
	c-0.7-3.6-1.5-7.1-2.9-10.5c-0.6-1.5-1.2-3-0.6-4.6c0.1-0.3,0.4-0.6,0.6-0.6c0.2-0.1,0.7,0.1,0.8,0.3c0.9,2,2,3.9,2.2,6.2
	C57.9,104.8,58.4,107,59.4,109z"/>
<path fill="#525252" d="M33.5,35.1c-0.7-0.9-0.1-2.1-0.8-3c-1.3-3.8-2.7-7.7-4-11.5c-1-2.3,0-4.6-0.3-6.9c-1.4-3.2-3.5-6-5.5-8.9
	c-0.2-0.1-0.3-0.3-0.4-0.5c-1.7,0.6-3.4,1.4-5,2.3C18.6,9,21.5,9.8,23,12c2.8,6.4,5.4,12.8,7.6,19.4c0.6,1.6,1.2,3.3,2,4.8
	c0.2,0.5,0.8,0.1,1.1-0.3C33.6,35.6,33.5,35.4,33.5,35.1z"/>
<path fill="#A7A7A7" d="M47.9,37c1.4,1,2,2.5,3,3.8c1,2.3,2.1,4.6,4.1,6.2c0.8,0.6,1.2,1.4,1.3,2.4c0.9,6.4,2.9,12.5,3.6,18.9
	c0.1,0.5-0.2,0.9-0.5,1.3c-0.8-1-1.5-2.1-1.7-3.4c-0.3-1.9-1-3.7-2-5.3c-0.3-0.5-0.7-1.3-0.6-1.8c0.7-2.8-1-4.7-2.3-6.9
	c-0.8-1.3-1.3-2.9-1.9-4.4c-0.5-1.2-0.7-2.5-1.3-3.5C48.2,42,47.9,39.6,47.9,37z"/>
<path fill="#969696" d="M58.5,139.7c-0.3-0.4-0.5-0.7-0.9-1c0-0.3-0.1-0.6-0.1-0.9c-0.5-0.6-0.3-1.5-0.9-2c-1.7-3.3-3.4-6.7-5.9-9.5
	c-0.2,0.4-0.6,1-1,0.7c-0.8-0.4-1.6-1.1-2.2-1.7c-1.4-1.3-2.9-2.4-4.6-3.2c-0.4-0.2-1-0.3-1.3,0.2c-0.2,0.3-0.2,1,0,1.3
	c1.6,2.9,3.6,5.6,6.4,7.5c0.1-1.1-1.2-1.9-0.3-3.4c2.1,1.7,4,3.5,5.4,5.8c1.2,2,2.4,4,3.6,6.1c0.4,0.7,0.9,1.3,1.9,1.1
	C58.5,140.3,58.5,140,58.5,139.7z"/>
<path fill="#A6A6A6" d="M52.5,61.1c-1.5-0.1-1.7-1.2-1.9-2c-1.1-4.2-3.2-8-5.2-11.8c-1.8-3.6-3-7.4-4.4-11.1
	c-0.2-0.4-0.2-0.9-0.2-1.4c0-0.2,0.3-0.4,0.6-0.6c0.1-0.1,0.4,0,0.4,0.1c0.5,0.6,1.1,1.2,1.4,1.9c2.8,6.5,5.5,12.9,8.1,19.4
	C52,57.3,52.6,59.2,52.5,61.1z"/>
<path fill="#A0A0A0" d="M63.3,85.9c1.2,1.3,1.3,2.9,1.4,4.4c0.5,5.1,2.2,9.9,3.5,14.7c0.6,0.8,0.4,1.8,0.4,2.7
	c-3.8,2.1-3.9,2-5.2-2.7l0,0c-0.9-0.8-0.1-2.1-0.9-2.9c0,0,0,0,0,0c0.2-0.9,0-2,0.5-2.8c1.6-2.7,1.3-5.4,0.8-8.3
	C63.5,89.4,63.4,87.6,63.3,85.9z"/>
<path fill="#727272" d="M28.7,20.6c-1.4-2-1.8-4.3-1.8-6.7c4.5-0.6,5.4,2.7,6.5,5.9c1,2.8,2,5.7,3,8.5c0,1.6,0.2,3.3-0.9,4.7
	c-1.8-4.4-3.5-8.7-5.3-13.1c-0.2-0.4-0.5-0.9-1-0.6C28.9,19.6,28.9,20.2,28.7,20.6z"/>
<path fill="#EAEAEA" d="M57.5,111.8c2.3,6.4,4.6,12.8,6.8,19.1c0.2,0.8,0.3,1.5,0.5,2.3c0.1,0.5,0.1,1-0.5,1.1
	c-0.2,0-0.6-0.2-0.8-0.4c-0.3-0.4-0.5-0.8-0.7-1.3c-2.1-5.8-4.3-11.6-6.4-17.4c-0.3-0.9-0.8-1.8-0.5-2.7
	C56.2,111.8,56.8,111.7,57.5,111.8z"/>
<path fill="#B3B3B3" d="M31.7,14.3c-2.8-2.9-5.2-6-7.6-9.2c-0.4-0.4-0.8-0.8-1.3-0.9c-0.3,0.1-0.6,0.2-0.9,0.3
	C21.9,4.7,22,5,22.2,5.2c1.7,2.8,3.6,5.5,4.7,8.6c2.8,1.2,4.6,3.6,6.5,5.9c0.4-0.4,0.8-0.8,1.2-1.1C34,17,32.9,15.5,31.7,14.3z"/>
<path fill="#B3B3B3" d="M22.3,4.2c-0.2,0.1-0.3,0.2-0.3,0.3c0.3-0.1,0.6-0.2,0.9-0.3C22.7,4.1,22.5,4.2,22.3,4.2z"/>
<path fill="#4C4C4C" d="M83.6,219.3c-0.7-0.8-1-1.8-1-2.9C83.2,217.2,83.6,218.2,83.6,219.3z"/>
<path fill="#A3A3A3" d="M33.5,35.1c-0.6-0.9-0.9-1.9-0.8-3C33.3,33,33.6,34,33.5,35.1z"/>
<path fill="#A7A7A7" d="M59.6,70.4c0.3,0.1,0.5,0.1,0.8,0.2c0,0.9,0.1,1.9,0.1,2.8C59.8,72.5,59.5,71.5,59.6,70.4z"/>
<path fill="#A3A3A3" d="M47.9,105.1c-0.3-0.7-0.5-1.3-0.8-2C47.4,103.8,47.7,104.4,47.9,105.1z"/>
<path fill="#BABABA" d="M57.5,137.8c-0.3-0.7-0.6-1.3-0.9-2C56.9,136.4,57.2,137.1,57.5,137.8z"/>
<path fill="#969696" d="M50.8,126.2c-0.3-0.4-0.5-0.7-0.8-1.1C50.3,125.5,50.5,125.9,50.8,126.2z"/>
<path fill="#BABABA" d="M58.5,139.7c-0.3-0.3-0.6-0.7-0.9-1C57.9,139,58.2,139.4,58.5,139.7z"/>
<path fill="#CECECE" d="M96.1,237.2c0,0.2,0,0.5,0,0.7c0.2,0.8,0.5,1.5,0.8,2.3C96.9,239.2,96.7,238.2,96.1,237.2z"/>
<path fill="#CECECE" d="M96.1,237.9c0,0.9,0.2,1.7,0.8,2.5c0-0.1,0-0.1,0-0.2C96.6,239.4,96.4,238.7,96.1,237.9z"/>
<path fill="#3F3F3F" d="M34.6,116.8c2.1,4.4,4.5,8.8,6.7,13.2c0.3,0.5,0.7,0.4,1,0c-0.4-1.2-0.8-2.4-1.3-3.5
	c-1.4-3.2-2.9-6.3-4.3-9.5c-0.6-1.3-1.2-2.7-0.4-4.1c1.6-2.7,0.8-5.1-0.6-7.6c-0.4-0.7-0.7-1.4-1-2.2c-0.1-0.3-0.1-0.7,0.1-0.9
	c0.4-0.4,0.8-0.2,1.2,0.1c0.5,0.3,1,0.9,1.7,0.6c0.7-0.3,0.6-1,0.7-1.7c0-4.8-2.9-8.8-7.7-10.5c-0.3,0.6-0.7,1-1.3,1.3
	c-2.2,1-2.2,1.1-1.9,3C28.5,102.7,31.3,109.9,34.6,116.8z"/>
<path fill="#666666" d="M38.4,101.2c0.3,0,0.6,0,0.9,0c0.3-1,0.7-1.9,1-2.9c-0.6-1.3-1.2-2.6-1.8-3.9c-0.7-0.5-0.5-1.4-1-2
	c0-0.3,0-0.6-0.1-0.9c-0.3,0-0.7,0-1,0c-1.4,0.2-2-0.8-2.6-1.7c-1.4-2.1-2.6-4.4-4.1-6.4c-1.6-2.3-3.4-4.5-5.3-6.7
	c-0.5-0.6-1.1-0.3-1.4,0.4c3.1,4.2,5.2,8.9,7.6,13.5C33.7,93.9,35.9,97.7,38.4,101.2z"/>
<path fill="#393939" d="M24.9,102.2c0,1.4,0.2,2.7,1,3.8C25.9,104.7,25.8,103.3,24.9,102.2z"/>
<path fill="#393939" d="M24,99.3c0,1.1,0.3,2,0.9,2.9C24.9,101.1,24.6,100.2,24,99.3z"/>
<path fill="#343434" d="M42.3,130c-0.3,0-0.7,0-1,0c0.6,0.6,1.3,1.3,1.9,1.9C42.9,131.3,42.6,130.6,42.3,130z"/>
<path fill="#393939" d="M26.8,108c-0.3-0.6-0.6-1.3-0.9-1.9C26.2,106.7,26.5,107.3,26.8,108z"/>
<path fill="#343434" d="M43.2,131.9c0.3,0.6,0.7,1.3,1,1.9C43.8,133.2,43.5,132.6,43.2,131.9z"/>
<path fill="#656565" d="M47.2,137.5c-0.5,0.3-0.6,0.7-0.2,1.2c0.1,0.3,0.1,0.5,0.2,0.8c0.3,0.1,0.6,0.1,0.9,0.1
	C48.7,138.5,48.5,137.8,47.2,137.5z"/>
<path fill="#343434" d="M47.1,137.7c0.6-0.5,0.5-0.8-0.3-0.9c-0.3,0-0.5,0.1-0.8,0.1c0.3,0.6,0.6,1.2,0.9,1.8
	C47,138.3,47.1,138,47.1,137.7z"/>
<path fill="#343434" d="M45.1,135.7c0.3,0.4,0.6,0.7,0.9,1.1C45.7,136.4,45.4,136,45.1,135.7z"/>
<path fill="#343434" d="M44.2,133.8c0.3,0.3,0.6,0.6,0.9,1C44.7,134.5,44.4,134.2,44.2,133.8z"/>
<path fill="#565656" d="M25,45.5c-1.5-3.5-0.7-7.4-2.3-10.8c-1.3-2.7-3.6-4.8-3.8-8c-1.7-4.9-2.5-10.1-4.8-14.8
	c-0.5-1.1-0.8-2.2-1.7-2.6c-1.1,0.6-2.2,1.2-3.3,1.8c-0.4,0.4-0.8,0.7-1.3,1C6.4,13,5.2,14,3.9,14.9c0.6-0.1,1.2-0.2,1.8-0.2
	c2.4-0.2,2.9,0.1,3.6,2.5c0.3,1.2,0.4,2.4,1.2,3.5c1.3,1.3,1.6,2.9,2.1,4.6c1.8,6.4,4.4,12.5,7.5,18.5c0.7,1.2,1.3,2.5,2.2,3.6
	c0.6,0.7,1.3,1.7,2.3,1.1C25.9,47.7,25.5,46.6,25,45.5L25,45.5z"/>
<path fill="#565656" d="M3.9,14.9c-0.3,0.3-0.6,0.6-0.9,0.9C3.2,15.5,3.6,15.2,3.9,14.9z"/>
<path fill="#717171" d="M10.5,20.6c0.3-0.4,0.7-0.8,1.1-0.3c0.9,1,1.3,2.2,1.6,3.4c1.1,4.7,3.2,9,5.6,13.1c1.1,1.8,1.8,3.7,2.3,5.7
	c0,0.2-0.1,0.4-0.1,0.6c0.3,2.5,0.7,4.8,2.1,7c0.9,1.5,1.8,3.3,0.8,5.3c-0.3,0.3-0.7,0.6-1.1,0.7c-2.7-4.5-5-9.2-6.3-14.4
	c-1.4-5.2-3-10.4-4.6-15.6c-0.3-0.9-0.4-1.9-0.6-2.8c-0.5-0.6-0.3-1.4-0.8-2C10.6,21.2,10.5,20.9,10.5,20.6z"/>
<path fill="#626262" d="M34.5,80.1c-1.2,0.2-1.6-0.7-1.9-1.6c-1.4-3.6-3.8-6.5-6.2-9.4c-0.5-0.6-1.1-0.3-1.4,0.4
	c-2.2-2.5-1.6-5.1-0.1-7.6c0.4-0.4,0.8-0.5,1.4-0.4c4.1,4.2,6.5,9.5,9,14.7C36,77.5,35.6,78.9,34.5,80.1z"/>
<path fill="#717171" d="M24.8,61c-1.1-1.4-1.6-3.1-1.9-4.8c0,0,0.3-0.2,0.3-0.2c3.1-0.2,3.4,1.7,2.8,4C25.6,60.5,25.3,60.8,24.8,61z
	"/>
<path fill="#626262" d="M26,71.5c0.3,0.6,0.6,1.3,0.9,1.9C26.6,72.7,26.3,72.1,26,71.5z"/>
<path fill="#626262" d="M25,69.5c0.3,0.6,0.6,1.3,1,1.9C25.6,70.8,25.3,70.2,25,69.5z"/>
<path fill="#565656" d="M10.6,21.5c0.3,0.7,0.5,1.3,0.8,2C11.1,22.8,10.9,22.2,10.6,21.5z"/>
<path fill="#717171" d="M25.9,61.9c-0.3,0-0.6,0-0.9,0c-0.1-0.3-0.1-0.6-0.2-0.8c0,0,0.3-0.2,0.3-0.2C25.8,60.8,26.2,61.1,25.9,61.9
	z"/>
<path fill="#C6C6C6" d="M68.2,107.9c0.6,4.1,1.3,8.1,1.9,12.2c0.7,4.1,1.5,8.1,2.1,12.2c0.6,4.1,1.2,8.1,1.7,12.2
	c0.2,1.6,0,3.2,0,4.7c-0.3-0.6-0.7-1.1-0.8-1.7c-0.9-5.9-3-11.7-3.2-17.8c-0.1-2.5-0.8-5-2-7.3c-1.9-3.7-2.9-7.7-4.1-11.7
	c-0.5-1.9-0.5-3.8-0.5-5.7c0.8,1.3,1.7,2.6,3.6,2.2C67.3,107.2,67.8,107.7,68.2,107.9z"/>
<path fill="#828282" d="M77.9,165.5c0.6,0.9,1,1.8,0.8,2.9C77.9,167.6,77.7,166.6,77.9,165.5z"/>
<path fill="#C6C6C6" d="M62.4,102.2c0.6,0.9,0.9,1.8,0.9,2.9C62.7,104.2,62.4,103.2,62.4,102.2z"/>
<path fill="#818181" d="M34.2,64.9c2.9,7,5.4,14.2,8.4,21.1c0.6,1.4,0.8,3.1,2.7,3.6c0.3,0.2,0.5,0.4,0.8,0.5
	c0.6,0.1,0.9-0.4,0.8-0.8c-0.6-2.8-1.1-5.7-2-8.4c-1.3-3.9-2.9-7.8-4.6-11.6c-1.5-3.2-2.7-6.5-2.9-10.1c-0.1-1.6-0.6-3.1-1-4.7
	c-0.3-0.9-0.9-1.7-1.5-2.4c-0.2-0.3-0.9-0.5-1.2-0.4c-0.3,0.1-0.8,0.7-0.7,1c0.2,2.1,0.5,4.1,0.8,6.2C32.4,61.1,33.4,63,34.2,64.9z"
	/>
<path fill="#CCCCCC" d="M32.8,68.3c0.1,0.5,0.2,0.9,0.2,1.4c2,6.1,4.3,12,8.2,17.1c1.3,3.2,2.5,6.4,3.8,9.7c0.8-1.1,0.9-2.3,0.6-3.6
	c-0.2-1.1-0.3-2.2-0.5-3.3C41.8,79.2,37.5,69.2,33.6,59c-0.7-1.1-1.3-2.3-2.2-3.4c-0.7-1-1.2-0.3-1.6,0.4c-1.9,3.8,1.8,6.3,2.4,9.5
	C32.3,66.5,32.6,67.4,32.8,68.3z"/>
<path fill="#717171" d="M28,31.4c-1.2-3.6-2.4-7.3-3.6-10.9c-0.9-2.6-1.8-5.1-2.6-7.7c-0.3-0.9,0.5-1,1.2-0.9
	c-0.2-1.5-1.1-2.6-2.1-3.7c-0.7-0.8-1.4-1.6-2.1-2.4c-0.8,0.4-1.6,0.8-2.5,1.3c0.4,6.1,1.9,12.1,3.6,18c0.3,1,1.1,1.6,2.2,1.2
	c0.2-0.6,0.1-2,1.3-1c1.6,1.4,2.1,3.5,2.9,5.4c0.5,1.2,0.6,2.7,1.8,3.7C28.8,33.2,28.3,32.3,28,31.4z"/>
<path fill="#717171" d="M29.8,56.1c1.3,3.2,2.6,6.4,3.8,9.6c0.6,0.5,0.3,1.4,0.8,2c0.1,0.3,0.1,0.6,0.2,0.9c0.6,1.3,0.5,2.2-1.2,2.1
	c-0.8,0-1.4-0.7-1.8-1.4c-4.5-7.9-8.6-16-11.1-24.8c-0.2-0.7,0.1-1.2,0.5-1.8c0,0,0.1-0.1,0.1-0.1c0.7,1.2,1.5,2.4,2.2,3.6
	c0.2,0.4,0.6,0.9,1,0.6c0.3-0.2,0.3-0.8,0.5-1.2c1.3,2,2.1,4.2,2.9,6.4C28.3,53.3,28.7,54.9,29.8,56.1z"/>
<path fill="#4E4E4E" d="M22.1,26.3L22.1,26.3c-1.8-4-3.2-8-2.6-12.5c0.2-1.2-0.1-2.2-0.7-3.2c-0.7-1.2-1.4-2.4-2.1-3.7
	c-1.1,0.6-2.2,1.2-3.3,1.8c-0.3,1.2-0.1,2.6,0.4,3.9c1.5,4.4,2.6,8.8,4.4,13.1c1.2,2,0.3,6.1,4.8,4.5c0-0.6-0.1-1.3-0.1-1.9
	C22.4,27.7,22.6,26.9,22.1,26.3z"/>
<path fill="#717171" d="M19.2,25.3c1.2,1.7,1.4,4.1,3.8,4.9c2,3.8,2.9,7.7,2.1,12c-0.2,1.1-0.1,2.2-0.2,3.3
	c-1.3-1.3-1.8-2.9-2.4-4.6c-0.9-2.9-1.9-5.7-3.6-8.3c-1-1.6-1.7-3.4-1.7-5.4C18.1,26.8,18.2,25.6,19.2,25.3z"/>
<path fill="#717171" d="M22.9,28.3c-0.3-0.7-0.6-1.3-0.8-2C22.4,27,22.7,27.6,22.9,28.3z"/>
<path fill="#8A8A8A" d="M58.6,151.7c-1.3-1.9-1.6-4.4-3-6.3c-0.3,0.6-0.9,1.1-1.4,0.5c-1.2-1.7-2.3-3.4-3.4-5.2c-1-1.6-2-3.3-4-3.9
	c0.1,0.3,0.2,0.6,0.3,0.9c0.3,0.6,0.6,1.3,0.9,1.9l0,0c0.6,0.5,0.3,1.4,0.9,1.9c2,3.5,4.1,6.8,5.5,10.6c0.7,1.7,2,3.2,3,4.8
	C59.3,155.5,60.3,154,58.6,151.7z"/>
<path fill="#969696" d="M53.7,140.6c-2.1-1.8-3.2-4.2-3.8-6.8C52.1,135.6,53.1,138,53.7,140.6z"/>
<path fill="#969696" d="M49.9,133.9c-0.3-0.6-0.7-1.3-1-1.9C49.2,132.6,49.6,133.2,49.9,133.9z"/>
<path fill="#969696" d="M48.9,132c-0.3-0.3-0.6-0.7-0.9-1C48.3,131.3,48.6,131.6,48.9,132z"/>
<path fill="#656565" d="M48,139.6c0.3,0.6,0.6,1.3,0.9,1.9C48.6,140.9,48.3,140.3,48,139.6z"/>
<path fill="#4C4C4C" d="M82.6,221.2c-0.3-0.3-0.6-0.6-1-0.9C81.9,220.6,82.2,220.9,82.6,221.2z"/>
<path fill="#949494" d="M21,42.7c1.3,4.8,2.8,9.4,5.3,13.7c1.6,2.6,2.8,5.4,4.1,8.1c0.7,1.6,1.4,3.2,2.7,4.5
	c0.6,0.6,1.1,0.1,1.5-0.5c2.7,5.9,5.3,11.9,6.7,18.3c-3.4-1.1-4.8-4.1-6.8-6.7c-2.3-6.4-5.1-12.5-8.7-18.2c-0.3-0.4-0.5-0.7-0.8-1.1
	c-0.2-1.8-0.4-3.5-1.9-4.8c-0.4-2.2-1-4.3-2-6.2c-1-2-1.3-4.2-1.5-6.3C19.5,42.6,20.4,42.6,21,42.7z"/>
<path fill="#727272" d="M47.2,32.1c0.3,0.3,0.5,0.5,0.8,0.8C47.8,32.6,47.5,32.4,47.2,32.1z"/>
<path fill="#8D8D8D" d="M45.3,29.2c0.3,0.3,0.5,0.6,0.8,0.9C45.9,29.8,45.6,29.5,45.3,29.2z"/>
<path fill="#7B7B7B" d="M38.5,94.5c-0.3-0.7-0.6-1.3-1-2C37.8,93.2,38.1,93.8,38.5,94.5z"/>
<path fill="#717171" d="M18.4,4.3c0.3-0.3,0.5-0.5,0.8-0.8C18.9,3.7,18.7,4,18.4,4.3z"/>
<path fill="#9C9C9C" d="M14.6,8.1c-1.1,0.6-2.2,1.2-3.2,1.8c0.4,0.4,0.8,0.9,1,1.5c1.6,5.3,3.3,10.6,4.9,15.9c1.6,0,1.6,0,1.9-1.9
	c-1.6-4.3-3.2-8.7-4.3-13.1C14.5,10.8,14.4,9.4,14.6,8.1z"/>
<path fill="#9C9C9C" d="M10.6,9.1c-0.3,0.3-0.7,0.7-1,1C9.9,9.8,10.3,9.4,10.6,9.1z"/>
<path fill="#757575" d="M85.5,170.3c0.2,0.7,0.5,1.3,0.7,2C86,171.7,85.8,171,85.5,170.3z"/>
<path fill="#C7C7C7" d="M73.9,71.5c0,0.1-0.1,0.3-0.1,0.4C73.8,71.8,73.8,71.6,73.9,71.5L73.9,71.5z"/>
<path fill="#949494" d="M34.4,67.6c-0.3-0.7-0.6-1.3-0.8-2C33.9,66.3,34.2,67,34.4,67.6z"/>
<path fill="#909090" d="M65.3,184.7c-0.3-0.6-0.6-1.3-0.9-1.9C64.6,183.5,64.9,184.1,65.3,184.7z"/>
</svg>
