<?xml version="1.0" encoding="utf-8"?>
<!-- Generator: Adobe Illustrator 18.1.1, SVG Export Plug-In . SVG Version: 6.00 Build 0)  -->
<svg version="1.1" id="Layer_1" xmlns="http://www.w3.org/2000/svg" xmlns:xlink="http://www.w3.org/1999/xlink" x="0px" y="0px"
	 viewBox="0 0 355.1 100.2" enable-background="new 0 0 355.1 100.2" xml:space="preserve">
<path fill="#484848" d="M87.7,63.3c-0.4,0.3-0.6,0.7-0.9,1.1c0.7-0.8,1.3-1.5,1.6-1.9C88.5,62.3,88.2,62.9,87.7,63.3z"/>
<path fill="#484848" d="M109.8,5.1L109.8,5.1c-0.3,0.5-0.6,1-0.8,1.5c-0.3,0.5-0.7,1-1,1.5c-0.2,0.4-0.4,0.7-0.5,1.1
	c-2.9,7.8-7.4,14.7-12,21.6c-1.6,2.4-3.3,3.9-6.1,4.2c-3.5,6.2-6,12.8-9,19.2c-1.3,2.8-3.8,5.4-2.9,9c0.3,0.4,0.7,0.7,1.1,0.8
	c1.3,0.5,3.7-2.6,4,1.5c0.1,1.1,2.5,1,3.5-0.4c0.2-0.3,0.5-0.6,0.7-0.9c0.2-0.4,0.5-0.7,0.9-1.1c0.5-0.4,0.8-1,0.7-0.8
	c-0.3,0.4-0.9,1.1-1.6,1.9c-1,1.6-0.8,3.3,0.5,4.9c1.7,2.2,3.5,1.2,5.5,0.1c1.2-0.7,2.4-1.5,3.6-2.4c5.5-5,8.5-11.8,13-17.5
	c0.1-0.4,0.3-0.8,0.3-1.2c0.1-0.4,0.3-0.7,0.5-1.1c0.2-0.3,0.4-0.7,0.6-1c0.2-0.3,0.5-0.6,0.7-0.9c0.3-0.3,0.5-0.6,0.8-0.9
	c0.4-0.5,0.7-1,0.9-1.6c1.2-2.6,2.2-5.3,2.6-8.2c-0.5,6.5,0.7,12.9,1.4,19.3c0.4,2.7,0.1,5.6,1.4,8.2c0.1,0.4,0.2,0.9,0.3,1.3
	c0.4,1.7-0.5,3.2-0.2,4.9c0.1,0.5,0.2,0.9,0.3,1.4c0.2,3.3,0.9,6.4,1.9,9.5c0,0.5,0.1,1,0.2,1.5c0.5,1,1.2,1.8,2.3,2.2
	c0.8,0.2,1.6,0.1,2.3-0.4c0-0.1,0.1-0.2,0.1-0.3c-0.8-26.9-5-53.8-12-79.6c-1.1,0.3-2.1,0.6-3.1,1C110.3,4,110.4,4.8,109.8,5.1z"/>
<path fill="#484848" d="M125.5,64.8c-0.2-1-0.3-1.9-0.4-2.9C125.1,62.9,125.3,63.9,125.5,64.8z"/>
<path fill="#757575" d="M87.8,24.2c0.8-1,1.8-1.8,2.9-2.3c2.5-1,4.6-2.6,6.8-4.2c0.2-0.4,0.6-0.5,1-0.4c0.1,0.2,0.3,0.3,0.4,0.5
	c0.1,0.2,0.1,0.4,0.2,0.6c0,0.4,0,0.8-0.2,1.2c-0.1,0.2-0.2,0.4-0.3,0.5c-0.2,0.3-0.4,0.7-0.6,1c-0.1,0.2-0.2,0.3-0.3,0.5
	c-0.2,0.3-0.4,0.7-0.6,1c-0.2,0.4-0.4,0.7-0.7,1.1c-0.3,0.6-0.6,1.2-1,1.8c-8.1,11.8-13.5,25.1-19.3,38c-3.2,7-3,14.6-1.4,22.1
	c-0.1,1.4-0.6,2.5-2,2.9c-2.1,0.7-10.3-2.5-11.7-4.6c-0.9-3.1-4-4.1-6-3.4c-4.5,1.5-5.8-1.4-7.2-4.2c-1.7-3.6-4.5-6.1-6.8-9.1
	c-3.6-4.7-3.8-5.9,0.6-9.7c1-0.9,2.4-1.4,3.3-2.5c0.5-0.4-0.4-0.6,0.1-0.2c0.1,0.1-0.1,0.2-0.3,0.4c-0.5,0.4-1,1.2-1.6,1
	c-3.8-1.1-7.9-0.4-11.7-1.6C30.7,53,32,52.1,33,51c3-1.3,5.9-3,9-4c4.2-1.4,8.1-3.5,12-5.5c6.2-2.5,12.2-5.3,17.9-8.8
	c1-0.6,2.1-2,3.3-0.7c1.3,1.4,0,2.8-0.7,3.7c-2.1,2.7-5.4,4.1-7.2,6.7C74.1,36.6,79.4,28.8,87.8,24.2z"/>
<path fill="#C3C3C3" d="M265.6,42c-3.4-8.2-5.8-16.8-10.7-24.4l0,0c-0.4-0.3-0.7-0.6-0.9-1c-0.3-0.8-0.5-1.6-0.6-2.3
	c-2.2,7-4.1,14.1-5.7,21.3c0.2,0.1,0.5,0.3,0.8,0.3c0.3,0.1,0.7,0.3,1,0.5c0.3,0.2,0.5,0.5,0.8,0.7c0.5,0.8,1.1,1.5,1.4,2.5
	c0.6,1.8,1.2,3.6,2,5.3c0.3,0.6,0.7,1.1,1.1,1.7c0.9,1.1,0.7,2.9,2.5,3.4c0.5,0.1,1,0,1.5-0.2c1.6-1.2,3.2-2.5,5.1-3.4
	C265.4,45.5,266.3,43.8,265.6,42z"/>
<path fill="#DDDDDD" d="M261.6,23.4c3.8,2.3,7.6,4.7,11.4,6.8c2.6,1.5,5.4,2.6,8.1,3.9c0.9,0.4,1.7,0.8,2.5,1.3
	c2.7,1.8,5.5,3.1,8.5,4.2c3.4,1.3,6.6,3,9.7,5c-0.1,2.1,1.8,2.6,3,3.7c3.1,2.7,3,5.1-0.8,6.8c-2.2,1-3.1,1.9-2.2,4.3
	c1.1,2.9-0.4,4.5-3.2,5.2c-5.5,1.5-5.8,2.1-4.4,8c0.8,3.1,0.3,5.5-3.8,5.1c-0.4-0.2-0.8-0.4-1.1-0.7c-0.5-0.7-0.8-1.6-1.2-2.3
	c-0.2-0.4-0.4-0.8-0.6-1.1c-0.3-0.6-0.6-1.1-0.9-1.7c-0.4-0.8-0.8-1.6-0.9-2.5c-2.9-7.2-6.1-14.3-11-20.5
	c-5.4-6.9-7.8-15.7-13.8-22.4C260.4,25.4,260.5,24.3,261.6,23.4z"/>
<path fill="#DCDCDC" d="M284.2,64.2C281,57.5,277,51.3,273.3,45c-3.9-6.7-7.1-13.8-12.2-19.8c-0.6-0.8-0.5-1.8-0.5-2.8
	c-1.5-2.1-3.1-4.1-5.7-4.8c-0.2,2.3,0.3,4.4,1.5,6.4c2,3.5,3,7.4,4,11.2c0.6,2.3,1.1,4.6,2.6,6.6c1.1,1.5,0.8,2.3-1.1,2.7
	c-2.7,0.6-4.3,1.9-4.2,4.9c-0.3,0.3-0.6,0.6-0.7,1c-0.1,0.4,0,0.9,0.1,1.3c1.3,6.6,6.5,10.7,9.9,16c0.9,1.3,2,2.4,3.3,3.2
	c4,3.6,9.5,2.2,14.1,4c1.5,0.6,2.5-1,2.5-2.7C286.5,69.4,285.5,66.8,284.2,64.2z"/>
<path fill="#CACACA" d="M290.3,76.3c2.2-0.1,2.9-0.8,2.2-2.3c-0.6-1.3-1.4-2.5-2-3.8c-1-2.4-0.9-3.6,1.1-5c0.9-0.6,1.6-1.4,2.1-2.5
	c0.4-0.9-0.6-2.6,1.1-2.8c1.2-0.1,1.8,1.2,2.7,1.8c0.3,0.2,0.5,0.4,0.8,0.5c0.4,0.1,1,0.2,1.4,0c0.5-0.2,0.5-0.8,0.3-1.2
	c-0.3-0.7-0.7-1.4-1-2.1c-0.4-1-0.9-2.1-1.1-3.1c-0.6-2.4,0.6-3.7,3.1-3.3c0.2,0,0.3,0.1,0.5,0.1c1.2,0.3,2.6,1.2,3.4-0.3
	c0.6-1.2-0.7-2-1.4-2.8c-0.8-1-1.8-1.8-2.6-2.8c-0.9-1-0.6-1.4,1.2-2c2.3,1.2,4.6,2.1,7.3,2c0.6,0,1.3,0,1.9,0.2
	c6,2.3,12.3,3,18.4,4.6c0.8,0.2,1.5,0.6,2.2,0.9c0.7,0.7,2.5,0.3,2.1,2.2c-0.2,0.4-0.6,0.7-1,0.9c-4.3,0.9-7.9-2.1-12.1-2.2
	c-3.7-0.1-4.3,0.6-3.9,4.5c0.6,5.7,2.1,11.5,0.8,17.4c-0.1,0.5-0.3,0.9-0.6,1.3c-0.3,0.4-0.8,0.6-1.2,0.9c-0.5,0.2-0.9,0.2-1.4,0.2
	c-2.3-1.8-6.6-1-7.3-5.1c-0.1,1.8,0.1,3.8-2.2,4.2c-2.4,0.4-2.5-1.9-3.2-3c2.4,5.8,1.9,7.6-2.8,9.9c-4.1,2-7,1-9.1-3.1
	C289.7,78.8,288.8,77.4,290.3,76.3z"/>
<path fill="#797979" d="M25.4,74.3c-1-0.3-1.9-0.7-2.9-1c-0.6-0.5-1.4-0.3-2-0.9l0,0c-4.2-1.6-3.7-6.1-5.2-9.3
	c-0.7-1.5-2.5-3.9-0.4-6.1l0,0c1-1.2,2.7,0.1,3.8-1c4.8-1.7,9.6-3.3,14.4-5c-0.3,1.3-0.6,2.7-0.9,4c-1.1,4.9-0.9,9.8,0.3,14.7
	c0.9,3.7-0.5,5-4.3,4.5C27.2,74.2,26.3,73.5,25.4,74.3z"/>
<path fill="#8C8C8C" d="M87.8,24.2c-1,1.9-2.5,3.2-4.2,4.5c-1.1,0.9-2.4,1.7-3.3,2.7c-3.7,4.4-8.1,8.1-12.1,12.1
	c-1.4,1.5-2.7,3.1-4.1,4.6c-0.2,0.2-0.6,0.2-0.9,0.2c-0.5-0.1-0.7-0.6-0.6-1.1c0.2-1.7,1-3,2.2-4.2c2-2,4.1-4,6.2-5.9
	c1.3-1.2,2.7-2.2,3.2-4c-0.7-0.8-1.2-0.2-1.7,0.1c-1.5,0.9-3,1.8-4.4,2.9c-1.8,1.4-3.7,2.5-6,2.6c-1.3,0.1-2.4,0.8-3.5,1.4
	c-1.4,0.8-2.9,1.3-4.5,1.2c3.5-2.7,7.7-4.4,11.6-6.5C72.9,31.2,80.2,27.5,87.8,24.2z"/>
<path fill="#A2A2A2" d="M14.9,57.1c0.3,0.4,0.4,0.9,0.8,1.1c1.2,0.7,2.3,3,2,4.4c-0.1,0.7,0,1.2,0.4,1.8c0.4,0.5,0.8,1,1.2,1.4
	c1.3,1.2,1.8,2.5,0.6,4.1c-0.7,1,0.1,1.7,0.6,2.5c-2.2-0.2-4.4-0.8-6.4-1.9C11.7,69,9.1,68,6.4,67.1c-0.9-0.3-2.7-0.2-2.3-1.8
	c0.2-0.9,1.7-0.5,2.6-0.6c0.3,0,0.6,0,0.9-0.1c2.2-0.4,3-1.3,2.7-3.6c-0.2-1.2-0.1-2.2,0.7-3.1C12.3,57.6,13.6,57.4,14.9,57.1z"/>
<path fill="#DDDDDD" d="M346,62.8c-1.3,0.3-2.6,0.6-3.8,1c-7.9,1.7-7.9,1.7-8.4-6.8c-0.1-0.9-0.3-1.9-0.2-2.8
	c-0.6-0.6-1.3-1.3-1.9-1.9c3.9,0,7.5,0.4,10.8,3c1.9,1.4,4.5,1.5,6.9,1.4c0.5,0,1-0.1,1.4-0.1c0.3,0,0.7,0.2,0.8,0.4
	c0.3,0.4,0.2,1-0.1,1.3C349.8,59.8,348.3,61.7,346,62.8z"/>
<path fill="#A2A2A2" d="M285.6,72.3c-0.2-2.1-0.7-4.1-1.7-5.9c-3.7-6.7-6.5-13.8-11-20c-0.7-1-1.4-2.1-1.9-3.3
	c-2-5.2-5-9.9-8.4-14.4c-0.8-1.1-1.6-2.4-2.3-3.6c-0.5-0.9-0.3-1.8,0.3-2.7c0.3,0.3,0.6,0.7,1,1c0.2,1.3,1,2.3,1.9,3.3
	c3.5,4.2,6.4,8.8,8.5,13.9c1.2,3,3.2,5.5,5.1,8.1c4.1,5.6,7,11.8,9.7,18.1c0.4,0.9,0.5,1.8,0.8,2.8c-0.4,1,0.4,2.2-0.7,3
	C286.3,72.7,285.9,72.7,285.6,72.3z"/>
<path fill="#A5A5A5" d="M97.5,17.7c0.3,0.1,0.6,0.1,1,0.1c2.2,1,3.6-0.3,5-1.6c2.5-2.3,3.6-5.5,5.5-8.2l0,0c0.4-0.3,0.7-0.7,0.9-1.2
	c0-0.6,0-1.2,0-1.7C105.5,9.1,101.3,13.2,97.5,17.7z"/>
<path fill="#A2A2A2" d="M18.7,56c-1.1,0.8-2.4,1-3.8,1C16,56.1,17.3,55.9,18.7,56z"/>
<path fill="#DCDCDC" d="M254.9,17.6c-0.3-0.3-0.6-0.7-0.9-1C254.3,16.9,254.6,17.3,254.9,17.6z"/>
<path fill="#2D2D2D" d="M115.1,49.6c-1.6-5.5-2.8-5.9-7.2-2.2c-1.8,1.8-2.9,4.1-4.2,6.3c-2.4,4.2-4.6,8.7-8.4,11.9
	c-0.2,0-0.4,0.1-0.7,0.1c-0.4,0.2-0.7,0.5-1,0.8c-3.9,5-10,7.9-13.1,13.7c-0.4,0.7-1.3,1.1-2.1,0.8c-1.2-0.4-1.5-1.6-1.5-2.7
	c0.1-3,0.7-6,1.8-8.8c0.8-1.8,0.1-3.4-0.4-5.1c-0.1-0.2-0.1-0.4-0.2-0.6C82,55,85.8,46.2,89.6,37.4c0.2-0.6,0.7-1,1.1-1.5
	c0.2-0.1,0.5-0.1,0.7-0.2c0.6-0.4,1.3-0.7,1.7-1.3c2.2-3.4,4.4-6.8,6.3-10.3c1-1.8,2.9-4.3-1.1-5.4l0-0.1c-0.4,0.3-0.7,0.6-1,1l0,0
	c-0.4,0.3-0.7,0.6-1,1l0,0c-0.6,0.5-0.5,1.4-1,1.9l0,0c-0.4,0.3-0.7,0.6-0.9,1.1c-0.4,0.9-0.8,1.8-1.2,2.6
	c-4,6.9-8.2,13.7-11.3,21.1c-1.7,4-3.8,7.7-5.7,11.6c-4.3,8.6-4.9,17.7-2.9,27c0.8,2.6,1.4,5.3,4.8,5.7c0.3,0.1,0.6,0.2,0.9,0.2
	c0.9,0.6,1.9,0.4,2.8,0.3c2.1-0.5,4.3-0.7,6.5-0.9c3.3-0.6,6.8-0.9,9.8-2.7c0.6-2.1,3.3-3.3,2.2-6c-0.6-0.8-1.5-1.1-2.5-1.3
	c-3.2-0.9-4.6-3.2-2.9-5.9c2-3.2,3.7-6.7,6.3-9.6c2.8-3.1,6.3-3.1,9.2-0.3c1.6,1.6,3.5,2.6,5.7,3.1c3.7-1.3,3.1-4.1,2.3-6.8
	C117.4,57.6,116.3,53.6,115.1,49.6z"/>
<path fill="#3C3C3C" d="M123.4,53.3c-0.4,0.2-0.7,0.7-0.8,1.1c-0.4,2.5-0.4,5.1,0.1,7.6c1.4,6.6,1.6,13.3,2.5,19.9
	c-0.5,0.5-0.7,1.1-0.6,1.9c0.2,0.4,0.4,0.8,0.8,1.1c0.2,0.1,0.3,0.1,0.4,0.2c-0.2-10.6-1-21.3-2.2-31.9
	C123.5,53.3,123.5,53.3,123.4,53.3z"/>
<polygon fill="#1B1B1B" points="120.4,62.8 120.4,62.8 120.4,62.8 "/>
<path fill="#1B1B1B" d="M122.3,79.1c-1.2-3.5,0.4-7.2-0.9-10.6c0-0.3,0-0.6,0-0.9c-1.1-1.5,0.2-3.4-0.9-4.8c0,0,0,0,0,0l0,0
	c0,0,0,0,0,0c-1.3-3.1,0.4-6.5-0.9-9.6c-0.3-2.8-0.6-5.7-1-8.5c-0.4-3.6-0.7-7.3-1.4-10.9c-0.4-2.3-1.3-4.6-2-6.8
	c0-0.1-0.5-0.2-0.8-0.2c-0.1,0-0.3,0.2-0.3,0.3c-0.1,0.6-0.3,1.3-0.1,1.9c0.9,2.8,0.1,5.3-1,7.8c-0.8,1.9-1.5,3.9-2.2,5.8
	c-0.3,0.3-0.6,0.7-0.9,1c0,0.3,0,0.6,0,0.9c-0.3,0.3-0.6,0.7-0.9,1l0,0c-0.3,0.3-0.6,0.6-0.9,0.9c0,0.3,0,0.6-0.1,1
	c0.5,0,1,0.2,1.4,0.1c0.8-0.3,1.4-1.5,2.5-0.8c0.9,0.6,0.5,1.7,0.7,2.6c0.2,1.1,0.5,2.2,0.8,3.2c1,2.8,1.9,5.7,3.2,8.5
	c1.1,2.5,1,4.6-0.9,6.5c-2.4-0.4-3.2,1.5-4.4,3c-1.7,2.1-2,5-3.4,7.2c-2,2.3-5.3,2.3-7.3,4.5c-0.1,0.2-0.1,0.4-0.2,0.7
	c-1.1,1.2-2.7,1.5-4,2.4c-0.7,0.5-0.5,1.1,0.3,1.4c0.3,0.1,0.6,0.1,0.9,0.2c0.2,0.3,0.5,0.6,0.7,0.9c0.5,0.3,1.1,0.5,1.7,0.5
	c0.4-0.1,0.8-0.2,1.1-0.3c0.3-0.1,0.7-0.3,1-0.5c0.3-0.2,0.5-0.5,0.8-0.8c0.4-0.4,0.8-0.7,1.3-0.9c0.5-0.2,1-0.3,1.5-0.5
	c0.5-0.2,1-0.4,1.4-0.7c0.3-0.2,0.6-0.3,1-0.5c0.3-0.2,0.6-0.4,1-0.5c0.5-0.2,1.1-0.2,1.6-0.4c0.5-0.2,1.1-0.5,1.6-0.7
	c1.2-0.5,2.4-1.1,3.6-0.1c1.5,0.8,2.1,2.1,2.2,3.8c0.1,0.8,0.1,1.6-0.3,2.3c-0.3,0.6-0.7,1.1-1,1.6c-0.3,0.6-0.4,1.3-0.4,2
	c0.6,4.1,1.1,4.4,4.3,2.4l0,0c0.4-0.6,0.3-1.4,0.8-2c0.2-0.2,0.2-0.4,0.2-0.7c0.6-1-0.1-2.3,0.9-3.1l0.1,0.1c0.6-1.3,0.2-2.8,0.9-4
	c0.3-1.7-0.5-3.2-1-4.7C122.4,79.7,122.3,79.4,122.3,79.1z"/>
<path fill="#606060" d="M94.5,66.6c-1.7,2.7-3.7,5.1-5.9,7.5c-2.4,2.7-4.5,5.7-6.8,8.6c-0.7,0.9-1.4,1.8-2.2,2.5
	c-1.4,1.2-3.2,0.9-3.9-0.9c-1.1-2.7-1.7-5.5-1.2-8.4c0.5-2.5,1.1-5,1.6-7.5c1.3-1.3,1.2-3.2,1.9-4.8l0,0c2.9-2.1,5.4-4.8,8.6-6.6
	c0.6,1.3-0.2,2-0.7,2.8c-0.7,1-1.6,2-2.3,3c-0.2,0.3-0.3,1-0.1,1.3c0.5,0.7,1.1,0.3,1.6-0.2c2-2.3,4-4.6,6-6.8
	c0.2-0.2,0.6-0.4,0.8-0.3c0.6,0.2,0.6,0.7,0.4,1.1c-1.1,1.9-2.2,3.9-3.4,5.8c-0.8,1.3-0.9,2.7-0.1,4.1c0.4,0.7,1.4,1,2,0.4
	c0.8-0.8,1.5-1.6,2.3-2.4c0.6-0.6,1.4-0.7,2.2-0.3l0,0C95.1,65.9,94.9,66.3,94.5,66.6z"/>
<path fill="#5D5D5D" d="M98.4,17.8c0,0.3,0,0.6,0,0.9c0.4,0.7,0.5,1.5,0.1,2.3c-1.3,2.5-2.5,5.2-4,7.5c-1.1,1.7-2.1,3.5-2.9,5.4
	c-0.6,0.5-0.3,1.4-0.9,1.9c0,0,0,0,0,0c0.5,1.1,1.2,1.5,2.2,0.8c1.5-1,2.6-2.3,3.5-3.8c1.6-2.7,3.1-5.4,5.7-7.4
	c0.9-0.7,1.6-2,2.1-3.1c1.9-4.7,4.2-9.2,4.6-14.4C105,10.9,102,14.6,98.4,17.8z"/>
<path fill="#3C3C3C" d="M121.4,74.6c0,1.6,0.1,3.1,0.9,4.5c0-2,0-4.1,0-6.1c0-1.6-0.1-3.1-1-4.5C121.4,70.5,121.4,72.6,121.4,74.6z"
	/>
<path fill="#3C3C3C" d="M119.5,58.3c0,1.6,0.1,3.1,0.9,4.5c0-1.7,0-3.4,0-5.1c0-1.6-0.1-3.1-0.9-4.5
	C119.5,54.9,119.5,56.6,119.5,58.3z"/>
<path fill="#3C3C3C" d="M121.4,67.6c0-1.7,0.1-3.4-0.9-4.8C120.5,64.4,120.4,66.1,121.4,67.6z"/>
<path fill="#3C3C3C" d="M122.4,80c0,1.6,0,3.2,0.1,4.9c0.4,0.3,0.8,0.3,1.2,0.1c0.3-0.4,0.5-0.8,0.5-1.2c0-0.7-0.3-1.3-0.8-1.8
	C123,81.3,122.7,80.7,122.4,80z"/>
<path fill="#5D5D5D" d="M123.3,82c0,0.6,0,1.3,0,1.9c0.7,0.6,1.3,0.5,1.9,0c0-0.6,0-1.2,0-1.9C124.6,82,124,82,123.3,82z"/>
<path fill="#5D5D5D" d="M108.9,8c0.3-0.4,0.6-0.8,0.9-1.2C109.5,7.3,109.2,7.6,108.9,8z"/>
<path fill="#2D2D2D" d="M108.9,45.5c-0.3,0.3-0.6,0.6-0.9,0.9C108.3,46.1,108.6,45.8,108.9,45.5z"/>
<path fill="#2D2D2D" d="M109.9,44.5c-0.3,0.3-0.6,0.7-0.9,1C109.3,45.2,109.6,44.8,109.9,44.5z"/>
<path fill="#2D2D2D" d="M110.8,42.6c-0.3,0.3-0.6,0.7-0.9,1C110.2,43.2,110.5,42.9,110.8,42.6z"/>
<path fill="#696969" d="M25.4,74.3c-0.1-0.7-0.1-1.4,0.8-1.5c0.8-0.1,1.6,0.2,2.3,0.2c1.6,0.1,2.2-0.8,1.9-2.5
	c-0.3-1.9-1.4-3-3.1-3.9c-1.2-0.7-1.1-1.1,0-2.1c0.4-0.3,0.8-0.5,1.1-0.8c0.5-0.5,0.7-1,0.3-1.7c-0.1-0.1-0.2-0.2-0.3-0.4
	c-2.1-3.5-1.7-4.7,2.3-6c0.4-0.1,0.9-0.4,1.3-0.5c3.3-4.1,3.3-4.1,7.7-1.8c0.6,0.3,1.1,0.6,1.7,0.9c1.2,0.6,2.2,0.2,3-0.7
	c0.9-1.1,1.8-2.2,2.7-3.3c0.3-0.4,0.7-0.6,1.1-0.8c0.2-0.1,0.7-0.1,0.9,0c0.2,0.1,0.3,0.7,0.2,0.8c-2.8,3.5-4.3,7.8-7.8,10.8
	c-0.4,0.3-0.7,0.7-1,1c-0.7,0.8-0.3,2,0.7,2.3c0.2,0,0.3,0,0.5,0.1c2.8,0.5,2.9,0.5,3.1,2.9c0.1,1.4,0.5,2.5,1.8,3.1
	c1.8,0.8,2.5,2.3,2.9,4.1c0.3,1.2,0.8,2.4,1.3,3.6c0.5,1.1,1.2,1.4,2.3,0.7c1.3-0.8,2.3-1,3.4,0c0.5,0.5,1.2,0.4,1.7-0.1
	c0.6-0.5,0.8-1.7,1.8-1.2c0.6,0.3,0.8,1.3,1.2,2c0.5,1.2,1,2.3,1.5,3.5c-1.6,2.4-3.1,2.6-6.3,1.7c-8.8-2.4-17.1-5.9-25.5-9.2
	c-0.9-0.3-1.9-0.2-2.8-0.2C27.3,74.9,26.3,74.6,25.4,74.3z"/>
<path fill="#595959" d="M28.2,75.3c1.8-1.3,3.7-0.6,5.5,0c5.4,1.9,10.8,3.7,16.1,5.7c1.5,0.6,3,1.1,4.6,0.8c1.7-0.3,3.1-0.2,4.1,1.5
	c0.5,0.8,1.4,0.7,2.1,0.1c0.7-0.6,1.4-0.7,2.2-0.5c0.6,1.9,1.8,3.2,3.9,2.4c1.9-0.7,3.2-0.4,4.6,1.1c0.9,1,1.7,0.3,2.2-0.7
	c1.6,1.9,3.2,3.8,4.8,5.7c-1.3-0.1-2.5-0.2-3.8-0.4c-10-2-19.8-5-29.4-8.3c-3.5-1.2-6.8-2.6-10-4.6c-0.6-0.7-1.5-0.5-2.1-0.9
	c-0.3,0-0.6-0.1-0.8-0.3c-0.4-0.3-0.7-0.5-1.1-0.7c-0.3,0-0.5,0-0.8-0.1C29.6,75.6,28.8,75.8,28.2,75.3L28.2,75.3z"/>
<path fill="#5D5D5D" d="M96.5,20.6c-0.3,0.6-0.7,1.3-1,1.9C95.8,21.8,96.2,21.2,96.5,20.6z"/>
<path fill="#5D5D5D" d="M97.4,19.6c-0.3,0.3-0.6,0.7-1,1C96.8,20.2,97.1,19.9,97.4,19.6z"/>
<path fill="#5D5D5D" d="M98.4,18.6c-0.3,0.3-0.7,0.6-1,1C97.7,19.3,98.1,19,98.4,18.6z"/>
<path fill="#5D5D5D" d="M95.5,22.5c-0.3,0.4-0.6,0.7-0.9,1.1C94.9,23.2,95.2,22.8,95.5,22.5z"/>
<path fill="#474747" d="M118.2,92.4c0.1-0.3,0.3-0.6,0.4-0.8c-1-1.9-2.6-1.4-4.1-1c-2.5,0.6-5.3,1.3-7.5,0.1
	c-5.2-2.8-10.4-1.2-15.6-1.1c-1.2,0-2.4,1.3-3.5,0c-2.1,0-4.3-0.1-5.8,1.9c-0.7,0.3-0.7,0.6,0,0.9c5.1,0.8,10.3,1.5,15.4,2.3
	c3.1,0.4,6.3,0.8,9.4,1.1c3.8,0.3,7.6,0.5,11.4,0.6c1.2,0,2.1-0.6,2.3-1.9C117.9,94.9,117.7,94.6,118.2,92.4z"/>
<path fill="#898989" d="M125.8,84.6c-0.2-0.2-0.4-0.4-0.5-0.7c0,0,0,0,0,0c-0.6,0-1.3,0-1.9,0c0,0.3-0.1,0.6-0.1,0.9
	c-0.4,0.5-0.3,0.9,0.3,1.2c1.7,1.3,2.1,3.1,2.4,5C125.9,88.8,125.8,86.7,125.8,84.6z"/>
<path fill="#5D5D5D" d="M122.4,84.9c0,1.3,0,2.6,0.1,3.9c0.7-0.8,0.8-1.8,1-2.8c-0.1-0.4-0.2-0.8-0.3-1.2
	C122.9,84.8,122.7,84.9,122.4,84.9z"/>
<path fill="#3C3C3C" d="M121.5,91.8c0.8-0.9,1-2,0.9-3.1C121.7,89.6,121.4,90.7,121.5,91.8z"/>
<path fill="#5A5A5A" d="M82,91.6c0,0.3,0,0.6,0,0.9c-1.1,0.1-2.1-0.2-3-0.9C80.1,91.6,81.1,91.6,82,91.6z"/>
<path fill="#A2A2A2" d="M20.6,72.4c0.7,0.3,1.3,0.6,2,0.9C21.9,73,21.2,72.7,20.6,72.4z"/>
<path fill="#696969" d="M32.9,77.2c0.7,0.3,1.4,0.6,2.1,0.9C34.3,77.9,33.6,77.6,32.9,77.2z"/>
<path fill="#696969" d="M28.3,75.3c0.6,0.3,1.3,0.6,1.9,0.8C29.4,76.1,28.8,75.8,28.3,75.3z"/>
<path fill="#474747" d="M121.3,92.5c-0.5,0.6-0.8,1.2-0.8,2C121,94,121.3,93.3,121.3,92.5z"/>
<path fill="#696969" d="M31,76.3c0.4,0.2,0.7,0.5,1.1,0.7C31.7,76.7,31.3,76.5,31,76.3z"/>
<path fill="#D7D7D7" d="M248.2,33c-4.5,19.3-6.6,39.2-6.5,58.9c0,0,0,0,0,0c2.3-2.3-0.2-5.9,2.6-8.2c2.5-2.1,2.8-5.2,2.6-8.2
	c-0.2-2.6,0.2-5,0.9-7.5c0.7-1.6,0.8-3.3,0.8-5.1c0.3-5.6-0.1-11.2,1.4-16.8c1-3.8,2-8.3-1-12.1C248.7,33.7,248.4,33.3,248.2,33z"/>
<polygon fill="#9B9B9B" points="257.7,50.3 257.7,50.3 257.7,50.3 "/>
<path fill="#9B9B9B" d="M257.7,50.3c-0.3-0.4-0.6-0.7-0.9-1c-0.1-1.3-0.5-2.6-1-3.8c-0.3-0.3-0.6-0.6-0.9-1c-0.7-1.9-0.8-4-2-5.7
	c-2.9-0.6-1.5-3.1-1.9-4.7c-0.7-0.6-1.3-0.5-2,0c0.1,3.8-0.1,7.7-0.9,11.5c-0.8,3.6-0.9,7.3-0.9,11c0,2.4-0.1,4.8-0.2,7.2
	c0.2,0.2,0.4,0.4,0.5,0.6c0.7,0.3,1.5,0.3,2.2-0.1c1.2-0.9,2-2.2,2.7-3.5c0.4-0.9,0.5-1.9,0.4-2.8c-0.3-2.9-1.2-6.1,3.9-5.1
	C258,52.8,258.6,51.6,257.7,50.3z"/>
<path fill="#585858" d="M251.9,35c-0.2-0.4-0.6-0.7-0.9-1l0,0c-1.3,1.6-1.3,3.4-0.8,5.3c0.3,1.4,1.4,2.4,2.1,2
	c1-0.6,0.5-1.7,0.7-2.5C252.6,37.5,252.2,36.3,251.9,35z"/>
<path fill="#AEAEAE" d="M255.8,45.5c-0.3-0.3-0.6-0.7-0.9-1C255.2,44.8,255.5,45.2,255.8,45.5z"/>
<path fill="#9B9B9B" d="M251.9,35c-0.3-0.3-0.6-0.7-0.9-1C251.3,34.3,251.6,34.7,251.9,35z"/>
<path fill="#AEAEAE" d="M256.8,49.3c0.3,0.3,0.6,0.7,0.9,1c0-0.3,0-0.6,0-1C257.4,49.3,257.1,49.3,256.8,49.3z"/>
<path fill="#606060" d="M286.4,72.4c0.1-1,0.2-2.1,1-2.9c0.4,0.6,0.7,1.2,1.1,1.9c0.5,0.5,0.4,1.4,0.9,1.9l0,0c1,0.8,0.1,2.1,1,2.9
	c0,0,0,0,0,0c0.4,1.2,0.8,2.5,1.2,3.7c0.8,3.5,3.3,7.4-2,9.6c-0.4,0.2-0.9,0.4-1.4,0.6c-3,1-5.7-0.5-8.4-1.2c-2.5-0.6-2.6-3.2-2-5.5
	c0-1.6-0.6-2.9-1.8-3.9c-1.7-2-4.4-2.8-5.9-5c-0.3-0.3-0.7-0.6-1-0.8c-0.4-0.3-0.7-0.5-1.1-0.7c-0.4-0.3-0.7-0.6-1-0.9
	c-0.4-0.6-0.5-1.3-0.7-2c-0.2-1-0.2-1.9,0.4-2.7c0.5-0.5,1-0.9,1.8-0.5c0.9,0.9,1.8,1.8,2.7,2.8c3.4,3.9,8.6,4.9,12.4,8.1
	c1.1,1,1.9,0.2,2.3-1.2C286,75.2,286.3,73.8,286.4,72.4z"/>
<path fill="#CACACA" d="M290.3,76.3c-0.7-0.8-0.9-1.9-1-2.9C290.1,74.2,290.3,75.2,290.3,76.3z"/>
<path fill="#CACACA" d="M289.4,73.4c-0.5-0.5-0.8-1.2-0.9-1.9C288.8,72.1,289.1,72.7,289.4,73.4z"/>
<path fill="#CACACA" d="M286.4,72.4c0.7,2.1,1.6,4.2,2.2,6.3c0.3,1,0.4,2.2,0.4,3.3c0,1.3-1.3,2-2.4,1.2c-2.2-1.6-4.4-3.2-6.5-4.8
	c-2.1-1.7-4.2-3.4-6.3-5.2c-1.2-1-2.4-2.2-2.9-3.7c1.7,0.8,3.4,1.7,5.2,2.3c2.2,0.7,2.6,0.4,2.8-2.1c0-0.4,0.1-1.1,0.4-1.2
	c0.7-0.3,1.2,0.2,1.6,0.7c1,1.2,1.9,2.5,3,3.6c0.7,0.7,1.4,0.4,1.8-0.5C285.9,72.3,286.2,72.4,286.4,72.4z"/>
<path fill="#AEAEAE" d="M266.3,64c-3.5-4-6.3-8.4-8.3-13.3c-0.1-0.1-0.2-0.3-0.3-0.4c-0.5,0.9-1.1,1-1.9,0.4
	c-1.3-1.1-1.4-3.1-3.5-4.1c-0.7,1.8-1.6,3.3-1.8,4.9c-0.4,2.8-0.4,5.6-0.6,8.4c5.7-1.1,9.8,0.8,12.4,6.2c0.8,1.6,2.6,2.9,4.8,1.5
	c0.3-0.3,0.6-0.5,1-0.8C267.6,65.9,267.1,64.8,266.3,64z"/>
<path fill="#AEAEAE" d="M316.3,75.2c-0.4-4.2-0.5-8.6-1.9-12.7c-0.2-0.4-0.4-1-0.2-1.4c1.3-2.8-0.1-4.8-1.7-6.9
	c-0.4-0.5-0.4-1.2-0.1-1.8c0.9-1.8,3.2-3.1,5.1-2.5c2.9,0.9,5.9,1.3,8.7,2.5c2,0.9,4.3,1.2,6.4,1.7c1.6,1.3,3.8,2.5,2.1,4.9
	c-1.6,2.2-3.3,0.8-4.1-0.2c1.8,3.4-1.5,6.8-1.9,10.5c-2.3,2.1-5.3,3.3-7.7,5.3C319.8,75.6,318,76.5,316.3,75.2z"/>
<path fill="#9C9C9C" d="M316.3,75.2c0.2-0.2,0.4-0.5,0.7-0.6c3.9-1.5,7.2-4.2,10.8-6.1c0.9-1.1,1.4-2.6,3-2.8
	c1.7-0.2,3.7-0.3,2.6,2.6c-6,3.3-11.4,7.6-17.5,10.7c-2.3,1.2-4.5,2.3-6.9,3.3c-6.2,2.5-12.3,5.3-18.7,7.3c-0.6,0.5-1.2,0.5-1.8,0
	c2.2-1.6,3.1-3.8,2.9-6.4c-0.1-1.1,0-2.2,0-3.2c0.7,0.9,1.1,2.2,2.9,1.7c1.8-0.5,3.7-0.5,5.3-1.7c1.7-1.3,2.3-2.4,1.6-4.5
	c-0.5-1.8-1.3-3.6-1.9-5.4c-0.2-0.6-0.1-1.2,0-1.8c0-0.1,0.7-0.4,0.7-0.3c0.5,0.4,0.9,0.9,1.2,1.4c0.8,1.6,1.4,3.2,2.1,4.8
	c0.2,0.4,0.7,0.8,1.1,0.5c0.4-0.2,0.7-0.7,0.8-1.1c0.3-1.3-0.1-2.5-0.4-3.7c-0.3-1.2-0.7-2.4-0.9-3.7c-0.1-0.4,0.2-1,0.5-1.2
	c0.4-0.3,0.9,0.1,1.2,0.5c1,1.4,1.5,3.2,2,4.8c0.2,4.2,2.7,5.9,6.6,5.8c0.3,0,0.6,0,0.9,0C315.6,75.9,316,75.6,316.3,75.2
	L316.3,75.2z"/>
<path fill="#BFBFBF" d="M333.4,68.4c-0.4-1.1-1.1-1.3-2.2-1c-1.1,0.4-2.3,0.8-3.4,1.2c-0.3-2.4-0.1-4.7,0.8-7
	c0.6-1.7,0.3-2.3-1.1-3.1c-1.3-0.9-3.5-0.4-3.9-2.7c1.8-0.6,3.3,0.6,5,1c1.4,0.3,2.7,1,4,1.5c0.6,0.2,1.4-0.5,1.2-1
	c-0.3-1-0.8-2.1-1.2-3.1c0.3,0,0.7,0,1,0c0.5,0.4,1,0.7,1.5,1.1c1.2,1,1.8,2.1,1.1,3.7c-0.3,0.6-0.4,1.2-0.5,1.8
	c-0.2,1.6,0.7,2.7,2.4,2.8c1.4,0.1,2.8-0.6,4.1,0.2C339.3,65.3,336.3,66.8,333.4,68.4z"/>
<path fill="#AEAEAE" d="M307.8,60.2c0.3,0.1,0.6,0.1,0.8,0.3c2,1.7,3.4,3.7,3.8,6.3c0.2,1.1,0.4,2.2,0.5,3.3c0,0.4-0.2,1-0.5,1.2
	c-0.7,0.4-1.2-0.1-1.6-0.6c-0.3-0.4-0.5-0.8-0.7-1.2c-1-2.8-1.9-5.7-2.8-8.5C307.3,60.7,307.6,60.4,307.8,60.2z"/>
<path fill="#AEAEAE" d="M314.4,76.1c-0.2,0.2-0.4,0.4-0.7,0.6c-3,1.6-4.3,1.1-5.3-1.8c-0.5-1.5-0.7-3-0.6-4.6c0.9,1.6,1.5,3.4,4,3.3
	C313.2,73.6,313.8,75.1,314.4,76.1z"/>
<path fill="#AEAEAE" d="M316.3,75.2c-0.3,0.3-0.7,0.6-1,0.9C315.6,75.8,315.9,75.5,316.3,75.2z"/>
<path fill="#DCDCDC" d="M288.5,89.7c0.6,0,1.2,0,1.8,0c-0.9,0.4-1.8,0.7-2.7,1.1c0,0-0.3-0.3-0.3-0.3c-0.3-0.4-0.2-0.7,0.4-0.7
	C288,89.8,288.2,89.8,288.5,89.7z"/>
<path fill="#434343" d="M144.4,67.6c0.3,0.6,0.6,1.3,1,1.9C145.1,68.9,144.7,68.2,144.4,67.6z"/>
<path fill="#484848" d="M113.4,64.6c-0.7-0.4-1-1.1-1.2-2c-0.8-4.8-0.8-4.8-5.3-2.3c-0.6,0.4-1.1,0.2-1.7-0.2
	c-1.9-1.6-2-1.6-3.1,0.1c-2.2,3.3-5,6.2-6.8,9.8c-0.7,1.5-2.1,2.8-3.2,4.2c-0.7,0.9-1.5,1.6-2.2,2.5c-0.6,0.8-0.5,1.4,0.5,1.9
	c1.8,1,1.8,1,1.4,2.7c-0.2,0.6-0.5,1.2-0.5,1.8c0,0.7,0.4,1.3,1.1,1.3c0.8,0.1,1.6,0,2.3-0.2c1.9-0.4,3.7-0.9,5.6-1.3l0,0
	c2.6-2,5.2-3.7,8.6-3.8c2.2-3.9,4.5-7.7,6.7-11.6C115.3,66.2,114.5,65.3,113.4,64.6z"/>
<path fill="#5A5A5A" d="M109.8,85.7c3.5,0.1,6.4-1.4,8.4-4.7c0.6-1,2.1-2.6-0.7-3c-2.2,1-4.4,2-6.6,3c-0.3,0.3-0.7,0.6-1,0.8
	c-0.6,0.1-1.2,0.1-1.8,0.2c-0.4,0.2-0.8,0.6-1.1,0.9l0,0c-0.5,0.6-1.3,0.4-1.9,0.8c-0.6,0.1-1.2,0.1-1.9,0.2c-0.4,0.3-0.7,0.5-1,0.9
	c-0.3,0-0.6,0.1-0.9,0.1c-0.4,0.3-0.7,0.5-1.1,0.8c-0.3,0.1-0.6,0.1-0.9,0.1c-0.4,0.3-0.7,0.6-1,0.9c-0.3,0-0.6,0.1-0.9,0.1
	c-2.9,2-6.5,1.8-9.7,2.8c-0.4,0.8-1.9,0.4-1.9,1.9c3.5-0.7,6.9-0.6,10.4-0.6c2.6,0,5.1,0.3,7.3,1.5c4.3,2.4,8.5,1.5,12.8,0
	c0.7-0.3,1.5-0.5,2.2-0.8c0.3-0.3,0.6-0.6,1-0.9c0.3-0.4,0.5-0.7,0.8-1c0-0.9,0-1.9,0-2.8C117.3,81.3,113.1,86.7,109.8,85.7z"/>
<path fill="#484848" d="M78.2,63.7c0,1.9-0.2,3.6-1.9,4.8C76.7,66.8,77.1,65.1,78.2,63.7z"/>
<path fill="#484848" d="M91.6,33.9c-0.3,0.6-0.6,1.3-0.9,1.9C91,35.2,91.3,34.6,91.6,33.9z"/>
<path fill="#484848" d="M94.5,66.6c0.3-0.3,0.6-0.7,0.9-1C95.2,66,94.8,66.3,94.5,66.6z"/>
<path fill="#5D5D5D" d="M125.3,83.9c0.1,0.6,0.3,1,0.5,1.4c0-0.4,0-0.9,0-1.3C125.6,83.9,125.4,83.9,125.3,83.9z"/>
<path fill="#3F3F3F" d="M117.5,78c0.4,0.8,0.3,1.6-0.5,2.1c-2.7,1.7-5.3,3.5-8.3,4.6c-1.1,0.4-2.5,0.4-3.2,1.8
	c1,1.8,2.5,0.4,3.8,0.6c0.3,0.1,0.6,0,0.9,0.1c2.2,0.6,4.4,0.5,6.5-0.7c1.2-0.7,2.5-0.3,3.6,0.3c-0.6-2.4-0.9-4.8-1-7.3
	C119.3,78.4,118.7,77.8,117.5,78z"/>
<path fill="#2D2D2D" d="M103,79.8c-1,1-1.8,2.1-2.7,3.1c3.1-0.8,6.2-1.6,8.6-3.8C105.7,77,105.7,77,103,79.8z"/>
<path fill="#2D2D2D" d="M107,82.9c-0.6,0.3-1.3,0.6-1.9,0.8C105.7,83.5,106.4,83.2,107,82.9z"/>
<path fill="#2D2D2D" d="M99.4,85.8c-0.3,0.3-0.7,0.6-1,0.9C98.7,86.4,99.1,86.1,99.4,85.8z"/>
<path fill="#3F3F3F" d="M119.6,90.7c0.3-0.3,0.6-0.7,0.8-1C120.1,90,119.8,90.3,119.6,90.7z"/>
<path fill="#2D2D2D" d="M108.1,82c-0.4,0.3-0.7,0.6-1.1,0.9C107.4,82.6,107.7,82.3,108.1,82z"/>
<path fill="#2D2D2D" d="M101.4,84.9c-0.4,0.3-0.7,0.5-1.1,0.8C100.6,85.4,101,85.2,101.4,84.9z"/>
<path fill="#2D2D2D" d="M103.3,83.9c-0.3,0.3-0.7,0.6-1,0.9C102.6,84.5,102.9,84.2,103.3,83.9z"/>
<path fill="#2D2D2D" d="M110.9,81c-0.3,0.3-0.7,0.6-1,0.8C110.2,81.6,110.6,81.3,110.9,81z"/>
<path fill="#C6C6C6" d="M241.8,85c-0.3,0.9-0.4,1.8-0.4,2.8c0,1.3,0,2.5,0,3.8c0.1,0.4,0.2,0.8,0.4,1.2
	C241.7,90.2,241.7,87.6,241.8,85z"/>
<path fill="#C6C6C6" d="M245.3,76.4c-0.1,2.3-0.3,4.4-2,6.1c-0.7,0.7-1.2,1.5-1.5,2.4c0,2.6-0.1,5.2,0,7.8c0.4,1.4,0.9,2.8,1.4,4.2
	c0.2,0.6,0.9,0.9,1.6,0.7c0.7-0.2,1-0.9,0.8-1.5c-0.4-1.3-1-2.6-1.5-3.9c-0.6-1.5-0.7-3.1-0.2-4.6c0.4-1.3,1.2-2.2,2.4-2.7
	c2.9-5.8,2.5-11.6,0-17.4C244.8,70.4,245.3,73.4,245.3,76.4z"/>
<path fill="#9B9B9B" d="M250.9,74.2c-1.5-1.4-0.6-3.3-0.5-5c0-2.3-2-3.5-3.1-5.3c0,0-0.3-0.3-0.3-0.3c-0.7,1.2-0.8,2.6-0.9,3.9
	c0,5.8,0,11.6,0,17.4c0.1,1.4,0,2.7,0.9,3.9c2.5-1,1.7-4.3,3.8-5.5C253,80.3,254.5,77.4,250.9,74.2z"/>
<path fill="#D7D7D7" d="M269.3,71.3C269.3,71.3,269.3,71.3,269.3,71.3C269.3,71.3,269.3,71.4,269.3,71.3L269.3,71.3z"/>
<path fill="#D7D7D7" d="M270.2,72.3L270.2,72.3c-0.3-0.3-0.7-0.6-0.9-1c-0.6-0.4-0.4-1.4-1-1.8c-0.3-0.7-0.7-1.3-1-2
	c-1.9-1.2-3.2-3-4.5-4.9c-1.7-2.5-3.4-5-5.1-7.5c-0.2-0.3-0.8-0.7-1.1-0.7c-0.5,0.1-0.4,0.7-0.5,1.2c-0.3,1.6-0.4,1.6-1.6,0.7
	c-0.1-0.1-0.2-0.2-0.3-0.3c-2-1.5-2.4-1.3-3.2,1.1c-0.3,0.9-0.6,1.8-1,2.7c-0.3,1.3-0.6,2.5-0.9,3.8c-0.1,0.2-0.1,0.5-0.2,0.7
	c-0.2,0.5-0.2,0.9-0.2,1.4c0.4,1.3,1.3,2.5,1.9,3.8c1.9,3.9,3,8.3,6.8,10.9c1.6,0.3,3.1,0.8,4.7,1C267.1,81.8,271.2,77.1,270.2,72.3
	z"/>
<path fill="#767676" d="M280.6,87.3c-0.2,0.1-0.6-0.2-0.8-0.4c-0.1-0.2-0.2-0.7-0.1-0.7c0.5-0.3,1.2-0.5,1.7-0.8
	c1-0.7,0.8-1.5,0.3-2.4c-3.7-0.7-7.7,0.6-11.2-1.3c-0.4-0.2-0.8-0.4-1.2-0.6c-1.1-0.3-2.2-0.3-3.3-0.2c-3.1,0.9-5.4-1.5-8.2-1.9
	c-0.7-1-1.6-2-2.1-3c-1.9-3.7-3.8-7.5-5.6-11.3c-0.3-0.3-0.6-0.7-0.8-1c0,0,0,0,0,0c-0.6,0.1-1.2,0.2-1.8,0.3
	c-0.5,2.2,1.1,3.8,1.7,5.6c0,0.2,0,0.3,0,0.5c0,0.3,0,0.7,0,1c0,0.3,0.1,0.7,0.2,1c0.1,0.3,0.2,0.6,0.3,1c0.1,0.3,0.2,0.6,0.4,0.9
	c0.2,0.3,0.4,0.5,0.7,0.7c0.2,0.2,0.5,0.5,0.7,0.7c0.3,0.4,0.6,0.9,0.8,1.4c0.2,0.3,0.3,0.7,0.5,1c0.2,0.3,0.3,0.7,0.3,1.1
	c0,0.4-0.1,0.8-0.2,1.2c0,0.7,0.2,1.3,0.5,1.8c4.7,4.3,10.7,5.3,15.8,6.9c-3.1,0.9-7.2,0.9-9.9,4.4c-0.2,1.5,0.7,2.1,2,2.4
	c0.2,0,0.5,0.1,0.7,0.1c5.6-0.9,11.2-2,16.7-3.5c2.9-0.7,5.9-1.2,8.8-1.7c0.1-0.2,0.2-0.4,0.4-0.7C285.6,88.2,283.5,86.5,280.6,87.3
	z"/>
<path fill="#BFBFBF" d="M265.4,82.9c-2.7-1.1-5.5-1.9-7.7-3.9c1.2-0.6,2.4-0.5,3.6,0.1c1.7,0.9,3.1,0.4,4.2-0.9
	c1.6-1.9,3.5-3.6,4.6-5.9c2.2,2,4.4,3.9,6.6,5.9c0.7,5.8-0.6,6.8-7.5,5.7l0,0C268.1,82.8,266.5,84,265.4,82.9z"/>
<path fill="#929292" d="M269.2,83.9c0.8,0,1.6,0,2.4,0c2.2-0.1,2.2-0.2,1.5-2.5c-0.3-1-0.2-1.6,0.9-1.6c1.2-0.1,2.2-0.4,2.8-1.5
	c2.1,1.1,3.5,2.9,4.9,4.7c-0.5,0.9-1.1,1.6-2.1,1.7C276.1,85.2,272.6,85.5,269.2,83.9z"/>
<path fill="#BFBFBF" d="M269.3,71.4c-0.4-0.6-0.7-1.2-1.1-1.8C268.6,70.2,269,70.8,269.3,71.4z"/>
<path fill="#BFBFBF" d="M270.2,72.4c-0.3-0.3-0.6-0.7-0.9-1C269.6,71.7,269.9,72,270.2,72.4z"/>
<path fill="#4E4E4E" d="M253.1,88.8c-0.3-0.5-0.6-1-0.8-1.6c-0.2-0.6-0.2-1.2-0.4-1.8c-0.4-1.1-1.1-1.8-2.1-2.4
	c-0.2-0.1-0.4-0.1-0.6-0.2c-0.8-0.1-1.6,0-1.8,0.9c-0.2,1.6-0.3,3.3-0.4,5c0.9,2.8,2,5.4,4.2,7.4c3.7,0.4,3.6-2.1,3.5-4.6
	C254.6,90.4,253.8,89.6,253.1,88.8z"/>
<path fill="#767676" d="M261.3,95.2c-2-0.2-2.6-1.8-3-3.4c-1.7-1.6-3.5-2.4-5.4-0.2c0.7,2,0.4,3.6-1.7,4.6c0.4,0.2,0.9,0.7,1.2,0.6
	c3.1-0.5,6.4-0.2,9.4-1.2C261.7,95.5,261.5,95.4,261.3,95.2z"/>
<path fill="#BABABA" d="M274.6,87.1c-0.5-0.1-0.9-0.1-1.4-0.1c-2.6,0.1-5-0.6-7.3-1.7c-1.1-0.5-2.3-1-3.6-1.3
	c-2.8-0.7-5.3-2.1-7.5-3.9c-0.5-0.5-0.3-1.4-0.9-1.9l0,0c-0.3-0.3-0.6-0.6-0.9-1c0-0.3-0.1-0.6-0.1-0.9c-0.5-0.6-0.3-1.4-0.9-1.9
	l0,0c-0.3-0.3-0.6-0.7-0.8-1.1c-0.1-0.3-0.1-0.6-0.2-0.8c-0.3-0.4-0.6-0.7-0.9-1l0,0c-0.6-0.5-0.4-1.4-1-1.9l0,0
	c-0.7,1.1-1,2.3-0.7,3.6c0.4,1.9,2.9,2.9,2.6,4.8c-0.3,1.7-2.2,3-1.9,5.1l0,0c0.7,1.3,0.6,2.5,0.1,3.8c0,0.6,0,1.3,0,1.9
	c0.3,0.4,0.5,0.7,0.7,1.1c0.7,1,1.7,1.6,2.9,1.9c1.8,0.1,3.4,0.8,5,1.6c0.5,0.6,1.1,0.7,1.8,0.3c1.2-0.3,2.5-0.5,3.7-0.9
	c3.6-1.2,7.2-2.4,11.1-2.3c0.9,0,1.9-0.1,2.4-1.2C277.1,88.4,276,87.4,274.6,87.1z"/>
<path fill="#9B9B9B" d="M250,64.7c-0.3-0.3-0.6-0.7-0.8-1C249.4,64,249.7,64.4,250,64.7z"/>
<path fill="#434343" d="M259.6,93.6c-0.6-0.1-1.2-0.2-1.8-0.3c-0.5,0.3-1.4,0.6-1.5,1c-0.2,1.2,0.9,1.1,1.6,1.1
	c1.1,0,2.2-0.1,3.3-0.2C260.7,94.7,260.2,94.1,259.6,93.6z"/>
<path fill="#929292" d="M265.4,82.9c1.4,0,2.7,0.1,3.9,0.9C267.9,83.9,266.6,83.8,265.4,82.9z"/>
<path fill="#9B9B9B" d="M254.8,80.1c-0.3-0.6-0.6-1.3-0.9-1.9C254.2,78.8,254.5,79.4,254.8,80.1z"/>
<path fill="#9B9B9B" d="M252.8,76.2c-0.3-0.6-0.6-1.3-0.9-1.9C252.2,74.9,252.5,75.6,252.8,76.2z"/>
<path fill="#9B9B9B" d="M250.1,71.4c-0.3-0.6-0.7-1.3-1-1.9C249.4,70.1,249.7,70.8,250.1,71.4z"/>
<path fill="#9B9B9B" d="M250.9,72.4c-0.3-0.3-0.6-0.7-0.9-1C250.3,71.7,250.6,72.1,250.9,72.4z"/>
<path fill="#9B9B9B" d="M253.9,78.1c-0.3-0.3-0.6-0.7-0.9-1C253.3,77.4,253.6,77.8,253.9,78.1z"/>
<path fill="#9B9B9B" d="M251.9,74.3c-0.3-0.4-0.6-0.7-0.8-1.1C251.4,73.6,251.7,73.9,251.9,74.3z"/>
<path fill="#9B9B9B" d="M249.2,86.7c0.8-1.3,0.9-2.6-0.1-3.8C249.1,84.2,249.2,85.5,249.2,86.7z"/>
<path fill="#9B9B9B" d="M249.2,88.7c0.2,0.4,0.5,0.7,0.7,1.1C249.7,89.4,249.5,89.1,249.2,88.7z"/>
</svg>
