<?xml version="1.0" encoding="utf-8"?>
<!-- Generator: Adobe Illustrator 18.1.1, SVG Export Plug-In . SVG Version: 6.00 Build 0)  -->
<svg version="1.1" id="Layer_1" xmlns="http://www.w3.org/2000/svg" xmlns:xlink="http://www.w3.org/1999/xlink" x="0px" y="0px"
	 viewBox="0 0 92 407.3" enable-background="new 0 0 92 407.3" xml:space="preserve">
<path fill="#999999" d="M60.4,15.8c0.3-1.6,0.6-3.3,0.9-4.9c0.7-2.1,1.3-4.2,2-6.4c0.5-1.6,1.2-1.9,2.9-1.2c4.4,1.8,4.5,1.9,4.7,7.6
	c-0.3,4.1,0.3,8.2,1,12.3c0.3,1.9,0.8,3.8,3,4.4c0.8,0.3,1.4,0.8,1.6,1.6c1.2,4.7,3.5,9.2,3,14.3c-1.7,2.7-0.8,5.6-0.7,8.4
	c0,1.3,0.3,2.7,0,4c-0.4,1.8-1.4,3.2-3.5,3.1c-2.2-0.1-3-1.7-2.9-3.5c0.1-4.5-1.7-9-0.6-12.3c0,0.1,0.5,1.6-1,2.5
	c-3-0.3-3.7-2.5-4-5c-0.5-5,0.2-10.1-0.5-15.2c-1.1,0.4-1.2,1.3-1.7,1.9c-1,1-2.1,1.6-3.4,1c-1.1-0.5-1.2-1.6-1.3-2.8
	c-0.1-2,0.1-3.9,0.8-5.8C61.3,18.4,61.6,17.1,60.4,15.8z"/>
<path fill="#999999" d="M81.5,73.3c-0.1,2.9,0.1,5.7,0.6,8.5c0.7,4.5,0.3,9.1,0.3,13.7c-2,3.4-0.6,7.1-0.8,10.7
	c-0.3,3.3,0,6.7-0.1,10.1c-0.1,1.9-0.7,3.2-2.8,1.6c-1.1-5.8-0.2-11.5-0.5-17.3c-0.1-3.6,0.2-7.2-0.6-10.8C77.2,88.9,77,88,77,87
	c0.1-4.3,0.1-4-3.7-2.4c-3.2,1.4-3.4-1.7-3.5-3.5c-0.4-3.9-0.4-7.9-0.3-11.9c0.2-6.4-0.3-12.7-0.1-19c0.1-1.7-0.3-3.6,1.4-4.8
	c0.1-2.2,0.1-4.5,0.3-6.7c0.1-0.9,0.5-1.8,0.7-2.8c1.3,0.7,0.8,1.8,0.8,2.5c-0.1,5.3,0.2,10.5,1,15.8c0.1,0.6,0.1,1.3,0.3,1.9
	c0.2,0.4,0.6,0.8,0.9,0.9c0.7,0.2,1.2-0.3,1.5-0.9c0.3-0.9,0.7-1.8,0.8-2.7c0.2-1.9,0.1-3.8,0.2-5.7c0.1-1.1,0.1-2.2,0.3-3.3
	c0.2-0.7,0.9-0.8,1.5-0.8c0.6,7.4,1.2,14.7,1.8,22.1C81.4,68.3,81.4,70.8,81.5,73.3z"/>
<path fill="#999999" d="M60.4,15.8c1-0.2,1.6,0.2,1.6,1.2c0,1.1-0.3,2.2-0.4,3.3c-0.3,1.9-0.5,3.8-0.1,5.7c0,0.2,0.4,0.5,0.6,0.5
	c0.2,0,0.6-0.3,0.7-0.5c0.2-0.8,0.4-1.5,0.6-2.3c0.3-1.1,0.5-2.2,0.9-3.2c0.4-1,1.1-1.5,2.2-1.4c1.3,0.1,2.3,0.9,2.4,1.9
	C69,21.7,69,22.3,69,23c0,5.6,0,11.2,0,16.7c1.4,7,0.7,14.2,1,21.3c0.1,1.9-1,3.4-2.7,3.4c-4.9-0.1-3.6,3.2-3.6,5.9
	c0,2.1,1,4.5-1.4,6.1c-0.7,0.5-1.4,0.6-2.3,0.4c-2.1-1.1-2-3.1-2-5c-0.1-4.4-0.3-8.9,0.1-13.3c0.1-0.9,0.5-2.1,0.1-2.6
	C53.8,50,56.5,44,57.6,38.1c0.4-2.1,0.4-4.1-0.2-6.1c0.2-3.5,1.4-7,1-10.5l0,0C59.9,19.9,60.3,17.9,60.4,15.8z"/>
<path fill="#414141" d="M42,152.7c0.1-5,0.1-10,0.2-14.9c0.8-1.8,1.3-3.7,1.4-5.5c0.3-5.3,1.3-10.4,2.4-15.6c1.1-13.7,3.9-27.2,5-41
	c0.6-8.2,0.4-16.6,3.6-24.4l0.1,0c1.1-1.8-0.5-4.1,2.2-6.9c-0.4,5.5,1.3,9.6,1.3,14c0.1,10-1.5,19.9-1.7,29.9
	c-0.2,7.6-1,15.2-2.9,22.6c-1.3,6.5-1.5,13.1-3.5,19.5c-1.2,3.9,0.2,8.1-0.4,12.2c-0.1,0.6-0.3,1.1-0.5,1.6
	c-3.3,5.1-2.5,11-3.8,16.6c-0.7,2.8,0.5,6.7-3.7,7.9c-2.1-1.8-1.3-4.3-0.9-6.2C41.5,159.2,41.2,155.9,42,152.7z"/>
<path fill="#808080" d="M54.5,88.7c0-6.1,0.1-12.1,0.7-18.1c0.7-6.6,0.8-13.3,1.1-20c0-0.9,0-1.9,0-3c-1.2,0.4-0.7,1.4-1,2
	c-0.3,0.6-0.5,1.2-0.8,1.7c0-1.9-0.1-3.9-0.1-5.8c-0.9-1.9,0.4-3.8,0.1-5.7c0.3-1.4,0.6-2.9,1.8-3.9l0,0c1.1-1.1-0.1-2.7,1-3.8l0,0
	c0.9-0.1,1.6,0.3,1.8,1.2c0.3,1.7,0.1,3.5-0.2,5.2c-0.5,2.2-1,4.4-1.3,6.6c-0.2,1.9-0.1,3.8-0.1,5.7c0,1,0.7,1.1,1.6,0.5
	c0.4-0.3,0.5-0.8,1.1-0.6c0,8.5,0,17.1,0,25.6c3.6,2.9,0.9,6.6,1.3,9.9c-0.1,1.1-0.7,2-1.4,2.8C58.3,90.8,56.5,87.4,54.5,88.7z"/>
<path fill="#A9A9A9" d="M54.5,88.7c1.2-1.4,0.8-3.3,1.4-5.5c1.2,2.2,1.2,4.6,3.4,5.4c0.6-0.5,0.4-1.4,1-1.9c0-3.5,0-7,0-10.5
	c1.1-0.8,1.5-2,1.3-3.4c-0.6-3.3-0.3-6.7-0.3-10c0-0.9,0.1-1.9,0.2-2.8c0.2-1,0.8-1.7,1.7-2.2c1.1-0.6,2.4,0,2.5,1.2
	c0.1,0.6,0,1.3-0.1,1.9c0,0.8,0,1.7,1.1,1.7c0.9,0,1.4-0.7,1.7-1.5c0.6-1.4,0.5-2.8,0.5-4.2c0-5.7,0-11.5,0-17.2
	c1.2,1.7,0.6,4.1,1.9,5.8c0,3.2,0,6.4,0,9.6c0,1.4-0.1,2.9,0.2,4.3c1,4.8,0.7,9.5,0.6,14.3c0,3,0.1,6,0.2,9.1
	c1.3-0.2,1.1-1.2,1.4-1.8c0.2-0.6,0.3-1.2,0.4-1.9c0.2-1.3,0.3-2.5,0.6-3.8c0-0.2,0.5-0.3,0.8-0.4c0.1,0,0.3,0.2,0.3,0.3
	c0.2,0.6,0.3,1.2,0.4,1.8c0.3,1.9,0.8,3.8,2,5.3c1.5,1.9,1.9,4,1.8,6.3c-1.8,4.5-0.7,9.4-1.4,14c-0.2,1.2,0.1,2.5-0.1,3.8
	c-0.2,1.1-0.4,2.4-1.8,2.3c-1.4-0.1-1.6-1.3-1.8-2.4c-0.2-2-0.4-4.1-0.9-6.1c-0.1-0.5-0.2-1-0.3-1.4c1.6-6.8-5-11.3-5-17.6
	c-0.1,0.9,0.2,1.9-0.4,2.6c-5.4,6.2-3.1,14.2-5,21.2c-2.8,10.2-0.7,21.3-6,31c-0.8,1.5-0.5,3.5-1,5.3c-0.4,1.5-1.2,2.7-2.9,2.5
	c-1.8-0.2-2.8-1.2-2.9-3.1c-0.1-3.2-0.4-6.6,1.1-9.4c1.8-3.5,1-7.6,3.1-10.9c0.1-0.2-1.6,0.5-2-0.6c-0.7-3-1.4-6-0.5-9.1
	C52.6,103.4,53.5,96.1,54.5,88.7z"/>
<path fill="#B4B4B4" d="M50.6,302.6c-0.3,0.1-0.5,0.2-0.8,0.3c-3.2,4.4-4,9.7-5.4,14.8c-3.4,4.4-3.3,10-4.8,15
	c-0.3,0.4-0.7,0.7-1.2,0.9c-3.1,1-5.3-1.3-7.9-2.2c-1.2-0.4-1.7-1.9-1.4-3.2c0.5-2.5,2.3-3.5,4.6-4c3.8-1.7,5.7-8.9,4.2-13.6
	c-2-6.1-1.9-12.2,2.5-17.5c0.3-0.2,0.7-0.3,1.1-0.3c0.2-0.1,0.3-0.1,0.5-0.2c0.1-0.1,0.3-0.2,0.4-0.3c0.4-0.3,0.7-0.7,1-1.2
	c0.1-0.4,0.2-0.8,0.3-1.2c6.3-5.4,5.3-13.1,6.6-20.1c0.2-2.7,0.1-5.5,0.2-8.2c0.1-1.2,0.6-2.3,0.3-3.5c-0.1-1.2-0.4-2.4-0.6-3.6
	c-0.1-0.5-0.2-1-0.1-1.5c0.1-0.5,0.4-1,0.7-1.4c1.4-1.3,3.1-1.8,4,0c2.1,4.1,5.1,8,3.8,13.3c-0.9,3.5-1.5,7.2-1.8,10.8
	c0,3.6-0.2,7.3-0.2,10.9c-1.3,3.6-2.1,7.3-3,11C53.2,299.6,53.1,301.9,50.6,302.6z"/>
<path fill="#D4D4D4" d="M49.6,300.5c-0.1-0.5-0.2-1-0.8-0.9c-0.2,0-0.6,0.3-0.7,0.6c-0.4,1.2-0.7,2.4-1,3.6c-0.3,1.4-0.3,2.9-1.2,4
	c-1.4,1.8-1.9,3.9-2.1,6.2c-0.1,0.8-0.5,1.5-0.8,2.2c-3.9,4.8-2.5,11.1-4.8,16.3l0,0c-0.6,0.7-1.5,1.2-1.8,2.2
	c-4.1,13.5-6.9,27.3-9.6,41.2c-0.4,2,0.2,3.8,2.4,4.5c0.6,0.1,1.1,0.1,1.6-0.1c0.1,0,0.1-0.1,0.2-0.1c0.2-3,1.2-6,2.3-9
	c0-0.1-0.1-0.2-0.1-0.3c-0.1-2.8,0.6-5.4,1.4-8c3.1-9.8,5.1-19.8,7-29.8c0.9-4.7,2.2-9.3,3.5-13.9c1.6-5.5,3.8-10.8,4.6-16.5
	C49.7,302,49.7,301.3,49.6,300.5z"/>
<path fill="#ACACAC" d="M27.8,391.1c-1-1.7-1.9-3.4-1.6-5.4c0.7-5.2,0.3-10.5,1.5-15.7c1.1-4.9,2.7-9.9,2.1-15.1
	c-0.2-1.9-0.2-4.3-2.7-4.4c-2.6-0.2-3.4,2.2-3.6,4.3c-0.6,5.7-2.6,11.2-2.9,16.9c-0.2,4.6-2.5,9-0.9,13.3c-1.6-1.9-3.3-2.2-4,0.9
	c-0.9,4.2-3.7,7.5-5.1,11.4c-0.6,0.8-1.3,1.4-2.3,1.8c-0.8,0.1-1.6,0.1-2.4,0.1c-0.4,0-0.8,0.1-1.2,0.2c-0.2,0.1-0.4,0.2-0.5,0.3
	c5.4,1.9,11.3,2.3,17.3,3.5c1.2-0.5,2.4-1.1,3.5-1.8c0.6-0.9,1-1.9,1.3-3C26.9,396,27.8,393.6,27.8,391.1z"/>
<path fill="#535353" d="M62.3,270.3c-0.4-3.9,0.7-7.6,1.6-11.3c0.2-1.1,0.5-2.2,0.7-3.3c0-0.2-0.3-0.4-0.6-0.6
	c-0.1,0-0.3,0.1-0.4,0.2c-0.8,1.9-1.6,3.8-2.2,5.8c-0.8,2.9-1.4,5.9-2.1,8.9c-1,4.2-2,8.4-3.1,12.6c-0.3,1.4-0.8,2.8-1.7,3.9
	c0.2-2.3,0.3-4.6,0.6-7c0.1-1.1,0.3-2.2-0.4-3.1c2.6-7,3.5-14.4,4.6-21.7c1.5-10.7,5.5-20.7,8.4-31c0.6-2.3,1.3-4.6,1.6-6.9
	c0.2-1,1-1.6,1.5-2.4c0.2-0.4,0.4-0.8,0.5-1.2c0.5-1.1,0.7-2.3,0.7-3.6c0-0.4,0.1-0.8,0.2-1.2c0.2-0.6,0.3-1.2,0.6-1.7
	c0.3-0.6,0.7-1.1,1.4-1.4c0.5-0.1,0.9,0,1.4,0.3c0.6,0.5,1,1.1,0.9,1.9c-0.5,2.3,0.4,4.7-0.6,7c0,0.3,0,0.6-0.1,0.9
	c-0.8,0.9-0.1,2.1-0.8,3c-0.3,4.9-1,9.7-2.3,14.5c-1.1,4.3-1.9,8.7-2.6,13.1c-0.4,2.6-1.2,4.9-2.3,7.2c-2.7,5.3-4.2,10.9-4.5,16.9
	C62.9,270.1,62.6,270.2,62.3,270.3z"/>
<path fill="#6B6B6B" d="M75.7,214.5c0-2.6,0-5.2,0-7.8c-2.8-4.4,0.7-8.4,1-12.7c0.1-1.8,0.9-3.6,1.3-5.1c-1.6,0.7,1.5,5.4-3.3,3.9
	c-2.8-5.3-0.2-10.6-0.1-15.9c0.1-3.6,0.6-7.3,0.7-10.9c0.4-11.2,3-22.1,2.8-33.3c-0.1-3-0.1-6.1-0.3-9.1c-0.2-2-0.1-3.9,1.9-5
	c0.8-1.6,0.8-3.4,0.8-5.1c0-6,0-12,0.1-18.1c0-1.6,0.1-3.1,0.2-5.6c1.2,2.4,0.6,4.3,1.7,5.7c0,4.6-0.1,9.3,0,13.9
	c0.2,6.9-0.9,13.7-0.9,20.6c0,4.5-0.2,8.9,0.5,13.4c0.1,0.8,0.2,1.6,0.1,2.4c-0.7,4.8-0.5,9.6-0.6,14.3c-0.1,1.7-0.3,3.5-0.5,5.2
	c-0.1,0.8-0.3,1.6-0.3,2.4c1,10.9-1.1,21.6-2.4,32.3c-0.5,4.1-1.3,8.2-1.9,12.3C76.3,213.1,76,213.8,75.7,214.5z"/>
<path fill="#6B6B6B" d="M74.8,218.5c-0.1-1.1,0.2-2.1,0.8-3C75.7,216.5,75.4,217.5,74.8,218.5z"/>
<path fill="#C9C9C9" d="M79.6,118.6c-0.1,10.8-0.1,21.6-0.3,32.4c-0.1,4.4-0.6,8.9-0.9,13.3c-0.1,0.8-0.5,1.5-0.8,2.2
	c-1.7-0.4-2.2-1.8-2.2-3.3c-0.1-9.5,0.8-18.9,1.4-27.9c-2.4,2-4.4,1.3-5.2-2.4c-0.7-3.4,1-6.6,0.7-9.8c0,1.6-0.1,3.4-2.4,3.6
	c-1.9,0.1-3.1-1.4-2.9-3.1c1.1-8.9,1.3-17.8,2-26.7c0-0.4,0.6-0.7,1.1-0.9c1.7,0.4,2.6,2.6,4.7,2.2c0,0.3,0,0.6,0,1
	c1.3,3.9-0.6,8.2,1.4,11.7c1.3-2.6,0.9-5.7,1-8.8c0-1.5,0-3.2,2.3-1.8C79.5,106.4,79.6,112.5,79.6,118.6z"/>
<path fill="#BCBCBC" d="M79.4,100.3c-1.7,0.9-1.8,2.5-1.8,4.1c0,3.3,0,6.7-0.1,10c0,1.4,0,2.9-0.8,4.1c-0.2,0.2-0.5,0.5-0.7,0.5
	c-0.5,0.1-1-0.3-1-0.8c-0.2-1.3-0.3-2.5-0.3-3.8c0-5.1,0-10.2,0-15.3c1.5,2.3,0.6,5,1.2,7.5c1.1-0.8,0.6-1.8,0.7-2.6
	c0.4-4.3,0.7-8.6,1.1-12.8c0.1-1.2,0.7-2.1,1.8-2.6C79.5,92.6,79.5,96.4,79.4,100.3z"/>
<path fill="#424242" d="M25.8,280.7c0.9-2.1,1-4.4,1-6.6c0.9-2.4,0.6-5.1,1-7.6c1.4-7.7,1.9-15.6,3.5-23.2c0.6-2.6,0.7-5.4,1-8.1
	c0.3-3,0.5-6.1,0.8-9.1c1.8-14.4,3.7-28.9,5.6-43.3c0.3-2.2,0.3-4.5,0.4-6.7c1.1-2.8-0.3-5.9,0.8-8.7c0.3-3.6,0.6-7.1,1-10.7
	c0.1-1.4,0.3-2.8,1-4.1c0.2,3.1,0,6.2-0.6,9.3c-0.4,2.2-0.5,4.4,0.7,6.4c1.2,0.9,1.3,2.1,1.3,3.4c0.1,13.8-0.2,27.6-0.8,41.4
	c-0.2,7.6-0.1,15.2-0.9,22.7c-0.5,4.8-2.6,9.5-2,14.5c0,1.4-0.4,2.8-0.5,4.2c0.2,2.9-0.9,5.5-2.1,8c-4.3,9-6.8,18.4-7.1,28.5
	c-0.1,4.8-1,9.7-1.4,14.5c-1.2,2.6-0.3,5.3-0.6,7.9c0.1,3.9-2.9,7-3,10.9c-1.2,2.8,0.4,6.1-1.4,8.8c-0.9,1.3-1.4,3.7-3.6,3.2
	c-1.7-0.4-2.6-2.2-2.9-4c-0.1-0.6,0-1.3,0.1-1.9c2.3-6.1,2.7-12.7,4.2-19C24,301.3,23.6,290.8,25.8,280.7z"/>
<path fill="#ACACAC" d="M46.8,143.4c0-0.3,0-0.6,0.1-0.9c0.4-0.3,0.8-0.4,1.3-0.3c3.1,2.9,2.4,6.6,1.5,9.8
	c-1.4,5.4-1.7,10.9-2.7,15.7c0.7-2.3,0.9-5.3,1.2-8.3c0.2-1.7,0.6-3.3,2.7-3.2c2,0.1,2.5,1.6,2.4,3.4c-0.1,1.2-0.2,2.4,0.2,3.2
	c-0.2-1-0.5-2.5,1.2-3c1.6-0.6,2.2,1,2.8,2.1c1.3,2,1.2,4.3,0.7,6.5c-1.2,3.2-2.6,6.5-2.2,10c-0.4,2.4-0.3,4.7,0.4,7
	c2.1,6.6,0.4,13.2-0.5,19.8c-0.2,1.2-0.9,2-2.3,2c-2.9-2.3-2.9-5.8-3.2-9c-0.3-2.8-0.1-5.7,0-8.6c0-0.7,0.3-1.4,0.4-2.1
	c0.1-0.9,0-1.8,0.3-2.7c-0.2,0.7-0.3,1.3-0.3,2c0,0.4-0.1,0.8-0.1,1.3c-0.5,1.7-0.3,3.5-0.3,5.2c0,0.6,0,1.3-0.1,1.9
	c-0.1,1.1-0.5,2.1-0.7,3.1c-0.1,0.4-0.2,0.8-0.3,1.2c-0.3,1-0.6,2-0.8,3.1c-0.1,0.4-0.2,0.9-0.3,1.3c-0.3,1.1-0.6,2.3-0.8,3.5
	c-0.6,2.9-0.4,6-1.7,8.7c-0.8,1.6-1.7,3.5-3.8,2.7c-2.4-0.9-0.4-2.6-0.3-4c0-0.5,0.1-0.9,0.1-1.4c-0.1-5,0.3-10.2,1.5-15
	c2.3-8.9-1.6-17.4-0.1-26.2C44.5,162.6,45,152.9,46.8,143.4z"/>
<path fill="#7B7B7B" d="M46.8,143.4c0.4,4.5-1,8.8-1.4,13.3c-0.2,1.7-0.4,3.5-0.5,5.2c-0.1,3-0.2,6-0.7,9c-0.3,2-0.2,4.1-0.3,6.2
	c0,1.8,0,3.5,1.8,4.6c0.9,0.6,1,1.6,1,2.6c-0.1,1.7-0.1,3.5-0.4,5.2c-1.2,6.6-2.4,13.1-3.7,19.7c-0.3,1.4-0.5,2.8-0.8,4.2
	c-0.3,0.7-0.5,0.7-0.8,0c0-4.9-0.3-9.9,0-14.8c0.4-6.7,0.7-13.3,0-19.9c-0.2-1.9,0.1-3.8,0.5-5.7c0.3-1.5,0.3-3.1,0.5-4.7
	c1-3,1.5-6.1,1.9-9.2c0.5-3.9,1.1-7.8,1.6-11.7C45.8,146,46,144.6,46.8,143.4z"/>
<path fill="#7B7B7B" d="M47.8,142.4c-0.3,0-0.6,0-0.9,0.1c-0.1-5.4,0.7-10.7,2.3-15.9c1-3.1,1.5-6.1,1.5-9.3c0-2.2-0.1-4.5,1-6.5
	c0.3,3.2,0.7,6.4,1,9.6c0.1,0.2,0.1,0.4,0.2,0.6c0.5,1.5,0.3,3,0.3,4.4c-0.1,0.4-0.2,0.8-0.3,1.2c-0.8,1.3-0.4,2.9-1.4,4.1
	c-0.2,0.4-0.4,0.7-0.7,1.1c-0.6,1.3-0.3,2.7-0.5,4C49.3,138,50.7,141,47.8,142.4z"/>
<path fill="#A9A9A9" d="M60.3,86.8c-0.3,0.6-0.7,1.3-1,1.9C59.6,88.1,60,87.4,60.3,86.8z"/>
<path fill="#BCBCBC" d="M47.8,142.4c-0.1-2.6,0.3-5.2,1-7.7c1-1.1-0.1-2.7,0.9-3.8l0,0c0.9-1.5,1.1-3.3,1.9-4.8l0,0
	c1.3-1.8-0.2-4,0.9-5.8l0,0c1.2-1.6,1.1-3.7,1.7-5.5c0.2-0.4,0.3-0.9,0.5-1.3c0.1-0.2,0.5-0.4,0.7-0.4c0.2,0,0.6,0.3,0.6,0.6
	c0.1,0.9,0.2,1.9,0,2.8c-0.6,3.5-1.3,6.9-2.1,10.3c-0.4,1.7-1.1,3.3-1.6,5c-1.1,3.1-1,6.3-0.3,9.4c0,0.2,0.5,0.5,0.7,0.5
	c0.2,0,0.6-0.2,0.8-0.4c0.2-0.2,0.4-0.5,0.4-0.8c0.4-3.5,1.9-6.7,3-10.1c0.8-2.3,1.2-4.6,1.4-7c0.3-3.7,0.5-7.3,1.1-11
	c1-6.2,0.9-12.4,2.4-18.5c0.4-1.7,0.3-3.5-0.1-5.2c-0.3-1.4-0.4-2.8-0.5-4.3c0-0.8-0.1-1.7,0.7-2.2c0.9-0.6,1.4,0.3,2,0.8
	c0.1,0.1,0.3,0.2,0.4,0.3c0.7,0.3,1.3,0,1.4-0.7c0.2-1.9,0.2-3.8,0.2-5.7c0-0.5,0.1-1,0.2-1.4c0.1-0.3,0.3-0.6,0.6-0.6
	c0.2-0.1,0.7,0.2,0.7,0.3c0.5,1.5,0.7,3.1,2.3,4c0.9,0.5,0.9,1.6,0.9,2.6c0.1,2.1,0.3,4.1,1.3,6.1c1.5-0.8,0.7-2.8,2.4-3.7
	c0.8,1.5,0,3.1,0.2,4.6c0.2,1.6,0.5,3.2,0.5,4.8c0,1.6-0.3,3.2-0.5,4.8c-1,0.6-1.7,1.4-1.8,2.6c-0.1,1.2-0.3,2.5-0.4,3.7
	c0,0.2-0.4,0.6-0.6,0.6c-0.6,0.1-0.8-0.4-0.9-0.9c-0.1-2.7-0.1-5.3-0.2-8c-2.4-0.2-1.9,1.7-1.9,2.9c0,5.3-1.1,10.6-1,16
	c0,1.4-0.5,2.7-1,4c-1.4,3.6-3.1,3.8-6.5,0.4c1.8,5.3,0.8,10.2,0.2,15c-1.2,9.2-1.1,18.4-2,27.6c-0.2,2.1,0.5,5.1-3.2,5.1
	c-0.1-1.9-0.1-3.8-0.2-5.7c-0.8,3-1.6,5.9-3.1,8.5c-0.1,0.2-0.5,0.4-0.8,0.4c-0.2,0-0.5-0.4-0.5-0.6c-0.2-1,0-1.9,0.4-2.8
	c1.5-2.8,0.6-5.6,0-8.4c0-0.2-0.4-0.5-0.7-0.5c-0.2,0-0.6,0.3-0.7,0.5c-0.2,0.8-0.2,1.6-0.3,2.4c-0.2,1.3-0.1,2.6-0.6,3.8
	c-0.9,2.1-1.3,4.3-1.4,6.5c0,1.3-0.3,2.6-1.1,3.6c-0.2,0.2-0.5,0.4-0.8,0.4c-0.2,0-0.6-0.4-0.5-0.6c1-7.1,0.2-14.4,1.8-21.5
	C47.9,149.8,47.9,146.1,47.8,142.4z"/>
<path fill="#BDBDBD" d="M38.2,332.6c-0.7-0.4-1.5-0.7-1.9-1.3c-1.2-1.4-2.5-2.4-4.5-1.8c-0.5,0.1-0.9-0.3-0.9-0.8
	c0-0.3,0.1-0.7,0.3-0.8c1-0.7,2.1-1.3,3.2-2c0.3-0.1,0.6-0.2,0.8-0.5c4.4-6.5,3.2-13.6,1.8-20.6c-0.3-1.6-1.3-1.4-3.2,0.6
	c2.4-4.5,1.3-9.5,1.9-14.4c0.2-1.4-0.5-2.5-2-2.9c-1.9-0.5-2.5,1.1-3.1,2.3c-1.2,2.4-0.4,5-0.6,7.5c0,0.5-0.1,0.9-0.3,1.4
	c-0.5,1.1-0.7,2.2-0.7,3.4c0.2,1.7-1.1,3-1,4.7c-0.1,2.6,0.3,5.3-0.6,7.9c-0.4,1.1,1.5,3-1.1,3.3c-0.4,0-0.8,0.1-1.2,0.4
	c-0.7,0.9-0.5,2.2-1,3.2c0,0.7-0.1,1.4-0.3,2c-0.2,1.4-0.3,2.9-1,4.2c-2.3,9.1-5.2,18-6,27.4c-0.1,0.5-0.2,1-0.3,1.5
	c-0.2,1.2-0.5,2.3-0.8,3.4c-0.1,0.5-0.2,0.9-0.2,1.4c-0.2,1.6-0.7,3.2-1.1,4.8c-1.1,3.1-0.6,6.4-0.9,9.6c-0.6,4.6-0.9,9.2-2.6,13.6
	c-0.1,0.5-0.2,0.9-0.2,1.4c-0.2,1.4-0.7,2.7-0.8,4c0,0.5,0,0.9,0,1.4c0,0.9,0.1,1.8,0.8,2.5c0.2,0.1,0.4,0.2,0.6,0.3
	c1.1-0.2,2.3-0.5,2.3-1.9c0-1.8,0.1-3.6,1.1-5.1c1.3-2,2.5-4.1,2.8-6.5c0-0.2,0.5-0.4,0.7-0.4c0.2,0,0.6,0.3,0.6,0.6
	c0.1,1.1,0.2,2.2,0.3,3.3c0.1,0.5-0.2,1.4,0.9,1.3c0.2-0.4,0.5-0.8,0.5-1.3c0.4-4.4,1.8-8.8,2.1-13.2c0.6-7.5,2.9-14.7,3.5-22.1
	c0-0.6,0.1-1.6,1.4-1.5c0.1,3,0.1,6-0.5,9c-0.8,3.9-1.9,7.8-2.1,11.7c-0.3,5.1-1,10.1-1.7,15.2c-0.2,1.6-0.7,3.4,1.1,4.2
	c1.7,0.7,2.3-1.2,3.5-2c1.5-3.7,2.3-7.5,2.8-11.4c-1.5-0.7-2-2-1.6-3.5c0.8-3.7,1.5-7.4,2.4-11.2c0.9-3.9,2.1-7.7,2.8-11.5
	c0.5-2.7,1-5.3,1.7-7.9C37.1,341.3,38.7,337.1,38.2,332.6z"/>
<path fill="#8D8D8D" d="M51.7,188.5c0,2.5,0,5.1,0,7.6c0,1.9,0.1,3.8,1,5.5c0.8,1.6,0.8,3.4,0.9,5.1c0.3,0.3,0.6,0.6,0.8,1.1
	c0.3,0.5-0.3,1.1,0.3,1.6c0.6-1.3,0.7-3.6,3-2.8c2.1,0.8,2.2,2.9,2.2,4.8c0.3,4.5-0.6,8.8-2.3,13c-2,4.9-3.3,10-3.4,15.4
	c-0.2,4.4,0.7,9.1-2.4,13c0,0.3,0,0.6-0.1,1c-0.2,2.7,0.5,5.6-3.5,6.6c-2.4,0.6-1.7,3.1-1.5,4.9c0.4,3,1.4,5.9,1.6,8.9
	c0.3,6.3-0.2,12.4-3.3,18l0,0c-0.9,0.8-0.1,2.1-1,2.9l0,0c-0.7,0.5-1.3,0.5-1.9,0h0c-2.3-2.5-1.5-6.5-4.1-8.9
	c-0.2-0.8-0.1-1.5-0.2-2.3c3.5-11.7,4.7-23.8,4.4-35.8c-0.3-14.4,5-27.8,5.3-41.9c0.1-5.4,2.4-10.5,2.4-15.9
	C49.9,189.3,50.4,188.4,51.7,188.5z"/>
<path fill="#ADADAD" d="M58.4,210.6c-0.2-0.8-0.3-1.6-0.9-2.1c-0.6-0.2-0.8,0.2-1,0.7c-0.5,1.7-0.9,3.4-1.4,5
	c-0.2,0.7-0.5,1.8-1.3,1.8c-1.3-0.1-1.1-1.4-1.1-2.3c-0.1-2.1-0.2-4.1,0.9-6c3.1-2.7,2.2-6.6,2.9-10.1c0.3-1.8,0.4-3.6,0.9-5.4
	c0.5-1.9,1-3.4,3.2-3.2c2.1,0.3,2.9,1.9,2.9,3.8c-0.1,4.3-1.1,8.5-1.3,12.8c0.2-1.9,0.1-4,2.6-4.4c2.5-0.4,3.1,1.7,3.9,3.4
	c0.3,0.4,0.5,0.8,0.6,1.2c0.2,2.1-0.9,4-0.4,6.3c1.6-0.1,2.3-3.5,4.5-1.4c0,0.9,0.3,1.8-0.4,2.6c-0.1,0.3-0.1,0.5-0.1,0.8
	c-0.4,0.6-0.3,1.5-0.7,2.1c-2.6,9.5-5,19.1-8.2,28.5c-1.1,3.3-1.8,6.8-2.6,10.2c-1.6,6-3.1,12-4.7,18c-0.3,1.3-0.8,2.4-1.8,3.3
	c0.7-3.9,1.4-7.9,2.2-11.8c0.5-2.3,0.5-4.4-1.4-6.2c-1.5-1.4-1.7-3.3-2-5.2c-0.2-1.2-1-0.8-1.8-0.4c1-4.4,1-8.9,0.9-13.4
	c1-1-0.3-4.2,2.7-3.3c2.1,0.6,2.3,2.5,1.9,4.3c-0.6,2.4-1,4.7-0.8,6.1c2-8.3-1.2-18.9,7-26.7c-3.8,1.4-4.3,1.1-4.5-2.7
	C58.7,215,59.3,212.7,58.4,210.6z"/>
<path fill="#A0A0A0" d="M44.9,292.2c1.3-5.8,1-11.7,0.9-17.5c0-2-0.5-4.1-1.1-6.1c-1-3.6-0.8-7.2-0.7-10.9c0-0.8,0.3-1.5,0.6-2.3
	c0.3-0.9,1.6-1.1,2.5-0.7c1.3,0.5,1.3,2.2,2.6,2.7c1.3-0.8,0.9-2.6,1.9-3.6c0,0.3,0,0.6,0.1,1c0.9,0.8,0,2.1,0.9,2.9
	c0,1.3,0,2.6,0,3.8c0.7,2.9,0.7,5.8,0,8.6c0,3.5-0.9,7-1.5,10.4C50.4,285.2,47.7,288.7,44.9,292.2z"/>
<path fill="#A0A0A0" d="M39.2,286.5c2.1-1.2,2.7-1,2.8,0.9c0.1,2.6,0.1,5.1,0.1,7.7c-0.7-0.1-1.4,0-1.6,0.6
	c-0.5,1.3-0.8,2.7-1.1,4.1c-0.4,2-0.6,4.1-0.9,6.1c-0.2,1.8-0.2,1.9,2.3,1.9c0.8,0,1.1,0.4,1.2,1.1c0,0.3,0,0.7-0.1,0.9
	c-1.8,3.9-2.1,8.3-3.5,12.3c-0.4,1.2-0.8,2.4-1.3,3.6c-0.4,1-1.1,1-2.6,0c0-2.1,1.1-4,1.7-6c1.2-4.6,0.5-9.2,0-13.8
	c0-0.2-0.4-0.3-0.7-0.4c-0.1,0-0.3,0.1-0.3,0.3c-0.9,1.6-0.5,3.4-0.7,5.2c-0.1,1.1,0.1,2.3-1.2,2.9c-0.8,0.3-1.6-1-1.6-3
	c0-1.6,0.4-3.2,0.9-4.7c0.7-2.1,1-4.4,1-6.6c0-2.1,0.2-4.1,0.6-6.2c0.2-0.9,0.1-1.9,0-2.8c0-0.2-0.4-0.6-0.6-0.6
	c-0.2,0-0.7,0.3-0.7,0.5c-0.1,1.3-0.2,2.5-0.3,3.8c0,1.6-0.1,3.2-0.9,4.6c-2.9-4-1.4-8.3-0.9-12.5c0.1-1.1,1.6-1.5,2.7-1.3
	c2.2,0.3,3.1,1.8,3.4,3.9C37.3,287.9,37.7,286.7,39.2,286.5z"/>
<path fill="#BDBDBD" d="M43,316.2c-1,4.1-2.1,8.3-3.1,12.4c-0.4,1.4-0.8,2.7-1.7,3.9c0.5-3.8,1.1-7.5,1.6-11.3
	C40.2,319.2,41.1,317.3,43,316.2z"/>
<path fill="#ADADAD" d="M52.6,270.1c0-2.9,0-5.8,0-8.6C54,264.4,54,267.3,52.6,270.1z"/>
<path fill="#A0A0A0" d="M42.1,295.1c0.6,0,1.3,0,1.9,0c0,0.3,0,0.6-0.2,0.9c-0.2,0.3-0.5,0.6-0.8,0.9c-0.3-0.3-0.6-0.6-0.8-0.9
	C42.1,295.7,42.1,295.4,42.1,295.1z"/>
<path fill="#A0A0A0" d="M44,295.1c0-1.1,0.3-2,1-2.9C44.9,293.3,44.6,294.3,44,295.1z"/>
<path fill="#ADADAD" d="M52.6,257.7c-0.6-0.9-0.9-1.8-0.9-2.9C52.3,255.7,52.6,256.6,52.6,257.7z"/>
<path fill="#595959" d="M18,357.5L18,357.5c0.7-0.8,0.6-1.8,0.5-2.7c-0.1-1.3,0.8-3.3-0.7-3.9c-1.9-0.7-3,1.1-3.7,2.7
	c-0.2,0.5-0.3,1-0.4,1.5c-0.5,1.3-0.7,2.6-1,4c-0.1,0.4-0.3,0.9-0.3,1.3c-0.2,0.9-0.3,1.9-0.4,2.8c-1.8,10.2-3,20.5-5.7,30.5
	c-0.7,1.3,0.7,2.9-0.6,4.1l0,0c-1.1,0.6-1.4,1.3-1,2c1.8,0.6,3.6,1,5.4,1.4c0.6-0.3,1-0.7,1.2-1.5c0,0,0,0,0,0c-0.6-1-0.6-2,0-3
	c0-0.3,0.1-0.6,0.1-0.9c0.8-1.2-0.1-2.8,0.8-3.9c0-0.3,0-0.5,0.1-0.8c1.4-4.8,2.3-9.6,2.8-14.5c-0.2-3.5,0.4-7,1.1-10.4
	c1-1.5-0.3-3.4,0.9-4.8l0,0C18.1,360.2,17.1,358.6,18,357.5z"/>
<path fill="#878787" d="M5.6,397.8c-0.9,0.3-1.5,0.9-1.9,1.7c0.5,0.2,1.1,0.4,1.6,0.5C5.2,399.3,5.3,398.6,5.6,397.8z"/>
<path fill="#C2C2C2" d="M72.8,210.6c-1.5,1.8-1.7,4.1-2.2,6.3c-0.2,1.1-0.5,2.3-1.9,2.4c-1.1,0.1-2.1-1-2.4-2.6
	c-0.5-3.7-0.4-7.3,0.7-10.9c-0.4-0.7-0.7-1.4-1.2-2.1c-0.4-0.7-1.2-0.7-1.5-0.1c-0.8,2.2-2,4.4-2.2,6.8c-0.1,0.6-0.2,1.3-0.4,1.9
	c-0.1,0.2-0.5,0.4-0.7,0.4c-0.2,0-0.5-0.4-0.6-0.6c-0.1-0.9-0.2-1.9-0.2-2.9c0.1-5.3-0.4-10.5,0.7-15.8c0.1-0.6,0-1.3-0.2-1.9
	c-0.1-0.2-0.4-0.5-0.6-0.6c-0.2,0-0.6,0.2-0.7,0.4c-1,2.2-2.1,4.3-2.1,6.8c-0.1,3.7-1.4,7.2-2.3,10.8c-0.1,0.4-0.4,1-0.9,0.8
	c-0.3-0.1-0.4-0.8-0.6-1.2c-0.1-0.3-0.1-0.6-0.1-1c0-0.3,0-0.6,0-0.9c1.4-4.6,2.1-9.2,1.8-14c-0.1-1.1-0.5-2.2-0.9-3.2
	c-1.5-3.9-1.4-7.7,0-11.6c0.5,0,1.2-0.3,1.1-0.7c-0.9-5.3,4.5-6.9,6.4-10.5c1.1-2.1,3.9-1.4,4.9,0.9c0.5,1.2,0.5,2.5,0.5,3.8
	c0.2,3.8-1,7.9,2.9,10.9c1.4,1.1,1.1,3.6,0.9,5.5c-0.5,5.5,0.5,10.7,3.4,15.4c0.1,1-0.1,1.9-0.8,2.6c0,0.6,0,1.3-0.1,1.9
	c0.2,0.2,0.3,0.4,0.2,0.6c-0.1,0.2-0.2,0.3-0.3,0.3c-0.1,0.3-0.1,0.5-0.1,0.8C73.4,209.9,73.4,210.5,72.8,210.6z"/>
<path fill="#3F3F3F" d="M75.6,193.3c1.7-2.2,1.4-5.1,2.5-7.6c0.6,1,0.5,2,0.4,2.9c-0.9,5-0.3,10.1-2.3,14.9c-0.4,1-0.3,2.2-0.5,3.3
	c-0.3-0.3-0.6-0.6-1-1c-0.9-1.3-0.2-3-1.2-4.3c-0.1-0.5-0.2-1-0.3-1.5c-0.8-2.5-0.5-4.7,1.7-6.4C75.1,193.5,75.4,193.4,75.6,193.3z"
	/>
<path fill="#6B6B6B" d="M74.6,200.9c0,1.6,0.1,3.3,0.1,4.9c-0.3,0-0.6,0-0.9,0c-0.1-1-0.1-1.9-0.2-2.9
	C73,201.9,73.2,201.1,74.6,200.9z"/>
<path fill="#6B6B6B" d="M72.8,210.6c0.3-0.4,0.5-0.8,0.8-1.1c0.1,1.4,0,2.8-0.9,4C72.8,212.6,72.8,211.6,72.8,210.6z"/>
<path fill="#6B6B6B" d="M71.9,216.4c0.2-0.7,0.5-1.4,0.7-2.1C72.4,215,72.2,215.7,71.9,216.4z"/>
<path fill="#6B6B6B" d="M73.7,208.7c0-0.3,0-0.6,0-1C73.8,208.1,73.8,208.4,73.7,208.7z"/>
<path fill="#D5D5D5" d="M74.6,200.9c-0.3,0.7-0.6,1.4-0.9,2.1c-0.4,0.7-0.7,1.4-1.1,2.1c-0.1,0.2-0.5,0.2-0.8,0.3
	c-0.1,0-0.3-0.2-0.3-0.4c0-0.6,0-1.3,0.1-1.9c0.1-1.2-0.1-2.2-1.5-2.5c-1.9-0.4-2.1-1.9-1.7-3.3c0.9-3.6,0.6-7.3,0.6-10.9
	c0-0.8,0-1.6-0.2-2.4c-0.2-0.7-0.7-1.1-1.4-0.5c-0.5,0.4-0.7,1.2-1.4,1c-0.7-0.2-0.9-0.8-1.1-1.4c-0.6-1.7-0.5-3.4-0.1-5.2
	c0.6-3,0.6-6,0.3-9c-0.1-0.5-0.3-1-0.9-0.9c-0.2,0-0.5,0.4-0.6,0.7c-0.4,1.8-0.6,3.8-1.5,5.5c-0.6,1.2-1.2,1.3-2.6,0.3
	c-1.4-1-1.7-0.9-1.8,0.5c-0.3,2.7-1.3,5.2-2.1,8c-1.2-0.6-0.7-1.7-0.8-2.4c-0.1-0.8,0-1.6,0-2.4c0.3-3.5,0.7-7,1-10.5
	c1.1-1.7,1-3.7,1-5.6c0-3,0-6.1,0.7-9.1c0.1-0.6,0.2-1.3,0.2-1.9c0.1-5.1,0.1-10.2,0.8-15.3c0.9-7.1,1.6-14.2,2.5-21.4
	c0.1-0.5,0.3-1,1-0.8c0.2,0.1,0.5,0.5,0.5,0.7c0.1,1.6,0.2,3.2,0.3,4.8c0.1,0.6,0.4,1.3,1.1,1.3c0.7,0,1.2-0.5,1.4-1.1
	c0.4-1.4,0.8-2.7,1.1-4.2c0.4-2.5,0.6-5.1,1-7.6c0.5-3.5,1.2-6.9,1.1-10.5c0-1.6,0.2-3.2,1.1-4.6c0.1-0.2,0.5-0.4,0.8-0.3
	c0.2,0,0.6,0.3,0.6,0.6c0.1,1.3,0.2,2.5,0.3,3.8c-1,1.6-0.9,3.4-0.9,5.1c0,2.9,0,5.8,0,8.6c0,3.2,0,6.4-0.7,9.5
	c-0.3,1.4-0.4,2.9,0,4.3c0.1,0.3,0.3,0.6,0.5,0.7c0.6,0.2,0.9-0.3,0.9-0.8c0.4-2.8,0.8-5.7,1.3-8.5c0.1-0.4,0.4-1.1,0.7-1.1
	c0.9-0.1,1,0.7,1,1.3c0.1,2.6,0.1,5.1,0.1,7.7c0,3,0,6.1,0.1,9.1c0,0.6,0.2,1.2,0.5,1.8c0.1,0.2,0.5,0.4,0.8,0.5
	c0.3,0,0.6-0.2,0.8-0.4c0.8-0.9,0.7-2.1,0.8-3.2c0.1-1.6,0.2-3.2,0.3-4.8c0-0.2,0.5-0.5,0.7-0.4c0.2,0,0.6,0.3,0.6,0.6
	c0.1,1.1,0.3,2.2,0.3,3.3c0,6.4,0,12.8,0,19.2c0,1.1,0.1,2.3-0.2,3.3c-1,4.7-0.8,9.5-0.7,14.3c0.2,6.4-0.8,12.7-1.5,19.1
	c-0.3,2.5-0.7,5.1-0.5,7.6l0,0c-1.2,2.1,0.3,4.6-0.9,6.8C74.6,200.3,74.6,200.6,74.6,200.9z"/>
<path fill="#878787" d="M5.6,396.9c1-0.6,1.9-1.3,2.9-1.9c-0.1,1.8-1.1,2.7-2.9,2.9C5.6,397.5,5.6,397.2,5.6,396.9z"/>
<path fill="#7C7C7C" d="M51.7,188.5c-1.5,2.9-0.9,6.3-1.7,9.4c-0.5,2-0.6,4.1-0.9,6.2c-0.3,2.2-0.3,4.5,0.3,6.7
	c0.6,2.2,0.2,4.4-0.3,6.6c-2.3,9.6-4.1,19.4-5.1,29.2c-0.6,5.9-0.6,11.8-0.9,17.7c-0.1,2.9-0.6,5.7-1.2,8.5
	c-0.8,3.9-1.7,7.8-2.6,11.7c-0.7,0.8-0.2,1.9-0.7,2.7c-1,1.6-1.9,2-3-0.1c-1.5-3.1-0.9-6,0-9c2.4-7.9,3.7-15.9,3.9-24.1
	c0-1.1,0.5-2.5-1.2-3.1c-0.2-7.2,1-14.2,1.5-21.4c0.2-2.5,0.3-5.1,0.4-7.6c0.1-2.9,0.2-5.7,1-8.5c0.3,0,0.5,0,0.8,0
	c0.2,1.2-0.6,2.5,0.3,3.9c1.6-1.7,1.6-3.8,2.2-5.6c0.6-2,1-4,1.5-5.9c0.9-0.8,0.1-2.1,1-2.9l0,0c1-1.1-0.1-2.7,1-3.8
	c0-0.3,0-0.6,0-1c0.8-0.8,0-2.1,0.9-2.9c0-0.6,0.1-1.3,0.1-1.9c1.1-1.8-0.3-4,0.9-5.8c0-0.3,0-0.6,0-0.9c0.6-0.6,1.2-0.6,1.9,0
	C51.7,187.3,51.7,187.9,51.7,188.5z"/>
<path fill="#8A8A8A" d="M38.2,251c1.1-1.4,0.9-3.4,1.7-4.9c0.2-0.4,0.6-0.8,1.1-0.5c0.2,0.1,0.3,0.5,0.3,0.8
	c-0.1,4.6-0.2,9.2-0.3,13.8c0,2.9-0.3,5.7-1.2,8.4c-1,3-1.8,6.1-2.8,9.1c-0.9,2.8-1,5.6-0.6,8.5c0,0.2,0.4,0.6,0.6,0.6
	c0.2,0.1,0.6-0.1,0.8-0.3c0.5-0.6,0.9-1.3,1.3-2c0,0.7,0,1.3,0,2c-0.4,1.7-0.7,3.4-1.2,5.1c-0.4,1.5-1.1,3-1.7,4.4
	c-0.1,0.2-0.5,0.5-0.7,0.5c-0.6,0-0.7-0.6-0.7-1c0.1-0.8,0.2-1.6,0.3-2.4c0.1-1,0.1-1.9,0-2.9c-0.1-2-1.1-3.4-2.2-3.1
	c-1.6,0.5-1.4,1.9-1.5,3.2c-0.1,2.9,0,5.7,0,8.6c0,0.3,0,0.6,0,0.9c-0.9,0.8-0.1,2.1-0.9,2.9c-0.3,1.6-0.7,3.2-1,4.8
	c-1.5,1.7-0.6,4.6-2.8,5.9c-0.5,0.1-0.9,0-1.2-0.3c-0.1-2.6,0.4-5.1,1.1-7.6c1.5-6.1,1-12.5,2.6-18.7c2.5-9.3,5.4-18.5,7-28
	c0.3-1.7,0.1-3.5,1-5.1C37.6,252.9,37.9,251.9,38.2,251z"/>
<path fill="#686868" d="M37.3,253.8c-0.5,8.6-1.5,17.1-3.6,25.5c-0.3,1.2-0.8,2.4-1.5,3.5c-1.7,2.6-2.1,5.6-3.3,8.4
	c-0.5,1.2-0.3,2.8-0.4,4.2c-0.2,3.5-0.6,7-1.9,10.2c-0.5-5.3,0.6-10.4,1.1-15.6c0.7-7.3,1.9-14.5,4.6-21.3c1.5-4,3-8,3.8-12.2
	C36.4,255.5,36.9,254.7,37.3,253.8z"/>
<path fill="#8A8A8A" d="M16.2,355.6c-0.3-5,0.8-9.9,1.6-14.7c0.5-3.4,0.8-7,2.3-10.2c0.1,1.2,0.2,2.5,0.3,4.1
	c1.2-0.9,1.3-1.9,1.4-2.9c0.3-2.8,0.9-5.5,2-8.1c0.2,0.2,0.4,0.3,0.5,0.5c0,1.2,0.4,2.4-0.4,3.5c-1.7,8.8-4.1,17.6-4.8,26.6
	c-0.1,1.1-0.4,2.2-1,3.1c0-1.5,0-3,0-5.6C17.1,353.7,16.6,354.7,16.2,355.6z"/>
<path fill="#8A8A8A" d="M24.8,322c0,0.6-0.1,1.2-0.1,1.9c-0.1,0.5-0.4,0.6-0.7,0.2c0,0-0.3-0.3-0.3-0.3c0.1-3.6,0.8-7.1,1.9-10.5
	c0,0,0.3,0.2,0.3,0.2c2,1.9,2,3.8-0.2,5.6l0,0C24.9,319.9,25.7,321.2,24.8,322z"/>
<path fill="#8D8D8D" d="M51.7,186.6c-0.6,0-1.2,0-1.9,0c0.4-2,0.8-4,1.3-6.1c0.1-0.5,0.4-1,0.9-0.8c0.3,0.1,0.5,0.8,0.5,1.2
	C52.3,182.9,52,184.7,51.7,186.6z"/>
<path fill="#8D8D8D" d="M49.7,187.6c0,2,0.2,4-0.9,5.8C48.8,191.4,48.6,189.4,49.7,187.6z"/>
<path fill="#8D8D8D" d="M47.8,199.1c0,1.4-0.1,2.7-1,3.8C46.9,201.6,47,200.3,47.8,199.1z"/>
<path fill="#8D8D8D" d="M48.8,195.2c0,1.1-0.3,2-0.9,2.9C47.9,197.1,48.1,196.1,48.8,195.2z"/>
<path fill="#8D8D8D" d="M46.9,203c0,1.1-0.3,2-1,2.9C45.9,204.8,46.2,203.8,46.9,203z"/>
<path fill="#A9A9A9" d="M52.6,120.4c0,2,0.2,4-0.9,5.8C51.7,124.2,51.5,122.2,52.6,120.4z"/>
<path fill="#A9A9A9" d="M51.6,126.1c0,1.9-0.6,3.5-1.9,4.8C49.8,129.1,50.4,127.5,51.6,126.1z"/>
<path fill="#A9A9A9" d="M49.7,130.9c0,1.4-0.1,2.7-0.9,3.8C48.8,133.4,49,132.1,49.7,130.9z"/>
<path fill="#AAAAAA" d="M25.7,319.1c0.1-1.9,0.1-3.8,0.2-5.6c1.1-2,1.5-4.5,3.7-5.9c0,4.1,0,8.3,0,12.4c0,1.3-0.1,2.5-0.2,3.8
	c-0.1,0.8-0.3,1.6-1.2,1.9c-0.6,0.2-1.3-0.7-1.4-2C26.6,322.1,26.6,320.5,25.7,319.1z"/>
<path fill="#ACACAC" d="M12.3,391.1c0.4-4.9,1.2-9.8,2.8-14.5C15.6,381.7,14.7,386.6,12.3,391.1z"/>
<path fill="#8A8A8A" d="M16.2,366.2c-0.1-1.7-0.2-3.4,0.9-4.8C17.2,363,17.1,364.7,16.2,366.2z"/>
<path fill="#8A8A8A" d="M17.1,361.4c-0.1-1.4,0.1-2.7,0.9-3.9C18.1,358.9,17.9,360.2,17.1,361.4z"/>
<path fill="#ACACAC" d="M11.4,395.9c-0.1-1.4,0.1-2.7,0.8-3.9C12.3,393.3,12.2,394.7,11.4,395.9z"/>
<path fill="#AAAAAA" d="M24,324.1c0.2-0.1,0.5-0.2,0.7-0.2c0.1,1.4-0.1,2.7-0.9,3.9C23.9,326.5,24,325.3,24,324.1z"/>
<path fill="#A0A0A0" d="M30.6,302.8c0-1.1,0.3-2,0.9-2.9C31.5,301,31.2,301.9,30.6,302.8z"/>
<path fill="#AAAAAA" d="M24.8,322c0-1.1,0.3-2,0.9-2.9C25.7,320.1,25.4,321.1,24.8,322z"/>
<path fill="#ACACAC" d="M11.3,396.8c-0.7,1-0.9,2,0,3C11.3,398.8,11.3,397.8,11.3,396.8z"/>
<path fill="#9C9C9C" d="M58.4,210.6c1.2,1.9,0.8,4,1,6.1c0.1,1,0.2,2,1.3,2.4c0.8,0.3,1.9-0.7,2.2-2.1c0.2-1.1,0.2-2.2,0.3-3.3
	c0.1-0.6,0.1-1.4,0.9-1.3c0.7,0.1,0.8,0.9,0.8,1.5c0.2,3,0.5,6.1-1.6,8.7c-0.6,0.8-0.6,1.8-0.7,2.7c0,0.6-0.1,1.4-0.4,1.8
	c-2.8,3.1-2.5,7.1-2.9,10.8c-0.5,5.1-0.8,10.2-1.8,15.2c-0.2,0.9-0.3,1.9-1.4,2.3c-0.7,0.2-1.5-0.9-1.5-2.6c0-4.1-0.4-8.3,0.4-12.4
	c0.2-0.9,0.7-2.1-0.3-2.6c-1.1-0.5-1.4,1-2,1.6c-0.4-4.8,0.5-9.5,1.8-14.1c0.4-1.5,0.8-3.1,1.9-4.3c1.8-2.1,2.2-4.5,2.1-7.1
	C58.4,212.8,58.4,211.7,58.4,210.6z"/>
<path fill="#A0A0A0" d="M41.4,279.4c0.1,0,0.3,0,0.4,0.1c0.1,0.1,0.1,0.3,0.1,0.4c-0.2,0.4-0.4,0.4-0.6-0.1
	C41.3,279.7,41.4,279.5,41.4,279.4z"/>
<path fill="#D5D5D5" d="M67,205.8c0-0.2,0.1-0.3,0.1-0.5C67.1,205.5,67.1,205.7,67,205.8L67,205.8z"/>
<path fill="#6B6B6B" d="M74.7,200.1c-0.2-2.3-0.1-4.6,0.9-6.8C75.8,195.6,76,197.9,74.7,200.1z"/>
</svg>
