<?xml version="1.0" encoding="utf-8"?>
<!-- Generator: Adobe Illustrator 18.1.1, SVG Export Plug-In . SVG Version: 6.00 Build 0)  -->
<svg version="1.1" id="Layer_1" xmlns="http://www.w3.org/2000/svg" xmlns:xlink="http://www.w3.org/1999/xlink" x="0px" y="0px"
	 viewBox="0 0 218 180.3" enable-background="new 0 0 218 180.3" xml:space="preserve">
<path fill="#6D6D6D" d="M45,27c4.1-2.9,8.3-5.8,12.4-8.7c4.3,0.2,7.9-1.6,11.5-3.5c1-0.5,2-1,3.1-1.2c1.7-0.2,3.2,0.4,4,2
	c0.9,1.8-0.1,2.8-1.4,4c-3,2.5-7.1,3.7-9,7.5c-3.8,2.6-8.4,4.2-11,8.5c-9.3,8.4-17.1,18.1-23.3,29c-0.3,0.6-0.7,1.1-1.1,1.7
	c-0.2,0.4-0.4,0.8-0.7,1.1c-0.4,0.5-0.9,1-1.5,1.3c-0.5,0.1-0.9,0.1-1.4-0.1c-0.4-0.2-0.8-0.5-1.1-0.8c-0.5-0.6-0.6-1.4-1.3-2.4
	c-3.3,7.6-7.2,14.7-8.3,22.9C15,95,11.3,100.7,9,106.8c-0.5,1.3-1.4,2.6-3.3,1.7c0.7-5.9,1.7-11.7,3.5-17.3
	c1.9-6.2,4.1-12.4,6.2-18.6c1.3-3.8,2.6-7.6,4.4-11.1c3.6-7.1,7.3-14.2,12.4-20.4c3-3.7,6-7.5,9-11.2c0.9-0.7,2-1.1,2.8-2l0,0
	C44.4,27.7,44.7,27.3,45,27z"/>
<path fill="#888888" d="M64.3,26.1c-0.7-0.3-1.1-1-0.4-1.5c1.3-1,2.6-1.8,4-2.5c2.3-1.2,4.4-2.5,6.4-4.2c0.3-0.2,0.4-0.9,0.3-1.3
	c-0.1-0.3-0.7-0.7-1.1-0.7c-1-0.2-1.9,0.3-2.7,0.7c-1.7,0.8-3.5,1.7-5.2,2.5c-2.3,1.2-4.5,1.4-6.8-0.2c-0.4-0.3-0.9-0.4-1.3-0.6
	c3.8-2.9,8.3-4.6,12.5-6.7c7.8-2.9,11-2.2,15.9,3.5c0.3,1.9-1.1,2.4-2.4,3c-5.6,2.3-10.8,5.4-16.1,8.3c-0.6,0.4-1.3,0.5-2,0.4
	C64.9,26.7,64.5,26.5,64.3,26.1z"/>
<path fill="#CFCFCF" d="M102,5.9c-3.1-1.2-6.5-1.4-9.7-2.5c-1.3,0-2.6,0.1-4,0.4c-1.3,0.8-2.7,1.4-4.1,2c-2.8,1.2-5.8,1.4-8.4,2.9
	c0.4,1.8,1.9,2,3.3,2.3c4.5,0.8,9,1.7,13.4,3c3.6-0.7,7-2,10.5-3.1C105.7,7.9,105.6,7.3,102,5.9z"/>
<path fill="#B0B0B0" d="M75.8,8.8c0.6,0.1,1.3,0.1,1.8,0.5c1.8,1.1,3.6,1.2,5.5,0.4c2.1-0.9,4-0.6,5.7,1.1c0.9,0.9,2,1.5,3.3,1.9
	c-0.9,4.3-3.9,3.4-6.8,2.8c-1.5-0.1-2.9-0.4-3.8-1.6c-1.2-1.5-2.8-1.5-4.6-1.9c-2.4-0.6-4.6-0.6-7-0.3C71.6,10,73.9,9.7,75.8,8.8z"
	/>
<path fill="#B7B7B7" d="M44,27.9c-0.6,1.2-1.6,1.8-2.8,2C41.8,28.7,42.8,28.1,44,27.9z"/>
<path fill="#B7B7B7" d="M45,27c-0.3,0.3-0.7,0.6-1,0.9C44.4,27.6,44.7,27.3,45,27z"/>
<path fill="#585858" d="M85.4,15.5c2.2-1.1,4.9-1.1,6.8-2.8c3.5-1,7-2,10.5-3.1c2.8-0.8,5.2-3.9,8.6-1.8l0,0
	c0.5,0.5,1.1,0.5,1.7,0.8c1.5,0.3,3,0,4.4,0.6c0.4,0.1,0.9,0.2,1.3,0.4c2,0.8,4.2,0.3,6.2,1.1c0.3,0,0.6,0,0.8,0.1
	c1,0.9,2.5,0.1,3.4,1c1.4,1.9,0.3,2.7-1.4,3.2c-2.7,1.1-5.2-0.3-7.7-0.8C106,11.2,93.6,14.7,82.3,23c-0.2,0.2-0.6,0.2-0.9,0.4
	c-5.7,1.7-10,5.8-15.3,8.2c-3.6,0.8-6.6,2.5-8.7,5.7c-1,1.5-2.7,2.8-4.8,1.6c-1.5-1.9,0.7-2.8,1-4.3c2.2-3,4.8-5.4,8.2-7
	c0.8-0.4,1.6-1,2.4-1.6c0.3,0,0.6-0.1,0.9-0.1c0.3-0.3,0.7-0.6,1-0.9C72.6,21.9,79,18.7,85.4,15.5z"/>
<path fill="#B3B3B3" d="M106.2,5.3c-2.7-0.5-5.4-1.1-8.1-1.6c-2.4-0.1-4.7-0.3-7-0.2c0.2,1.1,1.2,1.3,2.1,1.3
	c3.4,0.2,6.2,1.8,9.3,2.9c1.1,0.4,0.6,1.2,0.1,1.8c1.4,0.2,2.8-0.1,4.1-0.8c1.4-0.8,3-0.9,4.5-1C109.6,6.9,108,5.6,106.2,5.3z"/>
<path fill="#6E6E6E" d="M130.6,11.5c0.6,0,1.2,0.1,1.8,0.1c1,1.4,4.1-0.9,4,2.4c-3.6,3-4.7,2.7-6.2-1.7
	C130.3,12,130.5,11.7,130.6,11.5z"/>
<path fill="#6E6E6E" d="M124.9,10.6c-2.3,0.1-4.7,0.4-6.8-0.9c0.9-0.7,1.9-0.6,2.9-0.1C122.2,9.8,123.6,9.9,124.9,10.6z"/>
<path fill="#6E6E6E" d="M128.6,11.7c-1.1-0.1-2.1-0.4-2.9-1.1c1.7-0.2,3.4,0,4.9,0.8l-0.2,0.3C129.8,12.2,129.2,12.2,128.6,11.7z"/>
<path fill="#3E3E3E" d="M26.8,166.2c-0.3-0.7-0.7-1.4-0.9-2.2c-1.5-8-3.6-15.8-4-24c-0.1-1.1-0.4-2.2-0.5-3.3
	c-0.5-3.9-1.8-7.8-0.7-11.8c-0.9-5.3,0.8-10.4,0.5-15.7c-0.1-1.6,0.3-3.2,0.5-4.7c0.1-1.4,0.3-2.8,0.4-4.3c0.1-1.6,0-3.1-0.2-4.7
	c-1.5,3.6-1,7.7-2.6,11.3c0-1,0-2,0-2.9c0.6-7,1.7-13.9,4-20.5c1.7-4.9,3.1-10,4.7-15l0,0c0.6-0.5,0.4-1.4,0.9-1.9
	c0-0.3,0.1-0.6,0.1-0.9c0.3-0.3,0.6-0.7,0.9-1c2.5-4,5-8.1,7.6-12.1c4.4-6.9,10.4-12.3,16.4-17.7c0.5,1.5-0.8,2.5-1,3.9
	c0.1,0.9,0.2,1.7-0.2,2.5c-0.4,0.9-1,1.8-1.7,2.6c-0.3,0.3-0.6,0.6-0.9,0.8c-0.3,0.2-0.6,0.5-1,0.7c-0.2,0.1-0.3,0.2-0.5,0.3
	c-0.3,0.2-0.7,0.4-1,0.6c-0.2,0.1-0.3,0.2-0.5,0.3c-0.3,0.3-0.6,0.6-0.9,0.8c-0.1,0.2-0.3,0.3-0.4,0.5C37.7,58.8,31.6,71,26.7,83.8
	c0.8-3.6,5.2-3.7,6.7-7.1c1.3-2.9,3.1-5.6,5.5-7.8c1.6-1.5,3.3-2.7,5.5-1.2c0.4,0.3,0.7,0.7,0.9,1.2c0.4,1,0.5,2,0.1,2.9
	c-0.2,0.4-0.5,0.8-0.8,1.2c-1.2,2.4-3,4.5-4.1,7c-0.3,0.7-0.8,1.5-0.8,2.2c-0.2,6.6,0.5,13.1-1.1,19.7c-0.4,1.8,1.1,4.3,3.5,4.6
	c7.1,0.7,6.5,7.2,9,11.5c0.3,0.5,0.2,1.3,0.2,1.9c-0.1,4.2,2.1,7,5.7,8.6c2.5,1.1,7.8-1.6,9.6-4.9c1.3-2.4,2.9-3.9,5.7-3
	c2.6,0.9,3.5-0.7,4.4-2.4c1.4-2.9,2.8-5.7,4.8-8.2c1.2-1.5,2.3-3,4.3-1.6c1.8,1.2,1.5,2.9,0.6,4.6c-1.2,2.1-1.6,4.1-0.2,6.3
	c0.4,1.1,0.3,2.5-0.3,3.2c-4.5,5.1-5.7,12.1-10,17.2c-2.3,2.7-4.3,5.4-8.1,6.2c-2.6,0.6-4.2,2.8-5.1,5.3c-1,2.8-2.5,4.8-7.3,4.8
	c7.5,4.4,4.5,9.4,3.3,14.2c-2,3-3.9,6.2-6.7,8.6c-1.7-0.8-1.4-2.4-1.5-3.7c-0.1-1.9-0.9-3.4-2.3-4.5c-1.3-1-2.6-2.3-4.2-1.7
	c-1.7,0.6-1,2.5-1.3,3.8c-0.4,1.7,0.3,4-2,4.9c-2.3,0.9-3.6-0.4-4.5-2.3c-0.5-1.1-1-3.4-1.9-3.1C28.1,174.2,28.9,168.5,26.8,166.2z"
	/>
<path fill="#6D6D6D" d="M66.2,25.1c-0.3,0.3-0.7,0.6-1,0.9C65.5,25.7,65.8,25.4,66.2,25.1z"/>
<path fill="#4C4C4C" d="M199.9,40.6c0.3-0.1,0.6-0.2,0.9-0.4C200.6,40.4,200.2,40.5,199.9,40.6z"/>
<path fill="#4C4C4C" d="M178.2,47.3c-3,0.7-6,1.3-8.5,3c2.1-0.9,4.2-1.6,6.4-2.3C176.8,47.8,177.5,47.6,178.2,47.3z"/>
<path fill="#4C4C4C" d="M172.1,35.4c0.2-0.1,0.5-0.1,0.7-0.2c-1.3,0.2-2.7,0.3-4.2,0.2C169.3,35.8,170.4,35.8,172.1,35.4z"/>
<path fill="#4C4C4C" d="M165.7,45.9c-0.1,0.1-0.2,0.1-0.3,0.2c0.3-0.1,0.6-0.2,0.9-0.3C166.1,45.8,165.9,45.8,165.7,45.9z"/>
<path fill="#4C4C4C" d="M170.9,44.3c2.6-0.7,5.1-1.2,7.6-1.8C176,43.1,173.4,43.6,170.9,44.3z"/>
<path fill="#4C4C4C" d="M181.3,46.5c11.1-4.9,22.5-9.3,34.2-13c-1.9-0.3-3.8-0.5-5.7-0.7c-5.9-0.6-11.7-1.6-17.5-2.8
	c-7.2-1.5-14.3-3.2-21.5-4.9c-1.4-0.7-2.9-1-3.9,0.2c-1,1.1-0.3,2.4,0.5,3.5c0.7,0.9,0.9,1.8,0.7,3.1c-0.3,2-0.2,3.1,0.5,3.6
	c1.5,0.1,2.9,0,4.2-0.2c1-0.3,1.8-0.6,2.3-0.6c-0.7,0.2-1.5,0.4-2.3,0.6c-0.2,0.1-0.5,0.1-0.7,0.2c-1.7,0.4-2.8,0.4-3.4,0
	c-1-0.1-2-0.1-3-0.3c-3.4-0.5-7,0.3-10.2,1.8c-1.2,0.6-2.3,1.2-2.3,2.7c0,1.6,1.3,1.9,2.4,2.6c3.3,2.1,6.1-0.6,8.7-0.7
	c-2.3,1-4.9,2-1,4.9c0.5,0.1,0.9,0,1.3-0.1c0.3-0.1,0.6-0.2,0.8-0.3c0.1-0.1,0.2-0.1,0.3-0.2c0.2-0.1,0.4-0.1,0.6-0.1
	c1.5-0.5,3.1-1,4.6-1.4c2.6-0.8,5.1-1.3,7.6-1.8c2.4-0.5,4.6-1.1,6.7-1.8c-1.9,0.8-4.2,1.3-6.7,1.8c-2.4,0.6-5,1.1-7.6,1.8
	c-0.6,0.2-1.2,0.3-1.8,0.6c-0.4,0.2-0.8,0.3-1.2,0.4c-0.4,0.1-0.8,0.2-1.1,0.3c-0.2,0-0.4,0.1-0.5,0.1c-0.3,0.1-0.6,0.2-0.9,0.3
	c-0.4,0.2-0.7,0.4-1.1,0.5c-0.3,0.1-0.7,0.2-1,0.3c-0.3,0.2-0.6,0.3-0.9,0.5c-0.3,0.1-0.6,0.3-0.9,0.4c-0.5,0.2-0.9,0.4-1.4,0.7
	c-0.3,0.2-0.6,0.3-1,0.5c-0.3,0.2-0.7,0.3-1,0.4c-0.6,0.2-1.2,0.4-1.6,0.8c-0.5,0.5-0.8,1.1-0.8,1.8c0,0.5,0.2,0.9,0.4,1.3
	c0.5,0.6,1.1,0.9,1.8,1c3.2,0.5,5.9-1,8.6-2.4c1.1-0.6,2.2-1.1,3.3-1.5c2.5-1.7,5.5-2.3,8.5-3C179.3,47,180.3,46.7,181.3,46.5z"/>
<path fill="#5A5A5A" d="M164.1,45.2c-0.8-0.4-1.4-1-0.5-1.8c0.6-0.5,1.4-0.7,2.2-0.9c1.4-0.3,2.9-0.4,4-1.3c0.2-0.2,0.5-0.5,0.5-0.8
	c0-0.6-0.5-0.8-0.9-0.8c-3.3,0.3-6.6,0.6-10,1c-1.1,0.1-2.2,0.4-3.3,0c-0.4-0.2-0.9-0.5-1-0.9c-0.2-0.5,0.3-0.9,0.8-1
	c2.2-0.4,4.4-0.9,6.6-1.2c6-1,11.9-1.9,17.9-2.8c0.6-0.1,1.3-0.2,1.8-0.5c0.2-0.1,0.5-0.4,0.5-0.7c0-0.2-0.3-0.6-0.5-0.6
	c-0.8,0-1.6,0-2.4,0.1c-3,0.4-6,0.9-9,1.3c-0.4,0.1-1,0-1-0.6c0-0.2,0.3-0.6,0.6-0.7c1-0.4,2.1-0.7,3.1-1.2c1.1-0.5,1.2-1.7,0.2-2.1
	c-1.9-0.9-3.4-2.4-5-3.6c-0.4-0.3-0.1-0.9,0.4-1c0.6-0.2,1.3-0.2,1.9-0.3c-1-0.4-2-0.9-3.1-1.2c-2.9-0.7-5.7-1.9-8.5-3
	c-6.6-2.4-13.1-4.8-19.9-6.5c-0.6-0.5-1.5-0.2-2.1-0.7c-0.3,0-0.6-0.1-1-0.1c-2.4,0.8-4.6,1-5.9-1.8c-0.6,0-1.2,0-1.8-0.1
	c0.3,0.9,0,1.6-1,1.8c-6,3.3-12.3,5.7-19.1,6.1c-4.2,0.2-7.5,2.2-10.9,4.1c-2.1,1.2-2,3-0.1,4.6c0.4,0.3,0.8,0.5,1.3,0.6
	c0.9,0.2,1.8,0,2.7-0.5c0.4-0.2,0.7-0.4,1.1-0.6c0.8-0.3,1.6-0.3,2.4-0.3c0.8-0.1,1.5-0.4,2.2-0.7c0.4-0.1,0.7-0.2,1.1-0.3
	c0.5-0.2,1-0.3,1.6-0.5c0.5-0.1,1.1-0.2,1.6-0.3c0.7-0.1,1.5-0.1,2.1-0.5c0.3-0.2,0.6-0.3,1-0.5c0.5-0.1,1.1-0.3,1.6-0.4
	c0.7-0.1,1.5,0.1,2.2-0.1c0.8-0.2,1.4-0.7,2-1.1c0.3-0.2,0.7-0.3,1.1-0.4c0.9-0.3,1.8-0.6,2.8-0.8c0.6-0.1,1.2-0.2,1.8-0.3
	c0.6-0.1,1.2-0.3,1.8-0.4c0.8-0.2,1.7-0.4,2.5-0.6c6.3-1.4,12.3,0.7,18.2,1.6c-1.4,0.6-3.5,1.3-3.3,3.3c0.5,5.5-2.7,8-7.2,9.6
	c-1.5,0.5-2.4,1.6-2.3,3.2c0.1,1.8,1.4,2.3,3,2.4c0.4,0,0.9,0,1.3-0.1c2-1.1,4.5-0.5,6.2-1.3c-1.1,0.8-3,0.2-4.4,1.1
	c-0.3,0.3-0.6,0.7-0.8,1.1c-0.1,0.5-0.1,0.9-0.1,1.4c1.2,3.9,3.7,3.2,6.3,2.5c0.3-0.1,0.6-0.2,0.9-0.2c-0.3,0.1-0.6,0.1-0.9,0.2
	c-1.8,0.5-3.4,1.3-4.9,2.7c-1.2,1.1-3,1.5-2.3,3.6c0.7,1.9,2.6,1.6,4.1,1.5c6.3-0.4,12-2.6,17.6-5.4
	C162.7,47.4,164.7,47.4,164.1,45.2z"/>
<path fill="#5A5A5A" d="M147,45.6c0.3-0.1,0.6-0.2,0.9-0.2C147.7,45.4,147.3,45.5,147,45.6z"/>
<path fill="#6E6E6E" d="M139.3,14.4c-0.7-0.2-1.4-0.5-2.1-0.7c0.6,0,1.2,0,1.8,0C139.1,13.9,139.2,14.1,139.3,14.4z"/>
<path fill="#6E6E6E" d="M127.6,13.6c0.4,0.3,0.8,0.6,1.1,0.9c0.6,0.5,0.7,1.1,0,1.5c-0.5,0.3-1.2,0.5-1.8,0.6
	c-5.6,1.7-11.2,3.4-16.8,5c-1.1,0.3-2.2,0.5-3.3,0.6c-3,0.4-5.8,1.5-8.4,3c-1.1,0.6-0.4,1.3,0.4,1.7c0.5,2.3-1.5,2.8-2.9,3.4
	c-7.1,2.7-13.7,6.3-20.1,10.4c-1.3,0.8-2.6,2-4.4,1.2c-1.7,1.9,1.3-3.6-1.9-1c-6.9,5.7-13,12.6-21.3,16.5c-1.8,0.9-3.5,1.9-5.2,0.2
	c-1.7-1.6-1.3-3.6-0.2-5.3c1.4-2.2,0.8-5,2.3-7.2l0,0c0.3-0.3,0.6-0.7,0.9-1l0,0c0.3-0.3,0.6-0.6,1-1l0,0c0.3-0.3,0.6-0.6,1-1l0,0
	c1.2-0.7,2.1-1.7,2.9-2.8c0.6-0.4,1.2-0.7,1.8-1.1c2.6-1.6,4.4-3.9,6.6-6c1.7-1.7,3.5-3.1,6-3.5c1.7,5-1.2,8.1-4.8,10.6
	c16.5-10.2,34-18,51.4-23.1c-4,1.7-9.6,1.8-14.9,2.9c-4.4,0.9-8.2,3.5-12.8,3.4c-1.8,0-3.5,0.5-4.5-1.6c1.4-1.4,3.2-2.1,5-2.8
	c6.7-2.7,13.4-5.2,20.3-6.9c3.2-0.8,6.3-1,9.4-0.1C118.7,12.6,123.2,13,127.6,13.6z"/>
<path fill="#8C8C8C" d="M79.6,21.3c2.2-0.4,4.4-0.7,6.6-1.1c1.1-0.2,2.2-0.5,3.2-1.1c2-1.2,4.1-1.7,6.4-1.7c0.6,0,1.3-0.1,1.9-0.3
	c5.4-2.4,11.3-1.4,16.9-2.5c0.8-0.2,1.6,0,2.4,0c1.6,0,2.7,0.5,2.3,1.1c-0.5,0.8-1.4,0.7-2.1,0.9c-2.7,0.5-5.1,1.8-7.5,3.1
	c-1.1,0.6-2.2,1.3-3.5,1.6c-4.6,0.8-8.8,2.7-13.1,4.6c-2.9,1.3-5.9,2.4-8.8,3.7c-3.9,1.8-8,3.2-11.5,5.9c-1,0.8-2.2,1.4-3.4,1.7
	c-5.1,1.2-9.2,4.3-13,7.7c-0.1,0.1-0.2,0.2-0.4,0.3c-0.4,0.1-1,0.3-1.3,0.2c-0.5-0.3-0.3-0.9,0-1.2c0.8-1,1.7-1.9,2.6-2.8
	c1.3-1.4,2.7-2.7,4-4.1c0.6-0.6,1.2-1.3,0.5-2.1c-1-1.2-0.5-1.9,0.4-2.8c1-1,1.9-2.1,2.9-3.2c1.7-0.4,3.2-1.2,4.6-2.2
	C72.9,24.6,76.2,22.9,79.6,21.3z"/>
<path fill="#6E6E6E" d="M116.9,8.9c0.1,0.2,0.2,0.5,0.3,0.7c-1.7,0.1-3.5,0.2-5-0.9C113.8,8.8,115.4,8.8,116.9,8.9z"/>
<path fill="#2B2B2B" d="M58.5,170c0-2.2,0-4.5-0.2-6.7c-0.2-2.4-0.7-2.8-3.4-2.6c-1.4,0.1-2.1-0.7-1.9-2c0.4-2.1,0.4-4.1,0.1-6.2
	c-0.1-0.8,0.2-1.5,0.6-2.2c0.6-0.9,1.8-0.9,2.4-0.1c0.8,1.1,0.7,3.3,2.5,2.9c1.3-0.2,1.1-2.1,1.6-3.3c1.7-3.8,4-6.8,8.5-7.3
	c1.2-0.1,2.1-0.8,2.8-1.7c2.1-2.8,4.5-5.4,6-8.6c1.1-2.3,2.4-4.5,4.3-6.3c2.1-1.9,2.7-4.2,2.6-6.9c0-0.2,0-0.4-0.1-0.7
	c0-1.1,0.4-2.2,0.6-3.3c2.8-7.3,5.7-14.5,10.6-20.7c3.4-5,7.1-9.7,9.9-15c0.9-1.8,1.8-3.8,3.7-4.8c1.6-0.8,2.5-2.3,3.5-3.6
	c1.1-1.5,2.5-2.8,4.7-2.3c1.1,0.2,1.9,0.8,2.3,1.9c0.6,2.7-1.9,3.3-3.2,4.6C109.6,87.8,99.1,97.9,93,111c-2.2,4.7-4.5,9.4-3.9,14.9
	c-0.1,0.8-0.1,1.6-0.4,2.4c-1,3.5-2.4,6.9-2.8,10.6c-0.1,0.6-0.5,1.2-1.2,1.3c-0.6,0.1-1.2-0.8-1.3-1.7c-0.1-1.5,0.4-2.8,0.8-4.2
	c0.6-2.5,1.2-5,1.7-7.5c0.1-0.4-0.1-1.1-0.4-1.2c-0.8-0.3-1.1,0.4-1.4,1c-0.4,0.9-0.6,1.8-0.9,2.7c-1,3.2-2,6.4-2.9,9.6
	c-0.4,1.2-0.6,2.5-0.8,3.7c-0.6,4.5-2.5,8.2-6.3,10.9c-4.1,2.9-7.4,6.6-10.7,10.3C61,165.5,59.9,167.9,58.5,170z"/>
<path fill="#525252" d="M96.9,95.2c-0.5,1-0.9,2-1.4,3c-3.1,6-6.1,12.1-9.2,18.1c-0.7,0.9-1.2,2-1.9,2.9l0,0
	c-0.9,0.1-1.7-0.1-1.7-1.2c0-0.8,0.3-1.6,0.6-2.3c0.4-1,0.9-2,1.4-3.1c0.6-1.5,0.4-3-0.4-2.9c-1.2,0.1-1.5,1.1-1.9,1.9
	c-0.9,1.9-1.8,3.8-2.7,5.6c-1.1,2.1-2,4.4-3.3,6.3c-0.8,1.2-1.3,3.3-3.3,2.9c-1.5-0.3-0.9-2.2-1.5-3.3c-0.2-0.4-0.6-0.8-1-0.9
	c-0.3,0-0.9,0.3-1.1,0.6c-0.4,0.7-0.6,1.5-0.8,2.2c-0.6,1.8-1.7,3-3.6,3.6c-2.5,0.8-4.5,3-7.5,2.9c-0.6,0-1.2,0.9-1.9,1.4
	c-0.9,0.6-1.6,0.4-1.8-0.5c-0.2-0.6-0.2-1.3-0.4-1.9c-0.2-1.3-0.8-2.5-2.1-3c-2.2-0.8-2.6-2.6-2.6-4.6c0-1.3,0-2.6-0.1-3.8
	c0-1.1-0.3-2.3-1.1-3.1c-1.5-1.4-2.1-3.1-2.1-5.1c0-1.6-1.2-2-2.8-1.3c-0.4,0.2-0.8,0.6-1.2,0.7c-1.3,0.6-2.1,0.3-2.7-1
	c-0.9-2-1.7-4.1-3.1-5.9c-0.8-0.9-0.8-2-0.4-3.2c0.7-2,1.4-3.9,2.1-5.9c0.5-1.4,0.8-2.8,0.2-4.2c-2.6-5.8-0.1-10.5,3.1-15.1
	c0.7-1,1.6-2,2.4-3c2.7,0.1,5.1,1.2,4.7,4.1c-0.7,5.2,1,10.4-0.5,15.9c4.5,0.2,6.9,1.9,7.8,6.9c0.6,3.3,2,6.6,2.6,10.2
	c0.4,2.7,4.3,3.5,7,4.2c2.2,0.6,3.8-1.1,4.9-3.1c1.3-2.5,2.5-5.2,4.2-7.5c3.3-4.4,4.1-4.5,8.2,0c5-7.8,11.4-14.4,14-23.6
	c1-3.4,3.1-7.2,6.2-9.7c3.2-0.6,3.8,1.1,3.6,3.8c-0.4,5.2-2.1,9.7-5.1,14C99.1,89.7,96.7,91.8,96.9,95.2z"/>
<path fill="#616161" d="M102.7,70.3c-0.1,1.8-0.9,3.4-2.1,4.8c-1.8,2.2-3,4.5-2.9,7.4c0,1.6-0.7,3.2-1.8,4.4
	c-2.4,2.6-3.9,5.9-5.8,8.7c-2.1,3-4,6.2-6.7,8.7c-1.2,1.1-1.4,2.4-1.6,3.9c0,0.4-0.5,0.8-0.9,1c-0.6,0.3-1.3,0-1.7-0.5
	c-1.3-1.3-1.3-2.8-1-4.5c0.2-0.9,0.7-1.9-0.1-2.7c-0.5-0.5-1.6,0.3-2.4,1.9c-1.3,2.7-2.6,5.5-3.7,8.3c-1.3,3.6-4.4,4.3-7.4,5.3
	c-0.8,0.3-1.7-0.1-2.2-0.7c-1.5-1.9-3.3-2.7-5.9-2.3c-1.5,0.3-2.2-0.7-2.2-2.4c0-1.4,0.3-2.9,0.4-4.3c0.1-0.6,0.4-1.2,0.5-1.9
	c0.2-0.8,0.5-1.7-0.4-2.1c-0.7-0.3-1.1,0.4-1.6,0.8c-0.4,0.5-0.8,1-1.3,1.4c-0.2,0.2-0.6,0.3-0.9,0.2c-0.5-0.2-0.7-0.7-0.5-1.1
	c0.5-1.4,1.1-2.7,1.6-4c0.6-1.6,0.6-3.1-0.4-4.6c-1-1.5-2.9-1.8-4.2-0.7c-1,0.8-1.7,1.9-2.7,2.8c-0.3,0.3-0.9,0.4-1.3,0.2
	c-0.7-0.2-0.8-0.9-0.6-1.6c0.7-2.1,1.3-4.3,2.1-6.4c0.7-1.9,0.9-3.7-0.1-5.5c-0.7-1.3-0.9-2.8-0.1-4.1c1.6-2.8,1.1-5.2-1.1-7.4
	c-0.3-0.3-0.5-0.8-0.7-1.3c0-0.3,0-0.6,0-0.9c0.6-0.5,0.4-1.4,1-1.9l0,0c0.1-3.4,1.4-6.4,3.2-9.2c1-1.5,2.3-2.6,4.3-2.3
	c4.9,2.7,6,5.5,3.6,10.4c-1,2.1-1,4.3-1.9,6.4c-1.5,3.4-0.9,5.8,3.4,6.3c2.4,0.3,3.6,1.8,3.3,4c0.8-2.9,2.4-4.6,5.8-2.4
	c0.3,0.4,0.5,0.8,0.7,1.2c0.6,2.1-1.3,3.3-1.6,5.3c-0.6,5,2.2,7.6,6.9,6c1.6-0.6,2.7-0.4,3.8,0.8c0.2,0.3,0.4,0.6,0.5,1
	c0.1,0.2,0.1,0.4,0.2,0.5c0-0.1,0.1,0.1,0.1,0c0-0.1,0.2-0.1,0.2-0.2c0-0.1,0.2-0.2,0.2-0.3c0.2-0.3,0.4-0.5,0.6-0.8
	c3.6-5.5,7.1-11.1,10.1-16.9c3.2-6.3,8.4-8.6,14.8-9.2C102.3,70,102.5,70.1,102.7,70.3z"/>
<path fill="#525252" d="M51.8,58.7c-1.8,1.1-2.9,2.8-3.7,4.8c-0.9,2.2-2,4.3-4,5.8c-1-0.5-1.9-0.4-2.6,0.4c-1.1,1.1-2.2,2.3-3.2,3.6
	c-1.9,2.7-3.6,5.7-5,8.7c-0.9,1.9-1,1.9-3.3,1.7c-2.1-0.2-2.5,0-3.1,2c-0.3,1.1-0.5,2.2-0.9,3.2c-0.3,0.8,0,2.4-1.4,2
	c-0.9-0.3-0.7-1.7-0.5-2.6c0.4-1.7,1.1-3.3,1.6-5c1.2-4,2.3-8,3.5-12c0.6-2,1.3-3.9,2.4-5.7c3.4-5.6,6.8-11.1,10.2-16.7
	c0.8-1.4,1.8-2.6,3.2-3.5c0.3,0.6,0.5,1.2,0.9,1.7c1.4,1.6,1.5,3.1,0,4.7c-0.5,0.6-0.9,1.3-1.3,2c-0.9,1.6-1,2.8-0.2,3
	c1.1,0.3,1.7-0.6,2.5-1.2c1.4-1.1,2.8-1.9,4.7-2.2c2.4-0.4,4.2-2.2,5.9-3.9c4-3.9,8.5-7.2,12.8-10.8c1.4-1.1,2.8-2.1,4.6-2.5
	c0.4-0.1,1.1-0.1,1.3,0.2c0.4,0.4-0.1,0.9-0.5,1.1c-1.8,1.1-3.7,2-4.7,3.9c0,0.2,0,0.4-0.1,0.6c-0.2,0.6-0.6,1-1,1.4
	c-0.4,0.4-0.8,0.8-1.2,1.2c-0.3,0.3-0.5,0.6-0.8,0.9c-0.2,0.3-0.4,0.7-0.7,1c-1.5,1.3-3.4,2.3-4.4,4.1c-0.2,0.3-0.5,0.6-0.8,0.9
	c-0.3,0.3-0.5,0.6-0.8,0.9c-0.3,0.3-0.6,0.5-0.9,0.8c-0.2,0.1-0.3,0.2-0.5,0.3c-0.3,0.2-0.6,0.5-1,0.7c-1,0.7-1.8,1.6-2.2,2.7
	c-0.2,0.4-0.4,0.7-0.6,1c-0.3,0.3-0.6,0.6-0.9,0.8c-0.3,0.2-0.7,0.4-1.1,0.4c-0.2,0-0.4,0-0.6,0c-0.4-0.1-0.8-0.1-1.1-0.3
	C52.1,58.7,51.9,58.7,51.8,58.7z"/>
<path fill="#525252" d="M50.9,39.5c-0.4,1.5-1.4,2.5-2.9,2.8C48.7,41.1,49.6,40.2,50.9,39.5z"/>
<path fill="#525252" d="M44.1,69.2c-0.3,0.6-0.6,1.3-1,1.9C43.4,70.5,43.8,69.9,44.1,69.2z"/>
<path fill="#525252" d="M46,44.3c-0.3,0.3-0.6,0.6-0.9,1C45.4,44.9,45.7,44.6,46,44.3z"/>
<path fill="#525252" d="M47,43.3c-0.3,0.3-0.6,0.6-1,1C46.3,44,46.6,43.6,47,43.3z"/>
<path fill="#525252" d="M47.9,42.4c-0.3,0.3-0.6,0.6-1,1C47.3,43,47.6,42.7,47.9,42.4z"/>
<path fill="#6C6C6C" d="M167,54.8c0.3-0.3,0.7-0.6,1-0.9C167.6,54.2,167.3,54.5,167,54.8z"/>
<path fill="#616161" d="M126.1,54.1c0.7-0.2,1.5-0.7,1.9-1.3c-1.3,0.7-2.7,1.5-4.1,2.3C124.7,54.7,125.4,54.3,126.1,54.1z"/>
<path fill="#616161" d="M122.7,55.8c-1.5,0.8-2.9,1.6-4.4,2.4C119.7,57.6,121.2,56.6,122.7,55.8z"/>
<path fill="#616161" d="M156.4,52L156.4,52c0.3-0.3,0.6-0.6,1-1c0.6,0,1.3,0,1.9,0c0.3-0.3,0.6-0.6,1-0.9l0,0c0.5-0.6,1.4-0.4,1.9-1
	c0.3,0,0.6,0,1,0c0.3-0.3,0.7-0.6,1-0.9l0,0c0.5-0.6,1.4-0.4,1.9-1c0.3,0,0.6,0,1,0c0.3-0.3,0.6-0.6,1-0.9l0,0
	c-0.7-2.6-2.4-1.4-3.8-1l0,0c-3.8,2.4-7.9,4.1-12.4,4.7c-1.6,0.2-3.1,0.8-4.6,1.3c-1.4,0.5-2.8,0.8-4.2,0.6c-0.4,0-1-0.3-1.2-0.6
	c-0.3-0.5,0.2-0.9,0.6-1.1c3.3-1.7,6.6-3.1,10.2-4.1c0.8-0.2,1.5-0.5,2.2-0.9c0.2-0.1,0.5-0.5,0.5-0.8c0-0.3-0.2-0.6-0.5-0.7
	c-0.4-0.2-0.9-0.4-1.4-0.4c-2.7-0.1-5.4-0.2-8.1,0.3c-1.4,0.3-2.5,0-3.2-1.4c-0.5-0.5-0.9-0.9-1.6-1.1c-0.4,0-0.9,0-1.3,0.2
	c-0.4,0.2-0.8,0.3-1.2,0.4c-1.9,0.4-3.5,1.7-5.3,2.4c-1.4,0.6-2.6,1.9-2.2,3.7c0.4,1.8,1.5,2.5,2.3,2.4c-1.5,0.7-3.1,1.5-4.7,2.4
	c-0.4,0.6-1.2,1.1-1.9,1.3c-0.8,0.3-1.5,0.6-2.2,0.9c-0.4,0.2-0.9,0.5-1.3,0.7c-1.5,0.9-2.9,1.8-4.4,2.4c1.5-0.8,3-1.6,4.4-2.4
	c0.4-0.3,0.9-0.5,1.3-0.7c1.4-0.8,2.7-1.5,4.1-2.3c0.4-0.6,0.6-1.4,0.2-2.3c-0.7-2-2.4-2.5-4.3-1.9c-1.1,0.3-2.1,0.9-3.1,1.3
	c-6.4,2.9-12.1,7.1-17.7,11.2c-2.4,1.7-5.7,3.8-0.7,6.6c0.6,0.4-0.6,1.7,0.2,2.5c0,0,0.1,0.1,0.1,0.1c1.5,0.6,1.6,1.8,1.3,3.2
	c-1.2,5.2-3.1,10.1-6.2,14.4c-2.2,3.1-3.4,6.2-3.7,8.9c1.2-0.1,1.8-1.2,2.9-1.6c0.9-0.9,1.9-1.8,2.6-2.8c4-5.2,7.7-10.6,10.8-16.4
	c0.6-5.3,4-8,8.4-10.6c5.6-3.3,11.5-6.1,17.5-8.4c5.3-2.1,10.8-4.5,16.8-2.7C154.8,54.4,155.9,53.6,156.4,52z"/>
<path fill="#959595" d="M187.1,43.7c-8.6,2.5-17.2,4.9-25.5,8.4c-1.3,0.6-2.7,0.9-4.2,1c-0.4,0.2-0.5,0.6-0.3,1
	c0.5,0.7,1.6,0.2,2.1,0.8c2.3-0.4,4.2-2,6.6-2c0.4-0.2,0.7-0.5,1.1-0.8c0.3,0,0.7,0,1,0c2.2-1,4.5-1.9,6.8-2.6
	c4.8-2.2,9.7-4.3,14.6-6.3C188.6,43.3,187.9,43.5,187.1,43.7z"/>
<path fill="#5A5A5A" d="M171.6,45.3c5.7-1.4,11.4-2.8,17.1-4.3c1.5-0.4,3-1.1,4.5-1.7c0.2-0.1,0.4-0.6,0.3-0.8
	c-0.1-0.2-0.5-0.3-0.8-0.4c-0.1-0.1-0.3,0-0.5,0c-7,1.6-14,3.2-20.9,5c-2.4,0.6-5,0.9-7.3,2.2c1.4,0,2.7,0.2,3.8,1
	C169.2,45.9,170.4,45.6,171.6,45.3z"/>
<path fill="#5A5A5A" d="M157.5,53c-0.4-0.4-0.7-0.7-1.1-1.1c-1.2,0.6-2.5,0.9-3.9,0.9c-3.3-0.1-6.3,1.8-9.7,1.8
	c-1.3,0-2.4,1.3-2.3,3c0.4,1.1,1.2,1.7,2.3,2c5.1-1.2,10.2-2.5,14.4-5.9C157.3,53.5,157.4,53.3,157.5,53z"/>
<path fill="#5A5A5A" d="M160.2,50c0.6-0.3,1.3-0.6,1.9-1C161.5,49.4,160.9,49.7,160.2,50z"/>
<path fill="#5A5A5A" d="M164.1,48.1c0.6-0.3,1.3-0.6,1.9-1C165.4,47.5,164.7,47.8,164.1,48.1z"/>
<path fill="#5A5A5A" d="M167,47.1c0.3-0.3,0.6-0.6,1-0.9C167.6,46.5,167.3,46.8,167,47.1z"/>
<path fill="#5A5A5A" d="M159.3,51c0.3-0.3,0.6-0.6,1-0.9C159.9,50.3,159.6,50.7,159.3,51z"/>
<path fill="#5A5A5A" d="M163.1,49.1c0.3-0.3,0.6-0.6,1-0.9C163.8,48.4,163.4,48.7,163.1,49.1z"/>
<path fill="#5A5A5A" d="M156.4,52c0.3-0.3,0.6-0.6,1-1C157.1,51.3,156.7,51.6,156.4,52z"/>
<path fill="#7C7C7C" d="M139.1,43.3c-2.3,0.6-4.6,1.5-6.3,3.2c-0.3,0.3-0.4,0.9-0.4,1.3c0.1,0.5,0.7,0.6,1.1,0.6
	c1.6-0.3,3.1-0.6,4.7-0.9c0.6-0.1,1.3-0.1,1.6,0.7c0.2,0.7-0.3,1.2-0.8,1.6c-1.1,0.7-2.1,1.5-3.3,1.8c-4.5,1.4-8.4,3.9-12.7,5.7
	c-1.4,0.6-2.7,1.7-4,2.6c-2.8,1.9-6.6,2.8-6.4,1.8c0.6-2.5,2.7-3.8,4.8-5c2.5-1.4,5.1-2.7,7.6-4c0.4-0.2,0.8-0.5,1.2-0.8
	c0.2-0.2,0.3-0.6,0.2-0.9c-0.1-0.2-0.5-0.5-0.7-0.5c-1.5,0-2.7,0.8-3.9,1.6c-1,0.6-1.8,1.6-2.8,1.8c-6,1.5-9.6,6.7-14.9,9.2
	c-0.7,0.3-1.3,0.9-1.9,1.5c-0.2,0.2-0.3,0.6-0.2,0.9c0.1,0.2,0.6,0.5,0.8,0.4c1-0.4,2-0.9,3.1-1.3c0.7-0.3,1.5-0.6,2.2-0.7
	c0.7-0.1,1.3,0.2,1.4,1c0,0.4-0.3,1-0.6,1.1c-1.1,0.6-2.3,1.1-3.4,1.7c-1.1,0.6-2.1,1.4-2.9,2.5c-0.6,0.7-1.2,1.4-1.8,2.2
	c-1.3,1.6-2.8,2.6-4.9,1.5c-0.9-0.5-1.9,0-2.5,0.8c-2.7,3.7-5.5,7.4-8.1,11.2c-2.7,4-5.1,8.1-7.6,12.1c-0.3,0.3-0.6,0.6-0.9,1l0,0
	c-0.3,0.3-0.7,0.6-1,1l0,0c-2.2-0.3-1.4-1.7-1-2.9l0,0c0.1-5.3,4.6-8.5,6.1-12.1c-1.2,2.3-3.2,5.3-5.3,8c-2.6,3.4-4.9,2.8-7.5-0.7
	c-2-2.7-4.8-4.8-2.9-8.6c-0.6-3.3,0.5-5.8,3.3-7.7c1.5-1.1,2.4-2.9,3.7-4.2c-1.4,1.3-2.2,3.2-3.9,4.1c-2.6,1.4-13.4-3.5-14-6.4
	c-0.3-1.2-0.5-2.7,0.1-3.8c2-3.4,2.9-6.9,2.5-10.9c-0.1-1,1-1.9,1.6-2.8c0.3,0,0.6-0.1,0.9-0.1c1.9-0.1,2.6-1.7,3.8-2.7
	c2.8-2.5,5.9-2.3,6.8,1.1c1,3.6,4.3,4.5,6.2,6.8c1.6,1.9,4.1,1,5.5-0.7c5.3-6.1,13-8.6,19.1-13.6c2.9-2.4,6.6-3.8,10.6-4.1
	c2-0.2,3.7-0.8,5.3-1.8c-0.1,0.1,0,0-0.1,0.1c-6,2.6-6.5,1.7-7.1-4.3c-0.5-5,2.2-7,5.3-9.4c0-0.4,0.2-0.8,0.5-1.2
	c0.9,0,1.9-0.1,2.8-0.1c0.5-0.6,1.4-0.3,1.9-0.9c0.3,0,0.6,0,1,0c0.8-0.9,2.1-0.1,2.9-0.9c0.6,0,1.3-0.1,1.9-0.1
	c0.3-0.3,0.7-0.6,1-0.9c1,0,1.9,0,2.9-0.1c0.7-0.6,1.5-0.5,2.2-0.4c1,0.1,2.5-0.6,2.8,1c0.3,1.7-0.8,3.1-2.2,3.1
	c-5.1,0.3-4.4,3.7-2.7,6c2.2,3.1,1.4,5.5,0.1,8.3c-3.5,3.3-8.3,3.6-12.5,5c-8.2,2.8-15.8,6.6-22.6,11.9c-0.8,0.6-1.8,0.7-2.5,1.3
	c7.6-4.7,14.6-10.4,23.6-12.3c2.4,2,5,0.9,7.3,0.1c5.3-1.8,10.4-4.1,16.1-3.8l0,0c1.7-0.5,3.7-1.3,2.9,1.9l0,0
	c-0.5,0.7-1.4,0.3-1.9,0.9l0,0C139.8,42.7,139.4,43,139.1,43.3z"/>
<path fill="#898989" d="M115.1,23.2c0.7,0.3,1,0.8,0.6,1.5c-0.7,1.1-1.8,1.7-2.9,2.4c-1.1,0.7-1.4,1.8-0.9,2.9
	c0.9,2,1.1,3.9-0.5,5.7c-0.5,0.6,0.4,1.6,1.3,1.5c2.5-0.5,4.9-1.3,7.1-2.5c0.6-0.6,1.3-0.6,1.9,0c0.1,1-0.4,1.5-1.2,1.8
	c-4.5,2-9,4-13.6,5.8c-2.7,1.1-5.1,2.5-7.4,4.3c-2.2,1.8-4.7,3.3-7.3,4.6c-3,1.5-5.7,3.5-8,6c-1.3,1.4-2.6,2.8-4.5,3.6
	c-2,0.9-3.7,0.6-5.2-0.9c-0.7-0.7-1.2-1.5-1.8-2.3c-1.4-1.7-2.1-1.9-4.1-0.9c-0.6,0.3-1.1,0.7-1.6,1c-0.2,0.1-0.7,0.1-0.9,0
	c-0.5-0.3-0.4-0.8-0.2-1.3c0.6-1.1,1.3-2.2,1.9-3.3c0.5-0.9,0.4-1.9-0.3-2.7c-0.8-0.9-2.1-1.3-3-0.8c-1,0.5-1.8,1.3-2.7,1.9
	c-0.8,0.6-1.7,0.8-2.7,0.3l0,0c0.4-0.3,0.6-0.6,1-1l0,0c0.4-0.3,0.7-0.7,1-1c1.6-1.9,3.2-3.8,4.9-5.7c0.3-0.4,0.6-0.7,0.9-1l0,0
	c0.4-0.4,0.8-0.5,1.3-0.3c3.7,0.5,6.6-1.5,9.3-3.4c8.5-5.8,17.8-9.4,27.5-12.5c1.2-0.4,2.3-1,3.2-1.9c0.3-0.4,0.6-0.7,1-1.1
	c0.6,0,1.2-0.1,1.8-0.1c0.5-0.5,1.4-0.3,2-0.9c0.3,0,0.6,0,0.9-0.1C114.5,22.7,114.8,22.7,115.1,23.2z"/>
<path fill="#6E6E6E" d="M151,28.9c0-0.3-0.6-0.7-1-0.9c-0.8-0.4-1.8-0.8-2.6-1.2c-0.6-0.3-0.6-1.2,0-1.6c1.6-1.1,3.2-2.1,5.3-1.5
	c0.9,0.2,1.9,0.4,2.8,0.1c0.1-0.1,0.3-0.2,0.4-0.3c0-0.3,0-0.7-0.1-0.8c-0.3-0.3-0.8-0.5-1.2-0.7c-4.7-2-9.8-2.8-14.8-3.8
	c-3.6-0.7-7-0.2-10.3,1.1c0.8,0,1.6,0,2.4,0.1c0.3,0,0.7,0.3,0.7,0.5c0,0.2-0.3,0.6-0.5,0.7c-1.1,0.3-2.2,0.4-3.3,0.7
	c-2,0.4-4.1,0.9-6.1,1.4c-0.6,0.2-1.1,0.7-1,1.5c0,0.7,0.5,1.2,1.1,1.3c0.9,0.2,1.9,0.1,2.8,0.3c0.7,0.2,1.1,0.8,0.8,1.5
	c-0.5,1-1.3,1.8-1.8,2.8c-0.6,1.2,0.2,2.2,1.5,2.4c1.1,0.1,2.7-0.9,3.1,0.2c0.5,1.6-1.6,1.5-2.5,2.3c-0.1,0.1-0.3,0.2-0.4,0.3
	c-0.3,0.5-0.2,0.9,0.3,1.1c0.6,0.2,1.3,0.2,1.9,0.2c0.4,1.8-1.2,1.4-2,1.9c-3.6,2.3-8.5,2.1-11.4,5.8c0.9,1.8,2.4,1.8,4.1,1.6
	c7-1.1,13.7-3.1,19.9-6.4c-0.6-0.1-1.4-0.1-1.6-0.8c-0.3-0.8,0.4-1.1,1-1.3c1.9-0.8,4-1.1,5.8-2.2c0.8-0.5,1.8-0.9,1.9-2
	c0.2-2.2,1.7-2.9,3.5-3.3C150.3,29.8,151.2,29.7,151,28.9z"/>
<path fill="#A0A0A0" d="M109.4,25.1c0.4,0.9,0,1.6-0.8,2c-2.6,1.2-5.2,2.4-7.9,3.5c-4.6,1.9-9.2,3.7-13.7,5.6
	c-1.6,0.7-3,1.7-4.5,2.7c-3.5,2.3-7.2,4.1-11.1,5.6c-1.4,0.5-2.5,0.4-3.2-1c0.1-0.4,0.3-0.6,0.6-0.7c0.5-0.2,0.8-0.6,1.3-0.8
	c0.3-0.1,0.6-0.3,0.9-0.5l0,0c2.6-0.8,4.9-2.3,7.1-3.9c4.4-3.2,9.2-5.7,14.3-7.6c2.2-0.8,4.5-1.6,6.5-2.9c0,0,0,0,0,0
	c0.8-0.9,2.1-0.1,2.9-0.9c0.3,0,0.6,0,0.9-0.1c0.5-0.5,1.1-0.4,1.8-0.4c1-0.1,2.1,0.3,3-0.4l0-0.1C108.1,24.5,108.7,24.4,109.4,25.1
	z"/>
<path fill="#6E6E6E" d="M147.9,37.7c-2.9,0.8-6,0.3-8.7,1.8c1.3,0.1,2.4,0.6,2.9,1.9c5.1-0.5,8.6-1.9,11.2-4.4
	C151.2,37.2,149.5,37.3,147.9,37.7z"/>
<path fill="#6E6E6E" d="M123.8,20.3c-0.9,0.6-1.8,0.8-2.9,0.9C121.7,20.6,122.7,20.4,123.8,20.3z"/>
<path fill="#6E6E6E" d="M101.7,26.1c-0.9,0.6-1.9,0.9-2.9,0.9C99.7,26.3,100.7,26.1,101.7,26.1z"/>
<path fill="#898989" d="M107.5,25.1c-0.9,0.6-1.9,0.8-2.9,0.9c-0.6-0.4-0.6-0.7,0.1-0.9C105.6,25.1,106.5,25.1,107.5,25.1z"/>
<path fill="#6E6E6E" d="M104.6,25.1c0,0.3,0,0.6-0.1,0.9c-0.6,0-1.3,0-1.9,0C103.3,25.7,104,25.4,104.6,25.1z"/>
<path fill="#6E6E6E" d="M109.4,25.1c-0.6,0-1.3,0-1.9,0c0.7-0.3,1.3-0.6,2-0.9C109.4,24.5,109.4,24.8,109.4,25.1z"/>
<path fill="#6E6E6E" d="M113.2,23.2c-0.7,0.3-1.3,0.6-2,0.9C111.9,23.8,112.6,23.5,113.2,23.2z"/>
<path fill="#6E6E6E" d="M119.9,21.3c-0.6,0.3-1.3,0.6-1.9,0.9C118.6,21.9,119.3,21.6,119.9,21.3z"/>
<path fill="#6E6E6E" d="M140.1,42.3c0.6-0.3,1.3-0.6,1.9-0.9c0,0.3,0,0.6,0,0.9C141.4,42.3,140.7,42.3,140.1,42.3z"/>
<path fill="#6E6E6E" d="M126.7,19.3c-0.3,0.3-0.7,0.6-1,0.9C126,20,126.3,19.6,126.7,19.3z"/>
<path fill="#6E6E6E" d="M115.1,23.2c-0.3,0-0.6,0-1,0c0.3-0.3,0.7-0.6,1-0.9C115.2,22.6,115.1,22.9,115.1,23.2z"/>
<path fill="#848484" d="M151.3,51.4c-4.4,1.5-9.1,1.5-13.4,3.3c-4.7,1.9-9.6,3.3-14.2,5.5c-5.7,2.8-10.9,6.4-16.5,9.4
	c-0.7,0.4-1.2,1.1-1.4,1.9c-0.2,0.8,0.3,1.7,1.1,1.7c0.3,0,0.6-0.1,0.9-0.2c1.2-0.4,1.8-0.1,1.9,1.2c0.1,0.6,0.4,1.2,0.5,1.8
	c2.2-1.9,4.4-3.9,6.7-5.8c7.9-3.8,15.7-7.7,23.5-11.8c0.2-0.1,0.3-0.5,0.4-0.8c1.4-1.2,3-1.6,4.7-1.9c2.5-0.4,4.8-1.3,6.9-2.8
	C152.7,51.9,152.4,51.1,151.3,51.4z"/>
<path fill="#3F3F3F" d="M117.1,70.2c7-6,15.2-9.8,23.9-12.6c0.7,0.3,1.3,0.6,2,1c-0.2,2.3-2.4,2.3-3.8,2.9c-4.6,2-9.1,4.2-13.2,7.3
	c-0.4,0.2-0.8,0.5-1.1,0.8c-0.4,0.3-0.7,0.5-1.2,0.7c-1.5,0.5-2.6,2.9-4.6,1C118.4,70.9,117.7,70.6,117.1,70.2z"/>
<path fill="#8D8D8D" d="M119,71.3c1.5-0.7,3-1.4,4.5-2.1c0.8,0.1,1.7,0.1,2.1,1.1c-2.8,2.4-5.9,4.3-9.2,6.1
	c-0.5,0.3-1.2,0.9-1.6,0.1c-0.2-0.4,0.2-1.2,0.3-1.8c0-0.2,0.1-0.3,0.1-0.5C116.6,73.3,118,72.6,119,71.3z"/>
<path fill="#B3B3B3" d="M157.3,53.8c-1.3,0.5-2.6,1-4,1.5c-3.4,1.1-6.7,2.8-10.3,3.3c-1.2,0.5-2.3,1.1-3.5,1.5
	c-5.4,1.9-10.4,4.5-14.7,8.3c-0.3,0.3-0.6,0.7-1,0.9l-0.1,0c0.7,0.4,1.4,0.7,2.1,1.1c1.2-0.7,2.5-1.3,3.7-2c4.4-3,9.2-5,14-7
	c5.3-2.1,10.6-4.2,15.9-6.4C158.6,54.5,158,54.1,157.3,53.8z"/>
<path fill="#707070" d="M58.5,52c0,0.6-0.2,1.7,0,1.8c2.2,1.3,1.3,3.3,1.4,5.1c0.1,1.6-1,2.6-2,3.7c-0.9,0.9-1.7,1.9-2.5,2.9
	c-0.6,0.8-0.5,1.8,0.1,2.7c0.9,1.4,2.1,2.4,3.8,2.7c0.5,0.1,1,0.1,1.4,0c2.2-0.5,3.6,0.3,4.6,2.3c0.6,1.2,1.6,1.2,2.8,0.1
	c2.1-2,4.1-4,6.2-6c0.6-0.5,1.1-1.2,2-1.2c0.2,0,0.4,0.3,0.6,0.6c0.1,0.1,0,0.3,0,0.4c-2.5,3.5-4.1,7.6-7.3,10.6
	c-1.8,1.7-2.7,4-4.3,5.7c-1.4-0.8-2.5-0.5-3.2,0.9c-0.9,1.7-1.8,3.4-2.7,5.1c-0.3,0.5-0.7,1-1.2,1.5c-0.1,0.1-0.6,0-0.8,0
	c-0.1,0-0.2-0.3-0.2-0.4c0.1-0.8,0.3-1.6,0.5-2.3c0.4-1.1,0.7-2.1,0.7-3.2c-0.1-1.2-1-2.2-2.2-2c-0.9,0.1-1.8,0.5-2.8,0.6
	c-2,0.3-3.1-0.4-3.3-2.5c-0.3-2.5-0.4-5.1,0.7-7.5c0.8-1.7,1.4-3.6,2.2-5.3c1.4-3.1,1.8-6.1-0.8-8.9c-0.2-0.2-0.3-0.6-0.4-0.9l0,0
	c0.4-0.3,0.6-0.6,1-1l0,0c0.3-0.3,0.6-0.6,1-1l0,0c0.3-0.3,0.6-0.7,1-1C55.7,54.3,56.9,53,58.5,52z"/>
<path fill="#707070" d="M65.2,83.6c0.2,0.8,0.2,1.6,0.5,2.3c0.4,1.3,1.4,2.1,2.8,2c0.5,0,1-0.1,1.4,0c1.1,0.1,1.7,0.9,1.7,1.9
	c0,0.3-0.1,0.6-0.1,0.9c-0.1,1-1.4,2.4-0.3,3c1.6,0.9,2.4-1,3.2-2c2.8-3.8,5.6-7.7,8.4-11.6c0.4-0.5,0.9-0.9,1.3-1.2
	c0.1-0.1,0.3,0,0.4,0.1c0.1,0.1,0.2,0.2,0.3,0.4c0.1,0.1,0.1,0.4,0,0.5c-3.4,5.5-5.8,11.6-9.7,16.9c-0.1,0.1-0.2,0.2-0.4,0.3
	C74,96,73,95.6,72.1,96.8c-0.6,0.7-0.9,1.7-1.5,2.4c-0.4,0.6-1,1.2-1.6,1.7c-0.8,0.6-2.1,0.3-2.4-0.6c-0.3-0.9-0.4-1.9-0.7-2.8
	c-0.5-1.6-1.4-2-2.9-1.4c-0.9,0.3-1.8,1.9-2.9,0.6c-0.8-1,0.1-2.1,0.5-3.1C62.2,90.3,63.7,87,65.2,83.6z"/>
<path fill="#6E6E6E" d="M69,43.3c-0.3,0-0.6,0.1-0.8,0.1c-0.3,0-0.7,0-1-0.1c0.6-0.4,1.2-0.7,1.8-1.1c0.2,0.2,0.3,0.3,0.5,0.5
	C69.3,42.9,69.2,43.1,69,43.3z"/>
<path fill="#6E6E6E" d="M71,41.4c-0.3,0.3-0.6,0.7-1,1c-0.3,0.3-0.6,0.3-1,0c0,0-0.1-0.1-0.1-0.1C69.7,42,70.3,41.7,71,41.4z"/>
<path fill="#6E6E6E" d="M67.1,43.3c-0.3,0.3-0.6,0.6-0.9,1C66.5,44,66.8,43.7,67.1,43.3z"/>
<path fill="#616161" d="M53.7,56.7c-0.3,0.3-0.6,0.6-1,1C53,57.4,53.4,57.1,53.7,56.7z"/>
<path fill="#616161" d="M54.6,55.8c-0.3,0.3-0.6,0.6-1,1C54,56.4,54.3,56.1,54.6,55.8z"/>
<path fill="#616161" d="M52.7,57.7c-0.3,0.3-0.6,0.6-1,1C52.1,58.3,52.4,58,52.7,57.7z"/>
<path fill="#7C7C7C" d="M61.4,50c-0.3,0.3-0.6,0.7-1,1C60.7,50.6,61,50.3,61.4,50z"/>
<path fill="#7C7C7C" d="M60.4,51c-0.3,0.3-0.6,0.6-1,1C59.7,51.6,60.1,51.3,60.4,51z"/>
<path fill="#6C6C6C" d="M165.9,52.8c0.4-0.3,0.7-0.5,1.1-0.8C166.6,52.3,166.3,52.6,165.9,52.8z"/>
<path fill="#6E6E6E" d="M139.1,43.3c0.3-0.3,0.6-0.6,1-0.9C139.8,42.7,139.4,43,139.1,43.3z"/>
<path fill="#898989" d="M128.6,36.6c0.6-0.2,1.2-0.4,1.8-0.5c0.3,0,0.7,0.1,0.8,0.3c0.3,0.5,0.1,1-0.3,1.2
	c-5.3,2.1-10.1,5.4-15.7,6.7c-2.6,0.9-5.2,1.6-7.3,3.5c-0.3,0.3-0.8,0.5-1.3,0.7c-5.6,1.8-10.1,5.4-14.6,8.9c-1.3,1-2.6,1.8-4,2.6
	c-0.6,0.3-1.3,0.4-1.7-0.3c-0.2-0.3,0-1,0.2-1.3c0.8-1.3,1.9-2.2,3.2-2.8c5.2-2.5,9.4-6.5,14.5-9.2c3.1-1.6,6.3-3,9.6-4.3
	C118.7,40.1,123.6,38.4,128.6,36.6z"/>
<path fill="#6E6E6E" d="M121.8,34.7c-0.6,0-1.3,0-1.9,0c-0.1-0.5-0.1-1,0.4-1.1C121.3,33.2,121.5,34,121.8,34.7z"/>
<path fill="#898989" d="M69.1,42.4c0.3,0,0.6,0,1,0c-0.3,0.3-0.7,0.6-1,0.9C69,43,69.1,42.7,69.1,42.4z"/>
<path fill="#8D8D8D" d="M124.7,68.3c-0.3,0.3-0.7,0.6-1,0.9C124,68.9,124.4,68.6,124.7,68.3z"/>
<path fill="#6D6D6D" d="M44.8,27c4.1-2.9,8.3-5.8,12.4-8.7c4.3,0.2,7.9-1.6,11.5-3.5c1-0.5,2-1,3.1-1.2c1.7-0.2,3.2,0.4,4,2
	c0.9,1.8-0.1,2.8-1.4,4c-3,2.5-7.1,3.7-9,7.5c-3.8,2.6-8.4,4.2-11,8.5c-9.3,8.4-17.1,18.1-23.3,29c-0.3,0.6-0.7,1.1-1.1,1.7
	c-0.2,0.4-0.4,0.8-0.7,1.1c-0.4,0.5-0.9,1-1.5,1.3c-0.5,0.1-0.9,0.1-1.4-0.1c-0.4-0.2-0.8-0.5-1.1-0.8c-0.5-0.6-0.6-1.4-1.3-2.4
	c-3.3,7.6-7.2,14.7-8.3,22.9c-0.9,6.5-4.6,12.3-6.9,18.4c-0.5,1.3-1.4,2.6-3.3,1.7c0.7-5.9,1.7-11.7,3.5-17.3
	c1.9-6.2,4.1-12.4,6.2-18.6c1.3-3.8,2.6-7.6,4.4-11.1c3.6-7.1,7.3-14.2,12.4-20.4c3-3.7,6-7.5,9-11.2c0.9-0.7,2-1.1,2.8-2l0,0
	C44.2,27.7,44.5,27.3,44.8,27z"/>
<path fill="#474747" d="M20.8,150.8c-0.2,4.5,0.8,8.8,1.6,13.2c0.5,2.7-0.5,4.6-2.5,6.3c-1,0.9-2,0.9-3,0c-0.4-0.3-0.7-0.6-1-1
	c-1.1-1.4-2.3-2-4.1-1.7c-1.3,0.2-2.1-0.5-2.6-1.6c-1.1-2.4-2.6-4.8-2.8-7.6c0-0.6-0.1-1.3-0.4-1.9c-1.3-2.6-1.6-5.5-1.6-8.3
	c0-0.2,0-0.3-0.1-0.5c-0.2-0.4-0.4-0.9-0.8-1c-0.6-0.2-0.8,0.4-0.8,0.9c-0.1,2.4-0.2,4.8-0.3,7.1c-0.1-0.3-0.3-0.6-0.4-0.9
	c-0.8-8.3-1.4-16.5,0-24.8c0.1-0.5,0.3-0.9,0.4-1.4c0.9-2.7,1.3-5.5,1.5-8.3c0.1-0.9-0.3-2.1,0.9-2.4c1-0.3,1.8,0.5,2.3,1.4
	c0.8,1.5,1.3,3.6,3.6,3c2.1-0.5,2.7-2.6,3.3-4.4c1-3.2,1.4-6.5,1.7-9.8c0.2-2.2,0.5-4.7,3.9-3.3c0.7,0.9,0.6,2,0.6,3
	c0,5.4,0.1,10.8-0.7,16.2c-0.9,6.1,0.7,12.2,1.2,18.2C21.1,144.7,22.3,147.7,20.8,150.8z"/>
<path fill="#606060" d="M18.9,103.8c-1.1,1.7-0.9,3.7-1,5.6c-0.2,4.7-1.4,9.1-3.3,13.4c-0.8,1.8-1.9,2.6-4.1,2.6
	c-4.6-0.1-4.6,0-5.1-4.7c0-0.4-0.2-0.9-0.6-1.3c-0.5,3-0.3,6.1-2.3,8.6c-0.3-3.8,0.9-7.5,1.3-11.3c0.3-2.7,1.1-5.3,1.7-7.9
	c1-1.3,1.5-2.8,1.8-4.4c0.2-1.1,0.4-2.2,1.1-3.1c1-1.2,1.2-2.5,1-4c-0.1-1.3-0.3-2.6,1.8-2.3c0.2,0,0.7-0.6,0.8-1
	c0.7-2.9,1.8-5.7,1.6-8.9c-0.2-2.1,0.3-4.1,1.7-5.8c0.3-0.4,0.7-0.8,0.8-1.2c0.5-4.7,4.1-8.2,5.1-12.7c0.2-0.9,0.6-1.8,1-2.7
	c0.7-1.3,0.7-3.7,2.6-3.4c1.4,0.3,1.6,2.5,2.2,4c0.3,0.7,0.1,1.6,0,2.3c-0.1,1,0,1.9,0.5,2.7c1.4,1.1,1,2.7,0.5,3.9
	c-3.8,9.3-5.6,19.1-7.5,28.8C20.3,102.1,20.1,103.2,18.9,103.8z"/>
<path fill="#888888" d="M64,26.1c-0.7-0.3-1.1-1-0.4-1.5c1.3-1,2.6-1.8,4-2.5c2.3-1.2,4.4-2.5,6.4-4.2c0.3-0.2,0.4-0.9,0.3-1.3
	c-0.1-0.3-0.7-0.7-1.1-0.7c-1-0.2-1.9,0.3-2.7,0.7c-1.7,0.8-3.5,1.7-5.2,2.5c-2.3,1.2-4.5,1.4-6.8-0.2c-0.4-0.3-0.9-0.4-1.3-0.6
	c3.8-2.9,8.3-4.6,12.5-6.7c7.8-2.9,11-2.2,15.9,3.5c0.3,1.9-1.1,2.4-2.4,3c-5.6,2.3-10.8,5.4-16.1,8.3c-0.6,0.4-1.3,0.5-2,0.4
	C64.7,26.7,64.3,26.5,64,26.1z"/>
<path fill="#B7B7B7" d="M44.8,27c-0.3,0.3-0.7,0.6-1,0.9C44.2,27.6,44.5,27.3,44.8,27z"/>
<path fill="#3E3E3E" d="M26.6,166.2c-0.3-0.7-0.7-1.4-0.9-2.2c-1.5-8-3.6-15.8-4-24c-0.1-1.1-0.4-2.2-0.5-3.3
	c-0.5-3.9-1.8-7.8-0.7-11.8c-0.9-5.3,0.8-10.4,0.5-15.7c-0.1-1.6,0.3-3.2,0.5-4.7c0.1-1.4,0.3-2.8,0.4-4.3c0.1-1.6,0-3.1-0.2-4.7
	c-1.5,3.6-1,7.7-2.6,11.3c0-1,0-2,0-2.9c0.6-7,1.7-13.9,4-20.5c1.7-4.9,3.1-10,4.7-15l0,0c0.6-0.5,0.4-1.4,0.9-1.9
	c0-0.3,0.1-0.6,0.1-0.9c0.3-0.3,0.6-0.7,0.9-1c2.5-4,5-8.1,7.6-12.1c4.4-6.9,10.4-12.3,16.4-17.7c0.5,1.5-0.8,2.5-1,3.9
	c0.1,0.9,0.2,1.7-0.2,2.5c-0.4,0.9-1,1.8-1.7,2.6c-0.3,0.3-0.6,0.6-0.9,0.8c-0.3,0.2-0.6,0.5-1,0.7c-0.2,0.1-0.3,0.2-0.5,0.3
	c-0.3,0.2-0.7,0.4-1,0.6c-0.2,0.1-0.3,0.2-0.5,0.3c-0.3,0.3-0.6,0.6-0.9,0.8c-0.1,0.2-0.3,0.3-0.4,0.5C37.4,58.8,31.4,71,26.5,83.8
	c0.8-3.6,5.2-3.7,6.7-7.1c1.3-2.9,3.1-5.6,5.5-7.8c1.6-1.5,3.3-2.7,5.5-1.2c0.4,0.3,0.7,0.7,0.9,1.2c0.4,1,0.5,2,0.1,2.9
	c-0.2,0.4-0.5,0.8-0.8,1.2c-1.2,2.4-3,4.5-4.1,7c-0.3,0.7-0.8,1.5-0.8,2.2c-0.2,6.6,0.5,13.1-1.1,19.7c-0.4,1.8,1.1,4.3,3.5,4.6
	c7.1,0.7,6.5,7.2,9,11.5c0.3,0.5,0.2,1.3,0.2,1.9c-0.1,4.2,2.1,7,5.7,8.6c2.5,1.1,7.8-1.6,9.6-4.9c1.3-2.4,2.9-3.9,5.7-3
	c2.6,0.9,3.5-0.7,4.4-2.4c1.4-2.9,2.8-5.7,4.8-8.2c1.2-1.5,2.3-3,4.3-1.6c1.8,1.2,1.5,2.9,0.6,4.6c-1.2,2.1-1.6,4.1-0.2,6.3
	c0.4,1.1,0.3,2.5-0.3,3.2c-4.5,5.1-5.7,12.1-10,17.2c-2.3,2.7-4.3,5.4-8.1,6.2c-2.6,0.6-4.2,2.8-5.1,5.3c-1,2.8-2.5,4.8-7.3,4.8
	c7.5,4.4,4.5,9.4,3.3,14.2c-2,3-3.9,6.2-6.7,8.6c-1.7-0.8-1.4-2.4-1.5-3.7c-0.1-1.9-0.9-3.4-2.3-4.5c-1.3-1-2.6-2.3-4.2-1.7
	c-1.7,0.6-1,2.5-1.3,3.8c-0.4,1.7,0.3,4-2,4.9c-2.3,0.9-3.6-0.4-4.5-2.3c-0.5-1.1-1-3.4-1.9-3.1C27.9,174.2,28.7,168.5,26.6,166.2z"
	/>
<path fill="#606060" d="M28.5,66.4c-0.3,0.6-0.6,1.3-0.9,1.9C27.9,67.6,28.2,67,28.5,66.4z"/>
<path fill="#606060" d="M29.4,64.5c-0.3,0.3-0.6,0.7-0.9,1C28.8,65.1,29.1,64.8,29.4,64.5z"/>
<path fill="#6D6D6D" d="M66,25.1c-0.3,0.3-0.7,0.6-1,0.9C65.3,25.7,65.6,25.4,66,25.1z"/>
<path fill="#6E6E6E" d="M127.4,13.6c0.4,0.3,0.8,0.6,1.1,0.9c0.6,0.5,0.7,1.1,0,1.5c-0.5,0.3-1.2,0.5-1.8,0.6
	c-5.6,1.7-11.2,3.4-16.8,5c-1.1,0.3-2.2,0.5-3.3,0.6c-3,0.4-5.8,1.5-8.4,3c-1.1,0.6-0.4,1.3,0.4,1.7c0.5,2.3-1.5,2.8-2.9,3.4
	C88.6,33,82,36.7,75.6,40.8c-1.3,0.8-2.6,2-4.4,1.2c-1.7,1.9,1.3-3.6-1.9-1c-6.9,5.7-13,12.6-21.3,16.5c-1.8,0.9-3.5,1.9-5.2,0.2
	c-1.7-1.6-1.3-3.6-0.2-5.3c1.4-2.2,0.8-5,2.3-7.2l0,0c0.3-0.3,0.6-0.7,0.9-1l0,0c0.3-0.3,0.6-0.6,1-1l0,0c0.3-0.3,0.6-0.6,1-1l0,0
	c1.2-0.7,2.1-1.7,2.9-2.8c0.6-0.4,1.2-0.7,1.8-1.1c2.6-1.6,4.4-3.9,6.6-6c1.7-1.7,3.5-3.1,6-3.5c1.7,5-1.2,8.1-4.8,10.6
	c16.5-10.2,34-18,51.4-23.1c-4,1.7-9.6,1.8-14.9,2.9c-4.4,0.9-8.2,3.5-12.8,3.4c-1.8,0-3.5,0.5-4.5-1.6c1.4-1.4,3.2-2.1,5-2.8
	c6.7-2.7,13.4-5.2,20.3-6.9c3.2-0.8,6.3-1,9.4-0.1C118.5,12.7,123,13,127.4,13.6z"/>
<path fill="#8C8C8C" d="M79.4,21.3c2.2-0.4,4.4-0.7,6.6-1.1c1.1-0.2,2.2-0.5,3.2-1.1c2-1.2,4.1-1.7,6.4-1.7c0.6,0,1.3-0.1,1.9-0.3
	c5.4-2.4,11.3-1.4,16.9-2.5c0.8-0.2,1.6,0,2.4,0c1.6,0,2.7,0.5,2.3,1.1c-0.5,0.8-1.4,0.7-2.1,0.9c-2.7,0.5-5.1,1.8-7.5,3.1
	c-1.1,0.6-2.2,1.3-3.5,1.6c-4.6,0.8-8.8,2.7-13.1,4.6c-2.9,1.3-5.9,2.4-8.8,3.7c-3.9,1.8-8,3.2-11.5,5.9c-1,0.8-2.2,1.4-3.4,1.7
	c-5.1,1.2-9.2,4.3-13,7.7C56.1,44.9,56,45,55.9,45c-0.4,0.1-1,0.3-1.3,0.2c-0.5-0.3-0.3-0.9,0-1.2c0.8-1,1.7-1.9,2.6-2.8
	c1.3-1.4,2.7-2.7,4-4.1c0.6-0.6,1.2-1.3,0.5-2.1c-1-1.2-0.5-1.9,0.4-2.8c1-1,1.9-2.1,2.9-3.2c1.7-0.4,3.2-1.2,4.6-2.2
	C72.7,24.6,76,22.9,79.4,21.3z"/>
<path fill="#2B2B2B" d="M58.3,170c0-2.2,0-4.5-0.2-6.7c-0.2-2.4-0.7-2.8-3.4-2.6c-1.4,0.1-2.1-0.7-1.9-2c0.4-2.1,0.4-4.1,0.1-6.2
	c-0.1-0.8,0.2-1.5,0.6-2.2c0.6-0.9,1.8-0.9,2.4-0.1c0.8,1.1,0.7,3.3,2.5,2.9c1.3-0.2,1.1-2.1,1.6-3.3c1.7-3.8,4-6.8,8.5-7.3
	c1.2-0.1,2.1-0.8,2.8-1.7c2.1-2.8,4.5-5.4,6-8.6c1.1-2.3,2.4-4.5,4.3-6.3c2.1-1.9,2.7-4.2,2.6-6.9c0-0.2,0-0.4-0.1-0.7
	c0-1.1,0.4-2.2,0.6-3.3c2.8-7.3,5.7-14.5,10.6-20.7c3.4-5,7.1-9.7,9.9-15c0.9-1.8,1.8-3.8,3.7-4.8c1.6-0.8,2.5-2.3,3.5-3.6
	c1.1-1.5,2.5-2.8,4.7-2.3c1.1,0.2,1.9,0.8,2.3,1.9c0.6,2.7-1.9,3.3-3.2,4.6c-6.9,12.5-17.5,22.6-23.5,35.7
	c-2.2,4.7-4.5,9.4-3.9,14.9c-0.1,0.8-0.1,1.6-0.4,2.4c-1,3.5-2.4,6.9-2.8,10.6c-0.1,0.6-0.5,1.2-1.2,1.3c-0.6,0.1-1.2-0.8-1.3-1.7
	c-0.1-1.5,0.4-2.8,0.8-4.2c0.6-2.5,1.2-5,1.7-7.5c0.1-0.4-0.1-1.1-0.4-1.2c-0.8-0.3-1.1,0.4-1.4,1c-0.4,0.9-0.6,1.8-0.9,2.7
	c-1,3.2-2,6.4-2.9,9.6c-0.4,1.2-0.6,2.5-0.8,3.7c-0.6,4.5-2.5,8.2-6.3,10.9c-4.1,2.9-7.4,6.6-10.7,10.3
	C60.8,165.5,59.6,167.9,58.3,170z"/>
<path fill="#2B2B2B" d="M93.8,111.5c0.3-0.3,0.6-0.6,0.9-1C94.4,110.8,94.1,111.2,93.8,111.5z"/>
<path fill="#525252" d="M96.7,95.2c-0.5,1-0.9,2-1.4,3c-3.1,6-6.1,12.1-9.2,18.1c-0.7,0.9-1.2,2-1.9,2.9l0,0
	c-0.9,0.1-1.7-0.1-1.7-1.2c0-0.8,0.3-1.6,0.6-2.3c0.4-1,0.9-2,1.4-3.1c0.6-1.5,0.4-3-0.4-2.9c-1.2,0.1-1.5,1.1-1.9,1.9
	c-0.9,1.9-1.8,3.8-2.7,5.6c-1.1,2.1-2,4.4-3.3,6.3c-0.8,1.2-1.3,3.3-3.3,2.9c-1.5-0.3-0.9-2.2-1.5-3.3c-0.2-0.4-0.6-0.8-1-0.9
	c-0.3,0-0.9,0.3-1.1,0.6c-0.4,0.7-0.6,1.5-0.8,2.2c-0.6,1.8-1.7,3-3.6,3.6c-2.5,0.8-4.5,3-7.5,2.9c-0.6,0-1.2,0.9-1.9,1.4
	c-0.9,0.6-1.6,0.4-1.8-0.5c-0.2-0.6-0.2-1.3-0.4-1.9c-0.2-1.3-0.8-2.5-2.1-3c-2.2-0.8-2.6-2.6-2.6-4.6c0-1.3,0-2.6-0.1-3.8
	c0-1.1-0.3-2.3-1.1-3.1c-1.5-1.4-2.1-3.1-2.1-5.1c0-1.6-1.2-2-2.8-1.3c-0.4,0.2-0.8,0.6-1.2,0.7c-1.3,0.6-2.1,0.3-2.7-1
	c-0.9-2-1.7-4.1-3.1-5.9c-0.8-0.9-0.8-2-0.4-3.2c0.7-2,1.4-3.9,2.1-5.9c0.5-1.4,0.8-2.8,0.2-4.2c-2.6-5.8-0.1-10.5,3.1-15.1
	c0.7-1,1.6-2,2.4-3c2.7,0.1,5.1,1.2,4.7,4.1c-0.7,5.2,1,10.4-0.5,15.9c4.5,0.2,6.9,1.9,7.8,6.9c0.6,3.3,2,6.6,2.6,10.2
	c0.4,2.7,4.3,3.5,7,4.2c2.2,0.6,3.8-1.1,4.9-3.1c1.3-2.5,2.5-5.2,4.2-7.5c3.3-4.4,4.1-4.5,8.2,0c5-7.8,11.4-14.4,14-23.6
	c1-3.4,3.1-7.2,6.2-9.7c3.2-0.6,3.8,1.1,3.6,3.8c-0.4,5.2-2.1,9.7-5.1,14C98.9,89.7,96.5,91.8,96.7,95.2z"/>
<path fill="#616161" d="M102.5,70.3c-0.1,1.8-0.9,3.4-2.1,4.8c-1.8,2.2-3,4.5-2.9,7.4c0,1.6-0.7,3.2-1.8,4.4
	c-2.4,2.6-3.9,5.9-5.8,8.7c-2.1,3-4,6.2-6.7,8.7c-1.2,1.1-1.4,2.4-1.6,3.9c0,0.4-0.5,0.8-0.9,1c-0.6,0.3-1.3,0-1.7-0.5
	c-1.3-1.3-1.3-2.8-1-4.5c0.2-0.9,0.7-1.9-0.1-2.7c-0.5-0.5-1.6,0.3-2.4,1.9c-1.3,2.7-2.6,5.5-3.7,8.3c-1.3,3.6-4.4,4.3-7.4,5.3
	c-0.8,0.3-1.7-0.1-2.2-0.7c-1.5-1.9-3.3-2.7-5.9-2.3c-1.5,0.3-2.2-0.7-2.2-2.4c0-1.4,0.3-2.9,0.4-4.3c0.1-0.6,0.4-1.2,0.5-1.9
	c0.2-0.8,0.5-1.7-0.4-2.1c-0.7-0.3-1.1,0.4-1.6,0.8c-0.4,0.5-0.8,1-1.3,1.4c-0.2,0.2-0.6,0.3-0.9,0.2c-0.5-0.2-0.7-0.7-0.5-1.1
	c0.5-1.4,1.1-2.7,1.6-4c0.6-1.6,0.6-3.1-0.4-4.6c-1-1.5-2.9-1.8-4.2-0.7c-1,0.8-1.7,1.9-2.7,2.8c-0.3,0.3-0.9,0.4-1.3,0.2
	c-0.7-0.2-0.8-0.9-0.6-1.6c0.7-2.1,1.3-4.3,2.1-6.4c0.7-1.9,0.9-3.7-0.1-5.5c-0.7-1.3-0.9-2.8-0.1-4.1c1.6-2.8,1.1-5.2-1.1-7.4
	c-0.3-0.3-0.5-0.8-0.7-1.3c0-0.3,0-0.6,0-0.9c0.6-0.5,0.4-1.4,1-1.9l0,0c0.1-3.4,1.4-6.4,3.2-9.2c1-1.5,2.3-2.6,4.3-2.3
	c4.9,2.7,6,5.5,3.6,10.4c-1,2.1-1,4.3-1.9,6.4c-1.5,3.4-0.9,5.8,3.4,6.3c2.4,0.3,3.6,1.8,3.3,4c0.8-2.9,2.4-4.6,5.8-2.4
	c0.3,0.4,0.5,0.8,0.7,1.2c0.6,2.1-1.3,3.3-1.6,5.3c-0.6,5,2.2,7.6,6.9,6c1.6-0.6,2.7-0.4,3.8,0.8c0.2,0.3,0.4,0.6,0.5,1
	c0.1,0.2,0.1,0.4,0.2,0.5c0-0.1,0.1,0.1,0.1,0c0-0.1,0.2-0.1,0.2-0.2c0-0.1,0.2-0.2,0.2-0.3c0.2-0.3,0.4-0.5,0.6-0.8
	c3.6-5.5,7.1-11.1,10.1-16.9c3.2-6.3,8.4-8.6,14.8-9.2C102.1,70,102.3,70.1,102.5,70.3z"/>
<path fill="#525252" d="M51.5,58.7c-1.8,1.1-2.9,2.8-3.7,4.8c-0.9,2.2-2,4.3-4,5.8c-1-0.5-1.9-0.4-2.6,0.4c-1.1,1.1-2.2,2.3-3.2,3.6
	c-1.9,2.7-3.6,5.7-5,8.7c-0.9,1.9-1,1.9-3.3,1.7c-2.1-0.2-2.5,0-3.1,2c-0.3,1.1-0.5,2.2-0.9,3.2c-0.3,0.8,0,2.4-1.4,2
	c-0.9-0.3-0.7-1.7-0.5-2.6c0.4-1.7,1.1-3.3,1.6-5c1.2-4,2.3-8,3.5-12c0.6-2,1.3-3.9,2.4-5.7c3.4-5.6,6.8-11.1,10.2-16.7
	c0.8-1.4,1.8-2.6,3.2-3.5c0.3,0.6,0.5,1.2,0.9,1.7c1.4,1.6,1.5,3.1,0,4.7c-0.5,0.6-0.9,1.3-1.3,2c-0.9,1.6-1,2.8-0.2,3
	c1.1,0.3,1.7-0.6,2.5-1.2c1.4-1.1,2.8-1.9,4.7-2.2c2.4-0.4,4.2-2.2,5.9-3.9c4-3.9,8.5-7.2,12.8-10.8c1.4-1.1,2.8-2.1,4.6-2.5
	c0.4-0.1,1.1-0.1,1.3,0.2c0.4,0.4-0.1,0.9-0.5,1.1c-1.8,1.1-3.7,2-4.7,3.9c0,0.2,0,0.4-0.1,0.6c-0.2,0.6-0.6,1-1,1.4
	c-0.4,0.4-0.8,0.8-1.2,1.2c-0.3,0.3-0.5,0.6-0.8,0.9c-0.2,0.3-0.4,0.7-0.7,1c-1.5,1.3-3.4,2.3-4.4,4.1c-0.2,0.3-0.5,0.6-0.8,0.9
	c-0.3,0.3-0.5,0.6-0.8,0.9c-0.3,0.3-0.6,0.5-0.9,0.8c-0.2,0.1-0.3,0.2-0.5,0.3c-0.3,0.2-0.6,0.5-1,0.7c-1,0.7-1.8,1.6-2.2,2.7
	c-0.2,0.4-0.4,0.7-0.6,1c-0.3,0.3-0.6,0.6-0.9,0.8c-0.3,0.2-0.7,0.4-1.1,0.4c-0.2,0-0.4,0-0.6,0c-0.4-0.1-0.8-0.1-1.1-0.3
	C51.9,58.8,51.7,58.7,51.5,58.7z"/>
<path fill="#525252" d="M50.7,39.5c-0.4,1.5-1.4,2.5-2.9,2.8C48.4,41.2,49.4,40.2,50.7,39.5z"/>
<path fill="#525252" d="M43.9,69.2c-0.3,0.6-0.6,1.3-1,1.9C43.2,70.5,43.6,69.9,43.9,69.2z"/>
<path fill="#525252" d="M45.8,44.3c-0.3,0.3-0.6,0.6-0.9,1C45.2,44.9,45.5,44.6,45.8,44.3z"/>
<path fill="#525252" d="M46.8,43.3c-0.3,0.3-0.6,0.6-1,1C46.1,44,46.4,43.6,46.8,43.3z"/>
<path fill="#525252" d="M47.7,42.4c-0.3,0.3-0.6,0.6-1,1C47.1,43,47.4,42.7,47.7,42.4z"/>
<path fill="#575757" d="M115.9,82.7c0.3-0.6,0.7-1.2,1-1.9C116.5,81.4,116.2,82,115.9,82.7z"/>
<path fill="#575757" d="M114.9,83.7c0.3-0.3,0.6-0.7,0.9-1C115.6,83,115.2,83.3,114.9,83.7z"/>
<path fill="#616161" d="M125.9,54.1c0.7-0.2,1.5-0.7,1.9-1.3c-1.3,0.7-2.7,1.5-4.1,2.3C124.5,54.7,125.2,54.4,125.9,54.1z"/>
<path fill="#616161" d="M122.4,55.8c-1.5,0.8-2.9,1.6-4.4,2.4C119.5,57.6,121,56.7,122.4,55.8z"/>
<path fill="#616161" d="M156.2,52L156.2,52c0.3-0.3,0.6-0.6,1-1c0.6,0,1.3,0,1.9,0c0.3-0.3,0.6-0.6,1-0.9l0,0c0.5-0.6,1.4-0.4,1.9-1
	c0.3,0,0.6,0,1,0c0.3-0.3,0.7-0.6,1-0.9l0,0c0.5-0.6,1.4-0.4,1.9-1c0.3,0,0.6,0,1,0c0.3-0.3,0.6-0.6,1-0.9l0,0
	c-0.7-2.6-2.4-1.4-3.8-1l0,0c-3.8,2.4-7.9,4.1-12.4,4.7c-1.6,0.2-3.1,0.8-4.6,1.3c-1.4,0.5-2.8,0.8-4.2,0.6c-0.4,0-1-0.3-1.2-0.6
	c-0.3-0.5,0.2-0.9,0.6-1.1c3.3-1.7,6.6-3.1,10.2-4.1c0.8-0.2,1.5-0.5,2.2-0.9c0.2-0.1,0.5-0.5,0.5-0.8c0-0.3-0.2-0.6-0.5-0.7
	c-0.4-0.2-0.9-0.4-1.4-0.4c-2.7-0.1-5.4-0.2-8.1,0.3c-1.4,0.3-2.5,0-3.2-1.4c-0.5-0.5-0.9-0.9-1.6-1.1c-0.4,0-0.9,0-1.3,0.2
	c-0.4,0.2-0.8,0.3-1.2,0.4c-1.9,0.4-3.5,1.7-5.3,2.4c-1.4,0.6-2.6,1.9-2.2,3.7c0.4,1.8,1.5,2.5,2.3,2.4c-1.5,0.7-3.1,1.5-4.7,2.4
	c-0.4,0.6-1.2,1.1-1.9,1.3c-0.8,0.3-1.5,0.6-2.2,0.9c-0.4,0.2-0.9,0.5-1.3,0.7c-1.5,0.9-2.9,1.8-4.4,2.4c1.5-0.8,2.9-1.6,4.4-2.4
	c0.4-0.3,0.9-0.5,1.3-0.7c1.4-0.8,2.7-1.5,4.1-2.3c0.4-0.6,0.6-1.4,0.2-2.3c-0.7-2-2.4-2.5-4.3-1.9c-1.1,0.3-2.1,0.9-3.1,1.3
	c-6.4,2.9-12.1,7.1-17.7,11.2c-2.4,1.7-5.7,3.8-0.7,6.6c0.6,0.4-0.6,1.7,0.2,2.5c0,0,0.1,0.1,0.1,0.1c1.5,0.6,1.6,1.8,1.3,3.2
	c-1.2,5.2-3.1,10.1-6.2,14.4c-2.2,3.1-3.4,6.2-3.7,8.9c1.2-0.1,1.8-1.2,2.9-1.6c0.9-0.9,1.9-1.8,2.6-2.8c4-5.2,7.7-10.6,10.8-16.4
	c0.6-5.3,4-8,8.4-10.6c5.6-3.3,11.5-6.1,17.5-8.4c5.3-2.1,10.8-4.5,16.8-2.7C154.6,54.4,155.7,53.6,156.2,52z"/>
<path fill="#5A5A5A" d="M157.3,53.1c-0.4-0.4-0.7-0.7-1.1-1.1c-1.2,0.6-2.5,0.9-3.9,0.9c-3.3-0.1-6.3,1.8-9.7,1.8
	c-1.3,0-2.4,1.3-2.3,3c0.4,1.1,1.2,1.7,2.3,2c5.1-1.2,10.2-2.5,14.4-5.9C157.1,53.6,157.2,53.3,157.3,53.1z"/>
<path fill="#5A5A5A" d="M160,50c0.6-0.3,1.3-0.6,1.9-1C161.3,49.4,160.7,49.7,160,50z"/>
<path fill="#5A5A5A" d="M163.9,48.1c0.6-0.3,1.3-0.6,1.9-1C165.2,47.5,164.5,47.8,163.9,48.1z"/>
<path fill="#5A5A5A" d="M166.8,47.2c0.3-0.3,0.6-0.6,1-0.9C167.4,46.5,167.1,46.8,166.8,47.2z"/>
<path fill="#5A5A5A" d="M159.1,51c0.3-0.3,0.6-0.6,1-0.9C159.7,50.4,159.4,50.7,159.1,51z"/>
<path fill="#5A5A5A" d="M162.9,49.1c0.3-0.3,0.6-0.6,1-0.9C163.6,48.4,163.2,48.8,162.9,49.1z"/>
<path fill="#5A5A5A" d="M156.2,52c0.3-0.3,0.6-0.6,1-1C156.8,51.3,156.5,51.6,156.2,52z"/>
<path fill="#7C7C7C" d="M138.9,43.3c-2.3,0.6-4.6,1.5-6.3,3.2c-0.3,0.3-0.4,0.9-0.4,1.3c0.1,0.5,0.7,0.6,1.1,0.6
	c1.6-0.3,3.1-0.6,4.7-0.9c0.6-0.1,1.3-0.1,1.6,0.7c0.2,0.7-0.3,1.2-0.8,1.6c-1.1,0.7-2.1,1.5-3.3,1.8c-4.5,1.4-8.4,3.9-12.7,5.7
	c-1.4,0.6-2.7,1.7-4,2.6c-2.8,1.9-6.6,2.8-6.4,1.8c0.6-2.5,2.7-3.8,4.8-5c2.5-1.4,5.1-2.7,7.6-4c0.4-0.2,0.8-0.5,1.2-0.8
	c0.2-0.2,0.3-0.6,0.2-0.9c-0.1-0.2-0.5-0.5-0.7-0.5c-1.5,0-2.7,0.8-3.9,1.6c-1,0.6-1.8,1.6-2.8,1.8c-6,1.5-9.6,6.7-14.9,9.2
	c-0.7,0.3-1.3,0.9-1.9,1.5c-0.2,0.2-0.3,0.6-0.2,0.9c0.1,0.2,0.6,0.5,0.8,0.4c1-0.4,2-0.9,3.1-1.3c0.7-0.3,1.5-0.6,2.2-0.7
	c0.7-0.1,1.3,0.2,1.4,1c0,0.4-0.3,1-0.6,1.1c-1.1,0.6-2.3,1.1-3.4,1.7c-1.1,0.6-2.1,1.4-2.9,2.5c-0.6,0.7-1.2,1.4-1.8,2.2
	c-1.3,1.6-2.8,2.6-4.9,1.5c-0.9-0.5-1.9,0-2.5,0.8c-2.7,3.7-5.5,7.4-8.1,11.2c-2.7,4-5.1,8.1-7.6,12.1c-0.3,0.3-0.6,0.6-0.9,1l0,0
	c-0.3,0.3-0.7,0.6-1,1l0,0c-2.2-0.3-1.4-1.7-1-2.9l0,0c0.1-5.3,4.6-8.5,6.1-12.1c-1.2,2.3-3.2,5.3-5.3,8c-2.6,3.4-4.9,2.8-7.5-0.7
	c-2-2.7-4.8-4.8-2.9-8.6c-0.6-3.3,0.5-5.8,3.3-7.7c1.5-1.1,2.4-2.9,3.7-4.2c-1.4,1.3-2.2,3.2-3.9,4.1c-2.6,1.4-13.4-3.5-14-6.4
	c-0.3-1.2-0.5-2.7,0.1-3.8c2-3.4,2.9-6.9,2.5-10.9c-0.1-1,1-1.9,1.6-2.8c0.3,0,0.6-0.1,0.9-0.1c1.9-0.1,2.6-1.7,3.8-2.7
	c2.8-2.5,5.9-2.3,6.8,1.1c1,3.6,4.3,4.5,6.2,6.8c1.6,1.9,4.1,1,5.5-0.7c5.3-6.1,13-8.6,19.1-13.6c2.9-2.4,6.6-3.8,10.6-4.1
	c2-0.2,3.7-0.8,5.3-1.8c-0.1,0.1,0,0-0.1,0.1c-6,2.6-6.5,1.7-7.1-4.3c-0.5-5,2.2-7,5.3-9.4c0-0.4,0.2-0.8,0.5-1.2
	c0.9,0,1.9-0.1,2.8-0.1c0.5-0.6,1.4-0.3,1.9-0.9c0.3,0,0.6,0,1,0c0.8-0.9,2.1-0.1,2.9-0.9c0.6,0,1.3-0.1,1.9-0.1
	c0.3-0.3,0.7-0.6,1-0.9c1,0,1.9,0,2.9-0.1c0.7-0.6,1.5-0.5,2.2-0.4c1,0.1,2.5-0.6,2.8,1c0.3,1.7-0.8,3.1-2.2,3.1
	c-5.1,0.3-4.4,3.7-2.7,6c2.2,3.1,1.4,5.5,0.1,8.3c-3.5,3.3-8.3,3.6-12.5,5c-8.2,2.8-15.8,6.6-22.6,11.9c-0.8,0.6-1.8,0.7-2.5,1.3
	c7.6-4.7,14.6-10.4,23.6-12.3c2.4,2,5,0.9,7.3,0.1c5.3-1.8,10.4-4.1,16.1-3.8l0,0c1.7-0.5,3.7-1.3,2.9,1.9l0,0
	c-0.5,0.7-1.4,0.3-1.9,0.9l0,0C139.6,42.7,139.2,43,138.9,43.3z"/>
<path fill="#898989" d="M114.9,23.2c0.7,0.3,1,0.8,0.6,1.5c-0.7,1.1-1.8,1.7-2.9,2.4c-1.1,0.7-1.4,1.8-0.9,2.9
	c0.9,2,1.1,3.9-0.5,5.7c-0.5,0.6,0.4,1.6,1.3,1.5c2.5-0.5,4.9-1.3,7.1-2.5c0.6-0.6,1.3-0.6,1.9,0c0.1,1-0.4,1.5-1.2,1.8
	c-4.5,2-9,4-13.6,5.8c-2.7,1.1-5.1,2.5-7.4,4.3c-2.2,1.8-4.7,3.3-7.3,4.6c-3,1.5-5.7,3.5-8,6c-1.3,1.4-2.6,2.8-4.5,3.6
	c-2,0.9-3.7,0.6-5.2-0.9c-0.7-0.7-1.2-1.5-1.8-2.3c-1.4-1.7-2.1-1.9-4.1-0.9c-0.6,0.3-1.1,0.7-1.6,1c-0.2,0.1-0.7,0.1-0.9,0
	c-0.5-0.3-0.4-0.8-0.2-1.3c0.6-1.1,1.3-2.2,1.9-3.3c0.5-0.9,0.4-1.9-0.3-2.7c-0.8-0.9-2.1-1.3-3-0.8c-1,0.5-1.8,1.3-2.7,1.9
	c-0.8,0.6-1.7,0.8-2.7,0.3c0,0,0,0,0,0c0.4-0.3,0.6-0.6,1-1l0,0c0.4-0.3,0.7-0.7,1-1c1.6-1.9,3.2-3.8,4.9-5.7c0.3-0.4,0.6-0.7,0.9-1
	l0,0c0.4-0.4,0.8-0.5,1.3-0.3c3.7,0.5,6.6-1.5,9.3-3.4c8.5-5.8,17.8-9.4,27.5-12.5c1.2-0.4,2.3-1,3.2-1.9c0.3-0.4,0.6-0.7,1-1.1
	c0.6,0,1.2-0.1,1.8-0.1c0.5-0.5,1.4-0.3,2-0.9c0.3,0,0.6,0,0.9-0.1C114.3,22.8,114.6,22.8,114.9,23.2z"/>
<path fill="#6E6E6E" d="M150.8,28.9c0-0.3-0.6-0.7-1-0.9c-0.8-0.4-1.8-0.8-2.6-1.2c-0.6-0.3-0.6-1.2,0-1.6c1.6-1.1,3.2-2.1,5.3-1.5
	c0.9,0.2,1.9,0.4,2.8,0.1c0.1-0.1,0.3-0.2,0.4-0.3c0-0.3,0-0.7-0.1-0.8c-0.3-0.3-0.8-0.5-1.2-0.7c-4.7-2-9.8-2.8-14.8-3.8
	c-3.6-0.7-7-0.2-10.3,1.1c0.8,0,1.6,0,2.4,0.1c0.3,0,0.7,0.3,0.7,0.5c0,0.2-0.3,0.6-0.5,0.7c-1.1,0.3-2.2,0.4-3.3,0.7
	c-2,0.4-4.1,0.9-6.1,1.4c-0.6,0.2-1.1,0.7-1,1.5c0,0.7,0.5,1.2,1.1,1.3c0.9,0.2,1.9,0.1,2.8,0.3c0.7,0.2,1.1,0.8,0.8,1.5
	c-0.5,1-1.3,1.8-1.8,2.8c-0.6,1.2,0.2,2.2,1.5,2.4c1.1,0.1,2.7-0.9,3.1,0.2c0.5,1.6-1.6,1.5-2.5,2.3c-0.1,0.1-0.3,0.2-0.4,0.3
	c-0.3,0.5-0.2,0.9,0.3,1.1c0.6,0.2,1.3,0.2,1.9,0.2c0.4,1.8-1.2,1.4-2,1.9c-3.6,2.3-8.5,2.1-11.4,5.8c0.9,1.8,2.4,1.8,4.1,1.6
	c7-1.1,13.7-3.1,19.9-6.4c-0.6-0.1-1.4-0.1-1.6-0.8c-0.3-0.8,0.4-1.1,1-1.3c1.9-0.8,4-1.1,5.8-2.2c0.8-0.5,1.8-0.9,1.9-2
	c0.2-2.2,1.7-2.9,3.5-3.3C150.1,29.8,150.9,29.7,150.8,28.9z"/>
<path fill="#A0A0A0" d="M109.2,25.1c0.4,0.9,0,1.6-0.8,2c-2.6,1.2-5.2,2.4-7.9,3.5c-4.6,1.9-9.2,3.7-13.7,5.6
	c-1.6,0.7-3,1.7-4.5,2.7c-3.5,2.3-7.2,4.1-11.1,5.6c-1.4,0.5-2.5,0.4-3.2-1c0.1-0.4,0.3-0.6,0.6-0.7c0.5-0.2,0.8-0.6,1.3-0.8
	c0.3-0.1,0.6-0.3,0.9-0.5c0,0,0,0,0,0c2.6-0.8,4.9-2.3,7.1-3.9c4.4-3.2,9.2-5.7,14.3-7.6c2.2-0.8,4.5-1.6,6.5-2.9l0,0
	c0.8-0.9,2.1-0.1,2.9-0.9c0.3,0,0.6,0,0.9-0.1c0.5-0.5,1.1-0.4,1.8-0.4c1-0.1,2.1,0.3,3-0.4l0-0.1C107.9,24.5,108.5,24.5,109.2,25.1
	z"/>
<path fill="#6E6E6E" d="M147.6,37.7c-2.9,0.8-6,0.3-8.7,1.8c1.3,0.1,2.4,0.6,2.9,1.9c5.1-0.5,8.6-1.9,11.2-4.4
	C151,37.3,149.3,37.3,147.6,37.7z"/>
<path fill="#6E6E6E" d="M123.6,20.4c-0.9,0.6-1.8,0.8-2.9,0.9C121.5,20.6,122.5,20.4,123.6,20.4z"/>
<path fill="#6E6E6E" d="M101.5,26.1c-0.9,0.6-1.9,0.9-2.9,0.9C99.5,26.4,100.5,26.1,101.5,26.1z"/>
<path fill="#898989" d="M107.2,25.1c-0.9,0.6-1.9,0.8-2.9,0.9c-0.6-0.4-0.6-0.7,0.1-0.9C105.4,25.1,106.3,25.1,107.2,25.1z"/>
<path fill="#6E6E6E" d="M104.4,25.1c0,0.3,0,0.6-0.1,0.9c-0.6,0-1.3,0-1.9,0C103.1,25.7,103.7,25.4,104.4,25.1z"/>
<path fill="#6E6E6E" d="M109.2,25.1c-0.6,0-1.3,0-1.9,0c0.7-0.3,1.3-0.6,2-0.9C109.2,24.5,109.2,24.8,109.2,25.1z"/>
<path fill="#6E6E6E" d="M113,23.2c-0.7,0.3-1.3,0.6-2,0.9C111.7,23.8,112.4,23.5,113,23.2z"/>
<path fill="#6E6E6E" d="M119.7,21.3c-0.6,0.3-1.3,0.6-1.9,0.9C118.4,21.9,119.1,21.6,119.7,21.3z"/>
<path fill="#6E6E6E" d="M139.9,42.4c0.6-0.3,1.3-0.6,1.9-0.9c0,0.3,0,0.6,0,0.9C141.2,42.4,140.5,42.4,139.9,42.4z"/>
<path fill="#6E6E6E" d="M126.4,19.4c-0.3,0.3-0.7,0.6-1,0.9C125.8,20,126.1,19.7,126.4,19.4z"/>
<path fill="#6E6E6E" d="M114.9,23.2c-0.3,0-0.6,0-1,0c0.3-0.3,0.7-0.6,1-0.9C114.9,22.6,114.9,22.9,114.9,23.2z"/>
<path fill="#848484" d="M151.1,51.4c-4.4,1.5-9.1,1.5-13.4,3.3c-4.7,1.9-9.6,3.3-14.2,5.5c-5.7,2.8-10.9,6.4-16.5,9.4
	c-0.7,0.4-1.2,1.1-1.4,1.9c-0.2,0.8,0.3,1.7,1.1,1.7c0.3,0,0.6-0.1,0.9-0.2c1.2-0.4,1.8-0.1,1.9,1.2c0.1,0.6,0.4,1.2,0.5,1.8
	c2.2-1.9,4.4-3.9,6.7-5.8c7.9-3.8,15.7-7.7,23.5-11.8c0.2-0.1,0.3-0.5,0.4-0.8c1.4-1.2,3-1.6,4.7-1.9c2.5-0.4,4.8-1.3,6.9-2.8
	C152.5,51.9,152.2,51.1,151.1,51.4z"/>
<path fill="#3F3F3F" d="M116.8,70.2c7-6,15.2-9.8,23.9-12.6c0.7,0.3,1.3,0.6,2,1c-0.2,2.3-2.4,2.3-3.8,2.9c-4.6,2-9.1,4.2-13.2,7.3
	c-0.4,0.2-0.8,0.5-1.1,0.8c-0.4,0.3-0.7,0.5-1.2,0.7c-1.5,0.5-2.6,2.9-4.6,1C118.2,70.9,117.5,70.6,116.8,70.2z"/>
<path fill="#3E3E3E" d="M84.2,119.2c0.2-1.2,0.9-2.2,1.9-2.9C85.9,117.5,85.2,118.5,84.2,119.2z"/>
<path fill="#707070" d="M58.3,52c0,0.6-0.2,1.7,0,1.8c2.2,1.3,1.3,3.3,1.4,5.1c0.1,1.6-1,2.6-2,3.7c-0.9,0.9-1.7,1.9-2.5,2.9
	c-0.6,0.8-0.5,1.8,0.1,2.7c0.9,1.4,2.1,2.4,3.8,2.7c0.5,0.1,1,0.1,1.4,0c2.2-0.5,3.6,0.3,4.6,2.3c0.6,1.2,1.6,1.2,2.8,0.1
	c2.1-2,4.1-4,6.2-6c0.6-0.5,1.1-1.2,2-1.2c0.2,0,0.4,0.3,0.6,0.6c0.1,0.1,0,0.3,0,0.4c-2.5,3.5-4.1,7.6-7.3,10.6
	c-1.8,1.7-2.7,4-4.3,5.7c-1.4-0.8-2.5-0.5-3.2,0.9c-0.9,1.7-1.8,3.4-2.7,5.1c-0.3,0.5-0.7,1-1.2,1.5c-0.1,0.1-0.6,0-0.8,0
	c-0.1,0-0.2-0.3-0.2-0.4c0.1-0.8,0.3-1.6,0.5-2.3c0.4-1.1,0.7-2.1,0.7-3.2c-0.1-1.2-1-2.2-2.2-2c-0.9,0.1-1.8,0.5-2.8,0.6
	c-2,0.3-3.1-0.4-3.3-2.5c-0.3-2.5-0.4-5.1,0.7-7.5c0.8-1.7,1.4-3.6,2.2-5.3c1.4-3.1,1.8-6.1-0.8-8.9c-0.2-0.2-0.3-0.6-0.4-0.9l0,0
	c0.4-0.3,0.6-0.6,1-1l0,0c0.3-0.3,0.6-0.6,1-1l0,0c0.3-0.3,0.6-0.7,1-1C55.5,54.3,56.7,53,58.3,52z"/>
<path fill="#707070" d="M65,83.6c0.2,0.8,0.2,1.6,0.5,2.3c0.4,1.3,1.4,2.1,2.8,2c0.5,0,1-0.1,1.4,0c1.1,0.1,1.7,0.9,1.7,1.9
	c0,0.3-0.1,0.6-0.1,0.9c-0.1,1-1.4,2.4-0.3,3c1.6,0.9,2.4-1,3.2-2c2.8-3.8,5.6-7.7,8.4-11.6c0.4-0.5,0.9-0.9,1.3-1.2
	c0.1-0.1,0.3,0,0.4,0.1c0.1,0.1,0.2,0.2,0.3,0.4c0.1,0.1,0.1,0.4,0,0.5c-3.4,5.5-5.8,11.6-9.7,16.9c-0.1,0.1-0.2,0.2-0.4,0.3
	c-0.8-1.1-1.8-1.4-2.7-0.3c-0.6,0.7-0.9,1.7-1.5,2.4c-0.4,0.6-1,1.2-1.6,1.7c-0.8,0.6-2.1,0.3-2.4-0.6c-0.3-0.9-0.4-1.9-0.7-2.8
	c-0.5-1.6-1.4-2-2.9-1.4c-0.9,0.3-1.8,1.9-2.9,0.6c-0.8-1,0.1-2.1,0.5-3.1C62,90.3,63.5,87,65,83.6z"/>
<path fill="#707070" d="M74.6,97.1c0.1,1.1,0.3,2,1,2.9c-0.6,0.9-0.7,2.2-2,2.4c-0.8,0.2-0.9-1.3-0.1-3.3
	C73.8,98.4,74.2,97.8,74.6,97.1z"/>
<path fill="#707070" d="M75.6,100c0.3-0.3,0.6-0.6,1-1C76.2,99.3,75.9,99.7,75.6,100z"/>
<path fill="#707070" d="M76.5,99c0.3-0.3,0.6-0.6,0.9-1C77.2,98.4,76.8,98.7,76.5,99z"/>
<path fill="#6E6E6E" d="M68.8,43.3c-0.3,0-0.6,0.1-0.8,0.1c-0.3,0-0.7,0-1-0.1c0.6-0.4,1.2-0.7,1.8-1.1c0.2,0.2,0.3,0.3,0.5,0.5
	C69.1,43,69,43.1,68.8,43.3z"/>
<path fill="#6E6E6E" d="M70.8,41.4c-0.3,0.3-0.6,0.7-1,1c-0.3,0.3-0.6,0.3-1,0l-0.1-0.1C69.5,42,70.1,41.7,70.8,41.4z"/>
<path fill="#6E6E6E" d="M66.9,43.4c-0.3,0.3-0.6,0.6-0.9,1C66.3,44,66.6,43.7,66.9,43.4z"/>
<path fill="#616161" d="M53.5,56.8c-0.3,0.3-0.6,0.6-1,1C52.8,57.4,53.1,57.1,53.5,56.8z"/>
<path fill="#616161" d="M54.4,55.8c-0.3,0.3-0.6,0.6-1,1C53.8,56.4,54.1,56.1,54.4,55.8z"/>
<path fill="#616161" d="M52.5,57.7c-0.3,0.3-0.6,0.6-1,1C51.9,58.4,52.2,58,52.5,57.7z"/>
<path fill="#7C7C7C" d="M61.1,50c-0.3,0.3-0.6,0.7-1,1C60.5,50.7,60.8,50.3,61.1,50z"/>
<path fill="#7C7C7C" d="M60.2,51c-0.3,0.3-0.6,0.6-1,1C59.5,51.6,59.9,51.3,60.2,51z"/>
<path fill="#6E6E6E" d="M138.9,43.3c0.3-0.3,0.6-0.6,1-0.9C139.5,42.7,139.2,43,138.9,43.3z"/>
<path fill="#898989" d="M128.4,36.6c0.6-0.2,1.2-0.4,1.8-0.5c0.3,0,0.7,0.1,0.8,0.3c0.3,0.5,0.1,1-0.3,1.2
	c-5.3,2.1-10.1,5.4-15.7,6.7c-2.6,0.9-5.2,1.6-7.3,3.5c-0.3,0.3-0.8,0.5-1.3,0.7c-5.6,1.8-10.1,5.4-14.6,8.9c-1.3,1-2.6,1.8-4,2.6
	c-0.6,0.3-1.3,0.4-1.7-0.3c-0.2-0.3,0-1,0.2-1.3c0.8-1.3,1.9-2.2,3.2-2.8C94.7,53,99,49,104,46.3c3.1-1.6,6.3-3,9.6-4.3
	C118.5,40.1,123.4,38.4,128.4,36.6z"/>
<path fill="#6E6E6E" d="M121.6,34.7c-0.6,0-1.3,0-1.9,0c-0.1-0.5-0.1-1,0.4-1.1C121.1,33.2,121.3,34,121.6,34.7z"/>
<path fill="#898989" d="M68.9,42.4c0.3,0,0.6,0,1,0c-0.3,0.3-0.7,0.6-1,0.9C68.8,43,68.8,42.7,68.9,42.4z"/>
<path fill="#8D8D8D" d="M124.5,68.3c-0.3,0.3-0.7,0.6-1,0.9C123.8,68.9,124.2,68.6,124.5,68.3z"/>
</svg>
