<?xml version="1.0" encoding="utf-8"?>
<!-- Generator: Adobe Illustrator 18.1.1, SVG Export Plug-In . SVG Version: 6.00 Build 0)  -->
<svg version="1.1" id="Layer_1" xmlns="http://www.w3.org/2000/svg" xmlns:xlink="http://www.w3.org/1999/xlink" x="0px" y="0px"
	 viewBox="0 0 127.5 290" enable-background="new 0 0 127.5 290" xml:space="preserve">
<path fill="#DDDDDD" d="M119,111.4c0.7,1.3,0.9,2.7,0.8,4.2c-0.2,5.4,0.2,10.8,1.1,16.2c1,6,0.8,12.1,0.8,18.1
	c-1.2,3.4-2.6,6.8-2.7,10.6c-0.1,3.1-1.9,5.7-4.1,7.9c-2.4,2.5-3.8,2.3-6.2-1c-1.4-9.7-3.1-19.3-1-29.1c-0.2-1.9,0.5-3.8-0.7-5.6
	c-0.2-0.5-0.2-1.1-0.2-1.6c-0.8-9,2.6-17.2,4.8-25.6c0.3-1.2,1-2.1,2.2-2.1c1.5,0,2.3,1,2.4,2.4c0.1,1.5,0.7,2.7,1.2,4.1
	c0.2,0.5,0.4,1.2,0.9,1.6C118.6,111.3,118.8,111.4,119,111.4z"/>
<path fill="#656565" d="M19.4,220.7C19.4,220.7,19.5,220.6,19.4,220.7C19.4,220.1,19.4,220.3,19.4,220.7z"/>
<path fill="#656565" d="M14.3,190.9c0.1,0.4,0.2,0.8,0.4,1.1c0.1-1.3,0.1-2.6,0.2-4C14.6,188.9,14.5,189.9,14.3,190.9z"/>
<path fill="#656565" d="M31.1,234c0.6,1.4,0.7,3.7,1.9,4.8c0,0,0,0,0,0C31.8,237.2,31.6,235.4,31.1,234z"/>
<path fill="#656565" d="M28.1,212.3c-2-4.6-4.6-9-4.2-14.3c0-0.5-0.1-1-0.3-1.5c-1.5-2-2.7-4.1-3.1-6.7c-0.2-1.5-0.8-3-2.7-3.4
	c-1.7,0-2.4,0.7-2.8,1.6c0,1.3-0.1,2.6-0.2,4c0.1,0.1,0.1,0.2,0.2,0.3l0-0.2c1.3,1.1,0,2.8,1.1,4c1,6.9,2.1,13.9,2.2,20.9
	c0,1.4,0.4,2.8,0.6,4.2c0.3-0.1,0.6-0.2,0.6-0.4c-0.1-0.4-0.1-0.6,0-0.1c0,0,0,0.1,0,0.1c0,0.1,0,0.2,0.1,0.3
	c0.5,1.7,0.3,3.5,0.4,5.2c0.4,6.1,2.6,11.9,3.5,17.9c0.3,1.7,1.7,2.8,3.6,2.4c2-0.5,2-2.1,1.7-3.8c-0.3-1.7-1-3.3-1.5-4.9
	c0.4,1,0.9,2.1,1.2,3.1c0.4,2,1.2,3.6,3.5,2.5c2.1-0.9,2.6-2.8,1.1-4.7c-1.3-1.1-1.4-3.3-1.9-4.8c0.6,1.4,0.7,3.2,1.9,4.7
	c0,0,0,0,0,0c0.6,0.5,1.3,0.7,2.5,0.6c3.4-0.4,3.4-3.7,3.9-6.3C35.9,226,31.2,219.6,28.1,212.3z"/>
<path fill="#9F9F9F" d="M123.7,180.5c0,1.9,0,3.8,0,5.8c-2.1,4.2-0.9,8.7-0.9,13c-0.1,6-0.8,11.9-2.4,17.7c-2,7.4-3.4,15-6.4,22.2
	c-0.2,0.5-0.4,0.9-0.6,1.4c-0.2,0.4-0.5,0.9-0.8,1.3c-0.3,0.4-0.6,0.8-1,1.2c-0.5,0.3-1,0.4-1.5,0.5c-0.6-0.1-1-0.4-1.4-0.8
	c-2-3.9-0.3-8,0.6-11.6c1-4,0.8-7.8,0.2-11.6c-0.6-4.3-0.7-8.5-0.4-12.7c3.5-5,5.7-10.4,5.8-16.8c0.1-6.7,3.3-13,4-19.7
	c0.1-1.4,1.1-3.2,3.3-2.2C124,172.1,122.4,176.5,123.7,180.5z"/>
<path fill="#424242" d="M18.8,221.1c0.2-1.9,0.3-3.8,0.5-5.8c0.2,0.8-0.1-0.3,0.4,0.1c0.1,0.1,0.2,0.3,0.2,0.4
	c0.4,3.2,0.6,6.4,1.1,9.5c1,6.3,2.8,12.4,4.7,18.5c0.1,0.5,0.6,0.9,1.1,0.7c0.3-0.1,0.7-0.6,0.8-1c0.2-1.5-0.2-2.8-0.7-4.2
	c-1.1-2.7-1.1-5.6-1.7-8.4c0-0.2,0.2-0.7,0.4-0.8c0.2-0.1,0.7,0.2,0.8,0.4c0.6,1.8,1,3.7,1.6,5.5c0.6,1.8,1.2,3.6,1.9,5.4
	c0.1,0.3,0.8,0.7,1.1,0.6c0.7,0,1.1-0.7,1.1-1.3c0-0.8-0.2-1.6-0.4-2.3c-0.8-2.4-1.7-4.8-2.6-7.2c-0.3-0.9-0.6-1.8-0.9-2.7
	c-0.1-0.5-0.2-1,0.3-1.3c0.5-0.2,0.9,0.2,1.1,0.6c0.3,0.6,0.5,1.2,0.8,1.7c0.7,1.9,1.4,3.9,2.2,5.8c0.7,1.8,1.5,2.5,2.6,2.3
	c1.5-0.3,1.9-1.5,2.1-2.8c0.1-0.5,0.1-1,0.1-1.4c2.5-0.4,3.1,1.7,4.3,3.1c0.2,5.8-4.1,8-8.3,10.3c-2.7,1.5-5.4,3-7,5.8
	c-1.6,2-2,6.1-5,5.4c-2-0.5-0.8-4.2-0.7-6.5c0.1-8.4-0.5-16.7-1.6-24.9C18.9,224.7,18.8,222.9,18.8,221.1z"/>
<path fill="#C8C8C8" d="M110.2,168c0.8,0.2,1.6,0.3,2.2-0.3c1.4-1.6,2.7-3.1,3.9-4.8c1-1.3,1.4-2.9,1.4-4.5c0.1-1.9,0.2-3.8,1.2-5.6
	c0.8-1.5,0.1-3.1,0.3-4.7c0-0.3,0.3-0.6,0.5-0.7c0.2-0.1,0.6,0.1,0.8,0.3c0.4,0.7,0.8,1.4,1.2,2.1c0,0.3,0.1,0.6,0.1,0.9
	c0,0.3,0,0.6,0,0.9c0.3,10.1-0.6,20-5.9,28.9c-1.1,1.8-1.2,3.9-1.6,6c-0.3,1.7-1,3.2-2.9,3.2c-2.1,0-2.4-1.8-2.5-3.4
	c-0.1-5.1-0.1-10.2,0-15.3C108.8,169.7,109.1,168.7,110.2,168z"/>
<path fill="#C4C4C4" d="M116.9,111.4c-1-1.8-1.7-3.8-2.2-5.8c-0.1-0.2-0.5-0.5-0.7-0.5c-0.2,0-0.7,0.3-0.7,0.5c0,4.7-1.5,9-3.5,13.2
	c-0.1,0.3-0.2,0.6-0.2,0.9c-0.1,4-1.7,7.8-2.3,11.7c-0.3,0.7-0.6,0.7-0.9,0c0-0.6-0.1-1.2-0.1-1.8c-0.9-0.8-0.1-2.1-0.9-2.9
	c0-0.6,0-1.3-0.1-1.9c-0.7-2.6-0.8-5.1,0-7.7l0,0c1.3-2.8-0.3-5.9,1-8.6l0,0c1.3-2.8,3.3-5.3,3.4-8.6c0.1-2-0.1-4.5,2.5-5.1
	c2.7-0.6,2.4,2.4,3.7,3.6c0.8,1,0,2.4,0.9,3.3l0,0c1.2,1.8-0.3,4,0.9,5.8l0,0c0.9,0.8,0.1,2.1,0.9,2.9c0.1,0.3,0.1,0.6,0.2,0.9
	l-0.3,0.1C118.1,112,117.5,112,116.9,111.4z"/>
<path fill="#787878" d="M112.1,240c0.6-1.6,1.3-3.3,1.8-4.9c3.1-9,5.2-18.3,6.6-27.7c0.9-6.1,1.7-12.3,1.2-18.5
	c-0.1-1.4,0-2.8,0-4.3c1.5-0.1,1.2,1.4,2,1.8c0.1,3.8,0.3,7.7,0.3,11.5c0,3.2,0.2,6.4,0.8,9.5c0.4,6.7-0.7,12.9-5,18.3
	c-1,2.9-1.9,5.8-2.9,8.7c1.6,3.6,0.7,6.1-3.2,7.3C112.8,241.4,112.3,240.8,112.1,240z"/>
<path fill="#6B6B6B" d="M15,192.3c0-0.4,0.1-0.8,0.1-1.2c-0.1-0.4-0.2-0.7-0.3-1.1c0,0.8-0.1,1.6-0.1,2.4
	C14.8,192.4,14.9,192.3,15,192.3z"/>
<path fill="#6B6B6B" d="M17.2,113c-0.2,3.1-0.3,6.2-0.4,9.3c0.5-3.1,0.8-6.2,1-9.2C17.6,113,17.4,113,17.2,113z"/>
<path fill="#6B6B6B" d="M17.8,113c-0.2,3.1-0.5,6.1-1,9.2c-0.9,21.8-1.1,43.5-1.9,65.3c0.4-2.1,1.6-4.1,1.5-6.2
	c-0.4-9.6,1.2-19.1,1.8-28.6c0.8-11.1-0.7-22.2,1.1-33.2c0.3-2.1,0.7-4.5-1.1-6.4C18.1,113.1,18,113.1,17.8,113z"/>
<path fill="#AEAEAE" d="M115.9,98.9c-1.4-0.3-1.7-1.8-2.8-2.4c-1,0.4-1,1.3-0.9,2c0.4,3.9-1.4,6.6-4.3,8.9c-0.5,0.4-1,0.7-1.5,1.1
	c0.1-1.5,0.2-3.1,0.5-4.6c0.5-2.6,0.5-5.3,0.4-7.9c-0.5-6.3,1.1-12.1,3.7-17.8c0.4-0.3,0.9-0.5,1.4-0.6c0.6,3.6,1.2,7.1,1.8,10.6
	c0.5,2.9,1.2,5.8,1.8,8.8C116.5,97.7,116.5,98.3,115.9,98.9z"/>
<path fill="#C8C8C8" d="M123.7,180.5c-0.3-0.9-0.8-1.7-0.9-2.6c-0.4-3.3-0.7-6.5-1.1-9.8c-1.9-5.7-0.1-11.4-0.1-17.1
	c0,0,0.2-0.3,0.2-0.3c0.8,1.6,0.8,3.4,0.8,5.1c0.1,4.9,0.1,9.8,0.8,14.7C123.9,173.8,123.6,177.2,123.7,180.5z"/>
<path fill="#AEAEAE" d="M111.4,68.2c1.2,3,0.6,6.3,1,9.4c-0.2,0.1-0.3,0.2-0.5,0.3c-3.5-2.9-1.5-6.4-1.1-9.7
	C111,68.2,111.2,68.2,111.4,68.2z"/>
<path fill="#DDDDDD" d="M117.9,107.6c-1.2-1.8-0.9-3.8-0.9-5.8C118.1,103.6,117.8,105.6,117.9,107.6z"/>
<path fill="#DDDDDD" d="M115.9,98.9c0.1-0.6,0.1-1.3,0.2-1.9c0.9,1.5,0.9,3.1,0.9,4.8C116.3,100.9,116,99.9,115.9,98.9z"/>
<path fill="#6B6B6B" d="M16.1,196c0-1.4-0.1-2.8-1.1-4C15.1,193.4,15.2,194.8,16.1,196z"/>
<path fill="#DDDDDD" d="M118.8,110.5c-0.6-0.9-0.9-1.8-0.9-2.9C118.5,108.4,118.8,109.4,118.8,110.5z"/>
<path fill="#949494" d="M9.5,203.7c0.2-0.4,0.5-0.7,0.7-1.1C9.9,203,9.7,203.3,9.5,203.7z"/>
<path fill="#E7E7E7" d="M103.4,124.9c0.1,0.6,0.1,1.2,0.2,1.8c1,1.5-0.3,3.3,0.9,4.8l0,0c0.9,0.8,0.2,2.1,0.8,3
	c0.1,1.2,0.1,2.5,0.2,3.7c0.6,0.9,0.2,2.1,0.7,3c0.9,2.9,1.3,5.7-1.1,8.3c-1.1,1.3-0.4,3.2-0.4,4.8c0.1,2.3,0.5,4.7-0.5,6.9
	c-0.2,1-0.3,2-0.7,2.9c-1.6,1.8-4.1,1.8-4.9,0c-1.9-4.8-6.3-8.2-7.2-13.8c1.5,4.4-0.7,8-1.7,11.5c-0.8,2.6-3.3,3.4-5.6,0.7
	c-0.5-2.3-0.3-4.7-0.9-6.9c0.1-4.5,0.3-9,0.2-12.4c-0.1,1.6,0,4.3,0,7c0,1.9-0.4,3.6-2.5,3.8c-2.2,0.2-2.3-1.5-2.8-3.1
	c-1.6-6-0.5-12.1-0.9-18.1c-0.9-13.3-1.7-26.6-4-39.7c-0.2-1.3-0.5-2.5-0.7-3.7c-0.1-0.7-0.1-1.5-0.1-2.2c0-0.9,0-1.9,0.3-2.8
	c1.9-2.7,3.3-0.9,4.4,0.6c1.4,1.9,2.5,4.4,2.4,6.6c-0.3,3.2,0.8,5.9,1.6,7.7c-1.5-2.4-2.2-5.7-0.7-9.4c0.6-1.4,1.1-2.6,2.7-3.1
	c2.7-0.9,3.9,2.9,7,1.8c3.5-1.2,3.2,2.5,4.2,4.4c1.5,2.4,1.7,5.2,2.7,7.7c1.2,1.1,0,2.8,1,3.9c0,0.3,0,0.6,0.1,0.9
	c0.6,0.5,0.4,1.4,0.9,1.9l0,0c1,0.8,0.1,2.1,0.9,2.9c0,0.3,0,0.6,0.1,0.9c1.7,2,1,4.6,1.9,6.8c0,0.3,0.1,0.6,0.1,0.9
	c0.9,1.1-0.1,2.7,0.8,3.9l0,0C103.1,123.5,102.9,124.4,103.4,124.9z"/>
<path fill="#DADADA" d="M94,93.2c-0.4-0.5-0.8-1-1.1-1.6c-1-1.8-2.2-1.2-2.9-0.1c-0.2,0.3-0.3,0.6-0.5,0.8c-0.5,0.9-0.8,2.3-2.2,2.1
	c-1.3-0.2-1.7-1.4-2.1-2.4c-0.4-0.9-0.7-1.8-1.1-2.6c-0.1-0.2-0.5-0.3-0.7-0.4c-0.1,0-0.4,0.1-0.4,0.2c-0.7,3.1-3.3,6-1.1,9.5
	c0.3,0.5,0.5,1.2,0.5,1.8c0,1.9,2,3.8,0,5.7c-2-1.1-1.7-3.2-2.3-5c-1.6-5-3.2-10-4.8-15c-0.3-0.8-0.6-1.5-1.6-1.5
	c-0.5,0.2-0.9,0.2-1.4-0.1c-0.3-0.3-0.6-0.7-0.8-1.2c-0.2-1.4-0.4-2.9,0.1-4.2c0.7-1.8,1.8-2.2,2.6-0.9c-2.8-7-4-15.2-6.6-23
	c0.2-2.3,1.2-3.4,3.6-2.7c3.5,3.2,3.4,8.2,5.9,12c0.9,3.8,1.6,7.7,1.1,11.7c0,0.6,0.7,0,0.1,0.2c-0.2-2,0.3-4.1-0.1-6.1
	c0-0.5-0.1-0.9-0.1-1.4c0-1.2,0.1-2.3,1.3-3c0.4-0.2,0.9-0.2,1.4-0.1c0.7,0.3,1.1,0.8,1.5,1.3c0.3,0.4,0.5,0.7,0.8,1.1
	c1.8,2.1,2.2,5.3,5,6.7C90.5,80.9,93.2,86.7,94,93.2z"/>
<path fill="#B1B1B1" d="M121.6,151c0,5.7,0,11.4,0.1,17.1c-1.1,1.8-1.5,3.8-1.8,5.9c-0.8,4.7-1.6,9.4-2.5,14.1
	c-0.4,2.2-0.5,4.4-0.5,6.6c0,1.6-0.2,3.2-1,4.6c-1.3,2.2-2.4,4.5-3.1,6.9c-0.3,1.1-0.8,1.1-2.6,0.2c-0.3-0.1-0.5-0.3-0.7-0.6
	c-0.3-0.4-0.4-0.9-0.5-1.3c0.4,2.3,0.4,4.6,0.2,6.9c-0.2,2.2-1.3,3-3,0.8c-1.4-8.6,0.6-17.2,0.6-25.8c0-10.4,0.4-20.7-2-30.9
	c-1.1-4.5,1.8-8.4,1.1-12.7c0-0.6,0.1-1.2,0.6-1.7c0.8-1.2,0.9-2.5,1-3.8c0.3-0.7,0.6-0.7,0.8,0.1c0,2.2,0.1,4.4,0.1,6.6
	c0,3.5,0.1,6.9,0.6,10.4c0.7,4.5,0.8,9.1,1.2,13.7c0,5.6,0,11.1,0,16.7c0,0.9-0.1,1.9,0.5,2.7c0.1,0.1,0.3,0.1,0.4,0.1
	c0.1,0,0.3-0.1,0.4-0.1c0.7-0.8,0.6-1.8,0.5-2.7c-0.2-3.2,0.9-5.8,3.3-8c3.1-2.8,4.4-6.4,4.4-10.7c0-4.3,1.1-8.5,1.1-12.8
	C120.9,152.4,121.4,151.7,121.6,151z"/>
<path fill="#C7C7C7" d="M88.1,75c-2.3,0.6-4-0.2-4.9-2.4c-0.6-1.4-1.2-2.9-1.7-4.3c-0.5-5.7-3.1-10.4-6.6-14.7
	c-2.6-3.3-6.2-6.2-4.9-11.2c0.8-1.1,2-1.3,3.3-1.2c2.4,1.2,3.2,3.7,4.5,5.7c0.2,0.4,0.3,0.8,0.5,1.2c0.2,0.4,0.3,0.8,0.5,1.2
	c0.7,2.3,3.3,3.7,2.7,6.6c0.6,2.2,1.3,4.2,2.7,6.1c1.1,1.4,1.6,3.1,2,4.8C86.7,69.4,87.4,72.2,88.1,75z"/>
<path fill="#606060" d="M110.9,68.2c0.6,3.2-0.1,6.6,1.1,9.7c0.1,1.6,0.2,3.1-0.5,4.6c-2,4.3-3,8.9-4.2,13.4c-1,1.4-0.7,3.1-1.2,4.6
	c-1-0.1-0.6-0.9-0.7-1.3c-0.1-0.6-0.1-1.3,0-1.9c0.5-4.7,1.1-9.5,1.7-14.2c0.3-2.2,0.8-4.4,1.4-6.5c0.9-3,0.5-6,0.8-9
	c0-0.4,0.3-0.6,0.6-0.4c0.3,0.1,0.4,0.4,0.6,0.7C110.7,67.9,110.8,68.1,110.9,68.2z"/>
<path fill="#757575" d="M81.3,55.8c-1.3-2.2-3.1-4.1-3.9-6.6c0.1-0.8,0.1-1.7,0.9-2.3c0.4-0.2,0.8-0.1,1.1,0.3
	c0.5,3.2,2.8,5.6,4,8.5C82.8,56.1,82.1,56,81.3,55.8z"/>
<path fill="#AEAEAE" d="M106.3,108.5c-0.2,2.9,0.6,5.9-1,8.6C105.6,114.3,104.9,111.3,106.3,108.5z"/>
<path fill="#C4C4C4" d="M108.3,137.3c-0.3,0-0.6,0-0.8-0.1c-0.1-1.2-0.1-2.5-0.2-3.7c-0.3-0.3-0.4-0.5-0.2-0.7
	c0.1-0.2,0.2-0.3,0.4-0.3C108.3,134,108.3,135.7,108.3,137.3z"/>
<path fill="#B1B1B1" d="M105.4,141.1c0-0.9,0-1.9,0-2.8c0.3,0.9,0.6,1.9,1,2.8c0,0-0.2,0.2-0.2,0.2
	C105.8,141.9,105.6,141.9,105.4,141.1z"/>
<path fill="#B1B1B1" d="M105.4,126.8c0.6,0.9,0.9,1.9,0.9,2.9C105.7,128.8,105.4,127.8,105.4,126.8z"/>
<path fill="#B1B1B1" d="M107.4,132.5c0,0.4-0.1,0.7-0.1,1.1c-0.3-0.7-0.5-1.3-0.8-2c0.3,0,0.6,0,0.9,0
	C107.3,131.9,107.4,132.2,107.4,132.5z"/>
<path fill="#B1B1B1" d="M103.4,124.9c-0.3-0.7-0.6-1.3-0.9-2C102.8,123.6,103.1,124.3,103.4,124.9z"/>
<path fill="#9C9C9C" d="M61.4,232.7c-0.6,2.7-1.2,5.2-1.7,6.7C60.8,237.3,61.3,235.1,61.4,232.7z"/>
<path fill="#9C9C9C" d="M39,197.6c0.3,0.7,0.5,1.4,0.9,2.1C39.6,198.8,39.3,198.1,39,197.6z"/>
<path fill="#9C9C9C" d="M44.4,188.8c0-0.8,0-1.5-0.1-2.2c0,0.8,0,1.6,0,2.3C44.4,189.3,44.4,189.1,44.4,188.8z"/>
<path fill="#9C9C9C" d="M64.8,241c0.9-3.1,1.4-6.2,1.6-9.4c0.1-1.4-0.5-2.6-2.1-2.8c-1.5-0.2-2.3,0.6-2.6,2.1
	c-0.1,0.6-0.3,1.1-0.4,1.7c-0.1,2.4-0.6,4.7-1.7,6.7c0.5-1.5,1.1-4,1.7-6.7c0.2-4.1-0.7-8.7-1.4-13.3c-2-1.8-2.7-4.2-1.9-6.5
	c1.1-3.3,0.6-6.6,0.8-9.9c0-2.5,0-5.1,0-7.6c0-1.8-0.7-3.2-2.7-3.3c-2.2-0.1-3,1.4-3,3.3c0,2.5,0,5.1,0,7.6c-0.7-9,1.5-18.4-3.1-27
	c-1.3-2.6-0.5-5.4-0.8-8.2c-0.1-1.2,0-2.5,0-3.7c-0.1-2.3-1.3-4.2-3.3-4.7c-2.5-0.6-3.4,1.6-3.9,3.7c0,0.6,0,1.1,0.1,1.6
	c1.4,7.3,2,14.7,2.1,21.7c0.1,0.7,0.1,1.4,0.1,2.2c0,0.3,0,0.5-0.1,0.1c0-0.8,0-1.6,0-2.3c-0.3-1.7-1.2-2.9-3.5-2.9
	c-3.1,0.1-2.9,2.6-3.1,4.9c-0.3,3.2,0.3,6.1,1.4,9c0.3,0.5,0.5,1.2,0.9,2.1c-0.3-0.7-0.6-1.4-0.9-2.1c-0.6-1.3-1.2-1.7-2.3-1.8
	c-1.8-0.2-2.9,0.8-3.7,2.4c-0.5,1-1.4,1.8-1.8,2.8c0,0.1,0,0.1,0,0.2c6.6,18.8,14.2,39,27.6,53.7c0.3-0.4,0.6-0.8,0.9-1.4
	C61.9,249.7,63.6,245.4,64.8,241z"/>
<path fill="#AEAEAE" d="M116.9,111.4c0.6,0,1.2,0,1.7,0c0.1,0.6,0.2,1.2,0.2,1.8c0,0.9,0.1,1.9-0.7,2.5c-0.5,0.4-1.1-0.7-1.2-2.5
	C116.9,112.6,116.9,112,116.9,111.4z"/>
<path fill="#313131" d="M13.8,185.4c-0.3,1.1-0.8,2.8,0.8,3.8c0.1,0,0.2,0,0.3-0.1c0.2-4,0.3-7.9,0.4-11.9
	C15,180,14.5,182.7,13.8,185.4z"/>
<path fill="#313131" d="M23.9,197.6c-0.5-0.1-1.2-0.1-2,0.1c0,0,0,0,0,0c0,0,0,0,0,0C22.8,197.7,23.4,197.6,23.9,197.6z"/>
<path fill="#313131" d="M41.1,231.1c-0.1-4.3-0.7-8.5-2.1-12.6c-1.6-4.7-3.2-9.3-4.8-13.9c-0.6-0.5-0.3-1.4-0.8-1.9
	c-0.1-0.3-0.2-0.6-0.2-0.9c0.5-6.1-3.5-10.9-5.1-16.3c-2.2-6.8-4.3-13.7-5.7-20.7c-0.2-0.9-0.2-1.9-0.5-2.8
	c-0.6-1.8-1.5-3.9-3.7-3.8c-2.7,0.2-1.4,2.7-1.6,4.2c-0.6,5-0.7,10-1.3,14.9c-0.1,4-0.2,7.9-0.4,11.9c1.1-0.6,0.8-3.5,3.1-1.8
	c0.1,0.8,0,1.6,0.3,2.4c1.1,2.7,1.1,5.9,3.6,8.1c0,0,0,0,0,0c0.9-0.2,1.5-0.2,2-0.1c1.3,0.1,1.6,1,2.6,4.6c-0.8-1.3-0.5-4.1-2.6-4.6
	c-0.5,0-1.1,0.1-2,0.2c0,0,0,0,0,0c-0.1,2.3,0.4,4.4,1.1,6.5c3.4,10.4,8.1,20,14.3,29c0.3,0.7,0.7,1.3,1,2c0.4,0.8,1,1,1.9,0.9
	C41,234.6,41.2,232.9,41.1,231.1z"/>
<path fill="#414141" d="M15.1,191.1c1-1.2,1-3.2,2.8-3.7c-1.2-1.1-1.3-1.2-3-0.2c0,1.3-0.1,2.6-0.1,3.9
	C14.9,191.1,15,191.1,15.1,191.1z"/>
<path fill="#414141" d="M15.3,167.1c-0.2,4.6-0.5,9.2-1.2,13.8c-0.4,2.7-0.9,5.3-1.3,8c-0.3,1.9-0.3,2,2,2.2
	c0.1-1.3,0.1-2.6,0.1-3.9c-0.1,0.1-0.2,0.1-0.4,0.2c-0.1-0.3-0.3-0.6-0.3-0.9c0.3-1.5,0.5-3,0.8-4.4c0.2-7.1,0.4-14.2,0.6-21.3
	C15.5,162.9,15.4,165,15.3,167.1z"/>
<path fill="#414141" d="M23.6,156.2c-1.8-13.8-2.5-27.6-2.6-41.5c0-1.1,0-2.2-0.1-3.3c-0.1-1.1-0.3-2.4-1.4-2.8
	c-0.6-0.2-1-0.1-1.3,0.1c-0.1,2.5-0.3,5-0.6,7.5c0,1.6,0,3.1-0.2,4.6c-0.4,3-0.5,6-0.5,9c0.1,4.9,0.1,9.9,0.2,14.8
	c0,1.6-0.1,3.2-0.2,4.8c-0.3,3.8-0.6,7.5-0.9,11.3c-0.1,7.1-0.2,14.2-0.3,21.3c1.1-6.9,1.9-13.8,1.7-20.8c0-0.3,0.1-0.7,0.2-0.9
	c0.1-0.2,0.5-0.5,0.7-0.5c0.2,0,0.5,0.4,0.6,0.6c0.5,1.8,0.1,3.9,1.3,5.5C23.2,163.5,24,159.8,23.6,156.2z"/>
<path fill="#414141" d="M17.4,110.7C17.3,110.7,17.3,110.8,17.4,110.7c-0.1,0.4-0.1,0.8-0.1,1.1C17.3,111.4,17.3,111.1,17.4,110.7z"
	/>
<path fill="#787878" d="M107.4,213.3c0.9-1.8,0.8-3.7,0.8-5.6c0-2.7,0.1-5.4,0.1-8.1c0-0.5,0.1-1.1,0.7-1.1c0.8,0,0.9,0.8,0.9,1.4
	c-0.3,2.2-0.6,4.4,0.3,6.6c-0.4,5.9,0.3,11.7,1.3,17.5c0.4,2.3,0.4,4.3-0.5,6.5c-1.2,3.1-1.3,6.5-1.7,9.8c-0.1,1,0.3,1.9,0.8,2.7
	c0.7,1.9,0,3.3-2,3.4c-2,0-2.6-1.7-2.3-3.5c0.7-4.4-0.4-8.8,0.6-13.3c0.9-3.9,0.1-7.9-0.7-11.9C106,216.1,105.6,214.3,107.4,213.3z"
	/>
<path fill="#5B5B5B" d="M107.3,217.9c1,1.6,1,3.3,1,5.1c0,1.6,0,3.2,0.2,4.8c0.3,2,1,4-0.6,5.9c-0.3,0.4-0.3,1.3-0.2,1.8
	c0.7,2.5,0.6,5,0,7.6c-0.1,0.6-0.1,1.4,0.6,1.6c0.7,0.3,1.1-0.4,1.5-0.9c0.2-0.3,0.3-0.6,0.5-0.8l0,0c0.4-0.3,0.6-0.7,0.9-1
	c0-0.3,0.1-0.6,0.1-0.9c0.3-0.3,0.7-0.6,0.9-1c0,0,0,0,0,0c0.4,0.4,0.8,0.8,1.2,1.2c-0.1,0.6-0.3,1.2-0.4,1.7
	c-0.2,0.4-0.5,0.7-0.7,1.2c0,0.2-0.1,0.5-0.2,0.7c-0.5,0.6-0.4,1.3-0.4,1.9c-0.7,2.1,0.3,5-2.9,5.8c-2.8-1.6-4.9,3.3-7.8,1
	c-0.5-0.6-0.7-1.3-0.7-2c-0.1-1.2,0.4-2.3,0.8-3.4c0.2-3.9,2.7-7.3,2.1-11.3c0-0.7,0-1.4,0.1-2.1c0.2-2.7,0-5.4,0.4-8.1
	c0.1-0.8,0.3-1.5,0.4-2.2c0.4-2.3,0.3-4.7,2.6-6.2C106.8,218.1,107,218,107.3,217.9z"/>
<path fill="#B1B1B1" d="M117.4,204.1c0.1,0.5-0.1,0.9-0.6,1c-0.2,0-0.5-0.3-0.6-0.5c-0.1-0.5,0.1-0.9,0.6-1
	C117,203.6,117.2,204,117.4,204.1z"/>
<path fill="#787878" d="M111.1,241.9c-0.3,0.3-0.6,0.7-0.9,1C110.5,242.6,110.8,242.2,111.1,241.9z"/>
<path fill="#787878" d="M112.1,240c-0.3,0.3-0.6,0.7-0.9,1C111.5,240.7,111.8,240.4,112.1,240z"/>
<path fill="#949494" d="M20.9,96c0-0.1,0,0,0-0.1c0,0.5-0.2,1-0.4,1.6c0,0,0,0.1,0,0.1c0-0.3,0.1-0.6,0.2-0.9
	C20.8,96.5,20.9,96.3,20.9,96z"/>
<path fill="#949494" d="M20.4,100.1c0-0.4,0-0.7,0-1.1c-0.1,1.2-0.1,2.4-0.1,3.6C20.4,101.8,20.4,101,20.4,100.1z"/>
<path fill="#949494" d="M39.9,132.9c-0.1-1.7-0.4-3.4-0.7-5C39.5,129.6,39.7,131.2,39.9,132.9z"/>
<path fill="#949494" d="M44,119.8c0,0,0-0.1,0-0.1C43.9,119.7,43.9,119.8,44,119.8z"/>
<path fill="#949494" d="M17.2,113.2c0.4-0.7,0.4-1.6,0.7-2.3c0.4-7.2,0.5-14.3,0.8-21.4C18.1,97.4,17.6,105.3,17.2,113.2z"/>
<path fill="#949494" d="M60.7,175.8c-1.3-10-1.4-20.3-4.5-30.1c-0.8-2.6-1-5.7,0.4-8.4c0.4-5.6-3.1-10.1-4.4-15.3
	c-0.6-1.3-1.1-2.7-1.6-4c-2.4-5.7-5.9-11-6-17.5c0-1.1,0.1-2.4-0.5-3.3c-2-3.1-2-6.5-2.4-10c-0.5-4.7-1.1-9.6-5-13.1
	c-6.4-3.6-6.4-3.6-7.7,0.2c0.6-2.1-0.7-3.8-1.4-5.6c-0.7-1.9-1.2-4.2-4.1-3.1c-1.4,1.1-1.4,2.8-2.1,4.2c-0.2,0.4-0.3,0.9-0.5,1.3
	c-0.2,0.4-0.3,0.7-0.5,1.1c-0.9,5.8-1.4,11.6-1.6,17.2c0.5-5.7,1-11.3,1.7-17c-0.7,5.7-1.2,11.3-1.7,17c-0.3,7.1-0.4,14.2-0.8,21.4
	c0.1-0.3,0.3-0.5,0.5-0.7c0-1.7,1.2-3.1,1.2-4.7c0.2-0.9,0.6-1.7,0.7-2.7c0,0,0-0.1,0-0.1c0-1.2,0-2.4,0.1-3.6c0-0.5,0-1,0.1-1.5
	c0,0,0-0.1,0-0.1c0.1-0.6,0.3-1.1,0.4-1.6c0,0.1,0,0.1,0,0.1c0,0.3-0.1,0.5-0.1,0.7c-0.1,0.3-0.2,0.6-0.2,0.9c0,0.5-0.1,1-0.1,1.5
	c0,0.4,0,0.7,0,1.1c0,0.8,0,1.7-0.1,2.5c0,4.5,0.6,9,2.8,13c2.1,3.9,3.9,7.7,4.5,12c0.6,4.2,2,8,4.1,11.6c1.1,1.8,1.7,4,4.4,3.6
	c2.8-0.4,3-2.8,3.5-5c0.3-1.7,0.4-3.3,0.3-4.9c-0.2-1.7-0.5-3.3-0.7-5c-0.5-2.4-1.2-4.7-1.5-6.8c0.7,2.1,1.1,4.4,1.5,6.8
	c0.3,1.6,0.6,3.2,0.7,5c0.3,2.1,0.6,4.3,1,6.4c0.4,2.4,0.2,6.1,3.9,6.3c3.1,0.1,2.7-3.3,3.8-5.2c0-0.6,0-1.2,0-1.9
	c-0.6-6.5-3.6-12.4-4.6-18.8c0,0,0-0.1,0-0.1c-0.1-0.6-0.2-1.2-0.2-1.8c0,0.6,0.1,1.2,0.2,1.8c0,0,0,0.1,0,0.1
	c0.3,1.8,0.8,3.6,1.3,5.4c1.2,4.4,3.1,8.7,3.3,13.3c0.1,0.6,0.1,1.1,0.1,1.7c0,0-0.1,0.1-0.1,0.1c0,0.2,0,0.3,0,0.5
	c-0.4,5.8,1,11.3,2.8,16.7c1.8,1.1,2.2,2.8,2.6,4.8c0.7,3.2,1,6.4,1.2,9.6c0.3,1.3,0.3,2.6,0.3,3.9c0.1,1.5,0.3,2.9,0.6,4.3
	c-0.6-1.2-0.6-2.7-0.6-4.3c-0.1-1.3-0.2-2.6-0.3-3.9c0-0.1,0-0.2-0.1-0.3c-1.9-0.9-1.7-5-5.2-3.3c-1.5,2.6,0.5,6-2,8.4
	c-0.1,2.2-0.2,4.5,1.6,6.2c1.1,1.1,1.1,2.6,1.2,4c0.1,2.2,0.1,4.5,0.4,6.6c0.4,2.4,0.5,4.7,0.5,7.1c0,2.7,0,5.4,0,8.1
	c0,0.6-0.2,1.3,0.9,1.6c1.2-3.1,1.9-6.3,1.9-9.6c0-1.9,0.1-3.8,0.3-5.7c0-0.4,0.5-0.8,0.9-0.9c0.7-0.2,1.2,0.3,1.3,1
	c0.6,2.8,0.2,5.7,0.3,8.6c1.5,0.2,2.2-0.8,2.2-1.9c-0.2-5.1,1.9-9.9,2.1-15C62.1,183,61.2,179.4,60.7,175.8z"/>
<path fill="#949494" d="M48.5,138.6c0,0.6,0,1.2,0,1.9c0,0,0.1-0.1,0.1-0.1C48.6,139.7,48.6,139.1,48.5,138.6z"/>
<path fill="#949494" d="M55.2,171.9c0.1,1.3,0.2,2.6,0.3,3.9C55.5,174.5,55.4,173.2,55.2,171.9z"/>
<path fill="#808080" d="M17.3,112c-0.1,0.5-0.1,0.9-0.1,1.4c0,0,0.1,0,0.1,0C17.2,112.9,17.3,112.5,17.3,112z"/>
<path fill="#808080" d="M17.9,110.4c-0.3,0.5-0.5,1.1-0.6,1.6c0,0.5,0,0.9-0.1,1.4c0.2,0,0.4,0,0.6-0.1c0.1-1,0.1-1.9,0.2-2.9
	C18,110.4,17.9,110.4,17.9,110.4z"/>
<path fill="#808080" d="M18,110.4c-0.1,1-0.1,1.9-0.2,2.9c0.1,0,0.1,0,0.2,0c0-0.6,0.1-1.2,0.1-1.8C18.5,111,18.5,110.7,18,110.4z"
	/>
<path fill="#787878" d="M112.1,245.8c-0.3,0.1-0.5,0.2-0.8,0.3c0.2-0.4,0.5-0.8,0.7-1.2C112.1,245.2,112.1,245.5,112.1,245.8z"/>
<path fill="#787878" d="M112.2,244.1c0.2-0.4,0.4-0.8,0.7-1.2C112.7,243.4,112.4,243.7,112.2,244.1z"/>
<path fill="#BDBDBD" d="M85.2,155.6c0,2.5,0,5.1,0,7.6c1.3,1.1,2.1,2.3,2,4.1c0,5.6,1.5,10.9,3.3,16.1c-1.2,4.9-1,10.2-4.2,14.5
	c-2.9,2.6-3.6,9.5-1.4,14.5c0.7,6.1-0.5,11.9-2.4,18.8c2.9-10,3-19.2,3.1-28.3c0-1.9-0.7-4.3,2-5.3c2.4,0.7,1.8,2.7,1.8,4.3
	c0,2.3,0.3,4.4,1.8,6.2c0.7,4.6,0.3,9.3-0.5,13.9c-1,5.6-1,5.6,2.4,13.9c0.2-2.6,0.6-5.1,1.6-7.4c0.6-1.5,1.7-2.3,3.3-2.2
	c1.4,0.1,2.6,1.2,2.4,2.5c-0.7,5.2,1.4,10.3,0.5,15.4c-2.4,1.4-3.1,3.5-2.9,6.2c0.2,2.1,0.1,4.1,0.6,6.2c0.5,2.4-0.4,4.4-2.5,5
	c-2.3,0.6-3.2-1.4-3.7-3.4c-0.5-1.9-0.9-3.7-1.4-5.7c-1.4,1.1-2.7,2.6-4.3,0.6c-0.5-0.6-1-1.2-1.7-1.7c-4-2.6-4.6-2.2-5.5,2.5
	c-0.6,3.1-0.3,6.4-1.1,9.5c-0.7,3,2.7,3.6,3.4,5.9c0.5,2.1,1.3,4.4-2.4,3.7l0,0c-0.5-0.6-1.3-0.5-1.9-0.5c-6.5-2-9.7-8.1-14.6-12.1
	c-0.8-0.7-1-1.9-0.5-3.1c1.9-2.5,3.8-1.7,5.7,0c2.3,2,3.6,1.5,4.3-1.5c0.5-2.1,2.1-3.9,1.7-5.9c0.1,1.9-0.6,3.7-3.2,3.4
	c-2.3-0.3-3.2-2-2.6-4.2c1.9-6.5,0.6-13.3,2-19.9c1-6.7,3.2-13.2,3.9-19.9c1.3-11.8,2-23.8,1.8-35.7c0-2.7-0.1-5.4,0-8.1
	c0-1.6,0-3.3,1.8-4.1c2.5,0.2,2.6,2.2,2.5,3.9c-0.2,4.8-0.4,9.5-0.7,12.3c0.6-4.7,0.2-11.6,1.3-18.3
	C81.4,156.8,81.7,154.1,85.2,155.6z"/>
<path fill="#DDDDDD" d="M99.6,243.9c0-1.5-0.2-2.9-0.9-4.2c-1.2-2.2-1.1-4.6-0.6-7c0.2-1.1,0.4-2.2,0.4-3.3c0-0.4-0.2-1-0.5-1.2
	c-0.5-0.3-0.9,0.3-1,0.7c-0.4,1.9-0.8,3.7-1.2,5.6c-0.4,2.5-0.8,5-1.2,7.5c-0.1,0.4-0.4,1-0.7,1.1c-0.9,0.1-0.8-0.7-0.9-1.3
	c-0.1-0.6-0.1-1.3-0.3-1.9c-0.2-0.7-0.6-1.2-1.3-1.1c-1.6,0.2-2-0.4-1.7-1.9c0.2-1.1,0.2-2.2,0.3-3.3c0-0.5-0.2-1-0.8-1
	c-0.6,0-0.7,0.5-0.9,0.9c-0.1,0.3-0.2,0.6-0.4,0.9c-0.1,0.1-0.3,0.3-0.4,0.2c-0.3-0.1-0.6-0.3-0.7-0.5c-0.5-1.1-0.1-2.2,0.1-3.3
	c1.5-6.4,2.1-12.9,3-19.3c0.2-1.1,0.1-2.2,0.1-3.3c-1.5-2.5-0.5-5.3-0.8-7.9c0.1-1.3,0.4-2.5,0.8-3.7c3.4-2,4.7-1.4,5.1,2.3
	c0.3,2.8-0.2,5.7,1.1,8c0.2-2.6,1.9-4.7,4.6-4.1c3.8,0.8,1.5,4.5,2.2,6.5c-0.1-1,0-2.4,0.2-3.7c1.6-6.3,0.4-12.6,0.8-18.9
	c0.7-8.2-0.5-16.3-0.7-24.4c0-0.5-0.4-0.8-0.8-1.2c-0.6-3.5,0.2-6.9,0.2-10.4c0-0.6,0.2-1.3,0.6-1.8c2.2-2.3,2.1-5.2,2.1-8.1
	c0.3,0,0.6,0.1,0.8,0.2c0,7.5,0.6,14.9,1.7,22.4c0.1,0.8,0.2,1.6,0.2,2.4c0,8.8,0.3,17.6-0.1,26.3c-0.3,5.7-0.8,11.4-0.8,17.2
	c0,1.3,0.1,2.5,0.1,3.8c0,1.6-0.1,3.1-0.1,4.7l0,0c-1.2,2.1,0.2,4.6-0.9,6.7c-0.1,0.6-0.1,1.2-0.2,1.8c-1,2.9,0.3,6-0.8,8.8
	c0,0.6,0,1.3-0.1,1.9c-0.4,4-1.3,7.8-2.7,11.5c-0.4,1-0.8,1.9-1.3,2.9c-0.5,0.9,0,2.1-0.7,3l0,0c-3.2-0.4-2.2-3-2.5-4.8
	C98.4,247.8,97.8,245.6,99.6,243.9z"/>
<path fill="#D3D3D3" d="M102.5,161.3c0.9-0.2,1.6,0.2,1.7,1.1c0.4,3.6,0.9,7.2,1.1,10.8c0.2,2.2,0,4.4,0.5,6.6
	c0.6,2.2-0.4,4.4-0.5,6.5c-1.7,2-1.4,4.3-1.3,6.6c0.2,4.8-0.9,9.7,0.3,14.4c-0.1,2.9,0.3,5.7-0.3,8.5c-0.1,0.5-0.4,1-1,0.9
	c-0.4-0.1-0.9-0.4-1.1-0.7c-0.7-1.5-0.5-3.1-0.5-4.7c-0.1-1.9-0.1-3.8-0.3-5.7c0-0.6-1-0.9-1.5-0.5c-1.4,1-1.9,2.5-2,4.1
	c-0.1,1.6,0,3.2-0.7,4.7c-0.3,0.6-0.7,1.1-1.4,1.1c-0.7,0-1.2-0.4-1.4-1c-0.2-0.6-0.5-1.2-0.5-1.8c-0.1-2.5,0.2-4.9-1.3-7.2
	c-0.4-0.6,0-1.8,0.1-2.8c0.2-1.4,0.5-2.8,0.2-4.3c-0.2-0.9-0.9-1.3-1.8-1.2c-1.4-1.8-1.7,0-2.3,0.7c-0.2,0.1-0.4,0.2-0.6,0.3
	c-1,1.6-0.9,3.3-1,5.1c-0.1,4.1,0.1,8.3-0.8,12.4c-0.3,1.5-0.2,3.2-0.2,4.8c0,2.9-0.2,5.7-1.2,8.4c-0.6,1.4-0.6,3.1-0.7,4.7
	c-0.1,1.5-0.6,2.8-1.7,3.8c-0.3,0.3-0.8,0.6-1.2,0.6c-0.5,0-0.7-0.5-0.8-1c-0.2-1.8,0-3.5,0.4-5.2c1-4.3,2-8.7,2.9-13
	c0.5-2,0.3-4.1,0.3-6.2c-1.6-4.9-1.1-9.7,1.1-14.3c1.9-4.6,3-9.4,2.8-14.4c0.1-3.5,0-6.9-0.3-10.3c-0.2-1.9,0.3-3.9,2.4-4.8
	c2.1-0.9,3.7,0,4.9,1.8c1.2,1.8,3.4,2,5,3.7c0.6-3.6-0.8-7.2,2.5-9.6C102.5,163.2,102.5,162.3,102.5,161.3z"/>
<path fill="#DDDDDD" d="M102.5,164.2c0,4.2,0,8.3,0,12.5c0,1.4,0,2.9-0.9,4.1c-0.3,0.3-0.8,0.6-1.2,0.6c-0.4,0-1-0.4-1.1-0.7
	c-0.4-1.4-0.5-2.8-0.8-4.2c-0.3-1.6-1-1.9-2.7-1.4c-1.9,0.6-2.3,0.4-2.7-1.3c-0.2-1.1-0.4-2.2-0.6-3.3c-0.1-0.2-0.5-0.4-0.8-0.4
	c-0.3,0-0.7,0.1-0.8,0.4c-1.4,2.3-1.7,4.8-1.7,7.4c-0.1,1.9,0.1,3.9-1,5.6c-0.3-1.2-0.8-2.4-0.8-3.7c-0.1-2.4-0.5-4.7-2-6.7
	c-0.9-1.2-0.9-2.7-0.7-4.1c0.3-1.9,0.4-3.8,0.6-5.7c1.5-0.4,2.5-1.4,2.7-3c0.2-1.9,0.7-3.8,1.4-5.5c0.7-1.6,0.5-3.1-0.4-4.6
	c-0.4-0.7-0.8-1.4-1.1-2.1c-0.7-1.8-0.1-3.1,1.7-3.9c1.9-0.8,3-0.2,3.3,1.9c0.1,0.9,0.1,1.9,0.2,2.9c0.3,2.2,1.1,4.3,2.6,6
	c1.8,2,3.4,4.2,4,7C100.1,163.4,101.1,164,102.5,164.2z"/>
<path fill="#DDDDDD" d="M85.2,155.6c-1.3,0.6-1.7,1.8-1.9,3.1c-0.6,5.4-1.3,10.7-1.9,16.1c-0.4,3.3-0.9,6.6-1.4,9.9
	c-0.1,0.6-0.2,1.3-1.3,1.6c-0.5-2.8-0.2-5.6-0.2-8.4c0-2.7,0-5.4,0-8.1c0-2.9-0.1-5.7-0.1-8.6c-2.2-1.9-1.5-4.7-1.4-6.9
	c0.4-7.8-1.6-15.5-1-23.3c-0.9-10.3-1.4-20.7-2.7-31c-0.3-2.2-0.4-4.5,0.2-6.7c0.3-0.5,0.7-1,1.2-1.2c1.2,3.2,1.9,6.4,1.7,9.8
	c-0.2,5.5,0.7,10.8,1.5,16.2c0.2,1.1,0.5,2.2,0.4,3.3c-0.4,9.1,1.1,18.1,1.1,27.2c0,0.9,0.1,1.9,0.3,2.8c0,0.2,0.4,0.5,0.6,0.6
	c0.2,0,0.7-0.3,0.7-0.4c0.2-1.3,0.3-2.5,0.3-3.8c0-3.3,0-6.7,0-10c0-1.1,0.2-2.2,0.5-3.3c0.1-0.5,0.6-0.8,1.1-0.7
	c0.3,0,0.7,0.2,0.8,0.5c1.1,2.4,1.5,4.9,1.5,7.4C85.2,146.4,85.2,151,85.2,155.6z"/>
<path fill="#787878" d="M74.6,93.2c0.6,6.6,1.2,13.2,1.7,19.9c0.4,5.8,1.5,11.6,1.2,17.5c0,0.9-1.3-1.4-1.1,0.5
	c0.1,1.4-0.5,2.2-2.1,1.3c-2.3-4.3-1.4-9.2-1.6-13.6c-0.5-9.2-1.9-18.3-2.3-27.4c0.1-1.5,0.7-2.7,1.7-3.8c0.5-0.4,1-0.4,1.5-0.1
	c0.1,0.6,0.2,1.2,0.2,1.8C74.6,90.5,73.7,92,74.6,93.2z"/>
<path fill="#ADADAD" d="M74.6,93.2c-0.7-1.2-0.9-2.6-0.7-4c0.3,1,0.7,1.9,1,2.9C74.7,92.5,74.7,92.9,74.6,93.2z"/>
<path fill="#ADADAD" d="M73.6,87.5c-0.2-0.1-0.5-0.1-0.7-0.2c-1-0.9-0.9-1.8-0.1-2.8c0.3,0,0.5,0.1,0.8,0.1
	C73.6,85.6,73.6,86.5,73.6,87.5z"/>
<path fill="#9E9E9E" d="M70.8,42.3c1,2.8,2.4,5.5,4.3,7.9c3.3,4.3,5.2,9.3,7.4,14.3c0.4,0.8,0.6,1.8,0.6,2.7c0,1-0.8,1.2-1.7,1.1
	l0,0c-0.6-0.5-0.4-1.4-0.9-1.9l0,0c-0.9-0.6-1.7-1.3-1.9-2.2c0.9,1.5-0.1,3.5,0.9,5.1l0,0c0.6,0.7,0.6,1.6-0.2,1.9
	c-0.8,0.4-1.6-0.2-1.9-1c-0.6-1.6-1-3.3-1.8-4.8c-1.6-3.8-3.2-7.7-4.8-11.5c-3.3-1.9-5.8-4.4-6.2-8.4c0.4-2.4-0.8-5.1,0.9-7.4
	c0.4-0.3,0.9-0.5,1.4-0.6C69.6,37.9,71.1,39.4,70.8,42.3z"/>
<path fill="#BBBBBB" d="M67,38.5c-0.3,0-0.7,0-1,0c-3,2.3,0.8,4.5,0,6.8c0.7,2.5,1.8,4.7,3.6,6.5c0.5,0.5,0.8,1.3,1.2,2
	c-1.6,0.1-1.6,0.1-1.9,1.9c-0.2,0.1-0.3,0.3-0.5,0.4c-0.5,0-0.9,0-1.3-0.3c-0.7-0.6-1.2-1.4-1.7-2c-1.1-1.5-1.9-3.1-2.8-4.7
	c-2.5-6.3-5.3-12.5-8.3-18.5c-1-2-2.6-4.1-1.1-6.6c0.7-0.5,1.7-0.8,2.2-0.3c4.3,4,9,7.6,11.8,12.9C67.5,37.3,67.3,37.9,67,38.5z"/>
<path fill="#3C3C3C" d="M64.1,49.1c0.9,1.3,1.8,2.5,2.7,3.8c1.2,0.7,0.3,2.1,1.1,2.9l0,0c2.4,7.7,5.1,15.4,4.4,23.7
	c-0.1,1.4-0.3,2.8,0.4,4.2c0,0.3,0,0.6,0.1,0.8c0,0.9,0.1,1.9,0.1,2.8c-0.3,1-0.7,2-1,2.9c-0.5-0.2-0.9-0.4-1.1-0.9
	c-0.5-1.4-1-2.8-1.4-4.2c-2.1-9.5-4.2-19-7.5-28.3c-0.3-0.7-0.2-1.6,0.1-2.3C63.5,53.1,61.8,50.3,64.1,49.1z"/>
<path fill="#ADADAD" d="M72.7,83.7c-0.3-0.7-0.6-1.5-0.7-2.2c-1.2-6.8-2.5-13.7-3.6-20.5c-0.3-1.7-0.3-3.4-0.4-5.2c0.3,0,0.7,0,1,0
	c3.4,8.7,5.5,17.8,7.7,27.2c-2.3-0.3-1.9-2.6-3.5-3.3C72.5,80.9,73,82.3,72.7,83.7z"/>
<path fill="#C7C7C7" d="M75.6,65.3c1.1,1.1,1.5,2.5,2.2,3.9c0.5,0.9,1.1,0.9,1.6,0c0.8,1,1.3,2.2,1.5,3.4c0.1,0.6,0.3,1.5,0,1.8
	c-2,2.2-1,4.4-0.3,6.7c0.1,0.5,0.2,1-0.3,1.3c-0.5,0.3-0.9-0.1-1.1-0.5c-1.4-2.3-2.4-4.8-2.5-7.6C76.6,71.3,76.1,68.3,75.6,65.3z"/>
<path fill="#C7C7C7" d="M79.5,69.2c-2-3.4-2.7-7.4-4.3-11.1c-0.1-0.2,0-0.7,0.2-0.8c0.5-0.3,0.9,0,1.1,0.4c1.6,2.8,3.2,5.5,4,8.6
	C79.8,67.1,79.6,68.1,79.5,69.2z"/>
<path fill="#C7C7C7" d="M80.4,66.3c0.3,0.6,0.6,1.3,0.9,1.9C81.1,67.6,80.7,66.9,80.4,66.3z"/>
<path fill="#E0E0E0" d="M61.2,26.9c4,3.2,6.6,7.5,9.6,11.5c0.3,0.2,0.5,0.5,0.7,0.9c0.2,0.2,0.3,0.5,0.4,0.7
	c0.1,0.5,0.5,0.8,0.7,1.2c0.2,0.2,0.3,0.5,0.3,0.8c-0.7,0.5-1.4,0.4-2.1,0.2c-1.3-1.3-2.3-2.9-3.8-3.8c-3-4.7-6.9-8.6-10.9-12.3
	c-0.8-0.7-1.8-1.3-2.6-1.9c-0.2,0-0.4,0-0.6,0c-0.6-0.2-1-0.5-1.4-0.9c-0.2-0.3-0.5-0.6-0.7-0.9c-0.4-0.5-0.7-1-1-1.5
	c-0.2-0.4-0.3-0.8-0.4-1.2c0-0.5,0-0.9,0.1-1.4c0.2-0.7,0.7-1.3,1.3-1.7c0.4-0.2,0.9-0.3,1.4-0.3c0.5,0,1,0.2,1.4,0.4
	C56,20,59.8,22.6,61.2,26.9z"/>
<path fill="#757575" d="M76.7,48c0.3,0.4,0.6,0.7,0.8,1.1C77.2,48.7,76.9,48.4,76.7,48z"/>
<path fill="#666666" d="M18.1,104.7c-0.1,1.9-0.1,3.8-0.2,5.6c0,0.1,0.1,0.3,0.1,0.4c0.1-2.1,0.2-4.3,0.3-6.4
	C18.2,104.5,18.2,104.6,18.1,104.7z"/>
<path fill="#666666" d="M44.9,165.2c0-0.3,0-0.6,0-0.9c-0.8-1.9-0.4-3.6,0.1-5.5c0.7-2.8-2.1-10.6-4.1-11c-4.2-0.7-6.1-3.6-8-6.8
	c-0.8-1.2-1.7-1.9-3.2-1.4c-1.6,0.6-2.2,1.9-1.7,3.4c0.1,0.4,0.2,0.8,0.2,1.3c0.2,0.6,0.4,1.2,0.6,1.8c-0.4-0.5-0.5-1.2-0.6-1.8
	c-1.1-4-1.4-8.3-2.6-12.4c-2.3-7.5-2.5-15.4-3.5-23.1c-0.5-3.9-1-7.9,0-11.8c0-1.3,0-2.5,0-3.8c-1.1-0.6-1.4,0.4-1.8,1
	c0,0.6-0.1,1.2-0.1,1.9c-1,1.1,0.1,2.7-0.9,3.9c0,0.9-0.1,1.9-0.1,2.8c-0.5,0.4-0.4,1.1-0.7,1.7c-0.1,2.1-0.2,4.3-0.3,6.4
	c0,0.2,0.1,0.4,0.1,0.7c0.2-0.3,0.4-0.5,0.6-0.8c0.3-0.4,0.9-0.6,1,0c0.2,1.1,0.2,2.2,0.2,3.3c0,10.2,0.1,20.5,0.1,30.7
	c0,3.2,0,6.4,0.8,9.5c0.4,1.5,0.7,3.2,0,4.7c-0.9,2.3-0.7,4.7-0.8,7.1c0.9,3.2,1.7,6.4,2.6,9.6c1,3.6,2.2,7.2,4.1,10.6
	c0.9,0.2,1.4,0.8,1.6,1.6c1.1,4.7,3.5,4.9,7.5,3c1.8-0.9,2.3-1.6,2.4-3.4c0.2-2.9,1-5.7,1.2-9.3c1.7,1.6,2.6,3.5,4.7,3
	c1.1-0.3,1.3-1.3,1.3-2.3C45.1,174.3,46,169.7,44.9,165.2z"/>
<path fill="#666666" d="M28.1,144.3c0.1,0.7,0.1,1.4,0.6,1.8C28.4,145.5,28.2,144.9,28.1,144.3z"/>
<path fill="#808080" d="M44.9,164.2c-0.1-0.3-0.4-0.6-0.4-0.9c-0.3-4.4-2.6-8.2-3.6-12.3c-0.3-1.2-1-1.4-2.2-0.9
	c-0.4,0.2-0.8,0.6-1.2,0.8c-1.2,0.5-2.2,0.2-2.8-1c-0.3-0.6-0.5-1.2-0.8-1.7c-0.3-0.7-0.4-1.6-0.8-2.2c-1-1.6-0.6-4.2-3.2-4.7
	c-1.3,1.9,0,3.7,0.2,5.5c0.3,2.2,0.6,4.4,0.8,6.6c0,0.3-0.1,0.7-0.3,0.8c-0.5,0.3-0.9-0.2-1-0.6c-3-9.1-6.3-18.1-8.2-27.5
	c-0.3-1.6-0.5-3.2-0.5-4.7c-0.1-6.5,0-13.1,0-19.6c0-1.6,0.1-3.2,0.9-4.6c0,4.2,0.1,8.3,0.9,12.4c0.4,1.9,0.9,3.7,2.3,5.1
	c2.4,2.3,3.4,5.4,4.2,8.5c0.4,1.5,0.8,3.1,0.9,4.7c0.2,4.3,2.6,7.9,3.7,11.8c0.1,0.3,0.3,0.6,0.5,0.8c0.4,0.3,0.8,0.6,1.2,0.6
	c0.4,0,1-0.4,1.1-0.7c0.7-4.7,2.1-9.3,0.8-14.2c-1.1-4-1.7-8.1-2.6-12.2c-0.1-0.5-0.2-1-0.1-1.4c0-0.3,0.3-0.6,0.5-0.7
	c0.2-0.1,0.7,0.1,0.8,0.2c0.4,0.8,0.9,1.7,1.1,2.6c1.9,7.8,3.8,15.5,5.7,23.3c0.4,1.7,0.8,3.4,1.2,5.1c0.1,0.2,0.4,0.6,0.6,0.6
	c0.6,0.1,0.8-0.4,0.9-0.8c0.4-1.2-0.2-2.5,0.6-3.6c0.8,0,1,0.7,1.4,1.1c2.2,5,3.3,10.2,2.7,15.7c-1.8,1.2-1,3-1.3,4.6
	c-0.4,2.5,1.4,5.5-1.5,7.6c-1.3-2-0.6-4.4-1.5-6.4c-0.1-0.2-0.5-0.4-0.7-0.5c-0.2,0.2-0.4,0.5-0.5,0.7c-0.1,0.3-0.1,0.6-0.1,0.9
	C44.9,163.3,44.9,163.7,44.9,164.2z"/>
<path fill="#BBBBBB" d="M63.1,241c0.5-3,1.1-5.9,1.6-8.9c0.1-0.4-0.2-1-0.5-1.2c-0.5-0.3-0.9,0.2-1,0.7c-1.2,3.8-2.3,7.6-3.5,11.4
	c-0.4,1.4-1,2.7-1.5,4c-0.1,0.2-0.5,0.3-1,0.6c-0.3-1.7,0.2-3.2,0.5-4.7c0.4-1.9,0.9-3.7,1.3-5.6c0.6-2.8,1.3-5.5-0.2-8.4
	c-0.6-1-0.3-2.5-0.4-3.8c-0.1-1.8,0-3.5,0-5.3c-1.6-4.8,0-9.5,0.3-14.2c0.2-2.7,0.6-5.4,0.7-8.1c0.1-3.3,1.4-6.3,1.9-9.5
	c0-0.8,0-1.6,0-2.5c0.4-5.2-1.1-10.2-1.4-15.3c0.1-1.6-0.1-3.6,2.1-3.5c2.1,0,1.9,2,2.2,3.6c0.6,3.5,1,7.1,1,10.1
	c0.3-3.7-0.9-7.9-1.2-12.2c-0.1-1.5-0.3-3.1,1.5-3.5c1.7-0.4,2.4,1,3.1,2.3c1.2,2.3,2.4,4.5,2.1,7.1c-0.7,6.3-0.2,12.5,0.2,17.5
	c0.2-2.9-0.8-7-0.6-11.2c0.1-1.6,0-4.2,3.1-2.9c1.6,8.9,0.9,17.7-0.5,26.5c-1.7,10.8-4.7,21.3-5.7,32.2c-0.2,2.5-0.4,5.6-3.7,6.6
	C62.4,242.6,62.6,241.8,63.1,241z"/>
<path fill="#808080" d="M26.7,186.3c0.1-0.4,0.1-1.1,0.4-1.3c0.8-0.5,1.1,0.2,1.4,0.8c0.7,1.4,1.4,2.9,2.1,4.3
	c0.2,0.4,0.7,0.9,1.2,0.5c0.3-0.2,0.4-0.8,0.4-1.3c-0.2-1.6-0.9-3.1-0.4-4.7c0.1-0.4,0.5-0.9,0.9-1c0.3-0.1,0.9,0.2,1.2,0.5
	c0.3,0.3,0.4,0.9,0.6,1.3c0.6,1.2,0.4,3.4,2.2,3c1.2-0.3,0.7-2.2,0.6-3.5c0-1.3-0.3-2.5-0.5-3.8c-0.4-1.9-0.5-3.8-0.3-5.7
	c0.1-1,0.2-2,1.2-2.4c1-0.3,1.8,0.4,2.6,0.9c1.8,1.1,2.2,3,3,4.8c0.1,0.2,0.5,0.4,0.7,0.4c0.2,0,0.6-0.3,0.6-0.6
	c0.2-1.1,0.3-2.2,0.3-3.3c0-3.3,0-6.7,0-10c0.8,1.3,1,2.7,1,4.1c0,7.6,0,15.3,0,22.9c0,0.5,0,1-0.2,1.4c-0.1,0.2-0.4,0.5-0.6,0.6
	c-0.2,0-0.7-0.2-0.7-0.4c-0.4-1.2-0.9-2.4-1.2-3.6c-0.2-0.9-0.2-1.9-0.5-2.8c-0.3-0.9-0.7-1.8-1.8-1.9c-0.9-0.1-1.7,1-1.5,2.6
	c0.4,3.2,0.9,6.3,1.5,9.4c0.4,2.4,0.8,4.7,1.2,7.1c0.1,0.6-0.1,1.2-0.2,1.9c0,0.1-0.2,0.3-0.3,0.3c-0.3,0-0.7-0.1-0.8-0.3
	c-0.6-1.6-1.1-3.3-1.7-5c-0.4-1-0.8-2.1-1.3-3.1c-0.4-0.8-1.4-0.9-1.9-0.2c-0.8,1.2-1.6,2.3-2.4,3.5c-1.5-1.9-2.2-4.1-3.1-6.3
	C29,192.4,27.9,189.3,26.7,186.3z"/>
<path fill="#ADADAD" d="M63.2,242.9c0-0.6,0-1.3,0-1.9c-0.3,0.9-0.7,1.8-1,2.7c-1.1,3.5-2.7,6.8-4.6,9.9c1.3,1.5,2.7,3,4.1,4.4
	c2-3.7,3.6-7.7,4.7-12C65.6,244.5,64.3,243.8,63.2,242.9z"/>
<path fill="#808080" d="M62.1,186.3c0,0.6,0,1.3,0,1.9c-1.1,2.8-1.3,5.8-1.8,8.7c0,3.2-0.1,6.3-0.7,9.4c-0.4,2-0.3,4.1-0.4,6.1
	c0,2.5-0.3,5-1,7.5c-0.7,0.4-1.7,0.9-1.8-0.3c-0.1-2.3-0.2-4.7,0.1-7c0.4-3,0.7-5.9,0.7-8.9c0.9-1.6,0.9-3.4,0.9-5.1
	c0-3.2,0-6.4,1.5-9.4c0.4-0.8,0.3-1.9,0.4-2.8C60.9,185.7,61.5,185.7,62.1,186.3z"/>
<path fill="#666666" d="M47.7,168.1c0-3.9,0.3-7.9-0.4-11.8c-0.2-1.3-0.1-2.5,0.5-3.7c1.3,0.1,0.8,1.1,1,1.7
	c0.3,0.7,0.6,1.5,0.8,2.2c3,3.7,3.3,7.2,1,11.5c-0.1,1.9-0.1,3.8-0.2,5.6c-0.1,1.6-1.1,2.6-2.6,2.9
	C47.8,173.7,47.8,170.9,47.7,168.1z"/>
<path fill="#808080" d="M34.3,204.6c-0.3-0.6-0.5-1.3-0.8-1.9C33.8,203.3,34.1,203.9,34.3,204.6z"/>
<path fill="#656565" d="M21.9,197.8c0.1-1.3,0.1-2.5,0.2-3.8c0.1-0.8,0.4-1.6,1.3-1.8c0.9-0.2,1.6,0.4,2,1.1
	c0.6,0.9,1.1,1.9,1.6,2.9c1.3,3.1,1.8,6.4,2.4,9.7c0.1,0.6,0.1,1.3,0,1.9c-0.1,0.6-0.4,1.3-1.2,1.3c-0.4,0-1-0.4-1.1-0.7
	c-1.1-2.5-2.2-4.9-3.2-7.5C23.4,199.7,22.9,198.6,21.9,197.8L21.9,197.8z"/>
<path fill="#787878" d="M102.6,248.7c1-3.8,1-7.9,2.7-11.5c0.6,0.9,1,2,0.7,3.1c-0.7,2.4-1.4,4.7-2.3,7
	C103.6,247.8,103,248.2,102.6,248.7z"/>
<path fill="#787878" d="M105.4,235.2c-0.1-3-0.4-6,0.8-8.8C106.3,229.4,106.9,232.4,105.4,235.2z"/>
<path fill="#787878" d="M106.4,224.7c-0.1-2.3-0.2-4.6,0.9-6.7C107.4,220.2,107.6,222.6,106.4,224.7z"/>
<path fill="#BDBDBD" d="M100.7,254.6c-0.2-1.1,0.1-2.1,0.7-3c0.1,0.6,0.1,1.3,0.2,1.9C101.3,253.8,101,254.2,100.7,254.6z"/>
<path fill="#646464" d="M23.9,66.4c-0.1,1.6,0,3.3-1,4.7c-1-0.4-1.4-1.2-1.4-2.3c-0.2-2.7-0.2-5.4,1.1-7.9c2.3-4.4,3.1-9.1,3.4-14.1
	c0.2-3.8,2.1-7.2,3.3-10.7c0.8-2.5,4.3-1.1,4.4-2.9c0.1-2-0.5-4.1,0.1-6.1c0.1-0.5,0.4-1.1,0.8-1.2c3.6-1.1,3.9-3.5,3.1-6.7
	c-0.4-1.5,0.5-2.9,2.1-3.3c1.9-0.6,3.1,0.8,3.7,2.2c1.5,3.5,2.9,6.9,6.8,8.5c0.4,0.3,0.8,0.6,1.1,1c4.6,8.7,7.3,18,9.7,27.5
	c-0.4,2.5,0.1,5.1-0.1,7.6c-0.1,1.3-0.4,2.7-1.9,2.9c-1.4,0.2-2.3-0.8-2.7-2.2c-0.6-2.5-1.2-4.9-1.7-7.4c-1.7-6.1-1.5-12.8-4.4-17
	c2,3.3,2.8,8.5,3.7,13.8c0.3,1.6,0.8,3.4-1.1,4.1c-2.1,0.8-2.4-1.4-3.2-2.7c-1-3.7-2-7.5-3.8-11c-0.4-1-0.9-2-1.6-2.8
	c-0.8-0.5-1.5-1.5-2.4-1c-0.8,0.4-0.4,1.4-0.2,2.2c0.5,1.8,0.8,3.7,2.2,5.2c0.4,0.3,0.7,0.7,0.9,1c0.5,0.9,0.6,1.8,0.7,2.8
	c0,0.5,0,0.9-0.2,1.4c-0.5,1.1-1.1,2.5-2.5,2.5c-5.5,0-3.6,2.9-2.3,5.6c0.1,0.4,0.2,0.9,0.3,1.3c0.3,2.8-2.1,4.9-2,7.7
	c0,0.7-0.8,1.4-1.7,1.4c-1.1,0-1.8-0.8-1.9-1.8c-0.3-3.6-2.5-6.9-1.7-10.1c0.8,3.5-0.6,7.1-2.5,10.6c-0.5,1-1,2.2-2.2,2.2
	c-1.7,0.1-1.8-1.6-2.2-2.7C25.9,67.4,26.6,65.1,23.9,66.4z"/>
<path fill="#A1A1A1" d="M50.7,122.9c-0.9-2.2-1.9-4.4-2.6-6.7c-0.6-1.9-1.3-3.6-2.8-4.9c-1.4-1.3-2-2.8-1.6-4.7
	c0.6-2.9-0.1-5.9-1.1-8.5c-2.1-5.4-3.2-11.1-4.3-16.7c-0.5-2.4-1.3-4.6-2.9-6.5c-0.4-0.2-0.7-0.5-1-0.8c-0.4-0.8-1-1.4-1.5-2.2
	c-1-1.3-2-2.6-1.4-4.3c0.5-1.4,0.5-3.6,2.6-3.4c1.9,0.1,1.6,2,1.7,3.4c0.1,1.1-0.5,3,1.5,2.8c1.8-0.1,1.7-1.5,1.6-3.1
	c-0.2-2.3,0.2-4.6-0.6-6.9l0,0c-0.6-1.8-1.3-3.8,1.4-4.4c2.1-0.5,3.8,0.6,4.1,2.8c0.5,3.5,2.7,6.3,3.5,9.6
	c1.4,9.3,1.6,18.9,7.2,27.2c0.6,0.8,0.6,1.8,0.5,2.8c-2.4,3.3-1.3,6.6,0.1,9.8c1.2,2.6,2.8,5.1,2.8,8.1c-1.8,2-1.1,5.2-3.2,7
	c-1.9,0.3-2.7-1.1-2.8-2.5c-0.7-7.4-3.5-14.4-5.1-20.5c2.2,4.6,2.4,10.9,4.9,16.5C52.5,118.6,52.3,121,50.7,122.9z"/>
<path fill="#BBBBBB" d="M50.7,122.9c0.1-2.9-0.1-5.7-1.5-8.4c-0.7-1.4-1-3-1.2-4.6c-0.4-3.7-1.5-7.2-2.9-10.6
	c-0.9-2.2-1.3-4.6-1.6-7c0-0.3,0.1-0.7,0.3-0.8c0.5-0.2,0.9,0.1,1.1,0.6c2.3,6.3,4.7,12.5,6.4,19c0.8,3,2.3,5.9,1.9,9.3
	c-0.1,0.8,0.8,1.7,1.2,2.5c2.1,0.8,2.1,2.9,2.7,4.6c3.3,8.7,5,17.9,7.6,26.9c0.3,2.2,0.7,4.4,1.3,6.6c0.4,1.5,0.2,3-1.4,3.4
	c-1.6,0.4-3.1-0.6-3.2-2.1c-0.3-3.8-2.7-6.8-3.5-10.5c-0.3-2.4-1.3-4.7-1.9-7c-0.1-1.3,0.2-2.7-0.5-4c-0.2-0.4-0.3-0.8-0.4-1.2
	c0-0.6,0-1.2,0.2-1.8c0.1-0.2,0.1-0.4,0.2-0.6c-0.1-1.1-0.1-2.3-0.5-3.3C53.5,130.4,52.7,126.4,50.7,122.9z"/>
<path fill="#818181" d="M35.3,74c0,0.3,0,0.6,0,0.9c-0.2,0.4-0.5,0.8-1,0.7c-0.1,0-0.3-0.1-0.4-0.2c-1-0.6-1.3-2.7-2.8-1.8
	c-1.1,0.7-0.2,2.3,0,3.6c0.3,1.4,0.5,2.8,0.2,4.2c-0.1,0.3-0.3,0.6-0.5,0.7c-0.6,0.3-0.9-0.2-1-0.6c-0.5-1.8-1-3.7-1.5-5.5
	c-0.8-2.6-1.6-5.1-2.5-7.6c-0.3-1-0.9-1.6-1.8-2c0.1-0.3,0.1-0.7,0.3-0.9c0.6-0.9,1.5-1,1.8-0.2c0.3,0.7,0.6,1.5,0.8,2.2
	c0.2,0.7,0.3,1.6,1.4,2.1c0.7-1.7,1.4-3.4,2.6-4.9c0.5-0.7,0.7-1.8,0.8-2.7c0.4-3.2,0.7-6.3,1.1-9.5c0-0.3,0.3-0.7,0.5-0.8
	c0.6-0.2,1,0.3,1,0.8c0,5.3,1.8,10.3,2.5,16.2c1.4-3,1.6-5.5,1.6-8.1c1.3,2.1,1.6,4.5,2.3,6.7c0.7,2.1,0.1,4.1-0.7,6
	c-0.4,0.9-1.6,1.1-2.3,0.3c-1.1-1-1.7-2.3-2-3.7c-0.2-1.1-0.4-2.2-0.6-3.2c-0.1-0.2-0.4-0.6-0.6-0.6c-0.6,0-0.7,0.5-0.8,0.9
	c-0.2,1.8,0.5,3.4,0.8,5.1C35,72.6,34.7,73.5,35.3,74z"/>
<path fill="#A6A6A6" d="M50.7,168.1c0-3.9-0.2-7.7-1-11.5c0.5-5.6-1-10.9-1.9-16.3c0.1-3.3-0.6-6.4-1.8-9.3
	c-2.2-5.7-3.2-11.7-4.8-17.5c-0.2-0.8-0.3-1.6-0.4-2.4c-0.1-0.5-0.1-1,0.4-1.3c0.5-0.2,0.9,0.2,1.1,0.7c0.8,2.1,1.8,4.2,2.1,6.3
	c0.8,5.4,2.6,10.5,3.7,15.9c1.5,6.7,2,13.6,3.4,20.3c0.3,1.2,0.3,2.5,1,3.7c1,0.7,1,1.8,1.3,2.8c0.3,2.4-0.1,4.9,1,7.1
	c-0.1,1.9,0.7,4-1.3,5.4c-0.5,0.9-1.2,0.9-1.6,0C51.5,170.6,51.1,169.3,50.7,168.1z"/>
<path fill="#797979" d="M57.3,144.1c0.7,2.2,1.3,4.5,2,6.7c1.4,6.3,2.4,12.7,1.9,19.2c0.2,2.5,0.4,5,0.7,7.4c0.4,3,0.4,5.9,0.3,8.9
	c-0.6,0-1.2,0-1.8,0c0.1-3-0.4-6-0.9-9c-1.1-7.9-1.4-15.9-2.9-23.7c-0.8-4.2-1.7-8.4-2.5-12.6c-0.2-1.1-0.4-2.2-0.3-3.3
	c0.2-1.3,1.1-0.8,1.8-0.3l0,0c0.6,0.5,0.4,1.4,0.9,1.9c0,0.3,0.1,0.6,0.1,0.9C57.4,141.3,56.4,142.9,57.3,144.1z"/>
<path fill="#737373" d="M53.6,171.9c0-1.9-0.1-3.8-0.1-5.7c-1.1-2.2,0.2-4.6-0.8-6.8c0-0.9-0.1-1.9-0.1-2.8c0.1-1.1-0.2-2.3,0.6-3.2
	c0.1-0.1,0.6-0.2,0.8-0.1c0.2,0.2,0.4,0.5,0.4,0.8c0.7,6.5,2.3,12.8,2.2,19.4c0,1.1,0.1,2.2,0.3,3.3c0.1,1.4,0.5,2.8,0.4,4.2
	c-0.1,2-0.6,4-1.4,6c-0.4-3.5-0.9-7.1-1.2-10.6C54.4,174.9,54.4,173.3,53.6,171.9z"/>
<path fill="#808080" d="M21.8,91.8c-0.1-0.5-0.3-1-0.8-0.9c-0.3,0.1-0.7,0.6-0.8,1c-0.2,0.8-0.1,1.6-0.2,2.4c0.6-0.3,1.2-0.7,1.8-1
	C21.8,92.7,21.8,92.2,21.8,91.8z"/>
<path fill="#808080" d="M19,99.9c0.8-1.2,0.9-2.5,0.9-3.9C19.2,97.2,19,98.6,19,99.9z"/>
<path fill="#646464" d="M21.9,73.1c0.3-0.7,0.6-1.3,0.9-2C22.5,71.7,22.2,72.4,21.9,73.1z"/>
<path fill="#808080" d="M19,102.8c-0.3,0.7-0.6,1.3-0.9,2C18.4,104.1,18.7,103.4,19,102.8z"/>
<path fill="#505050" d="M50.9,269c7.3-6.1,11.3-14.3,14.1-23.2c-0.1-4.9,1.9-9.4,2.9-14c4.5-22.7,6.8-45.6,6.2-68.8
	c-0.2-8.5,0.4-17-0.5-25.5c-0.2-1.7-0.2-3.6,1.7-4.8c0.1-1.9,0.3-3.8,0.4-5.8c1.1,0.3,0.6,1.3,0.9,1.9c0.3,0.6,0.5,1.2,0.7,1.8
	c0.4,10.2,0.7,20.4,1.1,30.6c-0.7,1.7-0.7,3.4-0.7,5.2c-0.1,4.1-0.1,8.3-0.2,12.4c-0.3,8.1-0.5,16.2-1,24.3
	c-0.3,4.8-1.2,9.5-2.3,14.1c-1.1,4.3-1.8,8.7-2.3,13.2c-1.3,5.7-1.8,11.5-2.9,17.2c-0.8,4-2.2,7.3-5.5,9.8c0.4,0.7,0.6,1.5,1.1,2
	c3.8,3.5,7,7.7,11.5,10.3c0.9,0.6,1.7,1.3,2.6,2c0.3,0.2,0.4,0.4,0.3,0.6c-0.1,0.2-0.2,0.3-0.2,0.3c-0.3,0.3-0.5,0.6-0.8,0.9
	c-0.2,0.1-0.4,0.3-0.5,0.4c-1.3,0.4-2.2-0.5-3.1-1.1c-2.2-2.1-4.7-3.8-6.8-6c-1.2-1.4-2.7-2.2-4.7-1.5c-2.8,0.7-3.6,2.8-2.7,5.1
	c1.3,3.6-1.1,3.6-3.3,3.9c-0.8-0.8-1.5-1.6-2.3-2.4c-1-1.1-2.1-1.9-3.5-2.2C50.3,269.6,50.3,269.3,50.9,269z"/>
<path fill="#A6A6A6" d="M99.6,243.9c0,1.9,0,3.8,0,5.7c-0.7,2.4-0.9,4.7,1,6.7c0.1,1.1-0.3,2.1-0.9,3.1c-0.7,1.2-1.3,2.5-2,3.7
	c-1.3,1.4-2.3,3-3,4.7l0,0c-0.5,0.6-0.3,1.4-0.9,2l0,0c-0.6,0.5-0.4,1.4-1,1.9l0,0c-3.1,3.1-4.1,0.9-4.9-1.9
	c-0.1-0.5-0.3-1.1-0.1-1.4c2-3,2.7-5.8-0.7-7.7c0,2-0.6,4.7-0.6,7.3c0,1.5-0.8,2.5-2.3,2.5c-1.3,0-2.3-0.9-2.3-2
	c0.1-4.3-2.4-8.2-2-12.5c-0.2,2.2,0.5,4.3,1,6.4c0.5,2.1,2.3,4.5-0.5,6.4c-3.1-1.4-4.1-3.7-3.3-7c0.9-3.6,0.3-7.3,0.4-11
	c0.1-1.6-0.1-3.2,0.6-4.7c0.7-1.4,1.9-1.6,3-0.4c0.2,0.2,0.3,0.5,0.5,0.8c1.2,1.4,1.2,1.4,2.8,0.1c1-0.8,1.8-0.7,2.2,0.4
	c0.5,1.5,0.4,3.2,1.4,4.6c1.2-0.1,0.7-1.1,0.9-1.7c0.2-0.8,0.3-1.6,0.5-2.3c0.3-0.9,0.3-1.9,1.3-2.4c0.7-0.3,1.4,0.7,1.8,2.4
	c0.7,3.4,1.4,6.9,2.1,10.3c0.1,0.6,0.4,1.2,0.7,1.7c0.1,0.2,0.5,0.2,0.8,0.2c0.1,0,0.3-0.1,0.4-0.3c0.5-0.7,0.5-1.5,0.4-2.3
	c-0.6-3-0.4-6-0.3-9.1c0-1.4,0.2-2.9,0.9-4.2C98.2,242.9,98.9,243.4,99.6,243.9z"/>
<path fill="#929292" d="M80.4,268.8c0-2.2,0-4.5-0.9-6.6c-1.6-4-1-8.2-0.8-12.3c0-0.5,0.3-1,0.9-0.9c0.4,0.1,0.9,0.4,1.1,0.8
	c0.8,1.6,0.7,3.4,0.7,5.2c0,4.4,1.1,8.5,2.1,12.7c0.1,0.3,0.4,0.6,0.6,0.7c0.6,0.1,0.9-0.4,0.9-0.8c0.4-4.3,0.9-8.5,1.3-13
	c1.3,0.4,0.9,1.6,1.2,2.3c0.6,1.7,1.1,3.3,2.4,4.6c1.7,1.7,2.1,3.5,0.8,5.6c-0.3,0.5-0.5,1.2-0.7,1.8c-1.4,0.6-1.8,1.4-2,3
	c-0.6,4.7-2.4,5.3-6.6,2.7c-0.8-0.5-1.5-1-2-1.9C81.4,271.9,80.7,270.3,80.4,268.8z"/>
<path fill="#6F6F6F" d="M81.4,274.6c3.3,0.3,3.9,0.1,4.4-2.7c0.3-2,0.3-4.1,0.4-6.2c0-0.5,0-1,0.2-1.4c0.1-0.2,0.4-0.6,0.6-0.6
	c0.2,0,0.6,0.2,0.7,0.4c0.8,1.6,1.5,3.1,2.2,4.7c0,0.3,0,0.6,0.1,0.9c0.4,2.2,0.4,2.2,2.8,1.9c-0.2,1.1-0.3,2.2-0.7,3.2
	c-0.7,1.9-2,2.8-4.2,3.2c-2.9,0.6-4.8,0-6-2.7C81.8,275.1,81.6,274.8,81.4,274.6z"/>
<path fill="#BDBDBD" d="M100.6,256.4c-0.9,0.1-1.6-0.2-1.7-1.2c-0.3-1.9-0.2-3.8,0.7-5.5c0.1,1.7,0,3.5,1.1,5
	C100.7,255.2,100.6,255.8,100.6,256.4z"/>
<path fill="#6F6F6F" d="M94.8,267.9c-0.2-2.3,0.8-3.9,3-4.7C97.5,265.1,96,266.4,94.8,267.9z"/>
<path fill="#6F6F6F" d="M93.9,269.8c0.3-0.7,0.6-1.3,0.9-2C94.7,268.6,94.4,269.3,93.9,269.8z"/>
<path fill="#6F6F6F" d="M92.9,271.7c0.3-0.6,0.7-1.3,1-1.9C93.8,270.6,93.5,271.2,92.9,271.7z"/>
<path fill="#929292" d="M78.5,272.7c0-0.3-0.1-0.6-0.1-0.9c0.3,0.3,0.7,0.6,1,1c0,0-0.5,0-0.5,0L78.5,272.7z"/>
<path fill="#717171" d="M47,272.7c0.3-0.3,0.5-0.5,0.8-0.8C47.5,272.2,47.3,272.4,47,272.7z"/>
<path fill="#858585" d="M78.4,46.2c-0.3-0.6-0.6-1.3-1-1.9C77.8,44.9,78.1,45.5,78.4,46.2z"/>
<path fill="#989898" d="M63.3,257.4c0-1.3,0.7-2.4,1.3-3.5c2.8-6,4.4-12.5,5.9-18.9c0.3-1.5,0.5-3.1,1.3-4.5c0,1.1,0.2,2.3-0.1,3.3
	c-1.1,5-0.5,10.2-1.5,15.2c-0.1,0.6,0.1,1.3,0.3,1.8c0.1,0.2,0.4,0.5,0.7,0.5c0.3,0,0.7-0.1,0.8-0.3c0.3-0.5,0.6-1.1,0.7-1.7
	c0.4-1.2,0.6-2.5,1-3.7c0.5-1.6,1.6-2.7,2.1-2.2c0.8,0.8,0.2,1.8,0.1,2.7c-0.4,4.4-0.8,8.8-1.2,13.3c-0.1,0.6-0.1,1.3-0.2,1.9
	c-0.4,2.1-1.6,2.7-3.4,1.5c-1.8-1.3-3.6-2.5-4.9-4.5C65.5,257.2,64.5,256.8,63.3,257.4z"/>
<path fill="#868686" d="M85.3,197.8c-0.4,4.8-0.8,9.5-1.1,14.3c-0.5,1.5-1,2.9-1.5,4.3c-1-0.1-1.2-0.9-1.1-1.4
	c0.8-6.2,0.1-12.6,2.1-18.7c0.2-0.6,0.2-1.3,1-1.5C85.6,195.6,85,196.8,85.3,197.8z"/>
<path fill="#9D9D9D" d="M90.1,199.7c-0.1,2.9-0.1,5.7-0.2,8.6c-0.2,0.3-0.3,0.5-0.5,0.8c-0.3,0.4-0.8,0.7-1.1,0.1
	c-0.3-0.7-0.3-1.6-0.3-2.3c0-3,0.1-6,0.1-9l0,0c0.4-0.7,1-1.4,1.8-0.9C90.9,197.6,90.7,198.7,90.1,199.7z"/>
<path fill="#BEBEBE" d="M104.4,207.4c-0.7,0.1-1.3-0.1-1.6-0.7c-0.2-0.4-0.3-0.9-0.3-1.4c-0.1-7.2-0.2-14.4,0.9-21.6
	c1.3,0.5,1.1,1.9,1.9,2.7c0,4.4,0,8.8,0,13.2C105.4,202.2,105.2,204.8,104.4,207.4z"/>
<path fill="#BDBDBD" d="M90.1,199.7c-0.2-1.1-0.3-2.3-2-1.9c-0.1-2.8,0.4-5.4,2-7.7c0.2,0,0.4,0,0.5,0.1c0.1,0.1,0.2,0.3,0.2,0.4
	c0.1,2.1,0.1,4.2,0.1,6.2C90.9,197.9,90.7,198.9,90.1,199.7z"/>
<path fill="#DDDDDD" d="M101.6,195.2c-0.1,0.7-0.1,1.5-0.2,2.2c0,0.2-0.4,0.6-0.6,0.6c-0.2,0-0.6-0.2-0.7-0.4
	c-0.6-1.7-0.5-3.4-0.1-5.2c0.1-0.2,0.4-0.6,0.6-0.6c0.6-0.1,0.8,0.4,0.8,0.9C101.5,193.5,101.5,194.3,101.6,195.2z"/>
<path fill="#DDDDDD" d="M92.9,192c0.2,0.2,0.3,0.4,0.5,0.5c-0.2,0.1-0.4,0.3-0.6,0.4c0,0-0.3-0.2-0.2-0.3
	C92.6,192.5,92.7,192.3,92.9,192z"/>
<path fill="#D6D6D6" d="M75.5,132.7c0.1,3.8,0.1,7.7,0.2,11.5c0.5,9.9,0.4,19.9-0.3,29.7c-0.8,11.6-0.7,23.3-2.5,34.9
	c-0.6,3.9-1.1,7.9-1.9,11.8c-1,4.8-1.4,9.8-2.8,14.6c-1,3.5-2,7.1-3.3,10.5c-1.2,0.2-1.6-0.4-1.7-1.5c0-0.4,0-0.9-0.1-1.3
	c2.1-2.5,2.5-5.5,2.8-8.5c0.3-3.5,1.1-6.9,1.7-10.4c1.1-5.6,2.1-11.3,3.2-16.9c1.9-9.8,2.3-19.6,1.8-29.5c-2.7-1.9-2.2-4.9-2-7.4
	c1-11.3,0.9-22.6-0.3-33.9c0.7-11.4-2-22.4-3.1-33.6c-0.1-1.1-0.6-2.2-0.4-3.3c2.5-11.1-2.7-20.8-5.7-30.8c-0.3-1.1-0.7-2.1-0.6-3.2
	c0-0.5,0-1-0.1-1.5c-0.2-2.5-0.1-5-1.2-7.4c-0.3-0.6-0.4-1.3-0.9-1.8c-0.2-0.8-0.5-1.5-0.6-2.3c-1.1-8.7-4.5-16.7-8.1-24.5
	c-0.7-1.1-0.4-1.8,0.7-2.4c1.8-0.1,2.3,1.2,2.9,2.6c3.3,7.2,7.3,14.1,9.7,21.7c0.2,1.1,0.4,2.2,0.2,3.3c0,0.2-0.1,0.4-0.1,0.6
	c0.2,1.2,0.3,2.5,0.7,3.7c2.6,7.5,4.5,15.1,5.9,22.9c0.3,1.7,0.8,3.4,1.2,5c0.9,1.2-0.1,2.7,0.8,3.9c0,0.3,0.1,0.6,0.1,0.9
	c-0.2,3.7,0.7,7.3,1.1,11c0.3,2.7,0.6,5.4,0.8,8.1c0.5,6.9,0.8,13.7,1.3,20.6C75,130.8,75.3,131.8,75.5,132.7z"/>
<path fill="#7C7C7C" d="M66,45.3c-1-1.9-2.1-3.8-3.1-5.8c-0.4-0.7-0.6-1.6,0.2-2.1c0.8-0.5,1.5,0.1,2.1,0.5c0.3,0.2,0.5,0.4,0.8,0.6
	c0.2,1.2,0.3,2.5,0.5,3.7C66.7,43.3,66.7,44.4,66,45.3z"/>
<path fill="#ADADAD" d="M67.9,55.8c-0.6-0.9-1-1.8-1.1-2.9C67.6,53.7,67.9,54.7,67.9,55.8z"/>
<path fill="#787878" d="M71.7,89.4c-0.8-1.2-1-2.5-0.8-3.9C71.7,86.7,71.9,88,71.7,89.4z"/>
<path fill="#C7C7C7" d="M72.6,41.3c-0.2-0.4-0.5-0.8-0.7-1.2C72.1,40.5,72.3,40.9,72.6,41.3z"/>
<path fill="#C7C7C7" d="M71.5,39.4c-0.2-0.3-0.5-0.6-0.7-0.9C71,38.8,71.3,39.1,71.5,39.4z"/>
<path fill="#9B9B9B" d="M50.7,19.3c-1.4-1.1-2.3-2.6-3.2-4.1c-0.2-0.3-0.4-1-0.2-1.3c0.5-0.7,1.1-0.2,1.6,0.2c1.1,1,2.1,1.9,2.7,3.2
	C51.3,18,51,18.6,50.7,19.3z"/>
<path fill="#BBBBBB" d="M52.4,22.3c-0.3-0.4-0.6-0.7-0.8-1.1c-0.5-0.4-0.4-0.8,0.1-1.1C52,20.8,52.2,21.6,52.4,22.3z"/>
<path fill="#BBBBBB" d="M53.4,24.2c-0.7-0.5-1-1.1-1-2C53,22.7,53.4,23.4,53.4,24.2z"/>
<path fill="#9B9B9B" d="M51.7,20.1c0,0.4-0.1,0.7-0.1,1.1c-0.6-0.5-0.9-1.2-0.9-2C51,19.5,51.4,19.8,51.7,20.1z"/>
<path fill="#9B9B9B" d="M51.6,17.4c0.3,0.3,0.7,0.6,1,0.9C52.3,18,51.9,17.7,51.6,17.4z"/>
<path fill="#979797" d="M71.8,135.5c1.4,7.8,1,15.6,1,23.4c0.1,6.2-0.1,12.5-0.1,18.7c-1.1,2.1-0.9,4.4-0.8,6.6
	c0.3,5.8-0.8,11.4-1.3,17.1c0,0.5-0.3,1-0.9,0.8c-0.2-0.1-0.5-0.4-0.5-0.7c-0.4-2.4-0.3-4.8,0.2-7.1c0.4-1.9,0.7-3.8,0.3-5.7
	c-0.7-3.1-0.7-6.3-0.7-9.5c0-3.1-0.2-6.1-1.4-8.9c-0.5-1.2,0.1-3-1.9-3.3c-0.9,1.2-0.6,2.5-0.3,3.7c1,4.1,0.5,8.3,1.4,12.3
	c0.3,1.5,0.1,3.1-0.8,4.5c-1-0.3-0.8-1-0.8-1.6c-0.7-5.4-1.4-10.7-2.2-16.1c-0.1-0.6-0.3-1.4-1.2-0.9c-0.3,0.2-0.3,0.8-0.5,1.3
	c-1.3-4.1-1.6-8.3-1.9-12.6c-0.1-2.2,0-4.4,0-6.6c1.4,1.5,1.7,3.4,2.1,5.2c0.5,2.2,0.5,4.5,1.7,6.4c0.1,0.2,0.5,0.4,0.8,0.4
	c0.2,0,0.4-0.5,0.4-0.7c-0.6-2.5-1.4-4.9-1.1-7.5c0.9-0.6,0.8-2,2-2.3c2.6,1.3,2.6,1.3,3.6,5.3c-1.9-7.6,0-15.5-1.4-23.2
	c0.2-3.5,1.4-6.8,0.1-10.4c-0.5-1.4,0.2-3,1.9-3.3c2.3-0.3,1.7,1.7,1.8,3C71.6,127.6,70.8,131.6,71.8,135.5z"/>
<path fill="#949494" d="M60.3,196.9c-0.2-3.1,0-6.1,1.8-8.7C62.1,191.2,61.4,194.1,60.3,196.9z"/>
<path fill="#3F3F3F" d="M36.4,5c0.2,0.5,0.5,0.9,1,0.8c1-0.2,1.9-0.1,2.5,0.8c1.6,2.2,3.6,4.1,3.9,7c0.9,3,2.6,5.7,3.8,8.5
	c0.4,0.7,0.6,1.4,1,2.1c0.2,0.3,0.3,0.7,0.4,1c0,0.5-0.1,1.1,0.1,1.6c0.1,0.4,0,0.7-0.3,0.9c-0.3,0.6-0.9,1.2-1.4,0.6
	c-1.9-2.2-3.4-4.6-4.6-7.2c-0.6-1.3-0.8-3.2-2.8-3.4c-0.8,1.4,0,2.8,0.2,4.1c0.4,2.5,1.1,5,1.6,7.5c0.1,0.4-0.2,0.9-0.6,1.2
	c-0.4,0.3-0.9,0-1.2-0.4c-0.3-0.4-0.5-0.8-0.8-1.2c-0.8-1-1.4-2.5-2.9-1.8c-1.3,0.7-0.9,2.3-0.8,3.5c0.2,2.1,0.6,4.1,1,6.1
	c0.1,0.6,0.3,1.2,0.4,1.9c0.1,0.9,0.6,2.1-0.5,2.5c-1.2,0.5-1.5-0.8-1.9-1.6c-0.4-0.9-0.6-1.8-1.1-2.7c-0.2-0.4-0.6-0.8-1-0.8
	c-0.3,0-0.8,0.5-1,0.8c-1,2.2-1.8,4.4-2.8,6.6c-0.6,1.5-0.8,3.1-0.9,4.7c0,1.8-0.1,3.5-0.1,5.3c-0.1,2.3-0.6,4.4-2,6.3
	c-2,2.5-2.9,5.3-2.8,8.4c-1.6-0.3-2.6,0.3-3.1,1.9c-0.3,1-1,1-1.6,0c-0.1-0.2-0.2-0.4-0.3-0.6c-0.9-0.9-1.3-2-1-3.3
	c1.3-5.5,3.1-10.9,3.8-16.5c0.3-3.3,1-6.4,1.9-9.6c0.9-1.3,1.7-2.5,2-4.1c0.7-9.4,2.5-18.6,5.4-27.5c1-3.1,2.6-4.6,6-3.9
	C36,4.6,36.2,4.8,36.4,5z"/>
<path fill="#A4A4A4" d="M50.7,53.7c0.4,0.5,0.8,0.9,1.5,1.8c-0.3-7.3-2.4-13.6-5-19.7c-0.3-0.7-0.8-1.4-1-2.1
	c-0.3-0.8-1.2-2-0.1-2.5c0.9-0.4,1.6,0.9,2.1,1.6c2.8,4.6,5.3,9.4,6.3,14.9c0.4,2.4,0.8,4.7,1.2,7c-0.1,0.3-0.1,0.5-0.2,0.8
	c0.2,5.6,1.2,10.9,3.3,16.2c4.5,11.5,7.1,23.6,8.4,35.9c0.2,1.9,0.4,4.3-2,4.8c-2.8,0.6-3.2-2-3.5-3.9c-1.4-10.8-6.6-20.4-9.5-30.8
	c0.9-5.8-1-11.1-2.4-16.5C49.1,58.6,48.2,55.9,50.7,53.7z"/>
<path fill="#818181" d="M45.8,69.3c-0.3-0.9-0.6-1.9-1.1-2.6c-1.4-2.2-2.8-4.3-2.9-7c0-0.4-0.4-0.9-0.6-1.2c-0.4-0.5-1-0.8-1.7-0.7
	c-0.8,0.1-1,0.7-1.1,1.3c-0.1,0.5-0.1,1-0.1,1.4c-1.8-2.9-2-5.9-0.7-9c0.4-1,0.3-2.7,1.3-2.9c1.6-0.3,1.3,1.8,2.1,2.6
	c0.1,0.1,0.1,0.3,0.2,0.4c0.4,0.5,0.8,1.2,1.5,0.5c0.3-0.3,0.3-0.9,0.4-1.3c2-0.3,2.5,1,3,2.6c1.3,4.3,3,8.5,3.2,13.1
	c0.3,4.1,3.2,7.6,3.2,11.8c1.3,4.9,3.2,9.7,5.1,14.5c0.6,1.5,1.3,2.9,1.1,4.6c-0.2,0.8-0.6,1.4-1.2,1.8c-0.5,0.2-1,0.2-1.4,0
	c-0.9-0.6-1.3-1.4-1.5-2.4C49.7,89.6,48.9,81,46.4,73c-0.4-0.8-0.5-1.7-0.7-2.6C45.5,70,45.5,69.6,45.8,69.3z"/>
<path fill="#A4A4A4" d="M51.6,78.8c-1.6-4.6-3.4-9.1-4.1-14c-0.7-4.8-2.3-9.5-4.5-13.9l0,0c-0.9-0.8-0.1-2.1-0.9-2.9l0,0
	c-1.6-2.6-0.6-5.3,0.1-7.8c0.5-1.9,1.9-3.3,3.7-0.8c0.3,0.9,0.7,1.9,1,2.8c3.5,9.4,1.8,19.9,6.4,29c1,1.9-0.8,3.7-0.7,5.6
	C52.5,77.6,52.3,78.3,51.6,78.8z"/>
<path fill="#A2A2A2" d="M58.4,54.8c0.3,0.3,0.6,0.7,1,1c1.8,2.3,0.9,5.2,1.9,7.7l0,0c4.2,7.5,5.2,15.8,6.6,24.1
	c0.3,1.6,0.1,3.4-1.9,3.8c-1.9,0.4-2.2-1.5-2.6-2.7c-0.8-2.2-1.4-4.5-1.6-6.9c-0.3-4-1.6-7.6-3.7-10.9c-3-5-3.5-10.4-2.8-16
	c0,0,0.3-0.2,0.3-0.2c0.6,2.4,1.2,4.9,1.9,7.3c0.1,0.5,0.2,0.9,0.4,1.3c0.1,0.2,0.5,0.4,0.7,0.4c0.2,0,0.5-0.4,0.5-0.6
	c0-1.1,0-2.2-0.3-3.3C58.5,58.2,58.2,56.5,58.4,54.8z"/>
<path fill="#BEBEBE" d="M51.7,76.9c1.2-3.9-0.1-7.5-1.5-11c-0.9-2.1-1.3-4.2-1.4-6.4c-0.1-4.8-0.6-9.5-2.1-14
	c-0.4-1.1-0.3-2.2,0.3-3.2c2.4,3.5,3,7.5,3.9,11.5c-0.4,4.2,0.4,8.2,1.9,12.1c1.5,4,2.2,7.9,0.9,12C52.4,78.4,52.2,77.4,51.7,76.9z"
	/>
<path fill="#818181" d="M45.8,39.4c-0.7-0.1-1.4-0.1-1.5,0.7c-0.1,0.6,0.1,1.2,0.2,1.9c0.2,1.2,0.1,2.2-1.1,2.8
	c-1.4,0.7-1.3,2-1.4,3.2c-2.8-3.8-3.8-8.3-4.5-12.9c-0.1-0.9,0.7-1.4,1.5-1c1.2,0.5,2.3,1.1,3.5,1.6C44.3,36.4,45.4,37.6,45.8,39.4z
	"/>
<path fill="#A0A0A0" d="M47.9,25.8c0-0.3-0.1-0.5-0.2-0.8c-0.5-0.6-0.3-1.4-0.9-2c-0.9-2.1-1.8-4.2-2.8-6.3c-0.4-1-0.8-2-0.2-3.1
	l0-0.1c0.4,0.3,0.8,0.7,0.9,1.2c0,0.2,0.1,0.5,0.2,0.7c0.3,0.3,0.6,0.7,0.8,1l0,0c0.5,0.3,0.8,0.7,0.9,1.3c1.1,2.9,3.2,5.3,4,8.3
	c-0.3,0.7-0.7,1.3-1,2c-0.3,0-0.5-0.1-0.8-0.1c-0.1-0.3-0.1-0.6-0.2-0.8C48.4,26.6,48.1,26.3,47.9,25.8z"/>
<path fill="#818181" d="M42,48c0.7,0.8,0.9,1.8,0.9,2.9C42.3,50.1,42.1,49.1,42,48z"/>
<path fill="#BBBBBB" d="M68.9,135.4c0.4,1.4,0.9,2.7,1.2,4.1c0.3,1.2,0.7,2.5,0.6,3.7c-0.4,6-0.3,12,0,18c0.1,1.2,0.7,3.3-1.2,3.5
	c-1.3,0.1-1.3-1.9-1.6-3.1c-0.7-3.1-1.1-6.3-2.8-9c-2.3-2.7-2.6-6.2-3.3-9.5c-1.6-7.2-4.3-14-5.8-21.2c-0.1-1.5,0-2.9-0.2-4.4
	c0-0.5,0.2-0.9,0.5-1.3c-0.3-2.2-1.1-4.2-2-6.3c-1.1-2.6-2.1-5.2-3.1-7.9c-1.3-3.5-1.3-3.5,2.4-3.3c0.6-0.5,1.2-0.9,2-0.7
	c0.3,0.2,0.6,0.4,0.9,0.7l0,0c0.1,5.5,2.2,10.5,4.6,15.4c0.9,1.8,1.6,3.8,3.9,4.5c2.9,3.4,3.8,7.3,3.1,11.7
	C67.6,132.3,66.9,134.1,68.9,135.4z"/>
<path fill="#787878" d="M56.3,116.3c0,0.3,0.1,0.6,0.1,0.9c1,1.1-0.1,2.7,0.9,3.9c0.4,2.9,1.2,5.6,2.3,8.3c0.6,1.6,1.2,3.3,1.6,5
	c1.4,6.1,2.6,12.2,3.9,18.3c0,0.6,0,1.3-0.1,1.9c-0.1,0.4-0.3,0.8-0.5,1.2c-0.3-0.3-0.7-0.5-1-0.8c-0.1-0.1-0.2-0.2-0.3-0.4
	c-0.2-0.9-0.3-1.9-0.6-2.8c-2.4-8.4-4.9-16.7-7.4-25.1c-0.4-1.2-0.6-2.5-0.9-3.7c0.1-1.8,0.1-3.7,0.2-5.5
	C54.7,116.5,55.4,116.2,56.3,116.3z"/>
<path fill="#C3C3C3" d="M55.5,98.9c-0.6,0.4-1.3,0.3-1.9,0c-0.1-2-1.1-3.6-2.2-5.2c-1.3-1.9-2.2-3.9-2.5-6.1
	c-0.4-3.6-1.4-7.1-2.5-10.6c-0.5-1.5-0.8-3.1-1.2-4.6c-0.3-1.1-0.1-2.2,0.5-3.2c0,0.3,0.1,0.6,0.1,0.8c0.6,0.5,0.3,1.4,0.9,1.9
	c1.1,3.6,2.4,7.2,3.4,10.8c1,3.8,2.3,7.5,4.2,11c0.5,1,0.8,2,1.2,3.1C56,97.6,56.1,98.3,55.5,98.9z"/>
<path fill="#949494" d="M35.3,74c-0.3-0.6-0.6-1.3-0.9-1.9C34.7,72.7,35,73.3,35.3,74z"/>
<path fill="#949494" d="M57.3,144.1c-0.7-1.2-0.9-2.5-0.9-3.9C57.2,141.4,57.4,142.7,57.3,144.1z"/>
<path fill="#949494" d="M56.4,139.3c-0.3-0.6-0.6-1.3-0.9-1.9C55.8,138,56.1,138.6,56.4,139.3z"/>
<path fill="#949494" d="M52.7,159.3c1.1,2.2,0.8,4.5,0.8,6.8C52.3,164,52.6,161.6,52.7,159.3z"/>
<path fill="#CCCCCC" d="M68.9,135.4c-0.8,0.7-1.7,1.1-2.3-0.2c-0.3-0.9-0.6-2-0.4-2.8c1.4-4.2-0.3-7.8-1.7-11.5
	c-0.1-0.3-0.3-0.6-0.5-0.8c-0.5-0.2-0.8-0.4-1.1-0.8c-0.4-0.9-0.8-1.8-1.1-2.7c-1-2.1-1.7-4.3-2.8-6.4c-2-3.8-2.9-7.9-1.6-12.2
	c-0.2-2.4-1.2-4.6-2.1-6.8c-1.5-4-3-8.1-3.8-12.3c0-0.6,0.1-1.3,0.1-1.9c0.6,0.3,1.2,0.6,1.9,0.9c1.4,4.1,2.8,8.1,4.5,12.1
	c2.1,5,4,10.1,4.5,15.6c0.2,1.8,0.5,3.7,1.8,5.3c0.9-0.9,0.7-1.7,0.6-2.4c-0.8-5.1-1-10.2-2.1-15.2c-1.7-7.9-2.5-16.1-6.6-23.4
	c-1.3-2.3-1.7-4.7-1.8-7.4c-0.1-2.4-0.6-4.8-0.7-7.1c-0.1-1.3,0.8-1.1,1.5-0.4c0.1,3.2,0.8,6.3,1.4,9.5c0.5,2.2,1.2,4.3,2.6,6.1
	c2.4,3,3.4,6.5,3.8,10.2c0.3,2.7,1.1,5.3,1.9,7.9c0.2,0.6,0.3,1.4,1.2,1.1c0.6-0.2,0.8-1,0.7-1.6C66,82.2,66,76.2,63.6,70.7
	c-1-2.4-1.7-4.8-2.3-7.3c2.2,1.7,2.7,4.3,3.5,6.7c2.2,7,3.3,14.3,4.9,21.5c0.2,1.1,0.4,2.3,0.1,3.3c-1,3.7-0.1,7.3,0.5,10.9
	c0.4,2.2,0.6,4.4,0.6,6.7c0,1.1-0.1,2.3,0.1,3.4c1.3,6.5,0.7,13.1,0.8,19.6c-0.8-1.4-0.9-3-0.9-4.6c0-1.3,0.1-2.5-0.1-3.8
	c-0.3-1.6,0.9-3.5-1.1-4.6c-1.2,1.5-0.1,3-0.1,4.5c0,1.3-0.1,2.5-0.2,3.8C69.2,132.3,69,133.8,68.9,135.4z"/>
<path fill="#CCCCCC" d="M61.2,63.4c-1.2-2.4-1.5-5.1-1.9-7.7c1.1,0.9,1.8,2.1,1.8,3.5C61.2,60.7,61.2,62,61.2,63.4z"/>
<path fill="#3C3C3C" d="M62.1,50.9c0.7,0.9,1,1.9,0.9,3C62.3,53.1,62,52,62.1,50.9z"/>
<path fill="#3F3F3F" d="M45.8,16.4c-0.3-0.3-0.6-0.7-0.8-1C45.3,15.8,45.6,16.1,45.8,16.4z"/>
<path fill="#3F3F3F" d="M44.8,14.7c-0.3-0.4-0.6-0.8-0.9-1.2C44.2,13.9,44.5,14.3,44.8,14.7z"/>
<path fill="#3F3F3F" d="M46.7,17.7c-0.3-0.4-0.6-0.9-0.9-1.3C46.1,16.8,46.4,17.3,46.7,17.7z"/>
<path fill="#4F4F4F" d="M18,70.1c0-1.1,0.3-2.1,0.9-2.9C19,68.3,18.7,69.3,18,70.1z"/>
<path fill="#646464" d="M46.9,23c0.3,0.7,0.6,1.3,0.9,2C47.4,24.4,47.2,23.7,46.9,23z"/>
<path fill="#646464" d="M47.9,25.8c0.2,0.4,0.5,0.8,0.7,1.1C48.4,26.6,48.2,26.2,47.9,25.8z"/>
<path fill="#A1A1A1" d="M57.5,97.9c0.3,0.7,0.7,1.5,0.7,2.2c-0.1,4,1.5,7.6,3,11.3c0.8,1.9,1.3,3.8,2,5.8c0.5,0.5,0.3,1.4,0.9,1.9
	c0,0.3,0,0.6,0.1,0.9c-0.1,0.8-0.2,1.6-0.5,2.3c-0.1,0.3-0.7,0.7-1.1,0.7c-0.4,0-0.7-0.5-1-0.9c-0.2-0.2-0.2-0.6-0.2-0.9
	c-0.2-3.4-1.6-6.4-3-9.4c-0.8-1.7-1.5-3.5-2.3-5.2c-1.3-2.7-1.2-5.2,0.5-7.6C56.8,98.6,57.1,98.3,57.5,97.9z"/>
<path fill="#A1A1A1" d="M46.8,72.1c-0.3-0.6-0.6-1.3-0.9-1.9C46.2,70.8,46.5,71.4,46.8,72.1z"/>
<path fill="#A1A1A1" d="M55.5,98.9c0-0.6,0-1.3,0.1-1.9c0.3,0.6,0.6,1.3,0.9,1.9C56.1,98.9,55.8,98.9,55.5,98.9z"/>
<path fill="#A1A1A1" d="M57.3,121.1c-0.8-1.2-0.9-2.5-0.9-3.9C57.2,118.4,57.4,119.7,57.3,121.1z"/>
<path fill="#BBBBBB" d="M64.1,119.1c-0.3-0.6-0.6-1.3-0.9-1.9C63.5,117.8,63.8,118.5,64.1,119.1z"/>
</svg>
