<?xml version="1.0" encoding="utf-8"?>
<!-- Generator: Adobe Illustrator 18.1.1, SVG Export Plug-In . SVG Version: 6.00 Build 0)  -->
<svg version="1.1" id="Layer_1" xmlns="http://www.w3.org/2000/svg" xmlns:xlink="http://www.w3.org/1999/xlink" x="0px" y="0px"
	 viewBox="0 0 169 175" enable-background="new 0 0 169 175" xml:space="preserve">
<path fill="#6D6D6D" d="M44.8,21.7c4.1-2.9,8.3-5.8,12.4-8.7c4.3,0.2,7.9-1.6,11.5-3.5c1-0.5,2-1,3.1-1.2c1.7-0.2,3.2,0.4,4,2
	c0.9,1.8-0.1,2.8-1.4,4c-3,2.5-7.1,3.7-9,7.5c-3.8,2.6-8.4,4.2-11,8.5c-9.3,8.4-17.1,18.1-23.3,29c-0.3,0.6-0.7,1.1-1.1,1.7
	c-0.2,0.4-0.4,0.8-0.7,1.1c-0.4,0.5-0.9,1-1.5,1.3c-0.5,0.1-0.9,0.1-1.4-0.1c-0.4-0.2-0.8-0.5-1.1-0.8c-0.5-0.6-0.6-1.4-1.3-2.4
	c-3.3,7.6-7.2,14.7-8.3,22.9c-0.9,6.5-4.6,12.3-6.9,18.4c-0.5,1.3-1.4,2.6-3.3,1.7C6.2,97.4,7.2,91.6,9,85.9
	c1.9-6.2,4.1-12.4,6.2-18.6c1.3-3.8,2.6-7.6,4.4-11.1C23.2,49.1,26.9,42,32,35.8c3-3.7,6-7.5,9-11.2c0.9-0.7,2-1.1,2.8-2l0,0
	C44.2,22.3,44.5,22,44.8,21.7z"/>
<path fill="#474747" d="M20.8,145.5c-0.2,4.5,0.8,8.8,1.6,13.2c0.5,2.7-0.5,4.6-2.5,6.3c-1,0.9-2,0.9-3,0c-0.4-0.3-0.7-0.6-1-1
	c-1.1-1.4-2.3-2-4.1-1.7c-1.3,0.2-2.1-0.5-2.6-1.6c-1.1-2.4-2.6-4.8-2.8-7.6c0-0.6-0.1-1.3-0.4-1.9c-1.3-2.6-1.6-5.5-1.6-8.3
	c0-0.2,0-0.3-0.1-0.5c-0.2-0.4-0.4-0.9-0.8-1c-0.6-0.2-0.8,0.4-0.8,0.9c-0.1,2.4-0.2,4.8-0.3,7.1c-0.1-0.3-0.3-0.6-0.4-0.9
	c-0.8-8.3-1.4-16.5,0-24.8c0.1-0.5,0.3-0.9,0.4-1.4c0.9-2.7,1.3-5.5,1.5-8.3c0.1-0.9-0.3-2.1,0.9-2.4c1-0.3,1.8,0.5,2.3,1.4
	c0.8,1.5,1.3,3.6,3.6,3c2.1-0.5,2.7-2.6,3.3-4.4c1-3.2,1.4-6.5,1.7-9.8c0.2-2.2,0.5-4.7,3.9-3.3c0.7,0.9,0.6,2,0.6,3
	c0,5.4,0.1,10.8-0.7,16.2c-0.9,6.1,0.7,12.2,1.2,18.2C21.1,139.3,22.3,142.4,20.8,145.5z"/>
<path fill="#606060" d="M18.9,98.4c-1.1,1.7-0.9,3.7-1,5.6c-0.2,4.7-1.4,9.1-3.3,13.4c-0.8,1.8-1.9,2.6-4.1,2.6
	c-4.6-0.1-4.6,0-5.1-4.7c0-0.4-0.2-0.9-0.6-1.3c-0.5,3-0.3,6.1-2.3,8.6c-0.3-3.8,0.9-7.5,1.3-11.3c0.3-2.7,1.1-5.3,1.7-7.9
	c1-1.3,1.5-2.8,1.8-4.4c0.2-1.1,0.4-2.2,1.1-3.1c1-1.2,1.2-2.5,1-4c-0.1-1.3-0.3-2.6,1.8-2.3c0.2,0,0.7-0.6,0.8-1
	c0.7-2.9,1.8-5.7,1.6-8.9c-0.2-2.1,0.3-4.1,1.7-5.8c0.3-0.4,0.7-0.8,0.8-1.2c0.5-4.7,4.1-8.2,5.1-12.7c0.2-0.9,0.6-1.8,1-2.7
	c0.7-1.3,0.7-3.7,2.6-3.4c1.4,0.3,1.6,2.5,2.2,4c0.3,0.7,0.1,1.6,0,2.3c-0.1,1,0,1.9,0.5,2.7c1.4,1.1,1,2.7,0.5,3.9
	c-3.8,9.3-5.6,19.1-7.5,28.8C20.3,96.8,20.1,97.9,18.9,98.4z"/>
<path fill="#888888" d="M64,20.7c-0.7-0.3-1.1-1-0.4-1.5c1.3-1,2.6-1.8,4-2.5c2.3-1.2,4.4-2.5,6.4-4.2c0.3-0.2,0.4-0.9,0.3-1.3
	c-0.1-0.3-0.7-0.7-1.1-0.7c-1-0.2-1.9,0.3-2.7,0.7c-1.7,0.8-3.5,1.7-5.2,2.5c-2.3,1.2-4.5,1.4-6.8-0.2c-0.4-0.3-0.9-0.4-1.3-0.6
	c3.8-2.9,8.3-4.6,12.5-6.7c7.8-2.9,11-2.2,15.9,3.5c0.3,1.9-1.1,2.4-2.4,3c-5.6,2.3-10.8,5.4-16.1,8.3c-0.6,0.4-1.3,0.5-2,0.4
	C64.7,21.4,64.3,21.1,64,20.7z"/>
<path fill="#B0B0B0" d="M75.6,3.5c0.6,0.1,1.3,0.1,1.8,0.5c1.8,1.1,3.6,1.2,5.5,0.4c2.1-0.9,4-0.6,5.7,1.1c0.9,0.9,2,1.5,3.3,1.9
	c-0.9,4.3-3.9,3.4-6.8,2.8c-1.5-0.1-2.9-0.4-3.8-1.6C80.1,7,78.5,7,76.8,6.6c-2.4-0.6-4.6-0.6-7-0.3C71.4,4.6,73.6,4.4,75.6,3.5z"/>
<path fill="#B7B7B7" d="M44.8,21.7c-0.3,0.3-0.7,0.6-1,0.9C44.2,22.3,44.5,22,44.8,21.7z"/>
<path fill="#585858" d="M85.2,10.1c2.2-1.1,4.9-1.1,6.8-2.8c3.5-1,7-2,10.5-3.1c2.8-0.8,5.2-3.9,8.6-1.8l0,0
	c0.5,0.5,1.1,0.5,1.7,0.8c1.5,0.3,3,0,4.4,0.6c0.4,0.1,0.9,0.2,1.3,0.4c2,0.8,4.2,0.3,6.2,1.1c0.3,0,0.6,0,0.8,0.1
	c1,0.9,2.5,0.1,3.4,1c1.4,1.9,0.3,2.7-1.4,3.2c-2.7,1.1-5.2-0.3-7.7-0.8c-13.9-2.9-26.4,0.6-37.6,8.9c-0.2,0.2-0.6,0.2-0.9,0.4
	c-5.7,1.7-10,5.8-15.3,8.2c-3.6,0.8-6.6,2.5-8.7,5.7c-1,1.5-2.7,2.8-4.8,1.6c-1.5-1.9,0.7-2.8,1-4.3c2.2-3,4.8-5.4,8.2-7
	c0.8-0.4,1.6-1,2.4-1.6c0.3,0,0.6-0.1,0.9-0.1c0.3-0.3,0.7-0.6,1-0.9C72.4,16.6,78.8,13.3,85.2,10.1z"/>
<path fill="#3E3E3E" d="M26.6,160.9c-0.3-0.7-0.7-1.4-0.9-2.2c-1.5-8-3.6-15.8-4-24c-0.1-1.1-0.4-2.2-0.5-3.3
	c-0.5-3.9-1.8-7.8-0.7-11.8c-0.9-5.3,0.8-10.4,0.5-15.7c-0.1-1.6,0.3-3.2,0.5-4.7c0.1-1.4,0.3-2.8,0.4-4.3c0.1-1.6,0-3.1-0.2-4.7
	c-1.5,3.6-1,7.7-2.6,11.3c0-1,0-2,0-2.9c0.6-7,1.7-13.9,4-20.5c1.7-4.9,3.1-10,4.7-15c0,0,0,0,0,0c0.6-0.5,0.4-1.4,0.9-1.9
	c0-0.3,0.1-0.6,0.1-0.9c0.3-0.3,0.6-0.7,0.9-1c2.5-4,5-8.1,7.6-12.1c4.4-6.9,10.4-12.3,16.4-17.7c0.5,1.5-0.8,2.5-1,3.9
	c0.1,0.9,0.2,1.7-0.2,2.5c-0.4,0.9-1,1.8-1.7,2.6c-0.3,0.3-0.6,0.6-0.9,0.8c-0.3,0.2-0.6,0.5-1,0.7c-0.2,0.1-0.3,0.2-0.5,0.3
	c-0.3,0.2-0.7,0.4-1,0.6c-0.2,0.1-0.3,0.2-0.5,0.3c-0.3,0.3-0.6,0.6-0.9,0.8c-0.1,0.2-0.3,0.3-0.4,0.5
	c-7.9,11.2-13.9,23.4-18.9,36.2c0.8-3.6,5.2-3.7,6.7-7.1c1.3-2.9,3.1-5.6,5.5-7.8c1.6-1.5,3.3-2.7,5.5-1.2c0.4,0.3,0.7,0.7,0.9,1.2
	c0.4,1,0.5,2,0.1,2.9c-0.2,0.4-0.5,0.8-0.8,1.2c-1.2,2.4-3,4.5-4.1,7c-0.3,0.7-0.8,1.5-0.8,2.2c-0.2,6.6,0.5,13.1-1.1,19.7
	c-0.4,1.8,1.1,4.3,3.5,4.6c7.1,0.7,6.5,7.2,9,11.5c0.3,0.5,0.2,1.3,0.2,1.9c-0.1,4.2,2.1,7,5.7,8.6c2.5,1.1,7.8-1.6,9.6-4.9
	c1.3-2.4,2.9-3.9,5.7-3c2.6,0.9,3.5-0.7,4.4-2.4c1.4-2.9,2.8-5.7,4.8-8.2c1.2-1.5,2.3-3,4.3-1.6c1.8,1.2,1.5,2.9,0.6,4.6
	c-1.2,2.1-1.6,4.1-0.2,6.3c0.4,1.1,0.3,2.5-0.3,3.2c-4.5,5.1-5.7,12.1-10,17.2c-2.3,2.7-4.3,5.4-8.1,6.2c-2.6,0.6-4.2,2.8-5.1,5.3
	c-1,2.8-2.5,4.8-7.3,4.8c7.5,4.4,4.5,9.4,3.3,14.2c-2,3-3.9,6.2-6.7,8.6c-1.7-0.8-1.4-2.4-1.5-3.7c-0.1-1.9-0.9-3.4-2.3-4.5
	c-1.3-1-2.6-2.3-4.2-1.7c-1.7,0.6-1,2.5-1.3,3.8c-0.4,1.7,0.3,4-2,4.9c-2.3,0.9-3.6-0.4-4.5-2.3c-0.5-1.1-1-3.4-1.9-3.1
	C27.9,168.8,28.7,163.1,26.6,160.9z"/>
<path fill="#606060" d="M28.5,61c-0.3,0.6-0.6,1.3-0.9,1.9C27.9,62.3,28.2,61.7,28.5,61z"/>
<path fill="#606060" d="M29.4,59.1c-0.3,0.3-0.6,0.7-0.9,1C28.8,59.8,29.1,59.4,29.4,59.1z"/>
<path fill="#6D6D6D" d="M66,19.8c-0.3,0.3-0.7,0.6-1,0.9C65.3,20.4,65.6,20.1,66,19.8z"/>
<path fill="#6E6E6E" d="M127.4,8.2c0.4,0.3,0.8,0.6,1.1,0.9c0.6,0.5,0.7,1.1,0,1.5c-0.5,0.3-1.2,0.5-1.8,0.6
	c-5.6,1.7-11.2,3.4-16.8,5c-1.1,0.3-2.2,0.5-3.3,0.6c-3,0.4-5.8,1.5-8.4,3c-1.1,0.6-0.4,1.3,0.4,1.7c0.5,2.3-1.5,2.8-2.9,3.4
	c-7.1,2.7-13.7,6.3-20.1,10.4c-1.3,0.8-2.6,2-4.4,1.2c-1.7,1.9,1.3-3.6-1.9-1c-6.9,5.7-13,12.6-21.3,16.5c-1.8,0.9-3.5,1.9-5.2,0.2
	c-1.7-1.6-1.3-3.6-0.2-5.3c1.4-2.2,0.8-5,2.3-7.2l0,0c0.3-0.3,0.6-0.7,0.9-1l0,0c0.3-0.3,0.6-0.6,1-1l0,0c0.3-0.3,0.6-0.6,1-1l0,0
	c1.2-0.7,2.1-1.7,2.9-2.8c0.6-0.4,1.2-0.7,1.8-1.1c2.6-1.6,4.4-3.9,6.6-6c1.7-1.7,3.5-3.1,6-3.5c1.7,5-1.2,8.1-4.8,10.6
	c16.5-10.2,34-18,51.4-23.1c-4,1.7-9.6,1.8-14.9,2.9c-4.4,0.9-8.2,3.5-12.8,3.4c-1.8,0-3.5,0.5-4.5-1.6c1.4-1.4,3.2-2.1,5-2.8
	c6.7-2.7,13.4-5.2,20.3-6.9c3.2-0.8,6.3-1,9.4-0.1C118.5,7.3,123,7.7,127.4,8.2z"/>
<path fill="#8C8C8C" d="M79.4,15.9c2.2-0.4,4.4-0.7,6.6-1.1c1.1-0.2,2.2-0.5,3.2-1.1c2-1.2,4.1-1.7,6.4-1.7c0.6,0,1.3-0.1,1.9-0.3
	c5.4-2.4,11.3-1.4,16.9-2.5c0.8-0.2,1.6,0,2.4,0c1.6,0,2.7,0.5,2.3,1.1c-0.5,0.8-1.4,0.7-2.1,0.9c-2.7,0.5-5.1,1.8-7.5,3.1
	c-1.1,0.6-2.2,1.3-3.5,1.6c-4.6,0.8-8.8,2.7-13.1,4.6c-2.9,1.3-5.9,2.4-8.8,3.7c-3.9,1.8-8,3.2-11.5,5.9c-1,0.8-2.2,1.4-3.4,1.7
	c-5.1,1.2-9.2,4.3-13,7.7c-0.1,0.1-0.2,0.2-0.4,0.3c-0.4,0.1-1,0.3-1.3,0.2c-0.5-0.3-0.3-0.9,0-1.2c0.8-1,1.7-1.9,2.6-2.8
	c1.3-1.4,2.7-2.7,4-4.1c0.6-0.6,1.2-1.3,0.5-2.1c-1-1.2-0.5-1.9,0.4-2.8c1-1,1.9-2.1,2.9-3.2c1.7-0.4,3.2-1.2,4.6-2.2
	C72.7,19.3,76,17.5,79.4,15.9z"/>
<path fill="#2B2B2B" d="M58.3,164.7c0-2.2,0-4.5-0.2-6.7c-0.2-2.4-0.7-2.8-3.4-2.6c-1.4,0.1-2.1-0.7-1.9-2c0.4-2.1,0.4-4.1,0.1-6.2
	c-0.1-0.8,0.2-1.5,0.6-2.2c0.6-0.9,1.8-0.9,2.4-0.1c0.8,1.1,0.7,3.3,2.5,2.9c1.3-0.2,1.1-2.1,1.6-3.3c1.7-3.8,4-6.8,8.5-7.3
	c1.2-0.1,2.1-0.8,2.8-1.7c2.1-2.8,4.5-5.4,6-8.6c1.1-2.3,2.4-4.5,4.3-6.3c2.1-1.9,2.7-4.2,2.6-6.9c0-0.2,0-0.4-0.1-0.7
	c0-1.1,0.4-2.2,0.6-3.3c2.8-7.3,5.7-14.5,10.6-20.7c3.4-5,7.1-9.7,9.9-15c0.9-1.8,1.8-3.8,3.7-4.8c1.6-0.8,2.5-2.3,3.5-3.6
	c1.1-1.5,2.5-2.8,4.7-2.3c1.1,0.2,1.9,0.8,2.3,1.9c0.6,2.7-1.9,3.3-3.2,4.6c-6.9,12.5-17.5,22.6-23.5,35.7
	c-2.2,4.7-4.5,9.4-3.9,14.9c-0.1,0.8-0.1,1.6-0.4,2.4c-1,3.5-2.4,6.9-2.8,10.6c-0.1,0.6-0.5,1.2-1.2,1.3c-0.6,0.1-1.2-0.8-1.3-1.7
	c-0.1-1.5,0.4-2.8,0.8-4.2c0.6-2.5,1.2-5,1.7-7.5c0.1-0.4-0.1-1.1-0.4-1.2c-0.8-0.3-1.1,0.4-1.4,1c-0.4,0.9-0.6,1.8-0.9,2.7
	c-1,3.2-2,6.4-2.9,9.6c-0.4,1.2-0.6,2.5-0.8,3.7c-0.6,4.5-2.5,8.2-6.3,10.9c-4.1,2.9-7.4,6.6-10.7,10.3
	C60.8,160.2,59.6,162.6,58.3,164.7z"/>
<path fill="#545454" d="M72.7,163.8c-0.5,0.1-0.9,0.4-1.4,0.4c-2.3-0.1-4.3,0.6-6.1,2.1c-1.2,1.1-2.3,0.5-3.2-0.7
	c3.8-4.5,7.5-9.1,11.8-13.2c2.3-2.2,4.5-4.5,6.4-7.1c0.7-1,1.7-1.8,2.6-2.6c1.1,0.6,0.7,1.2,0.4,1.7
	C79.7,150.9,76.2,157.3,72.7,163.8z"/>
<path fill="#2B2B2B" d="M93.8,106.2c0.3-0.3,0.6-0.6,0.9-1C94.4,105.5,94.1,105.8,93.8,106.2z"/>
<path fill="#525252" d="M96.7,89.8c-0.5,1-0.9,2-1.4,3c-3.1,6-6.1,12.1-9.2,18.1c-0.7,0.9-1.2,2-1.9,2.9c0,0,0,0,0,0
	c-0.9,0.1-1.7-0.1-1.7-1.2c0-0.8,0.3-1.6,0.6-2.3c0.4-1,0.9-2,1.4-3.1c0.6-1.5,0.4-3-0.4-2.9c-1.2,0.1-1.5,1.1-1.9,1.9
	c-0.9,1.9-1.8,3.8-2.7,5.6c-1.1,2.1-2,4.4-3.3,6.3c-0.8,1.2-1.3,3.3-3.3,2.9c-1.5-0.3-0.9-2.2-1.5-3.3c-0.2-0.4-0.6-0.8-1-0.9
	c-0.3,0-0.9,0.3-1.1,0.6c-0.4,0.7-0.6,1.5-0.8,2.2c-0.6,1.8-1.7,3-3.6,3.6c-2.5,0.8-4.5,3-7.5,2.9c-0.6,0-1.2,0.9-1.9,1.4
	c-0.9,0.6-1.6,0.4-1.8-0.5c-0.2-0.6-0.2-1.3-0.4-1.9c-0.2-1.3-0.8-2.5-2.1-3c-2.2-0.8-2.6-2.6-2.6-4.6c0-1.3,0-2.6-0.1-3.8
	c0-1.1-0.3-2.3-1.1-3.1c-1.5-1.4-2.1-3.1-2.1-5.1c0-1.6-1.2-2-2.8-1.3c-0.4,0.2-0.8,0.6-1.2,0.7c-1.3,0.6-2.1,0.3-2.7-1
	c-0.9-2-1.7-4.1-3.1-5.9c-0.8-0.9-0.8-2-0.4-3.2c0.7-2,1.4-3.9,2.1-5.9c0.5-1.4,0.8-2.8,0.2-4.2c-2.6-5.8-0.1-10.5,3.1-15.1
	c0.7-1,1.6-2,2.4-3c2.7,0.1,5.1,1.2,4.7,4.1c-0.7,5.2,1,10.4-0.5,15.9c4.5,0.2,6.9,1.9,7.8,6.9c0.6,3.3,2,6.6,2.6,10.2
	c0.4,2.7,4.3,3.5,7,4.2c2.2,0.6,3.8-1.1,4.9-3.1c1.3-2.5,2.5-5.2,4.2-7.5c3.3-4.4,4.1-4.5,8.2,0c5-7.8,11.4-14.4,14-23.6
	c1-3.4,3.1-7.2,6.2-9.7c3.2-0.6,3.8,1.1,3.6,3.8c-0.4,5.2-2.1,9.7-5.1,14C98.9,84.3,96.5,86.5,96.7,89.8z"/>
<path fill="#616161" d="M102.5,64.9c-0.1,1.8-0.9,3.4-2.1,4.8c-1.8,2.2-3,4.5-2.9,7.4c0,1.6-0.7,3.2-1.8,4.4
	c-2.4,2.6-3.9,5.9-5.8,8.7c-2.1,3-4,6.2-6.7,8.7c-1.2,1.1-1.4,2.4-1.6,3.9c0,0.4-0.5,0.8-0.9,1c-0.6,0.3-1.3,0-1.7-0.5
	c-1.3-1.3-1.3-2.8-1-4.5c0.2-0.9,0.7-1.9-0.1-2.7c-0.5-0.5-1.6,0.3-2.4,1.9c-1.3,2.7-2.6,5.5-3.7,8.3c-1.3,3.6-4.4,4.3-7.4,5.3
	c-0.8,0.3-1.7-0.1-2.2-0.7c-1.5-1.9-3.3-2.7-5.9-2.3c-1.5,0.3-2.2-0.7-2.2-2.4c0-1.4,0.3-2.9,0.4-4.3c0.1-0.6,0.4-1.2,0.5-1.9
	c0.2-0.8,0.5-1.7-0.4-2.1c-0.7-0.3-1.1,0.4-1.6,0.8c-0.4,0.5-0.8,1-1.3,1.4c-0.2,0.2-0.6,0.3-0.9,0.2c-0.5-0.2-0.7-0.7-0.5-1.1
	c0.5-1.4,1.1-2.7,1.6-4c0.6-1.6,0.6-3.1-0.4-4.6c-1-1.5-2.9-1.8-4.2-0.7c-1,0.8-1.7,1.9-2.7,2.8c-0.3,0.3-0.9,0.4-1.3,0.2
	c-0.7-0.2-0.8-0.9-0.6-1.6c0.7-2.1,1.3-4.3,2.1-6.4c0.7-1.9,0.9-3.7-0.1-5.5c-0.7-1.3-0.9-2.8-0.1-4.1c1.6-2.8,1.1-5.2-1.1-7.4
	c-0.3-0.3-0.5-0.8-0.7-1.3c0-0.3,0-0.6,0-0.9c0.6-0.5,0.4-1.4,1-1.9l0,0c0.1-3.4,1.4-6.4,3.2-9.2c1-1.5,2.3-2.6,4.3-2.3
	c4.9,2.7,6,5.5,3.6,10.4c-1,2.1-1,4.3-1.9,6.4c-1.5,3.4-0.9,5.8,3.4,6.3c2.4,0.3,3.6,1.8,3.3,4c0.8-2.9,2.4-4.6,5.8-2.4
	c0.3,0.4,0.5,0.8,0.7,1.2c0.6,2.1-1.3,3.3-1.6,5.3c-0.6,5,2.2,7.6,6.9,6c1.6-0.6,2.7-0.4,3.8,0.8c0.2,0.3,0.4,0.6,0.5,1
	c0.1,0.2,0.1,0.4,0.2,0.5c0-0.1,0.1,0.1,0.1,0c0-0.1,0.2-0.1,0.2-0.2c0-0.1,0.2-0.2,0.2-0.3c0.2-0.3,0.4-0.5,0.6-0.8
	c3.6-5.5,7.1-11.1,10.1-16.9c3.2-6.3,8.4-8.6,14.8-9.2C102.1,64.7,102.3,64.8,102.5,64.9z"/>
<path fill="#525252" d="M51.5,53.3c-1.8,1.1-2.9,2.8-3.7,4.8c-0.9,2.2-2,4.3-4,5.8c-1-0.5-1.9-0.4-2.6,0.4c-1.1,1.1-2.2,2.3-3.2,3.6
	c-1.9,2.7-3.6,5.7-5,8.7c-0.9,1.9-1,1.9-3.3,1.7c-2.1-0.2-2.5,0-3.1,2c-0.3,1.1-0.5,2.2-0.9,3.2c-0.3,0.8,0,2.4-1.4,2
	c-0.9-0.3-0.7-1.7-0.5-2.6c0.4-1.7,1.1-3.3,1.6-5c1.2-4,2.3-8,3.5-12c0.6-2,1.3-3.9,2.4-5.7c3.4-5.6,6.8-11.1,10.2-16.7
	c0.8-1.4,1.8-2.6,3.2-3.5c0.3,0.6,0.5,1.2,0.9,1.7c1.4,1.6,1.5,3.1,0,4.7c-0.5,0.6-0.9,1.3-1.3,2c-0.9,1.6-1,2.8-0.2,3
	c1.1,0.3,1.7-0.6,2.5-1.2c1.4-1.1,2.8-1.9,4.7-2.2c2.4-0.4,4.2-2.2,5.9-3.9c4-3.9,8.5-7.2,12.8-10.8c1.4-1.1,2.8-2.1,4.6-2.5
	c0.4-0.1,1.1-0.1,1.3,0.2c0.4,0.4-0.1,0.9-0.5,1.1c-1.8,1.1-3.7,2-4.7,3.9c0,0.2,0,0.4-0.1,0.6c-0.2,0.6-0.6,1-1,1.4
	c-0.4,0.4-0.8,0.8-1.2,1.2c-0.3,0.3-0.5,0.6-0.8,0.9c-0.2,0.3-0.4,0.7-0.7,1c-1.5,1.3-3.4,2.3-4.4,4.1c-0.2,0.3-0.5,0.6-0.8,0.9
	c-0.3,0.3-0.5,0.6-0.8,0.9c-0.3,0.3-0.6,0.5-0.9,0.8c-0.2,0.1-0.3,0.2-0.5,0.3c-0.3,0.2-0.6,0.5-1,0.7c-1,0.7-1.8,1.6-2.2,2.7
	c-0.2,0.4-0.4,0.7-0.6,1c-0.3,0.3-0.6,0.6-0.9,0.8c-0.3,0.2-0.7,0.4-1.1,0.4c-0.2,0-0.4,0-0.6,0c-0.4-0.1-0.8-0.1-1.1-0.3
	C51.9,53.4,51.7,53.4,51.5,53.3z"/>
<path fill="#525252" d="M50.7,34.2c-0.4,1.5-1.4,2.5-2.9,2.8C48.4,35.8,49.4,34.9,50.7,34.2z"/>
<path fill="#525252" d="M43.9,63.9c-0.3,0.6-0.6,1.3-1,1.9C43.2,65.2,43.6,64.5,43.9,63.9z"/>
<path fill="#525252" d="M45.8,39c-0.3,0.3-0.6,0.6-0.9,1C45.2,39.6,45.5,39.3,45.8,39z"/>
<path fill="#525252" d="M46.8,38c-0.3,0.3-0.6,0.6-1,1C46.1,38.6,46.4,38.3,46.8,38z"/>
<path fill="#525252" d="M47.7,37c-0.3,0.3-0.6,0.6-1,1C47.1,37.7,47.4,37.4,47.7,37z"/>
<path fill="#6C6C6C" d="M166.7,49.5c0.3-0.3,0.7-0.6,1-0.9C167.4,48.9,167.1,49.2,166.7,49.5z"/>
<path fill="#575757" d="M115.9,77.3c0.3-0.6,0.7-1.2,1-1.9C116.5,76.1,116.2,76.7,115.9,77.3z"/>
<path fill="#575757" d="M114.9,78.3c0.3-0.3,0.6-0.7,0.9-1C115.6,77.7,115.2,78,114.9,78.3z"/>
<path fill="#616161" d="M96.7,89.8c-1,0.4-1.6,1.5-2.9,1.6c0.3-2.7,1.6-5.8,3.7-8.9c3.1-4.4,4.9-9.3,6.2-14.4
	c0.3-1.4,0.2-2.6-1.3-3.2c0,0-0.1-0.1-0.1-0.1c-0.8-0.8,0.4-2.2-0.2-2.5c-5-2.9-1.7-4.9,0.7-6.6c5.7-4.1,11.3-8.3,17.7-11.2
	c1-0.5,2-1,3.1-1.3c1.9-0.6,3.6,0,4.3,1.9c0.7,1.9-0.7,3.2-2.1,3.6c-3,1-5.3,3.1-7.9,4c5-2.5,10-5.7,14.5-7.7
	c-0.8,0.1-2-0.6-2.3-2.4c-0.4-1.8,0.8-3.1,2.2-3.7c1.8-0.8,3.3-2,5.3-2.4c0.4-0.1,0.8-0.3,1.2-0.4c0.4-0.1,0.8-0.2,1.3-0.2
	c0.7,0.2,1.1,0.6,1.6,1.1c0.7,1.4,1.8,1.6,3.2,1.4c2.7-0.5,5.4-0.4,8.1-0.3c0.5,0,0.9,0.2,1.4,0.4c0.2,0.1,0.5,0.5,0.5,0.7
	c0,0.3-0.2,0.7-0.5,0.8c-0.7,0.3-1.4,0.6-2.2,0.9c-3.5,1-6.9,2.4-10.2,4.1c-0.4,0.2-0.9,0.6-0.6,1.1c0.2,0.3,0.8,0.5,1.2,0.6
	c1.4,0.2,2.8-0.1,4.2-0.6c1.5-0.5,3-1.1,4.6-1.3c4.5-0.6,8.6-2.4,12.4-4.7l0,0c1.5-0.4,3.1-1.6,3.8,1l0,0c-0.3,0.3-0.7,0.6-1,0.9
	c-0.3,0-0.6,0-1,0c-0.5,0.6-1.4,0.4-1.9,1l0,0c-0.3,0.3-0.7,0.6-1,0.9c-0.3,0-0.6,0-1,0c-0.5,0.6-1.4,0.4-1.9,1l0,0
	c-0.3,0.3-0.6,0.6-1,0.9c-0.6,0-1.3,0-1.9,0c-0.3,0.3-0.6,0.6-1,1l0,0c-0.5,1.6-1.6,2.4-3.3,2.3c-6-1.7-11.5,0.7-16.8,2.7
	c-6,2.3-11.9,5.1-17.5,8.4c-4.4,2.6-7.8,5.2-8.4,10.6c-3.1,5.8-6.8,11.2-10.8,16.4C98.6,88.1,97.6,88.9,96.7,89.8z"/>
<path fill="#5A5A5A" d="M157.3,47.7c-0.1,0.2-0.2,0.5-0.2,0.7c-4.2,3.4-9.3,4.7-14.4,5.9c-1.1-0.3-1.9-0.9-2.3-2
	c-0.1-1.7,0.9-3,2.3-3c3.4,0,6.3-1.8,9.7-1.8c1.4,0,2.7-0.4,3.9-0.9C156.6,47,156.9,47.4,157.3,47.7z"/>
<path fill="#5A5A5A" d="M160,44.7c0.6-0.3,1.3-0.6,1.9-1C161.3,44.1,160.7,44.4,160,44.7z"/>
<path fill="#5A5A5A" d="M163.9,42.8c0.6-0.3,1.3-0.6,1.9-1C165.2,42.2,164.5,42.5,163.9,42.8z"/>
<path fill="#5A5A5A" d="M166.8,41.8c0.3-0.3,0.6-0.6,1-0.9C167.4,41.2,167.1,41.5,166.8,41.8z"/>
<path fill="#5A5A5A" d="M159.1,45.6c0.3-0.3,0.6-0.6,1-0.9C159.7,45,159.4,45.3,159.1,45.6z"/>
<path fill="#5A5A5A" d="M162.9,43.7c0.3-0.3,0.6-0.6,1-0.9C163.6,43.1,163.2,43.4,162.9,43.7z"/>
<path fill="#5A5A5A" d="M156.2,46.6c0.3-0.3,0.6-0.6,1-1C156.8,46,156.5,46.3,156.2,46.6z"/>
<path fill="#7C7C7C" d="M138.9,38c-2.3,0.6-4.6,1.5-6.3,3.2c-0.3,0.3-0.4,0.9-0.4,1.3c0.1,0.5,0.7,0.6,1.1,0.6
	c1.6-0.3,3.1-0.6,4.7-0.9c0.6-0.1,1.3-0.1,1.6,0.7c0.2,0.7-0.3,1.2-0.8,1.6c-1.1,0.7-2.1,1.5-3.3,1.8c-4.5,1.4-8.4,3.9-12.7,5.7
	c-1.4,0.6-2.7,1.7-4,2.6c-2.8,1.9-6.6,2.8-6.4,1.8c0.6-2.5,2.7-3.8,4.8-5c2.5-1.4,5.1-2.7,7.6-4c0.4-0.2,0.8-0.5,1.2-0.8
	c0.2-0.2,0.3-0.6,0.2-0.9c-0.1-0.2-0.5-0.5-0.7-0.5c-1.5,0-2.7,0.8-3.9,1.6c-1,0.6-1.8,1.6-2.8,1.8c-6,1.5-9.6,6.7-14.9,9.2
	c-0.7,0.3-1.3,0.9-1.9,1.5c-0.2,0.2-0.3,0.6-0.2,0.9c0.1,0.2,0.6,0.5,0.8,0.4c1-0.4,2-0.9,3.1-1.3c0.7-0.3,1.5-0.6,2.2-0.7
	c0.7-0.1,1.3,0.2,1.4,1c0,0.4-0.3,1-0.6,1.1c-1.1,0.6-2.3,1.1-3.4,1.7c-1.1,0.6-2.1,1.4-2.9,2.5c-0.6,0.7-1.2,1.4-1.8,2.2
	c-1.3,1.6-2.8,2.6-4.9,1.5c-0.9-0.5-1.9,0-2.5,0.8c-2.7,3.7-5.5,7.4-8.1,11.2c-2.7,4-5.1,8.1-7.6,12.1c-0.3,0.3-0.6,0.6-0.9,1l0,0
	c-0.3,0.3-0.7,0.6-1,1l0,0c-2.2-0.3-1.4-1.7-1-2.9l0,0c0.1-5.3,4.6-8.5,6.1-12.1c-1.2,2.3-3.2,5.3-5.3,8c-2.6,3.4-4.9,2.8-7.5-0.7
	c-2-2.7-4.8-4.8-2.9-8.6c-0.6-3.3,0.5-5.8,3.3-7.7c1.5-1.1,2.4-2.9,3.7-4.2c-1.4,1.3-2.2,3.2-3.9,4.1c-2.6,1.4-13.4-3.5-14-6.4
	c-0.3-1.2-0.5-2.7,0.1-3.8c2-3.4,2.9-6.9,2.5-10.9c-0.1-1,1-1.9,1.6-2.8c0.3,0,0.6-0.1,0.9-0.1c1.9-0.1,2.6-1.7,3.8-2.7
	c2.8-2.5,5.9-2.3,6.8,1.1c1,3.6,4.3,4.5,6.2,6.8c1.6,1.9,4.1,1,5.5-0.7c5.3-6.1,13-8.6,19.1-13.6c2.9-2.4,6.6-3.8,10.6-4.1
	c2-0.2,3.7-0.8,5.3-1.8c-0.1,0.1,0,0-0.1,0.1c-6,2.6-6.5,1.7-7.1-4.3c-0.5-5,2.2-7,5.3-9.4c0-0.4,0.2-0.8,0.5-1.2
	c0.9,0,1.9-0.1,2.8-0.1c0.5-0.6,1.4-0.3,1.9-0.9c0.3,0,0.6,0,1,0c0.8-0.9,2.1-0.1,2.9-0.9c0.6,0,1.3-0.1,1.9-0.1
	c0.3-0.3,0.7-0.6,1-0.9c1,0,1.9,0,2.9-0.1c0.7-0.6,1.5-0.5,2.2-0.4c1,0.1,2.5-0.6,2.8,1c0.3,1.7-0.8,3.1-2.2,3.1
	c-5.1,0.3-4.4,3.7-2.7,6c2.2,3.1,1.4,5.5,0.1,8.3c-3.5,3.3-8.3,3.6-12.5,5c-8.2,2.8-15.8,6.6-22.6,11.9c-0.8,0.6-1.8,0.7-2.5,1.3
	c7.6-4.7,14.6-10.4,23.6-12.3c2.4,2,5,0.9,7.3,0.1c5.3-1.8,10.4-4.1,16.1-3.8l0,0c1.7-0.5,3.7-1.3,2.9,1.9l0,0
	c-0.5,0.7-1.4,0.3-1.9,0.9l0,0C139.6,37.4,139.2,37.6,138.9,38z"/>
<path fill="#898989" d="M114.9,17.8c0.7,0.3,1,0.8,0.6,1.5c-0.7,1.1-1.8,1.7-2.9,2.4c-1.1,0.7-1.4,1.8-0.9,2.9
	c0.9,2,1.1,3.9-0.5,5.7c-0.5,0.6,0.4,1.6,1.3,1.5c2.5-0.5,4.9-1.3,7.1-2.5c0.6-0.6,1.3-0.6,1.9,0c0.1,1-0.4,1.5-1.2,1.8
	c-4.5,2-9,4-13.6,5.8c-2.7,1.1-5.1,2.5-7.4,4.3c-2.2,1.8-4.7,3.3-7.3,4.6c-3,1.5-5.7,3.5-8,6c-1.3,1.4-2.6,2.8-4.5,3.6
	c-2,0.9-3.7,0.6-5.2-0.9c-0.7-0.7-1.2-1.5-1.8-2.3c-1.4-1.7-2.1-1.9-4.1-0.9c-0.6,0.3-1.1,0.7-1.6,1c-0.2,0.1-0.7,0.1-0.9,0
	c-0.5-0.3-0.4-0.8-0.2-1.3c0.6-1.1,1.3-2.2,1.9-3.3c0.5-0.9,0.4-1.9-0.3-2.7c-0.8-0.9-2.1-1.3-3-0.8c-1,0.5-1.8,1.3-2.7,1.9
	c-0.8,0.6-1.7,0.8-2.7,0.3c0,0,0,0,0,0c0.4-0.3,0.6-0.6,1-1l0,0c0.4-0.3,0.7-0.7,1-1c1.6-1.9,3.2-3.8,4.9-5.7c0.3-0.4,0.6-0.7,0.9-1
	l0,0c0.4-0.4,0.8-0.5,1.3-0.3c3.7,0.5,6.6-1.5,9.3-3.4c8.5-5.8,17.8-9.4,27.5-12.5c1.2-0.4,2.3-1,3.2-1.9c0.3-0.4,0.6-0.7,1-1.1
	c0.6,0,1.2-0.1,1.8-0.1c0.5-0.5,1.4-0.3,2-0.9c0.3,0,0.6,0,0.9-0.1C114.3,17.4,114.6,17.4,114.9,17.8z"/>
<path fill="#6E6E6E" d="M138.9,34.1c-6.3,3.3-12.9,5.4-19.9,6.4c-1.7,0.3-3.2,0.2-4.1-1.6c2.9-3.7,7.8-3.5,11.4-5.8
	c0.8-0.5,2.4-0.1,2-1.9c-0.6-0.1-1.3-0.1-1.9-0.2c-0.5-0.1-0.7-0.6-0.3-1.1c0.1-0.1,0.2-0.2,0.4-0.3c0.9-0.7,3-0.6,2.5-2.3
	c-0.4-1.1-2-0.1-3.1-0.2c-1.3-0.1-2-1.2-1.5-2.4c0.5-1,1.3-1.8,1.8-2.8c0.3-0.7-0.1-1.3-0.8-1.5c-0.9-0.2-1.9-0.1-2.8-0.3
	c-0.7-0.1-1.1-0.6-1.1-1.3c0-0.7,0.4-1.3,1-1.5c2-0.5,4-1,6.1-1.4c1.1-0.2,2.2-0.4,3.3-0.7c0.2-0.1,0.5-0.5,0.5-0.7
	c0-0.2-0.4-0.5-0.7-0.5c-0.8-0.1-1.6-0.1-2.4-0.1c3.3-1.3,6.7-1.8,10.3-1.1c5,1,10,1.8,14.8,3.8c0.4,0.2,0.9,0.4,1.2,0.7
	c0.2,0.1,0.1,0.5,0.1,0.8c0,0.1-0.2,0.2-0.4,0.3c-0.9,0.4-1.9,0.2-2.8-0.1c-2.1-0.5-3.7,0.4-5.3,1.5c-0.6,0.4-0.6,1.3,0,1.6
	c0.9,0.4,1.8,0.7,2.6,1.2c0.4,0.2,0.9,0.6,1,0.9c0.1,0.9-0.7,0.9-1.3,1c-1.9,0.3-3.3,1.1-3.5,3.3c-0.1,1.1-1.1,1.5-1.9,2
	c-1.8,1.2-3.9,1.5-5.8,2.2c-0.6,0.2-1.3,0.6-1,1.3C137.5,34.1,138.3,34,138.9,34.1z"/>
<path fill="#A0A0A0" d="M109.2,19.7c0.4,0.9,0,1.6-0.8,2c-2.6,1.2-5.2,2.4-7.9,3.5c-4.6,1.9-9.2,3.7-13.7,5.6
	c-1.6,0.7-3,1.7-4.5,2.7c-3.5,2.3-7.2,4.1-11.1,5.6c-1.4,0.5-2.5,0.4-3.2-1c0.1-0.4,0.3-0.6,0.6-0.7c0.5-0.2,0.8-0.6,1.3-0.8
	c0.3-0.1,0.6-0.3,0.9-0.5c0,0,0,0,0,0c2.6-0.8,4.9-2.3,7.1-3.9c4.4-3.2,9.2-5.7,14.3-7.6c2.2-0.8,4.5-1.6,6.5-2.9c0,0,0,0,0,0
	c0.8-0.9,2.1-0.1,2.9-0.9c0.3,0,0.6,0,0.9-0.1c0.5-0.5,1.1-0.4,1.8-0.4c1-0.1,2.1,0.3,3-0.4l0-0.1C107.9,19.2,108.5,19.1,109.2,19.7
	z"/>
<path fill="#6E6E6E" d="M141.8,36.1c-0.5-1.3-1.6-1.8-2.9-1.9c2.7-1.4,5.8-1,8.7-1.8c1.6-0.4,3.4-0.5,5.3-0.7
	C150.4,34.2,146.9,35.5,141.8,36.1z"/>
<path fill="#6E6E6E" d="M123.6,15c-0.9,0.6-1.8,0.8-2.9,0.9C121.5,15.3,122.5,15,123.6,15z"/>
<path fill="#6E6E6E" d="M101.5,20.8c-0.9,0.6-1.9,0.9-2.9,0.9C99.5,21,100.5,20.8,101.5,20.8z"/>
<path fill="#898989" d="M107.2,19.8c-0.9,0.6-1.9,0.8-2.9,0.9c-0.6-0.4-0.6-0.7,0.1-0.9C105.4,19.8,106.3,19.8,107.2,19.8z"/>
<path fill="#6E6E6E" d="M104.4,19.8c0,0.3,0,0.6-0.1,0.9c-0.6,0-1.3,0-1.9,0C103.1,20.4,103.7,20.1,104.4,19.8z"/>
<path fill="#6E6E6E" d="M109.2,19.7c-0.6,0-1.3,0-1.9,0c0.7-0.3,1.3-0.6,2-0.9C109.2,19.2,109.2,19.5,109.2,19.7z"/>
<path fill="#6E6E6E" d="M113,17.9c-0.7,0.3-1.3,0.6-2,0.9C111.7,18.4,112.4,18.2,113,17.9z"/>
<path fill="#6E6E6E" d="M119.7,15.9c-0.6,0.3-1.3,0.6-1.9,0.9C118.4,16.6,119.1,16.2,119.7,15.9z"/>
<path fill="#6E6E6E" d="M139.9,37c0.6-0.3,1.3-0.6,1.9-0.9c0,0.3,0,0.6,0,0.9C141.2,37,140.5,37,139.9,37z"/>
<path fill="#6E6E6E" d="M126.4,14c-0.3,0.3-0.7,0.6-1,0.9C125.8,14.6,126.1,14.3,126.4,14z"/>
<path fill="#6E6E6E" d="M114.9,17.8c-0.3,0-0.6,0-1,0c0.3-0.3,0.7-0.6,1-0.9C114.9,17.2,114.9,17.5,114.9,17.8z"/>
<path fill="#848484" d="M152.3,47.6c-2,1.5-4.4,2.4-6.9,2.8c-1.7,0.3-3.4,0.7-4.7,1.9c-0.1,0.3-0.2,0.7-0.4,0.8
	c-7.7,4.1-15.6,7.9-23.5,11.8c-2.2,1.9-4.4,3.9-6.7,5.8c-0.2-0.6-0.5-1.2-0.5-1.8c-0.1-1.3-0.7-1.6-1.9-1.2
	c-0.3,0.1-0.6,0.2-0.9,0.2c-0.8,0-1.4-0.9-1.1-1.7c0.2-0.8,0.6-1.5,1.4-1.9c5.6-3,10.8-6.6,16.5-9.4c4.6-2.2,9.5-3.6,14.2-5.5
	c4.3-1.8,9-1.8,13.4-3.3C152.2,45.8,152.5,46.6,152.3,47.6z"/>
<path fill="#3F3F3F" d="M116.8,64.9c7-6,15.2-9.8,23.9-12.6c0.7,0.3,1.3,0.6,2,1c-0.2,2.3-2.4,2.3-3.8,2.9c-4.6,2-9.1,4.2-13.2,7.3
	c-0.4,0.2-0.8,0.5-1.1,0.8c-0.4,0.3-0.7,0.5-1.2,0.7c-1.5,0.5-2.6,2.9-4.6,1C118.2,65.6,117.5,65.2,116.8,64.9z"/>
<path fill="#8D8D8D" d="M118.8,66c1.5-0.7,3-1.4,4.5-2.1c0.8,0.1,1.7,0.1,2.1,1.1c-2.8,2.4-5.9,4.3-9.2,6.1
	c-0.5,0.3-1.2,0.9-1.6,0.1c-0.2-0.4,0.2-1.2,0.3-1.8c0-0.2,0.1-0.3,0.1-0.5C116.4,67.9,117.8,67.2,118.8,66z"/>
<path fill="#3E3E3E" d="M84.2,113.8c0.2-1.2,0.9-2.2,1.9-2.9C85.9,112.2,85.2,113.1,84.2,113.8z"/>
<path fill="#707070" d="M58.3,46.7c0,0.6-0.2,1.7,0,1.8c2.2,1.3,1.3,3.3,1.4,5.1c0.1,1.6-1,2.6-2,3.7c-0.9,0.9-1.7,1.9-2.5,2.9
	c-0.6,0.8-0.5,1.8,0.1,2.7c0.9,1.4,2.1,2.4,3.8,2.7c0.5,0.1,1,0.1,1.4,0c2.2-0.5,3.6,0.3,4.6,2.3c0.6,1.2,1.6,1.2,2.8,0.1
	c2.1-2,4.1-4,6.2-6c0.6-0.5,1.1-1.2,2-1.2c0.2,0,0.4,0.3,0.6,0.6c0.1,0.1,0,0.3,0,0.4c-2.5,3.5-4.1,7.6-7.3,10.6
	c-1.8,1.7-2.7,4-4.3,5.7c-1.4-0.8-2.5-0.5-3.2,0.9c-0.9,1.7-1.8,3.4-2.7,5.1c-0.3,0.5-0.7,1-1.2,1.5c-0.1,0.1-0.6,0-0.8,0
	c-0.1,0-0.2-0.3-0.2-0.4c0.1-0.8,0.3-1.6,0.5-2.3c0.4-1.1,0.7-2.1,0.7-3.2c-0.1-1.2-1-2.2-2.2-2c-0.9,0.1-1.8,0.5-2.8,0.6
	c-2,0.3-3.1-0.4-3.3-2.5c-0.3-2.5-0.4-5.1,0.7-7.5c0.8-1.7,1.4-3.6,2.2-5.3c1.4-3.1,1.8-6.1-0.8-8.9c-0.2-0.2-0.3-0.6-0.4-0.9
	c0,0,0,0,0,0c0.4-0.3,0.6-0.6,1-1l0,0c0.3-0.3,0.6-0.6,1-1l0,0c0.3-0.3,0.6-0.7,1-1C55.5,48.9,56.7,47.6,58.3,46.7z"/>
<path fill="#707070" d="M65,78.3c0.2,0.8,0.2,1.6,0.5,2.3c0.4,1.3,1.4,2.1,2.8,2c0.5,0,1-0.1,1.4,0c1.1,0.1,1.7,0.9,1.7,1.9
	c0,0.3-0.1,0.6-0.1,0.9c-0.1,1-1.4,2.4-0.3,3c1.6,0.9,2.4-1,3.2-2c2.8-3.8,5.6-7.7,8.4-11.6c0.4-0.5,0.9-0.9,1.3-1.2
	c0.1-0.1,0.3,0,0.4,0.1c0.1,0.1,0.2,0.2,0.3,0.4c0.1,0.1,0.1,0.4,0,0.5c-3.4,5.5-5.8,11.6-9.7,16.9c-0.1,0.1-0.2,0.2-0.4,0.3
	c-0.8-1.1-1.8-1.4-2.7-0.3c-0.6,0.7-0.9,1.7-1.5,2.4c-0.4,0.6-1,1.2-1.6,1.7c-0.8,0.6-2.1,0.3-2.4-0.6c-0.3-0.9-0.4-1.9-0.7-2.8
	c-0.5-1.6-1.4-2-2.9-1.4c-0.9,0.3-1.8,1.9-2.9,0.6c-0.8-1,0.1-2.1,0.5-3.1C62,84.9,63.5,81.6,65,78.3z"/>
<path fill="#707070" d="M74.6,91.8c0.1,1.1,0.3,2,1,2.9c-0.6,0.9-0.7,2.2-2,2.4c-0.8,0.2-0.9-1.3-0.1-3.3
	C73.8,93.1,74.2,92.4,74.6,91.8z"/>
<path fill="#707070" d="M75.6,94.6c0.3-0.3,0.6-0.6,1-1C76.2,94,75.9,94.3,75.6,94.6z"/>
<path fill="#707070" d="M76.5,93.7c0.3-0.3,0.6-0.6,0.9-1C77.2,93,76.8,93.4,76.5,93.7z"/>
<path fill="#6E6E6E" d="M68.8,38c-0.3,0-0.6,0.1-0.8,0.1c-0.3,0-0.7,0-1-0.1c0.6-0.4,1.2-0.7,1.8-1.1c0.2,0.2,0.3,0.3,0.5,0.5
	C69.1,37.6,69,37.8,68.8,38z"/>
<path fill="#6E6E6E" d="M70.8,36.1c-0.3,0.3-0.6,0.7-1,1c-0.3,0.3-0.6,0.3-1,0c0,0-0.1-0.1-0.1-0.1C69.5,36.7,70.1,36.4,70.8,36.1z"
	/>
<path fill="#6E6E6E" d="M66.9,38c-0.3,0.3-0.6,0.6-0.9,1C66.3,38.7,66.6,38.3,66.9,38z"/>
<path fill="#616161" d="M53.5,51.4c-0.3,0.3-0.6,0.6-1,1C52.8,52.1,53.1,51.7,53.5,51.4z"/>
<path fill="#616161" d="M54.4,50.5c-0.3,0.3-0.6,0.6-1,1C53.8,51.1,54.1,50.8,54.4,50.5z"/>
<path fill="#616161" d="M52.5,52.4c-0.3,0.3-0.6,0.6-1,1C51.9,53,52.2,52.7,52.5,52.4z"/>
<path fill="#7C7C7C" d="M61.1,44.7c-0.3,0.3-0.6,0.7-1,1C60.5,45.3,60.8,45,61.1,44.7z"/>
<path fill="#7C7C7C" d="M60.2,45.6c-0.3,0.3-0.6,0.6-1,1C59.5,46.3,59.9,46,60.2,45.6z"/>
<path fill="#6E6E6E" d="M138.9,38c0.3-0.3,0.6-0.6,1-0.9C139.5,37.3,139.2,37.7,138.9,38z"/>
<path fill="#898989" d="M128.4,31.3c0.6-0.2,1.2-0.4,1.8-0.5c0.3,0,0.7,0.1,0.8,0.3c0.3,0.5,0.1,1-0.3,1.2
	c-5.3,2.1-10.1,5.4-15.7,6.7c-2.6,0.9-5.2,1.6-7.3,3.5c-0.3,0.3-0.8,0.5-1.3,0.7c-5.6,1.8-10.1,5.4-14.6,8.9c-1.3,1-2.6,1.8-4,2.6
	c-0.6,0.3-1.3,0.4-1.7-0.3c-0.2-0.3,0-1,0.2-1.3c0.8-1.3,1.9-2.2,3.2-2.8c5.2-2.5,9.4-6.5,14.5-9.2c3.1-1.6,6.3-3,9.6-4.3
	C118.5,34.8,123.4,33.1,128.4,31.3z"/>
<path fill="#6E6E6E" d="M121.6,29.3c-0.6,0-1.3,0-1.9,0c-0.1-0.5-0.1-1,0.4-1.1C121.1,27.9,121.3,28.7,121.6,29.3z"/>
<path fill="#898989" d="M68.9,37.1c0.3,0,0.6,0,1,0c-0.3,0.3-0.7,0.6-1,0.9C68.8,37.7,68.8,37.4,68.9,37.1z"/>
<path fill="#8D8D8D" d="M124.5,63c-0.3,0.3-0.7,0.6-1,0.9C123.8,63.5,124.2,63.3,124.5,63z"/>
</svg>
