<?xml version="1.0" encoding="utf-8"?>
<!-- Generator: Adobe Illustrator 18.1.1, SVG Export Plug-In . SVG Version: 6.00 Build 0)  -->
<svg version="1.1" id="Layer_1" xmlns="http://www.w3.org/2000/svg" xmlns:xlink="http://www.w3.org/1999/xlink" x="0px" y="0px"
	 viewBox="0 0 187 262.6" enable-background="new 0 0 187 262.6" xml:space="preserve">
<path fill="#979797" d="M177.6,171.1c-0.5,5.1-1.4,10.2-0.7,15.3c-0.1,0.2-0.1,0.4-0.2,0.6c-0.3,8-3.3,15.5-3.4,23.5
	c0,1-0.3,1.8-0.9,2.6c-2.2,2.9,2-0.6,1.1,1.1c2.2,2.3,1.7,5.1,0.9,7.6c-0.4,1.3-0.7,2.3-0.4,3.6c0.2,0.5,0.3,1,0.3,1.5
	c-0.5,2.6-0.5,5.2-0.6,7.7c0,0.4-0.1,0.9-0.3,1.3c-1.1,2.2-0.4,4.6-0.7,6.9c-0.1,0.6-0.2,1.2-0.1,1.9c0.2,1.1,0.6,2,1.3,2.8
	c0.4,0.6,0.7,1.2,0.9,1.9c0.3,1,0.4,1.9,0.3,2.9c-0.1,1.2-0.4,2.5-0.7,3.7c-0.4,1.4-0.2,3.3-2.3,3.7c-1.4-0.2-2.4-1-3.1-2.3
	c-0.4-1.2-0.5-2.4-0.9-3.6c-0.3-1.1-0.6-2.2-0.9-3.2c-0.1-0.4-0.2-0.8-0.3-1.3c-0.2-1.2-0.2-2.5-0.4-3.7c-0.1-0.6-0.3-1.2-0.5-1.8
	c-0.2-0.6-0.4-1.2-0.7-1.7c-0.2-0.4-0.3-0.8-0.3-1.2c-0.3-1.3-0.3-2.6-0.7-3.8c-0.1-0.4-0.2-0.9-0.2-1.3c0-1.4,0.6-2.6,1.5-3.4
	c2.8-2.7,2.8-6,1.8-9.3c-0.5-1.7-0.2-3.5-0.7-5.9c-0.7,4.2,1.9,7.2,1.1,10.7c-0.5,1.8-0.3,4.2-3.4,3.1c-0.5-0.1-0.9-0.4-1.3-0.7
	c-0.7-0.7-1.1-1.6-1.4-2.5c-0.2-0.4-0.3-0.9-0.5-1.3c-0.2-0.6-0.4-1.3-0.6-1.9c-0.1-0.4-0.3-0.8-0.4-1.2c-0.3-1.2-0.4-2.6-0.8-3.8
	c-0.6-2.7-1.6-5.3-2.8-7.8c-0.2-6.4-3.9-11.9-5-18c-1.1-2.2-1.6-4.6-1.7-6.9c-0.1-2.4-0.8-4.5-2.3-6.3c-1.4-1.8-2.3-3.7-1.8-6.1
	c0.7-1.3,1.9-1.6,3.2-1.5c3.3,0.7,3.3,3.8,4.6,6.1c1.3,2.3,0.4,5.9,3.8,7c2.9-2.4,3.4-5.9,4.2-9.2c0.9-4.2,2.4-8.2,3.6-12.3
	c0.3-1.2,0.9-2.4,2.3-2.8c2.5-0.1,4.9-0.3,7.4-1.1c2.9-0.9,5.4,0.1,4.6,4.1c0,0.3-0.1,0.6-0.2,0.9c-0.5,0.6-0.3,1.4-0.8,2
	c-0.1,0.6-0.1,1.2-0.2,1.8C177.9,169.7,178.1,170.6,177.6,171.1z"/>
<path fill="#BFBFBF" d="M120,7.8c7,3,13,7.5,19.1,11.8c0.9,0.6,1.7,1.4,2.4,2.3c3.1,4.3,7.2,7.7,10.5,11.8c2.7,3.4,5.3,6.8,7.4,10.6
	c9.3,11.5,13.7,25.2,16.4,39.5c0.7,3.7,2.1,7.4,1.1,11.3c-1.6,1.9-1.7,4.2-1.7,6.6c0,1.9,0.9,4.2-1.4,5.5c-3.3-0.2-3.1-2.8-3.2-4.9
	c-0.2-4.8-0.6-9.5-0.9-14.3c-0.3-5-1.3-9.8-3.8-14.1c-0.9-1.6-0.9-3.4-1-5.1c-0.4-4.5-1.7-8.8-4.9-12.2c-2.3-2.4-2.4-6.4-5.8-7.9
	c-5.8-7.5-11.9-14.8-18.3-21.8c-3.8-4.1-9.6-5.4-14.3-8.2c-1.6-1.7-3.8-2.5-5.5-4c-0.7-1.4-1.5-2.6-3-3.5c-1.4-0.9-1.8-2-0.5-3.4
	C115.1,7,117.5,6.4,120,7.8z"/>
<path fill="#D7D7D7" d="M175.6,95.2c-0.3-11.9-2.5-23.3-7.3-34.3c-1.2-2.9-2.5-5.7-4.6-8.3c-1.9-2.5-3.4-5.3-4.5-8.4
	c3.3,2.1,5,5.8,7.5,8.6c0.4,0.5,0.6,1.1,0.8,1.7c2,6.6,4.8,12.8,7,19.3c0.2,0.6,0.5,1.2,0.6,1.8c1.1,4.8,2.2,9.7,3.3,14.5
	c0.2,0.9,0.3,1.9,0.7,2.8c1,2.1,1.2,4.3,1.2,6.5c0,1.3,0.1,2.6,0.4,3.8c1.2,5.5,1.7,11.1,1.6,16.7c-1,3.2-1.2,6.5-1.9,9.7
	c-0.8,3.7-2.8,4.2-6,1.6c-1.1-6.2,1.1-12.2,0.6-18.4c-0.4-4.4-0.7-8.8-0.5-13.2C174.8,98.2,174.4,96.6,175.6,95.2z"/>
<path fill="#C5C5C5" d="M175.6,131.7c1.5,0.4,2.5-0.2,2.7-1.7c0.2-1.1,0.1-2.2,0.3-3.2c0.4-2.7,1.3-5.1,3.8-6.6
	c0.1,0.3,0.3,0.6,0.4,0.9c0.5,6.1,1.4,12.2,0.8,18.4c-0.4,4.1-0.2,8.3-1.2,12.3c-0.3,1.1-0.6,2.1-0.9,3.2c-3-0.9-2-3.4-2.1-5.1
	c-0.3,2.4-1.1,4.9-2.7,7.1c-1.1,1.4-2.4,2.1-4.1,1.5c-1.5-0.5-2.1-1.7-2.2-3.3c-0.2-3.5,0.2-6.9,0.9-10.4c0-0.5,0.1-1,0.2-1.5
	c0.7-3,0.8-6.2,1.8-9.2C173.7,132.8,174.2,131.9,175.6,131.7z"/>
<path fill="#AAAAAA" d="M172.7,145.1c-0.2,3-0.4,6-0.5,9.1c0,0.5-0.1,1,0.1,1.4c0.2,0.4,0.5,0.9,0.9,1c0.4,0.1,1-0.1,1.2-0.4
	c0.7-1.1,1.5-2.1,1.8-3.3c0.8-3.1,2.5-5.9,4-8.7c0.3-0.6,0.3-1.9,1.5-1.4c0.8,0.3,0.7,1.4,0.6,2.2c-0.2,2.1-0.6,4.1-0.8,6.2
	c-0.1,1.3,0.1,2.5,0.1,3.8c0.1,3.3-0.6,6.5-2,9.5c-2.4-2.8-3.3-3-5.5-0.5c-1.2,1.4-2.2,1.6-3.6,0.5c-0.3-0.2-0.9-0.1-1.4-0.2
	c-1-0.2-1-1.1-1.1-1.9c-1-0.8-1.3-1.8-1.1-2.9c0.7-4.1,2.1-8,2.8-12C170,146.1,170.9,144.8,172.7,145.1z"/>
<path fill="#A6A6A6" d="M60.5,10.9c0.9-0.1,1.8-0.2,2.7-0.2c0.9-0.5,1.9-0.7,2.9-1c0.4-0.1,0.7-0.3,1.1-0.5c0.3-0.2,0.7-0.5,1-0.7
	c0.4-0.1,0.8-0.1,1.2-0.1c0.6,0,1.2,0,1.7-0.5l0,0c0.5-0.6,1.4-0.4,1.9-0.9c0.6,0,1.2-0.1,1.9-0.1c0.8-0.8,2.2,0,2.9-1
	c2.5-1.4,5.5-1.7,8.2-2.4c0.7-0.2,1.6-0.2,2.4-0.1C91.1,4,94,3.9,96.8,4.1c0.6,0.5,1.4,0.3,2,0.8c0.6,0.1,1.3,0.1,1.9,0.2
	c2.7,0.1,5.4,0.5,8.1,1c1.9,0.3,3.1,0.9,3.5,2.8c1.8,1,3.6,2,5.4,3c0.5,0.3,1.3,0.6,0.7,1.4c-0.2,0.3-0.9,0.3-1.3,0.4
	c-3,1.4-5.2-1.5-7.9-1.5c-4.8-1.5-9.4-3.2-14.4-3.9c-7.8-1.1-14.4,1.4-20.6,5.7c-4.6,0.4-8.9-1-13.3-1.6
	C60.3,11.9,60.2,11.5,60.5,10.9z"/>
<path fill="#AEAEAE" d="M181.3,217.1c-1.4-0.3-1.7-1.8-2.8-2.4c-1,0.4-1,1.3-0.9,2c0.4,3.9-1.4,6.6-4.3,8.9c-0.5,0.4-1,0.7-1.5,1.1
	c0.1-1.5,0.2-3.1,0.5-4.6c0.5-2.6,0.5-5.3,0.4-7.9c-0.5-6.3,1.1-12.1,3.7-17.8c0.4-0.3,0.9-0.5,1.4-0.6c0.6,3.6,1.2,7.1,1.8,10.6
	c0.5,2.9,1.2,5.8,1.8,8.8C181.9,215.9,182,216.5,181.3,217.1z"/>
<path fill="#AEAEAE" d="M176.8,186.4c1.2,3,0.6,6.3,1,9.4c-0.2,0.1-0.3,0.2-0.5,0.3c-3.5-2.9-1.5-6.4-1.1-9.7
	C176.5,186.4,176.7,186.4,176.8,186.4z"/>
<path fill="#BCBCBC" d="M77.7,5.9c-0.8,0.7-1.8,1-2.9,1C75.7,6.5,76.7,6.2,77.7,5.9z"/>
<path fill="#BCBCBC" d="M71,7.9c-0.7,0.3-1.3,0.6-2,0.9C68.4,8.3,68.4,8,69.2,8C69.8,7.9,70.4,7.9,71,7.9z"/>
<path fill="#BCBCBC" d="M72.9,7c-0.6,0.3-1.3,0.6-1.9,0.9C71.6,7.6,72.3,7.3,72.9,7z"/>
<path fill="#DFDFDF" d="M98.8,4.9c-0.7-0.3-1.3-0.5-2-0.8C97.5,4.4,98.2,4.6,98.8,4.9z"/>
<path fill="#AAAAAA" d="M177.6,171.1c0.3-0.6,0.5-1.3,0.8-1.9C178.1,169.8,177.8,170.4,177.6,171.1z"/>
<path fill="#AAAAAA" d="M178.6,167.4c0.3-0.7,0.5-1.4,0.8-2C179.1,166,178.9,166.7,178.6,167.4z"/>
<path fill="#CCCCCC" d="M155.5,46.3c0.6,0.5,1.4,0.9,1.8,1.5c2.5,3.7,5,7.3,7.4,11.1c1.9,3.1,2.5,6.6,2.8,10.1
	c0.1,1.8,0.5,3.4,1.3,5c2,3.9,2.9,7.9,3.2,12.4c0.4,5.7,0.9,11.4,0.9,17.2c0,1.1,0.3,2.2,0.9,3.2c2.7,4.9,1.3,10.1,1.1,15.2
	c-0.1,5.9-1.2,11.8-2.5,17.5c-1.5,7.9-3.7,15.6-6,23.3c-2.1,7-4.3,13.9-6.1,20.9c-0.1,1-0.8,1.8-0.9,2.8c-0.1,0.7-0.4,1.4-1.1,1.7
	c-0.2,0.6-0.4,1.2-0.6,1.8c-0.3,0.8-0.1,2.2-1.4,2c-1-0.1-1.2-1.3-1.5-2.2c-1.1-3.5-2.1-6.9-3.2-10.4c-0.6-2-1.2-3.9-2.5-5.6
	c-3.3-1.8-4.7-4.8-5.4-8.3c-0.7-4.6,3.5-7.1,4.9-10.9c0.7-1.9,3.2-0.4,4.5,1.4c2.9,3.8,3.1,3.8,5-0.5c1.1-2.5,2.2-4.9,3-7.5
	c-0.6,2.2-1.2,4.7-4.2,4.3c-2.4-0.4-2.5-2.7-2.4-4.6c0.3-4.6,1-9.1-0.6-13.7c-0.8-2.4,2-4.6,1.8-7.3c-0.1-1.7,0.2-3.5-0.2-4.8
	c0.2,2.3,0.7,5-0.3,7.6c-0.4,1-0.9,2.1-2.3,2.1c-1.6-0.1-2-1.1-2.4-2.5c-1.3-4.8-1.1-9.7-0.8-14.6c1.6-3.1,2.4-6.2,1.1-9.6
	c-0.6-1.6-0.3-3.2,0.9-4.4c1.1-1.1,1.5-2.4,1.7-3.8c0.3-2.1-0.3-4.8,2.5-5.7c2.8-1,3.7,1.7,5.3,3.3c0.9-13.5-0.2-26.4-9.6-37.1
	C149.9,52.3,150.7,48.5,155.5,46.3z"/>
<path fill="#DADADA" d="M159.4,211.4c-0.4-0.5-0.8-1-1.1-1.6c-1-1.8-2.2-1.2-2.9-0.1c-0.2,0.3-0.3,0.6-0.5,0.8
	c-0.5,0.9-0.8,2.3-2.2,2.1c-1.3-0.2-1.7-1.4-2.1-2.4c-0.4-0.9-0.7-1.8-1.1-2.6c-0.1-0.2-0.5-0.3-0.7-0.4c-0.1,0-0.4,0.1-0.4,0.2
	c-0.7,3.1-3.3,6-1.1,9.5c0.3,0.5,0.5,1.2,0.5,1.8c0,1.9,2,3.8,0,5.7c-2-1.1-1.7-3.2-2.3-5c-1.6-5-3.2-10-4.8-15
	c-0.3-0.8-0.6-1.5-1.6-1.5c-0.5,0.2-0.9,0.2-1.4-0.1c-0.3-0.3-0.6-0.7-0.8-1.2c-0.2-1.4-0.4-2.9,0.1-4.2c0.7-1.8,1.8-2.2,2.6-0.9
	c-2.8-7-4-15.2-6.6-23c0.2-2.3,1.2-3.4,3.6-2.7c3.5,3.2,3.4,8.2,5.9,12c0.9,3.8,1.6,7.7,1.1,11.7c0,0.6,0.7,0,0.1,0.2
	c-0.2-2,0.3-4.1-0.1-6.1c0-0.5-0.1-0.9-0.1-1.4c0-1.2,0.1-2.3,1.3-3c0.4-0.2,0.9-0.2,1.4-0.1c0.7,0.3,1.1,0.8,1.5,1.3
	c0.3,0.4,0.5,0.7,0.8,1.1c1.8,2.1,2.2,5.3,5,6.7C156,199.1,158.7,204.9,159.4,211.4z"/>
<path fill="#7B7B7B" d="M158.2,188.2c0.1-0.6,0.1-1.2,0.2-1.8c0.6-0.6,0.4-1.4,0.8-2c0.9-4.6,2-9.1,3.5-13.4
	c3.2-9.1,5.3-18.4,7.8-27.7c0.2-0.9,0.3-1.9,0.4-2.8c0.8-1.4,1.8-1.9,2.2,0.2c0.2,1.1,0.4,2.4-0.4,3.6c0,0.3,0,0.6-0.1,0.9
	c-0.5,0.8-1.2,1.6-1.4,2.5c-1.2,4.9-2.3,9.9-3.4,14.8c-0.5,1.2-1.2,2.3-1.5,3.5c-1.7,5.6-3.4,11.3-5,17c-0.6,2-0.9,4-1.3,6.1
	c-0.1,0.5-0.3,1-0.8,1c-0.8,0-0.9-0.7-1.1-1.3C158.3,188.5,158.2,188.3,158.2,188.2z"/>
<path fill="#C7C7C7" d="M153.5,193.2c-2.3,0.6-4-0.2-4.9-2.4c-0.6-1.4-1.2-2.9-1.7-4.3c-0.5-5.7-3.1-10.4-6.6-14.7
	c-2.6-3.3-6.2-6.2-4.9-11.2c0.8-1.1,2-1.3,3.3-1.2c2.4,1.2,3.2,3.7,4.5,5.7c0.2,0.4,0.3,0.8,0.5,1.2c0.2,0.4,0.3,0.8,0.5,1.2
	c0.7,2.3,3.3,3.7,2.7,6.6c0.6,2.2,1.3,4.2,2.7,6.1c1.1,1.4,1.6,3.1,2,4.8C152.2,187.6,152.8,190.4,153.5,193.2z"/>
<path fill="#606060" d="M176.3,186.4c0.6,3.2-0.1,6.6,1.1,9.7c0.1,1.6,0.2,3.1-0.5,4.6c-2,4.3-3,8.9-4.2,13.4
	c-1,1.4-0.7,3.1-1.2,4.6c-1-0.1-0.6-0.9-0.7-1.3c-0.1-0.6-0.1-1.3,0-1.9c0.5-4.7,1.1-9.5,1.7-14.2c0.3-2.2,0.8-4.4,1.4-6.5
	c0.9-3,0.5-6,0.8-9c0-0.4,0.3-0.6,0.6-0.4c0.3,0.1,0.4,0.4,0.6,0.7C176.1,186.2,176.2,186.3,176.3,186.4z"/>
<path fill="#757575" d="M146.8,174c-1.3-2.2-3.1-4.1-3.9-6.6c0.1-0.8,0.1-1.7,0.9-2.3c0.4-0.2,0.8-0.1,1.1,0.3
	c0.5,3.2,2.8,5.6,4,8.5C148.2,174.3,147.5,174.2,146.8,174z"/>
<path fill="#DDDDDD" d="M155.5,46.3c0.1,0.8,0.1,1.5,0.2,2.3c0.1,1-0.3,1.9-1.3,2.2c-1.9,0.6-1.9,1.8-1.3,3.3
	c0.2,0.6,0.3,1.2,0.5,1.8c-0.2,0.1-0.4,0.3-0.6,0.4c-1.8,0.4-3.2-0.4-4-1.9c-3.9-7.8-10.7-12.8-17.2-18.1c-1.7-1.4-3.9-2.3-4.8-4.5
	c-0.5-2-1.9-3.3-3.7-4.1c-5.2-2.3-9.6-6.3-15.5-7.5c-4.3-0.8-7.5-4.7-12-5.4c-1-0.2-1.6-1.1-1.5-2.1c0-1.3,0.8-2.1,2-2.2
	c2.2-0.3,4.4-0.1,6.7-0.1c0.5,0,0.9,0.1,1.4,0.2c6.3,1.4,11.9,5.1,18.4,6.1c3.4,1.7,6.8,3.5,10.3,5.1c2.4,1.1,4.2,2.9,5.8,4.9
	c5.4,6.3,10.7,12.6,16,19C155.1,45.7,155.3,46,155.5,46.3z"/>
<path fill="#ABABAB" d="M172.8,144.2c-0.1-0.9-0.1-1.8-0.2-2.7c-0.1-0.9-0.7-1.2-1.6-1c0.6-4.2,1.1-8.5,2-12.7
	c0.7-3.8,0.8-7.6,0.8-11.4c0-3.2,0-6.4,0-9.6c0-4.8,0-9.5,0.1-14.5c1.4,0.8,1.1,2.2,1.8,3c0.1,4.9,0,9.8,0.8,14.7
	c0.6,3.9,0.5,7.9-0.1,11.8c-0.5,3.3-0.7,6.6-0.7,9.9c-1.1,2.8-1.8,5.8-1.9,8.8C173.7,141.8,173.5,143.1,172.8,144.2z"/>
<path fill="#CECECE" d="M122.8,16.5c-2.7,0.5-5.1,0.3-7.7-1c-2.9-1.4-6.2-2-9.4-2.9c-0.7-0.2-1.4-0.6-2.2-0.9c1.7-1.5,3.6-1.8,5.8-1
	c2.9,0.1,5.2,1.7,7.7,2.9C119,14.6,120.9,15.6,122.8,16.5z"/>
<path fill="#ACACAC" d="M17.3,32.9c5.3-1.3,10.3-3.3,15.3-5.3c2.5-1,4.8-2.4,7.3-3.6c1.7-0.9,3.3-1.9,4.3-3.6l0,0
	c0.3-0.3,0.6-0.7,1-1l0,0c0.5-0.6,1.4-0.4,1.9-1l0,0c0.5-0.6,1.4-0.4,1.9-1l0,0c0.3-0.3,0.6-0.7,1-0.9l0,0c0.3-0.4,0.6-0.7,1.1-0.9
	c1.6-0.6,3.2-1.3,4.8-1.9c2.8-0.2,5.5-0.6,8.3-0.6c4.6,1.3,9.3,2.7,13.9,3.8c0.6,0.2,1.6,0.3,1.6,0.8c0.6,4.1,5.1,6.2,5.9,9.1
	c0.9,3.5,2.5,2.7,4.4,3.1c0.5,0.1,0.9,0.3,1.3,0.6c3.6,1.6,7.7,1.5,11.1,3.8c0.9,0.6,1.7,1.2,1.8,2.4c-0.7,3-2.9,2.5-4.9,1.9
	c-3.6-1.1-7.4-1.6-11-2.8c-3.1-1-6.1-1.1-9,0.3c-2.5-0.6-5.4-0.3-7.4-2.3c-0.3-0.4,0-1.3-0.5-1.4c-0.4-0.1-0.7,0.8-1.2,1.1
	c-1.8,1.2-3.8,0.4-5.5,0.7c2.5,0,5.2-0.3,7.8,0.5c1.8,0.5,3.5,1.2,1.9,3.6c-7.1,0-14.2,0-21-2c-1.3-0.2-2.5-0.5-3.4-1.6
	c-2.8-3.4-2.8-3.1-7.4-3c-5.4,0.2-10.3,0.9-14.8,4.2c-2.8,2-6.5,1.8-9.8,0.9C14.7,36.2,14.9,34.6,17.3,32.9z"/>
<path fill="#7F7F7F" d="M64.3,14.6c-1.5,0-3,0-4.6,0c-1.4,0-2.7-0.1-3.9-0.9c0.2-0.1,0.4-0.2,0.7-0.2c0.5-0.1,0.8-0.5,1.1-0.8
	c0.6-0.3,1.3-0.7,1.9-1c0.3-0.3,0.6-0.3,0.9,0c4.9-0.3,9.6,1.1,14.4,1.1c3.3-1.7,6.2,0.5,9.2,1c2,0.3,1.7,2,0.3,3.2
	c-0.9,0.8-2.2,1-3.2,0.7C75.6,16.2,69.8,16,64.3,14.6z"/>
<path fill="#DCDCDC" d="M47,18.4c-0.6,0.3-1.3,0.7-1.9,1C45.7,19.1,46.4,18.8,47,18.4z"/>
<path fill="#DCDCDC" d="M48.9,17.5c-0.6,0.3-1.3,0.6-1.9,1C47.6,18.1,48.3,17.8,48.9,17.5z"/>
<path fill="#BCBCBC" d="M60.4,11.6l-0.5,0l-0.5,0c0.4-0.3,0.7-0.5,1.1-0.8C60.5,11.1,60.4,11.4,60.4,11.6z"/>
<path fill="#DCDCDC" d="M51,15.6c-0.4,0.3-0.7,0.6-1.1,0.9C50.3,16.2,50.6,15.9,51,15.6z"/>
<path fill="#DCDCDC" d="M45.1,19.4c-0.3,0.3-0.7,0.6-1,1C44.5,20,44.8,19.7,45.1,19.4z"/>
<path fill="#DCDCDC" d="M49.9,16.5c-0.3,0.3-0.7,0.6-1,0.9C49.3,17.2,49.6,16.8,49.9,16.5z"/>
<path fill="#ACACAC" d="M57.6,12.7c-0.4,0.3-0.8,0.5-1.1,0.8C56.8,13.2,57.2,12.9,57.6,12.7z"/>
<path fill="#BCBCBC" d="M64.3,14.6c4.4,0,8.8-0.3,13.2,0.8c1.3,0.3,2.8,0.2,4.2,0.2c0.6,0,1.2,0.2,1.7-0.7c-2.2-0.6-4.5-0.1-6.5-1.1
	c-0.7-0.3-1.4-0.7-2.1-1c-0.5-0.3-1.1-0.7-1.6-1c-0.4-0.2-0.9-0.5-0.7-1c0.1-0.3,0.3-0.5,0.6-0.7c1.4-0.7,3-1.1,4.6-1.2
	c2.3,0,4.3-0.6,6.4-1.5c3.1-1.3,6.3-1.4,9.8-0.9c5.4,0.7,10.5,2.2,15.5,4.3c-1.9,0.3-3.8,0.6-5.8,1l0,0c-4.9-1.4-9.8-0.1-13.8,0.1
	c4.2,2,9.7,3.2,14.6,5.8c1,0.5,2.8,0.2,2.7,2.1c-0.2,1.9-1.7,2-3.2,2.1c-0.5,0-0.9,0-1.4-0.1c-1.8-0.4-3.7-0.7-5.5-0.8
	c-0.9-0.1-1.8-0.1-2.7-0.1c-1.5,2.6,0.4,4.4,1.6,6.2c1,1.4,2.6,2.6,1.6,4.5c-1.1,2-2.7,0.7-4.2,0.5c-1.1-0.2-2.2-0.1-3,0.8
	c-3.5-1-7-2-10.5-3c-0.5-0.1-0.9-0.5-0.6-1c0.1-0.2,0.5-0.5,0.8-0.5c1.1,0,2.2,0.2,3.3,0.3c0.5,0,1-0.1,1-0.7c0-0.4-0.4-0.9-0.8-1
	c-2-0.5-4-1-6-1.4c-0.9-0.2-1.8-0.4-2.8-0.6c-0.1,0-0.3-0.2-0.3-0.3c0-0.3,0.1-0.7,0.2-0.8c1-0.4,2.1-0.7,3.1-1.1
	c1.5-0.7,1.6-2.5,0.1-3.4c-0.8-0.5-1.7-0.9-2.6-1.2c-2.4-0.7-4.9-1.3-7.5-1.4C66.3,16.5,65,16.1,64.3,14.6z"/>
<path fill="#BCBCBC" d="M67.3,9c0.3,0,0.6,0,0.8,0.1c-0.3,0.3-0.6,0.5-0.9,0.8C67.2,9.5,67.2,9.2,67.3,9z"/>
<path fill="#E2E2E2" d="M153.6,55.8c2,3.2,4.4,6.3,6,9.8c2,4.3,3.4,8.9,4.3,13.6c0.3,1.4,0.2,2.9-0.2,4.3c-0.5,2.1-0.4,4.1,0.4,6.1
	c1,2.5,1.1,4.9-0.7,7.2c-0.8,0.9-1,2.3-1.4,3.5c-0.2,0.6-1.3,0.6-1.6,0c-0.5-1-1-2-1.4-3c-0.6-1.5-1.2-2.9-1.9-4.4
	c-0.1-0.1-0.3-0.3-0.4-0.2c-0.3,0.1-0.7,0.3-0.7,0.5c-0.2,0.9-0.3,1.9-0.3,2.8c0.1,1.3,0.4,2.5,0.5,3.8c0.2,1.7-0.1,2.1-1.9,2.7
	c-2.2,0.7-2.2,0.7-1.9,2.9c0.4,2.9,0.4,5.7,0.2,8.6c-0.1,1.3-1,0.9-1.7,0.4c-1.4-0.5-1.4-1.7-1.6-2.8c-0.2-1.1-0.5-2.1-1.1-3.1
	c-0.3-0.4-0.5-0.7-0.8-1.1c-3.2-2.4-4.2-5.8-5.1-9.4c-1.2-4.8-2.3-9.6-3.2-14.5c2.5-5.8-0.6-10.5-3.6-14.8c-2.2-3.1-4.5-6.2-6.8-9.2
	c-1.2-1.5-1.8-3.2-0.3-4.7c1.7-1.7,3.5-1,5.1,0.5C139.5,61,145.4,67,146,76.3c0.2,2.5,0.7,5,1.9,6.9c-0.5-1.5-1.3-3.2-1.5-5.2
	c-0.3-2.8,0.7-4.5,3.4-4.4c3.4,0.1,3.1-1.4,2.7-3.9c-0.5-3.1-1.4-6.2-1.2-9.5C151.4,58.5,151.6,56.7,153.6,55.8L153.6,55.8z"/>
<path fill="#B6B6B6" d="M150.7,110.6c0,1.3,0,2.5,0.1,3.8c0,4.3-0.4,8.6,0.7,12.9c0.2,0.6,0.3,1.2,0.6,1.8c0.1,0.2,0.5,0.4,0.8,0.4
	c0.3,0,0.6-0.2,0.8-0.4c1.2-1.9,1-4,0.6-6c-0.4-2.4-0.7-4.7-0.6-7.1c0-0.6,0.2-1.2,0.5-1.8c0.1-0.2,0.5-0.4,0.8-0.4
	c0.3,0,0.7,0.2,0.8,0.4c0.3,0.7,0.7,1.5,0.7,2.2c0.1,4.5,0.5,8.9-0.4,13.4c-0.3,1.8-0.4,3.5,0.4,5.1c1.4,2.9,1.2,5.9,0.7,8.9
	c-0.3,1.9-0.7,3.8-0.4,5.7c0,0.2,0.4,0.6,0.6,0.6c0.2,0,0.6-0.3,0.7-0.5c0.8-2.3,1.4-4.6,1.5-7c0-0.8,0.2-1.6,0.4-2.3
	c0-0.1,0.2-0.3,0.3-0.3c0.3,0,0.8,0,0.8,0.2c1.9,4,3.3,7.9,1,12.3c-1.2,2.4-2.2,4.9-2.8,7.6c-0.4,1.9-1.4,3.6-2.5,5.1
	c-0.4,0.5-1.1,0.8-1.7,0.5c-0.4-0.2-0.8-0.7-0.8-1.1c0.4-2.1-0.5-3.6-2.1-5c-0.8-0.7-1-1.9-1.6-2.9c-0.1-0.2-0.5-0.5-0.7-0.4
	c-0.2,0-0.6,0.3-0.7,0.6c-0.2,1.7-0.3,3.5-0.4,5.2c-0.1,0.9-0.5,1.4-1.6,1.3c-1.8-0.2-1.9-0.2-2.2,2.1c-0.3-0.1-0.5-0.1-0.8-0.1
	c-0.5-0.1-0.9-0.3-1.2-0.7c-0.4-0.6-0.7-1.2-1-1.9c-0.1-0.5,0-1,0.2-1.4c2.3-9.1,3.5-18.3,3.5-27.6c1.9-7.3,0.5-14.7,0.8-22
	c0.1-2.3-0.2-4.7,3.4-3.8l0,0C150.6,108.5,149.8,109.8,150.7,110.6z"/>
<path fill="#B6B6B6" d="M164.8,139.1c-0.1,0.5-0.2,0.9-0.7,1c-0.2,0-0.6-0.2-0.7-0.4c-0.3-0.7-0.6-1.4-0.7-2.1
	c0-0.2,0.2-0.6,0.5-0.7c0.2-0.1,0.6,0.1,0.8,0.2C164.5,137.6,164.8,138.3,164.8,139.1z"/>
<path fill="#979797" d="M159.2,184.4c-0.3,0.7-0.6,1.3-0.8,2C158.7,185.8,158.9,185.1,159.2,184.4z"/>
<path fill="#9E9E9E" d="M136.3,160.5c1,2.8,2.4,5.5,4.3,7.9c3.3,4.3,5.2,9.3,7.4,14.3c0.4,0.8,0.6,1.8,0.6,2.7c0,1-0.8,1.2-1.7,1.1
	l0,0c-0.6-0.5-0.4-1.4-0.9-1.9l0,0c-0.9-0.6-1.7-1.3-1.9-2.2c0.9,1.5-0.1,3.5,0.9,5.1l0,0c0.6,0.7,0.6,1.6-0.2,1.9
	c-0.8,0.4-1.6-0.2-1.9-1c-0.6-1.6-1-3.3-1.8-4.8c-1.6-3.8-3.2-7.7-4.8-11.5c-3.3-1.9-5.8-4.4-6.2-8.4c0.4-2.4-0.8-5.1,0.9-7.4
	c0.4-0.3,0.9-0.5,1.4-0.6C135.1,156.1,136.6,157.6,136.3,160.5z"/>
<path fill="#BBBBBB" d="M132.4,156.7c-0.3,0-0.7,0-1,0c-3,2.3,0.8,4.5,0,6.8c0.7,2.5,1.8,4.7,3.6,6.5c0.5,0.5,0.8,1.3,1.2,2
	c-1.6,0.1-1.6,0.1-1.9,1.9c-0.2,0.1-0.3,0.3-0.5,0.4c-0.5,0-0.9,0-1.3-0.3c-0.7-0.6-1.2-1.4-1.7-2c-1.1-1.5-1.9-3.1-2.8-4.7
	c-2.5-6.3-5.3-12.5-8.3-18.5c-1-2-2.6-4.1-1.1-6.6c0.7-0.5,1.7-0.8,2.2-0.3c4.3,4,9,7.6,11.8,12.9
	C133,155.5,132.8,156.1,132.4,156.7z"/>
<path fill="#3C3C3C" d="M129.5,167.3c0.9,1.3,1.8,2.5,2.7,3.8c1.2,0.7,0.3,2.1,1.1,2.9l0,0c2.4,7.7,5.1,15.4,4.4,23.7
	c-0.1,1.4-0.3,2.8,0.4,4.2c0,0.3,0,0.6,0.1,0.8c0,0.9,0.1,1.9,0.1,2.8c-0.3,1-0.7,2-1,2.9c-0.5-0.2-0.9-0.4-1.1-0.9
	c-0.5-1.4-1-2.8-1.4-4.2c-2.1-9.5-4.2-19-7.5-28.3c-0.3-0.7-0.2-1.6,0.1-2.3C129,171.3,127.2,168.5,129.5,167.3z"/>
<path fill="#ADADAD" d="M138.1,201.9c-0.3-0.7-0.6-1.5-0.7-2.2c-1.2-6.8-2.5-13.7-3.6-20.5c-0.3-1.7-0.3-3.4-0.4-5.2
	c0.3,0,0.7,0,1,0c3.4,8.7,5.5,17.8,7.7,27.2c-2.3-0.3-1.9-2.6-3.5-3.3C137.9,199.1,138.4,200.6,138.1,201.9z"/>
<path fill="#C7C7C7" d="M141.1,183.6c1.1,1.1,1.5,2.5,2.2,3.9c0.5,0.9,1.1,0.9,1.6,0c0.8,1,1.3,2.2,1.5,3.4c0.1,0.6,0.3,1.5,0,1.8
	c-2,2.2-1,4.4-0.3,6.7c0.1,0.5,0.2,1-0.3,1.3c-0.5,0.3-0.9-0.1-1.1-0.5c-1.4-2.3-2.4-4.8-2.5-7.6
	C142.1,189.5,141.5,186.5,141.1,183.6z"/>
<path fill="#C7C7C7" d="M144.9,187.4c-2-3.4-2.7-7.4-4.3-11.1c-0.1-0.2,0-0.7,0.2-0.8c0.5-0.3,0.9,0,1.1,0.4c1.6,2.8,3.2,5.5,4,8.6
	C145.3,185.4,145,186.3,144.9,187.4z"/>
<path fill="#C7C7C7" d="M145.9,184.5c0.3,0.6,0.6,1.3,0.9,1.9C146.5,185.8,146.2,185.1,145.9,184.5z"/>
<path fill="#484848" d="M143.9,164.4c0.1,0.3,0.1,0.5,0.2,0.8c-0.4,0.7-0.8,1.5-1.2,2.2c0,0,0-0.1,0-0.1c-0.2-0.4-0.6-0.7-0.8-1.1
	c-1.2-2-2.5-4-3.7-6c-0.3,0-0.7-0.2-0.9-0.4c-0.4-0.3-0.8-0.6-1.1-1.1c-0.2-0.3-0.4-0.7-0.6-1c-0.4-0.5-0.8-1-1.2-1.4
	c-3-3.7-6.3-7.2-9.1-11.1c0.5-2.1-0.7-3.5-2-4.9c-3.5-3.5-5.5-7.8-4.9-12.7c0.3-2.6-1.3-4.9-0.7-7.4c0.2-0.4,0.4-0.8,0.7-1.1
	c-0.1-1.1,3.6,1.4,1.5-1.6c-0.7-1.1-0.5-2.3,0.5-3.3c0.4-0.2,0.8-0.4,1.3-0.4c1,0.1,1.5,0.9,2,1.6c0.2,0.4,0.4,0.7,0.6,1.1
	c0.3,0.6,0.6,1.1,0.7,1.8c0.1,0.6,0.1,1.2,0.1,1.9c0.1,1.6,0.3,3.2,0.9,4.8c0.2,0.4,0.4,0.7,0.5,1.1c1.7,1.3-0.2,5,3.5,4.9
	c4.7-1.6,5.9-1.1,7,3.6c0.7,3,1.3,6.2,0.9,9.2c-0.3,2.6,0.4,4.5,1.5,6.6c2.3,3.7,3.3,7.7,3.2,12.1l0,0
	C143.6,162.9,143.4,163.8,143.9,164.4z"/>
<path fill="#E0E0E0" d="M126.7,145.2c4,3.2,6.6,7.5,9.6,11.5c0.3,0.2,0.5,0.5,0.7,0.9c0.2,0.2,0.3,0.5,0.4,0.7
	c0.1,0.5,0.5,0.8,0.7,1.2c0.2,0.2,0.3,0.5,0.3,0.8c-0.7,0.5-1.4,0.4-2.1,0.2c-1.3-1.3-2.3-2.9-3.8-3.8c-3-4.7-6.9-8.6-10.9-12.3
	c-0.8-0.7-1.8-1.3-2.6-1.9c-0.2,0-0.4,0-0.6,0c-0.6-0.2-1-0.5-1.4-0.9c-0.2-0.3-0.5-0.6-0.7-0.9c-0.4-0.5-0.7-1-1-1.5
	c-0.2-0.4-0.3-0.8-0.4-1.2c0-0.5,0-0.9,0.1-1.4c0.2-0.7,0.7-1.3,1.3-1.7c0.4-0.2,0.9-0.3,1.4-0.3c0.5,0,1,0.2,1.4,0.4
	C121.5,138.2,125.3,140.8,126.7,145.2z"/>
<path fill="#757575" d="M142.1,166.2c0.3,0.4,0.6,0.7,0.8,1.1C142.7,167,142.4,166.6,142.1,166.2z"/>
<path fill="#EFEFEF" d="M153.5,55.9c-0.1,5.4,0.2,10.8,2.4,16c0.7,1.7,0.7,3.4,0.1,5.1c-0.3,0.9-1.5,1.5-2.3,1
	c-1.1-0.6-2.1-1.4-3.3-2c-1.1-0.6-2.2,0.2-2.4,1.4c-0.2,1.6,0.1,3.2,0.5,4.7c0.6,2,1.1,4,1.6,6c0.2,0.6,0.4,1.2-0.3,1.7
	c-1-0.2-1.1-1.1-1.3-1.8c-0.8-3.1-2-6-3.3-9c-0.9-2.2-1.8-4.4-2.4-6.8c-0.4-1.7-1.1-3.4-2-4.8c-2.8-4.3-6-8.2-9.9-11.5
	c-0.1-0.1-0.3-0.2-0.4-0.2c-0.3,0-0.7,0-0.9,0.1c-0.2,0.2-0.3,0.7-0.2,0.8c2.4,3.2,4.6,6.5,7.2,9.5c2.1,2.5,3.7,5.1,4.5,8.3
	c0.6,2.3,1.4,4.6,2,6.9c0.2,0.6,0.3,1.2,0.4,1.9c0.1,1.1-0.7,1.7-1.9,1.3c-0.6-0.2-1.1-0.6-1.7-0.9c-2.4,0.2-3.1-1.9-3.7-3.4
	c-1.6-3.8-3.5-7.4-5.7-10.9c3.3,5.2,5.6,10.9,8.6,16.3c0.9,1.6,2,3.3,0.2,4.7c-2,1.6-3.2-0.4-4.4-1.5c-2.3-2-3.7-4.8-5.6-7.1
	c-1.5-2.2-2.2-4.9-4.1-6.8c-0.3-0.6-0.6-1.2-1-1.7c-0.2-0.4-0.5-0.7-0.7-1.1c-3-5.9-7.4-10.7-12.2-15.2c-1.8-1.6-3.1-3.6-4.1-5.8
	c-0.7-1.6-2-3.3-0.2-4.7c1.7-1.4,2.9,0.5,4.2,1.2c-0.9-0.5-1.6-1.3-2.5-1.8c-0.4-0.2-0.7-0.4-1.1-0.6c-0.4-0.2-0.8-0.4-1.1-0.6
	c-0.2-0.1-0.3-0.3-0.5-0.4c-0.4-0.3-0.7-0.5-1.1-0.7c-0.4-0.3-0.9-0.3-1.3-0.5c-1.7-1-5.3-1.1-3.9-4c0.9-1.9,4-1.1,6.1-0.1
	c1.2,0.6,2.3,1.5,3.3,2.2c-0.2-0.2-0.4-0.3-0.6-0.5c-0.3-0.2-0.6-0.4-0.8-0.6c-0.3-0.2-0.6-0.4-0.9-0.6c-0.3-0.2-0.6-0.5-0.9-0.8
	c-0.3-0.3-0.6-0.6-0.8-1c-0.1-0.2-0.2-0.4-0.2-0.6c-0.6-2.5,1.7-3.2,2.9-4.5c2.7-3,2.7-3.8-0.9-5.9c-1.8-1-3.8-1.5-5.4-2.9
	c-0.7-0.7-1.4-1.4-0.8-2.4c0.6-1.1,1.6-0.6,2.5-0.5c0.6,0,1.3,0,1.9,0c0.8,0.2,1.7,0.2,2.5-0.1c0.6,0,1.2,0,1.9,0
	c0.8,0,1.6,0,2.4,0.2c0.4,0.2,0.7,0.4,1,0.6c0.6,0.5,1.2,1,1.9,1.2c0.3,0.1,0.7,0.3,1,0.5c0.4,0.4,0.9,0.6,1.4,0.8
	c0.3,0.1,0.7,0.1,1,0.2c0.3,0.1,0.6,0.3,0.9,0.4c0.3,0.2,0.6,0.4,0.9,0.6c0.3,0.2,0.6,0.3,0.9,0.4c0.3,0.2,0.6,0.4,0.8,0.6
	c0.3,0.2,0.5,0.4,0.8,0.6c0.3,0.1,0.6,0.3,0.9,0.4c0.3,0.2,0.6,0.3,0.9,0.5c0.3,0.1,0.6,0.3,0.9,0.4c0.3,0.2,0.6,0.4,0.9,0.6
	c0.3,0.2,0.6,0.4,0.9,0.6c0.5,0.2,1,0.5,1.3,1c0,0.2,0.1,0.4,0.1,0.5c0.4,0.3,0.7,0.7,1.1,0.9c6.6,4.2,12.1,9.7,17.6,15.3
	c1.6,1.6,3.1,3.2,3.6,5.5C151.2,54.1,152.3,55.1,153.5,55.9z"/>
<path fill="#CECECE" d="M109.4,22.3c-0.6,0-1.3,0-1.9,0c-0.5-0.6-1.4-0.4-1.9-0.9c-0.6,0-1.3,0-1.9,0c-0.7-0.3-0.7-0.6,0-0.9
	c0.3-0.1,0.6-0.1,0.9-0.2c0.7-0.3,1.2-0.9,0.4-1.3c-1.4-0.8-2.8-1.6-4.3-1.9c-3.3-0.6-6.3-2.1-9.7-2.5C88,14,85.2,12.9,82.3,12
	c-0.2-0.1-0.5-0.5-0.5-0.7c0-0.3,0.1-0.7,0.4-0.8c1.2-0.9,2.7-1.2,4.1-1.1c5.4,0.3,10.8,0.6,16.1,1.7c0.5,0.1,0.9,0.4,1.3,0.6
	c-1.3,0-2.6-0.1-3.8,0c-1.2,0.1-3-0.6-3.2,1c-0.1,1.2,1.8,0.7,2.7,1.2c1.1,0.6,2.3,1.2,3.4,1.8c3,1.5,5.8,3.3,9.2,3.9
	c0.6,0.1,1.2,0.4,1.8,0.7c5.2,2.8,10.4,5.6,15.6,8.4c0.5,0.3,1.3,0.6,1,1.4c-0.3,0.7-1,0.6-1.7,0.7l0,0c-0.8-0.9-2.1,0-2.9-1l0,0
	c-0.3-0.3-0.7-0.6-1-0.9c-0.3,0-0.6,0-0.9,0c-0.3-0.3-0.7-0.6-1-0.9l0,0c-0.5-0.6-1.4-0.4-1.9-1l0,0c-0.5-0.6-1.4-0.4-1.9-1l0,0
	c-0.3-0.3-0.7-0.6-1-0.9c-0.3,0-0.6,0-0.9,0c-0.5-0.6-1.4-0.4-1.9-0.9l0,0c-0.8-0.9-2.1-0.1-2.9-0.9l0,0
	C111.5,22.3,110.2,23.2,109.4,22.3z"/>
<path fill="#C7C7C7" d="M13.3,40.4c-0.8,0.2-1.8,0.3-2.8,0.2C11.2,41.1,11.9,40.9,13.3,40.4z"/>
<path fill="#C7C7C7" d="M56.7,51c-7.2-3.9-7.6-5.5-2.9-12.5c1.2-1.8,0.5-2.9-1.1-3.8c-0.8-0.6-1.6-1.3-1.1-2.4
	c0.7-1.8-0.2-3.3-0.3-5.1c-1.7-0.2-3.1-0.3-4.5-0.5c-1-0.1-2,0-2.5,0.9c-0.8,1.5-2,1.6-3.6,1.7c-4.8,0.1-9.4,0.8-13.4,3.9
	c-2.5,1.9-5.6,2.1-8.6,2.2c-1.3,0.1-1.6-0.5-1.5-2.7c-3.6,0.7-6.5,3.1-9.6,4.8c1.4,1.7,2.1,2.6,2.8,3c1.1,0,2,0,2.8-0.2
	c-1.4,0.5-2.1,0.7-2.8,0.2c-1.6-0.1-3.4-0.5-5.3-1.3c-1.2,1.3-2.1,2.7-2.8,4.4c1.5,0.8,2.8,1.9,3.5,3.8c2.7,2.7,5.3,5.3,9.6,5.2
	c3.3-0.1,6.6,0.4,9.9,0.6c7.6,0.5,15.3,0.6,22.3,4.2c2.2,0.7,4.4,1.8,6.7,0.4c0.8-1.7,2.4-1.7,3.9-2.1c1.1-0.5,2.3-0.9,2.5-2.3
	C60.3,51.3,58.1,51.7,56.7,51z"/>
<path fill="#AEAEAE" d="M18.9,38.9c-0.6-0.2-1.3-0.4-1.9-0.3c-2.7,0.4-5.4,0.1-7.9-0.9c-0.4-0.2-0.9-0.1-1.4-0.1
	c-0.5,0.3-0.9,0.4-1.4,0.5c-0.7,0.7-1.4,1.4-2.1,2.2c1.7,0.6,3.4,1.1,5.1,1.7c1.1,0.3,2.3,0.4,3.3-0.1c2-1,4.2-1.4,6.4-1.7
	c0.2,0,0.5-0.5,0.4-0.7C19.4,39.3,19.1,39,18.9,38.9z"/>
<path fill="#C4C4C4" d="M55.9,52.8c-0.6-0.1-1.3-0.1-1.9-0.3c-4.4-1.2-6-3.4-5.9-7.9c0-1.1,0.4-2.2,0.5-3.3c0.3-1.9,1-3.3,3.1-3.8
	c1.5-0.4,1.4-1.5,1-2.7c2.5,0.5,5,1,7.5,1.4c1.4,0.2,2.8,0.5,4.2,0.5c3.5-0.1,6.9,0.4,10.4,1c0.2-0.1,0.5-0.1,0.7-0.2
	c7.8,0,15.5,0.7,22.6,4.6c0.2,0.4,0.3,0.9,0.3,1.4c-1.4,2.4-3.3,3.7-6.2,2.7c-1.5-0.6-2.7,0.5-4,0.9c-1.4,0.1-2.7-0.3-4-0.8
	c-0.4-0.2-0.8-0.3-1.2-0.5c-1.5-0.7-3.1-1.4-4.8-1.8c-1.6-0.1-2.7-1.2-4-1.8c-1.2-0.4-2.5-0.2-3.7-0.3c-0.4-0.1-0.8-0.2-1.2-0.3
	c-0.9-0.5-1.9-0.9-2.8-1.3c-0.4-0.1-0.8-0.2-1.2-0.2c-1.4,0.1-2.8-0.4-4.7-0.5c1.6,3.4,0.5,6.4-0.7,9.3c-0.2,1.1-0.9,2-1.7,2.7
	C57.4,52.1,56.5,52.1,55.9,52.8z"/>
<path fill="#CECECE" d="M90.2,32.8c0.4-0.9,1.1-1.6,2.1-1.6c0.9,0,1.9,0.1,2.8,0.1c0.2,0,0.4-0.4,0.6-0.6c0.1-0.1,0-0.3-0.1-0.4
	c-0.3-0.3-0.6-0.8-1-0.9c-2.6-1.1-3.6-2.8-2.9-5.6c0.3-1.3-0.4-2.5-1.7-3.1c-0.8-0.4-1.8-0.7-2.6-1.2c-0.4-0.2-0.8-0.7-0.8-1
	c0.1-0.8,0.8-0.8,1.4-0.7c2,0.4,4.1,0.5,5.9,1.6c2.8,2,6.2,2.4,9.2,4.2c3.7,2.3,2.8,6.4,4.3,9.5c0.4,0.9-0.8,1.8-2.1,2
	c-1.2,0.2-2.5-0.4-3.6,0.5c-1.7-0.5-3.4-0.9-5-1.6C94.6,33.2,92.5,32.8,90.2,32.8z"/>
<path fill="#DDDDDD" d="M101.7,35.7c-0.1-0.7-0.1-1.4,0.7-1.6c0.6-0.2,1.3-0.1,1.9-0.2c0.4-0.1,1.1-0.1,1.3-0.4
	c0.4-0.7-0.2-1.3-0.7-1.6c-2.1-1.4-3.3-2.9-1.4-5.4c0.5-0.7,0.1-1.5-0.7-2c-1.5-1-3.1-1.7-4.8-2c-1.1-0.2-2.2-0.5-3.2-0.9
	c-0.8-0.4-1-1.2-0.7-2c1,0,1.9,0,2.9,0c1.8,1.2,4-0.3,5.8,0.9c0.3,0,0.6,0,0.9,0c0,0.3,0,0.6,0,0.9c-0.4,0.2-1,0.2-1.2,0.5
	c-0.3,0.5,0.2,0.9,0.6,1c1.3,0.5,2.6,1.1,4,1.5c2,0.6,3.8,1.7,5.4,3c0.6,0.5,1.1,1.2,1.4,1.9c0.7,1.7-0.1,3.6-1.8,4.3
	c-1.3,0.5-2.8,0.6-4,1.4c-1,0.7-1.7,1.4-1.4,2.7c-1.4,1-2.3,0.4-2.9-0.9C103,36.3,102.4,36,101.7,35.7z"/>
<path fill="#C4C4C4" d="M103.7,36.7c1,0.3,1.9,0.6,2.9,0.9c0,0,0,0,0,0c0.3,0.3,0.6,0.6,0.9,0.9l0,0c0.3,0.3,0.6,0.6,0.9,0.9
	c0.3,0,0.6,0,0.9,0.1c0.3,0.3,0.6,0.6,1,0.9c1.5,0.9,3,1.9,4.4,2.8c0.7,0.4,1.5,0.8,1.3,1.8c-0.1,0.6-1.2,0.7-2.5-0.1
	c-1.8-1-3.5-2.1-5.3-3.3c-1.9-1.2-3.7-2.4-6-2.8c-0.5-0.1-1,0-1.1,0.6c0,0.2,0.2,0.6,0.5,0.7c1.6,0.8,3.2,1.5,4.7,2.3
	c0.3,0.3,0.7,0.6,1,0.9l0,0c0.3,0.3,0.6,0.7,1,0.9l0,0c-1.7,3.7-5.1,2.9-8,2.7c-1.8-0.1-3-1.5-2.6-3.6l0-0.1
	c0.3-3.3-2.7-2.5-4.3-3.4c-0.4-0.1-0.8-0.3-1.2-0.4c-0.8-0.5-1.8-0.5-2.7-0.6c-2.2-0.7-4.4-1.2-6.7-1.7c-1.5-0.3-3-0.6-3.4-2.5
	c-0.1-0.9,0.2-1.6,1.2-1.7c1.5-0.3,2.9,0.2,4.2,0.5c4.8,1.2,9.6,2.3,14.4,3.5C101,37.4,102.3,37.6,103.7,36.7z"/>
<path fill="#939393" d="M79.7,34.7c3.8,1,7.7,1.9,11.5,2.9c0.5,0.6,1.4,0.4,1.9,0.9l0,0c-0.8,3-3.3,1.4-4.7,1.3
	c-4.5-0.3-9.1-1.2-13.5-2.3l0,0c-1.8-1.7-4-2-6.2-1.9c-3.2,0.1-6.4-0.5-9.5-1.1c-0.4-0.1-0.9-0.5-1-0.8C58,33.3,58.5,33,59,33
	c1.8-0.1,3.5-0.1,5.3-0.2c1.9,0,3.8,0,5.8,0c0.6-0.6,1.3-0.5,1.9,0C74.4,34.1,77.1,33.9,79.7,34.7z"/>
<path fill="#C4C4C4" d="M71.9,32.8c-0.6,0-1.3,0-1.9,0c-0.9-0.4-1.9-0.9-3.5-1.6c3.6-0.5,6.4-0.3,9.6,1
	C74.6,33.1,73.2,32.7,71.9,32.8z"/>
<path fill="#CECECE" d="M102.7,20.3c-2,0-4,0.2-5.8-0.9C98.9,19.4,100.9,19.2,102.7,20.3z"/>
<path fill="#CCCCCC" d="M130.5,80.8c1.7,1,2.7,2.7,3.6,4.4c0.9,1.6,1.9,3,3.5,3.9c0.2,0.1,0.7,0.1,0.9,0c0.2-0.2,0.4-0.6,0.4-0.8
	c-0.1-0.6-0.3-1.3-0.6-1.8c-3-4.4-4.5-9.5-7.1-14.1c-1-1.8-2-3.6-2.9-5.5c-0.1-0.2-0.1-0.7,0.1-0.9c0.4-0.4,0.9-0.2,1.2,0.1
	c0.5,0.4,0.9,0.9,1.2,1.4c2.1,3.9,4.9,7.5,6.6,11.6c0.7,1.6,1.8,3,2.7,4.5c2.2,5.5,4,11.1,5.2,16.8c0.2,1.1,0.6,2.3,1.8,2.7
	c2.4,0.7,2.6,2.5,2.6,4.5c-0.9,0.5-1.4,1.3-1.2,2.3c0.5,3.2,0.2,6.3-0.4,9.5c-0.5,2.5-0.3,5.1,0.2,7.6c0.5,2.5,0.9,5-0.5,7.4
	c-3.5-1.3-3.3-4.6-4.2-7.4c0.6-6.4-1.8-11.6-5.7-16.6c-3.1-4-3.3-9.3-3.8-14.2c-0.4-4.2-1.4-8.1-3.5-11.8
	C129.9,83.4,129.1,82.1,130.5,80.8z"/>
<path fill="#CCCCCC" d="M150.7,110.6c-0.6-0.9-0.9-1.8-1-2.9C150.4,108.6,150.6,109.5,150.7,110.6z"/>
<path fill="#858585" d="M145.9,126.9c0.7,2.5,1.7,5,2,7.7c-0.1,3.8,0,7.7-0.8,11.5c-0.3,1.5-0.2,3.2-0.1,4.8
	c0.1,1.6,0.4,3.1-1.4,4.2c-0.7,0.4-0.6,1.4-0.6,2.2c0.1,2.1-0.9,3.7-2.1,5.2c-2.4-2.1-2.8-5.2-3.7-7.9c-0.4-1.2-0.6-2.4-1-3.6
	c-1.3-2.7-0.6-4.5,2.3-5.5c0.9-6.6,0.8-13.2-0.2-19.8c-0.2-1.3-0.4-2.8-0.1-4.1c0.4-1.6,1.1-3.3,2.9-3.3c2,0,1.5,2,1.9,3.2
	C145.5,123.2,145,125.2,145.9,126.9z"/>
<path fill="#858585" d="M143.9,164.4c-0.3-0.6-0.6-1.3-1-1.9C143.2,163.1,143.6,163.8,143.9,164.4z"/>
<path fill="#7C7C7C" d="M131.4,163.5c-1-1.9-2.1-3.8-3.1-5.8c-0.4-0.7-0.6-1.6,0.2-2.1c0.8-0.5,1.5,0.1,2.1,0.5
	c0.3,0.2,0.5,0.4,0.8,0.6c0.2,1.2,0.3,2.5,0.5,3.7C132.2,161.5,132.1,162.6,131.4,163.5z"/>
<path fill="#212121" d="M127.6,169.1c-2.6-6.8-5.6-13.4-8.8-19.9c-0.8-1.7-1.8-3.4-2.7-5c-2.6-1.6-3.8-4.4-5.3-6.8
	c-0.2-0.3-0.4-0.7-0.6-1c-0.2-0.3-0.4-0.7-0.6-1c-0.2-0.3-0.5-0.6-0.7-0.9c-0.3-0.2-0.6-0.5-0.9-0.8c-0.4-0.2-0.6-0.6-0.9-0.9
	c-0.3-0.4-0.4-0.7-0.5-1.2c-0.5-2.1-1.6-3.7-3.6-4.7c-1.3-0.7-2.3-1.6-2.5-3.2c0-0.4,0.1-0.9,0.3-1.3c0.2-0.4,0.4-0.8,0.6-1.1
	c0.2-0.4,0.5-0.7,0.7-1.1c0.5-1.2,1.1-2.4,1.2-3.7c0.5-1.5,0.6-3.2,1.2-4.7c3.8-2.3,7.3-0.9,9.8,3.9c0.2,1.5,0.7,3,1.2,4.4
	c0.1,0.3,0.1,0.6,0.1,0.9c0-0.1,0-0.1,0-0.3c0-0.5,0-1,0-1.5c0.3-1.8-0.6-4.9,2.2-4.6c2.2,0.3,1.5,2.9,0.8,4.8
	c-0.1,0.2,0.1,0.6,0.3,0.8c0.6,3.9,1.3,7.8,1.9,11.6c0.5,3.4,2,6.2,4.5,8.6c0.8,0.8,1.6,1.6,2.2,2.5c0.7,1.1,0,1.7-0.9,2.2
	c-1.8-1.1-2.8-3-4.2-4.4c-1.5-1.4-2.9-2.9-4.4-4.3c-0.3-0.3-0.7-0.6-1-0.9l0,0c-1.8-0.1-1.6,0.8-0.9,1.9l0,0
	c0.4,0.5,0.6,1.2,1.2,1.6c0.3,0.4,0.5,0.9,0.6,1.4l0-0.1c0.8,0.4,0.6,1.4,1,2l0,0c0.5,2.5,1.8,4.7,2.9,7c2.9,5.8,5.3,11.9,7.7,17.9
	c0.3,1.6,0.6,3.1,0.8,4.7c0.1,0.4,0.1,1.1-0.4,1.1c-0.3,0-0.7-0.5-1.1-0.7c-0.1-0.1-0.2-0.2-0.4-0.3c0,0,0,0,0,0
	C127.8,171.3,128.6,169.9,127.6,169.1z"/>
<path fill="#ADADAD" d="M133.4,174c-0.6-0.9-1-1.8-1.1-2.9C133.1,171.9,133.4,172.9,133.4,174z"/>
<path fill="#717171" d="M141.1,147c0,0.5,0,0.9-0.1,1.4c-0.1,0.4-0.1,0.9-0.8,0.6c-1.7-0.7-1.8-0.7-2,1c0,0.3,0,0.6,0,0.9
	c-0.5-0.6-1-1.6-1.6-1.7c-2.4-0.3-2.3-2.3-2.8-3.8c-0.2-0.5,0.3-0.9,0.8-0.7c0.7,0.2,1.5,0.2,1.5-0.6c-0.1-4.1-0.6-8.1-2.2-12
	c0-0.1-0.3-0.2-0.4-0.1c-0.1,0-0.3,0.1-0.4,0.2c-0.1,0.3-0.2,0.6-0.2,0.9c0,1.4,1.3,3.1-0.6,4.2c-1.8-0.6-1.9-2.4-2.5-3.7
	c-0.1-0.3-0.2-0.6-0.3-0.9c-2-1.7-2.1-3.7-1.1-5.9c0.7-1.2,1.6-2.4,1.5-3.9c-0.8-9.2-0.8-18.6-3.5-27.6c-1.9-5-3.6-10.2-6.9-14.5
	c-0.3-0.3-0.5-0.7-0.8-1c-0.4-0.6-0.7-1.1-1.1-1.7c-0.3-0.4-0.5-0.8-0.8-1.1c-0.2-0.4-0.5-0.8-0.7-1.3c-0.2-0.3-0.3-0.6-0.4-0.9
	c-0.8-2.2-3.7-4.8-0.4-6.6c3-1.6,4.6,1.7,5.7,3.7c4.6,8.2,9.7,16.2,12.1,25.4c2.9,15.1,10.1,29.5,7.9,45.5c0.2,1,0.4,1.9,0.5,2.9
	C141.6,146.2,141.4,146.6,141.1,147z"/>
<path fill="#424242" d="M119,120.2c-0.5-1.3-0.9-2.5-1.7-4.6c-0.1,3.1-0.2,5.3-0.3,7.6c-3.3-3.3-3-7.7-3.2-11.8
	c-0.2-4.3-1.2-8.3-3.4-12c-3.3-8.3-9.1-15.3-12.1-23.7c-3.5-8.3-11.1-11.2-18.5-14.5c-2.1-0.9-4.8-1-5.4-3.9
	c0.4-1.5,1.6-1.8,2.9-1.8c8.2,1.3,15.9,3.7,21.2,10.8c1.2,1.6,2.7,2.8,4.1,4.2c0.8,1.2,0.9,2.7,1.5,4c0.1,0.4,0.3,0.9,0.5,1.3
	c2.4,5.2,6.1,9.5,8.9,14.5c2.4,5.1,4.2,10.4,5.5,16c2.1,4.3,1.9,8.7,0.2,13C119,119.5,119,119.9,119,120.2z"/>
<path fill="#585858" d="M130.5,126.9c-0.3,1.9-0.7,3.9-1,5.8c-1.9-0.2-3.3-1-3.8-3.1c-0.3-1.2-0.6-2.5-0.9-3.7
	c1-3.4,0.5-6.8-0.8-9.8c-1.5-3.4-2.8-6.9-4.1-10.4c-0.3-1-0.5-2-1.1-2.9c-0.3-0.7-0.7-1.4-1-2.1c-0.1-0.4-0.3-0.7-0.4-1.1
	c-0.2-0.3-0.4-0.7-0.5-1.1c-0.1-0.4-0.2-0.8-0.3-1.2c-0.3-1.2-0.9-2.4-0.8-3.7c0-0.5,0.1-0.9,0.2-1.3c0.4-1,1.1-1.5,2.2-1.5
	c0.7,0.1,1.3,0.5,1.8,1c1,1.8,1.6,3.8,2.4,5.7c0.4,0.9,0.8,1.7,1.2,2.6c2,5.3,3.6,10.9,6.2,16c1.2,2.2,0.8,4.6,1.1,6.9
	c0.3,1.1,0.4,2.2,0,3.3C130.6,126.5,130.6,126.7,130.5,126.9z"/>
<path fill="#7C7C7C" d="M121,104.7c2.8,5.8,4.7,11.8,5.6,18.1c0.1,0.8,0,1.6-0.2,2.3c-0.2,0.7-0.9,0.8-1.6,0.7l0,0
	c-1.3-1.8,0.2-4-1-5.8c0-0.6,0-1.3,0-1.9c-0.3-0.3-0.6-0.7-0.9-1c0-0.3,0-0.6-0.1-0.9c-0.6-0.5-0.3-1.4-0.9-1.9l0,0
	c-3.6-1.8-3.3-5.8-4.8-8.7c-1.5-3.9-3.1-7.9-4.6-11.8c-0.4-1.2-0.8-2.4-1.2-3.5c2.5-1.1,3,1,3.7,2.4c1.3,2.5,1.9,5.3,3,7.9
	C118.7,102.3,119,104.2,121,104.7z"/>
<path fill="#585858" d="M117.1,105.8c1.6,2.9,3.2,5.8,4.8,8.7c-1,1.5-0.3,3,0,4.6c0.4,1.8,1.1,3.6,0.8,5.6c-0.1,0.5-0.3,1-0.9,0.9
	c-0.2,0-0.5-0.4-0.6-0.6c-0.4-2-0.6-4.1-2.1-5.7c0.1-3.2-0.3-6.2-1.1-9.3C117.5,108.6,117.4,107.1,117.1,105.8z"/>
<path fill="#585858" d="M123.8,120.2c1.1,1.8,1,3.8,1,5.8C123.6,124.2,123.8,122.1,123.8,120.2z"/>
<path fill="#585858" d="M121.9,114.4c0.3,0.6,0.6,1.3,0.9,1.9C122.5,115.7,122.2,115.1,121.9,114.4z"/>
<path fill="#C7C7C7" d="M138,159.5c-0.2-0.4-0.5-0.8-0.7-1.2C137.6,158.7,137.8,159.1,138,159.5z"/>
<path fill="#C7C7C7" d="M137,157.6c-0.2-0.3-0.5-0.6-0.7-0.9C136.5,157,136.7,157.3,137,157.6z"/>
<path fill="#585858" d="M122.9,117.2c0.3,0.3,0.6,0.7,0.9,1C123.5,117.9,123.2,117.6,122.9,117.2z"/>
<path fill="#9B9B9B" d="M116.1,137.5c-1.4-1.1-2.3-2.6-3.2-4.1c-0.2-0.3-0.4-1-0.2-1.3c0.5-0.7,1.1-0.2,1.6,0.2
	c1.1,1,2.1,1.9,2.7,3.2C116.7,136.2,116.4,136.8,116.1,137.5z"/>
<path fill="#BBBBBB" d="M117.9,140.5c-0.3-0.4-0.6-0.7-0.8-1.1c-0.5-0.4-0.4-0.8,0.1-1.1C117.4,139.1,117.6,139.8,117.9,140.5z"/>
<path fill="#BBBBBB" d="M118.9,142.4c-0.7-0.5-1-1.1-1-2C118.5,140.9,118.8,141.6,118.9,142.4z"/>
<path fill="#9B9B9B" d="M117.2,138.3c0,0.4-0.1,0.7-0.1,1.1c-0.6-0.5-0.9-1.2-0.9-2C116.5,137.8,116.8,138.1,117.2,138.3z"/>
<path fill="#9B9B9B" d="M117.1,135.6c0.3,0.3,0.7,0.6,1,0.9C117.7,136.2,117.4,135.9,117.1,135.6z"/>
<path fill="#D6D6D6" d="M101.6,71.3c-0.1-0.1-0.2-0.2-0.3-0.3c-5.5-6.7-12.9-10.3-20.7-13.3c-0.9-0.3-1.8-0.6-2.7-1
	c-1.7-1.1-3.6,0.5-5.3-0.4c-1.1-0.4-2.3-0.8-3.4-1.2c-0.5-0.2-0.8-0.6-1.1-1c-0.8-2.3,0.3-3.3,2.4-3.4c1.9-0.2,3.9-0.3,5.6,0.5
	c2.9,1.4,5.7,1.4,8.7,0.6c2,0.4,3.6,1.6,5.2,2c-2.7-1-5.5-2.7-8.9-3.2c-1.6-0.2-2.8-1.1-2.7-2.7c0.2-2.2,2-2.1,3.6-2.1
	c3.7,0.1,6.7,2.5,10.3,3c0.4,0.2,0.8,0.3,1.2,0.4c0.7,0.5,1.5,0.9,2.2,1.3c1.4,0.9,3,1.5,4.1,2.3c-1.6-1-3.6-1.8-5.4-3
	c-1.8-1.8-6.2-0.1-6-4.5c-0.1-0.7-0.1-1.3,0.7-1.5c0.3-0.1,0.7-0.1,0.9,0.1c2.2,1,4.3,0.6,6.5-0.2c0.4-0.2,0.9-0.1,1.4-0.2
	c1.3,1.2,2.9,1.9,4.7,1.4c2-0.5,4,0.8,5.9-0.5c1.9,1.2,3.8,2.3,5.7,3.5c1.2,0.8,2.3,1.8,2.9,3.1c0.2,0.3,0,1-0.2,1.3
	c-0.3,0.3-0.9,0.4-1.3,0.4c-1-0.1-1.7-0.8-2.3-1.6c-1.3-1.5-2.9-2.7-5.4-4c2.1,4,4,7.3,6.9,9.9c1.8,1.6,3.5,3.3,5,5.1
	c2.7,3,5,6.2,5.9,10.2c-0.2,4.5,3.1,7.6,4.8,11.2c2.1,4.2,3.4,8.5,4.4,13c0.3,1.4,0.6,2.7-1.1,3.1c-1.9,0.5-1.7-1.4-2.3-2.4
	c-3.3-10.2-8.3-19.4-15.1-27.5c-1.2,0.4-0.9,1.1-0.6,1.6c0.7,1.6,1.5,3.1,2.3,4.7c0.2,0.4,0.5,0.8,0.9,1.1l0,0
	c0.6,0.5,0.4,1.4,1,1.9l0,0c0.9,2.1-0.2,2.6-1.9,2.1c-1.8-0.5-3.5-1.3-4.5-3c-0.6-2.7-1.8-5.2-3.3-7.6c-0.2-0.4-0.5-0.7-0.7-1.1
	c-0.2-0.4-0.4-0.7-0.7-1.1c-0.2-0.5-0.6-0.9-0.9-1.4c0.9,1.2,1.6,2.6,2.5,3.8c1.5,2.7,3.4,5.2,1.4,8.6c-0.7,1.2,0.4,2.7,0.9,4
	c0.2,0.4,0.4,0.8,0.6,1.2c0.2,0.4,0.4,0.8,0.5,1.2c0.3,0.6,0.5,1.2,0.6,1.9c0,0.5-0.1,0.9-0.3,1.3c-1.9,2-2.5,0.1-3.5-1.1
	c-3-3.7-4.4-8.4-7.9-11.7c-0.1-0.3-0.1-0.5-0.2-0.8C101.7,74,102.9,72.3,101.6,71.3z"/>
<path fill="#A9A9A9" d="M131.6,97.1c0.4,0.3,0.7,0.7,1.1,0.9c0.5,0.3,1,0.1,1.1-0.4c0.1-0.6,0-1.3-0.1-1.9c-1.2-6.4-4.1-12-7.2-17.6
	c-0.9-1.5-1.9-3-2.3-4.7c-0.2-1.1,0.6-1.3,1.5-1.2l0,0c0.6,0.5,0.3,1.4,1,1.8c1.3,2.3,2.5,4.5,3.8,6.8c0,0.2,0,0.3,0.1,0.5
	c3,4.9,4.6,10.4,5.5,16.1c0.4,2.7,1.3,5.2,2,7.8c0.7,2.3,1.7,4.3,3.5,6.1c2.9,2.9,3.6,7,4.1,10.9c0.2,1.6,0.1,3.2,0.1,4.8
	c-1.4-2-1.4-4.5-2.2-6.9c-1.4,0.6-1.4,1.8-1.5,2.8c-0.3,3.2-0.3,6.4,0.3,9.5c0.4,2.1,0.5,4.1,0,6.2c-0.4,1.6-0.3,3.2,0,4.7
	c0.4,1.9,0.7,3.8,0.4,5.7c-1.4,0-1-1.5-1.7-2c0-0.3-0.1-0.6-0.1-0.9c-0.6-0.6-0.4-1.4-0.8-2c0-5.3,0.1-10.5-1.1-15.7
	c-0.6-2.8-1.9-5.4-1.7-8.4c0-0.6-0.4-1.2-1-1.5c-1.8-0.9-2.2-2.6-2.5-4.4c-0.5-2.5-0.9-5-1.3-7.5C132.3,103.4,132,100.3,131.6,97.1z
	"/>
<path fill="#DDDDDD" d="M112.3,23.2c1,0,2,0.3,2.9,0.9C114.1,24.1,113.1,23.9,112.3,23.2z"/>
<path fill="#DDDDDD" d="M125.7,29.9c1,0.1,2,0.3,2.9,1C127.6,30.8,126.6,30.6,125.7,29.9z"/>
<path fill="#DDDDDD" d="M109.4,22.3c1.1,0,2,0.3,2.9,0.9C111.2,23.2,110.2,22.9,109.4,22.3z"/>
<path fill="#DDDDDD" d="M120.9,27.1c0.6,0.3,1.3,0.6,1.9,1C122.2,27.7,121.6,27.4,120.9,27.1z"/>
<path fill="#DDDDDD" d="M105.5,21.3c0.6,0.3,1.3,0.6,1.9,0.9C106.8,22,106.2,21.6,105.5,21.3z"/>
<path fill="#DDDDDD" d="M119,26.1c0.6,0.3,1.3,0.6,1.9,1C120.3,26.7,119.6,26.4,119,26.1z"/>
<path fill="#DDDDDD" d="M115.2,24.2c0.6,0.3,1.3,0.6,1.9,0.9C116.4,24.8,115.8,24.5,115.2,24.2z"/>
<path fill="#D6D6D6" d="M126.7,74c-0.3-0.6-0.7-1.2-1-1.8C126,72.8,126.4,73.4,126.7,74z"/>
<path fill="#DDDDDD" d="M118,25.2c0.3,0.3,0.6,0.6,1,0.9C118.7,25.8,118.4,25.5,118,25.2z"/>
<path fill="#DDDDDD" d="M107.5,38.5c-0.3-0.3-0.6-0.6-0.9-0.9C106.9,37.9,107.2,38.2,107.5,38.5z"/>
<path fill="#DDDDDD" d="M110.4,40.5c-0.3-0.3-0.7-0.6-1-0.9C109.7,39.9,110,40.2,110.4,40.5z"/>
<path fill="#DDDDDD" d="M108.4,39.5c-0.3-0.3-0.6-0.6-0.9-0.9C107.8,38.9,108.1,39.2,108.4,39.5z"/>
<path fill="#DDDDDD" d="M122.8,28c0.3,0.3,0.6,0.6,1,0.9C123.5,28.7,123.2,28.3,122.8,28z"/>
<path fill="#DDDDDD" d="M124.8,29c0.3,0.3,0.6,0.6,1,0.9C125.4,29.6,125.1,29.3,124.8,29z"/>
<path fill="#D6D6D6" d="M107.5,43.4c-0.3-0.3-0.6-0.6-1-0.9C106.8,42.8,107.2,43.1,107.5,43.4z"/>
<path fill="#D6D6D6" d="M108.4,44.3c-0.3-0.3-0.6-0.6-1-0.9C107.8,43.7,108.1,44,108.4,44.3z"/>
<path fill="#E4E4E4" d="M99.9,74.8c-0.7,0.5-1.5,0.5-2.3,0.3c-1.9,0.4-1.9-1.7-3-2.3c-0.3-0.3-0.5-0.6-0.7-1c-0.4-0.5-1-0.7-1.6-1
	c-8.1-5.1-16.7-9-25.8-11.7c-0.7-0.4-1.4-0.9-2.2-1.2c-0.4-0.1-0.8-0.2-1.2-0.2c-0.8-0.2-1.5-0.4-2.3-0.6c-0.6-0.2-1.2-0.3-1.7-0.4
	c-0.6-0.3-1-0.7-1.4-1.2c-0.1-0.2-0.1-0.4-0.2-0.6c1-0.3,1.9-0.6,2.9-0.9c0.2-0.1,0.4-0.1,0.6-0.2c0.6-0.2,1.2-0.3,1.8-0.3
	c0.6,0,1.3,0,1.9,0.1c1.1,0.3,2.1,0.7,3.2,1c2.3,1,5.2,0.8,6.9,3.2c6.2,2,12.1,4.7,17.6,8.2C95.7,68.1,98.4,71.1,99.9,74.8z"/>
<path fill="#9E9E9E" d="M3.3,42.1c-0.1,0-0.1,0-0.2-0.1c-0.3,0.6-0.7,1.2-0.9,1.9c0.5,0.2,1.1,0.3,1.6,0.4c0.8,0.8,2.1,0,2.9,0.9
	l0,0c1-0.5,0.9-1.2,0.2-1.9C5.9,42.5,4.6,42.4,3.3,42.1z"/>
<path fill="#7F7F7F" d="M64.3,55.1c-0.6-0.1-1.2-0.2-1.8-0.3c-0.6-0.5-1.5-0.3-2-0.9l0,0c-1.4-0.9-3-1-4.5-1.1
	c-0.2-1.4-0.2-1.4,1.6-1.6c4.2-0.8,8.1,0,11.5,2.6c0.3,0.1,0.6,0.1,0.9,0.2c0.8,0.8,2.1,0.1,2.9,0.9c1.6,0.6,3.3,1.3,4.9,1.9
	c-1,0.2-2.1,0.2-2.9,1c-2.6-0.6-5.1-1.3-7.7-1.9C66.4,55,65.2,55.7,64.3,55.1z"/>
<path fill="#818181" d="M59.5,55.7c0.6,0.1,1.2,0.1,1.9,0.2c0.6,0.5,1.4,0.3,2,0.8c0.2,0.1,0.5,0.2,0.8,0.3c0.4,0.1,0.6,0.3,0.6,0.8
	c-0.2,0.6-0.9,0.7-1.3,1c-2.9-0.7-5.7-1.3-8.6-2c-0.8-1.6-0.8-1.7,0.5-1.8c0.8-0.1,1.6,0,2.3-0.1l0,0C58.1,55.5,58.9,55.3,59.5,55.7
	z"/>
<path fill="#ACACAC" d="M88.3,45.3c2.3,1.3,4.5,2.5,6.8,3.8c-0.3,1-1.1,1-2,1c-2.3,0.2-4.4-0.3-6.5-1.2c-1.7-0.8-3.5-1.5-5.5-1.4
	c-0.3,0-0.7,0.2-0.8,0.4c-0.3,0.5,0.1,0.9,0.6,1c5.2,1.3,9.7,3.9,14.3,6.5c0.5,0.3,0.9,0.8,1.3,1.3c0.1,0.1-0.2,0.7-0.4,0.8
	c-1,0.4-1.9,0-2.7-0.4c-2.6-1.2-5.2-2.4-8-3C77.9,53,70.5,51,62.8,51.3c-1.7,0.1-3.4-0.3-4.3-2.2c-0.5-0.3-1.1-0.7-1.6-1
	c-0.9-0.6-2.1-1.2-1.6-2.5c0.4-1.1,1.5-0.9,2.4-0.9c0.3,0,0.7-0.1,0.9-0.2c0.3-0.3,0.7-0.7,0.8-1.1c0.1-0.4-0.2-1-0.5-1.2
	c-1.1-0.7-2.2-1.2-3.3-1.8c-0.6-0.3-1-0.9-0.7-1.6c0.2-0.4,0.6-0.8,1-0.8c3.4-0.4,6.9-0.9,10.2,0.6c0.1,1.5,1.2,2.2,2.4,2.5
	c5.3,1,10.2,3.7,15.7,3.4C85.7,44.7,87,45,88.3,45.3z"/>
<path fill="#929292" d="M84.4,44.4c-0.4,0.7-0.9,1.4-1.8,1.4c-0.6,0-1.3-0.1-1.9-0.3c-6.1-1.5-12.3-2.7-18.4-4.6
	c-0.3-0.1-0.6-0.2-0.9-0.4c-0.4-0.2-0.8-0.6-0.6-1.1c0.1-0.2,0.4-0.5,0.7-0.6c1.6-0.2,3.2-0.2,4.7-0.3c0.3,0,0.6,0,0.9,0.1
	c0.8,0.9,2.1,0.1,2.9,1l0,0c1.4,1.2,3.4-0.2,4.8,1c1.3,0.6,2.6,1.3,3.8,1.9c1.6,0.8,3.3,1.1,4.8,1.9C83.8,44.3,84.1,44.4,84.4,44.4z
	"/>
<path fill="#C7C7C7" d="M58.5,49.1c4.2,0.6,8.4,1.3,12.6,1.9c3.1,0.4,6.3,0.8,9.4,1.1c1.8,0.2,3.4,0.7,4.9,1.7
	c-3.6,1.3-7.1,0-10.5-0.9c-1.5-0.4-3-1-4.6-0.8c-0.9,0.1-1.4,0.7-1.3,1.6c-3.8-1-7.9-0.8-11.5-2.6C57.3,50.2,57.4,49.5,58.5,49.1z"
	/>
<path fill="#ACACAC" d="M74.8,37.6c4.3-0.1,8.5,0.9,12.7,1.5c1.9,0.3,3.8,0.6,5.5-0.6c2,0.5,4,1,5.7,2.3c1.2,0.9,1,1.6-0.9,2.5
	c-2.9-2.3-6.3-2.5-9.8-2.8C83.6,40.1,79,39.6,74.8,37.6z"/>
<path fill="#ACACAC" d="M83.5,44.3c-1.8,0-3.5-0.6-4.8-1.9C80.5,42.5,82.1,43,83.5,44.3z"/>
<path fill="#ACACAC" d="M74.8,40.5c-1.7,0-3.3,0-4.8-1C71.7,39.5,73.4,39.5,74.8,40.5z"/>
<path fill="#ACACAC" d="M70,39.6c-1.1,0-2-0.3-2.9-1C68.2,38.6,69.2,38.9,70,39.6z"/>
<path fill="#ACACAC" d="M93.1,38.6c-0.6-0.3-1.3-0.6-1.9-0.9C91.8,38,92.4,38.3,93.1,38.6z"/>
<path fill="#A0A0A0" d="M113.4,144c0-0.3-0.1-0.5-0.2-0.8c-0.5-0.6-0.3-1.4-0.9-2c-0.9-2.1-1.8-4.2-2.8-6.3c-0.4-1-0.8-2-0.2-3.1
	l0-0.1c0.4,0.3,0.8,0.7,0.9,1.2c0,0.2,0.1,0.5,0.2,0.7c0.3,0.3,0.6,0.7,0.8,1l0,0c0.5,0.3,0.8,0.7,0.9,1.3c1.1,2.9,3.2,5.3,4,8.3
	c-0.3,0.7-0.7,1.3-1,2c-0.3,0-0.5-0.1-0.8-0.1c-0.1-0.3-0.1-0.6-0.2-0.8C113.8,144.8,113.5,144.5,113.4,144z"/>
<path fill="#3C3C3C" d="M127.6,169.1c0.7,0.9,1,1.9,0.9,3C127.7,171.3,127.5,170.3,127.6,169.1z"/>
<path fill="#464646" d="M104.5,89.7c1.7,3.1,3.3,6.2,5,9.3c4.6,5.1,5.4,11,3.6,17.4c-0.8-1.3-1.4-2.8-3.4-2.7
	c-1,0.1-1.7-0.6-2.5-1.1c-0.6-0.4-1.2-0.3-1.7,0c-0.2,0.1-0.4,0.2-0.6,0.4c-0.5,0-0.9-0.2-1.3-0.4c-2.1-1.5-3.2-3.6-3.1-6
	c0.1-3.9-0.2-7.9,0.3-11.8c0.7-1.7-0.5-3-1-4.4c-0.4-1.1-0.2-2.3,0.9-2.9c1.5-1,2.3,0.1,3,1.2l0,0C104,88.8,104.3,89.2,104.5,89.7z"
	/>
<path fill="#939393" d="M113.1,116.4c-0.3-3.3-0.6-6.6-1-9.8c-0.2-1.2-0.8-2.4-1.2-3.6c-0.5-1.3-1-2.6-1.4-4c1,0.4,1.6,0.1,1.9-0.9
	c2.6,3.6,3.6,7.7,3.8,12c0.1,4.4,0.8,8.8,1.9,13.1c-0.5,1.8,1.2,4.1-1.1,5.5c-1.8-1.4-1.1-3.5-1.5-5.3
	C114,121.1,113.5,118.8,113.1,116.4z"/>
<path fill="#CACACA" d="M104.8,117.4c-0.4,1.1-0.8,2.2-1.2,3.4c-0.1,0.6-0.5,1-0.9,1.3l0-0.1c-0.4,0.5-0.8,0.6-1.4,0.5
	c-1.2-0.4-1.6-1.3-1.7-2.5c0.2-2,1.6-3.5,1.8-5.6c0.1-1.5,1.1-3,3.2-1.7l0,0C105.5,114.2,105.1,115.8,104.8,117.4z"/>
<path fill="#868686" d="M104.8,117.4c-0.1-1.6-0.2-3.2-0.2-4.9c0.3,0,0.7,0,1,0C105.5,114.2,105.8,115.9,104.8,117.4z"/>
<path fill="#3F3F3F" d="M111.3,134.7c-0.3-0.3-0.6-0.7-0.8-1C110.7,134,111,134.3,111.3,134.7z"/>
<path fill="#3F3F3F" d="M110.2,133c-0.3-0.4-0.6-0.8-0.9-1.2C109.6,132.1,109.9,132.5,110.2,133z"/>
<path fill="#3F3F3F" d="M112.1,135.9c-0.3-0.4-0.6-0.9-0.9-1.3C111.5,135,111.8,135.5,112.1,135.9z"/>
<path fill="#3F3F3F" d="M101.8,122.2c0.3-0.1,0.6-0.1,0.9-0.2c-0.3,0.4-0.5,0.8-0.8,1.2c0,0-0.2-0.2-0.2-0.2
	c-0.2-0.2-0.3-0.4-0.2-0.6C101.6,122.2,101.7,122.2,101.8,122.2z"/>
<path fill="#3F3F3F" d="M102.6,122.1c0.3-0.4,0.6-0.8,0.9-1.3C103.2,121.2,102.9,121.6,102.6,122.1z"/>
<path fill="#979797" d="M129.6,124c0.1-2.6-0.4-5.1-1.1-7.6c-1.3-6.3-4.9-12.1-4.3-18.8c0.1-2,1.4-3,3.3-3.2
	c1.8,2.7,2.6,5.5,2.4,8.9c-0.2,4.4,0.6,8.8,1,13.2c0.3,3,0.9,5.9,1.2,8.9c0.1,1.1-0.5,1.8-1.7,1.6l0,0
	C129.6,126.1,130.4,124.8,129.6,124z"/>
<path fill="#B8B8B8" d="M127.6,94.3c-0.2,1.8-0.2,1.8-1.8,1.8c-3.8-0.7-3.5-4.8-5.6-7c-2.2-2.8-3.6-6-5.5-9c-0.9-1.4-1.2-3,0.4-4.2
	c1.3,0.8,2.2,2,3.1,3.2c0.7,0.8,1.3,0.5,1.7-0.3c2.8,2.9,4.3,6.5,5.7,10.1C126.5,90.7,127,92.6,127.6,94.3z"/>
<path fill="#858585" d="M140.2,144.1c0.3,0.7,0.5,1.3,0.8,2C140.8,145.4,140.5,144.8,140.2,144.1z"/>
<path fill="#B8B8B8" d="M120,78.9c-0.3-0.6-0.7-1.3-1-1.9C119.3,77.6,119.7,78.2,120,78.9z"/>
<path fill="#B8B8B8" d="M119,77c-0.3-0.4-0.6-0.7-0.9-1.1C118.4,76.2,118.7,76.6,119,77z"/>
<path fill="#A4A4A4" d="M102.7,76c1.3-0.5,1.8-1.6,2.1-3c1,1,0.5,1.9,0.7,2.8c0.2,1.1,0.2,2.3,0.7,3.2c1.7,3,3.6,6,5.5,8.9
	c0.5,0.7,1.1,0.4,1.4-0.3c4.4-0.2,2.6,3.8,3.9,5.7l0,0c1.2,1.4-0.2,3.4,1,4.8l0,0c0.3,0.3,0.6,0.7,0.9,1c0,0.3,0.1,0.6,0.1,0.9
	c0.5,0.6,0.3,1.4,0.8,2c0.4,0.9,0.7,1.8,1.1,2.8c-0.5,1-1.3,1.6-2.1,0.4c-1.2-1.7-2-3.6-2.7-5.6c-0.8-2.2-1.8-4.4-2.8-6.6
	c-0.5-1-1.2-1.9-2.1-2.6c-2.3-3.6-4.5-7.1-6.8-10.7C103.8,78.5,102.8,77.5,102.7,76z"/>
<path fill="#A4A4A4" d="M101.6,71.3c1.1,1.1,1.2,2.4,1,3.9C101.8,74,101.7,72.6,101.6,71.3z"/>
<path fill="#797979" d="M121.9,88.5c1.3,2.5,2.6,5.1,3.9,7.6c-0.2,3.1,0,6.1,1.1,9c1.5,3.6,1.8,7.4,1.7,11.3
	c-1.8-2.1-2.9-4.6-3.8-7.2c-1.1-3-2-6.1-3-9.1c0-0.2,0.1-0.4,0.1-0.7c-0.2-3-1.3-5.8-2.7-8.4c-0.7-1.3-0.8-2.4,0.4-3.4
	C120.7,86.9,121.3,87.7,121.9,88.5z"/>
<path fill="#797979" d="M117.1,93.3c-1.3-1.9-2.6-3.8-3.9-5.7c0,0,0,0,0,0c-0.5-0.5-0.3-1.4-1-1.9l0,0c-0.3-0.4-0.4-0.9-0.5-1.4
	c-0.3-1.2-1.9-2.7,0.1-3.7c1.5-0.8,2.8,0.1,3.7,1.4c1.8,2.7,3.8,5.4,3,9c-0.2,0.2-0.4,0.4-0.5,0.5C117.7,92.1,117.4,92.7,117.1,93.3
	z"/>
<path fill="#797979" d="M120.8,98.2c-1.1-1.8-1.7-3.7-1.9-5.8c0.2-0.1,0.5-0.2,0.7-0.2c1.9,1.4,2.7,3.2,1.8,5.6
	C121.2,97.9,121,98,120.8,98.2z"/>
<path fill="#797979" d="M118.1,98.1c-1.1-1.4-1-3.1-1-4.8C118.1,94.7,118.1,96.4,118.1,98.1z"/>
<path fill="#717171" d="M129.6,124c0.6,0.9,0.8,1.9,0.9,2.9C129.9,126,129.6,125,129.6,124z"/>
<path fill="#797979" d="M119.9,102c-0.3-0.7-0.6-1.3-0.9-2C119.4,100.7,119.6,101.3,119.9,102z"/>
<path fill="#797979" d="M121.8,100.1c-0.3-0.6-0.6-1.3-1-1.9c0,0,0.1-0.1,0.1-0.1c1.6,0,1.5,0.8,1,1.9L121.8,100.1z"/>
<path fill="#797979" d="M118.9,92.4c-0.3-0.3-0.6-0.6-0.9-1c0,0,0.1-0.1,0.1-0.1C118.9,91.2,119.2,91.5,118.9,92.4L118.9,92.4z"/>
<path fill="#797979" d="M118.9,99.1c-0.3-0.3-0.6-0.7-0.9-1C118.4,98.4,118.6,98.8,118.9,99.1z"/>
<path fill="#959595" d="M119,92.3c-0.3-0.3-0.6-0.7-0.9-1c-1-3.4-3.1-6.1-5-8.9c-0.1-0.2-0.6-0.4-0.8-0.3c-0.5,0.2-0.4,0.7-0.3,1.2
	c0.1,0.5,0.2,0.9,0.3,1.4c-0.3,0.4-0.6,0.4-0.8,0c-0.9-2.2-1.9-4.4-2.7-6.6c-0.3-0.7-0.3-1.8,0.7-1.9c1.7-0.2,1.7-1.1,1.2-2.3
	c-0.4-0.9-0.8-1.7-1.3-2.6c-0.4-1.2-1.3-2.6,1-2.9l0,0c0.3,0.3,0.6,0.7,0.9,1c1.3,2.2,2.6,4.5,3.9,6.7c0.3,1.8,1.5,3.1,2.4,4.6
	c1.6,2.6,3.3,5,4.3,7.9c-0.9-0.1-1.7,0.1-1.5,1.2c0.2,1.1,0.8,2.1,1.2,3.1c0.9,2,1.6,4.2,1.8,6.4c0.1,0.8-0.7,0.9-1.4,0.8
	c-0.3-0.6-0.6-1.3-1-1.9C120.9,96,120.5,93.9,119,92.3z"/>
<path fill="#B2B2B2" d="M110.4,68.3c-0.6,0.9-0.9,1.9-1,2.9c-1.8-2.1-3.3-4.3-4-7c-0.3-1.1-1.9-2.5-0.5-3.2c1-0.5,1.9,1.4,2.6,2.4
	C108.4,65,110,66.3,110.4,68.3z"/>
<path fill="#8B8B8B" d="M93.1,50.1c0.7-0.3,1.3-0.7,2-1c3.3,2,6.6,3.9,9.8,5.9c0.2,0.1,0.4,0.6,0.4,0.8c-0.1,0.6-0.7,0.6-1.1,0.4
	c-3.2-1.5-6.4-2.8-9.3-4.9C94.5,50.5,93.6,50.7,93.1,50.1L93.1,50.1z"/>
<path fill="#A4A4A4" d="M100.7,65.5c0.7,0.3,1.5,0.5,2.1,0.9c0.8,0.5,1.4,1.2,1.2,2.3c0,0.1-0.2,0.3-0.3,0.3
	c-1.1,0.2-1.6-0.7-2.1-1.5C101.2,66.9,101.1,66.2,100.7,65.5L100.7,65.5z"/>
<path fill="#C7C7C7" d="M72.9,54.8c-1-0.3-1.9-0.6-2.9-0.9C71,54,72,54.2,72.9,54.8z"/>
<path fill="#ACACAC" d="M93.1,50.1c0.6,0.4,1.2,0.7,1.9,1.1C94.3,50.8,93.7,50.4,93.1,50.1z"/>
<path fill="#A4A4A4" d="M100.8,65.4c-0.2-0.1-0.4-0.2-0.6-0.3c0.1,0,0.2,0,0.3,0C100.6,65.3,100.7,65.4,100.8,65.4L100.8,65.4z"/>
<path fill="#A4A4A4" d="M112.2,85.7c0.3,0.6,0.6,1.3,1,1.9C112.9,86.9,112.5,86.3,112.2,85.7z"/>
<path fill="#B2B2B2" d="M111.3,69.3c-0.3-0.3-0.6-0.7-0.9-1C110.7,68.7,111,69,111.3,69.3z"/>
<path fill="#A4A4A4" d="M111.4,84.6c0.3,0,0.6,0,0.8,0c0,0.3,0,0.7-0.1,1C111.9,85.3,111.7,85,111.4,84.6z"/>
<path fill="#434343" d="M63.3,58.8c0.3-0.3,0.7-0.7,1-1c0.6-0.5,1.2-0.5,1.9,0c3.6,1.2,7.2,2.4,10.7,3.6c0.9,0.3,1.8,0.6,2.6,1
	c3.8,2,7.5,4,11.3,6C92,69,93,69.7,94,70.4c0.4,0.2,0.6,0.4,0.7,0.8c0.2,0.2,0.3,0.5,0.4,0.8c0.2,1-0.2,1.3-1.1,1.2l0,0
	c-0.3-0.5-0.6-0.8-1.2-0.9c-3.5-1.9-7-3.8-10.5-5.7c-4.4-2.3-9-4.1-13.7-5.7C66.8,60.3,65.1,59.5,63.3,58.8z"/>
<path fill="#717171" d="M94,73.3c0.4-0.4,0.8-0.8,1.1-1.2c0.9,1,1.7,2,2.6,3c0.2,0.4,0.4,0.9,0.5,1.3c0.3,0.8,1.4,1.7,0.3,2.4
	c-0.8,0.5-1.4-0.6-1.8-1.2C95.7,76.2,94.9,74.7,94,73.3z"/>
<path fill="#B8B8B8" d="M104.5,89.7c-0.3-0.4-0.6-0.8-0.8-1.2C103.9,88.9,104.2,89.3,104.5,89.7z"/>
<path fill="#717171" d="M92.8,72.4c0.4,0.3,0.8,0.6,1.2,0.9C93.6,72.9,93.2,72.6,92.8,72.4z"/>
<path fill="#D8D8D8" d="M66.2,72.1c-0.3-0.3-0.6-0.6-1-0.9C65.6,71.5,65.9,71.8,66.2,72.1z"/>
<path fill="#C7C7C7" d="M6.7,45.3c-0.9-0.6-1.8-0.9-2.9-0.9C4.7,45,5.6,45.3,6.7,45.3z"/>
<path fill="#C7C7C7" d="M64.3,55.1c1-0.1,2,0.1,2.9,0.8C66.2,55.6,65.3,55.3,64.3,55.1z"/>
<path fill="#C7C7C7" d="M60.4,53.9c0.7,0.3,1.3,0.6,2,0.9C61.8,54.5,61.1,54.2,60.4,53.9z"/>
<path fill="#C7C7C7" d="M59.5,55.7c-0.6-0.3-1.3-0.6-1.9-0.8C58.2,55.2,58.8,55.4,59.5,55.7z"/>
<path fill="#C7C7C7" d="M66.2,57.7c-0.6,0-1.2,0-1.9,0c-0.1-0.3-0.2-0.5-0.3-0.8C64.8,57.2,65.5,57.5,66.2,57.7z"/>
<path fill="#C7C7C7" d="M63.3,56.7c-0.7-0.3-1.3-0.5-2-0.8C62,56.2,62.7,56.4,63.3,56.7z"/>
<path fill="#717171" d="M94.7,71.3c-0.2-0.3-0.4-0.5-0.7-0.8C94.2,70.7,94.5,71,94.7,71.3z"/>
<path fill="#646464" d="M112.3,141.3c0.3,0.7,0.6,1.3,0.9,2C112.9,142.6,112.6,141.9,112.3,141.3z"/>
<path fill="#646464" d="M113.4,144c0.2,0.4,0.5,0.8,0.7,1.1C113.9,144.8,113.6,144.4,113.4,144z"/>
<path fill="#CDCDCD" d="M97.9,93.3c-0.3-0.3-0.7-0.6-1-0.9C97.2,92.7,97.6,93,97.9,93.3z"/>
</svg>
